<?xml version="1.0" encoding="utf-8"?>
<!-- Generator: Adobe Illustrator 15.1.0, SVG Export Plug-In . SVG Version: 6.00 Build 0)  -->
<!DOCTYPE svg PUBLIC "-//W3C//DTD SVG 1.1//EN" "http://www.w3.org/Graphics/SVG/1.1/DTD/svg11.dtd">
<svg version="1.1" id="Layer_1" xmlns="http://www.w3.org/2000/svg" xmlns:xlink="http://www.w3.org/1999/xlink" x="0px" y="0px"
	 width="245px" height="337.5px" viewBox="0 0 245 337.5" enable-background="new 0 0 245 337.5" xml:space="preserve">
<path fill="#2D2E2D" d="M80.812,65.132c0,0,12.246-52.702,82.915-47.546c0,0,61.389,19.177,49.446,74.095
	c-0.095,0.963,2.579,129.948-153.029,127.9c0,0-39.691-1.739-28.558-37.604c0,0,2.099-5.752,12.425-10.27
	c0,0,16.351-2.259,9.466,12.528c0,0,0.217-10.063-9.68-4.107c0,0-5.379,10.473,9.896,12.524c0,0,20.225,4.316,28.829-19.303
	c0,0,1.23-25.848-1.137-39.197C81.384,134.154,76.936,70.212,80.812,65.132z"/>
<path fill="#F6DFCA" d="M200.671,77.23c0,35.936,12.127,45.767-54.122,45.767c-53.385,0-54.123-6.06-54.123-45.767
	c0-34.243,12.669-40.467,51.964-40.467C193.101,36.763,200.671,47.906,200.671,77.23z"/>
<g>
	<path fill="#2D2E2D" d="M157.977,89.316c0.46-1.338,1.159-2.589,1.962-3.766c0.819-1.167,1.774-2.253,2.877-3.186
		c1.092-0.944,2.339-1.717,3.672-2.305c1.338-0.577,2.768-0.939,4.215-1.097c1.449-0.142,2.911-0.083,4.336,0.146
		c1.422,0.245,2.815,0.62,4.146,1.142c2.671,1.022,5.132,2.485,7.368,4.202c-2.479-1.34-5.006-2.564-7.646-3.409
		c-1.321-0.412-2.66-0.751-4.02-0.926c-1.354-0.188-2.726-0.232-4.074-0.085c-2.704,0.256-5.295,1.322-7.473,2.983
		c-1.09,0.83-2.091,1.792-2.985,2.854C159.458,86.93,158.652,88.078,157.977,89.316z"/>
</g>
<g>
	<path fill="#2D2E2D" d="M179.126,80.756c1.309-0.209,2.564-0.536,3.715-1.036c1.144-0.51,2.165-1.22,2.867-2.181
		c0.711-0.954,1.083-2.138,1.22-3.382c0.133-1.25,0.046-2.547-0.072-3.87c0.55,1.209,0.892,2.531,0.912,3.907
		c0.034,1.366-0.327,2.824-1.193,3.984c-0.856,1.167-2.132,1.941-3.444,2.327C181.816,80.899,180.44,80.993,179.126,80.756z"/>
</g>
<g>
	<path fill="#2D2E2D" d="M184.213,83.206c1.32,0.058,2.613-0.006,3.839-0.261c1.22-0.264,2.362-0.749,3.238-1.548
		c0.883-0.79,1.475-1.875,1.845-3.067c0.367-1.197,0.526-2.485,0.662-3.803c0.312,1.288,0.397,2.647,0.156,3.999
		c-0.226,1.345-0.86,2.707-1.94,3.671c-1.071,0.972-2.478,1.469-3.837,1.577C186.81,83.89,185.447,83.701,184.213,83.206z"/>
</g>
<path fill="none" stroke="#F6B67E" stroke-miterlimit="10" d="M146.611,86.479c0,0-0.455,1.553-5.455,4.866c0,0,0,4.679,5.455,4.224
	"/>
<path fill="#2D2E2D" d="M160.435,24.648c0,0-72.625-17.332-70.315,53.98c0,0,4.87-2.496,13.172-5.205l6.486-23.639l6.326,20.143
	c6.29-1.397,13.49-2.535,21.332-2.991l8.5-22.305l11.832,22.775c4.708,0.505,9.542,1.31,14.458,2.48l-2.611-25.255l14.381,28.747
	c6.448,2.299,12.977,5.288,19.501,9.112C203.496,82.49,211.117,24.588,160.435,24.648z"/>
<line fill="none" x1="103.292" y1="73.423" x2="103.176" y2="73.843"/>
<polygon opacity="0.67" fill="#F5CFAF" enable-background="new    " points="92.375,83.466 107.064,73.423 109.778,49.888 
	103.292,73.423 92.426,77.23 "/>
<g>
	<path fill="#2D2E2D" d="M134.806,89.229c-0.698-1.224-1.524-2.358-2.442-3.4c-0.914-1.045-1.931-1.989-3.036-2.799
		c-2.208-1.621-4.818-2.64-7.526-2.845c-1.351-0.125-2.721-0.054-4.073,0.158c-1.355,0.199-2.688,0.563-4.001,0.999
		c-2.624,0.893-5.127,2.163-7.582,3.548c2.204-1.757,4.637-3.265,7.29-4.336c1.321-0.546,2.708-0.946,4.124-1.217
		c1.421-0.255,2.881-0.342,4.332-0.227c1.45,0.131,2.888,0.467,4.235,1.02c1.342,0.563,2.605,1.312,3.713,2.237
		c1.12,0.912,2.095,1.981,2.936,3.133C133.601,86.661,134.322,87.901,134.806,89.229z"/>
</g>
<g>
	<path fill="#2D2E2D" d="M113.505,81.056c-1.308,0.261-2.686,0.191-4.008-0.177c-1.318-0.361-2.609-1.112-3.486-2.264
		c-0.887-1.145-1.274-2.596-1.265-3.962c-0.005-1.376,0.312-2.704,0.84-3.923c-0.094,1.325-0.157,2.624-0.001,3.87
		c0.159,1.242,0.553,2.418,1.281,3.359c0.719,0.948,1.754,1.639,2.906,2.128C110.931,80.568,112.193,80.871,113.505,81.056z"/>
</g>
<g>
	<path fill="#2D2E2D" d="M107.707,83.791c-1.164,0.534-2.477,0.764-3.8,0.665c-1.318-0.088-2.691-0.613-3.679-1.606
		c-0.997-0.986-1.534-2.315-1.725-3.606c-0.202-1.302-0.117-2.604,0.176-3.847c0.154,1.267,0.311,2.505,0.645,3.666
		c0.338,1.155,0.858,2.228,1.663,3.022c0.796,0.803,1.87,1.296,3.037,1.542C105.194,83.864,106.439,83.892,107.707,83.791z"/>
</g>
<path fill="#F5CFAF" d="M200.753,82.49c0,0,0.549,33.5-28.488,39.72c0,0,29.801,2.165,29.278-19.86L200.753,82.49z"/>
<path fill="#F6DFCA" d="M199.492,147.853c-0.343-27.705-4.859-50.11-14.808-49.988c-5.158,0.064-1.885,22.487-1.541,50.191
	c0.343,27.706-2.375,50.201,2.785,50.139C191.086,198.129,199.835,175.559,199.492,147.853z"/>
<path fill="#F5CFAF" d="M184.683,97.865c0,0,2.674,79.382,1.244,100.33c0,0-6.757-0.12-2.768-48.305l-0.93-27.42
	C182.23,122.47,181.812,97.22,184.683,97.865z"/>
<path fill="#F6DFCA" d="M89.007,161.866c12.081-24.936,25.69-43.301,34.643-38.962c4.643,2.249-7.847,21.157-19.929,46.091
	c-12.083,24.935-19.18,46.454-23.824,44.203C75.255,210.949,76.924,186.8,89.007,161.866z"/>
<path fill="#F5CFAF" d="M123.65,122.905c0,0-36.148,70.724-43.753,90.294c0,0,6.167,2.764,23.028-42.552l12.492-24.425
	C115.417,146.222,126.524,123.54,123.65,122.905z"/>
<path fill="#F6DFCA" d="M185.7,245.038c1.79-27.668-1.965-50.321-14.188-50.845c-6.341-0.271-4.111,22.316-5.903,49.986
	c-1.792,27.669-6.925,49.943-0.585,50.212C171.365,294.663,183.909,272.708,185.7,245.038z"/>
<path fill="#F5CFAF" d="M171.512,194.194c0,0-3.059,79.388-6.487,100.198c0,0-8.285-0.556,0.46-48.381l1.049-27.422
	C166.534,218.589,168.036,193.365,171.512,194.194z"/>
<path fill="#F6DFCA" d="M128.48,245.037c-1.791-27.669,1.965-50.321,14.189-50.844c6.339-0.271,4.109,22.316,5.899,49.985
	c1.792,27.668,6.926,49.941,0.585,50.213C142.814,294.662,130.27,272.706,128.48,245.037z"/>
<path fill="#F5CFAF" d="M142.669,194.194c0,0,3.056,79.387,6.484,100.198c0,0,8.287-0.558-0.458-48.384l-1.049-27.42
	C147.646,218.589,146.144,193.362,142.669,194.194z"/>
<g>
	<g>
		<defs>
			<path id="SVGID_1_" d="M116.629,140.62l-5.345,94.537c0,0,47.23,29.161,91.611,0.687l-17.337-98.562l-0.784-13.107l-67.351,2.44
				L116.629,140.62z"/>
		</defs>
		<clipPath id="SVGID_2_">
			<use xlink:href="#SVGID_1_"  overflow="visible"/>
		</clipPath>
		<g clip-path="url(#SVGID_2_)">
			<path fill="#952A1F" d="M116.886,139.942l-5.347,94.537c0,0,47.231,29.16,91.613,0.686l-16.575-98.562l-0.786-13.107
				l-68.112,2.44L116.886,139.942z"/>
			<path fill="#42AC49" d="M127.535,229.647c0,0,5.919-5.11,10.435,0.354C137.97,230.001,134.293,234.223,127.535,229.647z"/>
			<path fill="#42AC49" d="M119.277,214.813c0,0,7.329-2.194,9.453,4.732C128.73,219.545,123.79,221.87,119.277,214.813z"/>
			<g>
				<path fill="#E36A95" d="M134.005,213.234c0.733,0.568-4.777-4.028-7.543,1.339c0,0-0.782,2.21,1.136,6.839
					c0,0-1.454-7.697,2.544-7.075c0,0,0.943-1.186,2.504-0.148C132.645,214.188,134.58,213.3,134.005,213.234z"/>
				<path fill="#E36A95" stroke="#FAD1DE" stroke-miterlimit="10" d="M126.354,215.05c0,0-0.092,5.091,0.927,6.195
					c0,0-2.057-2.715-2.177-4.812C125.104,216.434,125.575,215.127,126.354,215.05z"/>
				<path fill="#FAD1DE" d="M125.028,216.825c0,0-0.729,5.86,6.762,7.211c2.098,0.203,2.1,0.174,3.442-0.178
					c0,0-1.8,2.298-2.373,2.233c0,0,3.256-1.034,4.468-5.157l-0.244-2.062c0,0,0.162-2.348-0.224-3.688c0,0,0.082,7.735-4.08,4.365
					c0,0,2.369,0.211,2.519-2.076c0.072-0.779,0.151-2.033-1.743-1.932c0,0-0.388-1.301-0.412-1.182
					c-0.023,0.121,0.919-0.786,1.384-1.059c0,0-1.389,0.18-1.742,0.791c0,0-1.662-1.475-2.538,0.01
					c0.517,0.062-2.996-0.604-2.645,2.165c0,0-0.559,2.573-0.116,3.927c0.357,1.1-1.235-3.863-0.939-4.538
					c0,0-0.383,4.294,0.704,5.74C127.251,221.397,125.432,218.671,125.028,216.825z"/>
				<path fill="#E36A95" d="M131.12,218.123c0,0-2.132-3.234,0.229-3.9c0,0,1.226-0.253,1.48,1.447
					C132.83,215.67,130.968,217.086,131.12,218.123z"/>
				<path fill="#E36A95" d="M133.224,215.756c0,0,0.124-0.935-0.169-1.235c0,0,1.928-2.968,3.804,0.065c0,0,0.396,7.235-2.857,5.697
					c0,0-1.055-0.376-1.13-0.894c0,0,2.583,0.307,2.453-2.35C135.324,217.04,135.359,215.656,133.224,215.756z"/>
				<path fill="#E36A95" d="M129.733,214.982c0,0-0.208,3.484,2.298,4.79c0,0-4.516-1.848-3.602-4.422
					C128.429,215.349,129.183,214.729,129.733,214.982z"/>
				<path fill="#E36A95" d="M133.187,217.44c0,0,0.076,1.097-0.284,1.456c0,0,1.099,0.409,1.219-0.808
					C134.122,218.088,134.088,217.314,133.187,217.44z"/>
				<path fill="#E36A95" d="M132.529,217.212c0,0,0.414,2.472-0.99,1.387c0,0,0.703-3.241,2.928-2.242c0,0,0.678,0.355,0.275,1.56
					C134.742,217.916,133.52,215.826,132.529,217.212z"/>
				<path fill="#E36A95" d="M127.875,216.983c0,0-0.008,0.17-0.012,0.45c-0.022,1.22,0.015,4.547,1.013,5.023
					c0,0,5.061,1.999,6.748,0.43c0,0,1.72-1.736,0.942-3.17c0,0-1.422,2.634-5.305,0.32
					C131.261,220.036,128.515,218.525,127.875,216.983z"/>
				<path fill="#E36A95" d="M136.905,215.179l0.034,2.096c0,0,2.548,2.83,1.672,7.028
					C138.611,224.303,143.03,219.699,136.905,215.179z"/>
				<path fill="#E36A95" d="M137.475,215.526c0,0,4.75,3.125,0.794,8.961C138.27,224.487,143.644,220.283,137.475,215.526z"/>
				<path fill="#FAD1DE" d="M138.407,224.77c0,0,4.191-5.369-1.138-9.312l0,0c0,0,3.755,2.017,1.342,8.846L138.407,224.77z"/>
				<path fill="#E36A95" d="M125.037,216.774c0,0-2.641,5.121,1.344,7.889c0,0,3.976,2.953,6.517,1.447c0,0,2.113-1.415,2.222-2.582
					c0,0-4.08,1.647-8.679-2.189C126.44,221.338,124.57,219.18,125.037,216.774z"/>
				<path fill="#E36A95" d="M136.939,217.275l-0.016,1.023c0,0,0.976,3.583-0.962,5.135c0,0-2.344,2.767-3.375,2.589
					c0,0,4.17,2.982,6.025-1.718C138.611,224.303,139.828,218.821,136.939,217.275z"/>
			</g>
			<g>
				<path fill="#D070AC" d="M119.927,221.121c0.953,0.016-6.404-0.391-5.751,6.028c0,0,0.578,2.412,4.854,5.165
					c0,0-5.613-5.7-1.811-7.746c0,0,0.142-1.632,2.074-1.746C119.293,222.823,120.459,220.806,119.927,221.121z"/>
				<path fill="#D070AC" d="M114.354,227.631c0,0,2.805,4.452,4.31,4.748c0,0-3.312-1.014-4.604-2.746
					C114.06,229.633,113.726,228.202,114.354,227.631z"/>
				<path fill="#FAD1DE" d="M114.217,230.02c0,0,2.689,5.527,9.917,1.85c1.927-1.18,1.911-1.204,2.869-2.376
					c0,0-0.249,3.146-0.782,3.461c0,0,2.223-2.995,0.935-7.335l-1.38-1.622c0,0-1.188-2.131-2.281-3.037c0,0,4.453,6.619-1.046,6.4
					c0,0,2.161-1.347,0.995-3.417c-0.381-0.718-1.022-1.854-2.596-0.542c0,0-1.075-0.872-1.026-0.752
					c0.049,0.117,0.349-1.271,0.593-1.809c0,0-1.096,1.053-1.055,1.811c0,0-2.268-0.202-2.184,1.646
					c0.482-0.28-2.926,1.413-1.055,3.576c0,0,0.976,2.581,2.122,3.464c0.934,0.716-3.252-2.536-3.377-3.309
					c0,0,2.098,3.952,3.856,4.498C118.723,232.527,115.611,231.351,114.217,230.02z"/>
				<path fill="#D070AC" d="M120.207,227.202c0,0-3.67-1.412-2.011-3.513c0,0,0.913-1.009,2.096,0.291
					C120.292,223.981,119.489,226.405,120.207,227.202z"/>
				<path fill="#D070AC" d="M120.681,223.802c0,0-0.424-0.889-0.846-0.957c0,0-0.018-3.807,3.319-2.402c0,0,4.44,5.986,0.761,6.763
					c0,0-1.122,0.358-1.482-0.041c0,0,2.402-1.404,0.788-3.611C123.221,223.553,122.465,222.334,120.681,223.802z"/>
				<path fill="#D070AC" d="M117.232,225.39c0,0,1.793,3.138,4.695,2.646c0,0-4.942,1.323-5.615-1.488
					C116.312,226.548,116.614,225.526,117.232,225.39z"/>
				<path fill="#D070AC" d="M121.603,225.277c0,0,0.688,0.898,0.58,1.44c0,0,1.18-0.357,0.594-1.484
					C122.777,225.233,122.31,224.586,121.603,225.277z"/>
				<path fill="#D070AC" d="M120.909,225.506c0,0,1.754,1.866-0.069,1.835c0,0-1.229-3.249,1.255-3.824c0,0,0.788-0.132,1.122,1.167
					C123.216,224.684,120.975,223.67,120.909,225.506z"/>
				<path fill="#D070AC" d="M116.76,228.316c0,0,0.091,0.15,0.246,0.396c0.673,1.067,2.59,3.913,3.72,3.679
					c0,0,5.5-1.544,6.066-3.988c0,0,0.5-2.609-0.985-3.344c0,0,0.267,3.191-4.396,3.704
					C121.412,228.763,118.188,229.233,116.76,228.316z"/>
				<path fill="#D070AC" d="M123.531,220.924l1.217,1.787c0,0,3.8,0.797,5.423,4.983
					C130.17,227.694,131.374,220.869,123.531,220.924z"/>
				<path fill="#D070AC" d="M124.218,220.857c0,0,5.869-0.372,5.762,7.215C129.98,228.072,132.234,220.975,124.218,220.857z"/>
				<path fill="#FAD1DE" d="M130.259,228.227c0,0,0.574-7.339-6.258-7.297l0,0c0,0,4.382-0.687,6.169,6.765L130.259,228.227z"/>
				<path fill="#D070AC" d="M114.195,229.967c0,0,0.623,6.126,5.627,5.938c0,0,5.104-0.021,6.442-2.963c0,0,1.022-2.583,0.455-3.661
					c0,0-2.587,4.055-8.728,3.719C117.991,233.001,115.155,232.345,114.195,229.967z"/>
				<path fill="#D070AC" d="M124.747,222.711l0.565,0.894c0,0,2.872,2.46,2.077,5.051c0,0-0.454,3.897-1.443,4.412
					c0,0,5.287-0.12,4.224-5.374C130.17,227.694,128.114,222.177,124.747,222.711z"/>
			</g>
			<g>
				<path fill="#42AC49" d="M126.633,159.702c0,0,5.918-5.11,10.436,0.354C137.069,160.056,133.391,164.278,126.633,159.702z"/>
				<path fill="#42AC49" d="M118.375,144.868c0,0,7.328-2.195,9.453,4.732C127.828,149.601,122.888,151.925,118.375,144.868z"/>
				<g>
					<path fill="#E36A95" d="M133.104,143.29c0.734,0.566-4.778-4.031-7.544,1.336c0,0-0.783,2.211,1.137,6.84
						c0,0-1.454-7.696,2.543-7.074c0,0,0.943-1.187,2.503-0.149C131.743,144.242,133.678,143.354,133.104,143.29z"/>
					<path fill="#E36A95" stroke="#FAD1DE" stroke-miterlimit="10" d="M125.452,145.105c0,0-0.093,5.093,0.926,6.197
						c0,0-2.056-2.716-2.177-4.812C124.201,146.49,124.673,145.183,125.452,145.105z"/>
					<path fill="#FAD1DE" d="M124.126,146.881c0,0-0.729,5.86,6.761,7.209c2.099,0.204,2.101,0.176,3.443-0.177
						c0,0-1.8,2.298-2.375,2.232c0,0,3.256-1.033,4.469-5.154l-0.245-2.063c0,0,0.165-2.347-0.223-3.687
						c0,0,0.082,7.733-4.081,4.364c0,0,2.368,0.211,2.52-2.075c0.07-0.781,0.151-2.036-1.743-1.932c0,0-0.389-1.302-0.412-1.182
						c-0.024,0.119,0.92-0.787,1.383-1.061c0,0-1.389,0.181-1.743,0.791c0,0-1.661-1.474-2.537,0.012
						c0.519,0.062-2.996-0.607-2.645,2.163c0,0-0.558,2.572-0.117,3.927c0.36,1.101-1.234-3.864-0.938-4.537
						c0,0-0.384,4.293,0.704,5.739C126.349,151.452,124.53,148.727,124.126,146.881z"/>
					<path fill="#E36A95" d="M130.217,148.179c0,0-2.131-3.233,0.231-3.902c0,0,1.224-0.251,1.481,1.447
						C131.929,145.724,130.066,147.141,130.217,148.179z"/>
					<path fill="#E36A95" d="M132.324,145.813c0,0,0.123-0.937-0.172-1.237c0,0,1.929-2.967,3.806,0.066
						c0,0,0.395,7.233-2.859,5.695c0,0-1.056-0.374-1.131-0.893c0,0,2.584,0.307,2.455-2.349
						C134.422,147.096,134.458,145.709,132.324,145.813z"/>
					<path fill="#E36A95" d="M128.832,145.037c0,0-0.208,3.484,2.298,4.79c0,0-4.517-1.848-3.604-4.424
						C127.526,145.404,128.281,144.784,128.832,145.037z"/>
					<path fill="#E36A95" d="M132.284,147.495c0,0,0.077,1.097-0.282,1.455c0,0,1.099,0.411,1.219-0.807
						C133.22,148.144,133.186,147.368,132.284,147.495z"/>
					<path fill="#E36A95" d="M131.628,147.268c0,0,0.413,2.472-0.99,1.387c0,0,0.702-3.242,2.926-2.243c0,0,0.68,0.357,0.277,1.56
						C133.841,147.971,132.618,145.88,131.628,147.268z"/>
					<path fill="#E36A95" d="M126.974,147.038c0,0-0.009,0.17-0.014,0.449c-0.022,1.221,0.014,4.546,1.014,5.023
						c0,0,5.06,2.002,6.748,0.43c0,0,1.72-1.735,0.941-3.169c0,0-1.421,2.633-5.305,0.32
						C130.359,150.092,127.613,148.579,126.974,147.038z"/>
					<path fill="#E36A95" d="M136.004,145.234l0.036,2.097c0,0,2.546,2.831,1.669,7.026
						C137.709,154.357,142.125,149.755,136.004,145.234z"/>
					<path fill="#E36A95" d="M136.572,145.581c0,0,4.75,3.124,0.795,8.959C137.368,154.54,142.742,150.339,136.572,145.581z"/>
					<path fill="#FAD1DE" d="M137.506,154.824c0,0,4.19-5.369-1.138-9.312l0,0c0,0,3.755,2.017,1.342,8.845L137.506,154.824z"/>
					<path fill="#E36A95" d="M124.135,146.828c0,0-2.64,5.123,1.343,7.888c0,0,3.976,2.955,6.518,1.448c0,0,2.111-1.415,2.221-2.582
						c0,0-4.08,1.646-8.679-2.188C125.538,151.395,123.667,149.235,124.135,146.828z"/>
					<path fill="#E36A95" d="M136.04,147.33l-0.02,1.024c0,0,0.978,3.582-0.961,5.133c0,0-2.342,2.767-3.375,2.589
						c0,0,4.17,2.983,6.025-1.719C137.709,154.357,138.926,148.874,136.04,147.33z"/>
				</g>
				<g>
					<path fill="#D070AC" d="M119.023,151.176c0.956,0.015-6.402-0.39-5.748,6.026c0,0,0.576,2.414,4.853,5.167
						c0,0-5.613-5.699-1.812-7.746c0,0,0.142-1.632,2.075-1.745C118.391,152.878,119.558,150.862,119.023,151.176z"/>
					<path fill="#D070AC" d="M113.452,157.686c0,0,2.806,4.452,4.308,4.748c0,0-3.312-1.015-4.603-2.746
						C113.158,159.688,112.824,158.256,113.452,157.686z"/>
					<path fill="#FAD1DE" d="M113.314,160.074c0,0,2.69,5.527,9.917,1.852c1.926-1.181,1.911-1.205,2.869-2.377
						c0,0-0.25,3.145-0.782,3.461c0,0,2.223-2.996,0.935-7.336l-1.379-1.621c0,0-1.189-2.13-2.282-3.037c0,0,4.451,6.62-1.048,6.4
						c0,0,2.161-1.348,0.995-3.418c-0.38-0.719-1.021-1.854-2.596-0.54c0,0-1.074-0.872-1.025-0.754
						c0.047,0.118,0.347-1.271,0.594-1.807c0,0-1.097,1.051-1.056,1.807c0,0-2.268-0.198-2.184,1.649
						c0.48-0.282-2.926,1.412-1.055,3.576c0,0,0.976,2.581,2.122,3.463c0.934,0.716-3.253-2.536-3.378-3.309
						c0,0,2.1,3.951,3.858,4.496C117.822,162.581,114.708,161.406,113.314,160.074z"/>
					<path fill="#D070AC" d="M119.305,157.257c0,0-3.671-1.411-2.01-3.514c0,0,0.911-1.007,2.096,0.293
						C119.39,154.036,118.586,156.46,119.305,157.257z"/>
					<path fill="#D070AC" d="M119.779,153.858c0,0-0.423-0.891-0.846-0.958c0,0-0.017-3.806,3.319-2.401c0,0,4.439,5.985,0.76,6.761
						c0,0-1.123,0.358-1.48-0.04c0,0,2.402-1.405,0.787-3.613C122.319,153.607,121.564,152.389,119.779,153.858z"/>
					<path fill="#D070AC" d="M116.33,155.443c0,0,1.793,3.143,4.696,2.649c0,0-4.944,1.322-5.615-1.488
						C115.411,156.604,115.711,155.581,116.33,155.443z"/>
					<path fill="#D070AC" d="M120.702,155.333c0,0,0.687,0.896,0.578,1.438c0,0,1.182-0.355,0.596-1.481
						C121.876,155.289,121.407,154.642,120.702,155.333z"/>
					<path fill="#D070AC" d="M120.006,155.562c0,0,1.755,1.865-0.068,1.836c0,0-1.231-3.251,1.255-3.826c0,0,0.786-0.13,1.12,1.168
						C122.313,154.74,120.074,153.726,120.006,155.562z"/>
					<path fill="#D070AC" d="M115.86,158.37c0,0,0.088,0.15,0.243,0.396c0.673,1.067,2.588,3.911,3.719,3.678
						c0,0,5.5-1.542,6.067-3.987c0,0,0.499-2.608-0.985-3.345c0,0,0.268,3.19-4.395,3.705
						C120.51,158.819,117.286,159.287,115.86,158.37z"/>
					<path fill="#D070AC" d="M122.629,150.979l1.217,1.787c0,0,3.8,0.796,5.422,4.983
						C129.268,157.749,130.471,150.925,122.629,150.979z"/>
					<path fill="#D070AC" d="M123.315,150.913c0,0,5.869-0.375,5.762,7.213C129.078,158.126,131.333,151.031,123.315,150.913z"/>
					<path fill="#FAD1DE" d="M129.357,158.282c0,0,0.573-7.338-6.259-7.297l0,0c0,0,4.384-0.688,6.17,6.764L129.357,158.282z"/>
					<path fill="#D070AC" d="M113.293,160.023c0,0,0.623,6.126,5.628,5.937c0,0,5.102-0.021,6.442-2.961
						c0,0,1.021-2.583,0.454-3.661c0,0-2.587,4.055-8.727,3.719C117.09,163.057,114.251,162.401,113.293,160.023z"/>
					<path fill="#D070AC" d="M123.846,152.765l0.565,0.895c0,0,2.872,2.46,2.077,5.05c0,0-0.453,3.9-1.444,4.413
						c0,0,5.288-0.12,4.224-5.373C129.268,157.749,127.212,152.233,123.846,152.765z"/>
				</g>
			</g>
			<g>
				<path fill="#42AC49" d="M177.653,156.701c0,0,5.919-5.111,10.436,0.354C188.088,157.055,184.412,161.277,177.653,156.701z"/>
				<path fill="#42AC49" d="M169.397,141.866c0,0,7.327-2.194,9.452,4.732C178.849,146.599,173.909,148.924,169.397,141.866z"/>
				<g>
					<path fill="#E36A95" d="M184.123,140.288c0.734,0.567-4.775-4.029-7.543,1.337c0,0-0.781,2.211,1.135,6.84
						c0,0-1.452-7.696,2.547-7.075c0,0,0.941-1.185,2.503-0.147C182.764,141.242,184.699,140.354,184.123,140.288z"/>
					<path fill="#E36A95" stroke="#FAD1DE" stroke-miterlimit="10" d="M176.471,142.102c0,0-0.09,5.096,0.929,6.199
						c0,0-2.058-2.716-2.177-4.812C175.223,143.489,175.693,142.182,176.471,142.102z"/>
					<path fill="#FAD1DE" d="M175.146,143.879c0,0-0.729,5.86,6.763,7.21c2.099,0.204,2.099,0.176,3.44-0.176
						c0,0-1.798,2.297-2.372,2.232c0,0,3.255-1.033,4.469-5.156l-0.246-2.062c0,0,0.164-2.348-0.223-3.688
						c0,0,0.083,7.734-4.078,4.364c0,0,2.366,0.211,2.518-2.076c0.07-0.78,0.151-2.036-1.743-1.932c0,0-0.388-1.301-0.413-1.182
						c-0.023,0.12,0.921-0.785,1.385-1.059c0,0-1.388,0.18-1.743,0.79c0,0-1.661-1.475-2.538,0.011
						c0.518,0.062-2.996-0.605-2.643,2.164c0,0-0.56,2.572-0.119,3.927c0.36,1.1-1.234-3.864-0.937-4.537
						c0,0-0.384,4.294,0.702,5.739C177.369,148.45,175.551,145.726,175.146,143.879z"/>
					<path fill="#E36A95" d="M181.239,145.178c0,0-2.132-3.233,0.229-3.901c0,0,1.226-0.252,1.48,1.447
						C182.949,142.724,181.087,144.14,181.239,145.178z"/>
					<path fill="#E36A95" d="M183.344,142.812c0,0,0.123-0.938-0.172-1.236c0,0,1.93-2.968,3.805,0.065c0,0,0.397,7.234-2.858,5.696
						c0,0-1.055-0.374-1.131-0.893c0,0,2.584,0.307,2.455-2.35C185.443,144.095,185.479,142.709,183.344,142.812z"/>
					<path fill="#E36A95" d="M179.852,142.035c0,0-0.208,3.486,2.299,4.792c0,0-4.515-1.848-3.604-4.424
						C178.547,142.404,179.303,141.784,179.852,142.035z"/>
					<path fill="#E36A95" d="M183.306,144.493c0,0,0.075,1.097-0.283,1.456c0,0,1.098,0.411,1.218-0.806
						C184.241,145.144,184.207,144.366,183.306,144.493z"/>
					<path fill="#E36A95" d="M182.649,144.268c0,0,0.412,2.471-0.99,1.386c0,0,0.702-3.241,2.926-2.242c0,0,0.678,0.356,0.276,1.56
						C184.861,144.971,183.638,142.88,182.649,144.268z"/>
					<path fill="#E36A95" d="M177.994,144.037c0,0-0.008,0.17-0.012,0.45c-0.021,1.221,0.013,4.547,1.012,5.022
						c0,0,5.061,2.002,6.749,0.432c0,0,1.72-1.738,0.941-3.171c0,0-1.421,2.633-5.304,0.32
						C181.38,147.091,178.633,145.578,177.994,144.037z"/>
					<path fill="#E36A95" d="M187.026,142.234l0.034,2.095c0,0,2.546,2.831,1.669,7.028
						C188.729,151.357,193.146,146.754,187.026,142.234z"/>
					<path fill="#E36A95" d="M187.594,142.58c0,0,4.749,3.125,0.794,8.959C188.388,151.539,193.762,147.337,187.594,142.58z"/>
					<path fill="#FAD1DE" d="M188.527,151.823c0,0,4.191-5.369-1.14-9.313l0,0c0,0,3.756,2.018,1.342,8.847L188.527,151.823z"/>
					<path fill="#E36A95" d="M175.157,143.826c0,0-2.643,5.124,1.343,7.89c0,0,3.976,2.953,6.516,1.446c0,0,2.112-1.413,2.223-2.581
						c0,0-4.08,1.646-8.68-2.188C176.558,148.394,174.688,146.233,175.157,143.826z"/>
					<path fill="#E36A95" d="M187.06,144.328l-0.018,1.024c0,0,0.977,3.583-0.962,5.134c0,0-2.342,2.767-3.375,2.588
						c0,0,4.17,2.984,6.023-1.718C188.729,151.357,189.946,145.874,187.06,144.328z"/>
				</g>
				<g>
					<path fill="#D070AC" d="M170.046,148.176c0.955,0.015-6.404-0.391-5.751,6.027c0,0,0.576,2.412,4.854,5.165
						c0,0-5.614-5.698-1.813-7.746c0,0,0.142-1.632,2.076-1.744C169.413,149.877,170.578,147.862,170.046,148.176z"/>
					<path fill="#D070AC" d="M164.473,154.685c0,0,2.806,4.452,4.31,4.748c0,0-3.312-1.014-4.604-2.746
						C164.179,156.687,163.845,155.255,164.473,154.685z"/>
					<path fill="#FAD1DE" d="M164.336,157.074c0,0,2.689,5.527,9.917,1.849c1.926-1.179,1.91-1.203,2.868-2.374
						c0,0-0.25,3.144-0.781,3.459c0,0,2.222-2.995,0.935-7.335l-1.381-1.62c0,0-1.189-2.132-2.28-3.038c0,0,4.45,6.62-1.047,6.4
						c0,0,2.161-1.346,0.995-3.418c-0.38-0.717-1.022-1.853-2.597-0.541c0,0-1.073-0.872-1.025-0.752
						c0.047,0.117,0.347-1.271,0.593-1.808c0,0-1.096,1.052-1.055,1.808c0,0-2.269-0.199-2.183,1.648
						c0.481-0.281-2.925,1.413-1.055,3.576c0,0,0.974,2.579,2.122,3.462c0.934,0.717-3.253-2.535-3.379-3.308
						c0,0,2.101,3.952,3.858,4.498C168.841,159.581,165.729,158.406,164.336,157.074z"/>
					<path fill="#D070AC" d="M170.326,154.257c0,0-3.671-1.412-2.012-3.514c0,0,0.914-1.008,2.097,0.292
						C170.411,151.034,169.608,153.46,170.326,154.257z"/>
					<path fill="#D070AC" d="M170.801,150.856c0,0-0.425-0.888-0.848-0.957c0,0-0.017-3.805,3.321-2.4c0,0,4.438,5.984,0.759,6.76
						c0,0-1.122,0.359-1.48-0.039c0,0,2.402-1.405,0.786-3.612C173.339,150.607,172.584,149.389,170.801,150.856z"/>
					<path fill="#D070AC" d="M167.351,152.442c0,0,1.792,3.142,4.695,2.648c0,0-4.943,1.323-5.615-1.488
						C166.432,153.603,166.732,152.58,167.351,152.442z"/>
					<path fill="#D070AC" d="M171.721,152.331c0,0,0.688,0.897,0.581,1.438c0,0,1.18-0.354,0.593-1.48
						C172.896,152.288,172.427,151.64,171.721,152.331z"/>
					<path fill="#D070AC" d="M171.027,152.56c0,0,1.756,1.866-0.069,1.838c0,0-1.231-3.251,1.254-3.827c0,0,0.787-0.131,1.123,1.168
						C173.334,151.739,171.095,150.725,171.027,152.56z"/>
					<path fill="#D070AC" d="M166.88,155.368c0,0,0.09,0.152,0.245,0.396c0.672,1.067,2.587,3.914,3.719,3.679
						c0,0,5.5-1.541,6.066-3.987c0,0,0.499-2.609-0.985-3.344c0,0,0.268,3.189-4.395,3.704
						C171.531,155.818,168.305,156.287,166.88,155.368z"/>
					<path fill="#D070AC" d="M173.647,147.979l1.218,1.786c0,0,3.801,0.798,5.424,4.982
						C180.29,154.747,181.491,147.924,173.647,147.979z"/>
					<path fill="#D070AC" d="M174.336,147.91c0,0,5.868-0.372,5.762,7.216C180.098,155.126,182.355,148.031,174.336,147.91z"/>
					<path fill="#FAD1DE" d="M180.376,155.282c0,0,0.576-7.34-6.255-7.298l0,0c0,0,4.381-0.688,6.168,6.763L180.376,155.282z"/>
					<path fill="#D070AC" d="M164.314,157.022c0,0,0.624,6.125,5.627,5.938c0,0,5.103-0.021,6.442-2.962
						c0,0,1.021-2.584,0.453-3.662c0,0-2.587,4.056-8.726,3.721C168.111,160.056,165.273,159.4,164.314,157.022z"/>
					<path fill="#D070AC" d="M174.865,149.765l0.565,0.895c0,0,2.872,2.459,2.078,5.051c0,0-0.453,3.899-1.443,4.411
						c0,0,5.287-0.12,4.224-5.374C180.29,154.747,178.233,149.232,174.865,149.765z"/>
				</g>
			</g>
			<g>
				<path fill="#42AC49" d="M151.722,174.766c0,0,5.918-5.111,10.436,0.354C162.157,175.12,158.48,179.342,151.722,174.766z"/>
				<path fill="#42AC49" d="M143.463,159.932c0,0,7.33-2.194,9.453,4.733C152.917,164.665,147.977,166.989,143.463,159.932z"/>
				<g>
					<path fill="#E36A95" d="M158.191,158.353c0.735,0.567-4.776-4.028-7.543,1.338c0,0-0.784,2.21,1.136,6.839
						c0,0-1.454-7.696,2.544-7.073c0,0,0.944-1.186,2.503-0.15C156.831,159.306,158.766,158.419,158.191,158.353z"/>
					<path fill="#E36A95" stroke="#FAD1DE" stroke-miterlimit="10" d="M150.541,160.168c0,0-0.093,5.094,0.926,6.197
						c0,0-2.055-2.715-2.175-4.811C149.291,161.555,149.761,160.247,150.541,160.168z"/>
					<path fill="#FAD1DE" d="M149.214,161.945c0,0-0.729,5.86,6.762,7.21c2.099,0.204,2.099,0.176,3.441-0.178
						c0,0-1.798,2.298-2.372,2.233c0,0,3.255-1.033,4.469-5.154l-0.245-2.064c0,0,0.163-2.346-0.223-3.687
						c0,0,0.083,7.734-4.079,4.363c0,0,2.366,0.213,2.518-2.074c0.071-0.779,0.153-2.036-1.743-1.932c0,0-0.389-1.302-0.412-1.183
						c-0.022,0.121,0.92-0.785,1.384-1.059c0,0-1.389,0.182-1.742,0.792c0,0-1.662-1.477-2.538,0.01
						c0.518,0.061-2.996-0.606-2.644,2.164c0,0-0.56,2.573-0.119,3.926c0.36,1.101-1.233-3.863-0.937-4.536
						c0,0-0.385,4.293,0.704,5.739C151.438,166.516,149.619,163.791,149.214,161.945z"/>
					<path fill="#E36A95" d="M155.305,163.242c0,0-2.131-3.232,0.231-3.9c0,0,1.225-0.252,1.481,1.446
						C157.017,160.788,155.155,162.205,155.305,163.242z"/>
					<path fill="#E36A95" d="M157.412,160.876c0,0,0.124-0.937-0.172-1.237c0,0,1.929-2.966,3.806,0.066
						c0,0,0.396,7.236-2.858,5.698c0,0-1.055-0.376-1.131-0.895c0,0,2.584,0.307,2.455-2.351
						C159.511,162.158,159.545,160.775,157.412,160.876z"/>
					<path fill="#E36A95" d="M153.92,160.1c0,0-0.208,3.485,2.298,4.791c0,0-4.516-1.848-3.604-4.423
						C152.614,160.468,153.371,159.849,153.92,160.1z"/>
					<path fill="#E36A95" d="M157.374,162.559c0,0,0.076,1.098-0.284,1.455c0,0,1.1,0.41,1.22-0.807
						C158.309,163.207,158.275,162.433,157.374,162.559z"/>
					<path fill="#E36A95" d="M156.716,162.333c0,0,0.411,2.471-0.989,1.386c0,0,0.702-3.241,2.927-2.243
						c0,0,0.678,0.355,0.277,1.561C158.931,163.036,157.707,160.947,156.716,162.333z"/>
					<path fill="#E36A95" d="M152.061,162.103c0,0-0.007,0.17-0.011,0.45c-0.021,1.22,0.013,4.546,1.013,5.021
						c0,0,5.059,2.001,6.748,0.432c0,0,1.719-1.736,0.941-3.171c0,0-1.421,2.633-5.305,0.321
						C155.448,165.156,152.701,163.644,152.061,162.103z"/>
					<path fill="#E36A95" d="M161.093,160.298l0.034,2.096c0,0,2.546,2.832,1.671,7.028
						C162.799,169.422,167.214,164.82,161.093,160.298z"/>
					<path fill="#E36A95" d="M161.661,160.645c0,0,4.75,3.124,0.794,8.96C162.456,169.605,167.83,165.404,161.661,160.645z"/>
					<path fill="#FAD1DE" d="M162.593,169.887c0,0,4.191-5.367-1.138-9.311l0,0c0,0,3.755,2.016,1.343,8.846L162.593,169.887z"/>
					<path fill="#E36A95" d="M149.225,161.893c0,0-2.643,5.123,1.342,7.889c0,0,3.977,2.953,6.518,1.446c0,0,2.111-1.413,2.22-2.581
						c0,0-4.078,1.646-8.679-2.187C150.626,166.459,148.756,164.297,149.225,161.893z"/>
					<path fill="#E36A95" d="M161.127,162.394l-0.018,1.024c0,0,0.977,3.581-0.963,5.133c0,0-2.342,2.766-3.375,2.589
						c0,0,4.171,2.982,6.026-1.718C162.799,169.422,164.016,163.939,161.127,162.394z"/>
				</g>
				<g>
					<path fill="#D070AC" d="M144.113,166.24c0.954,0.015-6.405-0.39-5.75,6.028c0,0,0.576,2.412,4.854,5.166
						c0,0-5.614-5.7-1.812-7.748c0,0,0.142-1.632,2.075-1.745C143.479,167.942,144.646,165.926,144.113,166.24z"/>
					<path fill="#D070AC" d="M138.541,172.749c0,0,2.806,4.453,4.308,4.748c0,0-3.31-1.014-4.603-2.746
						C138.247,174.751,137.913,173.321,138.541,172.749z"/>
					<path fill="#FAD1DE" d="M138.403,175.139c0,0,2.69,5.526,9.917,1.849c1.926-1.179,1.91-1.203,2.87-2.374
						c0,0-0.25,3.145-0.784,3.459c0,0,2.223-2.996,0.935-7.334l-1.378-1.622c0,0-1.189-2.13-2.281-3.037c0,0,4.451,6.621-1.049,6.4
						c0,0,2.164-1.347,0.997-3.417c-0.379-0.72-1.021-1.854-2.596-0.539c0,0-1.075-0.874-1.025-0.756
						c0.047,0.118,0.347-1.271,0.591-1.807c0,0-1.095,1.053-1.054,1.808c0,0-2.268-0.199-2.183,1.648
						c0.482-0.282-2.927,1.412-1.056,3.576c0,0,0.976,2.581,2.123,3.463c0.934,0.716-3.253-2.535-3.379-3.31
						c0,0,2.1,3.953,3.859,4.497C142.911,177.645,139.797,176.47,138.403,175.139z"/>
					<path fill="#D070AC" d="M144.393,172.322c0,0-3.671-1.411-2.01-3.514c0,0,0.912-1.008,2.095,0.292
						C144.478,169.1,143.674,171.525,144.393,172.322z"/>
					<path fill="#D070AC" d="M144.868,168.92c0,0-0.423-0.886-0.845-0.956c0,0-0.019-3.805,3.32-2.401c0,0,4.438,5.984,0.759,6.762
						c0,0-1.121,0.357-1.481-0.04c0,0,2.402-1.405,0.788-3.612C147.408,168.672,146.653,167.453,144.868,168.92z"/>
					<path fill="#D070AC" d="M141.418,170.509c0,0,1.793,3.139,4.696,2.646c0,0-4.944,1.323-5.615-1.488
						C140.5,171.667,140.801,170.645,141.418,170.509z"/>
					<path fill="#D070AC" d="M145.79,170.396c0,0,0.686,0.897,0.579,1.44c0,0,1.181-0.356,0.595-1.483
						C146.964,170.353,146.495,169.704,145.79,170.396z"/>
					<path fill="#D070AC" d="M145.094,170.624c0,0,1.756,1.867-0.068,1.838c0,0-1.232-3.251,1.254-3.826
						c0,0,0.787-0.132,1.121,1.166C147.401,169.802,145.163,168.789,145.094,170.624z"/>
					<path fill="#D070AC" d="M140.948,173.435c0,0,0.09,0.15,0.244,0.396c0.672,1.065,2.588,3.912,3.718,3.679
						c0,0,5.501-1.543,6.068-3.987c0,0,0.499-2.61-0.984-3.345c0,0,0.266,3.19-4.395,3.704
						C145.6,173.88,142.374,174.352,140.948,173.435z"/>
					<path fill="#D070AC" d="M147.718,166.044l1.215,1.785c0,0,3.799,0.798,5.424,4.983
						C154.357,172.813,155.559,165.99,147.718,166.044z"/>
					<path fill="#D070AC" d="M148.404,165.976c0,0,5.868-0.372,5.761,7.216C154.165,173.192,156.42,166.094,148.404,165.976z"/>
					<path fill="#FAD1DE" d="M154.444,173.347c0,0,0.575-7.339-6.257-7.297l0,0c0,0,4.383-0.688,6.17,6.763L154.444,173.347z"/>
					<path fill="#D070AC" d="M138.382,175.086c0,0,0.623,6.126,5.627,5.938c0,0,5.103-0.021,6.44-2.961c0,0,1.022-2.584,0.455-3.663
						c0,0-2.586,4.057-8.726,3.721C142.178,178.12,139.34,177.464,138.382,175.086z"/>
					<path fill="#D070AC" d="M148.934,167.829l0.566,0.896c0,0,2.87,2.459,2.077,5.05c0,0-0.456,3.899-1.444,4.413
						c0,0,5.288-0.12,4.225-5.375C154.357,172.813,152.301,167.297,148.934,167.829z"/>
				</g>
			</g>
			<path fill="#42AC49" d="M187.371,235.004c0,0,5.919-5.111,10.436,0.354C197.806,235.358,194.13,239.58,187.371,235.004z"/>
			<path fill="#42AC49" d="M179.113,220.17c0,0,7.329-2.196,9.455,4.73C188.568,224.901,183.626,227.228,179.113,220.17z"/>
			<g>
				<path fill="#E36A95" d="M193.842,218.591c0.733,0.565-4.778-4.029-7.546,1.338c0,0-0.781,2.211,1.137,6.838
					c0,0-1.453-7.693,2.544-7.074c0,0,0.944-1.184,2.504-0.147C192.481,219.545,194.417,218.656,193.842,218.591z"/>
				<path fill="#E36A95" stroke="#FAD1DE" stroke-miterlimit="10" d="M186.19,220.406c0,0-0.093,5.092,0.928,6.196
					c0,0-2.058-2.716-2.178-4.812C184.94,221.791,185.412,220.486,186.19,220.406z"/>
				<path fill="#FAD1DE" d="M184.864,222.183c0,0-0.729,5.86,6.762,7.209c2.1,0.203,2.1,0.175,3.442-0.177
					c0,0-1.8,2.298-2.374,2.233c0,0,3.257-1.033,4.469-5.156l-0.244-2.063c0,0,0.162-2.346-0.222-3.686c0,0,0.082,7.733-4.081,4.364
					c0,0,2.369,0.212,2.518-2.075c0.071-0.781,0.153-2.037-1.743-1.933c0,0-0.387-1.303-0.412-1.182
					c-0.022,0.121,0.92-0.785,1.385-1.06c0,0-1.388,0.18-1.744,0.792c0,0-1.66-1.476-2.537,0.009
					c0.517,0.063-2.994-0.604-2.645,2.166c0,0-0.558,2.573-0.117,3.925c0.359,1.101-1.234-3.862-0.937-4.537
					c0,0-0.384,4.294,0.705,5.741C187.089,226.754,185.268,224.028,184.864,222.183z"/>
				<path fill="#E36A95" d="M190.957,223.481c0,0-2.132-3.233,0.229-3.903c0,0,1.225-0.25,1.481,1.448
					C192.667,221.026,190.805,222.443,190.957,223.481z"/>
				<path fill="#E36A95" d="M193.061,221.113c0,0,0.123-0.937-0.171-1.235c0,0,1.93-2.967,3.808,0.065c0,0,0.396,7.235-2.861,5.696
					c0,0-1.055-0.373-1.13-0.894c0,0,2.584,0.308,2.454-2.347C195.161,222.399,195.196,221.012,193.061,221.113z"/>
				<path fill="#E36A95" d="M189.571,220.339c0,0-0.209,3.483,2.297,4.791c0,0-4.516-1.85-3.604-4.424
					C188.264,220.705,189.021,220.086,189.571,220.339z"/>
				<path fill="#E36A95" d="M193.024,222.796c0,0,0.075,1.098-0.284,1.457c0,0,1.1,0.41,1.219-0.808
					C193.958,223.445,193.925,222.67,193.024,222.796z"/>
				<path fill="#E36A95" d="M192.366,222.57c0,0,0.413,2.471-0.989,1.388c0,0,0.702-3.242,2.926-2.245c0,0,0.678,0.357,0.276,1.561
					C194.58,223.273,193.357,221.183,192.366,222.57z"/>
				<path fill="#E36A95" d="M187.712,222.34c0,0-0.007,0.169-0.012,0.448c-0.022,1.222,0.016,4.548,1.014,5.022
					c0,0,5.06,2.003,6.747,0.433c0,0,1.722-1.736,0.942-3.171c0,0-1.42,2.633-5.305,0.321
					C191.096,225.394,188.352,223.881,187.712,222.34z"/>
				<path fill="#E36A95" d="M196.743,220.536l0.035,2.095c0,0,2.545,2.831,1.669,7.029
					C198.447,229.66,202.864,225.057,196.743,220.536z"/>
				<path fill="#E36A95" d="M197.312,220.883c0,0,4.749,3.125,0.794,8.959C198.107,229.842,203.48,225.641,197.312,220.883z"/>
				<path fill="#FAD1DE" d="M198.243,230.126c0,0,4.191-5.37-1.138-9.312l0,0c0,0,3.755,2.018,1.341,8.847L198.243,230.126z"/>
				<path fill="#E36A95" d="M184.875,222.13c0,0-2.643,5.123,1.341,7.89c0,0,3.977,2.952,6.518,1.446c0,0,2.112-1.414,2.221-2.582
					c0,0-4.08,1.646-8.679-2.188C186.277,226.696,184.407,224.536,184.875,222.13z"/>
				<path fill="#E36A95" d="M196.778,222.631l-0.019,1.025c0,0,0.978,3.582-0.961,5.132c0,0-2.344,2.768-3.375,2.59
					c0,0,4.17,2.983,6.023-1.718C198.447,229.66,199.665,224.177,196.778,222.631z"/>
			</g>
			<g>
				<path fill="#D070AC" d="M179.763,226.477c0.954,0.017-6.403-0.391-5.75,6.029c0,0,0.576,2.413,4.853,5.165
					c0,0-5.613-5.699-1.812-7.746c0,0,0.142-1.632,2.075-1.745C179.129,228.179,180.296,226.163,179.763,226.477z"/>
				<path fill="#D070AC" d="M174.191,232.988c0,0,2.805,4.452,4.31,4.749c0,0-3.312-1.016-4.605-2.746
					C173.896,234.99,173.562,233.558,174.191,232.988z"/>
				<path fill="#FAD1DE" d="M174.052,235.376c0,0,2.691,5.527,9.917,1.851c1.927-1.181,1.911-1.204,2.87-2.376
					c0,0-0.25,3.146-0.782,3.46c0,0,2.222-2.995,0.935-7.335l-1.38-1.621c0,0-1.189-2.131-2.281-3.037c0,0,4.452,6.619-1.047,6.401
					c0,0,2.162-1.348,0.996-3.418c-0.379-0.72-1.023-1.855-2.596-0.542c0,0-1.074-0.871-1.026-0.752
					c0.047,0.117,0.348-1.272,0.593-1.808c0,0-1.096,1.052-1.055,1.808c0,0-2.268-0.199-2.184,1.647
					c0.482-0.281-2.925,1.413-1.053,3.577c0,0,0.975,2.578,2.121,3.463c0.935,0.716-3.252-2.537-3.379-3.31
					c0,0,2.102,3.953,3.859,4.497C178.56,237.883,175.448,236.707,174.052,235.376z"/>
				<path fill="#D070AC" d="M180.042,232.559c0,0-3.671-1.412-2.01-3.513c0,0,0.912-1.009,2.096,0.291
					C180.128,229.337,179.326,231.763,180.042,232.559z"/>
				<path fill="#D070AC" d="M180.518,229.158c0,0-0.424-0.888-0.847-0.956c0,0-0.017-3.807,3.32-2.402c0,0,4.438,5.984,0.759,6.762
					c0,0-1.122,0.358-1.48-0.04c0,0,2.402-1.406,0.787-3.612C183.058,228.909,182.303,227.692,180.518,229.158z"/>
				<path fill="#D070AC" d="M177.067,230.745c0,0,1.795,3.14,4.697,2.646c0,0-4.941,1.326-5.615-1.486
					C176.149,231.905,176.451,230.883,177.067,230.745z"/>
				<path fill="#D070AC" d="M181.44,230.634c0,0,0.685,0.897,0.579,1.44c0,0,1.179-0.356,0.594-1.484
					C182.614,230.59,182.146,229.943,181.44,230.634z"/>
				<path fill="#D070AC" d="M180.745,230.864c0,0,1.754,1.866-0.069,1.835c0,0-1.231-3.249,1.255-3.824c0,0,0.787-0.132,1.121,1.166
					C183.051,230.04,180.812,229.028,180.745,230.864z"/>
				<path fill="#D070AC" d="M176.597,233.672c0,0,0.091,0.15,0.245,0.397c0.672,1.066,2.588,3.911,3.719,3.677
					c0,0,5.5-1.543,6.067-3.987c0,0,0.5-2.61-0.985-3.345c0,0,0.267,3.19-4.395,3.704
					C181.249,234.119,178.024,234.589,176.597,233.672z"/>
				<path fill="#D070AC" d="M183.367,226.281l1.217,1.786c0,0,3.801,0.797,5.424,4.983
					C190.007,233.05,191.209,226.227,183.367,226.281z"/>
				<path fill="#D070AC" d="M184.054,226.214c0,0,5.868-0.373,5.762,7.215C189.816,233.429,192.073,226.333,184.054,226.214z"/>
				<path fill="#FAD1DE" d="M190.094,233.584c0,0,0.576-7.339-6.256-7.298l0,0c0,0,4.381-0.687,6.169,6.765L190.094,233.584z"/>
				<path fill="#D070AC" d="M174.032,235.324c0,0,0.623,6.125,5.626,5.938c0,0,5.103-0.021,6.442-2.963c0,0,1.021-2.583,0.453-3.661
					c0,0-2.584,4.057-8.726,3.719C177.828,238.358,174.991,237.703,174.032,235.324z"/>
				<path fill="#D070AC" d="M184.583,228.068l0.565,0.894c0,0,2.872,2.461,2.078,5.051c0,0-0.455,3.899-1.445,4.413
					c0,0,5.288-0.121,4.226-5.375C190.007,233.05,187.951,227.534,184.583,228.068z"/>
			</g>
			<g>
				<path fill="#42AC49" d="M116.647,199.729c0,0,5.919-5.11,10.437,0.355C127.083,200.084,123.406,204.307,116.647,199.729z"/>
				<path fill="#42AC49" d="M108.389,184.896c0,0,7.33-2.196,9.455,4.732C117.843,189.628,112.901,191.953,108.389,184.896z"/>
				<g>
					<path fill="#E36A95" d="M123.118,183.318c0.734,0.567-4.776-4.03-7.544,1.336c0,0-0.782,2.21,1.136,6.841
						c0,0-1.453-7.697,2.544-7.074c0,0,0.942-1.186,2.504-0.149C121.757,184.27,123.693,183.382,123.118,183.318z"/>
					<path fill="#E36A95" stroke="#FAD1DE" stroke-miterlimit="10" d="M115.465,185.133c0,0-0.091,5.092,0.927,6.196
						c0,0-2.055-2.715-2.176-4.812C114.216,186.518,114.688,185.211,115.465,185.133z"/>
					<path fill="#FAD1DE" d="M114.14,186.908c0,0-0.731,5.861,6.762,7.21c2.099,0.205,2.1,0.174,3.442-0.178
						c0,0-1.799,2.298-2.374,2.234c0,0,3.257-1.035,4.47-5.156l-0.245-2.062c0,0,0.162-2.348-0.223-3.687
						c0,0,0.081,7.732-4.08,4.362c0,0,2.367,0.212,2.519-2.074c0.07-0.778,0.152-2.035-1.744-1.931c0,0-0.387-1.304-0.411-1.184
						s0.919-0.785,1.383-1.059c0,0-1.388,0.181-1.742,0.792c0,0-1.661-1.477-2.537,0.01c0.518,0.061-2.995-0.606-2.645,2.165
						c0,0-0.559,2.572-0.118,3.927c0.36,1.099-1.234-3.866-0.938-4.539c0,0-0.383,4.295,0.704,5.74
						C116.364,191.48,114.544,188.754,114.14,186.908z"/>
					<path fill="#E36A95" d="M120.232,188.205c0,0-2.132-3.231,0.23-3.9c0,0,1.224-0.251,1.48,1.447
						C121.942,185.752,120.083,187.169,120.232,188.205z"/>
					<path fill="#E36A95" d="M122.336,185.839c0,0,0.123-0.936-0.17-1.236c0,0,1.93-2.968,3.806,0.064c0,0,0.396,7.236-2.86,5.698
						c0,0-1.055-0.373-1.13-0.893c0,0,2.583,0.306,2.454-2.35C124.437,187.123,124.471,185.738,122.336,185.839z"/>
					<path fill="#E36A95" d="M118.846,185.066c0,0-0.208,3.483,2.298,4.788c0,0-4.515-1.847-3.604-4.421
						C117.54,185.433,118.295,184.813,118.846,185.066z"/>
					<path fill="#E36A95" d="M122.299,187.523c0,0,0.077,1.096-0.283,1.456c0,0,1.099,0.409,1.219-0.806
						C123.234,188.172,123.201,187.396,122.299,187.523z"/>
					<path fill="#E36A95" d="M121.642,187.295c0,0,0.413,2.473-0.989,1.388c0,0,0.7-3.242,2.927-2.242c0,0,0.678,0.355,0.276,1.561
						C123.855,188.001,122.632,185.91,121.642,187.295z"/>
					<path fill="#E36A95" d="M116.987,187.065c0,0-0.007,0.171-0.012,0.45c-0.021,1.221,0.014,4.547,1.013,5.023
						c0,0,5.06,2.001,6.749,0.431c0,0,1.719-1.734,0.94-3.171c0,0-1.42,2.635-5.305,0.32
						C120.373,190.118,117.627,188.607,116.987,187.065z"/>
					<path fill="#E36A95" d="M126.018,185.262l0.035,2.095c0,0,2.546,2.833,1.67,7.027
						C127.723,194.384,132.14,189.782,126.018,185.262z"/>
					<path fill="#E36A95" d="M126.586,185.61c0,0,4.75,3.123,0.795,8.958C127.382,194.568,132.756,190.365,126.586,185.61z"/>
					<path fill="#FAD1DE" d="M127.519,194.853c0,0,4.191-5.37-1.138-9.313l0,0c0,0,3.756,2.016,1.343,8.845L127.519,194.853z"/>
					<path fill="#E36A95" d="M114.149,186.856c0,0-2.641,5.123,1.343,7.889c0,0,3.977,2.953,6.518,1.447c0,0,2.11-1.413,2.222-2.582
						c0,0-4.081,1.647-8.68-2.187C115.552,191.423,113.681,189.263,114.149,186.856z"/>
					<path fill="#E36A95" d="M126.053,187.357l-0.017,1.025c0,0,0.976,3.58-0.964,5.133c0,0-2.342,2.767-3.373,2.589
						c0,0,4.169,2.981,6.023-1.719C127.723,194.384,128.94,188.903,126.053,187.357z"/>
				</g>
				<g>
					<path fill="#D070AC" d="M109.039,191.205c0.955,0.015-6.404-0.391-5.751,6.026c0,0,0.577,2.413,4.854,5.166
						c0,0-5.613-5.7-1.812-7.746c0,0,0.143-1.633,2.077-1.746C108.406,192.906,109.57,190.889,109.039,191.205z"/>
					<path fill="#D070AC" d="M103.466,197.714c0,0,2.805,4.453,4.31,4.748c0,0-3.312-1.016-4.604-2.747
						C103.172,199.715,102.838,198.284,103.466,197.714z"/>
					<path fill="#FAD1DE" d="M103.328,200.102c0,0,2.69,5.527,9.917,1.85c1.926-1.179,1.911-1.204,2.869-2.374
						c0,0-0.25,3.145-0.782,3.46c0,0,2.224-2.997,0.935-7.336l-1.38-1.622c0,0-1.188-2.13-2.28-3.036c0,0,4.45,6.619-1.047,6.401
						c0,0,2.161-1.349,0.996-3.419c-0.381-0.718-1.022-1.854-2.597-0.54c0,0-1.073-0.871-1.025-0.755
						c0.047,0.119,0.349-1.271,0.595-1.806c0,0-1.098,1.052-1.056,1.807c0,0-2.27-0.199-2.185,1.649
						c0.482-0.28-2.925,1.412-1.054,3.576c0,0,0.974,2.58,2.121,3.462c0.935,0.717-3.251-2.535-3.379-3.309
						c0,0,2.101,3.952,3.859,4.498C107.836,202.609,104.722,201.433,103.328,200.102z"/>
					<path fill="#D070AC" d="M109.319,197.286c0,0-3.672-1.412-2.012-3.515c0,0,0.914-1.008,2.098,0.292
						C109.405,194.064,108.601,196.489,109.319,197.286z"/>
					<path fill="#D070AC" d="M109.794,193.885c0,0-0.424-0.888-0.848-0.956c0,0-0.016-3.807,3.321-2.404
						c0,0,4.439,5.987,0.759,6.764c0,0-1.121,0.358-1.481-0.041c0,0,2.402-1.405,0.787-3.611
						C112.333,193.636,111.579,192.418,109.794,193.885z"/>
					<path fill="#D070AC" d="M106.344,195.471c0,0,1.793,3.14,4.695,2.647c0,0-4.943,1.324-5.614-1.488
						C105.425,196.63,105.725,195.609,106.344,195.471z"/>
					<path fill="#D070AC" d="M110.714,195.361c0,0,0.688,0.896,0.58,1.439c0,0,1.182-0.356,0.596-1.484
						C111.89,195.316,111.42,194.668,110.714,195.361z"/>
					<path fill="#D070AC" d="M110.02,195.589c0,0,1.755,1.866-0.068,1.837c0,0-1.231-3.251,1.254-3.827c0,0,0.786-0.13,1.12,1.167
						C112.326,194.766,110.087,193.752,110.02,195.589z"/>
					<path fill="#D070AC" d="M105.874,198.398c0,0,0.091,0.15,0.244,0.396c0.674,1.067,2.588,3.913,3.72,3.679
						c0,0,5.499-1.542,6.067-3.986c0,0,0.499-2.611-0.984-3.346c0,0,0.267,3.191-4.396,3.705
						C110.524,198.845,107.299,199.315,105.874,198.398z"/>
					<path fill="#D070AC" d="M112.643,191.008l1.217,1.785c0,0,3.8,0.798,5.422,4.983
						C119.282,197.777,120.484,190.952,112.643,191.008z"/>
					<path fill="#D070AC" d="M113.331,190.941c0,0,5.867-0.374,5.76,7.214C119.091,198.155,121.347,191.058,113.331,190.941z"/>
					<path fill="#FAD1DE" d="M119.37,198.31c0,0,0.575-7.338-6.257-7.297l0,0c0,0,4.381-0.688,6.169,6.764L119.37,198.31z"/>
					<path fill="#D070AC" d="M103.308,200.05c0,0,0.622,6.125,5.627,5.938c0,0,5.102-0.02,6.442-2.961c0,0,1.021-2.583,0.455-3.662
						c0,0-2.587,4.055-8.727,3.72C107.104,203.084,104.266,202.428,103.308,200.05z"/>
					<path fill="#D070AC" d="M113.86,192.793l0.565,0.895c0,0,2.871,2.46,2.076,5.05c0,0-0.453,3.901-1.443,4.414
						c0,0,5.287-0.121,4.224-5.375C119.282,197.777,117.226,192.261,113.86,192.793z"/>
				</g>
			</g>
			<g>
				<path fill="#42AC49" d="M149.89,253.367c0,0,5.918-5.11,10.436,0.354C160.326,253.722,156.648,257.945,149.89,253.367z"/>
				<path fill="#42AC49" d="M141.632,238.533c0,0,7.329-2.196,9.454,4.731C151.086,243.265,146.145,245.59,141.632,238.533z"/>
				<g>
					<path fill="#E36A95" d="M156.36,236.954c0.734,0.568-4.778-4.028-7.544,1.338c0,0-0.782,2.211,1.136,6.839
						c0,0-1.453-7.696,2.545-7.074c0,0,0.942-1.186,2.504-0.149C155,237.907,156.936,237.019,156.36,236.954z"/>
					<path fill="#E36A95" stroke="#FAD1DE" stroke-miterlimit="10" d="M148.708,238.77c0,0-0.09,5.095,0.926,6.197
						c0,0-2.056-2.716-2.175-4.812C147.46,240.155,147.93,238.848,148.708,238.77z"/>
					<path fill="#FAD1DE" d="M147.383,240.546c0,0-0.729,5.86,6.762,7.209c2.1,0.205,2.101,0.176,3.442-0.178
						c0,0-1.799,2.3-2.373,2.235c0,0,3.255-1.034,4.469-5.157l-0.245-2.062c0,0,0.163-2.347-0.224-3.688
						c0,0,0.081,7.735-4.078,4.364c0,0,2.366,0.212,2.518-2.075c0.071-0.779,0.151-2.034-1.742-1.931c0,0-0.39-1.303-0.413-1.182
						c-0.022,0.12,0.92-0.786,1.384-1.06c0,0-1.389,0.18-1.743,0.79c0,0-1.66-1.476-2.538,0.011
						c0.519,0.062-2.993-0.606-2.643,2.165c0,0-0.56,2.572-0.118,3.926c0.36,1.1-1.234-3.864-0.938-4.537
						c0,0-0.384,4.293,0.704,5.739C149.607,245.117,147.788,242.393,147.383,240.546z"/>
					<path fill="#E36A95" d="M153.476,241.844c0,0-2.132-3.233,0.23-3.901c0,0,1.224-0.251,1.48,1.445
						C155.186,239.388,153.324,240.806,153.476,241.844z"/>
					<path fill="#E36A95" d="M155.581,239.477c0,0,0.124-0.935-0.171-1.236c0,0,1.929-2.968,3.805,0.066
						c0,0,0.397,7.234-2.859,5.696c0,0-1.055-0.372-1.129-0.894c0,0,2.583,0.307,2.453-2.348
						C157.679,240.761,157.714,239.375,155.581,239.477z"/>
					<path fill="#E36A95" d="M152.089,238.701c0,0-0.208,3.485,2.297,4.792c0,0-4.514-1.849-3.603-4.424
						C150.784,239.069,151.538,238.449,152.089,238.701z"/>
					<path fill="#E36A95" d="M155.542,241.159c0,0,0.076,1.097-0.284,1.455c0,0,1.099,0.41,1.219-0.805
						C156.478,241.81,156.444,241.033,155.542,241.159z"/>
					<path fill="#E36A95" d="M154.885,240.933c0,0,0.413,2.472-0.989,1.388c0,0,0.701-3.242,2.926-2.244
						c0,0,0.679,0.358,0.276,1.562C157.099,241.638,155.875,239.546,154.885,240.933z"/>
					<path fill="#E36A95" d="M150.23,240.703c0,0-0.007,0.171-0.011,0.449c-0.022,1.221,0.014,4.547,1.013,5.023
						c0,0,5.059,2.002,6.748,0.431c0,0,1.72-1.737,0.941-3.171c0,0-1.42,2.634-5.306,0.321
						C153.616,243.757,150.871,242.245,150.23,240.703z"/>
					<path fill="#E36A95" d="M159.262,238.9l0.034,2.096c0,0,2.546,2.83,1.671,7.028C160.966,248.024,165.383,243.419,159.262,238.9
						z"/>
					<path fill="#E36A95" d="M159.829,239.247c0,0,4.751,3.124,0.796,8.957C160.625,248.204,166,244.003,159.829,239.247z"/>
					<path fill="#FAD1DE" d="M160.763,248.489c0,0,4.191-5.369-1.139-9.312l0,0c0,0,3.755,2.017,1.342,8.847L160.763,248.489z"/>
					<path fill="#E36A95" d="M147.394,240.493c0,0-2.642,5.123,1.342,7.89c0,0,3.976,2.952,6.518,1.447c0,0,2.11-1.415,2.219-2.583
						c0,0-4.078,1.646-8.678-2.187C148.795,245.061,146.925,242.901,147.394,240.493z"/>
					<path fill="#E36A95" d="M159.295,240.995l-0.018,1.024c0,0,0.978,3.583-0.963,5.133c0,0-2.342,2.767-3.374,2.588
						c0,0,4.17,2.982,6.025-1.716C160.966,248.024,162.184,242.54,159.295,240.995z"/>
				</g>
				<g>
					<path fill="#D070AC" d="M142.281,244.842c0.955,0.014-6.403-0.392-5.75,6.026c0,0,0.576,2.413,4.853,5.167
						c0,0-5.613-5.7-1.812-7.747c0,0,0.143-1.631,2.077-1.746C141.649,246.542,142.814,244.528,142.281,244.842z"/>
					<path fill="#D070AC" d="M136.709,251.351c0,0,2.806,4.452,4.311,4.748c0,0-3.312-1.014-4.604-2.746
						C136.416,253.353,136.081,251.922,136.709,251.351z"/>
					<path fill="#FAD1DE" d="M136.571,253.74c0,0,2.69,5.528,9.917,1.851c1.926-1.181,1.911-1.204,2.869-2.376
						c0,0-0.249,3.145-0.782,3.46c0,0,2.225-2.996,0.935-7.335l-1.379-1.621c0,0-1.188-2.131-2.28-3.037
						c0,0,4.453,6.619-1.047,6.401c0,0,2.162-1.348,0.999-3.419c-0.383-0.718-1.025-1.854-2.601-0.541c0,0-1.071-0.871-1.024-0.752
						c0.048,0.118,0.349-1.272,0.593-1.808c0,0-1.096,1.051-1.055,1.808c0,0-2.269-0.2-2.184,1.648
						c0.482-0.281-2.927,1.411-1.055,3.576c0,0,0.975,2.58,2.122,3.462c0.934,0.718-3.252-2.535-3.378-3.307
						c0,0,2.1,3.951,3.858,4.496C141.079,256.246,137.965,255.071,136.571,253.74z"/>
					<path fill="#D070AC" d="M142.563,250.922c0,0-3.672-1.412-2.012-3.514c0,0,0.913-1.007,2.097,0.293
						C142.648,247.701,141.844,250.126,142.563,250.922z"/>
					<path fill="#D070AC" d="M143.038,247.523c0,0-0.424-0.891-0.848-0.957c0,0-0.017-3.807,3.321-2.402c0,0,4.438,5.985,0.76,6.762
						c0,0-1.123,0.358-1.48-0.04c0,0,2.402-1.404,0.786-3.612C145.576,247.273,144.821,246.055,143.038,247.523z"/>
					<path fill="#D070AC" d="M139.588,249.109c0,0,1.792,3.141,4.694,2.647c0,0-4.942,1.323-5.615-1.488
						C138.667,250.268,138.969,249.247,139.588,249.109z"/>
					<path fill="#D070AC" d="M143.958,248.998c0,0,0.687,0.897,0.58,1.439c0,0,1.181-0.356,0.594-1.484
						C145.132,248.953,144.663,248.306,143.958,248.998z"/>
					<path fill="#D070AC" d="M143.263,249.226c0,0,1.756,1.866-0.067,1.838c0,0-1.233-3.252,1.253-3.827c0,0,0.787-0.13,1.122,1.168
						C145.571,248.405,143.331,247.391,143.263,249.226z"/>
					<path fill="#D070AC" d="M139.117,252.035c0,0,0.09,0.151,0.244,0.396c0.673,1.067,2.588,3.912,3.72,3.679
						c0,0,5.499-1.544,6.065-3.988c0,0,0.501-2.61-0.982-3.344c0,0,0.266,3.189-4.396,3.704
						C143.768,252.483,140.542,252.952,139.117,252.035z"/>
					<path fill="#D070AC" d="M145.885,244.645l1.218,1.786c0,0,3.8,0.799,5.422,4.984
						C152.525,251.415,153.728,244.59,145.885,244.645z"/>
					<path fill="#D070AC" d="M146.573,244.577c0,0,5.869-0.373,5.761,7.215C152.333,251.792,154.59,244.696,146.573,244.577z"/>
					<path fill="#FAD1DE" d="M152.613,251.949c0,0,0.574-7.341-6.256-7.3l0,0c0,0,4.381-0.686,6.168,6.766L152.613,251.949z"/>
					<path fill="#D070AC" d="M136.55,253.689c0,0,0.622,6.126,5.627,5.937c0,0,5.103-0.021,6.442-2.963c0,0,1.022-2.583,0.454-3.661
						c0,0-2.587,4.055-8.727,3.719C140.347,256.72,137.509,256.066,136.55,253.689z"/>
					<path fill="#D070AC" d="M147.103,246.431l0.564,0.895c0,0,2.87,2.459,2.078,5.05c0,0-0.455,3.9-1.445,4.412
						c0,0,5.288-0.12,4.225-5.373C152.525,251.415,150.469,245.899,147.103,246.431z"/>
				</g>
			</g>
			<g>
				<path fill="#42AC49" d="M200.606,197.051c0,0,5.918-5.111,10.435,0.355C211.041,197.406,207.363,201.628,200.606,197.051z"/>
				<path fill="#42AC49" d="M192.347,182.217c0,0,7.33-2.194,9.453,4.733C201.8,186.95,196.86,189.277,192.347,182.217z"/>
				<g>
					<path fill="#E36A95" d="M207.075,180.639c0.734,0.566-4.776-4.027-7.543,1.337c0,0-0.782,2.211,1.135,6.84
						c0,0-1.452-7.695,2.546-7.074c0,0,0.941-1.186,2.501-0.149C205.714,181.591,207.65,180.704,207.075,180.639z"/>
					<path fill="#E36A95" stroke="#FAD1DE" stroke-miterlimit="10" d="M199.424,182.454c0,0-0.092,5.093,0.927,6.197
						c0,0-2.055-2.716-2.176-4.812C198.175,183.84,198.646,182.532,199.424,182.454z"/>
					<path fill="#FAD1DE" d="M198.1,184.23c0,0-0.731,5.861,6.761,7.211c2.099,0.205,2.099,0.175,3.441-0.178
						c0,0-1.799,2.299-2.374,2.234c0,0,3.257-1.034,4.47-5.156l-0.245-2.062c0,0,0.164-2.348-0.223-3.688
						c0,0,0.081,7.733-4.08,4.364c0,0,2.368,0.212,2.519-2.076c0.071-0.78,0.151-2.034-1.743-1.932c0,0-0.389-1.303-0.412-1.182
						c-0.022,0.12,0.919-0.786,1.384-1.06c0,0-1.39,0.18-1.742,0.792c0,0-1.662-1.476-2.537,0.01
						c0.518,0.062-2.995-0.606-2.646,2.164c0,0-0.558,2.573-0.117,3.926c0.359,1.101-1.234-3.862-0.938-4.537
						c0,0-0.383,4.296,0.705,5.742C200.322,188.803,198.502,186.076,198.1,184.23z"/>
					<path fill="#E36A95" d="M204.19,185.527c0,0-2.132-3.231,0.23-3.899c0,0,1.224-0.252,1.481,1.446
						C205.901,183.073,204.04,184.49,204.19,185.527z"/>
					<path fill="#E36A95" d="M206.295,183.162c0,0,0.123-0.938-0.17-1.237c0,0,1.929-2.966,3.805,0.065c0,0,0.396,7.235-2.858,5.696
						c0,0-1.057-0.374-1.13-0.892c0,0,2.583,0.305,2.452-2.349C208.394,184.447,208.429,183.061,206.295,183.162z"/>
					<path fill="#E36A95" d="M202.803,182.386c0,0-0.209,3.484,2.299,4.791c0,0-4.516-1.849-3.604-4.424
						C201.499,182.753,202.253,182.134,202.803,182.386z"/>
					<path fill="#E36A95" d="M206.258,184.844c0,0,0.075,1.098-0.285,1.456c0,0,1.1,0.411,1.219-0.805
						C207.192,185.494,207.157,184.718,206.258,184.844z"/>
					<path fill="#E36A95" d="M205.601,184.618c0,0,0.411,2.471-0.99,1.387c0,0,0.701-3.24,2.926-2.242c0,0,0.679,0.354,0.276,1.558
						C207.813,185.321,206.59,183.231,205.601,184.618z"/>
					<path fill="#E36A95" d="M200.945,184.387c0,0-0.007,0.171-0.011,0.45c-0.022,1.221,0.014,4.547,1.013,5.023
						c0,0,5.061,2.001,6.747,0.431c0,0,1.721-1.735,0.942-3.17c0,0-1.42,2.633-5.305,0.319
						C204.331,187.441,201.585,185.931,200.945,184.387z"/>
					<path fill="#E36A95" d="M209.976,182.583l0.034,2.096c0,0,2.547,2.831,1.671,7.027
						C211.682,191.706,216.098,187.104,209.976,182.583z"/>
					<path fill="#E36A95" d="M210.545,182.93c0,0,4.75,3.126,0.794,8.96C211.339,191.89,216.713,187.689,210.545,182.93z"/>
					<path fill="#FAD1DE" d="M211.478,192.174c0,0,4.191-5.37-1.139-9.314l0,0c0,0,3.755,2.018,1.342,8.847L211.478,192.174z"/>
					<path fill="#E36A95" d="M198.108,184.177c0,0-2.642,5.123,1.342,7.891c0,0,3.978,2.952,6.518,1.446
						c0,0,2.112-1.414,2.222-2.582c0,0-4.08,1.647-8.68-2.187C199.51,188.745,197.639,186.584,198.108,184.177z"/>
					<path fill="#E36A95" d="M210.01,184.679l-0.017,1.025c0,0,0.977,3.581-0.962,5.133c0,0-2.343,2.767-3.374,2.588
						c0,0,4.168,2.984,6.024-1.718C211.682,191.706,212.9,186.224,210.01,184.679z"/>
				</g>
				<g>
					<path fill="#D070AC" d="M192.997,188.527c0.953,0.016-6.403-0.391-5.75,6.025c0,0,0.576,2.414,4.853,5.167
						c0,0-5.613-5.698-1.812-7.745c0,0,0.142-1.632,2.076-1.745C192.364,190.228,193.53,188.21,192.997,188.527z"/>
					<path fill="#D070AC" d="M187.424,195.036c0,0,2.806,4.451,4.309,4.746c0,0-3.31-1.014-4.604-2.745
						C187.129,197.037,186.797,195.607,187.424,195.036z"/>
					<path fill="#FAD1DE" d="M187.286,197.424c0,0,2.691,5.527,9.919,1.852c1.926-1.182,1.909-1.205,2.868-2.376
						c0,0-0.25,3.144-0.781,3.458c0,0,2.223-2.995,0.933-7.333l-1.378-1.623c0,0-1.189-2.13-2.28-3.035c0,0,4.45,6.619-1.049,6.399
						c0,0,2.162-1.348,0.998-3.418c-0.382-0.718-1.024-1.853-2.599-0.54c0,0-1.073-0.873-1.024-0.754
						c0.048,0.119,0.347-1.271,0.593-1.807c0,0-1.096,1.052-1.056,1.807c0,0-2.269-0.199-2.183,1.65
						c0.482-0.282-2.926,1.411-1.055,3.574c0,0,0.975,2.58,2.122,3.464c0.935,0.716-3.252-2.538-3.379-3.309
						c0,0,2.1,3.952,3.859,4.496C191.794,199.93,188.682,198.755,187.286,197.424z"/>
					<path fill="#D070AC" d="M193.278,194.607c0,0-3.671-1.41-2.011-3.513c0,0,0.913-1.008,2.096,0.291
						C193.362,191.386,192.559,193.809,193.278,194.607z"/>
					<path fill="#D070AC" d="M193.753,191.206c0,0-0.424-0.887-0.849-0.957c0,0-0.015-3.805,3.321-2.401c0,0,4.439,5.985,0.76,6.762
						c0,0-1.122,0.358-1.481-0.04c0,0,2.402-1.405,0.787-3.611C196.292,190.958,195.536,189.739,193.753,191.206z"/>
					<path fill="#D070AC" d="M190.302,192.794c0,0,1.793,3.139,4.696,2.646c0,0-4.943,1.324-5.616-1.486
						C189.382,193.954,189.684,192.93,190.302,192.794z"/>
					<path fill="#D070AC" d="M194.674,192.682c0,0,0.687,0.897,0.579,1.439c0,0,1.182-0.356,0.595-1.481
						C195.848,192.64,195.379,191.991,194.674,192.682z"/>
					<path fill="#D070AC" d="M193.978,192.911c0,0,1.755,1.866-0.067,1.836c0,0-1.231-3.25,1.254-3.825c0,0,0.788-0.131,1.121,1.166
						C196.286,192.088,194.046,191.075,193.978,192.911z"/>
					<path fill="#D070AC" d="M189.833,195.72c0,0,0.089,0.151,0.244,0.396c0.672,1.067,2.587,3.914,3.72,3.68
						c0,0,5.499-1.544,6.066-3.987c0,0,0.501-2.609-0.983-3.345c0,0,0.266,3.189-4.395,3.704
						C194.483,196.166,191.256,196.636,189.833,195.72z"/>
					<path fill="#D070AC" d="M196.602,188.329l1.216,1.785c0,0,3.801,0.797,5.423,4.984
						C203.241,195.099,204.444,188.275,196.602,188.329z"/>
					<path fill="#D070AC" d="M197.289,188.262c0,0,5.869-0.372,5.761,7.215C203.049,195.477,205.305,188.382,197.289,188.262z"/>
					<path fill="#FAD1DE" d="M203.328,195.632c0,0,0.576-7.338-6.257-7.299l0,0c0,0,4.383-0.685,6.17,6.766L203.328,195.632z"/>
					<path fill="#D070AC" d="M187.265,197.372c0,0,0.622,6.127,5.628,5.938c0,0,5.102-0.022,6.441-2.962
						c0,0,1.022-2.582,0.454-3.661c0,0-2.587,4.055-8.726,3.72C191.062,200.406,188.224,199.75,187.265,197.372z"/>
					<path fill="#D070AC" d="M197.817,190.115l0.565,0.895c0,0,2.871,2.461,2.078,5.052c0,0-0.455,3.899-1.444,4.411
						c0,0,5.286-0.118,4.223-5.373C203.241,195.099,201.185,189.581,197.817,190.115z"/>
				</g>
			</g>
			<g>
				<path fill="#42AC49" d="M162.485,206.196c0,0,5.92-5.111,10.437,0.354C172.922,206.55,169.245,210.772,162.485,206.196z"/>
				<path fill="#42AC49" d="M154.229,191.36c0,0,7.329-2.194,9.454,4.734C163.683,196.094,158.742,198.418,154.229,191.36z"/>
				<g>
					<path fill="#E36A95" d="M168.958,189.782c0.732,0.566-4.777-4.029-7.544,1.338c0,0-0.783,2.21,1.136,6.838
						c0,0-1.453-7.695,2.545-7.074c0,0,0.941-1.185,2.503-0.147C167.597,190.737,169.531,189.847,168.958,189.782z"/>
					<path fill="#E36A95" stroke="#FAD1DE" stroke-miterlimit="10" d="M161.304,191.598c0,0-0.09,5.093,0.927,6.197
						c0,0-2.055-2.716-2.176-4.812C160.055,192.983,160.526,191.676,161.304,191.598z"/>
					<path fill="#FAD1DE" d="M159.98,193.374c0,0-0.73,5.859,6.761,7.208c2.1,0.206,2.1,0.177,3.442-0.176
						c0,0-1.799,2.298-2.372,2.233c0,0,3.254-1.034,4.468-5.155l-0.246-2.063c0,0,0.163-2.346-0.222-3.686
						c0,0,0.081,7.732-4.081,4.362c0,0,2.369,0.213,2.519-2.075c0.071-0.779,0.151-2.035-1.743-1.932c0,0-0.39-1.301-0.413-1.182
						c-0.023,0.121,0.92-0.785,1.384-1.06c0,0-1.387,0.182-1.742,0.791c0,0-1.662-1.476-2.538,0.011
						c0.518,0.061-2.995-0.606-2.645,2.166c0,0-0.558,2.571-0.117,3.925c0.359,1.1-1.234-3.864-0.938-4.537
						c0,0-0.384,4.294,0.704,5.739C162.203,197.945,160.382,195.219,159.98,193.374z"/>
					<path fill="#E36A95" d="M166.071,194.672c0,0-2.131-3.234,0.23-3.901c0,0,1.224-0.251,1.481,1.446
						C167.782,192.217,165.92,193.635,166.071,194.672z"/>
					<path fill="#E36A95" d="M168.176,192.305c0,0,0.123-0.938-0.171-1.237c0,0,1.929-2.966,3.807,0.066c0,0,0.395,7.234-2.86,5.697
						c0,0-1.054-0.375-1.13-0.894c0,0,2.584,0.308,2.455-2.348C170.277,193.589,170.312,192.202,168.176,192.305z"/>
					<path fill="#E36A95" d="M164.685,191.531c0,0-0.208,3.482,2.297,4.791c0,0-4.514-1.849-3.602-4.425
						C163.381,191.897,164.135,191.277,164.685,191.531z"/>
					<path fill="#E36A95" d="M168.14,193.989c0,0,0.077,1.096-0.284,1.455c0,0,1.098,0.41,1.217-0.807
						C169.073,194.637,169.041,193.862,168.14,193.989z"/>
					<path fill="#E36A95" d="M167.482,193.762c0,0,0.412,2.47-0.991,1.386c0,0,0.703-3.241,2.927-2.242c0,0,0.679,0.356,0.276,1.559
						C169.694,194.464,168.471,192.374,167.482,193.762z"/>
					<path fill="#E36A95" d="M162.827,193.531c0,0-0.008,0.169-0.012,0.449c-0.022,1.22,0.015,4.546,1.013,5.022
						c0,0,5.062,2.004,6.749,0.432c0,0,1.72-1.736,0.941-3.171c0,0-1.42,2.634-5.305,0.321
						C166.212,196.585,163.466,195.073,162.827,193.531z"/>
					<path fill="#E36A95" d="M171.858,191.727l0.035,2.096c0,0,2.546,2.831,1.671,7.028
						C173.564,200.851,177.979,196.247,171.858,191.727z"/>
					<path fill="#E36A95" d="M172.427,192.073c0,0,4.749,3.126,0.794,8.959C173.221,201.032,178.596,196.831,172.427,192.073z"/>
					<path fill="#FAD1DE" d="M173.36,201.317c0,0,4.19-5.368-1.139-9.312l0,0c0,0,3.756,2.016,1.343,8.846L173.36,201.317z"/>
					<path fill="#E36A95" d="M159.989,193.321c0,0-2.641,5.125,1.344,7.89c0,0,3.976,2.953,6.517,1.447c0,0,2.112-1.414,2.223-2.582
						c0,0-4.08,1.646-8.68-2.188C161.392,197.888,159.521,195.728,159.989,193.321z"/>
					<path fill="#E36A95" d="M171.893,193.823l-0.019,1.024c0,0,0.976,3.582-0.962,5.134c0,0-2.343,2.768-3.374,2.589
						c0,0,4.169,2.982,6.025-1.718C173.564,200.851,174.78,195.368,171.893,193.823z"/>
				</g>
				<g>
					<path fill="#D070AC" d="M154.878,197.67c0.952,0.014-6.404-0.392-5.751,6.026c0,0,0.578,2.412,4.854,5.166
						c0,0-5.613-5.701-1.811-7.746c0,0,0.142-1.631,2.076-1.745C154.246,199.371,155.411,197.355,154.878,197.67z"/>
					<path fill="#D070AC" d="M149.305,204.179c0,0,2.806,4.453,4.311,4.748c0,0-3.312-1.015-4.604-2.746
						C149.012,206.18,148.678,204.749,149.305,204.179z"/>
					<path fill="#FAD1DE" d="M149.168,206.568c0,0,2.689,5.526,9.917,1.852c1.926-1.18,1.911-1.205,2.87-2.377
						c0,0-0.25,3.146-0.781,3.459c0,0,2.222-2.995,0.934-7.334l-1.38-1.62c0,0-1.188-2.132-2.281-3.037c0,0,4.451,6.618-1.048,6.399
						c0,0,2.162-1.347,0.997-3.417c-0.38-0.72-1.022-1.854-2.596-0.541c0,0-1.074-0.874-1.026-0.754
						c0.048,0.117,0.348-1.272,0.593-1.807c0,0-1.096,1.051-1.055,1.808c0,0-2.269-0.2-2.184,1.647
						c0.483-0.28-2.926,1.412-1.055,3.576c0,0,0.975,2.581,2.122,3.464c0.934,0.716-3.252-2.537-3.378-3.309
						c0,0,2.101,3.952,3.858,4.496C153.675,209.073,150.562,207.9,149.168,206.568z"/>
					<path fill="#D070AC" d="M155.159,203.751c0,0-3.671-1.412-2.012-3.515c0,0,0.913-1.007,2.098,0.292
						C155.245,200.529,154.441,202.953,155.159,203.751z"/>
					<path fill="#D070AC" d="M155.634,200.351c0,0-0.425-0.889-0.849-0.957c0,0-0.016-3.807,3.321-2.401
						c0,0,4.438,5.985,0.761,6.761c0,0-1.123,0.358-1.481-0.039c0,0,2.402-1.406,0.786-3.612
						C158.172,200.101,157.417,198.883,155.634,200.351z"/>
					<path fill="#D070AC" d="M152.183,201.937c0,0,1.794,3.141,4.696,2.647c0,0-4.943,1.323-5.614-1.487
						C151.266,203.097,151.566,202.073,152.183,201.937z"/>
					<path fill="#D070AC" d="M156.554,201.826c0,0,0.688,0.896,0.581,1.438c0,0,1.18-0.355,0.595-1.482
						C157.73,201.781,157.261,201.134,156.554,201.826z"/>
					<path fill="#D070AC" d="M155.86,202.054c0,0,1.755,1.866-0.069,1.838c0,0-1.231-3.251,1.254-3.827c0,0,0.787-0.131,1.121,1.167
						C158.167,201.232,155.928,200.218,155.86,202.054z"/>
					<path fill="#D070AC" d="M151.714,204.863c0,0,0.088,0.152,0.244,0.396c0.671,1.069,2.588,3.913,3.719,3.679
						c0,0,5.5-1.541,6.067-3.986c0,0,0.5-2.609-0.985-3.344c0,0,0.267,3.189-4.394,3.703
						C156.364,205.311,153.139,205.781,151.714,204.863z"/>
					<path fill="#D070AC" d="M158.482,197.474l1.218,1.785c0,0,3.801,0.797,5.422,4.983
						C165.121,204.242,166.324,197.418,158.482,197.474z"/>
					<path fill="#D070AC" d="M159.169,197.406c0,0,5.87-0.375,5.761,7.214C164.93,204.62,167.187,197.525,159.169,197.406z"/>
					<path fill="#FAD1DE" d="M165.209,204.777c0,0,0.575-7.34-6.258-7.298l0,0c0,0,4.383-0.687,6.169,6.764L165.209,204.777z"/>
					<path fill="#D070AC" d="M149.146,206.516c0,0,0.624,6.126,5.627,5.938c0,0,5.104-0.021,6.444-2.962c0,0,1.02-2.583,0.452-3.662
						c0,0-2.586,4.057-8.726,3.721C152.944,209.55,150.105,208.894,149.146,206.516z"/>
					<path fill="#D070AC" d="M159.7,199.259l0.564,0.895c0,0,2.871,2.459,2.078,5.05c0,0-0.454,3.9-1.444,4.412
						c0,0,5.287-0.119,4.224-5.373C165.121,204.242,163.067,198.726,159.7,199.259z"/>
				</g>
			</g>
		</g>
	</g>
</g>
<path fill="#FFFCFA" d="M179.724,131.56c0,1.583-4.737,2.635-6.081,2.635l-18.441,0.955c-1.345,0-2.433-1.283-2.433-2.865
	l3.242-5.883c0-1.582,11.02-3.759,12.362-3.759h9.93c1.343,0,2.062,3.759,2.062,5.342L179.724,131.56z"/>
<path fill="#FFFCFA" d="M122.54,132.844c0.115,1.579,4.915,2.287,6.254,2.19l18.463-0.377c1.339-0.097,2.333-1.456,2.218-3.033
	l-3.657-5.634c-0.113-1.578-11.261-2.954-12.6-2.857l-9.905,0.716c-1.339,0.097-1.787,3.896-1.672,5.476L122.54,132.844z"/>
<path fill="none" stroke="#FDE8F1" stroke-width="4" stroke-miterlimit="10" d="M151.583,128.896c0,0,1.125,18.471-36.013,19.128"/>
<path fill="#F5A9C1" d="M155.865,130.194c0,1.79-0.975,3.353-2.422,4.186c-0.486,0.28-1.024,0.477-1.598,0.572
	c-0.262,0.044-0.531,0.067-0.805,0.067c-2.665,0-4.826-2.16-4.826-4.825c0-2.664,2.161-4.825,4.826-4.825
	C153.706,125.368,155.865,127.53,155.865,130.194z"/>
<path fill="none" stroke="#C11E55" stroke-miterlimit="10" d="M128.057,107.716c0,0,14.099-8.706,43.455-2.891"/>
<path fill="#585959" d="M53.251,182.199c0,0-2.458-16.282-13.021-3.233c0,0-22.89,26.304,17.688,35.521
	c0,0,34.404,3.746,54.911-6.658l-0.474,6.658c0,0-38.371,9.57-63.052,3.021c0,0-27.535-8.071-18.174-33.972
	c0,0,6.095-15.032,20.213-11.102c0,0,7.58,2.244,2.135,11.801"/>
<path opacity="0.51" fill="#585959" enable-background="new    " d="M208.526,52.851l2.308,40.782l-5.37,24.784l-1.561,18.619
	C203.904,137.036,226.815,73.423,208.526,52.851z"/>
</svg>
