<?xml version="1.0" encoding="utf-8"?>
<!-- Generator: Adobe Illustrator 15.1.0, SVG Export Plug-In  -->
<!DOCTYPE svg PUBLIC "-//W3C//DTD SVG 1.1//EN" "http://www.w3.org/Graphics/SVG/1.1/DTD/svg11.dtd" [
	<!ENTITY ns_flows "http://ns.adobe.com/Flows/1.0/">
]>
<svg version="1.1"
	 xmlns="http://www.w3.org/2000/svg" xmlns:xlink="http://www.w3.org/1999/xlink" xmlns:a="http://ns.adobe.com/AdobeSVGViewerExtensions/3.0/"
	 x="0px" y="0px" width="571px" height="589px" viewBox="745.839 209.553 571 589"
	 overflow="visible" enable-background="new 745.839 209.553 571 589" xml:space="preserve">
<defs>
</defs>
<g>
	<defs>
		<path id="SVGID_4_" d="M125.248,57.89v149.707c0,0-17.178,80.994-36.813,73.629v363.227h569.376l17.183-363.227
			c0,0-41.721-31.904-24.541-85.898L638.183,57.89H125.248z"/>
	</defs>
	<clipPath id="SVGID_5_">
		<use xlink:href="#SVGID_4_"  overflow="visible"/>
	</clipPath>
	<g clip-path="url(#SVGID_5_)">
		<path fill="#F7E3EE" d="M125.248,51.927v149.707c0,0-17.178,80.988-36.813,73.627v363.223h569.376l17.183-363.223
			c0,0-41.721-31.906-24.541-85.896l-12.27-137.438H125.248z"/>
		<g>
			<path fill="#D668A8" d="M137.503,134.207c0,0-50.146-84.134,0-84.134C137.503,50.073,182.872,45.854,137.503,134.207z"/>
			<path fill="#D668A8" d="M135.116,103.698c0,0-50.147,84.131,0,84.131C135.116,187.829,180.479,192.046,135.116,103.698z"/>
			<path fill="#D668A8" d="M134.057,135.067c0,0,31.585-92.715,64.079-54.52C198.136,80.548,230.741,112.368,134.057,135.067z"/>
			<path fill="#D668A8" d="M134.704,138.484c0,0-92.555-32.032-54.21-64.343C80.494,74.142,112.477,41.686,134.704,138.484z"/>
			<path fill="#D668A8" d="M134.057,102.338c0,0,31.585,92.704,64.079,54.512C198.136,156.85,230.741,125.031,134.057,102.338z"/>
			<path fill="#D668A8" d="M132.317,99.418c0,0-92.554,32.033-54.21,64.345C78.107,163.763,110.09,196.218,132.317,99.418z"/>
		</g>
		<g>
			<path fill="#D668A8" d="M315.788,203.12c0,0-50.143-84.138,0-84.138C315.788,118.982,361.161,114.766,315.788,203.12z"/>
			<path fill="#D668A8" d="M313.401,172.61c0,0-50.145,84.135,0,84.135C313.401,256.745,358.766,260.961,313.401,172.61z"/>
			<path fill="#D668A8" d="M312.343,203.979c0,0,31.586-92.715,64.077-54.521C376.42,149.457,409.03,181.279,312.343,203.979z"/>
			<path fill="#D668A8" d="M312.992,207.395c0,0-92.554-32.03-54.21-64.343C258.782,143.052,290.762,110.598,312.992,207.395z"/>
			<path fill="#D668A8" d="M312.343,171.248c0,0,31.586,92.711,64.077,54.516C376.42,225.764,409.03,193.941,312.343,171.248z"/>
			<path fill="#D668A8" d="M310.606,168.328c0,0-92.556,32.034-54.21,64.349C256.396,232.677,288.376,265.13,310.606,168.328z"/>
		</g>
		<g>
			<path fill="#D668A8" d="M503.257,84.167c0,0-50.143-84.135,0-84.135C503.257,0.032,548.625-4.185,503.257,84.167z"/>
			<path fill="#D668A8" d="M500.868,53.657c0,0-50.145,84.136,0,84.136C500.868,137.793,546.23,142.006,500.868,53.657z"/>
			<path fill="#D668A8" d="M499.811,85.026c0,0,31.583-92.711,64.078-54.518C563.889,30.509,596.495,62.329,499.811,85.026z"/>
			<path fill="#D668A8" d="M500.458,88.444c0,0-92.556-32.033-54.207-64.344C446.251,24.101,478.231-8.351,500.458,88.444z"/>
			<path fill="#D668A8" d="M499.811,52.297c0,0,31.583,92.708,64.078,54.515C563.889,106.812,596.495,74.99,499.811,52.297z"/>
			<path fill="#D668A8" d="M498.072,49.377c0,0-92.554,32.035-54.21,64.346C443.862,113.723,475.843,146.179,498.072,49.377z"/>
		</g>
		<g>
			<path fill="#D668A8" d="M651.099,285.48c0,0-57.163-95.916,0-95.916C651.099,189.564,702.818,184.755,651.099,285.48z"/>
			<path fill="#D668A8" d="M648.377,250.696c0,0-57.166,95.912,0,95.912C648.377,346.608,700.093,351.42,648.377,250.696z"/>
			<path fill="#D668A8" d="M647.167,286.46c0,0,36.009-105.696,73.051-62.156C720.218,224.304,757.394,260.583,647.167,286.46z"/>
			<path fill="#D668A8" d="M647.909,290.354c0,0-105.518-36.514-61.801-73.354C586.108,217,622.566,180.003,647.909,290.354z"/>
			<path fill="#D668A8" d="M647.167,249.144c0,0,36.009,105.687,73.051,62.15C720.218,311.294,757.394,275.019,647.167,249.144z"/>
			<path fill="#D668A8" d="M645.188,245.818c0,0-105.516,36.519-61.803,73.353C583.386,319.171,619.847,356.17,645.188,245.818z"/>
		</g>
		<g>
			<path fill="#D668A8" d="M102.142,667.149c0,0-57.162-95.912,0-95.912C102.142,571.237,153.861,566.427,102.142,667.149z"/>
			<path fill="#D668A8" d="M99.423,632.366c0,0-57.169,95.912,0,95.912C99.423,728.278,151.138,733.087,99.423,632.366z"/>
			<path fill="#D668A8" d="M98.216,668.126c0,0,36.007-105.69,73.05-62.15C171.266,605.976,208.437,642.254,98.216,668.126z"/>
			<path fill="#D668A8" d="M98.954,672.021c0,0-105.514-36.512-61.799-73.344C37.155,598.677,73.612,561.672,98.954,672.021z"/>
			<path fill="#D668A8" d="M98.216,630.815c0,0,36.007,105.688,73.05,62.147C171.266,692.963,208.437,656.685,98.216,630.815z"/>
			<path fill="#D668A8" d="M96.233,627.486c0,0-105.51,36.518-61.801,73.354C34.433,700.841,70.894,737.843,96.233,627.486z"/>
		</g>
		<g>
			<path fill="#D668A8" d="M436.14,642.721c0,0-57.166-95.911,0-95.911C436.14,546.81,487.862,542.004,436.14,642.721z"/>
			<path fill="#D668A8" d="M433.419,607.94c0,0-57.167,95.916,0,95.916C433.419,703.856,485.134,708.661,433.419,607.94z"/>
			<path fill="#D668A8" d="M432.212,643.705c0,0,36.009-105.694,73.048-62.155C505.26,581.55,542.436,617.829,432.212,643.705z"/>
			<path fill="#D668A8" d="M432.953,647.598c0,0-105.517-36.519-61.802-73.348C371.151,574.25,407.605,537.25,432.953,647.598z"/>
			<path fill="#D668A8" d="M432.212,606.394c0,0,36.009,105.686,73.048,62.138C505.26,668.531,542.436,632.259,432.212,606.394z"/>
			<path fill="#D668A8" d="M430.229,603.062c0,0-105.511,36.517-61.799,73.352C368.431,676.414,404.888,713.417,430.229,603.062z"/>
		</g>
		<g>
			<path fill="#D668A8" d="M672.942,570.009c0,0-57.164-95.908,0-95.908C672.942,474.101,724.664,469.291,672.942,570.009z"/>
			<path fill="#D668A8" d="M670.224,535.229c0,0-57.168,95.919,0,95.919C670.224,631.147,721.939,635.95,670.224,535.229z"/>
			<path fill="#D668A8" d="M669.015,570.993c0,0,36.008-105.693,73.051-62.154C742.065,508.839,779.237,545.119,669.015,570.993z"/>
			<path fill="#D668A8" d="M669.757,574.89c0,0-105.52-36.521-61.804-73.354C607.953,501.536,644.411,464.541,669.757,574.89z"/>
			<path fill="#D668A8" d="M669.015,533.68c0,0,36.008,105.687,73.051,62.148C742.065,595.828,779.237,559.552,669.015,533.68z"/>
			<path fill="#D668A8" d="M667.036,530.354c0,0-105.516,36.516-61.804,73.35C605.232,603.703,641.693,640.707,667.036,530.354z"/>
		</g>
		<g>
			<path fill="#D668A8" d="M78.316,422.864c0,0-57.164-95.912,0-95.912C78.316,326.952,130.036,322.144,78.316,422.864z"/>
			<path fill="#D668A8" d="M75.598,388.081c0,0-57.167,95.918,0,95.918C75.598,483.999,127.313,488.801,75.598,388.081z"/>
			<path fill="#D668A8" d="M74.387,423.845c0,0,36.011-105.694,73.054-62.154C147.44,361.69,184.612,397.971,74.387,423.845z"/>
			<path fill="#D668A8" d="M75.129,427.738c0,0-105.516-36.515-61.801-73.349C13.328,354.39,49.788,317.389,75.129,427.738z"/>
			<path fill="#D668A8" d="M74.387,386.531c0,0,36.011,105.686,73.054,62.146C147.44,448.677,184.612,412.399,74.387,386.531z"/>
			<path fill="#D668A8" d="M72.41,383.2c0,0-105.513,36.522-61.804,73.355C10.606,456.556,47.063,493.556,72.41,383.2z"/>
		</g>
	</g>
</g>
<ellipse opacity="0.35" fill="#6B6B6A" cx="1012.444" cy="779.643" rx="213.165" ry="19.368"/>
<g>
	<defs>
		<path id="SVGID_3_" d="M823.872,236.816v116.035c0,0-13.314,62.769-28.534,57.062v281.519h441.3l13.315-281.519
			c0,0-32.337-24.728-19.021-66.576l-9.511-106.521H823.872z"/>
	</defs>
	<clipPath id="SVGID_6_">
		<use xlink:href="#SVGID_3_"  overflow="visible"/>
	</clipPath>
	<g clip-path="url(#SVGID_6_)">
		<g>
			<g>
				<path fill="#2B9ACD" d="M823.872,236.816v116.035c0,0-13.314,62.769-28.534,57.062v281.519h441.3l13.315-281.519
					c0,0-32.337-24.728-19.021-66.576l-9.511-106.521H823.872z"/>
				<path fill="#D55327" d="M866.963,283.692c0,15.059-12.204,27.265-27.261,27.265c-15.058,0-27.263-12.206-27.263-27.265
					c0-15.055,12.205-27.262,27.263-27.262C854.759,256.431,866.963,268.638,866.963,283.692z"/>
				<path fill="#D55327" d="M942.419,368.899c0,15.056-12.207,27.263-27.264,27.263c-15.058,0-27.269-12.207-27.269-27.263
					c0-15.061,12.211-27.263,27.269-27.263C930.212,341.637,942.419,353.839,942.419,368.899z"/>
				<path fill="#D55327" d="M1124.707,256.431c0,15.056-12.205,27.262-27.267,27.262c-15.052,0-27.256-12.206-27.256-27.262
					c0-15.057,12.204-27.263,27.256-27.263C1112.502,229.168,1124.707,241.374,1124.707,256.431z"/>
				<path fill="#D55327" d="M1241.525,283.692c0,15.059-12.207,27.265-27.265,27.265c-15.057,0-27.264-12.206-27.264-27.265
					c0-15.055,12.207-27.262,27.264-27.262C1229.318,256.431,1241.525,268.638,1241.525,283.692z"/>
				<path fill="#D55327" d="M1268.788,451.084c0,15.06-12.206,27.26-27.263,27.26c-15.056,0-27.265-12.2-27.265-27.26
					s12.209-27.264,27.265-27.264C1256.582,423.82,1268.788,436.024,1268.788,451.084z"/>
				<path fill="#D55327" d="M1203.416,679.344c0,15.057-12.204,27.263-27.265,27.263c-15.056,0-27.264-12.206-27.264-27.263
					c0-15.06,12.208-27.267,27.264-27.267C1191.212,652.077,1203.416,664.284,1203.416,679.344z"/>
				<path fill="#D55327" d="M969.68,652.077c0,15.059-12.204,27.267-27.261,27.267c-15.061,0-27.264-12.208-27.264-27.267
					s12.203-27.261,27.264-27.261C957.476,624.816,969.68,637.019,969.68,652.077z"/>
				<circle fill="#D55327" cx="785.175" cy="644.513" r="27.264"/>
				<path fill="#D55327" d="M991.874,247.915c0,21.185-17.176,38.357-38.36,38.357c-21.188,0-38.358-17.173-38.358-38.357
					c0-21.188,17.171-38.362,38.358-38.362C974.698,209.553,991.874,226.727,991.874,247.915z"/>
				<path fill="#D55327" d="M1108.541,368.901c0,21.183-17.177,38.355-38.356,38.355c-21.188,0-38.36-17.173-38.36-38.355
					c0-21.188,17.173-38.361,38.36-38.361C1091.364,330.54,1108.541,347.713,1108.541,368.901z"/>
				<circle fill="#D55327" cx="1061.007" cy="685.741" r="38.359"/>
			</g>
			<path fill="#D55327" d="M874.329,509.551c0,35.486-28.765,64.25-64.244,64.25c-35.485,0-64.246-28.764-64.246-64.25
				c0-35.481,28.761-64.243,64.246-64.243C845.564,445.308,874.329,474.069,874.329,509.551z"/>
		</g>
		<path fill="#D55327" d="M1316.897,579.418c0,25.074-22.977,45.398-51.317,45.398c-28.344,0-51.319-20.324-51.319-45.398
			c0-25.077,22.976-45.401,51.319-45.401C1293.921,534.017,1316.897,554.341,1316.897,579.418z"/>
	</g>
</g>
<polygon fill="#684E1E" points="822.353,784.635 804.279,784.635 795.721,685.738 822.353,685.738 "/>
<polygon fill="#684E1E" points="1207.537,790.332 1225.608,790.332 1234.168,691.433 1207.537,691.433 "/>
<rect x="851.832" y="539.259" fill="#47A8D2" width="324.319" height="77.988"/>
<polygon fill="#2C87AF" points="885.124,482.195 848.03,539.259 1176.151,539.259 1149.521,482.195 "/>
<g>
	<defs>
		<rect id="SVGID_2_" x="849.935" y="539.259" width="324.316" height="77.988"/>
	</defs>
	<clipPath id="SVGID_7_">
		<use xlink:href="#SVGID_2_"  overflow="visible"/>
	</clipPath>
	<g clip-path="url(#SVGID_7_)">
		<rect x="851.832" y="539.259" fill="#47A8D2" width="324.319" height="77.988"/>
		<circle fill="#D55327" cx="865.228" cy="615.821" r="32.814"/>
		<path fill="#D55327" d="M997.901,587.769c0,12.604-11.916,22.821-26.628,22.821c-14.708,0-26.633-10.217-26.633-22.821
			c0-12.607,11.925-22.828,26.633-22.828C985.985,564.94,997.901,575.161,997.901,587.769z"/>
		<ellipse fill="#D55327" cx="1168.623" cy="615.821" rx="30.91" ry="32.813"/>
		<path fill="#D55327" d="M1104.424,579.681c0,14.447-11.07,26.155-24.725,26.155c-13.661,0-24.73-11.708-24.73-26.155
			c0-14.443,11.069-26.152,24.73-26.152C1093.354,553.528,1104.424,565.237,1104.424,579.681z"/>
	</g>
</g>
<g>
	<defs>
		<polygon id="SVGID_1_" points="885.124,482.195 848.03,539.259 1176.151,539.259 1149.521,482.195 		"/>
	</defs>
	<clipPath id="SVGID_8_">
		<use xlink:href="#SVGID_1_"  overflow="visible"/>
	</clipPath>
	<g clip-path="url(#SVGID_8_)">
		<polygon fill="#2C87AF" points="885.124,481.921 848.03,538.987 1176.151,538.987 1149.521,481.921 		"/>
	</g>
</g>
<g>
	<path fill="#FFFFFF" d="M1213.244,357.604c-1.609,0.494-3.126,1.22-4.592,2.008c-1.471,0.782-2.889,1.653-4.249,2.6
		c-2.723,1.892-5.266,4.017-7.59,6.353c-4.696,4.63-8.611,9.975-11.984,15.612c-3.317,5.679-6.173,11.634-8.49,17.814
		c-2.363,6.159-4.334,12.484-5.915,18.919c-1.666,6.413-2.961,12.934-4.037,19.497c-1.142,6.557-1.92,13.179-2.669,19.814
		c-1.396,13.285-2.123,26.671-2.781,40.128c-1.423-13.4-1.789-26.922-1.108-40.431c0.292-6.759,0.993-13.501,1.879-20.227
		c0.954-6.717,2.24-13.397,3.873-20.01c1.72-6.587,3.768-13.112,6.373-19.438c2.655-6.297,5.727-12.464,9.592-18.146
		c3.808-5.706,8.349-10.964,13.633-15.347c2.663-2.16,5.487-4.128,8.511-5.719C1206.706,359.454,1209.904,358.143,1213.244,357.604z
		"/>
</g>
<g>
	<path fill="#FFFFFF" d="M831.175,355.411c3.19,0.547,6.243,1.817,9.124,3.344c2.888,1.536,5.584,3.43,8.127,5.507
		c5.044,4.215,9.377,9.266,12.997,14.749c3.678,5.458,6.58,11.386,9.076,17.436c2.449,6.078,4.35,12.346,5.93,18.671
		c1.493,6.348,2.647,12.759,3.476,19.2c0.761,6.449,1.34,12.912,1.519,19.385c0.449,12.938-0.127,25.871-1.744,38.664
		c-0.462-12.885-0.98-25.696-2.15-38.418c-0.637-6.354-1.295-12.694-2.312-18.976c-0.951-6.287-2.116-12.534-3.645-18.681
		c-1.441-6.166-3.266-12.23-5.473-18.136c-2.158-5.927-4.844-11.638-7.973-17.088c-3.184-5.41-6.89-10.544-11.346-15.002
		c-2.204-2.253-4.619-4.303-7.203-6.139c-1.293-0.918-2.64-1.767-4.037-2.531C834.147,356.624,832.706,355.909,831.175,355.411z"/>
</g>
</svg>
