<?xml version="1.0" encoding="utf-8"?>
<!-- Generator: Adobe Illustrator 15.1.0, SVG Export Plug-In  -->
<!DOCTYPE svg PUBLIC "-//W3C//DTD SVG 1.1//EN" "http://www.w3.org/Graphics/SVG/1.1/DTD/svg11.dtd" [
	<!ENTITY ns_flows "http://ns.adobe.com/Flows/1.0/">
]>
<svg version="1.1"
	 xmlns="http://www.w3.org/2000/svg" xmlns:xlink="http://www.w3.org/1999/xlink" xmlns:a="http://ns.adobe.com/AdobeSVGViewerExtensions/3.0/"
	 x="0px" y="0px" width="271px" height="276px" viewBox="-21.224 -31.004 271 276"
	 overflow="visible" enable-background="new -21.224 -31.004 271 276" xml:space="preserve">
<defs>
</defs>
<circle fill="#FFFFFF" stroke="#010101" stroke-width="3" stroke-miterlimit="10" cx="116.561" cy="116.561" r="115.061"/>
<polygon fill="#010101" points="112.135,59.03 162.638,56.947 176.174,105.367 137.386,129.836 99.119,104.585 "/>
<path fill="#010101" d="M34.727,90.649L9.215,124.23l16.494,48.94l31.406-8.852c0,0-1.469-36.996,15.191-45.957
	C72.307,118.362,54.598,124.343,34.727,90.649z"/>
<path fill="#010101" d="M3.583,119.944c0,0,4.067,2.592,10.754,2.467v5.343c0,0-6.31,1.88-10.494,0.579c0,0-1.704-11.936,0-9.69"/>
<polygon fill="#010101" points="26.489,169.405 24.225,185.224 31.495,194.039 33.088,171.092 "/>
<path fill="#010101" d="M51.078,166.021c0,0,30.86,30.979,43.876,32.02l9.893-5.466c0,0-43.155-13.291-47.74-32.809L51.078,166.021z
	"/>
<path fill="#010101" d="M91.83,196.738c0,0,21.464,32.414-17.512,26.88l17.634,5.36c0,0,24.231-11.673,53.445-1l14.401-4.762
	c0,0-24.235-0.186,8.044-27.779c0,0-34.882-15.639-35.924-22.267c0,0-26.812,20.184-39.569,22.267"/>
<polygon fill="#010101" points="135.802,128.792 126.801,178.251 135.802,180.252 142.421,126.659 "/>
<polyline fill="#010101" points="61.547,118.753 64.285,126.659 107.709,105.281 100.972,98.1 63.476,117.983 "/>
<polyline fill="#010101" points="154.854,59.754 161.565,64.754 183.394,26.308 175.853,20.511 156.018,58.032 "/>
<path fill="#010101" d="M32.391,40.724c0,0,22.449,1.389,18.688,14.23c0,0,22.27-24.642,42.747-24.642
	c0,0-4.498-12.462,24.651-28.793C114.363,2.165,50.171,3.293,32.391,40.724z"/>
<path fill="#010101" d="M50.464,48.347c0,0-17.763,33.483-19.133,46.772l6.779,0.925c0,0,8.588-42.567,21.565-49.291L50.464,48.347z
	"/>
<path fill="#010101" d="M84.628,31.801l9.546-7.138l22.386,34.185l-4.874,1.754c0,0-20.078-29.413-25.147-28.555"/>
<path fill="#010101" d="M112.699,4.981c0,0,42.736-3.13,63.475,24.638c0,0,21.562,2.065,30.896,15.89
	c0,0-30.03-47.105-94.371-42.951"/>
<polygon fill="#010101" points="170.604,97.75 167.843,105.127 213.398,131.909 216.523,125.151 "/>
<path fill="#010101" d="M210.099,129.836c0,0,0,32.715-9.373,38.963l-40.842,28.198v5.379c0,0,45.007-31.148,51.949-36.007
	c0,0,6.707-0.628,4.915,6.802s-0.857,1.484-0.857,1.484s22.664-31.65,12.079-86.956C227.97,87.699,220.512,126.278,210.099,129.836z
	"/>
</svg>
