<?xml version="1.0" encoding="utf-8"?>
<!-- Generator: Adobe Illustrator 15.1.0, SVG Export Plug-In . SVG Version: 6.00 Build 0)  -->
<!DOCTYPE svg PUBLIC "-//W3C//DTD SVG 1.1//EN" "http://www.w3.org/Graphics/SVG/1.1/DTD/svg11.dtd">
<svg version="1.1" id="Layer_1" xmlns="http://www.w3.org/2000/svg" xmlns:xlink="http://www.w3.org/1999/xlink" x="0px" y="0px"
	 width="210px" height="266px" viewBox="62.5 38 210 266" enable-background="new 62.5 38 210 266" xml:space="preserve">
<g>
	<ellipse opacity="0.35" fill="#6B6B6A" enable-background="new    " cx="173.039" cy="272.136" rx="82.276" ry="7.813"/>
	<g>
		<g>
			<defs>
				<path id="SVGID_1_" d="M99.347,57.89v44.374c0,0-5.092,24.007-10.912,21.824v107.662H257.2l5.093-107.662
					c0,0-12.366-9.456-7.274-25.46l-3.637-40.737H99.347z"/>
			</defs>
			<clipPath id="SVGID_2_">
				<use xlink:href="#SVGID_1_"  overflow="visible"/>
			</clipPath>
			<g clip-path="url(#SVGID_2_)">
				<path fill="#F7E3EE" d="M99.347,56.122v44.374c0,0-5.092,24.005-10.912,21.823v107.66H257.2l5.093-107.66
					c0,0-12.366-9.458-7.274-25.46l-3.637-40.737H99.347z"/>
				<g>
					<path fill="#D668A8" d="M102.979,80.51c0,0-14.864-24.938,0-24.938C102.979,55.573,116.427,54.323,102.979,80.51z"/>
					<path fill="#D668A8" d="M102.271,71.468c0,0-14.864,24.937,0,24.937C102.271,96.405,115.717,97.654,102.271,71.468z"/>
					<path fill="#D668A8" d="M101.958,80.765c0,0,9.362-27.481,18.993-16.16C120.951,64.606,130.615,74.037,101.958,80.765z"/>
					<path fill="#D668A8" d="M102.149,81.778c0,0-27.434-9.494-16.068-19.071C86.081,62.707,95.561,53.087,102.149,81.778z"/>
					<path fill="#D668A8" d="M101.958,71.065c0,0,9.362,27.478,18.993,16.157C120.951,87.222,130.615,77.79,101.958,71.065z"/>
					<path fill="#D668A8" d="M101.442,70.199c0,0-27.434,9.495-16.068,19.072C85.374,89.271,94.854,98.891,101.442,70.199z"/>
				</g>
				<g>
					<path fill="#D668A8" d="M155.823,100.937c0,0-14.862-24.939,0-24.939C155.823,75.998,169.272,74.748,155.823,100.937z"/>
					<path fill="#D668A8" d="M155.116,91.893c0,0-14.863,24.938,0,24.938C155.116,116.831,168.562,118.081,155.116,91.893z"/>
					<path fill="#D668A8" d="M154.802,101.191c0,0,9.362-27.481,18.993-16.16C173.795,85.031,183.46,94.463,154.802,101.191z"/>
					<path fill="#D668A8" d="M154.995,102.203c0,0-27.434-9.494-16.068-19.071C138.927,83.132,148.405,73.513,154.995,102.203z"/>
					<path fill="#D668A8" d="M154.802,91.49c0,0,9.362,27.48,18.993,16.159C173.795,107.648,183.46,98.216,154.802,91.49z"/>
					<path fill="#D668A8" d="M154.287,90.624c0,0-27.434,9.495-16.068,19.073C138.219,109.698,147.698,119.317,154.287,90.624z"/>
				</g>
				<g>
					<path fill="#D668A8" d="M211.39,65.678c0,0-14.862-24.938,0-24.938C211.39,40.74,224.837,39.49,211.39,65.678z"/>
					<path fill="#D668A8" d="M210.682,56.635c0,0-14.863,24.938,0,24.938C210.682,81.573,224.127,82.822,210.682,56.635z"/>
					<path fill="#D668A8" d="M210.368,65.933c0,0,9.361-27.479,18.993-16.159C229.361,49.774,239.025,59.206,210.368,65.933z"/>
					<path fill="#D668A8" d="M210.56,66.946c0,0-27.434-9.495-16.067-19.072C194.493,47.875,203.972,38.256,210.56,66.946z"/>
					<path fill="#D668A8" d="M210.368,56.232c0,0,9.361,27.479,18.993,16.158C229.361,72.39,239.025,62.958,210.368,56.232z"/>
					<path fill="#D668A8" d="M209.853,55.366c0,0-27.433,9.496-16.068,19.072C193.785,74.439,203.264,84.059,209.853,55.366z"/>
				</g>
				<g>
					<path fill="#D668A8" d="M255.21,125.348c0,0-16.943-28.43,0-28.43C255.21,96.918,270.54,95.493,255.21,125.348z"/>
					<path fill="#D668A8" d="M254.403,115.038c0,0-16.944,28.428,0,28.428C254.403,143.467,269.732,144.893,254.403,115.038z"/>
					<path fill="#D668A8" d="M254.045,125.639c0,0,10.673-31.329,21.652-18.423C275.697,107.216,286.717,117.969,254.045,125.639z"
						/>
					<path fill="#D668A8" d="M254.265,126.793c0,0-31.276-10.823-18.318-21.742C235.947,105.051,246.753,94.085,254.265,126.793z"/>
					<path fill="#D668A8" d="M254.045,114.578c0,0,10.673,31.326,21.652,18.421C275.697,133,286.717,122.247,254.045,114.578z"/>
					<path fill="#D668A8" d="M253.458,113.592c0,0-31.275,10.825-18.318,21.742C235.14,135.334,245.947,146.301,253.458,113.592z"/>
				</g>
				<g>
					<path fill="#D668A8" d="M92.498,238.476c0,0-16.943-28.429,0-28.429C92.498,210.047,107.828,208.622,92.498,238.476z"/>
					<path fill="#D668A8" d="M91.692,228.166c0,0-16.945,28.429,0,28.429C91.692,256.595,107.021,258.02,91.692,228.166z"/>
					<path fill="#D668A8" d="M91.334,238.765c0,0,10.673-31.327,21.652-18.421C112.986,220.344,124.004,231.097,91.334,238.765z"/>
					<path fill="#D668A8" d="M91.553,239.92c0,0-31.274-10.822-18.317-21.739C73.235,218.181,84.042,207.212,91.553,239.92z"/>
					<path fill="#D668A8" d="M91.334,227.706c0,0,10.673,31.327,21.652,18.421C112.986,246.128,124.004,235.374,91.334,227.706z"/>
					<path fill="#D668A8" d="M90.746,226.72c0,0-31.273,10.824-18.317,21.742C72.429,248.463,83.236,259.43,90.746,226.72z"/>
				</g>
				<g>
					<path fill="#D668A8" d="M191.496,231.236c0,0-16.944-28.428,0-28.428C191.496,202.807,206.827,201.383,191.496,231.236z"/>
					<path fill="#D668A8" d="M190.689,220.926c0,0-16.944,28.43,0,28.43C190.689,249.356,206.018,250.781,190.689,220.926z"/>
					<path fill="#D668A8" d="M190.332,231.527c0,0,10.673-31.328,21.652-18.423C211.983,213.104,223.002,223.857,190.332,231.527z"
						/>
					<path fill="#D668A8" d="M190.551,232.681c0,0-31.276-10.824-18.318-21.74C172.233,210.941,183.038,199.974,190.551,232.681z"/>
					<path fill="#D668A8" d="M190.332,220.468c0,0,10.673,31.326,21.652,18.418C211.983,238.885,223.002,228.135,190.332,220.468z"
						/>
					<path fill="#D668A8" d="M189.744,219.481c0,0-31.274,10.823-18.317,21.741C171.427,241.222,182.232,252.19,189.744,219.481z"/>
				</g>
				<g>
					<path fill="#D668A8" d="M261.685,209.684c0,0-16.943-28.428,0-28.428C261.685,181.256,277.016,179.83,261.685,209.684z"/>
					<path fill="#D668A8" d="M260.879,199.374c0,0-16.945,28.431,0,28.431C260.879,227.805,276.208,229.229,260.879,199.374z"/>
					<path fill="#D668A8" d="M260.521,209.975c0,0,10.673-31.327,21.653-18.422C282.173,191.552,293.191,202.306,260.521,209.975z"
						/>
					<path fill="#D668A8" d="M260.741,211.13c0,0-31.276-10.825-18.319-21.742C242.422,189.388,253.228,178.423,260.741,211.13z"/>
					<path fill="#D668A8" d="M260.521,198.915c0,0,10.673,31.326,21.653,18.421C282.173,217.336,293.191,206.584,260.521,198.915z"
						/>
					<path fill="#D668A8" d="M259.934,197.929c0,0-31.275,10.824-18.319,21.741C241.615,219.67,252.423,230.638,259.934,197.929z"/>
				</g>
				<g>
					<path fill="#D668A8" d="M85.436,166.069c0,0-16.943-28.429,0-28.429C85.436,137.64,100.766,136.216,85.436,166.069z"/>
					<path fill="#D668A8" d="M84.63,155.759c0,0-16.944,28.431,0,28.431C84.63,184.19,99.958,185.614,84.63,155.759z"/>
					<path fill="#D668A8" d="M84.271,166.36c0,0,10.674-31.328,21.654-18.423C105.924,147.937,116.942,158.691,84.271,166.36z"/>
					<path fill="#D668A8" d="M84.491,167.514c0,0-31.275-10.823-18.318-21.741C66.173,145.774,76.98,134.806,84.491,167.514z"/>
					<path fill="#D668A8" d="M84.271,155.3c0,0,10.674,31.326,21.654,18.42C105.924,173.72,116.942,162.968,84.271,155.3z"/>
					<path fill="#D668A8" d="M83.686,154.313c0,0-31.275,10.825-18.319,21.743C65.366,176.056,76.172,187.023,83.686,154.313z"/>
				</g>
			</g>
		</g>
	</g>
	<polygon fill="#EE4599" points="122.208,151.73 107.859,173.553 234.797,173.553 224.495,151.73 	"/>
	<g>
		<path fill="#F15833" d="M248.254,104.081c-0.63,0.084-1.244,0.25-1.844,0.443c-0.601,0.191-1.19,0.417-1.762,0.676
			c-1.145,0.517-2.237,1.139-3.255,1.862c-2.05,1.429-3.821,3.217-5.342,5.183c-1.507,1.98-2.792,4.129-3.845,6.392
			c-1.065,2.256-1.943,4.607-2.649,7.012c-0.732,2.397-1.299,4.849-1.763,7.321c-0.482,2.471-0.818,4.971-1.116,7.479
			c-0.564,5.021-0.815,10.085-0.98,15.169c-0.452-5.067-0.525-10.178-0.172-15.274c0.163-2.55,0.477-5.091,0.886-7.621
			c0.43-2.526,0.998-5.033,1.726-7.501c0.753-2.458,1.661-4.88,2.81-7.196c1.161-2.305,2.526-4.527,4.207-6.505
			c1.663-1.985,3.627-3.734,5.845-5.067c1.112-0.658,2.28-1.221,3.499-1.635C245.715,104.41,246.979,104.114,248.254,104.081z"/>
	</g>
	<g>
		<path fill="#F15833" d="M102.141,103.244c1.214,0.231,2.369,0.734,3.458,1.329c1.091,0.6,2.11,1.332,3.068,2.134
			c1.904,1.622,3.534,3.557,4.899,5.651c1.382,2.087,2.483,4.345,3.423,6.652c0.926,2.317,1.649,4.706,2.248,7.117
			c0.573,2.419,1.015,4.864,1.336,7.32c0.302,2.459,0.527,4.925,0.615,7.396c0.203,4.938,0.03,9.879-0.499,14.775
			c-0.087-4.923-0.239-9.828-0.655-14.702c-0.225-2.435-0.473-4.865-0.851-7.274c-0.358-2.411-0.804-4.807-1.387-7.167
			c-0.558-2.365-1.258-4.692-2.112-6.958c-0.84-2.271-1.876-4.465-3.096-6.55c-1.236-2.072-2.68-4.032-4.41-5.727
			c-0.857-0.854-1.793-1.631-2.794-2.32c-0.501-0.345-1.021-0.662-1.562-0.947C103.286,103.687,102.729,103.424,102.141,103.244z"/>
	</g>
	<polygon fill="#684E1E" points="98.936,268.339 92.025,268.339 88.752,230.516 98.936,230.516 	"/>
	<polygon fill="#684E1E" points="244.98,267.74 251.892,267.74 255.165,229.918 244.98,229.918 	"/>
	<g>
		<g>
			<defs>
				<rect id="SVGID_3_" x="107.859" y="173.553" width="126.211" height="29.825"/>
			</defs>
			<clipPath id="SVGID_4_">
				<use xlink:href="#SVGID_3_"  overflow="visible"/>
			</clipPath>
			<g clip-path="url(#SVGID_4_)">
				<rect x="107.859" y="173.553" fill="#FCF1F2" width="126.211" height="29.825"/>
				<g>
					<path fill="#D668A8" d="M111.216,201.225c0,0-11.687-19.607,0-19.607C111.216,181.618,121.788,180.635,111.216,201.225z"/>
					<path fill="#D668A8" d="M110.66,194.115c0,0-11.687,19.607,0,19.607C110.66,213.722,121.23,214.703,110.66,194.115z"/>
					<path fill="#D668A8" d="M110.412,201.424c0,0,7.361-21.604,14.934-12.705C125.346,188.719,132.945,196.135,110.412,201.424z"/>
					<path fill="#D668A8" d="M110.562,202.222c0,0-21.568-7.465-12.632-14.996C97.93,187.227,105.383,179.664,110.562,202.222z"/>
					<path fill="#D668A8" d="M110.412,193.797c0,0,7.361,21.606,14.934,12.705C125.346,206.502,132.945,199.087,110.412,193.797z"/>
					<path fill="#D668A8" d="M110.008,193.117c0,0-21.57,7.466-12.634,14.996C97.374,208.113,104.827,215.677,110.008,193.117z"/>
				</g>
				<g>
					<path fill="#D668A8" d="M147.223,178.981c0,0-11.686-19.606,0-19.606C147.223,159.374,157.797,158.392,147.223,178.981z"/>
					<path fill="#D668A8" d="M146.667,171.871c0,0-11.685,19.605,0,19.605C146.667,191.478,157.239,192.459,146.667,171.871z"/>
					<path fill="#D668A8" d="M146.42,179.182c0,0,7.361-21.606,14.933-12.707C161.354,166.475,168.953,173.892,146.42,179.182z"/>
					<path fill="#D668A8" d="M146.571,179.979c0,0-21.569-7.465-12.634-14.996C133.938,164.983,141.392,157.421,146.571,179.979z"/>
					<path fill="#D668A8" d="M146.42,171.552c0,0,7.361,21.606,14.933,12.705C161.354,184.258,168.953,176.843,146.42,171.552z"/>
					<path fill="#D668A8" d="M146.016,170.874c0,0-21.569,7.465-12.633,14.994C133.383,185.868,140.834,193.433,146.016,170.874z"/>
				</g>
				<g>
					<path fill="#D668A8" d="M186.973,190.124c0,0-11.686-19.606,0-19.606C186.973,170.517,197.546,169.534,186.973,190.124z"/>
					<path fill="#D668A8" d="M186.417,183.013c0,0-11.686,19.607,0,19.607C186.417,202.621,196.988,203.603,186.417,183.013z"/>
					<path fill="#D668A8" d="M186.171,190.324c0,0,7.36-21.607,14.933-12.707C201.104,177.617,208.702,185.035,186.171,190.324z"/>
					<path fill="#D668A8" d="M186.321,191.119c0,0-21.569-7.464-12.633-14.992C173.688,176.127,181.142,168.562,186.321,191.119z"/>
					<path fill="#D668A8" d="M186.171,182.697c0,0,7.36,21.605,14.933,12.704C201.104,195.401,208.702,187.984,186.171,182.697z"/>
					<path fill="#D668A8" d="M185.766,182.017c0,0-21.57,7.466-12.633,14.996C173.133,197.013,180.585,204.575,185.766,182.017z"/>
				</g>
				<g>
					<path fill="#D668A8" d="M232.438,190.643c0,0-11.686-19.607,0-19.607C232.438,171.035,243.012,170.053,232.438,190.643z"/>
					<path fill="#D668A8" d="M231.883,183.532c0,0-11.687,19.607,0,19.607C231.883,203.14,242.454,204.121,231.883,183.532z"/>
					<path fill="#D668A8" d="M231.635,190.843c0,0,7.361-21.606,14.934-12.706C246.568,178.137,254.167,185.554,231.635,190.843z"/>
					<path fill="#D668A8" d="M231.786,191.638c0,0-21.569-7.464-12.634-14.993C219.152,176.645,226.605,169.081,231.786,191.638z"/>
					<path fill="#D668A8" d="M231.635,183.215c0,0,7.361,21.605,14.934,12.704C246.568,195.919,254.167,188.503,231.635,183.215z"/>
					<path fill="#D668A8" d="M231.229,182.536c0,0-21.569,7.466-12.633,14.995C218.597,197.531,226.049,205.094,231.229,182.536z"/>
				</g>
			</g>
		</g>
	</g>
</g>
</svg>
