<?xml version="1.0" encoding="utf-8"?>
<!-- Generator: Adobe Illustrator 15.1.0, SVG Export Plug-In  -->
<!DOCTYPE svg PUBLIC "-//W3C//DTD SVG 1.1//EN" "http://www.w3.org/Graphics/SVG/1.1/DTD/svg11.dtd" [
	<!ENTITY ns_flows "http://ns.adobe.com/Flows/1.0/">
]>
<svg version="1.1"
	 xmlns="http://www.w3.org/2000/svg" xmlns:xlink="http://www.w3.org/1999/xlink" xmlns:a="http://ns.adobe.com/AdobeSVGViewerExtensions/3.0/"
	 x="0px" y="0px" width="727px" height="904px" viewBox="-21.088 -22.904 727 904"
	 overflow="visible" enable-background="new -21.088 -22.904 727 904" xml:space="preserve">
<defs>
</defs>
<ellipse opacity="0.61" fill="#6B6B6A" cx="343.646" cy="833.488" rx="342.17" ry="28.363"/>
<path fill="#FAF06C" d="M0,266.644v433.671h25.712V230.989C25.712,230.989,16.663,269.093,0,266.644z"/>
<polygon fill="#684E1E" points="46.221,824.718 18.386,824.718 5.199,672.367 46.221,672.367 "/>
<polygon fill="#684E1E" points="639.587,833.488 667.422,833.488 680.609,681.14 639.587,681.14 "/>
<path fill="#9F6627" d="M43.953,0v178.739c0,0-20.511,96.698-43.953,87.904v433.671h679.803l20.512-433.671
	c0,0-49.812-38.09-29.299-102.553L656.361,0H43.953z"/>
<rect x="152.443" fill="#FAF06C" width="29.301" height="382.379"/>
<rect x="211.047" fill="#FAF06C" width="29.301" height="382.379"/>
<rect x="328.253" fill="#FAF06C" width="29.304" height="382.379"/>
<rect x="386.855" fill="#FAF06C" width="29.306" height="382.379"/>
<rect x="445.461" fill="#FAF06C" width="29.301" height="382.379"/>
<rect x="501.135" fill="#FAF06C" width="29.303" height="382.379"/>
<polygon fill="#FAF06C" points="589.559,224.043 564.628,269.758 560.258,0 589.559,0 "/>
<polygon fill="#FAF06C" points="78.239,195.717 43.953,170.492 43.953,0 78.239,0 "/>
<path fill="#FAF06C" d="M43.953,178.739v521.575h34.286V191.19c0,0-20.188-17.705-34.286-20.698V178.739z"/>
<rect x="152.443" y="582.365" fill="#FAF06C" width="29.301" height="117.949"/>
<rect x="95.25" y="586.037" fill="#FAF06C" width="29.305" height="117.948"/>
<rect x="211.047" y="582.365" fill="#FAF06C" width="29.301" height="117.949"/>
<rect x="269.65" y="583.107" fill="#FAF06C" width="29.302" height="117.947"/>
<rect x="328.253" y="583.107" fill="#FAF06C" width="29.304" height="117.947"/>
<rect x="386.855" y="583.107" fill="#FAF06C" width="29.306" height="117.947"/>
<rect x="445.461" y="583.107" fill="#FAF06C" width="29.301" height="117.947"/>
<rect x="504.065" y="583.107" fill="#FAF06C" width="29.302" height="117.947"/>
<rect x="563.186" y="198.456" fill="#FAF06C" width="26.373" height="501.858"/>
<rect x="625.965" fill="#FAF06C" width="31.202" height="700.314"/>
<g>
	<path fill="#6B180F" d="M666.431,186.545c-2.695,0.271-5.35,0.804-7.973,1.426c-2.625,0.615-5.219,1.347-7.773,2.188
		c-5.108,1.68-10.085,3.719-14.859,6.145c-9.579,4.789-18.38,10.995-26.226,18.188c-7.811,7.24-14.732,15.415-20.58,24.317
		c-5.894,8.87-10.85,18.368-14.916,28.243c-4.148,9.846-7.431,20.064-10.09,30.449c-2.723,10.375-4.686,20.951-6.303,31.589
		c-3.129,21.304-4.369,42.906-4.794,64.569c-1.655-21.606-1.511-43.421,0.925-65.072c1.173-10.83,3.076-21.592,5.578-32.229
		c2.57-10.621,5.889-21.087,10.072-31.229c4.265-10.102,9.386-19.888,15.615-28.963c6.264-9.036,13.522-17.445,21.911-24.581
		c8.335-7.185,17.729-13.125,27.774-17.494c5.035-2.152,10.215-3.953,15.512-5.258C655.598,187.54,661.004,186.625,666.431,186.545z
		"/>
</g>
<rect x="93.395" y="465.897" fill="#FAF06C" width="31.336" height="120.14"/>
<rect x="152.959" y="465.897" fill="#FAF06C" width="25.791" height="120.14"/>
<rect x="209.732" y="465.897" fill="#FAF06C" width="30.615" height="120.14"/>
<rect x="269.441" y="465.897" fill="#FAF06C" width="29.375" height="120.14"/>
<rect x="328.216" y="465.897" fill="#FAF06C" width="29.376" height="120.14"/>
<rect x="386.992" y="465.897" fill="#FAF06C" width="29.375" height="120.14"/>
<rect x="445.767" y="465.897" fill="#FAF06C" width="29.378" height="120.14"/>
<rect x="504.541" y="465.897" fill="#FAF06C" width="29.378" height="120.14"/>
<rect x="269.441" fill="#FAF06C" width="29.511" height="377.994"/>
<rect x="95.25" fill="#FAF06C" width="35.514" height="435.402"/>
<g>
	<path fill="#6B180F" d="M44.298,170.527c-0.081-0.011-0.163-0.021-0.243-0.021c-0.035-0.001-0.096,0.01-0.08,0.023
		c0.014,0.026,0.048,0.055,0.08,0.077c0.131,0.094,0.275,0.172,0.418,0.251l0.869,0.46l1.745,0.912
		c1.161,0.616,2.313,1.252,3.455,1.909c2.274,1.327,4.498,2.745,6.679,4.23c4.361,2.974,8.501,6.276,12.471,9.773
		c7.894,7.051,15.008,14.992,21.256,23.563c6.305,8.538,11.674,17.741,16.379,27.244c4.66,9.532,8.521,19.436,11.773,29.515
		c3.17,10.108,5.718,20.398,7.67,30.787c1.883,10.4,3.319,20.875,4.107,31.394c1.676,21.027,1.359,42.151-0.706,63.049
		c-0.015-20.996-0.794-41.935-3.178-62.671c-1.239-10.358-2.745-20.677-4.87-30.866c-2.062-10.198-4.602-20.295-7.785-30.179
		c-3.098-9.91-6.861-19.603-11.268-28.987c-4.361-9.41-9.512-18.439-15.299-27.045c-5.839-8.567-12.387-16.681-19.755-24.027
		c-3.66-3.697-7.549-7.173-11.616-10.442c-2.032-1.636-4.122-3.204-6.264-4.706c-1.066-0.758-2.146-1.496-3.241-2.218l-1.648-1.073
		l-0.824-0.542c-0.136-0.094-0.272-0.185-0.398-0.295c-0.03-0.029-0.063-0.055-0.084-0.103c0.006-0.087,0.084-0.051,0.114-0.058
		C44.138,170.49,44.218,170.509,44.298,170.527z"/>
</g>
<polygon fill="#3D2912" points="136.042,377.994 78.239,465.897 589.559,465.897 548.06,377.994 "/>
<rect x="78.239" y="465.897" fill="#89431E" width="508.389" height="120.14"/>
</svg>
