<?xml version="1.0" encoding="utf-8"?>
<!-- Generator: Adobe Illustrator 15.1.0, SVG Export Plug-In . SVG Version: 6.00 Build 0)  -->
<!DOCTYPE svg PUBLIC "-//W3C//DTD SVG 1.1//EN" "http://www.w3.org/Graphics/SVG/1.1/DTD/svg11.dtd">
<svg version="1.1" id="Layer_1" xmlns="http://www.w3.org/2000/svg" xmlns:xlink="http://www.w3.org/1999/xlink" x="0px" y="0px"
	 width="240.618px" height="284.749px" viewBox="20.278 0 240.618 284.749" enable-background="new 20.278 0 240.618 284.749"
	 xml:space="preserve">
<path fill="#F6DFCA" d="M182.4,70.713c0,30.914,10.432,39.371-46.56,39.371c-45.924,0-46.56-5.212-46.56-39.371
	c0-29.458,10.898-34.812,44.702-34.812C175.888,35.901,182.4,45.487,182.4,70.713z"/>
<g>
	<path fill="#2D2E2D" d="M145.672,81.11c0.415-1.142,1.024-2.21,1.725-3.212c0.711-0.994,1.537-1.917,2.484-2.711
		c0.94-0.801,2.007-1.46,3.147-1.956c1.144-0.492,2.365-0.799,3.602-0.933c1.238-0.122,2.487-0.072,3.707,0.122
		c1.219,0.203,2.412,0.524,3.557,0.962c2.294,0.865,4.418,2.101,6.362,3.545c-2.111-1.187-4.28-2.258-6.552-3.001
		c-1.137-0.363-2.294-0.66-3.469-0.814c-1.172-0.166-2.359-0.206-3.528-0.08c-2.343,0.222-4.59,1.154-6.465,2.602
		c-0.938,0.724-1.795,1.562-2.558,2.484C146.918,79.039,146.234,80.037,145.672,81.11z"/>
</g>
<g>
	<path fill="#2D2E2D" d="M163.866,73.746c1.125-0.141,2.217-0.402,3.221-0.821c0.998-0.428,1.905-1.041,2.517-1.89
		c0.623-0.839,0.95-1.88,1.047-2.961c0.101-1.086,0.003-2.204-0.136-3.333c0.436,1.05,0.707,2.185,0.711,3.358
		c0.009,0.586-0.074,1.178-0.234,1.755c-0.167,0.576-0.433,1.132-0.794,1.619c-0.366,0.485-0.812,0.905-1.31,1.236
		c-0.502,0.325-1.042,0.582-1.603,0.753C166.169,73.81,164.995,73.911,163.866,73.746z"/>
</g>
<g>
	<path fill="#2D2E2D" d="M168.242,75.855c1.128,0.087,2.247,0.056,3.313-0.151c1.06-0.213,2.071-0.628,2.837-1.334
		c0.775-0.696,1.294-1.651,1.594-2.692c0.306-1.043,0.421-2.158,0.498-3.289c0.229,1.111,0.281,2.274,0.062,3.423
		c-0.103,0.576-0.297,1.141-0.565,1.676c-0.273,0.532-0.644,1.023-1.094,1.429c-0.455,0.402-0.976,0.724-1.53,0.946
		c-0.557,0.216-1.135,0.357-1.718,0.409C170.479,76.383,169.312,76.242,168.242,75.855z"/>
</g>
<path fill="none" stroke="#F6B67E" stroke-miterlimit="10" d="M135.895,78.67c0,0-0.392,1.334-4.693,4.186c0,0,0,4.025,4.693,3.634"
	/>
<path fill="#2D2E2D" d="M147.788,25.479c0,0-62.478-14.91-60.49,46.438c0,0,4.19-2.148,11.331-4.478l5.58-20.336l5.443,17.328
	c5.411-1.202,11.603-2.18,18.35-2.573l7.312-19.187l10.178,19.593c4.051,0.435,8.208,1.126,12.438,2.134l-2.248-21.727
	l12.372,24.729c5.547,1.978,11.165,4.549,16.776,7.84C184.829,75.239,191.386,25.427,147.788,25.479z"/>
<line fill="none" x1="98.629" y1="67.438" x2="98.53" y2="67.799"/>
<polygon opacity="0.67" fill="#F5CFAF" enable-background="new    " points="89.238,76.077 101.874,67.438 104.208,47.193 
	98.629,67.438 89.281,70.713 "/>
<g>
	<path fill="#2D2E2D" d="M125.739,81.036c-0.582-1.062-1.284-2.047-2.065-2.953c-0.778-0.909-1.651-1.731-2.602-2.438
		c-1.901-1.414-4.165-2.306-6.511-2.485c-1.171-0.104-2.357-0.043-3.526,0.143c-1.172,0.177-2.323,0.494-3.453,0.877
		c-2.259,0.784-4.409,1.896-6.498,3.121c1.917-1.48,4.018-2.755,6.297-3.662c1.136-0.458,2.323-0.801,3.538-1.027
		c1.216-0.215,2.464-0.288,3.704-0.188c1.238,0.11,2.466,0.396,3.618,0.867c1.149,0.477,2.228,1.115,3.183,1.899
		c0.961,0.776,1.804,1.684,2.533,2.666C124.674,78.845,125.304,79.902,125.739,81.036z"/>
</g>
<g>
	<path fill="#2D2E2D" d="M107.414,74.005c-1.125,0.186-2.301,0.105-3.424-0.221c-0.564-0.16-1.107-0.409-1.615-0.725
		c-0.505-0.321-0.959-0.734-1.333-1.212c-0.369-0.481-0.647-1.031-0.824-1.604c-0.171-0.575-0.264-1.166-0.267-1.751
		c-0.018-1.173,0.233-2.313,0.65-3.371c-0.118,1.13-0.195,2.25-0.075,3.334c0.117,1.081,0.463,2.114,1.102,2.942
		c0.628,0.837,1.546,1.434,2.551,1.843C105.191,73.644,106.287,73.885,107.414,74.005z"/>
</g>
<g>
	<path fill="#2D2E2D" d="M102.427,76.357c-1.011,0.422-2.134,0.597-3.26,0.5c-0.563-0.045-1.125-0.186-1.661-0.407
		c-0.533-0.228-1.028-0.561-1.447-0.97c-0.416-0.414-0.748-0.904-0.988-1.427c-0.234-0.524-0.403-1.071-0.49-1.625
		c-0.185-1.106-0.133-2.221,0.08-3.292c0.094,1.087,0.208,2.159,0.484,3.169c0.273,1.008,0.729,1.95,1.435,2.652
		c0.698,0.711,1.652,1.134,2.667,1.332C100.268,76.481,101.345,76.482,102.427,76.357z"/>
</g>
<path fill="#F5CFAF" d="M182.471,75.239c0,0,0.472,28.819-24.508,34.168c0,0,25.637,1.863,25.187-17.085L182.471,75.239z"/>
<path fill="#F6DFCA" d="M169.521,215.072c1.54-23.803-1.691-43.289-12.206-43.739c-5.453-0.233-3.536,19.198-5.076,43
	c-1.542,23.803-5.958,42.962-0.503,43.196C157.189,257.762,167.98,238.874,169.521,215.072z"/>
<path fill="#F5CFAF" d="M157.314,171.333c0,0-2.63,68.294-5.579,86.196c0,0-7.128-0.479,0.395-41.622l0.902-23.588
	C153.033,192.319,154.325,170.618,157.314,171.333z"/>
<path fill="#F6DFCA" d="M120.297,215.071c-1.541-23.802,1.69-43.289,12.207-43.739c5.453-0.232,3.536,19.198,5.076,43
	c1.541,23.802,5.957,42.963,0.503,43.196C132.628,257.761,121.837,238.874,120.297,215.071z"/>
<path fill="#F5CFAF" d="M132.503,171.332c0,0,2.629,68.294,5.579,86.196c0,0,7.129-0.479-0.396-41.622l-0.902-23.588
	C136.784,192.319,135.492,170.616,132.503,171.332z"/>
<g>
	<g>
		<defs>
			<path id="SVGID_1_" d="M110.104,125.244l-4.6,81.327c0,0,40.63,25.086,78.809,0.591l-14.914-84.789l-0.675-11.276l-57.938,2.1
				L110.104,125.244z"/>
		</defs>
		<clipPath id="SVGID_2_">
			<use xlink:href="#SVGID_1_"  overflow="visible"/>
		</clipPath>
		<g clip-path="url(#SVGID_2_)">
			<path fill="#952A1F" d="M110.323,124.662l-4.6,81.326c0,0,40.631,25.085,78.811,0.591l-14.258-84.791l-0.677-11.275l-58.595,2.1
				L110.323,124.662z"/>
			<path fill="#42AC49" d="M119.484,201.83c0,0,5.092-4.396,8.977,0.304C128.461,202.135,125.298,205.766,119.484,201.83z"/>
			<path fill="#42AC49" d="M112.38,189.07c0,0,6.305-1.889,8.131,4.071C120.513,193.14,116.263,195.141,112.38,189.07z"/>
			<g>
				<path fill="#E36A95" d="M125.05,187.712c0.631,0.488-4.109-3.466-6.489,1.151c0,0-0.673,1.9,0.977,5.883
					c0,0-1.251-6.621,2.188-6.086c0,0,0.812-1.02,2.154-0.127C123.88,188.532,125.545,187.769,125.05,187.712z"/>
				<path fill="#E36A95" stroke="#FAD1DE" stroke-miterlimit="10" d="M118.467,189.273c0,0-0.079,4.381,0.797,5.33
					c0,0-1.768-2.335-1.872-4.14C117.393,190.464,117.798,189.34,118.467,189.273z"/>
				<path fill="#FAD1DE" d="M117.327,190.802c0,0-0.627,5.042,5.817,6.203c1.806,0.176,1.806,0.151,2.96-0.152
					c0,0-1.548,1.977-2.041,1.92c0,0,2.802-0.889,3.845-4.436l-0.211-1.773c0,0,0.141-2.019-0.191-3.173c0,0,0.07,6.653-3.51,3.755
					c0,0,2.037,0.183,2.167-1.786c0.061-0.669,0.131-1.75-1.5-1.661c0,0-0.335-1.121-0.354-1.016
					c-0.02,0.102,0.791-0.677,1.19-0.913c0,0-1.194,0.155-1.499,0.681c0,0-1.429-1.269-2.183,0.009
					c0.445,0.054-2.576-0.521-2.275,1.863c0,0-0.48,2.213-0.101,3.378c0.308,0.946-1.062-3.324-0.808-3.903
					c0,0-0.33,3.693,0.606,4.938C119.24,194.734,117.675,192.389,117.327,190.802z"/>
				<path fill="#E36A95" d="M122.568,191.917c0,0-1.834-2.782,0.198-3.354c0,0,1.052-0.217,1.273,1.245
					C124.039,189.806,122.438,191.027,122.568,191.917z"/>
				<path fill="#E36A95" d="M124.379,189.882c0,0,0.106-0.805-0.146-1.063c0,0,1.658-2.552,3.273,0.057c0,0,0.34,6.223-2.46,4.9
					c0,0-0.908-0.323-0.972-0.769c0,0,2.223,0.264,2.111-2.02C126.185,190.987,126.215,189.795,124.379,189.882z"/>
				<path fill="#E36A95" d="M121.375,189.215c0,0-0.179,2.999,1.978,4.122c0,0-3.885-1.591-3.1-3.806
					C120.253,189.531,120.902,188.997,121.375,189.215z"/>
				<path fill="#E36A95" d="M124.347,191.329c0,0,0.065,0.944-0.244,1.253c0,0,0.945,0.353,1.048-0.694
					C125.15,191.887,125.122,191.221,124.347,191.329z"/>
				<path fill="#E36A95" d="M123.781,191.135c0,0,0.355,2.127-0.851,1.194c0,0,0.604-2.79,2.518-1.93c0,0,0.584,0.306,0.238,1.342
					C125.685,191.74,124.632,189.941,123.781,191.135z"/>
				<path fill="#E36A95" d="M119.776,190.936c0,0-0.006,0.146-0.01,0.386c-0.02,1.051,0.012,3.912,0.871,4.323
					c0,0,4.354,1.72,5.805,0.371c0,0,1.48-1.494,0.811-2.728c0,0-1.222,2.266-4.563,0.276
					C122.689,193.565,120.328,192.263,119.776,190.936z"/>
				<path fill="#E36A95" d="M127.545,189.385l0.03,1.803c0,0,2.19,2.435,1.438,6.046
					C129.014,197.233,132.812,193.274,127.545,189.385z"/>
				<path fill="#E36A95" d="M128.035,189.684c0,0,4.086,2.687,0.684,7.708C128.718,197.391,133.341,193.776,128.035,189.684z"/>
				<path fill="#FAD1DE" d="M128.837,197.635c0,0,3.606-4.619-0.979-8.011l0,0c0,0,3.231,1.735,1.155,7.61L128.837,197.635z"/>
				<path fill="#E36A95" d="M117.336,190.757c0,0-2.272,4.405,1.156,6.785c0,0,3.42,2.542,5.605,1.245c0,0,1.817-1.215,1.911-2.22
					c0,0-3.508,1.417-7.465-1.882C118.542,194.684,116.934,192.825,117.336,190.757z"/>
				<path fill="#E36A95" d="M127.575,191.188l-0.015,0.881c0,0,0.839,3.081-0.829,4.417c0,0-2.015,2.379-2.902,2.226
					c0,0,3.588,2.565,5.184-1.479C129.014,197.233,130.059,192.516,127.575,191.188z"/>
			</g>
			<g>
				<path fill="#D070AC" d="M112.938,194.498c0.821,0.012-5.508-0.336-4.948,5.185c0,0,0.498,2.075,4.176,4.443
					c0,0-4.829-4.904-1.559-6.664c0,0,0.123-1.404,1.786-1.503C112.394,195.96,113.396,194.225,112.938,194.498z"/>
				<path fill="#D070AC" d="M108.145,200.096c0,0,2.413,3.83,3.707,4.084c0,0-2.848-0.872-3.959-2.362
					C107.892,201.819,107.604,200.587,108.145,200.096z"/>
				<path fill="#FAD1DE" d="M108.027,202.152c0,0,2.314,4.754,8.532,1.591c1.657-1.014,1.643-1.035,2.467-2.045
					c0,0-0.215,2.707-0.672,2.978c0,0,1.913-2.576,0.804-6.309l-1.188-1.395c0,0-1.021-1.833-1.961-2.613c0,0,3.831,5.695-0.9,5.506
					c0,0,1.859-1.159,0.857-2.94c-0.328-0.617-0.879-1.595-2.233-0.464c0,0-0.924-0.752-0.883-0.648
					c0.041,0.102,0.299-1.094,0.511-1.555c0,0-0.942,0.905-0.908,1.557c0,0-1.951-0.173-1.878,1.417
					c0.415-0.241-2.518,1.217-0.907,3.076c0,0,0.839,2.22,1.825,2.98c0.803,0.616-2.799-2.183-2.906-2.847
					c0,0,1.806,3.4,3.318,3.869C111.903,204.308,109.227,203.297,108.027,202.152z"/>
				<path fill="#D070AC" d="M113.18,199.728c0,0-3.157-1.213-1.729-3.021c0,0,0.785-0.868,1.804,0.25
					C113.254,196.956,112.562,199.042,113.18,199.728z"/>
				<path fill="#D070AC" d="M113.588,196.803c0,0-0.364-0.765-0.728-0.823c0,0-0.015-3.274,2.855-2.067c0,0,3.818,5.15,0.654,5.817
					c0,0-0.965,0.309-1.274-0.036c0,0,2.066-1.207,0.676-3.105C115.772,196.589,115.123,195.54,113.588,196.803z"/>
				<path fill="#D070AC" d="M110.621,198.169c0,0,1.543,2.699,4.039,2.276c0,0-4.251,1.138-4.83-1.281
					C109.829,199.164,110.089,198.285,110.621,198.169z"/>
				<path fill="#D070AC" d="M114.381,198.072c0,0,0.591,0.772,0.499,1.238c0,0,1.017-0.306,0.51-1.276
					C115.39,198.034,114.989,197.477,114.381,198.072z"/>
				<path fill="#D070AC" d="M113.783,198.27c0,0,1.51,1.604-0.06,1.579c0,0-1.058-2.796,1.08-3.292c0,0,0.678-0.113,0.965,1.003
					C115.768,197.562,113.842,196.69,113.783,198.27z"/>
				<path fill="#D070AC" d="M110.216,200.686c0,0,0.078,0.129,0.21,0.34c0.578,0.918,2.227,3.366,3.2,3.165
					c0,0,4.731-1.327,5.218-3.432c0,0,0.431-2.245-0.847-2.876c0,0,0.23,2.745-3.78,3.187
					C114.217,201.07,111.441,201.474,110.216,200.686z"/>
				<path fill="#D070AC" d="M116.04,194.327l1.046,1.537c0,0,3.27,0.686,4.665,4.287
					C121.751,200.151,122.786,194.279,116.04,194.327z"/>
				<path fill="#D070AC" d="M116.63,194.269c0,0,5.048-0.32,4.957,6.207C121.587,200.476,123.528,194.372,116.63,194.269z"/>
				<path fill="#FAD1DE" d="M121.827,200.609c0,0,0.494-6.312-5.382-6.277l0,0c0,0,3.769-0.59,5.307,5.819L121.827,200.609z"/>
				<path fill="#D070AC" d="M108.009,202.107c0,0,0.536,5.269,4.841,5.108c0,0,4.39-0.017,5.542-2.549c0,0,0.878-2.222,0.391-3.149
					c0,0-2.226,3.489-7.508,3.199C111.274,204.716,108.834,204.153,108.009,202.107z"/>
				<path fill="#D070AC" d="M117.086,195.864l0.485,0.77c0,0,2.472,2.116,1.789,4.344c0,0-0.391,3.355-1.244,3.797
					c0,0,4.55-0.104,3.635-4.624C121.751,200.151,119.982,195.406,117.086,195.864z"/>
			</g>
			<g>
				<path fill="#42AC49" d="M118.708,141.661c0,0,5.091-4.397,8.978,0.304C127.686,141.965,124.522,145.596,118.708,141.661z"/>
				<path fill="#42AC49" d="M111.604,128.9c0,0,6.304-1.888,8.132,4.071C119.736,132.97,115.487,134.969,111.604,128.9z"/>
				<g>
					<path fill="#E36A95" d="M124.274,127.541c0.631,0.488-4.11-3.467-6.491,1.15c0,0-0.672,1.901,0.978,5.883
						c0,0-1.251-6.62,2.188-6.085c0,0,0.812-1.021,2.154-0.128C123.104,128.361,124.769,127.597,124.274,127.541z"/>
					<path fill="#E36A95" stroke="#FAD1DE" stroke-miterlimit="10" d="M117.693,129.102c0,0-0.08,4.382,0.796,5.331
						c0,0-1.769-2.336-1.873-4.14C116.617,130.294,117.021,129.17,117.693,129.102z"/>
					<path fill="#FAD1DE" d="M116.552,130.631c0,0-0.628,5.042,5.817,6.203c1.806,0.175,1.806,0.15,2.961-0.153
						c0,0-1.547,1.977-2.042,1.921c0,0,2.8-0.89,3.845-4.436l-0.211-1.774c0,0,0.141-2.018-0.192-3.17c0,0,0.07,6.652-3.51,3.754
						c0,0,2.037,0.181,2.168-1.786c0.06-0.671,0.129-1.751-1.5-1.662c0,0-0.334-1.12-0.354-1.016
						c-0.02,0.101,0.791-0.678,1.189-0.912c0,0-1.193,0.155-1.499,0.68c0,0-1.429-1.268-2.183,0.01
						c0.446,0.053-2.577-0.521-2.274,1.863c0,0-0.481,2.212-0.103,3.377c0.31,0.946-1.062-3.325-0.806-3.903
						c0,0-0.331,3.693,0.604,4.938C118.464,134.563,116.898,132.219,116.552,130.631z"/>
					<path fill="#E36A95" d="M121.792,131.748c0,0-1.833-2.782,0.198-3.357c0,0,1.053-0.216,1.274,1.245
						C123.264,129.635,121.662,130.855,121.792,131.748z"/>
					<path fill="#E36A95" d="M123.603,129.712c0,0,0.106-0.806-0.147-1.063c0,0,1.659-2.553,3.274,0.055c0,0,0.34,6.225-2.459,4.901
						c0,0-0.908-0.322-0.973-0.77c0,0,2.222,0.265,2.111-2.02C125.409,130.816,125.439,129.623,123.603,129.712z"/>
					<path fill="#E36A95" d="M120.6,129.045c0,0-0.179,2.997,1.978,4.12c0,0-3.885-1.589-3.1-3.805
						C119.478,129.36,120.126,128.828,120.6,129.045z"/>
					<path fill="#E36A95" d="M123.57,131.16c0,0,0.066,0.943-0.244,1.251c0,0,0.945,0.354,1.048-0.693
						C124.375,131.718,124.345,131.05,123.57,131.16z"/>
					<path fill="#E36A95" d="M123.006,130.964c0,0,0.354,2.127-0.851,1.193c0,0,0.603-2.789,2.517-1.93c0,0,0.584,0.307,0.237,1.342
						C124.909,131.569,123.857,129.77,123.006,130.964z"/>
					<path fill="#E36A95" d="M119.002,130.765c0,0-0.008,0.147-0.012,0.388c-0.019,1.05,0.014,3.911,0.871,4.321
						c0,0,4.354,1.722,5.806,0.371c0,0,1.479-1.493,0.81-2.728c0,0-1.223,2.266-4.564,0.276
						C121.914,133.394,119.551,132.092,119.002,130.765z"/>
					<path fill="#E36A95" d="M126.77,129.214l0.03,1.804c0,0,2.19,2.436,1.437,6.045
						C128.236,137.062,132.036,133.103,126.77,129.214z"/>
					<path fill="#E36A95" d="M127.259,129.512c0,0,4.087,2.689,0.684,7.708C127.942,137.22,132.566,133.606,127.259,129.512z"/>
					<path fill="#FAD1DE" d="M128.062,137.465c0,0,3.604-4.62-0.979-8.012l0,0c0,0,3.23,1.735,1.154,7.61L128.062,137.465z"/>
					<path fill="#E36A95" d="M116.56,130.586c0,0-2.271,4.407,1.155,6.786c0,0,3.421,2.542,5.606,1.245c0,0,1.816-1.216,1.91-2.221
						c0,0-3.509,1.416-7.466-1.882C117.766,134.514,116.156,132.656,116.56,130.586z"/>
					<path fill="#E36A95" d="M126.8,131.017l-0.016,0.881c0,0,0.84,3.083-0.828,4.416c0,0-2.015,2.379-2.903,2.228
						c0,0,3.588,2.566,5.183-1.479C128.236,137.062,129.284,132.346,126.8,131.017z"/>
				</g>
				<g>
					<path fill="#D070AC" d="M112.162,134.326c0.821,0.013-5.508-0.335-4.946,5.185c0,0,0.496,2.076,4.174,4.445
						c0,0-4.828-4.904-1.559-6.664c0,0,0.124-1.403,1.786-1.501C111.618,135.791,112.621,134.054,112.162,134.326z"/>
					<path fill="#D070AC" d="M107.369,139.925c0,0,2.414,3.831,3.707,4.084c0,0-2.849-0.872-3.96-2.362
						C107.117,141.648,106.829,140.416,107.369,139.925z"/>
					<path fill="#FAD1DE" d="M107.25,141.98c0,0,2.315,4.756,8.532,1.594c1.656-1.016,1.644-1.036,2.468-2.044
						c0,0-0.215,2.705-0.673,2.976c0,0,1.912-2.576,0.804-6.309l-1.187-1.396c0,0-1.023-1.831-1.962-2.612
						c0,0,3.829,5.694-0.9,5.506c0,0,1.859-1.158,0.856-2.939c-0.328-0.617-0.879-1.595-2.233-0.465c0,0-0.925-0.75-0.883-0.648
						c0.042,0.103,0.299-1.093,0.51-1.554c0,0-0.942,0.905-0.907,1.554c0,0-1.952-0.17-1.877,1.419
						c0.414-0.243-2.518,1.214-0.908,3.075c0,0,0.839,2.221,1.825,2.98c0.804,0.616-2.799-2.181-2.906-2.846
						c0,0,1.807,3.399,3.319,3.868C111.128,144.137,108.451,143.125,107.25,141.98z"/>
					<path fill="#D070AC" d="M112.404,139.557c0,0-3.158-1.213-1.729-3.022c0,0,0.785-0.867,1.803,0.251
						C112.477,136.786,111.786,138.872,112.404,139.557z"/>
					<path fill="#D070AC" d="M112.812,136.631c0,0-0.364-0.763-0.728-0.822c0,0-0.014-3.275,2.856-2.067
						c0,0,3.818,5.149,0.653,5.816c0,0-0.966,0.31-1.274-0.034c0,0,2.067-1.209,0.677-3.108
						C114.997,136.416,114.347,135.37,112.812,136.631z"/>
					<path fill="#D070AC" d="M109.845,137.997c0,0,1.544,2.702,4.04,2.277c0,0-4.252,1.138-4.831-1.281
						C109.054,138.993,109.313,138.116,109.845,137.997z"/>
					<path fill="#D070AC" d="M113.605,137.902c0,0,0.591,0.771,0.498,1.237c0,0,1.016-0.307,0.512-1.275
						C114.615,137.864,114.212,137.307,113.605,137.902z"/>
					<path fill="#D070AC" d="M113.007,138.097c0,0,1.511,1.605-0.059,1.58c0,0-1.059-2.795,1.08-3.291c0,0,0.677-0.112,0.964,1.005
						C114.992,137.391,113.066,136.519,113.007,138.097z"/>
					<path fill="#D070AC" d="M109.44,140.515c0,0,0.077,0.13,0.209,0.339c0.58,0.918,2.227,3.366,3.2,3.165
						c0,0,4.732-1.326,5.219-3.43c0,0,0.43-2.244-0.846-2.876c0,0,0.229,2.743-3.782,3.187
						C113.44,140.9,110.667,141.303,109.44,140.515z"/>
					<path fill="#D070AC" d="M115.264,134.156l1.046,1.537c0,0,3.269,0.686,4.666,4.287
						C120.976,139.98,122.01,134.11,115.264,134.156z"/>
					<path fill="#D070AC" d="M115.854,134.099c0,0,5.049-0.322,4.957,6.205C120.811,140.304,122.751,134.2,115.854,134.099z"/>
					<path fill="#FAD1DE" d="M121.051,140.438c0,0,0.494-6.312-5.383-6.277l0,0c0,0,3.77-0.59,5.308,5.819L121.051,140.438z"/>
					<path fill="#D070AC" d="M107.232,141.936c0,0,0.536,5.269,4.842,5.107c0,0,4.389-0.017,5.541-2.547c0,0,0.878-2.223,0.391-3.15
						c0,0-2.226,3.488-7.507,3.2C110.498,144.546,108.056,143.982,107.232,141.936z"/>
					<path fill="#D070AC" d="M116.31,135.693l0.487,0.77c0,0,2.47,2.115,1.786,4.345c0,0-0.39,3.355-1.242,3.795
						c0,0,4.549-0.104,3.635-4.622C120.976,139.98,119.207,135.235,116.31,135.693z"/>
				</g>
			</g>
			<g>
				<path fill="#42AC49" d="M162.599,139.079c0,0,5.092-4.397,8.977,0.305C171.576,139.384,168.413,143.017,162.599,139.079z"/>
				<path fill="#42AC49" d="M155.495,126.317c0,0,6.305-1.888,8.133,4.072C163.628,130.389,159.377,132.389,155.495,126.317z"/>
				<g>
					<path fill="#E36A95" d="M168.165,124.96c0.631,0.488-4.109-3.466-6.489,1.15c0,0-0.673,1.901,0.977,5.883
						c0,0-1.251-6.619,2.189-6.085c0,0,0.811-1.02,2.153-0.128C166.995,125.78,168.66,125.015,168.165,124.96z"/>
					<path fill="#E36A95" stroke="#FAD1DE" stroke-miterlimit="10" d="M161.582,126.52c0,0-0.077,4.383,0.798,5.331
						c0,0-1.769-2.334-1.872-4.138C160.508,127.713,160.913,126.588,161.582,126.52z"/>
					<path fill="#FAD1DE" d="M160.441,128.049c0,0-0.626,5.042,5.818,6.202c1.805,0.176,1.806,0.152,2.96-0.151
						c0,0-1.547,1.976-2.042,1.92c0,0,2.802-0.889,3.846-4.435l-0.211-1.773c0,0,0.141-2.021-0.191-3.172c0,0,0.07,6.652-3.51,3.754
						c0,0,2.036,0.181,2.167-1.786c0.061-0.672,0.13-1.751-1.498-1.662c0,0-0.334-1.119-0.355-1.016
						c-0.021,0.103,0.791-0.676,1.191-0.912c0,0-1.195,0.156-1.5,0.68c0,0-1.428-1.269-2.182,0.009
						c0.446,0.052-2.576-0.52-2.274,1.862c0,0-0.481,2.213-0.102,3.377c0.31,0.946-1.061-3.323-0.806-3.902
						c0,0-0.331,3.694,0.606,4.938C162.356,131.982,160.79,129.637,160.441,128.049z"/>
					<path fill="#E36A95" d="M165.684,129.165c0,0-1.835-2.781,0.197-3.356c0,0,1.053-0.216,1.273,1.246
						C167.154,127.055,165.554,128.272,165.684,129.165z"/>
					<path fill="#E36A95" d="M167.494,127.129c0,0,0.106-0.805-0.146-1.063c0,0,1.658-2.553,3.272,0.057c0,0,0.34,6.223-2.458,4.899
						c0,0-0.909-0.32-0.974-0.767c0,0,2.223,0.263,2.112-2.021C169.301,128.235,169.33,127.043,167.494,127.129z"/>
					<path fill="#E36A95" d="M164.49,126.464c0,0-0.18,2.997,1.978,4.121c0,0-3.884-1.589-3.101-3.806
						C163.367,126.779,164.018,126.246,164.49,126.464z"/>
					<path fill="#E36A95" d="M167.461,128.577c0,0,0.066,0.944-0.243,1.252c0,0,0.945,0.354,1.048-0.693
						C168.266,129.135,168.236,128.469,167.461,128.577z"/>
					<path fill="#E36A95" d="M166.896,128.383c0,0,0.354,2.125-0.852,1.192c0,0,0.604-2.788,2.519-1.929
						c0,0,0.582,0.307,0.236,1.342C168.8,128.988,167.748,127.191,166.896,128.383z"/>
					<path fill="#E36A95" d="M162.892,128.185c0,0-0.006,0.146-0.01,0.387c-0.019,1.05,0.013,3.912,0.871,4.321
						c0,0,4.354,1.723,5.806,0.371c0,0,1.479-1.494,0.81-2.726c0,0-1.223,2.264-4.564,0.274
						C165.804,130.811,163.442,129.511,162.892,128.185z"/>
					<path fill="#E36A95" d="M170.661,126.633l0.029,1.802c0,0,2.191,2.435,1.438,6.046
						C172.127,134.481,175.927,130.521,170.661,126.633z"/>
					<path fill="#E36A95" d="M171.149,126.932c0,0,4.086,2.688,0.685,7.707C171.834,134.639,176.457,131.023,171.149,126.932z"/>
					<path fill="#FAD1DE" d="M171.953,134.884c0,0,3.605-4.62-0.98-8.012l0,0c0,0,3.231,1.734,1.155,7.609L171.953,134.884z"/>
					<path fill="#E36A95" d="M160.451,128.004c0,0-2.273,4.406,1.157,6.787c0,0,3.419,2.54,5.605,1.245c0,0,1.815-1.215,1.912-2.22
						c0,0-3.511,1.415-7.468-1.883C161.657,131.933,160.048,130.074,160.451,128.004z"/>
					<path fill="#E36A95" d="M170.69,128.435l-0.015,0.88c0,0,0.839,3.082-0.828,4.417c0,0-2.015,2.379-2.903,2.226
						c0,0,3.587,2.567,5.183-1.478C172.127,134.481,173.175,129.765,170.69,128.435z"/>
				</g>
				<g>
					<path fill="#D070AC" d="M156.054,131.744c0.821,0.013-5.508-0.336-4.947,5.186c0,0,0.495,2.075,4.176,4.442
						c0,0-4.829-4.902-1.56-6.663c0,0,0.124-1.404,1.786-1.502C155.509,133.208,156.512,131.474,156.054,131.744z"/>
					<path fill="#D070AC" d="M151.26,137.344c0,0,2.413,3.831,3.708,4.084c0,0-2.85-0.872-3.961-2.362
						C151.007,139.066,150.72,137.836,151.26,137.344z"/>
					<path fill="#FAD1DE" d="M151.142,139.4c0,0,2.313,4.754,8.531,1.59c1.658-1.015,1.643-1.036,2.468-2.042
						c0,0-0.215,2.705-0.673,2.976c0,0,1.914-2.577,0.806-6.311l-1.188-1.394c0,0-1.022-1.833-1.961-2.613
						c0,0,3.829,5.695-0.9,5.506c0,0,1.859-1.159,0.857-2.94c-0.328-0.617-0.88-1.595-2.234-0.465c0,0-0.924-0.75-0.883-0.646
						c0.041,0.102,0.299-1.094,0.511-1.556c0,0-0.943,0.905-0.908,1.556c0,0-1.952-0.172-1.878,1.417
						c0.415-0.241-2.517,1.216-0.907,3.077c0,0,0.839,2.218,1.826,2.979c0.805,0.615-2.798-2.183-2.907-2.847
						c0,0,1.807,3.401,3.319,3.868C155.02,141.554,152.34,140.544,151.142,139.4z"/>
					<path fill="#D070AC" d="M156.295,136.975c0,0-3.159-1.214-1.729-3.022c0,0,0.785-0.867,1.803,0.252
						C156.369,134.205,155.678,136.291,156.295,136.975z"/>
					<path fill="#D070AC" d="M156.704,134.052c0,0-0.365-0.764-0.729-0.825c0,0-0.015-3.273,2.857-2.065
						c0,0,3.818,5.148,0.653,5.816c0,0-0.965,0.309-1.274-0.035c0,0,2.066-1.209,0.676-3.107
						C158.888,133.835,158.238,132.788,156.704,134.052z"/>
					<path fill="#D070AC" d="M153.734,135.414c0,0,1.544,2.704,4.041,2.279c0,0-4.252,1.139-4.83-1.28
						C152.945,136.413,153.204,135.533,153.734,135.414z"/>
					<path fill="#D070AC" d="M157.495,135.32c0,0,0.593,0.772,0.501,1.238c0,0,1.015-0.307,0.511-1.275
						C158.507,135.282,158.104,134.725,157.495,135.32z"/>
					<path fill="#D070AC" d="M156.898,135.516c0,0,1.51,1.605-0.059,1.582c0,0-1.06-2.798,1.078-3.293c0,0,0.677-0.114,0.965,1.003
						C158.883,134.808,156.956,133.938,156.898,135.516z"/>
					<path fill="#D070AC" d="M153.331,137.932c0,0,0.078,0.131,0.21,0.341c0.579,0.918,2.227,3.366,3.2,3.165
						c0,0,4.73-1.326,5.219-3.43c0,0,0.429-2.245-0.847-2.876c0,0,0.23,2.743-3.78,3.187
						C157.332,138.318,154.558,138.722,153.331,137.932z"/>
					<path fill="#D070AC" d="M159.154,131.576l1.046,1.536c0,0,3.27,0.686,4.666,4.286
						C164.866,137.398,165.9,131.529,159.154,131.576z"/>
					<path fill="#D070AC" d="M159.746,131.517c0,0,5.048-0.321,4.956,6.206C164.701,137.723,166.643,131.619,159.746,131.517z"/>
					<path fill="#FAD1DE" d="M164.941,137.859c0,0,0.495-6.314-5.381-6.279l0,0c0,0,3.769-0.592,5.306,5.818L164.941,137.859z"/>
					<path fill="#D070AC" d="M151.124,139.354c0,0,0.535,5.27,4.839,5.108c0,0,4.39-0.018,5.542-2.549c0,0,0.879-2.222,0.391-3.15
						c0,0-2.226,3.489-7.507,3.201C154.39,141.965,151.949,141.399,151.124,139.354z"/>
					<path fill="#D070AC" d="M160.2,133.112l0.487,0.77c0,0,2.47,2.116,1.787,4.345c0,0-0.39,3.356-1.242,3.795
						c0,0,4.548-0.103,3.634-4.624C164.866,137.398,163.097,132.654,160.2,133.112z"/>
				</g>
			</g>
			<g>
				<path fill="#42AC49" d="M140.291,154.62c0,0,5.092-4.398,8.978,0.305C149.269,154.925,146.105,158.556,140.291,154.62z"/>
				<path fill="#42AC49" d="M133.187,141.858c0,0,6.305-1.888,8.132,4.072C141.318,145.93,137.069,147.929,133.187,141.858z"/>
				<g>
					<path fill="#E36A95" d="M145.856,140.5c0.632,0.487-4.108-3.466-6.49,1.151c0,0-0.673,1.9,0.977,5.883
						c0,0-1.25-6.62,2.189-6.085c0,0,0.811-1.021,2.154-0.129C144.687,141.32,146.351,140.556,145.856,140.5z"/>
					<path fill="#E36A95" stroke="#FAD1DE" stroke-miterlimit="10" d="M139.274,142.062c0,0-0.08,4.381,0.797,5.331
						c0,0-1.769-2.336-1.872-4.14C138.199,143.254,138.604,142.13,139.274,142.062z"/>
					<path fill="#FAD1DE" d="M138.134,143.589c0,0-0.628,5.042,5.817,6.203c1.806,0.175,1.806,0.15,2.96-0.154
						c0,0-1.548,1.978-2.042,1.922c0,0,2.8-0.889,3.844-4.435l-0.21-1.775c0,0,0.141-2.017-0.192-3.171c0,0,0.071,6.653-3.509,3.752
						c0,0,2.036,0.183,2.167-1.784c0.062-0.67,0.13-1.751-1.5-1.661c0,0-0.334-1.12-0.354-1.017c-0.02,0.102,0.791-0.677,1.19-0.913
						c0,0-1.194,0.156-1.499,0.681c0,0-1.428-1.269-2.183,0.009c0.446,0.053-2.576-0.521-2.274,1.862c0,0-0.481,2.213-0.102,3.377
						c0.31,0.946-1.062-3.323-0.807-3.903c0,0-0.331,3.694,0.606,4.937C140.047,147.521,138.481,145.177,138.134,143.589z"/>
					<path fill="#E36A95" d="M143.375,144.706c0,0-1.834-2.781,0.198-3.355c0,0,1.053-0.216,1.274,1.244
						C144.847,142.594,143.244,143.814,143.375,144.706z"/>
					<path fill="#E36A95" d="M145.186,142.67c0,0,0.106-0.804-0.146-1.063c0,0,1.658-2.551,3.273,0.057c0,0,0.341,6.224-2.46,4.901
						c0,0-0.907-0.323-0.971-0.769c0,0,2.222,0.263,2.11-2.021C146.992,143.774,147.021,142.583,145.186,142.67z"/>
					<path fill="#E36A95" d="M142.183,142.004c0,0-0.179,2.998,1.976,4.121c0,0-3.884-1.59-3.1-3.806
						C141.059,142.319,141.708,141.786,142.183,142.004z"/>
					<path fill="#E36A95" d="M145.153,144.119c0,0,0.065,0.944-0.245,1.251c0,0,0.947,0.354,1.05-0.694
						C145.958,144.676,145.928,144.01,145.153,144.119z"/>
					<path fill="#E36A95" d="M144.588,143.924c0,0,0.354,2.126-0.852,1.193c0,0,0.604-2.789,2.518-1.931
						c0,0,0.584,0.308,0.237,1.343C146.491,144.528,145.439,142.73,144.588,143.924z"/>
					<path fill="#E36A95" d="M140.583,143.726c0,0-0.005,0.145-0.01,0.387c-0.019,1.049,0.013,3.911,0.872,4.32
						c0,0,4.353,1.721,5.805,0.372c0,0,1.48-1.494,0.81-2.728c0,0-1.223,2.265-4.564,0.276
						C143.496,146.352,141.133,145.051,140.583,143.726z"/>
					<path fill="#E36A95" d="M148.354,142.173l0.028,1.803c0,0,2.19,2.436,1.438,6.046
						C149.819,150.022,153.619,146.063,148.354,142.173z"/>
					<path fill="#E36A95" d="M148.841,142.472c0,0,4.086,2.688,0.683,7.708C149.524,150.18,154.148,146.564,148.841,142.472z"/>
					<path fill="#FAD1DE" d="M149.644,150.423c0,0,3.604-4.618-0.979-8.011l0,0c0,0,3.229,1.735,1.154,7.61L149.644,150.423z"/>
					<path fill="#E36A95" d="M138.144,143.545c0,0-2.273,4.406,1.153,6.787c0,0,3.421,2.541,5.608,1.244c0,0,1.815-1.215,1.91-2.219
						c0,0-3.51,1.415-7.466-1.882C139.35,147.473,137.74,145.614,138.144,143.545z"/>
					<path fill="#E36A95" d="M148.382,143.976l-0.015,0.882c0,0,0.84,3.08-0.829,4.414c0,0-2.015,2.38-2.902,2.229
						c0,0,3.588,2.565,5.182-1.479C149.819,150.022,150.866,145.304,148.382,143.976z"/>
				</g>
				<g>
					<path fill="#D070AC" d="M133.746,147.285c0.82,0.013-5.51-0.335-4.948,5.186c0,0,0.497,2.074,4.177,4.445
						c0,0-4.829-4.904-1.56-6.665c0,0,0.123-1.404,1.786-1.502C133.201,148.748,134.204,147.014,133.746,147.285z"/>
					<path fill="#D070AC" d="M128.952,152.884c0,0,2.414,3.831,3.707,4.085c0,0-2.848-0.873-3.959-2.362
						C128.699,154.607,128.412,153.376,128.952,152.884z"/>
					<path fill="#FAD1DE" d="M128.833,154.939c0,0,2.314,4.756,8.532,1.593c1.657-1.016,1.643-1.036,2.468-2.043
						c0,0-0.215,2.706-0.673,2.976c0,0,1.913-2.578,0.805-6.31l-1.187-1.395c0,0-1.022-1.831-1.962-2.612
						c0,0,3.828,5.695-0.901,5.506c0,0,1.859-1.159,0.857-2.94c-0.327-0.618-0.879-1.595-2.233-0.464c0,0-0.924-0.751-0.883-0.648
						c0.042,0.102,0.3-1.094,0.511-1.555c0,0-0.942,0.906-0.909,1.555c0,0-1.95-0.172-1.877,1.417
						c0.415-0.241-2.517,1.215-0.907,3.077c0,0,0.839,2.221,1.826,2.98c0.803,0.616-2.798-2.183-2.907-2.847
						c0,0,1.807,3.399,3.318,3.868C132.71,157.096,130.033,156.085,128.833,154.939z"/>
					<path fill="#D070AC" d="M133.986,152.517c0,0-3.157-1.214-1.729-3.023c0,0,0.784-0.866,1.802,0.252
						C134.06,149.746,133.369,151.83,133.986,152.517z"/>
					<path fill="#D070AC" d="M134.396,149.591c0,0-0.364-0.762-0.729-0.823c0,0-0.016-3.273,2.856-2.066
						c0,0,3.819,5.149,0.654,5.816c0,0-0.966,0.308-1.275-0.034c0,0,2.066-1.209,0.677-3.108
						C136.579,149.376,135.931,148.329,134.396,149.591z"/>
					<path fill="#D070AC" d="M131.427,150.957c0,0,1.542,2.701,4.04,2.277c0,0-4.252,1.137-4.83-1.281
						C130.638,151.953,130.896,151.073,131.427,150.957z"/>
					<path fill="#D070AC" d="M135.188,150.861c0,0,0.59,0.771,0.498,1.238c0,0,1.016-0.308,0.512-1.277
						C136.198,150.823,135.796,150.266,135.188,150.861z"/>
					<path fill="#D070AC" d="M134.589,151.056c0,0,1.511,1.605-0.057,1.581c0,0-1.06-2.795,1.079-3.291c0,0,0.678-0.114,0.965,1.004
						C136.575,150.351,134.648,149.477,134.589,151.056z"/>
					<path fill="#D070AC" d="M131.023,153.473c0,0,0.077,0.131,0.21,0.34c0.578,0.917,2.226,3.367,3.199,3.166
						c0,0,4.731-1.327,5.219-3.431c0,0,0.429-2.244-0.847-2.876c0,0,0.229,2.745-3.781,3.187
						C135.023,153.859,132.25,154.262,131.023,153.473z"/>
					<path fill="#D070AC" d="M136.847,147.116l1.045,1.536c0,0,3.27,0.686,4.666,4.288
						C142.558,152.94,143.593,147.069,136.847,147.116z"/>
					<path fill="#D070AC" d="M137.437,147.057c0,0,5.049-0.32,4.956,6.208C142.392,153.265,144.333,147.16,137.437,147.057z"/>
					<path fill="#FAD1DE" d="M142.633,153.399c0,0,0.495-6.314-5.383-6.278l0,0c0,0,3.77-0.591,5.308,5.819L142.633,153.399z"/>
					<path fill="#D070AC" d="M128.815,154.896c0,0,0.535,5.269,4.841,5.107c0,0,4.39-0.019,5.541-2.549c0,0,0.879-2.221,0.391-3.149
						c0,0-2.226,3.488-7.507,3.2C132.081,157.506,129.64,156.941,128.815,154.896z"/>
					<path fill="#D070AC" d="M137.892,148.652l0.487,0.77c0,0,2.469,2.116,1.787,4.345c0,0-0.392,3.356-1.242,3.797
						c0,0,4.548-0.105,3.633-4.624C142.558,152.94,140.789,148.193,137.892,148.652z"/>
				</g>
			</g>
			<path fill="#42AC49" d="M170.959,206.44c0,0,5.092-4.398,8.978,0.304C179.937,206.744,176.773,210.375,170.959,206.44z"/>
			<path fill="#42AC49" d="M163.854,193.678c0,0,6.306-1.888,8.134,4.07C171.988,197.748,167.737,199.749,163.854,193.678z"/>
			<g>
				<path fill="#E36A95" d="M176.524,192.32c0.631,0.488-4.109-3.467-6.489,1.15c0,0-0.673,1.903,0.977,5.884
					c0,0-1.25-6.62,2.189-6.086c0,0,0.812-1.018,2.154-0.128C175.354,193.14,177.02,192.378,176.524,192.32z"/>
				<path fill="#E36A95" stroke="#FAD1DE" stroke-miterlimit="10" d="M169.942,193.883c0,0-0.078,4.38,0.798,5.329
					c0,0-1.77-2.335-1.873-4.139C168.867,195.073,169.272,193.95,169.942,193.883z"/>
				<path fill="#FAD1DE" d="M168.802,195.409c0,0-0.627,5.042,5.818,6.203c1.805,0.176,1.805,0.149,2.959-0.153
					c0,0-1.547,1.978-2.041,1.922c0,0,2.801-0.889,3.844-4.436l-0.209-1.774c0,0,0.14-2.02-0.192-3.171c0,0,0.07,6.652-3.51,3.755
					c0,0,2.037,0.181,2.167-1.786c0.061-0.672,0.131-1.752-1.5-1.661c0,0-0.333-1.121-0.355-1.018
					c-0.019,0.104,0.791-0.676,1.19-0.912c0,0-1.194,0.155-1.499,0.681c0,0-1.428-1.268-2.183,0.009
					c0.445,0.054-2.576-0.522-2.275,1.862c0,0-0.479,2.214-0.102,3.377c0.31,0.947-1.061-3.323-0.806-3.902
					c0,0-0.332,3.693,0.606,4.938C170.715,199.343,169.149,196.998,168.802,195.409z"/>
				<path fill="#E36A95" d="M174.042,196.526c0,0-1.833-2.781,0.198-3.356c0,0,1.055-0.217,1.274,1.245
					C175.515,194.414,173.912,195.634,174.042,196.526z"/>
				<path fill="#E36A95" d="M175.854,194.489c0,0,0.105-0.804-0.147-1.062c0,0,1.659-2.553,3.274,0.056c0,0,0.339,6.224-2.46,4.9
					c0,0-0.908-0.321-0.972-0.77c0,0,2.223,0.265,2.111-2.02C177.66,195.594,177.69,194.404,175.854,194.489z"/>
				<path fill="#E36A95" d="M172.85,193.824c0,0-0.178,2.997,1.978,4.12c0,0-3.885-1.59-3.1-3.806
					C171.728,194.138,172.377,193.607,172.85,193.824z"/>
				<path fill="#E36A95" d="M175.821,195.938c0,0,0.065,0.944-0.244,1.252c0,0,0.946,0.352,1.048-0.693
					C176.625,196.497,176.597,195.83,175.821,195.938z"/>
				<path fill="#E36A95" d="M175.256,195.742c0,0,0.354,2.126-0.852,1.194c0,0,0.604-2.789,2.518-1.93c0,0,0.583,0.306,0.237,1.342
					C177.159,196.348,176.106,194.55,175.256,195.742z"/>
				<path fill="#E36A95" d="M171.251,195.545c0,0-0.006,0.146-0.01,0.386c-0.019,1.051,0.013,3.912,0.872,4.321
					c0,0,4.353,1.722,5.804,0.371c0,0,1.481-1.494,0.811-2.728c0,0-1.222,2.266-4.563,0.275
					C174.164,198.172,171.802,196.871,171.251,195.545z"/>
				<path fill="#E36A95" d="M179.021,193.992l0.03,1.803c0,0,2.189,2.436,1.436,6.047
					C180.487,201.843,184.287,197.883,179.021,193.992z"/>
				<path fill="#E36A95" d="M179.51,194.291c0,0,4.087,2.689,0.684,7.709C180.193,202,184.817,198.385,179.51,194.291z"/>
				<path fill="#FAD1DE" d="M180.312,202.242c0,0,3.604-4.619-0.979-8.011l0,0c0,0,3.23,1.736,1.154,7.611L180.312,202.242z"/>
				<path fill="#E36A95" d="M168.811,195.364c0,0-2.272,4.408,1.156,6.788c0,0,3.42,2.54,5.606,1.246c0,0,1.817-1.218,1.911-2.222
					c0,0-3.509,1.417-7.466-1.882C170.017,199.293,168.408,197.434,168.811,195.364z"/>
				<path fill="#E36A95" d="M179.051,195.796l-0.016,0.882c0,0,0.84,3.082-0.829,4.415c0,0-2.015,2.38-2.903,2.227
					c0,0,3.588,2.568,5.184-1.477C180.487,201.843,181.535,197.125,179.051,195.796z"/>
			</g>
			<g>
				<path fill="#D070AC" d="M164.414,199.105c0.82,0.014-5.51-0.336-4.948,5.185c0,0,0.496,2.076,4.175,4.446
					c0,0-4.827-4.904-1.56-6.666c0,0,0.123-1.403,1.786-1.501C163.868,200.569,164.872,198.834,164.414,199.105z"/>
				<path fill="#D070AC" d="M159.62,204.704c0,0,2.414,3.831,3.707,4.084c0,0-2.849-0.873-3.961-2.361
					C159.366,206.427,159.08,205.195,159.62,204.704z"/>
				<path fill="#FAD1DE" d="M159.501,206.76c0,0,2.315,4.754,8.531,1.592c1.658-1.016,1.645-1.037,2.468-2.044
					c0,0-0.214,2.706-0.672,2.976c0,0,1.913-2.576,0.805-6.31l-1.188-1.395c0,0-1.022-1.832-1.961-2.612
					c0,0,3.829,5.693-0.901,5.506c0,0,1.86-1.159,0.857-2.94c-0.327-0.618-0.88-1.595-2.234-0.465c0,0-0.924-0.751-0.881-0.648
					c0.041,0.102,0.298-1.093,0.509-1.555c0,0-0.941,0.906-0.906,1.555c0,0-1.952-0.17-1.88,1.419
					c0.416-0.242-2.517,1.215-0.906,3.076c0,0,0.839,2.221,1.825,2.979c0.803,0.615-2.798-2.183-2.906-2.847
					c0,0,1.807,3.399,3.318,3.869C163.378,208.916,160.702,207.904,159.501,206.76z"/>
				<path fill="#D070AC" d="M164.653,204.336c0,0-3.158-1.213-1.729-3.022c0,0,0.784-0.867,1.803,0.252
					C164.728,201.565,164.037,203.651,164.653,204.336z"/>
				<path fill="#D070AC" d="M165.064,201.411c0,0-0.366-0.764-0.729-0.823c0,0-0.015-3.274,2.855-2.067c0,0,3.819,5.149,0.654,5.817
					c0,0-0.966,0.308-1.274-0.035c0,0,2.067-1.208,0.677-3.106C167.248,201.197,166.598,200.149,165.064,201.411z"/>
				<path fill="#D070AC" d="M162.095,202.776c0,0,1.543,2.701,4.04,2.276c0,0-4.251,1.14-4.83-1.279
					C161.305,203.773,161.564,202.895,162.095,202.776z"/>
				<path fill="#D070AC" d="M165.855,202.68c0,0,0.591,0.773,0.499,1.238c0,0,1.015-0.307,0.512-1.275
					C166.867,202.643,166.463,202.086,165.855,202.68z"/>
				<path fill="#D070AC" d="M165.258,202.877c0,0,1.51,1.605-0.059,1.58c0,0-1.059-2.796,1.08-3.292c0,0,0.677-0.111,0.964,1.006
					C167.243,202.171,165.316,201.298,165.258,202.877z"/>
				<path fill="#D070AC" d="M161.691,205.294c0,0,0.076,0.131,0.209,0.341c0.58,0.918,2.227,3.367,3.2,3.164
					c0,0,4.731-1.326,5.218-3.43c0,0,0.431-2.246-0.847-2.876c0,0,0.229,2.743-3.781,3.187
					C165.691,205.678,162.918,206.082,161.691,205.294z"/>
				<path fill="#D070AC" d="M167.514,198.935l1.047,1.537c0,0,3.271,0.685,4.665,4.288
					C173.226,204.76,174.261,198.889,167.514,198.935z"/>
				<path fill="#D070AC" d="M168.105,198.878c0,0,5.048-0.322,4.956,6.208C173.062,205.086,175.002,198.98,168.105,198.878z"/>
				<path fill="#FAD1DE" d="M173.301,205.218c0,0,0.495-6.313-5.382-6.278l0,0c0,0,3.77-0.59,5.307,5.82L173.301,205.218z"/>
				<path fill="#D070AC" d="M159.483,206.715c0,0,0.535,5.27,4.841,5.108c0,0,4.39-0.019,5.542-2.549c0,0,0.879-2.222,0.39-3.149
					c0,0-2.225,3.488-7.507,3.2C162.749,209.324,160.308,208.761,159.483,206.715z"/>
				<path fill="#D070AC" d="M168.561,200.472l0.486,0.77c0,0,2.47,2.117,1.788,4.345c0,0-0.391,3.354-1.243,3.795
					c0,0,4.548-0.104,3.634-4.622C173.226,204.76,171.457,200.014,168.561,200.472z"/>
			</g>
			<g>
				<path fill="#42AC49" d="M110.118,176.094c0,0,5.091-4.398,8.978,0.305C119.095,176.399,115.932,180.031,110.118,176.094z"/>
				<path fill="#42AC49" d="M103.014,163.335c0,0,6.306-1.89,8.133,4.069C111.146,167.404,106.896,169.404,103.014,163.335z"/>
				<g>
					<path fill="#E36A95" d="M115.684,161.976c0.632,0.488-4.108-3.468-6.489,1.149c0,0-0.674,1.902,0.976,5.883
						c0,0-1.25-6.62,2.189-6.084c0,0,0.811-1.021,2.153-0.128C114.513,162.796,116.179,162.031,115.684,161.976z"/>
					<path fill="#E36A95" stroke="#FAD1DE" stroke-miterlimit="10" d="M109.101,163.538c0,0-0.079,4.379,0.796,5.331
						c0,0-1.767-2.336-1.871-4.14C108.027,164.729,108.432,163.604,109.101,163.538z"/>
					<path fill="#FAD1DE" d="M107.961,165.065c0,0-0.628,5.042,5.816,6.203c1.806,0.176,1.806,0.15,2.961-0.152
						c0,0-1.547,1.977-2.042,1.921c0,0,2.801-0.89,3.846-4.436l-0.211-1.775c0,0,0.14-2.018-0.192-3.171
						c0,0,0.069,6.653-3.509,3.754c0,0,2.035,0.182,2.166-1.786c0.061-0.668,0.13-1.75-1.5-1.661c0,0-0.334-1.121-0.354-1.018
						c-0.02,0.104,0.79-0.675,1.19-0.91c0,0-1.195,0.155-1.499,0.681c0,0-1.429-1.269-2.183,0.009
						c0.446,0.054-2.576-0.521-2.275,1.862c0,0-0.48,2.213-0.101,3.377c0.309,0.945-1.062-3.324-0.807-3.903
						c0,0-0.33,3.694,0.606,4.938C109.874,168.997,108.309,166.653,107.961,165.065z"/>
					<path fill="#E36A95" d="M113.201,166.181c0,0-1.834-2.78,0.199-3.356c0,0,1.052-0.216,1.273,1.245
						C114.673,164.07,113.073,165.29,113.201,166.181z"/>
					<path fill="#E36A95" d="M115.013,164.146c0,0,0.105-0.806-0.148-1.063c0,0,1.66-2.554,3.274,0.056c0,0,0.341,6.224-2.459,4.901
						c0,0-0.908-0.322-0.972-0.769c0,0,2.222,0.263,2.11-2.021C116.818,165.25,116.849,164.058,115.013,164.146z"/>
					<path fill="#E36A95" d="M112.009,163.479c0,0-0.179,2.998,1.979,4.119c0,0-3.885-1.588-3.1-3.804
						C110.887,163.795,111.536,163.261,112.009,163.479z"/>
					<path fill="#E36A95" d="M114.979,165.594c0,0,0.066,0.942-0.243,1.252c0,0,0.946,0.352,1.048-0.694
						C115.784,166.152,115.756,165.484,114.979,165.594z"/>
					<path fill="#E36A95" d="M114.415,165.398c0,0,0.354,2.127-0.851,1.194c0,0,0.603-2.789,2.517-1.929
						c0,0,0.584,0.306,0.238,1.341C116.319,166.004,115.267,164.205,114.415,165.398z"/>
					<path fill="#E36A95" d="M110.41,165.2c0,0-0.006,0.148-0.01,0.387c-0.019,1.051,0.013,3.912,0.872,4.321
						c0,0,4.353,1.722,5.805,0.372c0,0,1.48-1.493,0.811-2.728c0,0-1.222,2.266-4.564,0.274
						C113.323,167.826,110.961,166.525,110.41,165.2z"/>
					<path fill="#E36A95" d="M118.179,163.647l0.03,1.805c0,0,2.19,2.435,1.437,6.044
						C119.646,171.496,123.445,167.538,118.179,163.647z"/>
					<path fill="#E36A95" d="M118.668,163.946c0,0,4.087,2.688,0.685,7.707C119.353,171.653,123.976,168.039,118.668,163.946z"/>
					<path fill="#FAD1DE" d="M119.47,171.899c0,0,3.606-4.62-0.978-8.013l0,0c0,0,3.23,1.734,1.153,7.609L119.47,171.899z"/>
					<path fill="#E36A95" d="M107.97,165.02c0,0-2.272,4.408,1.155,6.786c0,0,3.42,2.541,5.605,1.245c0,0,1.817-1.215,1.912-2.221
						c0,0-3.509,1.416-7.466-1.882C109.176,168.948,107.566,167.09,107.97,165.02z"/>
					<path fill="#E36A95" d="M118.209,165.451l-0.015,0.881c0,0,0.84,3.081-0.829,4.416c0,0-2.015,2.38-2.902,2.227
						c0,0,3.587,2.567,5.181-1.479C119.646,171.496,120.694,166.781,118.209,165.451z"/>
				</g>
				<g>
					<path fill="#D070AC" d="M103.572,168.761c0.82,0.013-5.509-0.337-4.948,5.184c0,0,0.497,2.075,4.175,4.445
						c0,0-4.828-4.905-1.558-6.665c0,0,0.123-1.403,1.785-1.501C103.028,170.224,104.03,168.49,103.572,168.761z"/>
					<path fill="#D070AC" d="M98.779,174.36c0,0,2.414,3.83,3.708,4.083c0,0-2.85-0.872-3.96-2.361
						C98.526,176.083,98.239,174.85,98.779,174.36z"/>
					<path fill="#FAD1DE" d="M98.66,176.414c0,0,2.314,4.756,8.532,1.593c1.656-1.015,1.643-1.036,2.467-2.043
						c0,0-0.216,2.705-0.672,2.976c0,0,1.912-2.578,0.805-6.309l-1.188-1.396c0,0-1.022-1.833-1.962-2.611
						c0,0,3.831,5.692-0.9,5.505c0,0,1.859-1.159,0.856-2.941c-0.327-0.617-0.879-1.593-2.233-0.465c0,0-0.923-0.749-0.882-0.648
						c0.042,0.103,0.3-1.092,0.511-1.554c0,0-0.943,0.905-0.908,1.555c0,0-1.952-0.171-1.879,1.419
						c0.415-0.242-2.517,1.214-0.906,3.076c0,0,0.838,2.22,1.825,2.979c0.803,0.617-2.798-2.182-2.907-2.845
						c0,0,1.807,3.398,3.32,3.869C102.539,178.572,99.86,177.559,98.66,176.414z"/>
					<path fill="#D070AC" d="M103.814,173.992c0,0-3.159-1.214-1.731-3.022c0,0,0.786-0.867,1.804,0.251
						C103.888,171.219,103.196,173.306,103.814,173.992z"/>
					<path fill="#D070AC" d="M104.223,171.067c0,0-0.365-0.765-0.729-0.824c0,0-0.015-3.274,2.856-2.069
						c0,0,3.819,5.151,0.654,5.819c0,0-0.965,0.309-1.275-0.035c0,0,2.067-1.208,0.677-3.105
						C106.406,170.853,105.757,169.805,104.223,171.067z"/>
					<path fill="#D070AC" d="M101.255,172.431c0,0,1.542,2.701,4.039,2.277c0,0-4.251,1.139-4.83-1.281
						C100.464,173.427,100.723,172.55,101.255,172.431z"/>
					<path fill="#D070AC" d="M105.016,172.336c0,0,0.591,0.771,0.497,1.238c0,0,1.017-0.307,0.512-1.276
						C106.025,172.298,105.622,171.741,105.016,172.336z"/>
					<path fill="#D070AC" d="M104.417,172.533c0,0,1.51,1.604-0.059,1.58c0,0-1.06-2.797,1.079-3.292c0,0,0.677-0.112,0.963,1.004
						C106.4,171.825,104.475,170.952,104.417,172.533z"/>
					<path fill="#D070AC" d="M100.849,174.949c0,0,0.078,0.129,0.21,0.34c0.579,0.918,2.226,3.365,3.2,3.164
						c0,0,4.729-1.326,5.218-3.43c0,0,0.431-2.245-0.846-2.876c0,0,0.229,2.744-3.781,3.187
						C104.851,175.335,102.076,175.738,100.849,174.949z"/>
					<path fill="#D070AC" d="M106.673,168.591l1.046,1.534c0,0,3.27,0.688,4.664,4.29
						C112.384,174.415,113.419,168.543,106.673,168.591z"/>
					<path fill="#D070AC" d="M107.264,168.533c0,0,5.047-0.322,4.956,6.207C112.22,174.74,114.16,168.635,107.264,168.533z"/>
					<path fill="#FAD1DE" d="M112.461,174.873c0,0,0.493-6.313-5.384-6.278l0,0c0,0,3.77-0.589,5.307,5.82L112.461,174.873z"/>
					<path fill="#D070AC" d="M98.643,176.37c0,0,0.535,5.271,4.839,5.108c0,0,4.391-0.019,5.543-2.547c0,0,0.877-2.223,0.39-3.152
						c0,0-2.225,3.489-7.507,3.202C101.908,178.981,99.467,178.417,98.643,176.37z"/>
					<path fill="#D070AC" d="M107.72,170.125l0.486,0.773c0,0,2.47,2.115,1.787,4.343c0,0-0.391,3.355-1.242,3.797
						c0,0,4.548-0.104,3.633-4.623C112.384,174.415,110.615,169.67,107.72,170.125z"/>
				</g>
			</g>
			<g>
				<path fill="#42AC49" d="M138.717,222.237c0,0,5.091-4.396,8.975,0.304C147.691,222.541,144.529,226.174,138.717,222.237z"/>
				<path fill="#42AC49" d="M131.612,209.475c0,0,6.305-1.889,8.132,4.071C139.744,213.547,135.493,215.546,131.612,209.475z"/>
				<g>
					<path fill="#E36A95" d="M144.282,208.118c0.631,0.488-4.111-3.467-6.49,1.149c0,0-0.673,1.903,0.977,5.884
						c0,0-1.25-6.622,2.189-6.086c0,0,0.811-1.02,2.153-0.128C143.111,208.937,144.776,208.174,144.282,208.118z"/>
					<path fill="#E36A95" stroke="#FAD1DE" stroke-miterlimit="10" d="M137.699,209.678c0,0-0.077,4.381,0.796,5.331
						c0,0-1.768-2.334-1.872-4.139C136.624,210.871,137.029,209.747,137.699,209.678z"/>
					<path fill="#FAD1DE" d="M136.558,211.207c0,0-0.627,5.042,5.817,6.203c1.806,0.176,1.807,0.15,2.961-0.152
						c0,0-1.546,1.976-2.04,1.92c0,0,2.8-0.89,3.844-4.436l-0.211-1.774c0,0,0.141-2.018-0.191-3.171c0,0,0.069,6.653-3.51,3.754
						c0,0,2.036,0.182,2.167-1.785c0.06-0.671,0.13-1.751-1.499-1.662c0,0-0.334-1.121-0.355-1.017
						c-0.02,0.103,0.79-0.676,1.19-0.911c0,0-1.196,0.154-1.499,0.681c0,0-1.429-1.27-2.182,0.009
						c0.446,0.053-2.576-0.521-2.275,1.862c0,0-0.479,2.214-0.102,3.378c0.31,0.946-1.061-3.323-0.806-3.904
						c0,0-0.331,3.694,0.605,4.938C138.473,215.139,136.907,212.795,136.558,211.207z"/>
					<path fill="#E36A95" d="M141.799,212.323c0,0-1.834-2.782,0.199-3.355c0,0,1.053-0.218,1.273,1.244
						C143.271,210.212,141.668,211.43,141.799,212.323z"/>
					<path fill="#E36A95" d="M143.61,210.287c0,0,0.106-0.805-0.147-1.063c0,0,1.659-2.552,3.274,0.057c0,0,0.34,6.224-2.459,4.9
						c0,0-0.908-0.321-0.972-0.768c0,0,2.222,0.263,2.11-2.02C145.416,211.392,145.447,210.2,143.61,210.287z"/>
					<path fill="#E36A95" d="M140.608,209.621c0,0-0.18,2.998,1.976,4.121c0,0-3.884-1.591-3.101-3.805
						C139.483,209.937,140.134,209.403,140.608,209.621z"/>
					<path fill="#E36A95" d="M143.577,211.736c0,0,0.066,0.942-0.243,1.251c0,0,0.945,0.353,1.049-0.693
						C144.383,212.294,144.353,211.627,143.577,211.736z"/>
					<path fill="#E36A95" d="M143.012,211.541c0,0,0.354,2.125-0.851,1.193c0,0,0.603-2.789,2.517-1.93c0,0,0.584,0.307,0.238,1.342
						C144.917,212.146,143.864,210.346,143.012,211.541z"/>
					<path fill="#E36A95" d="M139.008,211.344c0,0-0.008,0.146-0.01,0.384c-0.019,1.052,0.013,3.912,0.871,4.323
						c0,0,4.353,1.721,5.806,0.372c0,0,1.479-1.495,0.81-2.729c0,0-1.222,2.266-4.564,0.276
						C141.921,213.969,139.559,212.668,139.008,211.344z"/>
					<path fill="#E36A95" d="M146.777,209.791l0.029,1.802c0,0,2.19,2.436,1.438,6.046
						C148.244,217.639,152.042,213.679,146.777,209.791z"/>
					<path fill="#E36A95" d="M147.266,210.089c0,0,4.087,2.688,0.685,7.708C147.951,217.796,152.573,214.182,147.266,210.089z"/>
					<path fill="#FAD1DE" d="M148.069,218.04c0,0,3.605-4.619-0.979-8.011l0,0c0,0,3.23,1.736,1.154,7.611L148.069,218.04z"/>
					<path fill="#E36A95" d="M136.567,211.162c0,0-2.272,4.406,1.155,6.787c0,0,3.42,2.539,5.606,1.244c0,0,1.816-1.216,1.911-2.222
						c0,0-3.51,1.417-7.467-1.88C137.772,215.091,136.165,213.232,136.567,211.162z"/>
					<path fill="#E36A95" d="M146.806,211.593l-0.015,0.88c0,0,0.84,3.083-0.828,4.417c0,0-2.015,2.379-2.902,2.227
						c0,0,3.587,2.566,5.183-1.478C148.244,217.639,149.291,212.922,146.806,211.593z"/>
				</g>
				<g>
					<path fill="#D070AC" d="M132.169,214.903c0.822,0.012-5.508-0.336-4.947,5.185c0,0,0.497,2.075,4.176,4.445
						c0,0-4.829-4.904-1.559-6.665c0,0,0.122-1.403,1.786-1.502C131.625,216.366,132.628,214.632,132.169,214.903z"/>
					<path fill="#D070AC" d="M127.376,220.502c0,0,2.414,3.831,3.708,4.084c0,0-2.849-0.872-3.96-2.361
						C127.124,222.224,126.836,220.993,127.376,220.502z"/>
					<path fill="#FAD1DE" d="M127.258,222.557c0,0,2.313,4.754,8.532,1.592c1.657-1.016,1.643-1.037,2.467-2.044
						c0,0-0.214,2.705-0.672,2.975c0,0,1.914-2.578,0.804-6.31l-1.187-1.394c0,0-1.022-1.832-1.962-2.612
						c0,0,3.83,5.694-0.902,5.505c0,0,1.861-1.158,0.859-2.939c-0.328-0.618-0.881-1.595-2.236-0.465c0,0-0.922-0.751-0.881-0.648
						c0.041,0.102,0.3-1.094,0.51-1.554c0,0-0.941,0.905-0.906,1.555c0,0-1.952-0.171-1.878,1.418
						c0.414-0.243-2.519,1.215-0.908,3.077c0,0,0.839,2.22,1.826,2.977c0.803,0.618-2.797-2.179-2.907-2.844
						c0,0,1.808,3.399,3.32,3.868C131.136,224.713,128.457,223.702,127.258,222.557z"/>
					<path fill="#D070AC" d="M132.411,220.134c0,0-3.158-1.213-1.73-3.022c0,0,0.785-0.868,1.803,0.251
						C132.484,217.362,131.793,219.449,132.411,220.134z"/>
					<path fill="#D070AC" d="M132.821,217.208c0,0-0.365-0.765-0.73-0.824c0,0-0.014-3.273,2.856-2.065c0,0,3.82,5.148,0.655,5.817
						c0,0-0.966,0.308-1.274-0.036c0,0,2.066-1.208,0.676-3.107C135.004,216.994,134.354,215.947,132.821,217.208z"/>
					<path fill="#D070AC" d="M129.852,218.573c0,0,1.543,2.703,4.04,2.277c0,0-4.251,1.139-4.83-1.28
						C129.062,219.57,129.32,218.692,129.852,218.573z"/>
					<path fill="#D070AC" d="M133.612,218.478c0,0,0.59,0.771,0.499,1.237c0,0,1.016-0.305,0.512-1.277
						C134.623,218.44,134.219,217.883,133.612,218.478z"/>
					<path fill="#D070AC" d="M133.016,218.675c0,0,1.509,1.605-0.059,1.58c0,0-1.06-2.796,1.079-3.291c0,0,0.676-0.113,0.964,1.003
						C135,217.967,133.072,217.094,133.016,218.675z"/>
					<path fill="#D070AC" d="M129.448,221.091c0,0,0.077,0.131,0.209,0.341c0.58,0.917,2.227,3.366,3.201,3.165
						c0,0,4.731-1.328,5.217-3.431c0,0,0.43-2.245-0.846-2.876c0,0,0.229,2.744-3.781,3.188
						C133.449,221.477,130.673,221.882,129.448,221.091z"/>
					<path fill="#D070AC" d="M135.27,214.733l1.048,1.536c0,0,3.269,0.687,4.665,4.287
						C140.982,220.556,142.016,214.686,135.27,214.733z"/>
					<path fill="#D070AC" d="M135.862,214.675c0,0,5.048-0.321,4.956,6.207C140.817,220.882,142.758,214.776,135.862,214.675z"/>
					<path fill="#FAD1DE" d="M141.059,221.015c0,0,0.493-6.313-5.382-6.277l0,0c0,0,3.769-0.591,5.306,5.818L141.059,221.015z"/>
					<path fill="#D070AC" d="M127.238,222.512c0,0,0.537,5.271,4.842,5.108c0,0,4.39-0.018,5.542-2.549c0,0,0.879-2.223,0.391-3.149
						c0,0-2.226,3.487-7.507,3.198C130.506,225.121,128.064,224.558,127.238,222.512z"/>
					<path fill="#D070AC" d="M136.317,216.269l0.485,0.771c0,0,2.471,2.114,1.788,4.345c0,0-0.391,3.355-1.242,3.795
						c0,0,4.549-0.104,3.634-4.622C140.982,220.556,139.214,215.812,136.317,216.269z"/>
				</g>
			</g>
			<g>
				<path fill="#42AC49" d="M182.343,173.791c0,0,5.091-4.398,8.978,0.306C191.321,174.096,188.157,177.727,182.343,173.791z"/>
				<path fill="#42AC49" d="M175.239,161.03c0,0,6.305-1.887,8.132,4.07C183.372,165.099,179.121,167.102,175.239,161.03z"/>
				<g>
					<path fill="#E36A95" d="M187.909,159.672c0.632,0.486-4.109-3.466-6.489,1.149c0,0-0.673,1.902,0.977,5.884
						c0,0-1.25-6.621,2.19-6.085c0,0,0.81-1.02,2.152-0.128C186.738,160.491,188.403,159.727,187.909,159.672z"/>
					<path fill="#E36A95" stroke="#FAD1DE" stroke-miterlimit="10" d="M181.326,161.234c0,0-0.078,4.38,0.798,5.331
						c0,0-1.769-2.336-1.872-4.139C180.252,162.425,180.658,161.301,181.326,161.234z"/>
					<path fill="#FAD1DE" d="M180.187,162.76c0,0-0.628,5.042,5.818,6.203c1.805,0.176,1.805,0.15,2.96-0.154
						c0,0-1.548,1.979-2.042,1.922c0,0,2.801-0.889,3.844-4.435l-0.21-1.775c0,0,0.141-2.02-0.192-3.171
						c0,0,0.071,6.653-3.509,3.754c0,0,2.038,0.183,2.167-1.787c0.061-0.67,0.13-1.751-1.5-1.661c0,0-0.333-1.121-0.354-1.017
						c-0.02,0.103,0.791-0.676,1.191-0.911c0,0-1.195,0.154-1.499,0.68c0,0-1.431-1.268-2.183,0.009
						c0.444,0.053-2.578-0.521-2.276,1.861c0,0-0.48,2.213-0.101,3.377c0.308,0.948-1.062-3.323-0.807-3.901
						c0,0-0.331,3.692,0.606,4.937C182.1,166.694,180.535,164.349,180.187,162.76z"/>
					<path fill="#E36A95" d="M185.427,163.877c0,0-1.834-2.781,0.198-3.355c0,0,1.054-0.216,1.274,1.245
						C186.899,161.767,185.297,162.985,185.427,163.877z"/>
					<path fill="#E36A95" d="M187.238,161.842c0,0,0.105-0.806-0.147-1.064c0,0,1.66-2.551,3.273,0.057c0,0,0.341,6.224-2.458,4.9
						c0,0-0.909-0.321-0.972-0.767c0,0,2.222,0.263,2.11-2.021C189.044,162.946,189.074,161.755,187.238,161.842z"/>
					<path fill="#E36A95" d="M184.234,161.175c0,0-0.179,2.997,1.977,4.121c0,0-3.884-1.589-3.1-3.806
						C183.111,161.49,183.761,160.958,184.234,161.175z"/>
					<path fill="#E36A95" d="M187.206,163.289c0,0,0.064,0.944-0.245,1.252c0,0,0.947,0.353,1.049-0.692
						C188.01,163.849,187.981,163.18,187.206,163.289z"/>
					<path fill="#E36A95" d="M186.641,163.095c0,0,0.354,2.126-0.853,1.193c0,0,0.604-2.788,2.519-1.931
						c0,0,0.583,0.307,0.237,1.342C188.544,163.699,187.492,161.901,186.641,163.095z"/>
					<path fill="#E36A95" d="M182.636,162.896c0,0-0.006,0.146-0.01,0.387c-0.02,1.051,0.012,3.911,0.872,4.322
						c0,0,4.353,1.721,5.805,0.371c0,0,1.479-1.493,0.81-2.728c0,0-1.223,2.267-4.564,0.276
						C185.548,165.524,183.187,164.222,182.636,162.896z"/>
					<path fill="#E36A95" d="M190.405,161.344l0.03,1.803c0,0,2.19,2.436,1.437,6.046
						C191.872,169.194,195.672,165.233,190.405,161.344z"/>
					<path fill="#E36A95" d="M190.895,161.644c0,0,4.086,2.686,0.683,7.706C191.578,169.35,196.201,165.736,190.895,161.644z"/>
					<path fill="#FAD1DE" d="M191.696,169.595c0,0,3.605-4.62-0.979-8.011l0,0c0,0,3.23,1.734,1.155,7.61L191.696,169.595z"/>
					<path fill="#E36A95" d="M180.195,162.716c0,0-2.272,4.407,1.155,6.787c0,0,3.42,2.54,5.606,1.244c0,0,1.816-1.216,1.912-2.221
						c0,0-3.511,1.417-7.467-1.881C181.401,166.645,179.792,164.786,180.195,162.716z"/>
					<path fill="#E36A95" d="M190.435,163.147l-0.015,0.882c0,0,0.839,3.08-0.829,4.416c0,0-2.015,2.38-2.902,2.227
						c0,0,3.587,2.567,5.184-1.478C191.872,169.194,192.919,164.477,190.435,163.147z"/>
				</g>
				<g>
					<path fill="#D070AC" d="M175.798,166.457c0.821,0.014-5.509-0.335-4.948,5.185c0,0,0.497,2.076,4.176,4.445
						c0,0-4.829-4.904-1.559-6.664c0,0,0.122-1.404,1.786-1.502C175.254,167.92,176.256,166.185,175.798,166.457z"/>
					<path fill="#D070AC" d="M171.004,172.056c0,0,2.413,3.829,3.707,4.083c0,0-2.849-0.873-3.959-2.362
						C170.751,173.778,170.465,172.547,171.004,172.056z"/>
					<path fill="#FAD1DE" d="M170.886,174.111c0,0,2.314,4.756,8.532,1.592c1.657-1.016,1.643-1.037,2.468-2.043
						c0,0-0.216,2.705-0.673,2.977c0,0,1.912-2.579,0.804-6.31l-1.187-1.396c0,0-1.023-1.833-1.962-2.612c0,0,3.829,5.694-0.9,5.506
						c0,0,1.858-1.16,0.856-2.94c-0.327-0.618-0.88-1.595-2.235-0.465c0,0-0.922-0.75-0.882-0.647
						c0.042,0.103,0.3-1.093,0.511-1.556c0,0-0.943,0.907-0.908,1.556c0,0-1.951-0.172-1.877,1.418
						c0.414-0.241-2.518,1.214-0.908,3.075c0,0,0.84,2.22,1.826,2.98c0.804,0.617-2.798-2.182-2.907-2.846c0,0,1.808,3.4,3.32,3.868
						C174.763,176.267,172.086,175.256,170.886,174.111z"/>
					<path fill="#D070AC" d="M176.04,171.688c0,0-3.158-1.215-1.73-3.022c0,0,0.785-0.867,1.804,0.251
						C176.113,168.917,175.423,171.002,176.04,171.688z"/>
					<path fill="#D070AC" d="M176.448,168.762c0,0-0.365-0.763-0.729-0.823c0,0-0.016-3.273,2.855-2.065
						c0,0,3.819,5.148,0.654,5.816c0,0-0.965,0.308-1.274-0.035c0,0,2.068-1.209,0.677-3.108
						C178.632,168.548,177.982,167.5,176.448,168.762z"/>
					<path fill="#D070AC" d="M173.48,170.128c0,0,1.542,2.701,4.04,2.277c0,0-4.252,1.137-4.831-1.281
						C172.689,171.125,172.948,170.246,173.48,170.128z"/>
					<path fill="#D070AC" d="M177.241,170.031c0,0,0.591,0.771,0.498,1.239c0,0,1.016-0.307,0.512-1.275
						C178.251,169.995,177.848,169.437,177.241,170.031z"/>
					<path fill="#D070AC" d="M176.643,170.229c0,0,1.51,1.605-0.059,1.579c0,0-1.059-2.795,1.078-3.291c0,0,0.677-0.113,0.965,1.003
						C178.627,169.52,176.701,168.649,176.643,170.229z"/>
					<path fill="#D070AC" d="M173.075,172.645c0,0,0.078,0.13,0.21,0.339c0.579,0.919,2.226,3.368,3.2,3.167
						c0,0,4.731-1.327,5.219-3.431c0,0,0.43-2.244-0.847-2.877c0,0,0.229,2.745-3.781,3.186
						C177.076,173.03,174.302,173.434,173.075,172.645z"/>
					<path fill="#D070AC" d="M178.899,166.286l1.046,1.538c0,0,3.269,0.686,4.665,4.286
						C184.61,172.11,185.645,166.239,178.899,166.286z"/>
					<path fill="#D070AC" d="M179.49,166.229c0,0,5.047-0.32,4.955,6.207C184.445,172.436,186.386,166.332,179.49,166.229z"/>
					<path fill="#FAD1DE" d="M184.686,172.571c0,0,0.494-6.314-5.382-6.279l0,0c0,0,3.77-0.589,5.307,5.819L184.686,172.571z"/>
					<path fill="#D070AC" d="M170.868,174.067c0,0,0.535,5.27,4.84,5.107c0,0,4.39-0.019,5.542-2.549c0,0,0.878-2.221,0.39-3.149
						c0,0-2.226,3.488-7.506,3.199C174.134,176.676,171.691,176.112,170.868,174.067z"/>
					<path fill="#D070AC" d="M179.945,167.824l0.486,0.77c0,0,2.469,2.116,1.788,4.345c0,0-0.392,3.356-1.244,3.794
						c0,0,4.549-0.101,3.635-4.623C184.61,172.11,182.841,167.365,179.945,167.824z"/>
				</g>
			</g>
			<g>
				<path fill="#42AC49" d="M149.551,181.656c0,0,5.091-4.396,8.977,0.306C158.528,181.961,155.365,185.594,149.551,181.656z"/>
				<path fill="#42AC49" d="M142.447,168.894c0,0,6.306-1.888,8.134,4.072C150.58,172.967,146.329,174.967,142.447,168.894z"/>
				<g>
					<path fill="#E36A95" d="M155.117,167.538c0.632,0.486-4.109-3.467-6.489,1.149c0,0-0.674,1.902,0.977,5.884
						c0,0-1.249-6.621,2.19-6.086c0,0,0.81-1.02,2.153-0.127C153.948,168.358,155.612,167.593,155.117,167.538z"/>
					<path fill="#E36A95" stroke="#FAD1DE" stroke-miterlimit="10" d="M148.535,169.098c0,0-0.078,4.382,0.797,5.331
						c0,0-1.768-2.335-1.873-4.139C147.46,170.291,147.865,169.167,148.535,169.098z"/>
					<path fill="#FAD1DE" d="M147.395,170.627c0,0-0.627,5.042,5.817,6.202c1.806,0.177,1.806,0.151,2.96-0.151
						c0,0-1.547,1.976-2.041,1.92c0,0,2.8-0.889,3.844-4.434l-0.21-1.775c0,0,0.14-2.019-0.192-3.171c0,0,0.07,6.652-3.51,3.754
						c0,0,2.036,0.181,2.166-1.786c0.062-0.671,0.13-1.752-1.499-1.662c0,0-0.335-1.121-0.354-1.016
						c-0.02,0.101,0.791-0.676,1.19-0.913c0,0-1.194,0.156-1.499,0.681c0,0-1.429-1.269-2.183,0.01
						c0.445,0.051-2.576-0.522-2.275,1.862c0,0-0.48,2.213-0.1,3.377c0.308,0.945-1.063-3.324-0.808-3.904
						c0,0-0.331,3.695,0.605,4.939C149.308,174.56,147.742,172.215,147.395,170.627z"/>
					<path fill="#E36A95" d="M152.636,171.744c0,0-1.834-2.783,0.197-3.357c0,0,1.053-0.215,1.273,1.245
						C154.106,169.632,152.506,170.85,152.636,171.744z"/>
					<path fill="#E36A95" d="M154.446,169.708c0,0,0.105-0.807-0.147-1.064c0,0,1.659-2.552,3.274,0.057c0,0,0.341,6.223-2.459,4.9
						c0,0-0.907-0.322-0.972-0.769c0,0,2.223,0.265,2.111-2.02C156.253,170.812,156.283,169.619,154.446,169.708z"/>
					<path fill="#E36A95" d="M151.444,169.042c0,0-0.179,2.995,1.976,4.119c0,0-3.885-1.589-3.099-3.805
						C150.321,169.356,150.97,168.824,151.444,169.042z"/>
					<path fill="#E36A95" d="M154.414,171.156c0,0,0.066,0.942-0.244,1.251c0,0,0.945,0.354,1.047-0.693
						C155.217,171.714,155.189,171.047,154.414,171.156z"/>
					<path fill="#E36A95" d="M153.849,170.961c0,0,0.354,2.126-0.852,1.193c0,0,0.604-2.789,2.519-1.93c0,0,0.582,0.307,0.236,1.342
						C155.752,171.566,154.7,169.767,153.849,170.961z"/>
					<path fill="#E36A95" d="M149.844,170.762c0,0-0.006,0.146-0.01,0.386c-0.019,1.051,0.013,3.912,0.871,4.322
						c0,0,4.354,1.723,5.806,0.371c0,0,1.479-1.494,0.81-2.728c0,0-1.223,2.265-4.564,0.276
						C152.757,173.39,150.395,172.088,149.844,170.762z"/>
					<path fill="#E36A95" d="M157.613,169.21l0.03,1.802c0,0,2.19,2.436,1.437,6.046
						C159.081,177.058,162.879,173.099,157.613,169.21z"/>
					<path fill="#E36A95" d="M158.103,169.509c0,0,4.084,2.689,0.683,7.708C158.786,177.216,163.409,173.601,158.103,169.509z"/>
					<path fill="#FAD1DE" d="M158.904,177.461c0,0,3.606-4.619-0.979-8.012l0,0c0,0,3.23,1.736,1.154,7.61L158.904,177.461z"/>
					<path fill="#E36A95" d="M147.404,170.581c0,0-2.273,4.407,1.155,6.786c0,0,3.42,2.54,5.606,1.246c0,0,1.816-1.216,1.911-2.222
						c0,0-3.51,1.416-7.466-1.881C148.61,174.511,147.001,172.652,147.404,170.581z"/>
					<path fill="#E36A95" d="M157.644,171.012l-0.017,0.883c0,0,0.841,3.08-0.828,4.415c0,0-2.014,2.381-2.9,2.228
						c0,0,3.587,2.565,5.182-1.479C159.081,177.058,160.127,172.343,157.644,171.012z"/>
				</g>
				<g>
					<path fill="#D070AC" d="M143.006,174.323c0.82,0.012-5.509-0.337-4.948,5.185c0,0,0.498,2.075,4.176,4.444
						c0,0-4.829-4.904-1.558-6.665c0,0,0.122-1.404,1.785-1.5C142.461,175.786,143.465,174.051,143.006,174.323z"/>
					<path fill="#D070AC" d="M138.213,179.922c0,0,2.413,3.831,3.708,4.084c0,0-2.85-0.871-3.96-2.362
						C137.96,181.643,137.673,180.412,138.213,179.922z"/>
					<path fill="#FAD1DE" d="M138.095,181.977c0,0,2.313,4.754,8.53,1.592c1.657-1.014,1.644-1.036,2.469-2.044
						c0,0-0.216,2.705-0.672,2.976c0,0,1.912-2.577,0.804-6.31l-1.188-1.394c0,0-1.022-1.833-1.961-2.614
						c0,0,3.829,5.695-0.902,5.506c0,0,1.859-1.159,0.858-2.94c-0.328-0.617-0.879-1.594-2.234-0.464c0,0-0.925-0.75-0.883-0.648
						c0.043,0.102,0.3-1.094,0.511-1.554c0,0-0.942,0.905-0.908,1.555c0,0-1.951-0.172-1.877,1.418
						c0.414-0.243-2.519,1.215-0.909,3.077c0,0,0.84,2.22,1.825,2.979c0.804,0.616-2.796-2.182-2.906-2.847
						c0,0,1.807,3.399,3.319,3.869C141.972,184.133,139.294,183.122,138.095,181.977z"/>
					<path fill="#D070AC" d="M143.247,179.554c0,0-3.158-1.216-1.73-3.023c0,0,0.787-0.867,1.804,0.251
						C143.32,176.781,142.63,178.868,143.247,179.554z"/>
					<path fill="#D070AC" d="M143.657,176.628c0,0-0.366-0.765-0.729-0.823c0,0-0.016-3.274,2.854-2.066c0,0,3.82,5.148,0.656,5.816
						c0,0-0.966,0.308-1.275-0.035c0,0,2.066-1.208,0.677-3.106C145.84,176.414,145.191,175.365,143.657,176.628z"/>
					<path fill="#D070AC" d="M140.688,177.993c0,0,1.542,2.703,4.04,2.277c0,0-4.252,1.14-4.831-1.279
						C139.898,178.991,140.157,178.112,140.688,177.993z"/>
					<path fill="#D070AC" d="M144.448,177.897c0,0,0.591,0.771,0.5,1.239c0,0,1.015-0.307,0.512-1.277
						C145.459,177.859,145.057,177.302,144.448,177.897z"/>
					<path fill="#D070AC" d="M143.851,178.094c0,0,1.511,1.606-0.059,1.582c0,0-1.06-2.797,1.079-3.292c0,0,0.677-0.112,0.964,1.004
						C145.835,177.387,143.909,176.515,143.851,178.094z"/>
					<path fill="#D070AC" d="M140.285,180.51c0,0,0.076,0.13,0.209,0.34c0.578,0.92,2.228,3.367,3.2,3.164
						c0,0,4.73-1.327,5.218-3.428c0,0,0.431-2.246-0.847-2.877c0,0,0.23,2.744-3.78,3.186
						C144.285,180.896,141.511,181.3,140.285,180.51z"/>
					<path fill="#D070AC" d="M146.106,174.154l1.047,1.535c0,0,3.269,0.686,4.665,4.287
						C151.819,179.976,152.853,174.105,146.106,174.154z"/>
					<path fill="#D070AC" d="M146.697,174.095c0,0,5.048-0.32,4.957,6.206C151.654,180.301,153.595,174.196,146.697,174.095z"/>
					<path fill="#FAD1DE" d="M151.894,180.435c0,0,0.495-6.312-5.382-6.278l0,0c0,0,3.769-0.59,5.307,5.819L151.894,180.435z"/>
					<path fill="#D070AC" d="M138.076,181.932c0,0,0.536,5.27,4.84,5.108c0,0,4.391-0.017,5.542-2.549c0,0,0.879-2.223,0.391-3.15
						c0,0-2.225,3.489-7.508,3.2C141.341,184.542,138.9,183.979,138.076,181.932z"/>
					<path fill="#D070AC" d="M147.154,175.689l0.486,0.771c0,0,2.471,2.116,1.787,4.344c0,0-0.391,3.355-1.242,3.796
						c0,0,4.549-0.103,3.634-4.624C151.819,179.976,150.05,175.231,147.154,175.689z"/>
				</g>
			</g>
		</g>
	</g>
</g>
<path fill="#FFFCFA" d="M164.379,117.45c0,1.362-4.075,2.268-5.23,2.268l-15.864,0.821c-1.155,0-2.092-1.104-2.092-2.465
	l2.789-5.059c0-1.362,9.479-3.233,10.634-3.233h8.543c1.154,0,1.773,3.232,1.773,4.595L164.379,117.45z"/>
<path fill="#FFFCFA" d="M115.188,118.555c0.097,1.359,4.228,1.968,5.379,1.884l15.884-0.325c1.151-0.083,2.006-1.251,1.907-2.61
	l-3.146-4.845c-0.099-1.358-9.687-2.542-10.839-2.458l-8.52,0.615c-1.153,0.083-1.538,3.352-1.438,4.71L115.188,118.555z"/>
<path fill="none" stroke="#FDE8F1" stroke-width="4" stroke-miterlimit="10" d="M140.17,115.159c0,0,0.969,15.889-30.98,16.454"/>
<path fill="#F5A9C1" d="M143.856,116.275c0,1.54-0.838,2.886-2.084,3.6c-0.419,0.241-0.882,0.412-1.375,0.494
	c-0.226,0.037-0.456,0.058-0.692,0.058c-2.293,0-4.151-1.859-4.151-4.151c0-2.292,1.857-4.151,4.151-4.151
	C141.998,112.124,143.856,113.984,143.856,116.275z"/>
<path fill="#C11E55" d="M145.101,101.272c0,4.93-4.107,8.925-9.175,8.925c-5.067,0-9.175-3.995-9.175-8.925
	c0-4.928,4.108-8.924,9.175-8.924C140.994,92.348,145.101,96.344,145.101,101.272z"/>
<path fill="#F6DFCA" d="M178.748,146.703c-15.861-17.79-31.44-29.785-37.829-24.092c-3.313,2.956,11.469,15.663,27.331,33.451
	c15.861,17.793,26.796,33.931,30.111,30.977C201.673,184.086,194.61,164.495,178.748,146.703z"/>
<path fill="#F5CFAF" d="M140.919,122.611c0,0,46.545,50.022,57.441,64.428c0,0-4.454,3.737-29.064-29.795l-16.08-17.274
	C153.216,139.97,138.689,123.814,140.919,122.611z"/>
<path fill="#F6DFCA" d="M99.084,154.106c5.354-23.225,13.248-41.235,21.588-39.312c4.325,0.998-2.527,19.248-7.883,42.474
	c-5.354,23.226-7.184,42.632-11.509,41.636C96.955,197.906,93.729,177.334,99.084,154.106z"/>
<path fill="#F5CFAF" d="M120.672,114.794c0,0-16.765,66.239-19.392,84.109c0,0,5.702,1.136,11.16-40.098l5.794-22.877
	C118.234,135.928,123.204,114.777,120.672,114.794z"/>
<path fill="#2D2E2D" d="M79.291,60.306c0,0,10.535-45.338,71.329-40.902c0,0,52.81,16.497,42.536,63.739
	c-0.082,0.829,2.218,111.79-131.644,110.027c0,0-34.145-1.494-24.568-32.348c0,0,1.805-4.948,10.688-8.834
	c0,0,14.066-1.943,8.143,10.777c0,0,0.186-8.656-8.328-3.533c0,0-4.627,9.009,8.514,10.776c0,0,17.398,3.711,24.8-16.607
	c0,0,1.058-22.236-0.978-33.721C79.784,119.681,75.955,64.677,79.291,60.306z"/>
</svg>
