<?xml version="1.0" encoding="utf-8"?>
<!-- Generator: Adobe Illustrator 15.1.0, SVG Export Plug-In . SVG Version: 6.00 Build 0)  -->
<!DOCTYPE svg PUBLIC "-//W3C//DTD SVG 1.1//EN" "http://www.w3.org/Graphics/SVG/1.1/DTD/svg11.dtd">
<svg version="1.1" id="Layer_1" xmlns="http://www.w3.org/2000/svg" xmlns:xlink="http://www.w3.org/1999/xlink" x="0px" y="0px"
	 width="197.588px" height="323.935px" viewBox="351.25 409.891 197.588 323.935"
	 enable-background="new 351.25 409.891 197.588 323.935" xml:space="preserve">
<path fill="#F6DFCA" d="M498.4,496.713c0,30.914,10.432,39.371-46.56,39.371c-45.924,0-46.56-5.212-46.56-39.371
	c0-29.458,10.898-34.812,44.702-34.812C491.888,461.901,498.4,471.487,498.4,496.713z"/>
<g>
	<path fill="#2D2E2D" d="M461.672,507.11c0.415-1.142,1.024-2.21,1.725-3.212c0.711-0.994,1.537-1.917,2.484-2.711
		c0.94-0.801,2.008-1.46,3.147-1.956c1.144-0.492,2.365-0.799,3.602-0.933c1.237-0.122,2.487-0.072,3.706,0.122
		c1.219,0.203,2.412,0.524,3.557,0.962c2.295,0.865,4.419,2.101,6.362,3.545c-2.11-1.187-4.28-2.258-6.552-3.001
		c-1.138-0.363-2.295-0.66-3.47-0.814c-1.172-0.166-2.359-0.206-3.528-0.08c-2.343,0.222-4.59,1.154-6.465,2.602
		c-0.938,0.724-1.795,1.562-2.558,2.484C462.918,505.039,462.234,506.037,461.672,507.11z"/>
</g>
<g>
	<path fill="#2D2E2D" d="M479.866,499.746c1.126-0.141,2.217-0.402,3.221-0.821c0.997-0.428,1.905-1.041,2.517-1.89
		c0.623-0.839,0.95-1.88,1.048-2.961c0.101-1.086,0.003-2.204-0.136-3.333c0.436,1.05,0.707,2.185,0.711,3.358
		c0.009,0.586-0.074,1.178-0.234,1.755c-0.166,0.576-0.434,1.132-0.795,1.619c-0.365,0.485-0.812,0.905-1.31,1.236
		c-0.503,0.325-1.042,0.582-1.603,0.753C482.169,499.81,480.994,499.911,479.866,499.746z"/>
</g>
<g>
	<path fill="#2D2E2D" d="M484.242,501.855c1.128,0.087,2.247,0.056,3.313-0.151c1.06-0.213,2.071-0.628,2.837-1.334
		c0.775-0.696,1.295-1.651,1.595-2.692c0.306-1.043,0.421-2.158,0.498-3.289c0.229,1.111,0.281,2.274,0.062,3.423
		c-0.103,0.576-0.297,1.141-0.565,1.676c-0.273,0.532-0.644,1.023-1.094,1.429c-0.455,0.402-0.977,0.724-1.531,0.946
		c-0.557,0.216-1.135,0.357-1.718,0.409C486.479,502.383,485.312,502.242,484.242,501.855z"/>
</g>
<path fill="none" stroke="#F6B67E" stroke-miterlimit="10" d="M451.895,504.67c0,0-0.392,1.334-4.693,4.186c0,0,0,4.025,4.693,3.634
	"/>
<path fill="#2D2E2D" d="M463.788,451.479c0,0-62.478-14.91-60.49,46.438c0,0,4.19-2.148,11.331-4.478l5.58-20.336l5.443,17.328
	c5.411-1.202,11.603-2.18,18.351-2.573l7.311-19.187l10.179,19.593c4.051,0.435,8.208,1.126,12.438,2.134l-2.248-21.727
	l12.371,24.729c5.548,1.978,11.165,4.549,16.776,7.84C500.829,501.239,507.386,451.427,463.788,451.479z"/>
<line fill="none" x1="414.629" y1="493.438" x2="414.53" y2="493.799"/>
<polygon opacity="0.67" fill="#F5CFAF" enable-background="new    " points="405.238,502.077 417.874,493.438 420.208,473.193 
	414.629,493.438 405.281,496.713 "/>
<g>
	<path fill="#2D2E2D" d="M441.739,507.036c-0.582-1.062-1.284-2.047-2.065-2.953c-0.778-0.909-1.651-1.731-2.602-2.438
		c-1.901-1.414-4.165-2.306-6.512-2.485c-1.171-0.104-2.357-0.043-3.526,0.143c-1.172,0.177-2.323,0.494-3.453,0.877
		c-2.259,0.784-4.409,1.896-6.498,3.121c1.917-1.48,4.018-2.755,6.297-3.662c1.136-0.458,2.323-0.801,3.538-1.027
		c1.216-0.215,2.464-0.288,3.704-0.188c1.238,0.11,2.466,0.396,3.617,0.867c1.149,0.477,2.229,1.115,3.184,1.899
		c0.961,0.776,1.804,1.684,2.532,2.666C440.674,504.845,441.304,505.902,441.739,507.036z"/>
</g>
<g>
	<path fill="#2D2E2D" d="M423.414,500.005c-1.125,0.186-2.301,0.105-3.424-0.221c-0.564-0.16-1.107-0.409-1.615-0.725
		c-0.505-0.321-0.959-0.734-1.333-1.212c-0.369-0.481-0.647-1.031-0.824-1.604c-0.171-0.575-0.264-1.166-0.267-1.751
		c-0.018-1.173,0.233-2.313,0.65-3.371c-0.118,1.13-0.195,2.25-0.075,3.334c0.117,1.081,0.463,2.114,1.102,2.942
		c0.628,0.837,1.546,1.434,2.551,1.843C421.191,499.644,422.287,499.885,423.414,500.005z"/>
</g>
<g>
	<path fill="#2D2E2D" d="M418.427,502.357c-1.011,0.422-2.134,0.597-3.26,0.5c-0.563-0.045-1.125-0.186-1.661-0.407
		c-0.533-0.228-1.028-0.561-1.447-0.97c-0.416-0.414-0.748-0.904-0.988-1.427c-0.234-0.524-0.403-1.071-0.49-1.625
		c-0.185-1.106-0.133-2.221,0.08-3.292c0.094,1.087,0.208,2.159,0.484,3.169c0.273,1.008,0.729,1.95,1.435,2.652
		c0.698,0.711,1.652,1.134,2.667,1.332C416.268,502.481,417.345,502.482,418.427,502.357z"/>
</g>
<path fill="#F5CFAF" d="M498.471,501.239c0,0,0.473,28.819-24.508,34.168c0,0,25.637,1.863,25.187-17.085L498.471,501.239z"/>
<path fill="#F6DFCA" d="M485.521,641.072c1.54-23.804-1.69-43.288-12.206-43.739c-5.453-0.232-3.535,19.199-5.076,43
	c-1.542,23.803-5.958,42.963-0.503,43.197C473.189,683.762,483.98,664.874,485.521,641.072z"/>
<path fill="#F5CFAF" d="M473.314,597.332c0,0-2.63,68.295-5.579,86.197c0,0-7.128-0.48,0.396-41.623l0.902-23.588
	C469.033,618.319,470.325,596.617,473.314,597.332z"/>
<path fill="#F6DFCA" d="M436.297,641.071c-1.541-23.803,1.689-43.289,12.207-43.738c5.453-0.232,3.535,19.197,5.075,43
	c1.541,23.803,5.957,42.963,0.503,43.195C448.629,683.762,437.837,664.873,436.297,641.071z"/>
<path fill="#F5CFAF" d="M448.504,597.332c0,0,2.629,68.293,5.578,86.195c0,0,7.129-0.479-0.396-41.621l-0.901-23.588
	C452.784,618.319,451.492,596.616,448.504,597.332z"/>
<g>
	<g>
		<defs>
			<path id="SVGID_1_" d="M426.104,551.244l-4.6,81.326c0,0,40.631,25.086,78.809,0.592l-14.914-84.79l-0.675-11.276l-57.938,2.1
				L426.104,551.244z"/>
		</defs>
		<clipPath id="SVGID_2_">
			<use xlink:href="#SVGID_1_"  overflow="visible"/>
		</clipPath>
		<g clip-path="url(#SVGID_2_)">
			<path fill="#952A1F" d="M426.323,550.662l-4.6,81.326c0,0,40.63,25.085,78.81,0.59l-14.258-84.791l-0.677-11.275l-58.595,2.1
				L426.323,550.662z"/>
			<path fill="#42AC49" d="M435.484,627.83c0,0,5.092-4.396,8.977,0.305C444.461,628.135,441.298,631.766,435.484,627.83z"/>
			<path fill="#42AC49" d="M428.38,615.07c0,0,6.305-1.889,8.131,4.071C436.513,619.141,432.263,621.141,428.38,615.07z"/>
			<g>
				<path fill="#E36A95" d="M441.05,613.712c0.632,0.487-4.109-3.466-6.489,1.151c0,0-0.674,1.9,0.977,5.883
					c0,0-1.25-6.621,2.189-6.086c0,0,0.812-1.02,2.153-0.128C439.88,614.532,441.545,613.769,441.05,613.712z"/>
				<path fill="#E36A95" stroke="#FAD1DE" stroke-miterlimit="10" d="M434.467,615.274c0,0-0.078,4.381,0.798,5.33
					c0,0-1.769-2.336-1.872-4.141C433.393,616.463,433.798,615.34,434.467,615.274z"/>
				<path fill="#FAD1DE" d="M433.327,616.801c0,0-0.627,5.043,5.817,6.203c1.806,0.176,1.806,0.15,2.96-0.152
					c0,0-1.548,1.977-2.041,1.92c0,0,2.802-0.889,3.845-4.436l-0.211-1.773c0,0,0.141-2.018-0.191-3.172c0,0,0.07,6.652-3.51,3.754
					c0,0,2.037,0.184,2.167-1.785c0.062-0.67,0.131-1.75-1.499-1.662c0,0-0.336-1.12-0.355-1.016
					c-0.02,0.103,0.791-0.677,1.19-0.912c0,0-1.194,0.154-1.499,0.68c0,0-1.429-1.269-2.182,0.01
					c0.445,0.054-2.576-0.521-2.275,1.862c0,0-0.48,2.213-0.101,3.378c0.308,0.946-1.062-3.324-0.808-3.902
					c0,0-0.33,3.692,0.606,4.938C435.24,620.735,433.675,618.389,433.327,616.801z"/>
				<path fill="#E36A95" d="M438.568,617.916c0,0-1.834-2.781,0.197-3.354c0,0,1.053-0.217,1.273,1.244
					C440.039,615.807,438.438,617.027,438.568,617.916z"/>
				<path fill="#E36A95" d="M440.379,615.881c0,0,0.105-0.805-0.146-1.062c0,0,1.658-2.553,3.273,0.057c0,0,0.34,6.224-2.46,4.9
					c0,0-0.907-0.322-0.972-0.769c0,0,2.223,0.265,2.111-2.021C442.186,616.987,442.215,615.795,440.379,615.881z"/>
				<path fill="#E36A95" d="M437.375,615.215c0,0-0.179,2.998,1.978,4.121c0,0-3.885-1.59-3.1-3.805
					C436.253,615.531,436.902,614.996,437.375,615.215z"/>
				<path fill="#E36A95" d="M440.347,617.328c0,0,0.065,0.945-0.244,1.254c0,0,0.945,0.352,1.048-0.695
					C441.15,617.887,441.121,617.221,440.347,617.328z"/>
				<path fill="#E36A95" d="M439.781,617.135c0,0,0.354,2.127-0.852,1.193c0,0,0.604-2.79,2.518-1.93c0,0,0.584,0.306,0.238,1.342
					C441.685,617.74,440.632,615.942,439.781,617.135z"/>
				<path fill="#E36A95" d="M435.776,616.936c0,0-0.006,0.146-0.01,0.387c-0.02,1.051,0.012,3.912,0.871,4.322
					c0,0,4.354,1.721,5.805,0.371c0,0,1.48-1.494,0.811-2.728c0,0-1.222,2.267-4.563,0.276
					C438.689,619.565,436.328,618.264,435.776,616.936z"/>
				<path fill="#E36A95" d="M443.545,615.385l0.03,1.803c0,0,2.19,2.436,1.438,6.047
					C445.014,623.233,448.812,619.274,443.545,615.385z"/>
				<path fill="#E36A95" d="M444.035,615.684c0,0,4.086,2.688,0.684,7.707C444.719,623.391,449.341,619.776,444.035,615.684z"/>
				<path fill="#FAD1DE" d="M444.837,623.635c0,0,3.606-4.619-0.979-8.012l0,0c0,0,3.23,1.735,1.155,7.609L444.837,623.635z"/>
				<path fill="#E36A95" d="M433.336,616.756c0,0-2.272,4.406,1.156,6.785c0,0,3.42,2.543,5.605,1.246c0,0,1.816-1.216,1.91-2.221
					c0,0-3.508,1.417-7.465-1.883C434.543,620.684,432.934,618.825,433.336,616.756z"/>
				<path fill="#E36A95" d="M443.575,617.188l-0.015,0.881c0,0,0.839,3.082-0.829,4.417c0,0-2.015,2.38-2.902,2.226
					c0,0,3.588,2.566,5.184-1.479C445.014,623.233,446.059,618.516,443.575,617.188z"/>
			</g>
			<g>
				<path fill="#D070AC" d="M428.938,620.498c0.821,0.012-5.508-0.336-4.948,5.185c0,0,0.498,2.075,4.176,4.443
					c0,0-4.829-4.903-1.559-6.663c0,0,0.123-1.404,1.786-1.504C428.394,621.959,429.396,620.225,428.938,620.498z"/>
				<path fill="#D070AC" d="M424.145,626.096c0,0,2.413,3.83,3.707,4.084c0,0-2.848-0.871-3.959-2.361
					C423.892,627.819,423.604,626.587,424.145,626.096z"/>
				<path fill="#FAD1DE" d="M424.027,628.153c0,0,2.314,4.754,8.532,1.59c1.656-1.014,1.643-1.035,2.467-2.045
					c0,0-0.215,2.707-0.672,2.979c0,0,1.913-2.576,0.804-6.31l-1.188-1.396c0,0-1.021-1.832-1.961-2.612c0,0,3.83,5.694-0.9,5.506
					c0,0,1.859-1.159,0.857-2.94c-0.328-0.617-0.879-1.594-2.233-0.464c0,0-0.924-0.753-0.883-0.648
					c0.041,0.102,0.299-1.095,0.511-1.556c0,0-0.942,0.906-0.908,1.557c0,0-1.951-0.172-1.878,1.417
					c0.415-0.241-2.518,1.217-0.907,3.076c0,0,0.839,2.22,1.825,2.979c0.803,0.616-2.799-2.182-2.906-2.846
					c0,0,1.806,3.4,3.318,3.869C427.903,630.309,425.227,629.297,424.027,628.153z"/>
				<path fill="#D070AC" d="M429.18,625.728c0,0-3.157-1.214-1.729-3.021c0,0,0.785-0.868,1.804,0.249
					C429.254,622.955,428.562,625.041,429.18,625.728z"/>
				<path fill="#D070AC" d="M429.588,622.803c0,0-0.364-0.765-0.728-0.822c0,0-0.015-3.275,2.855-2.068c0,0,3.818,5.15,0.654,5.818
					c0,0-0.965,0.309-1.274-0.037c0,0,2.066-1.207,0.676-3.105C431.772,622.588,431.123,621.54,429.588,622.803z"/>
				<path fill="#D070AC" d="M426.621,624.168c0,0,1.543,2.699,4.039,2.277c0,0-4.251,1.138-4.83-1.281
					C425.829,625.164,426.089,624.285,426.621,624.168z"/>
				<path fill="#D070AC" d="M430.381,624.073c0,0,0.591,0.771,0.499,1.238c0,0,1.017-0.307,0.51-1.276
					C431.39,624.034,430.989,623.477,430.381,624.073z"/>
				<path fill="#D070AC" d="M429.783,624.27c0,0,1.51,1.604-0.06,1.579c0,0-1.058-2.796,1.08-3.292c0,0,0.678-0.112,0.965,1.004
					C431.768,623.562,429.842,622.69,429.783,624.27z"/>
				<path fill="#D070AC" d="M426.216,626.686c0,0,0.078,0.129,0.21,0.34c0.578,0.919,2.227,3.367,3.2,3.166
					c0,0,4.731-1.328,5.218-3.432c0,0,0.432-2.246-0.847-2.877c0,0,0.23,2.745-3.78,3.187
					C430.217,627.07,427.441,627.475,426.216,626.686z"/>
				<path fill="#D070AC" d="M432.04,620.326l1.046,1.537c0,0,3.27,0.686,4.665,4.287C437.751,626.151,438.786,620.28,432.04,620.326
					z"/>
				<path fill="#D070AC" d="M432.631,620.27c0,0,5.048-0.32,4.957,6.207C437.588,626.477,439.527,620.371,432.631,620.27z"/>
				<path fill="#FAD1DE" d="M437.826,626.61c0,0,0.494-6.312-5.381-6.277l0,0c0,0,3.769-0.591,5.307,5.818L437.826,626.61z"/>
				<path fill="#D070AC" d="M424.009,628.107c0,0,0.536,5.269,4.841,5.108c0,0,4.39-0.018,5.542-2.549c0,0,0.878-2.223,0.391-3.15
					c0,0-2.226,3.49-7.508,3.199C427.274,630.715,424.834,630.153,424.009,628.107z"/>
				<path fill="#D070AC" d="M433.086,621.864l0.485,0.77c0,0,2.472,2.117,1.788,4.344c0,0-0.391,3.355-1.243,3.797
					c0,0,4.55-0.104,3.635-4.623C437.751,626.151,435.982,621.406,433.086,621.864z"/>
			</g>
			<g>
				<path fill="#42AC49" d="M434.708,567.66c0,0,5.091-4.396,8.978,0.305C443.686,567.965,440.521,571.596,434.708,567.66z"/>
				<path fill="#42AC49" d="M427.604,554.9c0,0,6.304-1.888,8.132,4.071C435.736,558.971,431.487,560.969,427.604,554.9z"/>
				<g>
					<path fill="#E36A95" d="M440.274,553.541c0.632,0.488-4.11-3.467-6.491,1.15c0,0-0.672,1.901,0.979,5.883
						c0,0-1.251-6.62,2.188-6.085c0,0,0.812-1.021,2.154-0.128C439.104,554.361,440.769,553.597,440.274,553.541z"/>
					<path fill="#E36A95" stroke="#FAD1DE" stroke-miterlimit="10" d="M433.693,555.102c0,0-0.08,4.382,0.796,5.332
						c0,0-1.769-2.337-1.872-4.14C432.617,556.294,433.021,555.17,433.693,555.102z"/>
					<path fill="#FAD1DE" d="M432.552,556.631c0,0-0.628,5.042,5.817,6.203c1.805,0.175,1.806,0.15,2.961-0.153
						c0,0-1.548,1.978-2.042,1.922c0,0,2.8-0.89,3.845-4.436l-0.211-1.775c0,0,0.141-2.018-0.191-3.17c0,0,0.069,6.652-3.511,3.754
						c0,0,2.036,0.182,2.168-1.786c0.06-0.671,0.129-1.751-1.5-1.662c0,0-0.334-1.12-0.354-1.016
						c-0.02,0.101,0.791-0.678,1.189-0.912c0,0-1.193,0.155-1.498,0.68c0,0-1.43-1.268-2.184,0.01
						c0.446,0.053-2.576-0.521-2.273,1.863c0,0-0.481,2.212-0.103,3.377c0.31,0.946-1.062-3.325-0.806-3.903
						c0,0-0.331,3.693,0.604,4.937C434.464,560.563,432.898,558.219,432.552,556.631z"/>
					<path fill="#E36A95" d="M437.792,557.748c0,0-1.833-2.783,0.198-3.357c0,0,1.053-0.216,1.273,1.245
						C439.264,555.635,437.662,556.855,437.792,557.748z"/>
					<path fill="#E36A95" d="M439.604,555.712c0,0,0.105-0.806-0.147-1.063c0,0,1.659-2.553,3.274,0.055c0,0,0.34,6.225-2.46,4.901
						c0,0-0.908-0.322-0.973-0.77c0,0,2.222,0.265,2.111-2.02C441.409,556.816,441.439,555.623,439.604,555.712z"/>
					<path fill="#E36A95" d="M436.6,555.045c0,0-0.18,2.997,1.979,4.119c0,0-3.886-1.588-3.101-3.804
						C435.478,555.36,436.126,554.828,436.6,555.045z"/>
					<path fill="#E36A95" d="M439.57,557.16c0,0,0.066,0.943-0.244,1.25c0,0,0.945,0.354,1.049-0.693
						C440.375,557.717,440.346,557.05,439.57,557.16z"/>
					<path fill="#E36A95" d="M439.006,556.964c0,0,0.354,2.126-0.852,1.193c0,0,0.604-2.789,2.518-1.93c0,0,0.584,0.307,0.237,1.342
						C440.909,557.569,439.857,555.77,439.006,556.964z"/>
					<path fill="#E36A95" d="M435.002,556.765c0,0-0.008,0.147-0.012,0.388c-0.019,1.05,0.014,3.911,0.871,4.322
						c0,0,4.354,1.721,5.807,0.371c0,0,1.479-1.494,0.81-2.729c0,0-1.223,2.266-4.563,0.276
						C437.914,559.394,435.551,558.092,435.002,556.765z"/>
					<path fill="#E36A95" d="M442.77,555.214l0.03,1.804c0,0,2.19,2.436,1.437,6.045
						C444.236,563.063,448.036,559.104,442.77,555.214z"/>
					<path fill="#E36A95" d="M443.259,555.512c0,0,4.087,2.689,0.684,7.708C443.942,563.22,448.566,559.606,443.259,555.512z"/>
					<path fill="#FAD1DE" d="M444.062,563.465c0,0,3.604-4.62-0.979-8.013l0,0c0,0,3.23,1.735,1.154,7.61L444.062,563.465z"/>
					<path fill="#E36A95" d="M432.56,556.586c0,0-2.271,4.407,1.155,6.786c0,0,3.421,2.542,5.606,1.245c0,0,1.816-1.216,1.91-2.221
						c0,0-3.509,1.415-7.466-1.882C433.766,560.514,432.156,558.656,432.56,556.586z"/>
					<path fill="#E36A95" d="M442.8,557.017l-0.016,0.881c0,0,0.84,3.082-0.827,4.415c0,0-2.016,2.38-2.903,2.228
						c0,0,3.589,2.566,5.183-1.479C444.236,563.063,445.283,558.346,442.8,557.017z"/>
				</g>
				<g>
					<path fill="#D070AC" d="M428.162,560.326c0.821,0.013-5.508-0.336-4.946,5.184c0,0,0.496,2.076,4.174,4.445
						c0,0-4.828-4.904-1.559-6.664c0,0,0.124-1.402,1.786-1.5C427.618,561.791,428.621,560.055,428.162,560.326z"/>
					<path fill="#D070AC" d="M423.369,565.925c0,0,2.414,3.831,3.707,4.085c0,0-2.849-0.873-3.96-2.362
						C423.117,567.648,422.829,566.416,423.369,565.925z"/>
					<path fill="#FAD1DE" d="M423.25,567.98c0,0,2.315,4.756,8.532,1.594c1.656-1.016,1.644-1.036,2.468-2.044
						c0,0-0.215,2.705-0.673,2.975c0,0,1.912-2.576,0.804-6.309l-1.186-1.396c0,0-1.023-1.83-1.963-2.611c0,0,3.829,5.693-0.9,5.506
						c0,0,1.859-1.158,0.856-2.939c-0.328-0.617-0.879-1.595-2.233-0.465c0,0-0.925-0.75-0.883-0.648
						c0.042,0.104,0.299-1.094,0.51-1.555c0,0-0.942,0.905-0.907,1.555c0,0-1.952-0.17-1.877,1.42
						c0.414-0.243-2.518,1.213-0.908,3.074c0,0,0.839,2.221,1.825,2.98c0.804,0.615-2.799-2.182-2.906-2.846
						c0,0,1.807,3.398,3.319,3.867C427.128,570.137,424.451,569.125,423.25,567.98z"/>
					<path fill="#D070AC" d="M428.404,565.557c0,0-3.158-1.213-1.729-3.021c0,0,0.785-0.867,1.803,0.251
						C428.477,562.786,427.786,564.871,428.404,565.557z"/>
					<path fill="#D070AC" d="M428.812,562.631c0,0-0.364-0.764-0.728-0.822c0,0-0.014-3.274,2.856-2.066
						c0,0,3.818,5.148,0.653,5.816c0,0-0.966,0.31-1.274-0.035c0,0,2.067-1.209,0.677-3.107
						C430.997,562.416,430.347,561.37,428.812,562.631z"/>
					<path fill="#D070AC" d="M425.845,563.996c0,0,1.544,2.702,4.04,2.277c0,0-4.252,1.139-4.831-1.28
						C425.054,564.993,425.313,564.115,425.845,563.996z"/>
					<path fill="#D070AC" d="M429.605,563.903c0,0,0.591,0.771,0.498,1.236c0,0,1.016-0.307,0.512-1.275
						C430.615,563.864,430.212,563.307,429.605,563.903z"/>
					<path fill="#D070AC" d="M429.007,564.098c0,0,1.511,1.604-0.059,1.579c0,0-1.059-2.795,1.08-3.291c0,0,0.677-0.112,0.964,1.005
						C430.992,563.391,429.066,562.52,429.007,564.098z"/>
					<path fill="#D070AC" d="M425.44,566.516c0,0,0.077,0.129,0.209,0.339c0.58,0.919,2.227,3.366,3.2,3.165
						c0,0,4.732-1.326,5.219-3.43c0,0,0.43-2.244-0.846-2.877c0,0,0.229,2.743-3.782,3.187
						C429.44,566.9,426.667,567.303,425.44,566.516z"/>
					<path fill="#D070AC" d="M431.264,560.156l1.046,1.537c0,0,3.269,0.686,4.667,4.287
						C436.977,565.981,438.01,560.11,431.264,560.156z"/>
					<path fill="#D070AC" d="M431.854,560.1c0,0,5.049-0.322,4.956,6.205C436.811,566.305,438.751,560.199,431.854,560.1z"/>
					<path fill="#FAD1DE" d="M437.051,566.438c0,0,0.494-6.312-5.383-6.277l0,0c0,0,3.77-0.59,5.309,5.82L437.051,566.438z"/>
					<path fill="#D070AC" d="M423.232,567.936c0,0,0.536,5.27,4.842,5.107c0,0,4.389-0.018,5.541-2.547c0,0,0.878-2.223,0.391-3.15
						c0,0-2.226,3.488-7.508,3.199C426.498,570.545,424.056,569.983,423.232,567.936z"/>
					<path fill="#D070AC" d="M432.31,561.694l0.487,0.77c0,0,2.47,2.115,1.785,4.344c0,0-0.389,3.355-1.241,3.795
						c0,0,4.549-0.104,3.636-4.621C436.977,565.981,435.207,561.235,432.31,561.694z"/>
				</g>
			</g>
			<g>
				<path fill="#42AC49" d="M478.599,565.078c0,0,5.092-4.396,8.978,0.305C487.576,565.383,484.412,569.017,478.599,565.078z"/>
				<path fill="#42AC49" d="M471.495,552.317c0,0,6.306-1.888,8.133,4.072C479.628,556.389,475.377,558.389,471.495,552.317z"/>
				<g>
					<path fill="#E36A95" d="M484.165,550.96c0.631,0.488-4.109-3.466-6.489,1.15c0,0-0.673,1.901,0.977,5.882
						c0,0-1.251-6.619,2.189-6.085c0,0,0.811-1.02,2.152-0.128C482.994,551.78,484.66,551.015,484.165,550.96z"/>
					<path fill="#E36A95" stroke="#FAD1DE" stroke-miterlimit="10" d="M477.582,552.52c0,0-0.077,4.383,0.798,5.332
						c0,0-1.769-2.335-1.872-4.139C476.508,553.713,476.913,552.588,477.582,552.52z"/>
					<path fill="#FAD1DE" d="M476.441,554.049c0,0-0.627,5.042,5.818,6.201c1.805,0.176,1.807,0.152,2.96-0.15
						c0,0-1.547,1.975-2.042,1.92c0,0,2.802-0.889,3.846-4.436l-0.211-1.773c0,0,0.141-2.021-0.191-3.172c0,0,0.07,6.652-3.51,3.754
						c0,0,2.035,0.181,2.166-1.786c0.061-0.672,0.131-1.751-1.498-1.662c0,0-0.334-1.119-0.355-1.016
						c-0.021,0.103,0.791-0.676,1.191-0.912c0,0-1.195,0.156-1.501,0.68c0,0-1.428-1.269-2.183,0.009
						c0.446,0.052-2.576-0.52-2.273,1.862c0,0-0.481,2.213-0.102,3.377c0.309,0.946-1.061-3.323-0.807-3.902
						c0,0-0.33,3.694,0.605,4.938C478.355,557.982,476.79,555.637,476.441,554.049z"/>
					<path fill="#E36A95" d="M481.684,555.165c0,0-1.834-2.781,0.197-3.356c0,0,1.054-0.216,1.273,1.246
						C483.154,553.055,481.554,554.272,481.684,555.165z"/>
					<path fill="#E36A95" d="M483.494,553.129c0,0,0.106-0.805-0.146-1.063c0,0,1.657-2.553,3.272,0.057c0,0,0.34,6.223-2.459,4.899
						c0,0-0.908-0.32-0.974-0.767c0,0,2.224,0.263,2.112-2.021C485.301,554.235,485.33,553.043,483.494,553.129z"/>
					<path fill="#E36A95" d="M480.49,552.464c0,0-0.18,2.997,1.977,4.121c0,0-3.884-1.589-3.1-3.806
						C479.367,552.779,480.018,552.246,480.49,552.464z"/>
					<path fill="#E36A95" d="M483.461,554.577c0,0,0.066,0.944-0.243,1.252c0,0,0.945,0.354,1.048-0.693
						C484.266,555.135,484.236,554.469,483.461,554.577z"/>
					<path fill="#E36A95" d="M482.896,554.383c0,0,0.354,2.125-0.852,1.192c0,0,0.604-2.788,2.519-1.929
						c0,0,0.582,0.307,0.236,1.342C484.8,554.988,483.748,553.191,482.896,554.383z"/>
					<path fill="#E36A95" d="M478.892,554.185c0,0-0.006,0.146-0.01,0.387c-0.019,1.05,0.013,3.912,0.87,4.321
						c0,0,4.355,1.723,5.807,0.37c0,0,1.479-1.493,0.81-2.726c0,0-1.223,2.264-4.563,0.274
						C481.805,556.811,479.442,555.511,478.892,554.185z"/>
					<path fill="#E36A95" d="M486.661,552.633l0.028,1.802c0,0,2.191,2.435,1.438,6.045
						C488.127,560.481,491.927,556.521,486.661,552.633z"/>
					<path fill="#E36A95" d="M487.149,552.932c0,0,4.087,2.688,0.685,7.707C487.834,560.639,492.457,557.023,487.149,552.932z"/>
					<path fill="#FAD1DE" d="M487.953,560.883c0,0,3.605-4.62-0.98-8.011l0,0c0,0,3.231,1.734,1.154,7.609L487.953,560.883z"/>
					<path fill="#E36A95" d="M476.451,554.004c0,0-2.273,4.407,1.156,6.787c0,0,3.419,2.54,5.605,1.245c0,0,1.815-1.215,1.912-2.221
						c0,0-3.512,1.415-7.468-1.883C477.657,557.934,476.048,556.074,476.451,554.004z"/>
					<path fill="#E36A95" d="M486.689,554.435l-0.014,0.88c0,0,0.839,3.082-0.828,4.417c0,0-2.016,2.379-2.902,2.227
						c0,0,3.587,2.566,5.182-1.479C488.127,560.481,489.175,555.765,486.689,554.435z"/>
				</g>
				<g>
					<path fill="#D070AC" d="M472.055,557.744c0.82,0.014-5.509-0.336-4.947,5.186c0,0,0.495,2.075,4.176,4.443
						c0,0-4.829-4.902-1.561-6.663c0,0,0.124-1.403,1.786-1.502C471.509,559.208,472.512,557.474,472.055,557.744z"/>
					<path fill="#D070AC" d="M467.26,563.344c0,0,2.413,3.831,3.708,4.084c0,0-2.85-0.871-3.961-2.361
						C467.007,565.067,466.72,563.836,467.26,563.344z"/>
					<path fill="#FAD1DE" d="M467.143,565.401c0,0,2.312,4.754,8.53,1.59c1.657-1.016,1.643-1.036,2.468-2.043
						c0,0-0.215,2.705-0.673,2.977c0,0,1.913-2.577,0.806-6.311l-1.188-1.395c0,0-1.022-1.834-1.962-2.613c0,0,3.83,5.695-0.9,5.506
						c0,0,1.859-1.158,0.857-2.939c-0.328-0.617-0.88-1.596-2.234-0.465c0,0-0.924-0.751-0.883-0.646
						c0.041,0.102,0.299-1.095,0.512-1.557c0,0-0.943,0.906-0.908,1.557c0,0-1.951-0.172-1.879,1.416
						c0.415-0.24-2.517,1.217-0.906,3.078c0,0,0.838,2.218,1.825,2.979c0.805,0.615-2.798-2.182-2.907-2.847
						c0,0,1.808,3.401,3.319,3.868C471.02,567.555,468.34,566.543,467.143,565.401z"/>
					<path fill="#D070AC" d="M472.295,562.975c0,0-3.158-1.214-1.729-3.021c0,0,0.785-0.867,1.804,0.252
						C472.369,560.205,471.678,562.291,472.295,562.975z"/>
					<path fill="#D070AC" d="M472.704,560.051c0,0-0.365-0.764-0.729-0.824c0,0-0.015-3.273,2.857-2.065
						c0,0,3.818,5.148,0.652,5.815c0,0-0.965,0.309-1.273-0.034c0,0,2.066-1.21,0.676-3.107
						C474.888,559.835,474.238,558.787,472.704,560.051z"/>
					<path fill="#D070AC" d="M469.734,561.414c0,0,1.544,2.703,4.041,2.278c0,0-4.252,1.14-4.83-1.28
						C468.945,562.412,469.204,561.533,469.734,561.414z"/>
					<path fill="#D070AC" d="M473.495,561.32c0,0,0.593,0.772,0.501,1.237c0,0,1.015-0.307,0.511-1.275
						C474.507,561.281,474.104,560.725,473.495,561.32z"/>
					<path fill="#D070AC" d="M472.898,561.516c0,0,1.51,1.605-0.059,1.582c0,0-1.06-2.799,1.078-3.293c0,0,0.678-0.113,0.965,1.004
						C474.883,560.809,472.955,559.938,472.898,561.516z"/>
					<path fill="#D070AC" d="M469.331,563.932c0,0,0.077,0.132,0.21,0.342c0.579,0.918,2.227,3.365,3.2,3.164
						c0,0,4.73-1.326,5.219-3.43c0,0,0.429-2.244-0.847-2.877c0,0,0.229,2.744-3.781,3.188
						C473.332,564.319,470.559,564.722,469.331,563.932z"/>
					<path fill="#D070AC" d="M475.154,557.576l1.046,1.535c0,0,3.27,0.686,4.665,4.285
						C480.865,563.399,481.9,557.529,475.154,557.576z"/>
					<path fill="#D070AC" d="M475.746,557.518c0,0,5.047-0.322,4.955,6.205C480.701,563.723,482.643,557.619,475.746,557.518z"/>
					<path fill="#FAD1DE" d="M480.941,563.859c0,0,0.494-6.313-5.381-6.278l0,0c0,0,3.768-0.592,5.305,5.818L480.941,563.859z"/>
					<path fill="#D070AC" d="M467.124,565.354c0,0,0.535,5.271,4.839,5.109c0,0,4.391-0.018,5.543-2.549c0,0,0.879-2.223,0.391-3.15
						c0,0-2.226,3.488-7.507,3.201C470.391,567.965,467.949,567.399,467.124,565.354z"/>
					<path fill="#D070AC" d="M476.2,559.112l0.487,0.77c0,0,2.471,2.115,1.787,4.345c0,0-0.391,3.356-1.242,3.796
						c0,0,4.548-0.104,3.634-4.625C480.865,563.399,479.098,558.655,476.2,559.112z"/>
				</g>
			</g>
			<g>
				<path fill="#42AC49" d="M456.291,580.619c0,0,5.092-4.398,8.978,0.306C465.269,580.925,462.105,584.557,456.291,580.619z"/>
				<path fill="#42AC49" d="M449.187,567.858c0,0,6.306-1.887,8.132,4.072C457.318,571.93,453.069,573.93,449.187,567.858z"/>
				<g>
					<path fill="#E36A95" d="M461.856,566.5c0.632,0.486-4.108-3.467-6.489,1.15c0,0-0.674,1.9,0.977,5.883
						c0,0-1.25-6.619,2.189-6.084c0,0,0.811-1.021,2.153-0.129C460.687,567.321,462.352,566.557,461.856,566.5z"/>
					<path fill="#E36A95" stroke="#FAD1DE" stroke-miterlimit="10" d="M455.274,568.063c0,0-0.079,4.381,0.798,5.33
						c0,0-1.77-2.336-1.873-4.139C454.199,569.254,454.604,568.129,455.274,568.063z"/>
					<path fill="#FAD1DE" d="M454.135,569.589c0,0-0.629,5.042,5.816,6.203c1.806,0.175,1.806,0.15,2.961-0.153
						c0,0-1.549,1.977-2.042,1.922c0,0,2.8-0.889,3.844-4.436l-0.21-1.775c0,0,0.141-2.017-0.191-3.17c0,0,0.07,6.652-3.51,3.752
						c0,0,2.036,0.184,2.167-1.784c0.062-0.671,0.13-1.751-1.5-1.661c0,0-0.335-1.119-0.354-1.016
						c-0.02,0.102,0.791-0.678,1.189-0.913c0,0-1.193,0.156-1.498,0.681c0,0-1.428-1.268-2.183,0.01
						c0.446,0.053-2.576-0.521-2.274,1.861c0,0-0.48,2.214-0.102,3.377c0.31,0.947-1.062-3.322-0.807-3.902
						c0,0-0.331,3.694,0.605,4.938C456.047,573.522,454.48,571.176,454.135,569.589z"/>
					<path fill="#E36A95" d="M459.375,570.705c0,0-1.834-2.78,0.197-3.355c0,0,1.054-0.215,1.274,1.244
						C460.847,568.594,459.244,569.815,459.375,570.705z"/>
					<path fill="#E36A95" d="M461.186,568.67c0,0,0.106-0.805-0.146-1.064c0,0,1.658-2.551,3.273,0.057c0,0,0.341,6.225-2.46,4.902
						c0,0-0.907-0.324-0.972-0.77c0,0,2.223,0.264,2.111-2.021C462.992,569.774,463.021,568.583,461.186,568.67z"/>
					<path fill="#E36A95" d="M458.183,568.004c0,0-0.179,2.997,1.976,4.121c0,0-3.884-1.591-3.1-3.807
						C457.059,568.319,457.709,567.785,458.183,568.004z"/>
					<path fill="#E36A95" d="M461.153,570.119c0,0,0.065,0.943-0.245,1.25c0,0,0.947,0.354,1.051-0.693
						C461.959,570.676,461.928,570.01,461.153,570.119z"/>
					<path fill="#E36A95" d="M460.588,569.924c0,0,0.354,2.125-0.852,1.192c0,0,0.604-2.788,2.518-1.931
						c0,0,0.584,0.308,0.237,1.342C462.491,570.528,461.439,568.731,460.588,569.924z"/>
					<path fill="#E36A95" d="M456.583,569.726c0,0-0.005,0.145-0.01,0.387c-0.019,1.05,0.013,3.911,0.872,4.319
						c0,0,4.353,1.722,5.805,0.373c0,0,1.48-1.494,0.81-2.729c0,0-1.223,2.266-4.563,0.275
						C459.496,572.352,457.133,571.051,456.583,569.726z"/>
					<path fill="#E36A95" d="M464.354,568.172l0.028,1.804c0,0,2.19,2.437,1.438,6.046
						C465.819,576.022,469.619,572.063,464.354,568.172z"/>
					<path fill="#E36A95" d="M464.842,568.472c0,0,4.086,2.688,0.683,7.708C465.524,576.18,470.148,572.565,464.842,568.472z"/>
					<path fill="#FAD1DE" d="M465.645,576.422c0,0,3.604-4.617-0.979-8.01l0,0c0,0,3.229,1.734,1.154,7.609L465.645,576.422z"/>
					<path fill="#E36A95" d="M454.144,569.545c0,0-2.273,4.406,1.153,6.786c0,0,3.422,2.54,5.608,1.243c0,0,1.815-1.215,1.91-2.219
						c0,0-3.51,1.414-7.466-1.883C455.35,573.473,453.74,571.614,454.144,569.545z"/>
					<path fill="#E36A95" d="M464.382,569.976l-0.015,0.882c0,0,0.84,3.08-0.829,4.414c0,0-2.015,2.381-2.901,2.229
						c0,0,3.588,2.565,5.182-1.479C465.819,576.022,466.866,571.305,464.382,569.976z"/>
				</g>
				<g>
					<path fill="#D070AC" d="M449.746,573.285c0.82,0.013-5.51-0.336-4.948,5.186c0,0,0.497,2.074,4.177,4.444
						c0,0-4.829-4.903-1.56-6.665c0,0,0.122-1.404,1.786-1.502C449.201,574.748,450.203,573.014,449.746,573.285z"/>
					<path fill="#D070AC" d="M444.951,578.884c0,0,2.414,3.831,3.707,4.085c0,0-2.848-0.872-3.959-2.361
						C444.699,580.608,444.412,579.375,444.951,578.884z"/>
					<path fill="#FAD1DE" d="M444.833,580.94c0,0,2.314,4.756,8.532,1.592c1.656-1.016,1.643-1.035,2.467-2.043
						c0,0-0.215,2.705-0.673,2.976c0,0,1.913-2.577,0.805-6.31l-1.187-1.395c0,0-1.022-1.832-1.962-2.613
						c0,0,3.828,5.695-0.901,5.507c0,0,1.859-1.159,0.857-2.94c-0.327-0.617-0.879-1.595-2.234-0.465c0,0-0.924-0.75-0.883-0.648
						c0.042,0.103,0.301-1.094,0.512-1.555c0,0-0.943,0.906-0.909,1.556c0,0-1.95-0.173-1.878,1.417
						c0.416-0.241-2.517,1.215-0.906,3.077c0,0,0.839,2.222,1.826,2.979c0.803,0.616-2.799-2.182-2.908-2.846
						c0,0,1.808,3.398,3.318,3.867C448.711,583.096,446.033,582.084,444.833,580.94z"/>
					<path fill="#D070AC" d="M449.986,578.517c0,0-3.157-1.214-1.729-3.022c0,0,0.783-0.867,1.802,0.252
						C450.06,575.746,449.369,577.83,449.986,578.517z"/>
					<path fill="#D070AC" d="M450.396,575.59c0,0-0.364-0.762-0.729-0.822c0,0-0.016-3.273,2.856-2.066c0,0,3.818,5.148,0.654,5.816
						c0,0-0.967,0.309-1.275-0.033c0,0,2.066-1.21,0.677-3.108C452.579,575.376,451.931,574.328,450.396,575.59z"/>
					<path fill="#D070AC" d="M447.428,576.957c0,0,1.542,2.7,4.039,2.277c0,0-4.252,1.137-4.829-1.281
						C446.638,577.953,446.896,577.073,447.428,576.957z"/>
					<path fill="#D070AC" d="M451.188,576.862c0,0,0.591,0.771,0.498,1.238c0,0,1.017-0.309,0.512-1.277
						C452.198,576.823,451.796,576.266,451.188,576.862z"/>
					<path fill="#D070AC" d="M450.589,577.057c0,0,1.511,1.605-0.058,1.58c0,0-1.06-2.795,1.079-3.291c0,0,0.678-0.113,0.965,1.004
						C452.575,576.351,450.648,575.477,450.589,577.057z"/>
					<path fill="#D070AC" d="M447.023,579.473c0,0,0.076,0.131,0.21,0.341c0.578,0.917,2.226,3.366,3.199,3.165
						c0,0,4.731-1.326,5.22-3.431c0,0,0.428-2.243-0.848-2.876c0,0,0.229,2.744-3.781,3.186
						C451.023,579.859,448.25,580.262,447.023,579.473z"/>
					<path fill="#D070AC" d="M452.847,573.115l1.046,1.537c0,0,3.27,0.686,4.665,4.287
						C458.558,578.94,459.593,573.069,452.847,573.115z"/>
					<path fill="#D070AC" d="M453.437,573.057c0,0,5.049-0.32,4.956,6.209C458.393,579.266,460.334,573.16,453.437,573.057z"/>
					<path fill="#FAD1DE" d="M458.633,579.399c0,0,0.495-6.314-5.383-6.277l0,0c0,0,3.77-0.592,5.308,5.818L458.633,579.399z"/>
					<path fill="#D070AC" d="M444.815,580.896c0,0,0.535,5.269,4.841,5.107c0,0,4.391-0.019,5.541-2.549
						c0,0,0.879-2.222,0.391-3.149c0,0-2.226,3.488-7.508,3.201C448.08,583.506,445.64,582.941,444.815,580.896z"/>
					<path fill="#D070AC" d="M453.893,574.653l0.486,0.77c0,0,2.469,2.115,1.787,4.344c0,0-0.392,3.356-1.242,3.797
						c0,0,4.549-0.104,3.634-4.623C458.558,578.94,456.789,574.194,453.893,574.653z"/>
				</g>
			</g>
			<path fill="#42AC49" d="M486.959,632.44c0,0,5.092-4.398,8.978,0.305C495.937,632.744,492.773,636.375,486.959,632.44z"/>
			<path fill="#42AC49" d="M479.854,619.678c0,0,6.306-1.888,8.134,4.07C487.988,623.748,483.736,625.748,479.854,619.678z"/>
			<g>
				<path fill="#E36A95" d="M492.524,618.321c0.632,0.488-4.108-3.467-6.489,1.149c0,0-0.673,1.903,0.977,5.884
					c0,0-1.25-6.619,2.189-6.086c0,0,0.812-1.018,2.153-0.129C491.354,619.141,493.02,618.377,492.524,618.321z"/>
				<path fill="#E36A95" stroke="#FAD1DE" stroke-miterlimit="10" d="M485.941,619.883c0,0-0.077,4.379,0.799,5.328
					c0,0-1.77-2.334-1.873-4.139C484.867,621.073,485.272,619.949,485.941,619.883z"/>
				<path fill="#FAD1DE" d="M484.802,621.409c0,0-0.628,5.042,5.818,6.202c1.805,0.176,1.805,0.15,2.959-0.152
					c0,0-1.547,1.977-2.041,1.922c0,0,2.802-0.889,3.845-4.436l-0.21-1.775c0,0,0.14-2.02-0.192-3.17c0,0,0.07,6.652-3.51,3.754
					c0,0,2.037,0.182,2.167-1.785c0.062-0.672,0.131-1.752-1.499-1.662c0,0-0.334-1.121-0.355-1.018
					c-0.019,0.104,0.791-0.676,1.19-0.912c0,0-1.194,0.156-1.499,0.682c0,0-1.428-1.269-2.183,0.009
					c0.445,0.054-2.576-0.522-2.275,1.862c0,0-0.479,2.213-0.102,3.377c0.31,0.947-1.061-3.324-0.806-3.902
					c0,0-0.332,3.693,0.605,4.938C486.715,625.342,485.149,622.998,484.802,621.409z"/>
				<path fill="#E36A95" d="M490.042,622.526c0,0-1.833-2.781,0.198-3.355c0,0,1.055-0.217,1.274,1.244
					C491.515,620.414,489.912,621.633,490.042,622.526z"/>
				<path fill="#E36A95" d="M491.854,620.489c0,0,0.105-0.804-0.146-1.061c0,0,1.659-2.554,3.273,0.055c0,0,0.34,6.225-2.46,4.9
					c0,0-0.907-0.32-0.972-0.77c0,0,2.223,0.266,2.111-2.02C493.66,621.594,493.69,620.404,491.854,620.489z"/>
				<path fill="#E36A95" d="M488.85,619.824c0,0-0.178,2.996,1.979,4.119c0,0-3.886-1.59-3.101-3.806
					C487.728,620.138,488.377,619.608,488.85,619.824z"/>
				<path fill="#E36A95" d="M491.821,621.938c0,0,0.065,0.943-0.244,1.252c0,0,0.946,0.352,1.048-0.693
					C492.625,622.496,492.597,621.83,491.821,621.938z"/>
				<path fill="#E36A95" d="M491.256,621.742c0,0,0.354,2.127-0.852,1.193c0,0,0.604-2.788,2.518-1.93c0,0,0.584,0.307,0.237,1.342
					C493.159,622.348,492.106,620.549,491.256,621.742z"/>
				<path fill="#E36A95" d="M487.252,621.545c0,0-0.006,0.146-0.011,0.387c-0.019,1.051,0.013,3.911,0.872,4.32
					c0,0,4.354,1.723,5.804,0.371c0,0,1.481-1.493,0.811-2.727c0,0-1.222,2.266-4.563,0.275
					C490.164,624.172,487.803,622.871,487.252,621.545z"/>
				<path fill="#E36A95" d="M495.021,619.992l0.029,1.803c0,0,2.189,2.436,1.437,6.047
					C496.487,627.842,500.287,623.883,495.021,619.992z"/>
				<path fill="#E36A95" d="M495.51,620.291c0,0,4.087,2.689,0.684,7.709C496.193,628,500.816,624.385,495.51,620.291z"/>
				<path fill="#FAD1DE" d="M496.312,628.242c0,0,3.604-4.619-0.979-8.012l0,0c0,0,3.229,1.736,1.154,7.611L496.312,628.242z"/>
				<path fill="#E36A95" d="M484.811,621.364c0,0-2.272,4.408,1.156,6.788c0,0,3.42,2.54,5.605,1.245c0,0,1.816-1.217,1.91-2.222
					c0,0-3.509,1.417-7.465-1.882C486.018,625.293,484.408,623.434,484.811,621.364z"/>
				<path fill="#E36A95" d="M495.051,621.795l-0.016,0.883c0,0,0.84,3.081-0.828,4.414c0,0-2.016,2.381-2.903,2.227
					c0,0,3.588,2.568,5.184-1.477C496.487,627.842,497.535,623.125,495.051,621.795z"/>
			</g>
			<g>
				<path fill="#D070AC" d="M480.414,625.106c0.82,0.014-5.51-0.337-4.947,5.184c0,0,0.496,2.076,4.175,4.447
					c0,0-4.827-4.904-1.56-6.666c0,0,0.123-1.402,1.786-1.502C479.868,626.569,480.872,624.834,480.414,625.106z"/>
				<path fill="#D070AC" d="M475.62,630.704c0,0,2.413,3.831,3.707,4.085c0,0-2.849-0.873-3.961-2.361
					C475.366,632.428,475.08,631.196,475.62,630.704z"/>
				<path fill="#FAD1DE" d="M475.501,632.76c0,0,2.315,4.754,8.531,1.592c1.657-1.016,1.645-1.037,2.468-2.044
					c0,0-0.215,2.706-0.672,2.976c0,0,1.912-2.576,0.805-6.309l-1.188-1.395c0,0-1.021-1.832-1.961-2.613
					c0,0,3.828,5.693-0.902,5.507c0,0,1.86-1.159,0.857-2.94c-0.327-0.617-0.88-1.595-2.234-0.465c0,0-0.924-0.752-0.881-0.648
					c0.041,0.102,0.299-1.094,0.509-1.555c0,0-0.941,0.906-0.906,1.555c0,0-1.952-0.17-1.88,1.418
					c0.416-0.242-2.518,1.215-0.906,3.076c0,0,0.839,2.221,1.825,2.98c0.803,0.615-2.798-2.184-2.906-2.848
					c0,0,1.807,3.4,3.317,3.869C479.378,634.916,476.702,633.905,475.501,632.76z"/>
				<path fill="#D070AC" d="M480.653,630.336c0,0-3.157-1.214-1.729-3.023c0,0,0.784-0.866,1.803,0.252
					C480.729,627.565,480.037,629.651,480.653,630.336z"/>
				<path fill="#D070AC" d="M481.064,627.41c0,0-0.365-0.764-0.729-0.822c0,0-0.015-3.273,2.855-2.067c0,0,3.819,5.149,0.654,5.817
					c0,0-0.966,0.309-1.274-0.035c0,0,2.067-1.207,0.678-3.105C483.248,627.198,482.598,626.149,481.064,627.41z"/>
				<path fill="#D070AC" d="M478.095,628.776c0,0,1.544,2.701,4.04,2.277c0,0-4.252,1.139-4.83-1.279
					C477.305,629.774,477.564,628.895,478.095,628.776z"/>
				<path fill="#D070AC" d="M481.855,628.68c0,0,0.591,0.773,0.499,1.238c0,0,1.015-0.307,0.513-1.275
					C482.867,628.643,482.463,628.086,481.855,628.68z"/>
				<path fill="#D070AC" d="M481.258,628.877c0,0,1.51,1.605-0.059,1.58c0,0-1.059-2.797,1.08-3.293c0,0,0.677-0.111,0.964,1.006
					C483.242,628.17,481.316,627.297,481.258,628.877z"/>
				<path fill="#D070AC" d="M477.691,631.293c0,0,0.076,0.131,0.209,0.342c0.58,0.918,2.227,3.367,3.201,3.164
					c0,0,4.73-1.326,5.218-3.431c0,0,0.431-2.245-0.847-2.876c0,0,0.229,2.742-3.781,3.186
					C481.691,631.678,478.918,632.082,477.691,631.293z"/>
				<path fill="#D070AC" d="M483.514,624.936l1.047,1.536c0,0,3.271,0.685,4.665,4.288
					C489.226,630.76,490.261,624.889,483.514,624.936z"/>
				<path fill="#D070AC" d="M484.105,624.877c0,0,5.048-0.321,4.956,6.209C489.062,631.086,491.002,624.981,484.105,624.877z"/>
				<path fill="#FAD1DE" d="M489.301,631.218c0,0,0.494-6.313-5.382-6.278l0,0c0,0,3.771-0.59,5.308,5.82L489.301,631.218z"/>
				<path fill="#D070AC" d="M475.483,632.715c0,0,0.535,5.27,4.841,5.107c0,0,4.391-0.018,5.541-2.549c0,0,0.88-2.222,0.391-3.148
					c0,0-2.225,3.488-7.507,3.199C478.749,635.324,476.308,634.762,475.483,632.715z"/>
				<path fill="#D070AC" d="M484.561,626.472l0.486,0.771c0,0,2.471,2.116,1.788,4.344c0,0-0.392,3.355-1.243,3.795
					c0,0,4.549-0.104,3.635-4.621C489.226,630.76,487.457,626.014,484.561,626.472z"/>
			</g>
			<g>
				<path fill="#42AC49" d="M426.118,602.094c0,0,5.091-4.397,8.978,0.305C435.096,602.399,431.932,606.031,426.118,602.094z"/>
				<path fill="#42AC49" d="M419.014,589.334c0,0,6.306-1.889,8.133,4.069C427.146,593.404,422.896,595.404,419.014,589.334z"/>
				<g>
					<path fill="#E36A95" d="M431.684,587.977c0.632,0.488-4.108-3.469-6.489,1.148c0,0-0.674,1.902,0.976,5.883
						c0,0-1.25-6.619,2.189-6.084c0,0,0.811-1.021,2.153-0.129C430.513,588.795,432.179,588.031,431.684,587.977z"/>
					<path fill="#E36A95" stroke="#FAD1DE" stroke-miterlimit="10" d="M425.101,589.537c0,0-0.079,4.379,0.796,5.332
						c0,0-1.767-2.337-1.871-4.141C424.027,590.729,424.432,589.604,425.101,589.537z"/>
					<path fill="#FAD1DE" d="M423.961,591.065c0,0-0.628,5.042,5.816,6.203c1.806,0.176,1.806,0.15,2.961-0.152
						c0,0-1.547,1.977-2.042,1.92c0,0,2.801-0.889,3.846-4.436l-0.211-1.774c0,0,0.14-2.019-0.192-3.171
						c0,0,0.069,6.652-3.509,3.754c0,0,2.035,0.182,2.166-1.786c0.061-0.669,0.13-1.751-1.5-1.661c0,0-0.334-1.121-0.354-1.018
						s0.79-0.676,1.19-0.91c0,0-1.195,0.155-1.499,0.682c0,0-1.429-1.27-2.183,0.008c0.446,0.055-2.576-0.521-2.275,1.863
						c0,0-0.48,2.213-0.101,3.377c0.309,0.945-1.062-3.324-0.807-3.903c0,0-0.33,3.694,0.606,4.938
						C425.874,594.997,424.309,592.653,423.961,591.065z"/>
					<path fill="#E36A95" d="M429.201,592.181c0,0-1.834-2.78,0.199-3.356c0,0,1.052-0.215,1.273,1.245
						C430.673,590.07,429.073,591.289,429.201,592.181z"/>
					<path fill="#E36A95" d="M431.013,590.146c0,0,0.105-0.806-0.148-1.063c0,0,1.66-2.553,3.274,0.057c0,0,0.341,6.223-2.459,4.9
						c0,0-0.908-0.322-0.972-0.768c0,0,2.222,0.263,2.11-2.021C432.818,591.25,432.849,590.059,431.013,590.146z"/>
					<path fill="#E36A95" d="M428.009,589.479c0,0-0.179,2.998,1.979,4.119c0,0-3.885-1.588-3.1-3.803
						C426.887,589.795,427.536,589.262,428.009,589.479z"/>
					<path fill="#E36A95" d="M430.979,591.594c0,0,0.066,0.941-0.243,1.252c0,0,0.946,0.352,1.048-0.693
						C431.784,592.153,431.756,591.485,430.979,591.594z"/>
					<path fill="#E36A95" d="M430.415,591.398c0,0,0.354,2.128-0.851,1.194c0,0,0.603-2.789,2.517-1.93c0,0,0.584,0.307,0.238,1.342
						C432.319,592.004,431.267,590.205,430.415,591.398z"/>
					<path fill="#E36A95" d="M426.41,591.199c0,0-0.006,0.148-0.01,0.387c-0.019,1.052,0.013,3.912,0.872,4.322
						c0,0,4.353,1.722,5.805,0.371c0,0,1.48-1.493,0.811-2.729c0,0-1.223,2.266-4.564,0.275
						C429.323,593.826,426.961,592.526,426.41,591.199z"/>
					<path fill="#E36A95" d="M434.179,589.647l0.03,1.805c0,0,2.19,2.436,1.437,6.045
						C435.646,597.496,439.445,593.537,434.179,589.647z"/>
					<path fill="#E36A95" d="M434.668,589.946c0,0,4.087,2.689,0.685,7.707C435.354,597.653,439.976,594.039,434.668,589.946z"/>
					<path fill="#FAD1DE" d="M435.47,597.899c0,0,3.606-4.619-0.978-8.012l0,0c0,0,3.23,1.734,1.153,7.609L435.47,597.899z"/>
					<path fill="#E36A95" d="M423.97,591.02c0,0-2.272,4.408,1.155,6.785c0,0,3.42,2.541,5.605,1.246c0,0,1.816-1.215,1.912-2.221
						c0,0-3.51,1.416-7.467-1.883C425.176,594.948,423.566,593.09,423.97,591.02z"/>
					<path fill="#E36A95" d="M434.209,591.451l-0.015,0.881c0,0,0.84,3.08-0.829,4.416c0,0-2.015,2.379-2.901,2.227
						c0,0,3.587,2.566,5.181-1.479C435.646,597.496,436.693,592.781,434.209,591.451z"/>
				</g>
				<g>
					<path fill="#D070AC" d="M419.572,594.762c0.82,0.012-5.509-0.338-4.948,5.184c0,0,0.497,2.074,4.175,4.445
						c0,0-4.828-4.905-1.558-6.666c0,0,0.123-1.402,1.785-1.501C419.028,596.224,420.03,594.49,419.572,594.762z"/>
					<path fill="#D070AC" d="M414.779,600.36c0,0,2.414,3.83,3.708,4.084c0,0-2.85-0.871-3.96-2.361
						C414.526,602.082,414.239,600.85,414.779,600.36z"/>
					<path fill="#FAD1DE" d="M414.66,602.414c0,0,2.314,4.756,8.532,1.592c1.656-1.014,1.643-1.035,2.467-2.043
						c0,0-0.216,2.705-0.672,2.977c0,0,1.912-2.578,0.805-6.309l-1.188-1.396c0,0-1.022-1.832-1.962-2.611
						c0,0,3.831,5.693-0.9,5.506c0,0,1.859-1.16,0.856-2.941c-0.327-0.617-0.879-1.594-2.233-0.465c0,0-0.923-0.75-0.882-0.648
						c0.042,0.102,0.3-1.093,0.511-1.555c0,0-0.943,0.906-0.908,1.555c0,0-1.952-0.17-1.879,1.42
						c0.415-0.242-2.517,1.213-0.906,3.076c0,0,0.838,2.219,1.825,2.979c0.803,0.617-2.798-2.182-2.907-2.846
						c0,0,1.807,3.398,3.32,3.869C418.539,604.573,415.86,603.559,414.66,602.414z"/>
					<path fill="#D070AC" d="M419.814,599.992c0,0-3.159-1.215-1.731-3.023c0,0,0.786-0.866,1.804,0.252
						C419.888,597.219,419.196,599.306,419.814,599.992z"/>
					<path fill="#D070AC" d="M420.223,597.067c0,0-0.365-0.764-0.729-0.823c0,0-0.015-3.274,2.856-2.069
						c0,0,3.819,5.152,0.654,5.819c0,0-0.965,0.31-1.275-0.035c0,0,2.067-1.208,0.677-3.105
						C422.406,596.853,421.757,595.805,420.223,597.067z"/>
					<path fill="#D070AC" d="M417.255,598.432c0,0,1.542,2.701,4.039,2.276c0,0-4.251,1.14-4.83-1.28
						C416.464,599.428,416.723,598.55,417.255,598.432z"/>
					<path fill="#D070AC" d="M421.016,598.336c0,0,0.591,0.771,0.497,1.238c0,0,1.017-0.307,0.512-1.277
						C422.025,598.297,421.622,597.741,421.016,598.336z"/>
					<path fill="#D070AC" d="M420.417,598.533c0,0,1.51,1.604-0.059,1.58c0,0-1.06-2.797,1.079-3.293c0,0,0.677-0.111,0.963,1.004
						C422.4,597.824,420.475,596.952,420.417,598.533z"/>
					<path fill="#D070AC" d="M416.849,600.949c0,0,0.078,0.129,0.21,0.34c0.579,0.918,2.226,3.365,3.2,3.164
						c0,0,4.729-1.326,5.218-3.43c0,0,0.431-2.244-0.846-2.876c0,0,0.229,2.743-3.781,3.187
						C420.851,601.334,418.076,601.738,416.849,600.949z"/>
					<path fill="#D070AC" d="M422.673,594.59l1.046,1.535c0,0,3.27,0.688,4.664,4.289
						C428.384,600.414,429.419,594.543,422.673,594.59z"/>
					<path fill="#D070AC" d="M423.264,594.533c0,0,5.047-0.322,4.956,6.207C428.22,600.74,430.16,594.635,423.264,594.533z"/>
					<path fill="#FAD1DE" d="M428.461,600.873c0,0,0.493-6.313-5.384-6.278l0,0c0,0,3.77-0.589,5.307,5.82L428.461,600.873z"/>
					<path fill="#D070AC" d="M414.643,602.369c0,0,0.535,5.271,4.839,5.109c0,0,4.391-0.02,5.543-2.548c0,0,0.877-2.223,0.39-3.151
						c0,0-2.225,3.488-7.507,3.201C417.908,604.981,415.467,604.416,414.643,602.369z"/>
					<path fill="#D070AC" d="M423.72,596.125l0.486,0.772c0,0,2.47,2.115,1.787,4.343c0,0-0.391,3.355-1.242,3.797
						c0,0,4.548-0.104,3.633-4.622C428.384,600.414,426.615,595.67,423.72,596.125z"/>
				</g>
			</g>
			<g>
				<path fill="#42AC49" d="M454.717,648.237c0,0,5.091-4.396,8.975,0.305C463.691,648.541,460.529,652.174,454.717,648.237z"/>
				<path fill="#42AC49" d="M447.611,635.475c0,0,6.306-1.889,8.133,4.072C455.744,639.547,451.493,641.545,447.611,635.475z"/>
				<g>
					<path fill="#E36A95" d="M460.281,634.117c0.631,0.488-4.11-3.467-6.49,1.15c0,0-0.673,1.902,0.978,5.884
						c0,0-1.25-6.622,2.189-6.087c0,0,0.812-1.02,2.153-0.127C459.111,634.938,460.775,634.174,460.281,634.117z"/>
					<path fill="#E36A95" stroke="#FAD1DE" stroke-miterlimit="10" d="M453.699,635.678c0,0-0.078,4.382,0.796,5.332
						c0,0-1.768-2.334-1.872-4.139C452.623,636.871,453.029,635.746,453.699,635.678z"/>
					<path fill="#FAD1DE" d="M452.559,637.207c0,0-0.628,5.041,5.816,6.202c1.806,0.176,1.807,0.15,2.961-0.151
						c0,0-1.547,1.976-2.04,1.92c0,0,2.8-0.89,3.844-4.436l-0.211-1.775c0,0,0.141-2.018-0.191-3.17c0,0,0.069,6.652-3.51,3.754
						c0,0,2.036,0.182,2.167-1.785c0.06-0.672,0.13-1.752-1.5-1.662c0,0-0.334-1.121-0.354-1.018s0.79-0.676,1.19-0.91
						c0,0-1.196,0.153-1.5,0.68c0,0-1.428-1.27-2.182,0.01c0.445,0.053-2.576-0.521-2.275,1.861c0,0-0.479,2.215-0.102,3.379
						c0.311,0.945-1.061-3.324-0.806-3.904c0,0-0.331,3.693,0.605,4.938C454.473,641.139,452.907,638.795,452.559,637.207z"/>
					<path fill="#E36A95" d="M457.799,638.323c0,0-1.834-2.781,0.199-3.355c0,0,1.053-0.217,1.272,1.244
						C459.271,636.211,457.668,637.43,457.799,638.323z"/>
					<path fill="#E36A95" d="M459.61,636.287c0,0,0.106-0.806-0.147-1.063c0,0,1.659-2.552,3.274,0.057c0,0,0.34,6.224-2.46,4.899
						c0,0-0.907-0.32-0.972-0.768c0,0,2.222,0.264,2.11-2.02C461.416,637.393,461.447,636.2,459.61,636.287z"/>
					<path fill="#E36A95" d="M456.607,635.621c0,0-0.18,2.997,1.977,4.121c0,0-3.885-1.592-3.101-3.805
						C455.483,635.938,456.134,635.403,456.607,635.621z"/>
					<path fill="#E36A95" d="M459.577,637.737c0,0,0.065,0.941-0.243,1.25c0,0,0.945,0.354,1.049-0.693
						C460.383,638.293,460.354,637.627,459.577,637.737z"/>
					<path fill="#E36A95" d="M459.012,637.541c0,0,0.355,2.125-0.85,1.192c0,0,0.603-2.788,2.517-1.93c0,0,0.585,0.307,0.237,1.343
						C460.916,638.147,459.864,636.346,459.012,637.541z"/>
					<path fill="#E36A95" d="M455.008,637.344c0,0-0.008,0.145-0.01,0.384c-0.019,1.052,0.013,3.912,0.871,4.323
						c0,0,4.354,1.721,5.806,0.371c0,0,1.479-1.494,0.81-2.729c0,0-1.221,2.266-4.563,0.275
						C457.921,639.969,455.559,638.668,455.008,637.344z"/>
					<path fill="#E36A95" d="M462.777,635.791l0.029,1.802c0,0,2.189,2.437,1.438,6.046
						C464.244,643.639,468.043,639.679,462.777,635.791z"/>
					<path fill="#E36A95" d="M463.266,636.088c0,0,4.088,2.689,0.686,7.708C463.951,643.796,468.573,640.182,463.266,636.088z"/>
					<path fill="#FAD1DE" d="M464.068,644.039c0,0,3.605-4.619-0.979-8.011l0,0c0,0,3.23,1.735,1.154,7.61L464.068,644.039z"/>
					<path fill="#E36A95" d="M452.567,637.162c0,0-2.272,4.406,1.155,6.787c0,0,3.42,2.539,5.606,1.243c0,0,1.816-1.216,1.911-2.222
						c0,0-3.511,1.418-7.467-1.881C453.772,641.091,452.165,639.232,452.567,637.162z"/>
					<path fill="#E36A95" d="M462.807,637.593l-0.016,0.88c0,0,0.84,3.084-0.828,4.418c0,0-2.016,2.379-2.902,2.227
						c0,0,3.588,2.565,5.184-1.479C464.244,643.639,465.291,638.922,462.807,637.593z"/>
				</g>
				<g>
					<path fill="#D070AC" d="M448.17,640.903c0.821,0.013-5.508-0.336-4.947,5.186c0,0,0.497,2.074,4.176,4.444
						c0,0-4.829-4.903-1.559-6.665c0,0,0.121-1.402,1.785-1.502C447.625,642.365,448.629,640.631,448.17,640.903z"/>
					<path fill="#D070AC" d="M443.377,646.502c0,0,2.414,3.83,3.707,4.084c0,0-2.85-0.873-3.96-2.361
						C443.124,648.225,442.836,646.993,443.377,646.502z"/>
					<path fill="#FAD1DE" d="M443.258,648.557c0,0,2.313,4.755,8.532,1.593c1.657-1.016,1.643-1.036,2.467-2.044
						c0,0-0.214,2.705-0.673,2.975c0,0,1.914-2.578,0.805-6.31l-1.187-1.394c0,0-1.022-1.832-1.962-2.612
						c0,0,3.83,5.694-0.902,5.505c0,0,1.861-1.158,0.859-2.939c-0.328-0.617-0.881-1.595-2.236-0.465c0,0-0.922-0.752-0.881-0.648
						c0.041,0.102,0.3-1.094,0.51-1.555c0,0-0.941,0.906-0.906,1.556c0,0-1.952-0.171-1.878,1.418
						c0.414-0.243-2.519,1.215-0.908,3.077c0,0,0.839,2.219,1.825,2.977c0.804,0.617-2.797-2.18-2.906-2.844
						c0,0,1.808,3.398,3.32,3.867C447.137,650.713,444.457,649.701,443.258,648.557z"/>
					<path fill="#D070AC" d="M448.411,646.134c0,0-3.157-1.214-1.729-3.022c0,0,0.785-0.867,1.803,0.252
						C448.484,643.362,447.793,645.449,448.411,646.134z"/>
					<path fill="#D070AC" d="M448.82,643.208c0,0-0.365-0.765-0.729-0.823c0,0-0.015-3.273,2.856-2.066c0,0,3.819,5.148,0.654,5.818
						c0,0-0.966,0.307-1.273-0.037c0,0,2.065-1.207,0.676-3.107C451.004,642.994,450.354,641.947,448.82,643.208z"/>
					<path fill="#D070AC" d="M445.852,644.573c0,0,1.543,2.703,4.039,2.277c0,0-4.251,1.14-4.829-1.279
						C445.062,645.571,445.32,644.692,445.852,644.573z"/>
					<path fill="#D070AC" d="M449.612,644.479c0,0,0.591,0.771,0.499,1.236c0,0,1.016-0.305,0.512-1.276
						C450.623,644.44,450.219,643.883,449.612,644.479z"/>
					<path fill="#D070AC" d="M449.016,644.674c0,0,1.509,1.605-0.059,1.58c0,0-1.061-2.797,1.078-3.291c0,0,0.676-0.113,0.965,1.004
						C451,643.967,449.072,643.094,449.016,644.674z"/>
					<path fill="#D070AC" d="M445.447,647.09c0,0,0.077,0.131,0.21,0.342c0.579,0.916,2.227,3.365,3.2,3.164
						c0,0,4.731-1.328,5.218-3.43c0,0,0.431-2.246-0.846-2.877c0,0,0.229,2.744-3.78,3.188
						C449.449,647.477,446.674,647.881,445.447,647.09z"/>
					<path fill="#D070AC" d="M451.27,640.733l1.048,1.537c0,0,3.269,0.687,4.665,4.287
						C456.982,646.557,458.016,640.686,451.27,640.733z"/>
					<path fill="#D070AC" d="M451.861,640.674c0,0,5.049-0.32,4.956,6.207C456.817,646.881,458.758,640.776,451.861,640.674z"/>
					<path fill="#FAD1DE" d="M457.059,647.016c0,0,0.493-6.314-5.383-6.277l0,0c0,0,3.77-0.592,5.307,5.818L457.059,647.016z"/>
					<path fill="#D070AC" d="M443.238,648.512c0,0,0.537,5.271,4.842,5.109c0,0,4.391-0.018,5.542-2.549
						c0,0,0.879-2.223,0.392-3.149c0,0-2.227,3.487-7.508,3.198C446.506,651.121,444.064,650.558,443.238,648.512z"/>
					<path fill="#D070AC" d="M452.317,642.27l0.485,0.77c0,0,2.471,2.115,1.788,4.346c0,0-0.391,3.354-1.242,3.795
						c0,0,4.549-0.104,3.634-4.623C456.982,646.557,455.214,641.813,452.317,642.27z"/>
				</g>
			</g>
			<g>
				<path fill="#42AC49" d="M498.344,599.791c0,0,5.091-4.398,8.978,0.305C507.321,600.096,504.157,603.727,498.344,599.791z"/>
				<path fill="#42AC49" d="M491.239,587.03c0,0,6.306-1.887,8.132,4.07C499.371,591.1,495.121,593.102,491.239,587.03z"/>
				<g>
					<path fill="#E36A95" d="M503.908,585.672c0.633,0.486-4.108-3.467-6.488,1.149c0,0-0.673,1.901,0.977,5.884
						c0,0-1.25-6.621,2.189-6.086c0,0,0.811-1.02,2.152-0.128C502.738,586.491,504.403,585.727,503.908,585.672z"/>
					<path fill="#E36A95" stroke="#FAD1DE" stroke-miterlimit="10" d="M497.326,587.234c0,0-0.078,4.38,0.798,5.331
						c0,0-1.769-2.336-1.872-4.14C496.252,588.425,496.658,587.301,497.326,587.234z"/>
					<path fill="#FAD1DE" d="M496.188,588.76c0,0-0.629,5.043,5.817,6.203c1.805,0.176,1.805,0.15,2.96-0.153
						c0,0-1.548,1.979-2.042,1.922c0,0,2.801-0.89,3.845-4.435l-0.211-1.775c0,0,0.141-2.02-0.192-3.171
						c0,0,0.071,6.653-3.509,3.754c0,0,2.037,0.183,2.166-1.786c0.062-0.671,0.131-1.752-1.499-1.661c0,0-0.333-1.12-0.354-1.017
						c-0.02,0.104,0.791-0.676,1.191-0.91c0,0-1.195,0.154-1.498,0.68c0,0-1.432-1.268-2.184,0.009
						c0.444,0.054-2.578-0.521-2.275,1.861c0,0-0.48,2.214-0.102,3.377c0.309,0.948-1.062-3.323-0.807-3.901
						c0,0-0.331,3.693,0.605,4.938C498.1,592.694,496.535,590.35,496.188,588.76z"/>
					<path fill="#E36A95" d="M501.427,589.877c0,0-1.835-2.781,0.198-3.355c0,0,1.054-0.217,1.273,1.245
						C502.898,587.767,501.297,588.985,501.427,589.877z"/>
					<path fill="#E36A95" d="M503.238,587.842c0,0,0.105-0.807-0.147-1.064c0,0,1.659-2.551,3.273,0.057c0,0,0.341,6.225-2.458,4.9
						c0,0-0.909-0.321-0.973-0.768c0,0,2.223,0.264,2.111-2.02C505.045,588.946,505.074,587.754,503.238,587.842z"/>
					<path fill="#E36A95" d="M500.234,587.175c0,0-0.18,2.997,1.977,4.121c0,0-3.884-1.589-3.1-3.806
						C499.111,587.49,499.762,586.958,500.234,587.175z"/>
					<path fill="#E36A95" d="M503.205,589.289c0,0,0.064,0.943-0.244,1.252c0,0,0.947,0.353,1.049-0.692
						C504.01,589.849,503.98,589.18,503.205,589.289z"/>
					<path fill="#E36A95" d="M502.641,589.095c0,0,0.354,2.126-0.853,1.192c0,0,0.604-2.787,2.519-1.93c0,0,0.583,0.307,0.237,1.342
						C504.544,589.699,503.492,587.901,502.641,589.095z"/>
					<path fill="#E36A95" d="M498.636,588.897c0,0-0.006,0.146-0.01,0.387c-0.02,1.051,0.013,3.91,0.872,4.321
						c0,0,4.353,1.722,5.805,0.37c0,0,1.479-1.492,0.81-2.728c0,0-1.223,2.267-4.563,0.276
						C501.549,591.524,499.187,590.223,498.636,588.897z"/>
					<path fill="#E36A95" d="M506.404,587.344l0.031,1.803c0,0,2.189,2.437,1.437,6.047
						C507.872,595.194,511.672,591.233,506.404,587.344z"/>
					<path fill="#E36A95" d="M506.895,587.645c0,0,4.086,2.686,0.683,7.705C507.578,595.35,512.201,591.737,506.895,587.645z"/>
					<path fill="#FAD1DE" d="M507.696,595.595c0,0,3.605-4.62-0.979-8.011l0,0c0,0,3.23,1.734,1.155,7.609L507.696,595.595z"/>
					<path fill="#E36A95" d="M496.195,588.715c0,0-2.272,4.408,1.154,6.787c0,0,3.421,2.54,5.607,1.244c0,0,1.815-1.216,1.911-2.221
						c0,0-3.511,1.418-7.467-1.881C497.401,592.645,495.792,590.785,496.195,588.715z"/>
					<path fill="#E36A95" d="M506.436,589.147l-0.016,0.883c0,0,0.839,3.08-0.829,4.415c0,0-2.015,2.38-2.902,2.227
						c0,0,3.587,2.567,5.184-1.478C507.872,595.194,508.919,590.477,506.436,589.147z"/>
				</g>
				<g>
					<path fill="#D070AC" d="M491.799,592.457c0.82,0.014-5.51-0.336-4.948,5.185c0,0,0.497,2.076,4.176,4.444
						c0,0-4.829-4.903-1.559-6.664c0,0,0.122-1.404,1.786-1.502C491.254,593.92,492.256,592.186,491.799,592.457z"/>
					<path fill="#D070AC" d="M487.004,598.057c0,0,2.414,3.828,3.707,4.083c0,0-2.849-0.872-3.959-2.362
						C486.752,599.778,486.465,598.547,487.004,598.057z"/>
					<path fill="#FAD1DE" d="M486.886,600.112c0,0,2.314,4.756,8.532,1.592c1.656-1.016,1.643-1.037,2.468-2.043
						c0,0-0.216,2.705-0.673,2.977c0,0,1.912-2.58,0.805-6.311l-1.188-1.396c0,0-1.023-1.833-1.962-2.612c0,0,3.829,5.694-0.9,5.506
						c0,0,1.858-1.159,0.856-2.939c-0.327-0.618-0.88-1.596-2.235-0.465c0,0-0.922-0.75-0.882-0.648
						c0.042,0.104,0.301-1.093,0.512-1.556c0,0-0.943,0.907-0.908,1.556c0,0-1.951-0.172-1.878,1.418
						c0.414-0.24-2.518,1.215-0.908,3.076c0,0,0.84,2.22,1.826,2.979c0.804,0.616-2.798-2.182-2.907-2.846
						c0,0,1.808,3.399,3.32,3.868C490.764,602.267,488.086,601.256,486.886,600.112z"/>
					<path fill="#D070AC" d="M492.039,597.688c0,0-3.157-1.215-1.729-3.021c0,0,0.785-0.867,1.804,0.251
						C492.113,594.917,491.423,597.002,492.039,597.688z"/>
					<path fill="#D070AC" d="M492.448,594.762c0,0-0.365-0.762-0.729-0.822c0,0-0.016-3.273,2.855-2.066
						c0,0,3.819,5.148,0.653,5.816c0,0-0.965,0.309-1.273-0.034c0,0,2.067-1.21,0.677-3.108
						C494.632,594.547,493.982,593.5,492.448,594.762z"/>
					<path fill="#D070AC" d="M489.48,596.128c0,0,1.542,2.7,4.039,2.277c0,0-4.252,1.138-4.83-1.28
						C488.689,597.125,488.947,596.246,489.48,596.128z"/>
					<path fill="#D070AC" d="M493.24,596.031c0,0,0.592,0.771,0.498,1.238c0,0,1.017-0.307,0.513-1.275
						C494.251,595.994,493.848,595.438,493.24,596.031z"/>
					<path fill="#D070AC" d="M492.643,596.229c0,0,1.51,1.605-0.059,1.579c0,0-1.059-2.796,1.078-3.29c0,0,0.678-0.113,0.965,1.002
						C494.627,595.52,492.701,594.649,492.643,596.229z"/>
					<path fill="#D070AC" d="M489.075,598.645c0,0,0.078,0.131,0.21,0.34c0.579,0.919,2.227,3.367,3.2,3.166
						c0,0,4.731-1.327,5.219-3.432c0,0,0.43-2.244-0.847-2.877c0,0,0.229,2.745-3.781,3.187
						C493.076,599.03,490.302,599.434,489.075,598.645z"/>
					<path fill="#D070AC" d="M494.899,592.285l1.046,1.539c0,0,3.269,0.686,4.665,4.285
						C500.61,598.11,501.645,592.239,494.899,592.285z"/>
					<path fill="#D070AC" d="M495.49,592.229c0,0,5.047-0.32,4.955,6.207C500.445,598.436,502.387,592.332,495.49,592.229z"/>
					<path fill="#FAD1DE" d="M500.686,598.571c0,0,0.494-6.314-5.382-6.279l0,0c0,0,3.77-0.59,5.308,5.818L500.686,598.571z"/>
					<path fill="#D070AC" d="M486.868,600.067c0,0,0.535,5.27,4.84,5.107c0,0,4.39-0.018,5.542-2.549c0,0,0.879-2.221,0.391-3.148
						c0,0-2.227,3.488-7.506,3.199C490.135,602.676,487.691,602.112,486.868,600.067z"/>
					<path fill="#D070AC" d="M495.945,593.824l0.486,0.77c0,0,2.469,2.115,1.788,4.345c0,0-0.392,3.356-1.243,3.794
						c0,0,4.549-0.102,3.635-4.623C500.61,598.11,498.842,593.365,495.945,593.824z"/>
				</g>
			</g>
			<g>
				<path fill="#42AC49" d="M465.551,607.656c0,0,5.092-4.396,8.978,0.306C474.528,607.961,471.365,611.594,465.551,607.656z"/>
				<path fill="#42AC49" d="M458.447,594.895c0,0,6.306-1.889,8.134,4.072C466.58,598.967,462.329,600.967,458.447,594.895z"/>
				<g>
					<path fill="#E36A95" d="M471.117,593.537c0.632,0.486-4.109-3.467-6.489,1.15c0,0-0.674,1.902,0.977,5.883
						c0,0-1.249-6.621,2.19-6.086c0,0,0.811-1.02,2.152-0.127C469.947,594.358,471.611,593.593,471.117,593.537z"/>
					<path fill="#E36A95" stroke="#FAD1DE" stroke-miterlimit="10" d="M464.535,595.098c0,0-0.078,4.383,0.797,5.332
						c0,0-1.768-2.336-1.872-4.139C463.46,596.291,463.865,595.166,464.535,595.098z"/>
					<path fill="#FAD1DE" d="M463.395,596.627c0,0-0.627,5.041,5.817,6.201c1.806,0.177,1.806,0.151,2.96-0.15
						c0,0-1.547,1.976-2.041,1.92c0,0,2.801-0.89,3.845-4.434l-0.21-1.775c0,0,0.14-2.02-0.192-3.172c0,0,0.07,6.652-3.51,3.754
						c0,0,2.036,0.182,2.166-1.785c0.062-0.672,0.13-1.752-1.499-1.662c0,0-0.335-1.121-0.354-1.016
						c-0.02,0.101,0.791-0.677,1.19-0.913c0,0-1.194,0.155-1.499,0.681c0,0-1.429-1.268-2.183,0.01
						c0.445,0.052-2.576-0.521-2.275,1.862c0,0-0.48,2.213-0.1,3.378c0.309,0.945-1.063-3.324-0.808-3.904
						c0,0-0.331,3.694,0.604,4.939C465.308,600.561,463.742,598.215,463.395,596.627z"/>
					<path fill="#E36A95" d="M468.636,597.744c0,0-1.834-2.783,0.197-3.357c0,0,1.053-0.216,1.273,1.244
						C470.106,595.631,468.506,596.85,468.636,597.744z"/>
					<path fill="#E36A95" d="M470.446,595.707c0,0,0.105-0.807-0.147-1.064c0,0,1.66-2.552,3.274,0.058c0,0,0.341,6.223-2.46,4.9
						c0,0-0.906-0.321-0.972-0.769c0,0,2.223,0.266,2.111-2.02C472.253,596.813,472.283,595.619,470.446,595.707z"/>
					<path fill="#E36A95" d="M467.443,595.042c0,0-0.179,2.995,1.977,4.118c0,0-3.885-1.589-3.099-3.805
						C466.321,595.356,466.97,594.824,467.443,595.042z"/>
					<path fill="#E36A95" d="M470.414,597.156c0,0,0.066,0.941-0.244,1.25c0,0,0.945,0.354,1.048-0.693
						C471.217,597.713,471.189,597.047,470.414,597.156z"/>
					<path fill="#E36A95" d="M469.85,596.961c0,0,0.354,2.125-0.853,1.192c0,0,0.604-2.789,2.519-1.93c0,0,0.582,0.308,0.236,1.342
						C471.752,597.566,470.7,595.768,469.85,596.961z"/>
					<path fill="#E36A95" d="M465.844,596.762c0,0-0.006,0.146-0.01,0.387c-0.02,1.051,0.013,3.912,0.871,4.322
						c0,0,4.354,1.723,5.806,0.371c0,0,1.479-1.494,0.81-2.729c0,0-1.223,2.266-4.563,0.276
						C468.757,599.39,466.395,598.088,465.844,596.762z"/>
					<path fill="#E36A95" d="M473.613,595.209l0.03,1.803c0,0,2.19,2.436,1.437,6.047
						C475.08,603.059,478.879,599.099,473.613,595.209z"/>
					<path fill="#E36A95" d="M474.104,595.508c0,0,4.084,2.689,0.683,7.708C474.786,603.216,479.409,599.601,474.104,595.508z"/>
					<path fill="#FAD1DE" d="M474.904,603.461c0,0,3.605-4.619-0.979-8.013l0,0c0,0,3.23,1.735,1.154,7.61L474.904,603.461z"/>
					<path fill="#E36A95" d="M463.404,596.581c0,0-2.273,4.407,1.154,6.786c0,0,3.42,2.539,5.606,1.246c0,0,1.815-1.216,1.911-2.222
						c0,0-3.51,1.415-7.466-1.882C464.61,600.511,463.001,598.652,463.404,596.581z"/>
					<path fill="#E36A95" d="M473.644,597.012l-0.017,0.883c0,0,0.841,3.08-0.828,4.416c0,0-2.014,2.381-2.9,2.227
						c0,0,3.587,2.566,5.182-1.479C475.08,603.059,476.127,598.342,473.644,597.012z"/>
				</g>
				<g>
					<path fill="#D070AC" d="M459.006,600.323c0.82,0.013-5.509-0.336-4.947,5.186c0,0,0.498,2.074,4.176,4.443
						c0,0-4.828-4.904-1.559-6.664c0,0,0.122-1.404,1.785-1.5C458.461,601.785,459.465,600.051,459.006,600.323z"/>
					<path fill="#D070AC" d="M454.213,605.922c0,0,2.413,3.83,3.707,4.084c0,0-2.85-0.871-3.96-2.363
						C453.96,607.643,453.673,606.412,454.213,605.922z"/>
					<path fill="#FAD1DE" d="M454.095,607.977c0,0,2.313,4.754,8.53,1.592c1.657-1.014,1.645-1.035,2.469-2.043
						c0,0-0.216,2.704-0.672,2.976c0,0,1.912-2.577,0.804-6.31l-1.188-1.395c0,0-1.021-1.833-1.961-2.613
						c0,0,3.829,5.695-0.901,5.506c0,0,1.859-1.158,0.858-2.94c-0.328-0.616-0.88-1.594-2.234-0.464c0,0-0.925-0.75-0.883-0.648
						c0.043,0.102,0.3-1.094,0.511-1.555c0,0-0.942,0.906-0.908,1.556c0,0-1.951-0.172-1.877,1.418
						c0.414-0.243-2.519,1.216-0.909,3.077c0,0,0.84,2.219,1.826,2.979c0.804,0.615-2.797-2.182-2.906-2.848
						c0,0,1.807,3.4,3.319,3.869C457.972,610.133,455.294,609.122,454.095,607.977z"/>
					<path fill="#D070AC" d="M459.247,605.555c0,0-3.157-1.217-1.73-3.023c0,0,0.787-0.867,1.804,0.25
						C459.32,602.781,458.63,604.867,459.247,605.555z"/>
					<path fill="#D070AC" d="M459.657,602.628c0,0-0.366-0.765-0.729-0.823c0,0-0.016-3.273,2.855-2.066
						c0,0,3.819,5.148,0.655,5.816c0,0-0.966,0.309-1.275-0.035c0,0,2.066-1.208,0.677-3.105
						C461.84,602.414,461.191,601.365,459.657,602.628z"/>
					<path fill="#D070AC" d="M456.688,603.992c0,0,1.542,2.703,4.04,2.277c0,0-4.252,1.141-4.83-1.278
						C455.898,604.991,456.157,604.112,456.688,603.992z"/>
					<path fill="#D070AC" d="M460.448,603.897c0,0,0.591,0.771,0.499,1.239c0,0,1.016-0.308,0.512-1.276
						C461.459,603.86,461.057,603.302,460.448,603.897z"/>
					<path fill="#D070AC" d="M459.851,604.094c0,0,1.511,1.605-0.059,1.581c0,0-1.06-2.798,1.079-3.292c0,0,0.677-0.113,0.965,1.004
						C461.836,603.387,459.909,602.516,459.851,604.094z"/>
					<path fill="#D070AC" d="M456.285,606.51c0,0,0.076,0.131,0.209,0.34c0.578,0.92,2.228,3.367,3.199,3.164
						c0,0,4.73-1.326,5.219-3.428c0,0,0.431-2.246-0.847-2.877c0,0,0.23,2.744-3.78,3.186
						C460.285,606.896,457.511,607.299,456.285,606.51z"/>
					<path fill="#D070AC" d="M462.106,600.155l1.048,1.535c0,0,3.269,0.686,4.664,4.286
						C467.818,605.976,468.853,600.106,462.106,600.155z"/>
					<path fill="#D070AC" d="M462.697,600.095c0,0,5.049-0.319,4.957,6.206C467.654,606.301,469.595,600.196,462.697,600.095z"/>
					<path fill="#FAD1DE" d="M467.894,606.436c0,0,0.495-6.312-5.382-6.279l0,0c0,0,3.77-0.59,5.307,5.819L467.894,606.436z"/>
					<path fill="#D070AC" d="M454.076,607.932c0,0,0.535,5.27,4.84,5.108c0,0,4.391-0.017,5.542-2.549c0,0,0.879-2.223,0.391-3.149
						c0,0-2.226,3.488-7.508,3.199C457.342,610.541,454.9,609.979,454.076,607.932z"/>
					<path fill="#D070AC" d="M463.154,601.69l0.485,0.77c0,0,2.471,2.117,1.787,4.344c0,0-0.391,3.355-1.242,3.797
						c0,0,4.549-0.104,3.634-4.624C467.818,605.976,466.05,601.231,463.154,601.69z"/>
				</g>
			</g>
		</g>
	</g>
</g>
<path fill="#FFFCFA" d="M480.379,543.45c0,1.362-4.074,2.268-5.23,2.268l-15.864,0.821c-1.155,0-2.092-1.104-2.092-2.465
	l2.789-5.059c0-1.362,9.479-3.233,10.634-3.233h8.544c1.154,0,1.773,3.232,1.773,4.595L480.379,543.45z"/>
<path fill="#FFFCFA" d="M431.188,544.555c0.097,1.359,4.228,1.968,5.378,1.884l15.885-0.325c1.151-0.083,2.006-1.251,1.907-2.61
	l-3.146-4.845c-0.099-1.358-9.687-2.542-10.839-2.458l-8.521,0.615c-1.153,0.083-1.538,3.352-1.438,4.71L431.188,544.555z"/>
<path fill="none" stroke="#FDE8F1" stroke-width="4" stroke-miterlimit="10" d="M456.17,541.159c0,0,0.97,15.889-30.979,16.454"/>
<path fill="#F5A9C1" d="M459.855,542.275c0,1.54-0.838,2.886-2.084,3.6c-0.419,0.241-0.883,0.412-1.375,0.494
	c-0.226,0.037-0.456,0.058-0.691,0.058c-2.294,0-4.151-1.859-4.151-4.151c0-2.292,1.857-4.151,4.151-4.151
	C457.998,538.124,459.855,539.984,459.855,542.275z"/>
<path fill="#C11E55" d="M461.102,527.272c0,4.93-4.107,8.925-9.176,8.925c-5.066,0-9.175-3.995-9.175-8.925
	c0-4.928,4.108-8.924,9.175-8.924C456.994,518.348,461.102,522.344,461.102,527.272z"/>
<path fill="#F6DFCA" d="M494.748,572.703c-15.861-17.791-31.44-29.786-37.829-24.092c-3.313,2.956,11.47,15.663,27.331,33.452
	c15.861,17.793,26.796,33.93,30.111,30.977C517.673,610.086,510.609,590.494,494.748,572.703z"/>
<path fill="#F5CFAF" d="M456.92,548.611c0,0,46.545,50.022,57.441,64.429c0,0-4.454,3.736-29.064-29.795l-16.08-17.274
	C469.217,565.971,454.689,549.814,456.92,548.611z"/>
<path fill="#F6DFCA" d="M415.084,580.106c5.354-23.225,13.248-41.235,21.588-39.312c4.325,0.998-2.527,19.248-7.883,42.474
	c-5.354,23.225-7.184,42.632-11.509,41.635C412.955,623.906,409.729,603.334,415.084,580.106z"/>
<path fill="#F5CFAF" d="M436.672,540.794c0,0-16.765,66.239-19.392,84.109c0,0,5.702,1.137,11.16-40.098l5.794-22.877
	C434.234,561.928,439.204,540.777,436.672,540.794z"/>
<path fill="#2D2E2D" d="M395.291,486.306c0,0,10.535-45.338,71.329-40.902c0,0,52.81,16.497,42.536,63.739
	c-0.081,0.829,2.218,111.791-131.644,110.027c0,0-34.145-1.494-24.568-32.348c0,0,1.805-4.947,10.688-8.834
	c0,0,14.066-1.943,8.143,10.777c0,0,0.186-8.656-8.328-3.533c0,0-4.627,9.009,8.514,10.775c0,0,17.398,3.711,24.8-16.606
	c0,0,1.058-22.236-0.978-33.721C395.784,545.681,391.955,490.677,395.291,486.306z"/>
</svg>
