<?xml version="1.0" encoding="utf-8"?>
<!-- Generator: Adobe Illustrator 15.1.0, SVG Export Plug-In  -->
<!DOCTYPE svg PUBLIC "-//W3C//DTD SVG 1.1//EN" "http://www.w3.org/Graphics/SVG/1.1/DTD/svg11.dtd" [
	<!ENTITY ns_flows "http://ns.adobe.com/Flows/1.0/">
]>
<svg version="1.1"
	 xmlns="http://www.w3.org/2000/svg" xmlns:xlink="http://www.w3.org/1999/xlink" xmlns:a="http://ns.adobe.com/AdobeSVGViewerExtensions/3.0/"
	 x="0px" y="0px" width="764px" height="1224px" viewBox="-40.823 -57.156 764 1224"
	 overflow="visible" enable-background="new -40.823 -57.156 764 1224" xml:space="preserve">
<defs>
</defs>
<path fill="#C8A788" d="M232.971,1024.545c-12.998,62.931,19.799,122.899-65.844,105.208
	c-34.724-7.174-52.347-64.008-39.348-126.938c13-62.933,51.696-108.131,86.421-100.958
	C248.939,909.033,245.97,961.611,232.971,1024.545z"/>
<path fill="#C8A788" d="M294.534,1031.933c-12.998,62.93-66.877,104.994,18.766,122.685c34.736,7.175,73.43-38.026,86.427-100.956
	c12.997-62.935-4.619-119.765-39.354-126.94C325.634,919.546,307.535,968.998,294.534,1031.933z"/>
<rect x="197.902" y="432.773" transform="matrix(0.9793 0.2023 -0.2023 0.9793 115.9085 -56.7408)" fill="#AC8762" width="275.304" height="211.859"/>
<path fill="#231F20" d="M321.368,97.539l-4.209-73.845c0,0,100.928-29.798,135.97-22.561c0,0,66.102,45.282,95.125,81.459
	l-21.579,57.354C526.674,139.947,396.736,74.183,321.368,97.539z"/>
<path fill="#C5D82F" d="M211.823,406.731l130.951,25.297l8.938,64.142l38.408-52.608l113.316,10.075l-15.307,26.893
	c0,0,141.714,24.887,130.624,245.243c0,0,19.167,107.255-20.916,101.267c0,0-44.632,13.735-47.822-108.571
	c0,0-4.824-49.205-10.991-96.387l-49.647,207.036l-367.675-89.145l32.607-199.654c0,0-61.464,108.968-65.557,128.774
	c0,0-35.397,132.703-84.8,46.758c0,0,25.459-304.012,215.982-270.704L211.823,406.731z"/>
<path fill="#1C8140" d="M144.014,603.352l-22.312,136.62l250.878,60.833c0,0-236.523-44.014-228.641-82.181
	C143.938,718.624,143.718,713.477,144.014,603.352z"/>
<path fill="#1C8140" d="M539.024,622.081c0,0-44.575,217.786-119.105,188.683l69.458,18.353L539.024,622.081z"/>
<polygon fill="#1C8140" points="430.287,580.024 434.284,655.286 481.8,662.875 503.441,591.714 "/>
<path fill="none" stroke="#A2DEF9" stroke-miterlimit="10" d="M432.925,602.114c0,0,46.657,13.188,64.711,8.663"/>
<path fill="#C8A788" d="M549.262,729.927c0,0,40.903-27.242,75.286,7.7c0,0,21.491,100.937-29.635,89.456
	C594.914,827.083,550.509,834.425,549.262,729.927z"/>
<path fill="#C8A788" d="M22.638,624.996c0,0,48.354-4.761,75.173,29.201c0,0-26.218,111.579-70.58,92.656
	C27.231,746.853-30.851,717.147,22.638,624.996z"/>
<path fill="#C8A788" d="M562.898,243.559c-31.235-35.02-45.592-73.2-3.077-111.13c42.509-37.937,102.3-40.304,133.543-5.288
	c31.248,35.015,22.115,94.147-20.397,132.082C630.453,297.159,594.15,278.567,562.898,243.559z"/>
<path fill="#F5C4D3" d="M562.862,243.587c-20.927-23.448-32.402-47.365-2.861-73.725c29.542-26.365,70.454-28.714,91.384-5.266
	c20.929,23.455,13.949,63.84-15.591,90.196C606.25,281.158,583.79,267.041,562.862,243.587z"/>
<path fill="#C8A788" d="M211.255,185.415c42.56-19.764,70.869-49.138,46.862-100.811c-24.004-51.67-77.966-77.532-120.527-57.766
	c-42.557,19.771-57.6,77.686-33.601,129.364C127.997,207.869,168.696,205.193,211.255,185.415z"/>
<path fill="#F5C4D3" d="M211.277,185.467c28.51-13.244,48.518-30.652,31.839-66.562c-16.682-35.908-53.31-54.279-81.819-41.034
	c-28.515,13.244-38.1,53.082-21.425,88.994C156.562,202.77,182.766,198.709,211.277,185.467z"/>
<path fill="#C8A788" d="M601.987,305.815c-29.438,142.521,10.605,191.445-252.147,137.172
	c-211.723-43.732-209.687-68.365-177.16-225.847c28.052-135.807,83.4-150.111,239.248-117.92
	C605.109,139.122,626.008,189.518,601.987,305.815z"/>
<g>
	<path fill="#D5B9A3" d="M475.676,428.251c-5.083,24.606-28.578,40.483-121.987,21.188c-93.26-19.263-116.613-37.58-111.302-63.292
		c7.462-36.128,62.726-99.245,121.853-87.033C440.235,314.813,489.408,361.771,475.676,428.251z"/>
</g>
<g>
	<path fill="#F497B2" d="M408.627,347.637c-2.123,10.291-18.302,15.644-36.119,11.963c-17.827-3.682-30.552-15.006-28.427-25.296
		c2.127-10.294,18.297-15.652,36.124-11.97C398.023,326.014,410.754,337.343,408.627,347.637z"/>
</g>
<g>
	<path fill="#E54174" d="M408,340.848c1.438,2.455,1.68,5.621,0.694,8.414c-1.017,2.81-3.16,5.062-5.531,6.736
		c-2.382,1.709-5.052,2.906-7.75,3.902c-0.676,0.25-1.36,0.472-2.047,0.683l-1.033,0.307l-0.259,0.074
		c-0.193,0.052-0.225,0.051-0.334,0.075l-0.542,0.101c-1.434,0.248-2.862,0.415-4.298,0.531c-5.736,0.401-11.545-0.058-17.095-1.565
		c-5.55-1.472-10.802-4.095-15.156-7.729c4.812,2.998,10.091,5.032,15.525,6.212c5.44,1.154,11.043,1.508,16.577,1.088
		c1.382-0.095,2.766-0.242,4.119-0.462l0.501-0.087c0.063-0.012,0.208-0.039,0.184-0.037l0.251-0.069l1.002-0.286l1.986-0.62
		c2.633-0.858,5.182-1.961,7.499-3.406c2.286-1.46,4.364-3.349,5.498-5.816C408.979,346.459,409.023,343.483,408,340.848z"/>
</g>
<path fill="none" stroke="#765739" stroke-miterlimit="10" stroke-dasharray="12" d="M386.877,290.24
	c19.932-96.496,19.894-96.306,36.029-174.424"/>
<path fill="#5D3B18" d="M324.919,182.893c0,0-65.606-105.152,71.727-105.37c0,0,117.514,0.172,118.371,62.465
	c0,0,3.655,52.943-13.617,65.929c0,0-2.479-21.213-15.793-25.292c0,0,7.655,35.538-21.528,40.826c0,0,10.81-26.397,0.117-55.614
	c0,0,7.008,70.15-26.236,66.914c0,0,21.365-37.052,7.731-70.738c0,0,9.575,40.869-41.126,86.911c0,0-21.17-44.451-4.913-96.421
	c0,0-31.132,56.079-14.831,71.799c0,0-35.768-49.35-19.791-83.079C365.031,141.223,336.01,151.171,324.919,182.893z"/>
<g>
	<defs>
		<path id="SVGID_1_" d="M112.367,731.022c0,0-21.223,46.84-41.428,99.989c-20.943,55.078-40.811,116.942-34.878,140.463
			l448.858,92.713c0,0,29.14-168.978,7.756-254.609L112.367,731.022z"/>
	</defs>
	<clipPath id="SVGID_2_">
		<use xlink:href="#SVGID_1_"  overflow="visible"/>
	</clipPath>
	<g clip-path="url(#SVGID_2_)">
		<path fill="#985A3A" d="M112.367,731.022c0,0-21.223,46.84-41.428,99.989c-20.943,55.078-40.811,116.942-34.878,140.463
			l448.858,92.713c0,0,29.14-168.978,7.756-254.609L112.367,731.022z"/>
		
			<rect x="93.875" y="733.237" transform="matrix(0.9793 0.2023 -0.2023 0.9793 154.6212 -8.4093)" fill="#E1CE20" width="49.162" height="38.188"/>
		
			<rect x="76.504" y="792.063" transform="matrix(0.9793 0.2023 -0.2023 0.9793 166.1913 -3.6774)" fill="#E1CE20" width="49.163" height="38.193"/>
		
			<rect x="54.198" y="849.872" transform="matrix(0.9793 0.2023 -0.2023 0.9793 177.3867 2.0267)" fill="#E1CE20" width="49.156" height="38.19"/>
		
			<rect x="36.824" y="908.7" transform="matrix(0.9793 0.2023 -0.2023 0.9793 188.9617 6.761)" fill="#E1CE20" width="49.161" height="38.192"/>
		
			<rect x="24.392" y="968.548" transform="matrix(0.9793 0.2023 -0.2023 0.9793 200.7866 10.5095)" fill="#E1CE20" width="49.163" height="38.188"/>
		
			<rect x="158.65" y="746.788" transform="matrix(0.9793 0.2023 -0.2023 0.9793 158.707 -21.2314)" fill="#E1CE20" width="49.162" height="38.188"/>
		
			<rect x="151.259" y="807.503" transform="matrix(0.9793 0.2023 -0.2023 0.9793 170.8626 -18.4811)" fill="#E1CE20" width="49.16" height="38.193"/>
		
			<rect x="138.895" y="867.366" transform="matrix(0.9793 0.2023 -0.2023 0.9793 182.6877 -14.7424)" fill="#E1CE20" width="49.158" height="38.19"/>
		
			<rect x="126.529" y="927.23" transform="matrix(0.9793 0.2023 -0.2023 0.9793 194.5784 -11.002)" fill="#E1CE20" width="49.158" height="38.191"/>
		
			<rect x="114.164" y="987.092" transform="matrix(0.9793 0.2023 -0.2023 0.9793 206.4172 -7.2639)" fill="#E1CE20" width="49.159" height="38.187"/>
		
			<rect x="230.249" y="761.576" transform="matrix(0.9793 0.2023 -0.2023 0.9793 163.1577 -35.4062)" fill="#E1CE20" width="49.163" height="38.189"/>
		
			<rect x="217.919" y="821.273" transform="matrix(0.9793 0.2023 -0.2023 0.9793 174.994 -31.68)" fill="#E1CE20" width="49.164" height="38.193"/>
		
			<rect x="289.519" y="836.06" transform="matrix(0.9793 0.2023 -0.2023 0.9793 179.4706 -45.8575)" fill="#E1CE20" width="49.162" height="38.194"/>
		
			<rect x="277.188" y="895.759" transform="matrix(0.9793 0.2023 -0.2023 0.9793 191.2836 -42.1284)" fill="#E1CE20" width="49.162" height="38.191"/>
		
			<rect x="348.784" y="910.548" transform="matrix(0.9793 0.2023 -0.2023 0.9793 195.7886 -56.3109)" fill="#E1CE20" width="49.168" height="38.19"/>
		
			<rect x="336.384" y="970.578" transform="matrix(0.9793 0.2023 -0.2023 0.9793 207.6744 -52.561)" fill="#E1CE20" width="49.168" height="38.192"/>
		
			<rect x="408.052" y="985.038" transform="matrix(0.9793 0.2023 -0.2023 0.9793 212.0398 -66.7517)" fill="#E1CE20" width="49.166" height="38.189"/>
		
			<rect x="395.721" y="1044.738" transform="matrix(0.9793 0.2023 -0.2023 0.9793 223.9063 -63.0317)" fill="#E1CE20" width="49.166" height="38.191"/>
		
			<rect x="467.189" y="1060.185" transform="matrix(0.9793 0.2023 -0.2023 0.9793 228.4727 -77.162)" fill="#E1CE20" width="49.163" height="38.184"/>
		
			<rect x="479.724" y="999.497" transform="matrix(0.9793 0.2023 -0.2023 0.9793 216.4743 -80.9563)" fill="#E1CE20" width="49.162" height="38.192"/>
		
			<rect x="323.986" y="1030.605" transform="matrix(0.9793 0.2023 -0.2023 0.9793 219.5312 -48.8081)" fill="#E1CE20" width="49.168" height="38.186"/>
		
			<rect x="420.384" y="925.338" transform="matrix(0.9793 0.2023 -0.2023 0.9793 200.2594 -70.4893)" fill="#E1CE20" width="49.166" height="38.191"/>
		
			<rect x="491.986" y="940.126" transform="matrix(0.9793 0.2023 -0.2023 0.9793 204.7362 -84.6697)" fill="#E1CE20" width="49.163" height="38.192"/>
		
			<rect x="264.856" y="955.46" transform="matrix(0.9793 0.2023 -0.2023 0.9793 203.1393 -38.4031)" fill="#E1CE20" width="49.163" height="38.187"/>
		
			<rect x="252.525" y="1015.159" transform="matrix(0.9793 0.2023 -0.2023 0.9793 214.9621 -34.6741)" fill="#E1CE20" width="49.163" height="38.191"/>
		
			<rect x="361.114" y="850.85" transform="matrix(0.9793 0.2023 -0.2023 0.9793 183.9435 -60.0346)" fill="#E1CE20" width="49.167" height="38.195"/>
		
			<rect x="432.715" y="865.64" transform="matrix(0.9793 0.2023 -0.2023 0.9793 188.4041 -74.2087)" fill="#E1CE20" width="49.165" height="38.192"/>
		
			<rect x="494.757" y="878.455" transform="matrix(0.9793 0.2023 -0.2023 0.9793 192.3196 -86.5057)" fill="#E1CE20" width="49.157" height="38.191"/>
		
			<rect x="205.588" y="880.971" transform="matrix(0.9793 0.2023 -0.2023 0.9793 186.8375 -27.9528)" fill="#E1CE20" width="49.162" height="38.19"/>
		
			<rect x="193.257" y="940.669" transform="matrix(0.9793 0.2023 -0.2023 0.9793 198.6477 -24.2239)" fill="#E1CE20" width="49.163" height="38.19"/>
		
			<rect x="180.926" y="1000.368" transform="matrix(0.9793 0.2023 -0.2023 0.9793 210.4451 -20.4954)" fill="#E1CE20" width="49.161" height="38.192"/>
		
			<rect x="301.849" y="776.366" transform="matrix(0.9793 0.2023 -0.2023 0.9793 167.6485 -49.5854)" fill="#E1CE20" width="49.163" height="38.188"/>
		
			<rect x="373.445" y="791.155" transform="matrix(0.9793 0.2023 -0.2023 0.9793 172.1329 -63.7656)" fill="#E1CE20" width="49.169" height="38.189"/>
		
			<rect x="452.457" y="807.477" transform="matrix(0.9793 0.2023 -0.2023 0.9793 177.1043 -79.4225)" fill="#E1CE20" width="49.159" height="38.187"/>
	</g>
</g>
<path fill="none" stroke="#5D3B18" stroke-miterlimit="10" stroke-dasharray="12" d="M184.055,998.699
	c0,0-42.033,116.254,2.967,135.162"/>
<path fill="none" stroke="#5D3B18" stroke-miterlimit="10" stroke-dasharray="12" d="M341.645,1041.664
	c0,0,3.334,98.065-52.162,106.073"/>
<path fill="#C0875D" d="M365.031,141.223c0,0-41.672,40.006-40.111,41.669C324.919,182.893,330.54,151.956,365.031,141.223z"/>
<path fill="#C0875D" d="M399.652,152.503c0,0-20.768,56.411-15.939,70.205C383.713,222.708,369.043,213.207,399.652,152.503z"/>
<path fill="#C0875D" d="M445.941,163.432c0,0,8.777,27.66-7.981,69.319C437.959,232.751,463.259,194.153,445.941,163.432z"/>
<path fill="#C0875D" d="M501.4,205.917c0,0-0.842-18.969-15.793-25.292C485.607,180.625,498.21,193.675,501.4,205.917z"/>
<g>
	<path fill="#5D3B18" d="M429.936,283.845c1.837,17.11,10.292,33.312,23.721,43.271c6.69,4.973,14.374,8.524,22.459,10.681
		c4.04,1.089,8.159,1.927,12.332,2.474c1.043,0.135,2.088,0.261,3.136,0.365l0.786,0.078l0.339,0.039l0.174,0.025l0.371,0.05
		l1.533,0.172c2.065,0.202,4.16,0.313,6.252,0.351c8.367,0.212,16.802-0.728,24.712-3.214c3.956-1.226,7.775-2.865,11.299-4.987
		c3.521-2.123,6.76-4.7,9.577-7.702c5.634-6.026,9.384-13.76,11.405-21.961c2.104-8.215,2.586-16.857,2.441-25.476
		c1.248,8.535,1.455,17.32-0.041,25.989c-0.768,4.324-2.011,8.598-3.786,12.685c-1.781,4.083-4.187,7.929-7.106,11.358
		c-5.82,6.938-13.881,11.739-22.326,14.597c-8.509,2.826-17.445,3.846-26.289,3.708c-2.216-0.06-4.427-0.197-6.648-0.434
		l-1.677-0.204l-0.429-0.062l-0.226-0.035c-0.144-0.019,0.14,0.017,0.091,0.011l-0.051-0.005l-0.103-0.011l-0.821-0.089
		c-1.095-0.119-2.188-0.26-3.28-0.412c-4.364-0.631-8.715-1.491-12.963-2.77c-8.475-2.543-16.69-6.458-23.564-12.164
		c-3.437-2.831-6.58-6.024-9.251-9.566c-2.675-3.537-4.938-7.362-6.749-11.369c-1.78-4.021-3.16-8.199-4.059-12.465
		C430.301,292.513,429.791,288.167,429.936,283.845z"/>
</g>
<g>
	<path fill="#5D3B18" d="M225.746,219.055c-3.812,16.781-1.069,34.85,8.405,48.626c4.716,6.874,10.833,12.726,17.782,17.388
		c3.468,2.341,7.093,4.469,10.862,6.34c0.943,0.466,1.891,0.924,2.848,1.363l0.718,0.329l0.306,0.146l0.158,0.082l0.335,0.167
		l1.395,0.66c1.888,0.861,3.833,1.646,5.8,2.36c7.846,2.914,16.13,4.761,24.419,4.975c4.14,0.125,8.283-0.19,12.307-1.051
		c4.018-0.871,7.92-2.251,11.557-4.182c7.282-3.875,13.341-9.971,17.913-17.074c4.65-7.092,7.918-15.106,10.569-23.308
		c-1.581,8.481-4.244,16.854-8.464,24.572c-2.134,3.838-4.688,7.483-7.698,10.77c-3.008,3.286-6.532,6.142-10.405,8.44
		c-7.754,4.676-16.938,6.604-25.853,6.567c-8.966-0.086-17.75-2.021-26.071-5.019c-2.077-0.776-4.124-1.622-6.147-2.567l-1.52-0.737
		l-0.386-0.198l-0.2-0.105c-0.128-0.063,0.124,0.059,0.081,0.039l-0.047-0.022l-0.094-0.044l-0.748-0.351
		c-0.997-0.468-1.985-0.956-2.969-1.454c-3.923-2.012-7.761-4.237-11.365-6.824c-7.192-5.154-13.694-11.522-18.346-19.149
		c-2.333-3.792-4.271-7.832-5.648-12.049c-1.383-4.214-2.285-8.565-2.697-12.943c-0.379-4.381-0.33-8.781,0.204-13.108
		C223.281,227.372,224.208,223.096,225.746,219.055z"/>
</g>
</svg>
