<?xml version="1.0" encoding="utf-8"?>
<!-- Generator: Adobe Illustrator 15.1.0, SVG Export Plug-In . SVG Version: 6.00 Build 0)  -->
<!DOCTYPE svg PUBLIC "-//W3C//DTD SVG 1.1//EN" "http://www.w3.org/Graphics/SVG/1.1/DTD/svg11.dtd">
<svg version="1.1" id="Layer_1" xmlns="http://www.w3.org/2000/svg" xmlns:xlink="http://www.w3.org/1999/xlink" x="0px" y="0px"
	 width="1492.312px" height="901.705px" viewBox="27.843 0 1492.312 901.705" enable-background="new 27.843 0 1492.312 901.705"
	 xml:space="preserve">
<g>
	
		<linearGradient id="SVGID_1_" gradientUnits="userSpaceOnUse" x1="-261.6621" y1="1795.0598" x2="-274.4442" y2="2327.6638" gradientTransform="matrix(1 0 0 -1 1030.3398 2254.106)">
		<stop  offset="0" style="stop-color:#D5EDE8"/>
		<stop  offset="0.1841" style="stop-color:#CFEBE8"/>
		<stop  offset="0.4246" style="stop-color:#BDE5E8"/>
		<stop  offset="0.6964" style="stop-color:#A0DBE8"/>
		<stop  offset="0.9893" style="stop-color:#73CFE8"/>
		<stop  offset="1" style="stop-color:#71CEE8"/>
	</linearGradient>
	<rect x="10.325" y="0" fill="url(#SVGID_1_)" width="1509.831" height="631.631"/>
	
		<linearGradient id="SVGID_2_" gradientUnits="userSpaceOnUse" x1="-256.1816" y1="1449.1917" x2="-265.2298" y2="1826.2119" gradientTransform="matrix(1 0 0 -1 1030.3398 2254.106)">
		<stop  offset="0" style="stop-color:#91C83E"/>
		<stop  offset="0.1486" style="stop-color:#8CC63F"/>
		<stop  offset="0.3427" style="stop-color:#7BC143"/>
		<stop  offset="0.5622" style="stop-color:#59BA47"/>
		<stop  offset="0.7983" style="stop-color:#00B04C"/>
		<stop  offset="1" style="stop-color:#00A750"/>
	</linearGradient>
	<rect x="10.325" y="485.412" fill="url(#SVGID_2_)" width="1522.798" height="436.223"/>
	<polygon fill="#CF9A56" points="603.325,344.856 578.439,690.548 623.92,690.548 623.92,332.965 601.18,332.965 	"/>
	<path fill="#548640" d="M615.793,321.581c0,0-135.279-29.197-152.797,145.984l18.492-44.63l4.866,25.164l10.706-50.12l3.893,39.415
		c0,0,12.652-47.349,16.545-52.87l-0.973,38.411c0,0,14.598-49.772,22.87-53.666c0,0-12.166,35.083,0,47.226
		c0,0,4.38-40.412,10.219-53.065c0,0-6.812,41.85,5.839,43.796c0,0,6.813-50.608,13.626-56.448c0,0-4.867,14.938,4.865,33.747
		c0,0,6.813-37.639,21.411-43.479L615.793,321.581z"/>
	<path fill="#548640" d="M618.229,319.421c0,0-114.39,77.897,0.47,211.323l-19.594-44.157l21.588,13.818l-28.938-42.3l31.242,24.344
		c0,0-25.588-41.799-26.907-48.427l27.162,27.179c0,0-26.004-44.881-23.123-53.559c0,0,17.036,32.994,34.218,32.547
		c0,0-26.264-31.025-31.407-43.976c0,0,25.628,33.778,35.758,25.952c0,0-31.974-39.814-31.51-48.775c0,0,7.47,13.821,27.805,19.731
		c0,0-22.577-30.876-16.745-45.478L618.229,319.421z"/>
	<path fill="#548640" d="M617.18,346.532c0,0,33.165-117.871-120.582-142.899l38.405,18.764l-22.49,2.925l43.678,12.188
		l-35.02,1.287c0,0,41.124,13.756,45.788,17.495l-33.868-2.955c0,0,43.159,15.608,46.145,23.126c0,0-30.318-12.658-41.704-2.577
		c0,0,35.449,6.072,46.304,11.919c0,0-36.585-8.299-38.995,2.769c0,0,44.321,8.776,49.106,15.112c0,0-12.927-5.112-30.066,2.456
		c0,0,32.867,8.069,37.227,21.279L617.18,346.532z"/>
	<path fill="#548640" d="M619.293,343.04c0,0-33.164-117.872,120.583-142.9l-38.404,18.766l22.488,2.924l-43.678,12.188
		l35.021,1.289c0,0-41.124,13.755-45.788,17.495l33.868-2.955c0,0-43.159,15.606-46.145,23.124c0,0,30.317-12.656,41.704-2.575
		c0,0-35.449,6.072-46.304,11.919c0,0,36.585-8.3,38.995,2.767c0,0-44.321,8.777-49.106,15.113c0,0,12.927-5.112,30.066,2.456
		c0,0-32.867,8.069-37.228,21.28L619.293,343.04z"/>
	<path fill="#548640" d="M620.192,325.749c0,0,111.138-51.4,160.184,96.446l-24.607-34.949l0.672,22.669l-18.947-41.198
		l4.271,34.782c0,0-20.091-38.429-24.522-42.442l8.278,32.973c0,0-22.242-40.144-30.136-41.902c0,0,17.296,27.934,9.144,40.771
		c0,0-11.606-34.042-19.097-43.833c0,0,13.984,34.81,3.438,38.941c0,0-15.682-42.375-22.693-46.097c0,0,7.093,11.954,2.333,30.078
		c0,0-13.169-31.177-26.903-33.392L620.192,325.749z"/>
	<path fill="#548640" d="M632.046,320.765c0,0,57.228-108.253,185.861-20.401l-40.757-12.879l14.276,17.62l-40.044-21.278
		l24.482,25.074c0,0-39.274-18.385-45.231-18.89l26.573,21.206c0,0-42.025-18.444-49.37-15.058c0,0,30.689,11.73,31.989,26.883
		c0,0-29.867-20.039-41.761-23.284c0,0,32.225,19.207,26.341,28.886c0,0-38.158-24.194-45.992-22.902c0,0,12.89,5.206,20.089,22.505
		c0,0-29.373-16.811-41.639-10.247L632.046,320.765z"/>
	<path fill="#548640" d="M615.793,321.739c0,0-57.227-108.253-185.862-20.402l40.757-12.879l-14.277,17.621l40.044-21.279
		l-24.482,25.074c0,0,39.274-18.384,45.231-18.888l-26.572,21.205c0,0,42.024-18.445,49.37-15.057c0,0-30.689,11.729-31.988,26.882
		c0,0,29.868-20.038,41.761-23.285c0,0-32.226,19.208-26.342,28.887c0,0,38.158-24.193,45.992-22.902
		c0,0-12.889,5.206-20.089,22.505c0,0,29.373-16.811,41.638-10.247L615.793,321.739z"/>
	<path fill="#548640" d="M608.008,317.102c0,0,131.607,42.809,58.635,203.028l6.466-47.876l-16.863,19.304l15.957-48.704
		l-23.19,32.109c0,0,12.88-47.287,12.294-54.019l-18.479,33.688c0,0,12.417-50.36,7.226-57.887c0,0-7.131,36.441-23.753,40.817
		c0,0,16.541-37.133,17.857-51.004c0,0-15.161,39.597-27.075,34.915c0,0,19.567-47.167,16.615-55.64c0,0-3.307,15.356-21.179,26.718
		c0,0,13.043-35.958,3.363-48.348L608.008,317.102z"/>
	<polygon fill="#CF9A56" points="369.037,384.603 344.152,730.294 389.632,730.294 389.632,372.712 366.892,372.712 	"/>
	<path fill="#548640" d="M381.506,361.328c0,0-135.279-29.198-152.797,145.984l18.491-44.63l4.866,25.165l10.706-50.122
		l3.893,39.416c0,0,12.652-47.349,16.545-52.87l-0.972,38.411c0,0,14.598-49.773,22.871-53.666c0,0-12.166,35.082,0,47.225
		c0,0,4.379-40.413,10.219-53.064c0,0-6.813,41.849,5.839,43.796c0,0,6.812-50.608,13.625-56.448c0,0-4.866,14.938,4.866,33.747
		c0,0,6.813-37.639,21.412-43.479L381.506,361.328z"/>
	<path fill="#548640" d="M383.941,359.168c0,0-114.389,77.897,0.469,211.325l-19.593-44.159l21.589,13.818l-28.939-42.3
		l31.243,24.344c0,0-25.588-41.8-26.907-48.426l27.161,27.178c0,0-26.003-44.882-23.123-53.56c0,0,17.036,32.994,34.218,32.548
		c0,0-26.264-31.025-31.406-43.976c0,0,25.628,33.778,35.758,25.952c0,0-31.974-39.814-31.51-48.775c0,0,7.47,13.821,27.805,19.731
		c0,0-22.578-30.876-16.747-45.479L383.941,359.168z"/>
	<path fill="#548640" d="M382.893,386.279c0,0,33.165-117.873-120.583-142.901l38.404,18.765l-22.49,2.925l43.679,12.188
		l-35.021,1.288c0,0,41.123,13.756,45.788,17.495l-33.869-2.955c0,0,43.16,15.607,46.145,23.125c0,0-30.318-12.657-41.704-2.577
		c0,0,35.449,6.072,46.304,11.919c0,0-36.585-8.298-38.995,2.768c0,0,44.321,8.778,49.106,15.113c0,0-12.926-5.112-30.066,2.456
		c0,0,32.866,8.068,37.226,21.279L382.893,386.279z"/>
	<path fill="#548640" d="M385.005,382.786c0,0-33.165-117.871,120.582-142.899l-38.403,18.765l22.488,2.925l-43.678,12.188
		l35.021,1.289c0,0-41.124,13.755-45.788,17.494l33.869-2.955c0,0-43.159,15.608-46.145,23.125c0,0,30.318-12.658,41.704-2.576
		c0,0-35.449,6.073-46.304,11.92c0,0,36.585-8.3,38.994,2.767c0,0-44.32,8.777-49.105,15.113c0,0,12.927-5.112,30.067,2.456
		c0,0-32.866,8.069-37.228,21.279L385.005,382.786z"/>
	<path fill="#548640" d="M385.905,365.496c0,0,111.138-51.401,160.184,96.446l-24.607-34.95l0.671,22.669l-18.947-41.198
		l4.271,34.782c0,0-20.091-38.429-24.521-42.441l8.278,32.973c0,0-22.242-40.144-30.137-41.903c0,0,17.296,27.934,9.145,40.771
		c0,0-11.606-34.041-19.098-43.833c0,0,13.985,34.81,3.438,38.94c0,0-15.68-42.372-22.693-46.096c0,0,7.093,11.954,2.333,30.077
		c0,0-13.169-31.176-26.903-33.391L385.905,365.496z"/>
	<path fill="#548640" d="M397.759,360.512c0,0,57.227-108.253,185.862-20.402l-40.757-12.879l14.277,17.621l-40.044-21.278
		l24.482,25.073c0,0-39.274-18.384-45.231-18.889l26.573,21.205c0,0-42.025-18.443-49.371-15.057c0,0,30.69,11.73,31.989,26.882
		c0,0-29.867-20.038-41.761-23.283c0,0,32.226,19.207,26.342,28.885c0,0-38.159-24.194-45.993-22.902
		c0,0,12.889,5.207,20.089,22.506c0,0-29.373-16.811-41.639-10.247L397.759,360.512z"/>
	<path fill="#548640" d="M381.506,361.486c0,0-57.228-108.253-185.861-20.402l40.757-12.879l-14.278,17.62l40.045-21.278
		l-24.482,25.074c0,0,39.274-18.384,45.231-18.889l-26.573,21.205c0,0,42.025-18.444,49.371-15.057c0,0-30.689,11.73-31.989,26.883
		c0,0,29.867-20.038,41.761-23.284c0,0-32.226,19.207-26.342,28.886c0,0,38.158-24.194,45.992-22.902
		c0,0-12.888,5.206-20.089,22.505c0,0,29.373-16.811,41.638-10.246L381.506,361.486z"/>
	<path fill="#548640" d="M373.72,356.849c0,0,131.607,42.809,58.635,203.027l6.466-47.874l-16.863,19.302l15.958-48.704
		l-23.19,32.11c0,0,12.88-47.288,12.293-54.019l-18.479,33.688c0,0,12.417-50.361,7.226-57.888c0,0-7.131,36.441-23.753,40.817
		c0,0,16.541-37.132,17.857-51.004c0,0-15.162,39.597-27.075,34.915c0,0,19.566-47.168,16.615-55.641c0,0-3.308,15.357-21.179,26.72
		c0,0,13.043-35.959,3.362-48.349L373.72,356.849z"/>
	<polygon fill="#CF9A56" points="145.765,338.698 120.879,684.389 166.359,684.389 166.359,326.807 143.619,326.807 	"/>
	<path fill="#548640" d="M158.233,315.423c0,0-135.28-29.197-152.797,145.984l18.491-44.631l4.867,25.165l10.706-50.121
		l3.893,39.416c0,0,12.652-47.349,16.545-52.871l-0.974,38.411c0,0,14.598-49.773,22.871-53.666c0,0-12.166,35.082,0,47.225
		c0,0,4.379-40.412,10.219-53.064c0,0-6.812,41.849,5.839,43.796c0,0,6.812-50.608,13.625-56.448c0,0-4.866,14.938,4.866,33.746
		c0,0,6.813-37.639,21.412-43.479L158.233,315.423z"/>
	<path fill="#548640" d="M160.668,313.262c0,0-114.389,77.897,0.469,211.324l-19.593-44.157l21.588,13.818l-28.938-42.301
		l31.243,24.345c0,0-25.589-41.8-26.907-48.428l27.162,27.178c0,0-26.004-44.879-23.123-53.557c0,0,17.036,32.993,34.218,32.546
		c0,0-26.263-31.024-31.406-43.976c0,0,25.628,33.779,35.758,25.953c0,0-31.975-39.814-31.511-48.775c0,0,7.47,13.821,27.806,19.731
		c0,0-22.577-30.876-16.747-45.479L160.668,313.262z"/>
	<path fill="#548640" d="M159.62,340.374c0,0,33.165-117.872-120.583-142.9l38.404,18.765l-22.489,2.925l43.678,12.188
		l-35.021,1.287c0,0,41.124,13.757,45.788,17.496l-33.869-2.956c0,0,43.159,15.607,46.145,23.125c0,0-30.318-12.657-41.704-2.576
		c0,0,35.45,6.072,46.304,11.919c0,0-36.585-8.299-38.995,2.769c0,0,44.321,8.775,49.106,15.111c0,0-12.927-5.111-30.066,2.457
		c0,0,32.867,8.069,37.227,21.279L159.62,340.374z"/>
	<path fill="#548640" d="M161.731,336.883c0,0-33.164-117.873,120.583-142.901l-38.404,18.766l22.489,2.925l-43.677,12.188
		l35.02,1.288c0,0-41.124,13.756-45.788,17.496l33.868-2.955c0,0-43.159,15.606-46.145,23.123c0,0,30.318-12.656,41.704-2.574
		c0,0-35.449,6.071-46.304,11.919c0,0,36.584-8.3,38.994,2.767c0,0-44.32,8.777-49.104,15.113c0,0,12.926-5.112,30.066,2.455
		c0,0-32.868,8.07-37.227,21.28L161.731,336.883z"/>
	<path fill="#548640" d="M162.632,319.592c0,0,111.138-51.401,160.183,96.446l-24.607-34.95l0.672,22.669l-18.947-41.198
		l4.271,34.782c0,0-20.09-38.429-24.521-42.442l8.278,32.974c0,0-22.241-40.145-30.137-41.903c0,0,17.296,27.934,9.145,40.771
		c0,0-11.606-34.041-19.097-43.833c0,0,13.984,34.81,3.438,38.941c0,0-15.681-42.374-22.694-46.095c0,0,7.093,11.953,2.334,30.076
		c0,0-13.169-31.176-26.904-33.392L162.632,319.592z"/>
	<path fill="#548640" d="M174.486,314.607c0,0,57.227-108.253,185.861-20.402l-40.757-12.879l14.276,17.621l-40.044-21.279
		l24.482,25.074c0,0-39.273-18.384-45.23-18.889l26.572,21.205c0,0-42.024-18.444-49.37-15.057c0,0,30.689,11.73,31.989,26.882
		c0,0-29.867-20.038-41.761-23.283c0,0,32.225,19.207,26.342,28.885c0,0-38.158-24.194-45.992-22.902c0,0,12.889,5.207,20.09,22.506
		c0,0-29.374-16.811-41.639-10.247L174.486,314.607z"/>
	<path fill="#548640" d="M158.233,315.58c0,0-57.228-108.252-185.861-20.401L13.128,282.3l-14.277,17.621l40.045-21.279
		l-24.482,25.073c0,0,39.275-18.383,45.23-18.887l-26.572,21.205c0,0,42.024-18.445,49.37-15.057c0,0-30.689,11.729-31.988,26.881
		c0,0,29.867-20.037,41.761-23.284c0,0-32.226,19.208-26.342,28.885c0,0,38.159-24.193,45.993-22.901
		c0,0-12.889,5.207-20.089,22.506c0,0,29.373-16.812,41.638-10.247L158.233,315.58z"/>
	<path fill="#548640" d="M150.447,310.944c0,0,131.607,42.808,58.635,203.029l6.467-47.876L198.685,485.4l15.958-48.704
		l-23.19,32.107c0,0,12.88-47.287,12.293-54.018l-18.479,33.689c0,0,12.417-50.362,7.226-57.889c0,0-7.132,36.441-23.754,40.817
		c0,0,16.541-37.133,17.858-51.004c0,0-15.161,39.596-27.075,34.915c0,0,19.567-47.167,16.615-55.641c0,0-3.307,15.357-21.18,26.719
		c0,0,13.044-35.958,3.364-48.348L150.447,310.944z"/>
	<polygon fill="#CF9A56" points="478.93,507.313 454.045,853.004 499.525,853.004 499.525,495.422 476.785,495.422 	"/>
	<path fill="#548640" d="M491.399,484.038c0,0-135.279-29.196-152.797,145.984l18.491-44.631l4.866,25.166l10.705-50.121
		l3.894,39.415c0,0,12.652-47.349,16.545-52.87l-0.974,38.41c0,0,14.598-49.772,22.871-53.665c0,0-12.166,35.082,0,47.225
		c0,0,4.38-40.412,10.219-53.065c0,0-6.813,41.85,5.839,43.796c0,0,6.813-50.608,13.625-56.447c0,0-4.866,14.938,4.866,33.747
		c0,0,6.813-37.64,21.411-43.479L491.399,484.038z"/>
	<path fill="#548640" d="M493.834,481.878c0,0-114.389,77.897,0.469,211.324l-19.593-44.158l21.588,13.819l-28.938-42.301
		l31.243,24.344c0,0-25.588-41.799-26.907-48.427l27.161,27.179c0,0-26.004-44.881-23.123-53.559c0,0,17.036,32.993,34.219,32.547
		c0,0-26.264-31.025-31.407-43.976c0,0,25.628,33.778,35.758,25.953c0,0-31.975-39.815-31.51-48.775c0,0,7.469,13.82,27.805,19.731
		c0,0-22.578-30.876-16.747-45.479L493.834,481.878z"/>
	<path fill="#548640" d="M492.786,508.989c0,0,33.164-117.872-120.583-142.9l38.404,18.765l-22.489,2.925l43.678,12.188
		l-35.02,1.287c0,0,41.124,13.756,45.788,17.496l-33.869-2.955c0,0,43.159,15.608,46.145,23.126c0,0-30.318-12.659-41.705-2.578
		c0,0,35.45,6.073,46.304,11.92c0,0-36.585-8.299-38.994,2.768c0,0,44.32,8.777,49.105,15.112c0,0-12.927-5.111-30.066,2.456
		c0,0,32.866,8.069,37.227,21.279L492.786,508.989z"/>
	<path fill="#548640" d="M494.898,505.497c0,0-33.165-117.871,120.583-142.9l-38.404,18.766l22.489,2.925l-43.678,12.188
		l35.021,1.288c0,0-41.124,13.756-45.788,17.495l33.868-2.954c0,0-43.159,15.606-46.145,23.124c0,0,30.318-12.658,41.705-2.576
		c0,0-35.45,6.073-46.304,11.919c0,0,36.584-8.299,38.994,2.768c0,0-44.32,8.777-49.105,15.113c0,0,12.926-5.113,30.067,2.456
		c0,0-32.867,8.069-37.228,21.279L494.898,505.497z"/>
	<path fill="#548640" d="M495.798,488.207c0,0,111.138-51.402,160.184,96.445l-24.607-34.949l0.672,22.668L613.1,531.173
		l4.271,34.783c0,0-20.09-38.43-24.521-42.442l8.278,32.974c0,0-22.241-40.145-30.136-41.903c0,0,17.296,27.934,9.145,40.771
		c0,0-11.606-34.041-19.097-43.833c0,0,13.984,34.81,3.438,38.939c0,0-15.68-42.373-22.693-46.095c0,0,7.094,11.953,2.334,30.077
		c0,0-13.169-31.177-26.904-33.392L495.798,488.207z"/>
	<path fill="#548640" d="M507.653,483.223c0,0,57.227-108.253,185.86-20.401l-40.756-12.88l14.276,17.621l-40.043-21.279
		l24.482,25.074c0,0-39.274-18.385-45.231-18.89l26.573,21.206c0,0-42.024-18.444-49.37-15.056c0,0,30.689,11.729,31.988,26.882
		c0,0-29.867-20.038-41.761-23.284c0,0,32.226,19.208,26.342,28.885c0,0-38.158-24.193-45.992-22.902
		c0,0,12.889,5.207,20.089,22.507c0,0-29.373-16.812-41.638-10.247L507.653,483.223z"/>
	<path fill="#548640" d="M491.399,484.196c0,0-57.228-108.253-185.861-20.401l40.756-12.879l-14.277,17.62l40.044-21.278
		l-24.482,25.073c0,0,39.274-18.384,45.23-18.889l-26.572,21.206c0,0,42.025-18.444,49.37-15.057c0,0-30.688,11.73-31.988,26.882
		c0,0,29.868-20.037,41.762-23.284c0,0-32.226,19.207-26.342,28.886c0,0,38.158-24.194,45.992-22.901
		c0,0-12.889,5.206-20.089,22.504c0,0,29.373-16.81,41.638-10.247L491.399,484.196z"/>
	<path fill="#548640" d="M483.613,479.56c0,0,131.607,42.808,58.635,203.027l6.466-47.875l-16.863,19.304l15.957-48.706
		l-23.189,32.11c0,0,12.88-47.288,12.293-54.02l-18.479,33.688c0,0,12.417-50.361,7.226-57.887c0,0-7.132,36.44-23.753,40.817
		c0,0,16.541-37.133,17.858-51.005c0,0-15.161,39.598-27.075,34.916c0,0,19.566-47.168,16.615-55.64c0,0-3.307,15.356-21.18,26.719
		c0,0,13.045-35.959,3.364-48.349L483.613,479.56z"/>
	<polygon fill="#CF9A56" points="159.193,510.526 134.307,856.217 179.788,856.217 179.788,498.635 157.048,498.635 	"/>
	<path fill="#548640" d="M171.662,487.251c0,0-135.279-29.197-152.797,145.983l18.491-44.63l4.866,25.165l10.706-50.12l3.893,39.415
		c0,0,12.652-47.349,16.545-52.871l-0.974,38.411c0,0,14.598-49.772,22.871-53.665c0,0-12.166,35.082,0,47.225
		c0,0,4.38-40.412,10.22-53.064c0,0-6.813,41.849,5.839,43.795c0,0,6.812-50.608,13.625-56.447c0,0-4.866,14.938,4.866,33.746
		c0,0,6.812-37.638,21.411-43.478L171.662,487.251z"/>
	<path fill="#548640" d="M174.096,485.091c0,0-114.389,77.897,0.47,211.324l-19.594-44.158l21.588,13.819l-28.939-42.301
		l31.243,24.344c0,0-25.588-41.799-26.907-48.427l27.162,27.178c0,0-26.004-44.881-23.123-53.559c0,0,17.035,32.994,34.218,32.547
		c0,0-26.264-31.025-31.406-43.975c0,0,25.628,33.778,35.758,25.953c0,0-31.975-39.815-31.51-48.776c0,0,7.469,13.821,27.805,19.731
		c0,0-22.577-30.876-16.747-45.479L174.096,485.091z"/>
	<path fill="#548640" d="M173.048,512.202c0,0,33.165-117.872-120.583-142.9l38.404,18.765l-22.489,2.924l43.678,12.188
		l-35.02,1.288c0,0,41.123,13.756,45.788,17.495l-33.869-2.955c0,0,43.158,15.608,46.145,23.126c0,0-30.318-12.658-41.704-2.577
		c0,0,35.449,6.072,46.303,11.92c0,0-36.585-8.3-38.995,2.768c0,0,44.321,8.776,49.106,15.111c0,0-12.927-5.111-30.067,2.457
		c0,0,32.867,8.069,37.227,21.279L173.048,512.202z"/>
	<path fill="#548640" d="M175.161,508.71c0,0-33.165-117.871,120.582-142.9l-38.404,18.766l22.489,2.924l-43.678,12.188l35.02,1.288
		c0,0-41.123,13.755-45.787,17.494l33.867-2.953c0,0-43.158,15.606-46.145,23.124c0,0,30.318-12.657,41.705-2.576
		c0,0-35.449,6.072-46.304,11.919c0,0,36.585-8.299,38.994,2.768c0,0-44.32,8.776-49.105,15.112c0,0,12.926-5.112,30.066,2.456
		c0,0-32.867,8.069-37.227,21.28L175.161,508.71z"/>
	<path fill="#548640" d="M176.061,491.419c0,0,111.138-51.401,160.184,96.446l-24.607-34.949l0.672,22.668l-18.948-41.198
		l4.271,34.782c0,0-20.09-38.429-24.521-42.441l8.278,32.974c0,0-22.241-40.145-30.137-41.904c0,0,17.296,27.934,9.145,40.771
		c0,0-11.606-34.042-19.097-43.833c0,0,13.984,34.811,3.438,38.941c0,0-15.68-42.374-22.693-46.096c0,0,7.094,11.953,2.333,30.076
		c0,0-13.169-31.176-26.903-33.391L176.061,491.419z"/>
	<path fill="#548640" d="M187.915,486.435c0,0,57.227-108.253,185.861-20.401l-40.757-12.879l14.276,17.621l-40.044-21.279
		l24.482,25.074c0,0-39.274-18.385-45.231-18.89l26.573,21.206c0,0-42.026-18.444-49.371-15.056c0,0,30.688,11.729,31.989,26.881
		c0,0-29.867-20.037-41.762-23.283c0,0,32.225,19.207,26.342,28.885c0,0-38.158-24.193-45.992-22.902
		c0,0,12.889,5.208,20.089,22.506c0,0-29.373-16.81-41.639-10.246L187.915,486.435z"/>
	<path fill="#548640" d="M171.662,487.409c0,0-57.227-108.254-185.861-20.402l40.757-12.878l-14.277,17.62l40.044-21.279
		l-24.482,25.073c0,0,39.274-18.383,45.231-18.888l-26.572,21.206c0,0,42.024-18.446,49.37-15.058c0,0-30.688,11.731-31.988,26.883
		c0,0,29.867-20.037,41.761-23.284c0,0-32.226,19.208-26.342,28.885c0,0,38.158-24.193,45.992-22.9c0,0-12.888,5.205-20.089,22.504
		c0,0,29.374-16.811,41.639-10.246L171.662,487.409z"/>
	<path fill="#548640" d="M163.876,482.772c0,0,131.607,42.809,58.634,203.028l6.466-47.875l-16.863,19.303l15.958-48.705
		l-23.19,32.109c0,0,12.88-47.287,12.293-54.019l-18.479,33.688c0,0,12.417-50.361,7.226-57.887c0,0-7.132,36.44-23.753,40.816
		c0,0,16.542-37.132,17.858-51.004c0,0-15.16,39.598-27.075,34.915c0,0,19.567-47.167,16.616-55.64c0,0-3.308,15.356-21.18,26.719
		c0,0,13.043-35.959,3.363-48.348L163.876,482.772z"/>
	<polygon fill="#684E1E" points="1025.792,627.235 1036.829,627.235 1042.057,552.61 1025.792,552.61 	"/>
	<polygon fill="#684E1E" points="503.981,672.717 514.222,672.717 519.074,603.473 503.981,603.473 	"/>
	<polygon fill="#684E1E" points="698.301,710.909 708.542,710.909 713.394,641.667 698.301,641.667 	"/>
	<polygon fill="#A15E2C" points="662.663,334.669 722.046,427.045 1050.634,344.161 910.502,177.275 643.392,266.521 	"/>
	<polygon fill="#F7EC16" stroke="#C37F2A" stroke-width="4" stroke-miterlimit="10" points="616.823,202.792 491.839,377.804 
		502.364,609.353 712.863,646.191 724.704,430.43 	"/>
	<polygon fill="#F7EC16" stroke="#C37F2A" stroke-width="4" stroke-miterlimit="10" points="724.401,426.993 730.487,425.396 
		1039.706,344.261 1039.706,552.282 713.433,645.969 	"/>
	<path fill="#A15E2C" d="M616.823,202.792c0,0-84.349,207.475-177.31,215.324l12.278-24.303l-28.064,12.368
		C423.728,406.181,576.638,251.485,616.823,202.792z"/>
	<polygon fill="#E9F6F7" points="667.093,567.323 544.612,556.945 533.791,415.89 667.093,422.063 	"/>
	<polygon fill="#AE4B29" points="665.412,511.034 540.646,505.379 539.886,495.338 665.412,500.554 	"/>
	<polygon fill="#AE4B29" points="550.821,557.471 542.56,557.471 540.656,505.379 548.699,505.379 	"/>
	<polygon fill="#AE4B29" points="565.183,558.258 556.922,558.258 555.018,505.379 563.06,505.379 	"/>
	<polygon fill="#AE4B29" points="581.676,560.45 573.693,560.45 571.511,506.255 579.553,506.255 	"/>
	<polygon fill="#AE4B29" points="600.441,561.676 592.33,561.676 590.277,507.57 598.319,507.57 	"/>
	<polygon fill="#AE4B29" points="615.847,562.552 607.735,562.552 605.682,508.447 613.725,508.447 	"/>
	<polygon fill="#AE4B29" points="632.25,564.306 624.138,564.306 622.085,507.188 630.127,507.188 	"/>
	<polygon fill="#AE4B29" points="648.474,565.183 640.362,565.183 638.309,508.065 646.352,508.065 	"/>
	<polygon fill="#AE4B29" points="665.412,562.552 659.835,562.552 658.424,510.258 663.954,510.258 	"/>
	<path fill="#60B4BB" d="M533.791,415.89l42.803,1.981c0,0,6.596,79.854-36.106,85.313L533.791,415.89z"/>
	<path fill="#60B4BB" d="M540.049,487.895c0,0,36.351,19.089,33.207,72.555l-31.134-3.772L540.049,487.895z"/>
	<path fill="#60B4BB" d="M622.979,419.734l44.115,2.329l-0.416,73.276l-0.085,14.918
		C666.592,510.258,623.376,518.02,622.979,419.734z"/>
	<path fill="#60B4BB" d="M632.25,565.356l34.981,0.841l-0.555-70.858C666.677,495.34,630.412,497.518,632.25,565.356z"/>
	<path fill="#DBD043" d="M493.671,439.547l8.185,173.268l197.754,31.057c0,0-54.591-41.816-123.076-43.009
		c-68.485-1.191-52.097-7.758-57.814-53.942c-5.716-46.186-25.05-124.857-25.05-124.857"/>
	<polygon fill="#E9F6F7" points="1035.535,507.584 944.638,523.564 941.673,427.047 1034.05,415.275 	"/>
	
		<rect x="961.191" y="482.936" transform="matrix(-0.9879 0.1553 -0.1553 -0.9879 1996.8132 846.793)" fill="#AE4B29" width="8.289" height="36.89"/>
	
		<rect x="990.296" y="477.866" transform="matrix(-0.9879 0.1553 -0.1553 -0.9879 2053.8909 832.1619)" fill="#AE4B29" width="8.288" height="36.886"/>
	
		<rect x="1005.04" y="475.109" transform="matrix(-0.9878 0.1555 -0.1555 -0.9878 2082.8418 824.1763)" fill="#AE4B29" width="8.29" height="36.89"/>
	<polygon fill="#AE4B29" points="1034.397,464.333 942.936,479.416 944.308,489.596 1034.352,473.655 	"/>
	
		<rect x="975.68" y="479.962" transform="matrix(-0.9878 0.1554 -0.1554 -0.9878 2025.2062 838.4589)" fill="#AE4B29" width="8.287" height="36.887"/>
	<path fill="#60B4BB" d="M941.673,427.047l33.269-4.239c0,0,10.857,64.775-31.372,65.982L941.673,427.047z"/>
	<path fill="#60B4BB" d="M942.877,476.288c0,0,28.199,1.79,36.683,41.934l-34.924,5.343L942.877,476.288z"/>
	<path fill="#60B4BB" d="M1000.426,419.559c0,0,1.559,51.7,34.561,53.992l-0.314-19.582l-0.623-38.693L1000.426,419.559z"/>
	<path fill="#60B4BB" d="M1004.989,512.954l30.544-5.308l-0.754-45.916C1034.779,461.73,1002.021,459.05,1004.989,512.954z"/>
	<polygon fill="#E9F6F7" points="843.708,545.321 753.11,562.915 748.429,466.465 840.583,453.053 	"/>
	
		<rect x="769.139" y="521.843" transform="matrix(-0.9849 0.173 -0.173 -0.9849 1628.3655 938.6735)" fill="#AE4B29" width="8.288" height="36.888"/>
	
		<rect x="798.272" y="516.368" transform="matrix(-0.9849 0.173 -0.173 -0.9849 1685.2412 922.7776)" fill="#AE4B29" width="8.288" height="36.889"/>
	
		<rect x="812.89" y="513.228" transform="matrix(-0.9849 0.173 -0.173 -0.9849 1713.7097 914.0215)" fill="#AE4B29" width="8.289" height="36.886"/>
	<polygon fill="#AE4B29" points="841.803,502.098 750.623,518.804 752.176,528.958 841.923,511.42 	"/>
	
		<rect x="783.768" y="518.649" transform="matrix(-0.9849 0.1728 -0.1728 -0.9849 1656.8011 929.9123)" fill="#AE4B29" width="8.288" height="36.887"/>
	<path fill="#60B4BB" d="M748.429,466.465l33.19-4.83c0,0,12.006,64.572-30.195,66.53L748.429,466.465z"/>
	<path fill="#60B4BB" d="M750.51,515.677c0,0,28.227,1.289,37.422,41.276l-34.822,5.962L750.51,515.677z"/>
	<path fill="#60B4BB" d="M807.041,457.934c0,0,2.478,51.663,35.515,53.369l-0.663-19.573l-1.311-38.676L807.041,457.934z"/>
	<path fill="#60B4BB" d="M813.263,551.233l30.445-5.851l-1.571-45.893C842.138,499.489,809.338,497.39,813.263,551.233z"/>
	<polygon fill="#A15E2C" points="938.103,576.846 861.565,602.208 857.665,476.698 937.889,483.111 	"/>
	<path fill="#A15E2C" d="M937.889,483.111c0,24.142-13.427,43.711-38.483,43.711c-25.056,0-41.741-19.569-41.741-43.711
		c0-24.14,16.685-43.71,41.741-43.71C924.462,439.401,937.889,458.971,937.889,483.111z"/>
	<polygon fill="#F8B462" points="964.896,621.389 884.489,637.62 884.489,621.389 967.966,601.244 	"/>
	<polygon fill="#CF9A56" points="888.884,710.428 842.556,699.905 844.749,601.244 884.489,618.345 	"/>
	<polygon fill="#F4C587" points="967.966,601.244 884.489,621.389 844.749,601.244 949.383,576.252 	"/>
	<polygon fill="#F8B462" points="989.452,658.978 901.169,675.934 903.068,648.754 990.944,631.675 	"/>
	<polygon fill="#F4C587" points="887.429,636.283 903.068,648.754 990.944,631.675 964.341,619.431 	"/>
	<polygon fill="#CF9A56" points="903.068,710.428 856.742,702.06 860.973,615.612 903.068,648.652 	"/>
	<polygon fill="#CF9A56" points="926.232,716.129 879.906,708.591 882.95,667.427 926.232,680.173 	"/>
	<polyline fill="#F4C587" points="907.626,674.695 926.232,685.582 1017.225,667.427 993.837,652.256 903.068,673.352 	"/>
	<polygon fill="#F8B462" points="1013.423,697.859 926.232,716.129 926.232,685.582 1017.225,667.427 	"/>
	<polyline fill="#DDB34A" points="733.394,424.634 730.487,425.396 766.695,458.135 	"/>
	<path fill="#DDB34A" d="M616.823,202.792c0,0-47.94,164.194-124.984,199.862V393.3c-9.406,7.401,76.436-63.478,122.714-187.764"/>
	<path fill="#DDB34A" d="M755.256,418.898l-4.633,1.215c0,0,34.335,37.908,51.578,38.526
		C802.201,458.639,766.657,428.161,755.256,418.898z"/>
	<path fill="#DDB34A" d="M782.188,409.879l-7.945,4.046c0,0,34.944,31.753,52.187,32.37
		C826.429,446.295,793.589,419.142,782.188,409.879z"/>
	<path fill="#A15E2C" d="M618.03,205.536c0,0,46.046,213.131,118.404,240.759l-30.948-49.736l61.208,61.577l-30.261-64.254
		c0,0,47.364,69.516,69.729,64.254l-40.784-55.256c0,0,32.638,32.89,61.05,43.415c0,0-37.369-38.954-47.893-49.736
		c-10.526-10.781,53.94,47.105,89.462,47.105c0,0-60.921-43.455-78.314-58.605c-3.055-2.661-4.767-4.448-4.569-4.974
		c1.314-3.517,65.78,46.477,96.04,46.477c0,0-55.256-48.678-54.725-46.477c0,0,49.462,39.024,77.09,40.778l-46.046-40.778
		c0,0,57.887,44.288,78.937,40.778l-43.416-40.778c0,0,39.469,30.943,72.359,28.843l-42.1-28.843c0,0,36.837,19.363,67.097,16.475
		l-49.993-28.408c0,0,57.887,32.522,90.777,25.731c0,0-71.043-24.771-67.097-40.777c0,0,40.784,32.672,67.097,32.672l-44.732-32.672
		l53.941,24.008l-30.259-37.806l46.046,13.798c0,0-139.455-146.582-140.771-164.179C914.045,171.331,618.03,205.536,618.03,205.536z
		"/>
	<polygon fill="#CF9A56" points="1195.681,315.449 1168.71,690.098 1218.001,690.098 1218.001,302.561 1193.355,302.561 	"/>
	<path fill="#548640" d="M1209.194,290.222c0,0-146.611-31.643-165.597,158.214l20.04-48.368l5.274,27.273l11.603-54.32
		l4.219,42.718c0,0,13.711-51.315,17.931-57.3l-1.055,41.629c0,0,15.822-53.943,24.787-58.161c0,0-13.185,38.021,0,51.18
		c0,0,4.746-43.797,11.074-57.51c0,0-7.383,45.355,6.329,47.466c0,0,7.384-54.848,14.766-61.177c0,0-5.274,16.189,5.274,36.573
		c0,0,7.384-40.792,23.205-47.12L1209.194,290.222z"/>
	<path fill="#548640" d="M1211.833,287.881c0,0-123.972,84.424,0.509,229.028l-21.235-47.856l23.397,14.976l-31.363-45.844
		l33.86,26.384c0,0-27.732-45.301-29.161-52.484l29.438,29.455c0,0-28.183-48.64-25.061-58.045c0,0,18.463,35.758,37.084,35.273
		c0,0-28.464-33.624-34.037-47.659c0,0,27.774,36.607,38.753,28.127c0,0-34.653-43.15-34.15-52.862c0,0,8.095,14.979,30.135,21.385
		c0,0-24.469-33.463-18.15-49.288L1211.833,287.881z"/>
	<path fill="#548640" d="M1210.697,317.264c0,0,35.944-127.745-130.683-154.871l41.621,20.337l-24.373,3.169l47.337,13.21
		l-37.954,1.396c0,0,44.568,14.908,49.623,18.961l-36.706-3.203c0,0,46.774,16.916,50.011,25.062c0,0-32.858-13.718-45.198-2.792
		c0,0,38.418,6.58,50.183,12.917c0,0-39.649-8.994-42.261,3c0,0,48.032,9.513,53.219,16.378c0,0-14.009-5.54-32.585,2.662
		c0,0,35.619,8.745,40.345,23.063L1210.697,317.264z"/>
	<path fill="#548640" d="M1212.986,313.48c0,0-35.943-127.747,130.684-154.872l-41.622,20.338l24.373,3.169l-47.336,13.21
		l37.954,1.395c0,0-44.569,14.908-49.624,18.962l36.705-3.203c0,0-46.773,16.915-50.01,25.062c0,0,32.857-13.718,45.197-2.792
		c0,0-38.417,6.581-50.183,12.917c0,0,39.651-8.994,42.262,3c0,0-48.033,9.512-53.22,16.378c0,0,14.01-5.54,32.585,2.662
		c0,0-35.62,8.746-40.345,23.062L1212.986,313.48z"/>
	<path fill="#548640" d="M1213.962,294.74c0,0,120.448-55.706,173.602,104.526l-26.668-37.878l0.729,24.567l-20.535-44.649
		l4.629,37.696c0,0-21.775-41.647-26.577-45.998l8.971,35.736c0,0-24.103-43.509-32.66-45.415c0,0,18.745,30.273,9.91,44.187
		c0,0-12.578-36.893-20.697-47.505c0,0,15.156,37.727,3.727,42.203c0,0-16.995-45.923-24.596-49.956c0,0,7.688,12.956,2.529,32.596
		c0,0-14.272-33.787-29.157-36.188L1213.962,294.74z"/>
	<path fill="#548640" d="M1226.81,289.34c0,0,62.02-117.321,201.431-22.111l-44.172-13.956l15.473,19.097l-43.399-23.062
		l26.533,27.175c0,0-42.564-19.924-49.02-20.472l28.799,22.981c0,0-45.546-19.989-53.506-16.317c0,0,33.26,12.713,34.668,29.133
		c0,0-32.368-21.716-45.26-25.233c0,0,34.925,20.816,28.55,31.305c0,0-41.356-26.221-49.845-24.82c0,0,13.967,5.644,21.771,24.392
		c0,0-31.832-18.22-45.126-11.106L1226.81,289.34z"/>
	<path fill="#548640" d="M1209.194,290.394c0,0-62.021-117.321-201.431-22.11l44.171-13.957l-15.473,19.096l43.399-23.062
		l-26.533,27.175c0,0,42.564-19.924,49.02-20.471l-28.798,22.981c0,0,45.545-19.989,53.506-16.317c0,0-33.26,12.712-34.668,29.133
		c0,0,32.369-21.716,45.26-25.234c0,0-34.926,20.817-28.549,31.306c0,0,41.355-26.221,49.844-24.82c0,0-13.967,5.642-21.771,24.391
		c0,0,31.834-18.22,45.126-11.105L1209.194,290.394z"/>
	<path fill="#548640" d="M1200.756,285.37c0,0,142.632,46.395,63.547,220.035l7.008-51.885l-18.276,20.92l17.293-52.784
		l-25.133,34.799c0,0,13.96-51.249,13.323-58.544l-20.026,36.51c0,0,13.458-54.579,7.831-62.736c0,0-7.728,39.493-25.742,44.236
		c0,0,17.927-40.242,19.353-55.276c0,0-16.431,42.913-29.343,37.84c0,0,21.207-51.118,18.007-60.302c0,0-3.585,16.645-22.953,28.958
		c0,0,14.135-38.971,3.645-52.398L1200.756,285.37z"/>
	<polygon fill="#CF9A56" points="1430.796,415.87 1403.825,790.52 1453.116,790.52 1453.116,402.983 1428.471,402.983 	"/>
	<path fill="#548640" d="M1444.309,390.644c0,0-146.613-31.643-165.597,158.214l20.04-48.368l5.273,27.272l11.603-54.318
		l4.219,42.717c0,0,13.712-51.315,17.931-57.3l-1.055,41.629c0,0,15.821-53.943,24.786-58.162c0,0-13.186,38.021,0,51.181
		c0,0,4.748-43.798,11.076-57.509c0,0-7.385,45.355,6.327,47.463c0,0,7.384-54.848,14.768-61.176c0,0-5.273,16.189,5.273,36.573
		c0,0,7.383-40.793,23.204-47.122L1444.309,390.644z"/>
	<path fill="#548640" d="M1446.947,388.303c0,0-123.97,84.423,0.51,229.028l-21.236-47.856l23.398,14.976l-31.364-45.845
		l33.86,26.384c0,0-27.731-45.302-29.16-52.483l29.436,29.455c0,0-28.181-48.641-25.06-58.045c0,0,18.464,35.759,37.085,35.273
		c0,0-28.464-33.624-34.038-47.66c0,0,27.774,36.609,38.754,28.127c0,0-34.654-43.15-34.149-52.862c0,0,8.094,14.979,30.134,21.386
		c0,0-24.468-33.463-18.149-49.288L1446.947,388.303z"/>
	<path fill="#548640" d="M1445.812,417.686c0,0,35.943-127.746-130.684-154.871l41.622,20.337l-24.373,3.169l47.337,13.21
		l-37.954,1.396c0,0,44.569,14.907,49.624,18.961l-36.705-3.203c0,0,46.774,16.916,50.011,25.063c0,0-32.857-13.719-45.197-2.793
		c0,0,38.417,6.581,50.182,12.917c0,0-39.65-8.994-42.261,3c0,0,48.035,9.512,53.22,16.378c0,0-14.01-5.54-32.585,2.663
		c0,0,35.62,8.744,40.345,23.062L1445.812,417.686z"/>
	<path fill="#548640" d="M1448.102,413.901c0,0-35.943-127.746,130.683-154.871l-41.621,20.337l24.373,3.17l-47.337,13.208
		l37.953,1.397c0,0-44.568,14.907-49.623,18.96l36.705-3.202c0,0-46.774,16.915-50.011,25.062c0,0,32.858-13.718,45.199-2.791
		c0,0-38.419,6.581-50.184,12.917c0,0,39.65-8.994,42.262,2.999c0,0-48.034,9.513-53.219,16.378c0,0,14.009-5.539,32.585,2.662
		c0,0-35.619,8.746-40.346,23.062L1448.102,413.901z"/>
	<path fill="#548640" d="M1449.076,395.163c0,0,120.448-55.709,173.602,104.524l-26.668-37.877l0.728,24.567l-20.533-44.649
		l4.627,37.696c0,0-21.772-41.648-26.575-45.998l8.972,35.736c0,0-24.104-43.508-32.662-45.414c0,0,18.746,30.273,9.91,44.188
		c0,0-12.577-36.894-20.696-47.507c0,0,15.156,37.728,3.727,42.203c0,0-16.994-45.923-24.595-49.956c0,0,7.688,12.955,2.528,32.596
		c0,0-14.271-33.787-29.157-36.188L1449.076,395.163z"/>
	<path fill="#548640" d="M1461.924,389.761c0,0,62.021-117.321,201.431-22.111l-44.172-13.957l15.473,19.098l-43.399-23.062
		l26.534,27.174c0,0-42.564-19.923-49.02-20.471l28.799,22.981c0,0-45.546-19.989-53.507-16.318c0,0,33.261,12.714,34.668,29.134
		c0,0-32.368-21.717-45.259-25.233c0,0,34.925,20.815,28.548,31.305c0,0-41.354-26.22-49.845-24.821c0,0,13.969,5.645,21.771,24.392
		c0,0-31.834-18.219-45.126-11.106L1461.924,389.761z"/>
	<path fill="#548640" d="M1444.309,390.816c0,0-62.022-117.321-201.431-22.11l44.171-13.957l-15.473,19.096l43.398-23.061
		l-26.532,27.175c0,0,42.564-19.924,49.019-20.471l-28.798,22.981c0,0,45.546-19.99,53.506-16.318c0,0-33.261,12.713-34.668,29.135
		c0,0,32.369-21.718,45.26-25.235c0,0-34.926,20.816-28.548,31.305c0,0,41.354-26.221,49.845-24.82c0,0-13.969,5.643-21.772,24.391
		c0,0,31.834-18.219,45.126-11.105L1444.309,390.816z"/>
	<path fill="#548640" d="M1435.871,385.792c0,0,142.632,46.395,63.547,220.036l7.007-51.886l-18.274,20.921l17.293-52.785
		l-25.132,34.8c0,0,13.959-51.249,13.323-58.544l-20.027,36.51c0,0,13.458-54.58,7.831-62.736c0,0-7.729,39.493-25.742,44.236
		c0,0,17.927-40.243,19.354-55.276c0,0-16.431,42.914-29.343,37.84c0,0,21.205-51.119,18.007-60.302c0,0-3.585,16.644-22.954,28.958
		c0,0,14.136-38.971,3.645-52.398L1435.871,385.792z"/>
	<polygon fill="#CF9A56" points="1021.777,527.055 994.806,901.705 1044.098,901.705 1044.098,514.168 1019.452,514.168 	"/>
	<path fill="#548640" d="M1035.291,501.831c0,0-146.612-31.645-165.598,158.212l20.041-48.367l5.274,27.272l11.602-54.319
		l4.219,42.718c0,0,13.712-51.314,17.932-57.3l-1.054,41.629c0,0,15.82-53.943,24.786-58.162c0,0-13.186,38.021,0,51.181
		c0,0,4.746-43.799,11.074-57.51c0,0-7.383,45.354,6.328,47.465c0,0,7.383-54.848,14.768-61.177c0,0-5.274,16.189,5.274,36.574
		c0,0,7.384-40.793,23.205-47.122L1035.291,501.831z"/>
	<path fill="#548640" d="M1037.93,499.488c0,0-123.971,84.424,0.508,229.027l-21.235-47.855l23.396,14.976l-31.362-45.844
		l33.859,26.384c0,0-27.731-45.301-29.16-52.483l29.436,29.455c0,0-28.181-48.641-25.06-58.045c0,0,18.463,35.758,37.085,35.273
		c0,0-28.464-33.625-34.038-47.66c0,0,27.775,36.609,38.753,28.127c0,0-34.652-43.15-34.149-52.862c0,0,8.095,14.98,30.134,21.385
		c0,0-24.468-33.465-18.149-49.289L1037.93,499.488z"/>
	<path fill="#548640" d="M1036.793,528.872c0,0,35.943-127.746-130.684-154.871l41.622,20.337l-24.373,3.168l47.336,13.21
		l-37.954,1.396c0,0,44.569,14.907,49.624,18.961l-36.705-3.203c0,0,46.775,16.915,50.01,25.062c0,0-32.857-13.719-45.198-2.793
		c0,0,38.418,6.581,50.182,12.917c0,0-39.65-8.993-42.261,3.001c0,0,48.033,9.513,53.218,16.378c0,0-14.009-5.54-32.584,2.662
		c0,0,35.619,8.745,40.345,23.062L1036.793,528.872z"/>
	<path fill="#548640" d="M1039.083,525.087c0,0-35.943-127.747,130.683-154.871l-41.621,20.337l24.374,3.169l-47.338,13.21
		l37.954,1.396c0,0-44.569,14.907-49.624,18.961l36.705-3.203c0,0-46.772,16.914-50.011,25.062c0,0,32.859-13.718,45.198-2.792
		c0,0-38.418,6.581-50.183,12.918c0,0,39.651-8.994,42.261,2.999c0,0-48.032,9.514-53.218,16.379c0,0,14.009-5.541,32.585,2.661
		c0,0-35.621,8.746-40.346,23.063L1039.083,525.087z"/>
	<path fill="#548640" d="M1040.059,506.348c0,0,120.447-55.709,173.602,104.524l-26.668-37.878l0.729,24.568l-20.536-44.649
		l4.628,37.695c0,0-21.773-41.647-26.575-45.998l8.972,35.736c0,0-24.104-43.509-32.661-45.414c0,0,18.745,30.273,9.911,44.188
		c0,0-12.579-36.895-20.697-47.505c0,0,15.155,37.726,3.726,42.202c0,0-16.994-45.923-24.595-49.958c0,0,7.688,12.957,2.528,32.598
		c0,0-14.272-33.787-29.156-36.188L1040.059,506.348z"/>
	<path fill="#548640" d="M1052.905,500.947c0,0,62.021-117.322,201.431-22.111l-44.171-13.957l15.473,19.097l-43.399-23.062
		l26.533,27.174c0,0-42.564-19.924-49.02-20.471l28.799,22.982c0,0-45.546-19.991-53.505-16.318c0,0,33.26,12.712,34.667,29.134
		c0,0-32.369-21.717-45.26-25.234c0,0,34.925,20.816,28.549,31.306c0,0-41.355-26.221-49.846-24.821c0,0,13.969,5.644,21.772,24.392
		c0,0-31.834-18.22-45.127-11.106L1052.905,500.947z"/>
	<path fill="#548640" d="M1035.291,502.001c0,0-62.022-117.321-201.431-22.11l44.171-13.958l-15.473,19.097l43.399-23.062
		l-26.534,27.174c0,0,42.565-19.923,49.02-20.47l-28.798,22.981c0,0,45.545-19.99,53.505-16.318c0,0-33.26,12.712-34.668,29.134
		c0,0,32.369-21.716,45.26-25.234c0,0-34.925,20.816-28.549,31.306c0,0,41.355-26.221,49.846-24.82c0,0-13.968,5.642-21.772,24.391
		c0,0,31.833-18.219,45.126-11.106L1035.291,502.001z"/>
	<path fill="#548640" d="M1026.853,496.975c0,0,142.632,46.395,63.547,220.038l7.008-51.887l-18.276,20.92l17.294-52.784
		l-25.133,34.798c0,0,13.959-51.248,13.323-58.543l-20.026,36.511c0,0,13.458-54.581,7.831-62.737c0,0-7.73,39.494-25.744,44.236
		c0,0,17.927-40.243,19.354-55.276c0,0-16.431,42.913-29.343,37.84c0,0,21.207-51.117,18.008-60.301c0,0-3.584,16.644-22.953,28.957
		c0,0,14.136-38.97,3.644-52.398L1026.853,496.975z"/>
	<polygon fill="#CF9A56" points="1292.808,567.301 1265.837,941.949 1315.128,941.949 1315.128,554.412 1290.482,554.412 	"/>
	<path fill="#548640" d="M1306.32,542.074c0,0-146.611-31.644-165.596,158.214l20.04-48.368l5.274,27.273l11.602-54.319l4.22,42.718
		c0,0,13.712-51.315,17.93-57.301l-1.053,41.629c0,0,15.822-53.942,24.787-58.162c0,0-13.185,38.022,0,51.181
		c0,0,4.746-43.798,11.074-57.509c0,0-7.383,45.354,6.329,47.464c0,0,7.383-54.848,14.768-61.177c0,0-5.274,16.189,5.272,36.574
		c0,0,7.383-40.792,23.205-47.122L1306.32,542.074z"/>
	<path fill="#548640" d="M1308.959,539.733c0,0-123.972,84.424,0.51,229.027l-21.235-47.855l23.396,14.975l-31.362-45.843
		l33.861,26.383c0,0-27.733-45.302-29.162-52.483l29.438,29.454c0,0-28.183-48.64-25.061-58.044c0,0,18.463,35.758,37.085,35.273
		c0,0-28.464-33.625-34.038-47.66c0,0,27.774,36.608,38.754,28.127c0,0-34.653-43.149-34.15-52.863c0,0,8.095,14.979,30.135,21.386
		c0,0-24.47-33.464-18.151-49.29L1308.959,539.733z"/>
	<path fill="#548640" d="M1307.823,569.116c0,0,35.943-127.746-130.684-154.871l41.622,20.337l-24.373,3.169l47.337,13.209
		l-37.954,1.396c0,0,44.568,14.908,49.623,18.961l-36.705-3.202c0,0,46.774,16.916,50.011,25.063c0,0-32.858-13.719-45.199-2.793
		c0,0,38.419,6.581,50.183,12.918c0,0-39.649-8.994-42.261,3c0,0,48.033,9.513,53.22,16.378c0,0-14.009-5.54-32.585,2.662
		c0,0,35.62,8.745,40.346,23.062L1307.823,569.116z"/>
	<path fill="#548640" d="M1310.113,565.33c0,0-35.943-127.745,130.683-154.871l-41.622,20.338l24.374,3.169l-47.336,13.209
		l37.954,1.396c0,0-44.569,14.908-49.624,18.961l36.705-3.201c0,0-46.773,16.914-50.01,25.062c0,0,32.858-13.718,45.198-2.791
		c0,0-38.419,6.58-50.184,12.917c0,0,39.65-8.995,42.261,2.999c0,0-48.033,9.513-53.219,16.379c0,0,14.01-5.541,32.586,2.661
		c0,0-35.62,8.745-40.346,23.062L1310.113,565.33z"/>
	<path fill="#548640" d="M1311.088,546.593c0,0,120.448-55.709,173.602,104.525l-26.669-37.878l0.729,24.567l-20.535-44.649
		l4.628,37.696c0,0-21.773-41.648-26.576-45.999l8.972,35.737c0,0-24.104-43.509-32.661-45.416c0,0,18.745,30.275,9.91,44.188
		c0,0-12.578-36.895-20.696-47.507c0,0,15.156,37.728,3.728,42.204c0,0-16.996-45.923-24.595-49.957c0,0,7.688,12.956,2.529,32.597
		c0,0-14.273-33.787-29.157-36.188L1311.088,546.593z"/>
	<path fill="#548640" d="M1323.936,541.191c0,0,62.021-117.321,201.43-22.112l-44.171-13.956l15.473,19.098l-43.398-23.062
		l26.533,27.174c0,0-42.564-19.924-49.02-20.471l28.798,22.98c0,0-45.546-19.988-53.505-16.316c0,0,33.26,12.713,34.667,29.133
		c0,0-32.369-21.717-45.259-25.233c0,0,34.925,20.816,28.548,31.305c0,0-41.354-26.22-49.844-24.82c0,0,13.967,5.645,21.771,24.392
		c0,0-31.833-18.22-45.127-11.106L1323.936,541.191z"/>
	<path fill="#548640" d="M1306.32,542.245c0,0-62.021-117.32-201.431-22.109l44.172-13.958l-15.473,19.097l43.398-23.062
		l-26.533,27.174c0,0,42.564-19.922,49.02-20.47l-28.798,22.982c0,0,45.545-19.991,53.505-16.319c0,0-33.259,12.713-34.667,29.134
		c0,0,32.369-21.716,45.26-25.234c0,0-34.925,20.816-28.549,31.307c0,0,41.355-26.222,49.846-24.822c0,0-13.97,5.644-21.772,24.391
		c0,0,31.833-18.219,45.126-11.104L1306.32,542.245z"/>
	<path fill="#548640" d="M1297.882,537.22c0,0,142.632,46.395,63.547,220.036l7.008-51.885l-18.276,20.92l17.293-52.785
		l-25.132,34.798c0,0,13.958-51.247,13.324-58.543l-20.028,36.51c0,0,13.458-54.58,7.831-62.735c0,0-7.729,39.494-25.742,44.236
		c0,0,17.927-40.243,19.354-55.277c0,0-16.432,42.914-29.343,37.84c0,0,21.205-51.118,18.007-60.302c0,0-3.585,16.646-22.954,28.958
		c0,0,14.136-38.971,3.644-52.397L1297.882,537.22z"/>
</g>
<g>
	<g>
		<defs>
			<path id="SVGID_3_" d="M1088.297,1020.85c0,0,733.477-186.557,1187.748,32.555l9.852,329.303l-1194,11.349L1088.297,1020.85z"/>
		</defs>
		<clipPath id="SVGID_4_">
			<use xlink:href="#SVGID_3_"  overflow="visible"/>
		</clipPath>
		<g clip-path="url(#SVGID_4_)">
			<path fill="none" stroke="#B9E2F5" stroke-miterlimit="10" d="M1090.689,1009.64c0,0,733.845-174.233,1188.116,44.879
				l9.853,329.303l-1194.001,11.349L1090.689,1009.64z"/>
		</g>
	</g>
</g>
</svg>
