<?xml version="1.0" encoding="utf-8"?>
<!-- Generator: Adobe Illustrator 15.1.0, SVG Export Plug-In . SVG Version: 6.00 Build 0)  -->
<!DOCTYPE svg PUBLIC "-//W3C//DTD SVG 1.1//EN" "http://www.w3.org/Graphics/SVG/1.1/DTD/svg11.dtd">
<svg version="1.1" id="Layer_1" xmlns="http://www.w3.org/2000/svg" xmlns:xlink="http://www.w3.org/1999/xlink" x="0px" y="0px"
	 width="158.992px" height="308.628px" viewBox="156.602 -54.365 158.992 308.628"
	 enable-background="new 156.602 -54.365 158.992 308.628" xml:space="preserve">
<path fill="#C8A788" d="M26.993,203.999c-0.289,12.881,8.348,23.522-9.182,23.129c-7.108-0.159-12.638-10.731-12.35-23.611
	c0.289-12.88,6.287-23.194,13.396-23.034C25.967,180.641,27.282,191.118,26.993,203.999z"/>
<path fill="#C8A788" d="M39.401,203.231c-0.288,12.881-9.394,23.124,8.137,23.517c7.109,0.16,13.105-10.153,13.396-23.035
	c0.288-12.88-5.241-23.451-12.35-23.611C41.473,179.943,39.69,190.351,39.401,203.231z"/>
<path fill="none" stroke="#5D3B18" stroke-miterlimit="10" stroke-dasharray="12" d="M16.355,191.565c0,0-4.637,24.495,1.127,33.36"
	/>
<path fill="none" stroke="#5D3B18" stroke-miterlimit="10" stroke-dasharray="12" d="M52.205,190.702c0,0,3.535,24.679-2.62,33.276"
	/>
<path fill="#FFFACC" d="M-10.389,45.037c0,0-37.491,45.978-23.476,82.111c0,0,11.138,4.866,11.077-20.231
	c0,0,0.383-16.962,8.644-23.027c0,0,3.355,89.791,13.973,118.454l61.054,2.415c0,0,22.398-68.803,9.627-122.78
	c0,0,13.694,27.21,13.233,40.594c0,0-1.833,8.474,5.195,8.631c0,0,15.623,0.107,0.878-39.185c0,0-8.133-20.487-16.352-29.166
	l-14.506-16.26c0,0-22.357,3.898-28.947,4.541l-5.996,12.552l-4.724-13.58C19.292,50.104,1.114,48.716-10.389,45.037z"/>
<path fill="#FFFACC" d="M-22.875,109.571c-0.296,13.199,3.973,20.568-0.719,24.133c-6.609,5.022-14.293,1.265-13.717-24.457
	c0.296-13.199,10.9-23.43,14.789-23.343S-22.58,96.372-22.875,109.571z"/>
<path fill="#FFFACC" d="M80.807,114.05c1.957,13.058-1.352,20.906,3.753,23.851c7.19,4.149,14.339-0.546,10.526-25.991
	C93.129,98.853,81.321,90.04,77.474,90.617C73.628,91.193,78.851,100.994,80.807,114.05z"/>
<rect x="-12.246" y="47.464" transform="matrix(-0.9997 -0.0224 0.0224 -0.9997 42.4427 130.8299)" fill="#C8A788" width="68.401" height="35.427"/>
<path fill="#E1CE20" d="M-22.783,109.217c-0.296,13.199,3.974,20.568-0.718,24.133c-6.61,5.022-14.294,1.265-13.717-24.457
	c0.296-13.199,10.899-23.43,14.788-23.343C-18.54,85.636-22.487,96.018-22.783,109.217z"/>
<path fill="#E1CE20" d="M80.9,113.695c1.956,13.058-1.352,20.906,3.753,23.851c7.189,4.149,14.339-0.545,10.526-25.99
	c-1.957-13.057-13.766-21.87-17.612-21.294C73.72,90.839,78.943,100.639,80.9,113.695z"/>
<path fill="#E1CE20" d="M89.854,91.245c0,0-8.134-20.486-16.352-29.165L58.996,45.819c0,0-22.356,3.898-28.946,4.542l-5.997,12.55
	l-4.723-13.58c0,0-18.177-1.387-29.681-5.067c0,0-37.492,45.978-23.476,82.111c0,0,11.138,4.867,11.077-20.23
	c0,0,0.383-16.962,8.645-23.027c0,0-11.239,40.067-0.623,68.729l37.18,0.705l6.459-61.733l2.476,62.062l45.685-0.946
	c0,0,6.248-16.751-6.524-70.729c0,0,13.696,27.21,13.233,40.595c0,0-1.832,8.474,5.195,8.631
	C88.975,130.431,104.599,130.539,89.854,91.245z"/>
<path fill="#E1CE20" d="M-14.878,151.579c0,0,10.565,11.967,20.39-1.057"/>
<path fill="#E1CE20" d="M2.174,150.635c0,0,11.167,15.787,20.693,1.926"/>
<path fill="#E1CE20" d="M31.872,152.703c0,0,10.976,11.985,21.141-1.021"/>
<path fill="#E1CE20" d="M49.384,149.024c0,0,15.335,21.93,28.437,2.661"/>
<path fill="#E54276" d="M12.689,141.527c0,0,5.18-6.693,11.125-0.17C23.814,141.357,17.045,147.677,12.689,141.527z"/>
<path fill="#E54276" d="M9.802,140.366c0,0-4.455-7.197,3.737-10.48C13.54,129.886,17.087,138.439,9.802,140.366z"/>
<path fill="#E54276" d="M7.515,141.284c0,0-8.155,2.258-9.012-6.525C-1.497,134.76,7.709,133.75,7.515,141.284z"/>
<path fill="#E54276" d="M7.656,144.071c0,0-1.783,8.274-9.961,4.955C-2.305,149.026,1.073,140.404,7.656,144.071z"/>
<path fill="#E54276" d="M10.608,143.909c0,0,8.254,1.873,4.847,10.012C15.455,153.921,6.871,150.45,10.608,143.909z"/>
<path fill="#E54276" d="M-2.09,118.018c0,0,5.18-6.694,11.126-0.17C9.036,117.847,2.265,124.167-2.09,118.018z"/>
<path fill="#E54276" d="M-4.976,116.856c0,0-4.455-7.195,3.736-10.48C-1.24,106.376,2.308,114.929-4.976,116.856z"/>
<path fill="#E54276" d="M-7.263,117.775c0,0-8.157,2.258-9.013-6.525C-16.276,111.25-7.07,110.241-7.263,117.775z"/>
<path fill="#E54276" d="M-7.123,120.56c0,0-1.784,8.276-9.962,4.957C-17.084,125.517-13.708,116.894-7.123,120.56z"/>
<path fill="#E54276" d="M-4.17,120.399c0,0,8.253,1.873,4.846,10.013C0.675,130.412-7.91,126.941-4.17,120.399z"/>
<path fill="#E54276" d="M12.825,88.796c0,0,5.179-6.695,11.125-0.171C23.95,88.625,17.18,94.944,12.825,88.796z"/>
<path fill="#E54276" d="M9.938,87.633c0,0-4.455-7.195,3.737-10.479C13.675,77.154,17.223,85.707,9.938,87.633z"/>
<path fill="#E54276" d="M7.651,88.552c0,0-8.156,2.258-9.012-6.524C-1.361,82.028,7.844,81.018,7.651,88.552z"/>
<path fill="#E54276" d="M7.792,91.338c0,0-1.783,8.275-9.961,4.957C-2.169,96.295,1.208,87.672,7.792,91.338z"/>
<path fill="#E54276" d="M10.744,91.176c0,0,8.253,1.875,4.847,10.015C15.59,101.191,7.005,97.718,10.744,91.176z"/>
<path fill="#E54276" d="M-23.246,77.712c0,0,5.179-6.693,11.125-0.171C-12.121,77.541-18.89,83.861-23.246,77.712z"/>
<path fill="#E54276" d="M-26.132,76.549c0,0-4.455-7.195,3.736-10.48C-22.396,66.069-18.847,74.623-26.132,76.549z"/>
<path fill="#E54276" d="M-25.327,80.092c0,0,8.254,1.873,4.846,10.013C-20.48,90.105-29.066,86.635-25.327,80.092z"/>
<path fill="#E54276" d="M-35.616,102.183c0,0,5.179-6.694,11.125-0.17C-24.491,102.013-31.26,108.333-35.616,102.183z"/>
<path fill="#E54276" d="M-37.697,104.565c0,0,8.254,1.873,4.847,10.013C-32.85,114.578-41.434,111.107-37.697,104.565z"/>
<path fill="#E54276" d="M5.434,61.1c0,0,5.547-7.168,11.914-0.183C17.348,60.918,10.098,67.685,5.434,61.1z"/>
<path fill="#E54276" d="M2.342,59.856c0,0-4.771-7.708,4.002-11.224C6.344,48.633,10.144,57.793,2.342,59.856z"/>
<path fill="#E54276" d="M-0.107,60.839c0,0-8.734,2.419-9.65-6.987C-9.757,53.852,0.102,52.772-0.107,60.839z"/>
<path fill="#E54276" d="M0.044,63.823c0,0-1.911,8.862-10.668,5.309C-10.624,69.132-7.008,59.897,0.044,63.823z"/>
<path fill="#E54276" d="M3.206,63.649c0,0,8.839,2.008,5.19,10.725C8.396,74.374-0.798,70.656,3.206,63.649z"/>
<path fill="#E54276" d="M72.413,151.938c0,0-4.455-7.196,3.736-10.479C76.149,141.459,79.698,150.013,72.413,151.938z"/>
<path fill="#E54276" d="M70.125,152.857c0,0-8.155,2.258-9.011-6.524C61.113,146.333,70.319,145.323,70.125,152.857z"/>
<path fill="#E54276" d="M45.098,142.405c0,0,5.18-6.694,11.126-0.17C56.224,142.234,49.454,148.554,45.098,142.405z"/>
<path fill="#E54276" d="M42.212,141.243c0,0-4.455-7.196,3.736-10.48C45.949,130.763,49.498,139.316,42.212,141.243z"/>
<path fill="#E54276" d="M39.924,142.162c0,0-8.155,2.258-9.012-6.525C30.913,135.636,40.119,134.628,39.924,142.162z"/>
<path fill="#E54276" d="M40.066,144.948c0,0-1.784,8.275-9.962,4.957C30.104,149.904,33.481,141.281,40.066,144.948z"/>
<path fill="#E54276" d="M43.018,144.786c0,0,8.254,1.873,4.846,10.013C47.864,154.799,39.28,151.328,43.018,144.786z"/>
<path fill="#E54276" d="M46.151,115.493c0,0,5.18-6.694,11.125-0.171C57.276,115.322,50.506,121.642,46.151,115.493z"/>
<path fill="#E54276" d="M43.264,114.331c0,0-4.455-7.196,3.736-10.48C47,103.851,50.549,112.404,43.264,114.331z"/>
<path fill="#E54276" d="M40.977,115.25c0,0-8.155,2.258-9.012-6.525C31.965,108.724,41.171,107.715,40.977,115.25z"/>
<path fill="#E54276" d="M41.119,118.035c0,0-1.784,8.276-9.962,4.957C31.157,122.991,34.534,114.369,41.119,118.035z"/>
<path fill="#E54276" d="M44.07,117.874c0,0,8.254,1.874,4.847,10.013C48.917,127.887,40.332,124.416,44.07,117.874z"/>
<path fill="#E54276" d="M62.828,95.508c0,0,5.547-7.168,11.915-0.183C74.743,95.325,67.492,102.094,62.828,95.508z"/>
<path fill="#E54276" d="M59.736,94.263c0,0-4.771-7.707,4.003-11.223C63.739,83.04,67.538,92.2,59.736,94.263z"/>
<path fill="#E54276" d="M57.288,95.247c0,0-8.734,2.419-9.651-6.987C47.636,88.26,57.496,87.179,57.288,95.247z"/>
<path fill="#E54276" d="M57.438,98.23c0,0-1.91,8.862-10.669,5.308C46.769,103.538,50.386,94.304,57.438,98.23z"/>
<path fill="#E54276" d="M60.599,98.057c0,0,8.839,2.006,5.19,10.724C65.79,108.781,56.596,105.062,60.599,98.057z"/>
<path fill="#E54276" d="M91.402,99.684c0,0-8.734,2.418-9.651-6.987C81.75,92.697,91.609,91.616,91.402,99.684z"/>
<path fill="#E54276" d="M91.553,102.668c0,0-1.91,8.862-10.669,5.308C80.884,107.976,84.5,98.74,91.553,102.668z"/>
<path fill="#E54276" d="M50.272,70.967c0,0,5.18-6.693,11.125-0.17C61.397,70.797,54.627,77.116,50.272,70.967z"/>
<path fill="#E54276" d="M47.385,69.804c0,0-4.455-7.196,3.737-10.479C51.123,59.325,54.67,67.878,47.385,69.804z"/>
<path fill="#E54276" d="M45.099,70.723c0,0-8.156,2.258-9.013-6.525C36.086,64.198,45.292,63.19,45.099,70.723z"/>
<path fill="#E54276" d="M45.24,73.51c0,0-1.783,8.275-9.962,4.957C35.278,78.466,38.655,69.844,45.24,73.51z"/>
<path fill="#E54276" d="M48.192,73.348c0,0,8.253,1.873,4.847,10.014C53.039,83.362,44.453,79.889,48.192,73.348z"/>
<path fill="#E54276" d="M76.842,70.141c0,0-8.156,2.258-9.012-6.524C67.831,63.617,77.036,62.609,76.842,70.141z"/>
<path fill="#E54276" d="M76.983,72.927c0,0-1.783,8.276-9.962,4.957C67.021,77.884,70.398,69.261,76.983,72.927z"/>
<path fill="#E54276" d="M77.853,72.719c0,0,8.253,1.873,4.846,10.014C82.699,82.733,74.114,79.261,77.853,72.719z"/>
<path fill="#AC8762" d="M80.838,118.207c0,0,10.116-4.913,16.608,3.375c0,0,1.308,22.16-9.754,18.527
	C87.693,140.109,77.483,140.671,80.838,118.207z"/>
<path fill="none" stroke="#765739" stroke-miterlimit="10" stroke-dasharray="12" d="M90.041,117.578c0,0,4.141,15.437-0.873,22.877
	"/>
<path fill="#AC8762" d="M-22.326,114.602c0,0-10.235-4.038-15.527,4.754c0,0,1.223,22.16,11.409,17.615
	C-26.444,136.97-16.605,136.671-22.326,114.602z"/>
<path fill="none" stroke="#765739" stroke-miterlimit="10" stroke-dasharray="12" d="M-31.005,114.687
	c0,0-1.184,17.758,2.906,22.921"/>
<path fill="#FFFFFF" d="M2.663,52.195c-0.063,2.836-2.413,5.083-5.25,5.02c-2.835-0.063-5.084-2.414-5.02-5.25
	c0.063-2.836,2.415-5.083,5.251-5.02C0.48,47.008,2.727,49.359,2.663,52.195z"/>
<g opacity="0.85">
	<path fill="#B7D3EF" d="M1.978,49.512c0.642,1.087,0.959,2.416,0.73,3.708c-0.11,0.645-0.374,1.262-0.741,1.805
		c-0.369,0.542-0.844,1.004-1.361,1.393c-0.541,0.386-1.135,0.659-1.762,0.843c-0.628,0.175-1.292,0.249-1.942,0.164
		c-0.65-0.078-1.275-0.311-1.82-0.655c-0.542-0.35-1.015-0.792-1.402-1.293c0.451,0.443,0.941,0.848,1.496,1.133
		c0.547,0.293,1.147,0.474,1.757,0.521c0.609,0.045,1.226-0.03,1.811-0.214c0.582-0.18,1.152-0.449,1.638-0.803
		c0.993-0.722,1.777-1.747,2.039-2.952c0.134-0.599,0.15-1.226,0.067-1.843C2.411,50.701,2.235,50.091,1.978,49.512z"/>
</g>
<path fill="#FFFFFF" d="M7.478,59.97c-0.063,2.836-2.415,5.083-5.251,5.02c-2.835-0.064-5.084-2.414-5.02-5.25
	c0.062-2.835,2.415-5.083,5.25-5.02C5.293,54.783,7.542,57.135,7.478,59.97z"/>
<g opacity="0.85">
	<path fill="#B7D3EF" d="M6.792,57.288c0.642,1.087,0.959,2.416,0.73,3.708c-0.11,0.644-0.374,1.262-0.74,1.805
		c-0.37,0.542-0.844,1.004-1.362,1.394c-0.541,0.387-1.135,0.659-1.763,0.843c-0.627,0.175-1.292,0.249-1.941,0.165
		c-0.65-0.078-1.275-0.312-1.82-0.656c-0.542-0.351-1.015-0.792-1.403-1.293c0.451,0.444,0.942,0.848,1.496,1.132
		c0.548,0.293,1.148,0.474,1.758,0.522c0.609,0.045,1.226-0.03,1.811-0.214c0.582-0.18,1.152-0.449,1.638-0.803
		c0.993-0.722,1.777-1.747,2.039-2.953c0.134-0.598,0.149-1.226,0.067-1.843C7.225,58.476,7.049,57.865,6.792,57.288z"/>
</g>
<path fill="#FFFFFF" d="M14.692,64.347c-0.064,2.835-2.415,5.083-5.25,5.02c-2.836-0.063-5.085-2.415-5.021-5.25
	c0.063-2.836,2.414-5.083,5.25-5.02S14.755,61.51,14.692,64.347z"/>
<g opacity="0.85">
	<path fill="#B7D3EF" d="M14.006,61.664c0.641,1.087,0.959,2.415,0.73,3.708c-0.11,0.645-0.374,1.262-0.74,1.805
		c-0.37,0.543-0.844,1.004-1.361,1.394c-0.542,0.387-1.136,0.659-1.764,0.843c-0.627,0.175-1.291,0.25-1.941,0.165
		c-0.65-0.078-1.275-0.311-1.82-0.655c-0.542-0.351-1.016-0.792-1.403-1.293c0.451,0.443,0.942,0.848,1.496,1.132
		c0.548,0.293,1.148,0.474,1.758,0.521c0.609,0.045,1.226-0.031,1.811-0.214c0.582-0.18,1.153-0.448,1.638-0.802
		c0.993-0.722,1.777-1.747,2.039-2.953c0.134-0.599,0.15-1.226,0.067-1.843C14.439,62.852,14.263,62.241,14.006,61.664z"/>
</g>
<path fill="#FFFFFF" d="M22.785,66.935c-0.063,2.837-2.415,5.084-5.25,5.021c-2.836-0.064-5.085-2.415-5.021-5.251
	c0.063-2.836,2.415-5.083,5.251-5.02C20.6,61.749,22.848,64.099,22.785,66.935z"/>
<g opacity="0.85">
	<path fill="#B7D3EF" d="M22.099,64.254c0.642,1.087,0.959,2.415,0.73,3.708c-0.11,0.645-0.374,1.262-0.74,1.805
		c-0.37,0.542-0.845,1.004-1.362,1.393c-0.541,0.387-1.135,0.659-1.763,0.843c-0.627,0.175-1.292,0.249-1.941,0.165
		c-0.65-0.078-1.275-0.312-1.82-0.656c-0.542-0.35-1.015-0.791-1.403-1.292c0.452,0.443,0.942,0.847,1.496,1.132
		c0.547,0.294,1.148,0.474,1.758,0.522c0.609,0.045,1.226-0.03,1.81-0.214c0.583-0.18,1.153-0.448,1.638-0.803
		c0.994-0.722,1.778-1.747,2.04-2.952c0.134-0.598,0.15-1.225,0.067-1.843C22.532,65.442,22.356,64.831,22.099,64.254z"/>
</g>
<path fill="#FFFFFF" d="M31.893,66.262c-0.064,2.836-2.415,5.083-5.251,5.019c-2.836-0.063-5.083-2.413-5.02-5.25
	c0.063-2.836,2.414-5.084,5.25-5.02C29.708,61.075,31.957,63.426,31.893,66.262z"/>
<g opacity="0.85">
	<path fill="#B7D3EF" d="M31.208,63.58c0.641,1.087,0.959,2.416,0.729,3.708c-0.11,0.645-0.374,1.262-0.74,1.805
		c-0.369,0.542-0.844,1.004-1.361,1.393c-0.542,0.387-1.135,0.66-1.763,0.843c-0.628,0.175-1.292,0.249-1.941,0.164
		c-0.651-0.078-1.275-0.312-1.82-0.656c-0.542-0.351-1.015-0.792-1.402-1.293c0.451,0.444,0.941,0.848,1.495,1.132
		c0.547,0.294,1.147,0.474,1.757,0.522c0.61,0.045,1.227-0.03,1.811-0.214c0.582-0.18,1.153-0.448,1.638-0.802
		c0.993-0.723,1.778-1.748,2.04-2.953c0.134-0.599,0.149-1.226,0.067-1.843C31.639,64.768,31.464,64.158,31.208,63.58z"/>
</g>
<path fill="#FFFFFF" d="M40.019,65.15c-0.063,2.836-2.413,5.084-5.249,5.021c-2.836-0.064-5.084-2.415-5.021-5.25
	s2.414-5.084,5.25-5.02C37.835,59.963,40.083,62.314,40.019,65.15z"/>
<g opacity="0.85">
	<path fill="#B7D3EF" d="M39.334,62.467c0.642,1.087,0.959,2.416,0.73,3.708c-0.11,0.644-0.374,1.262-0.74,1.805
		c-0.37,0.542-0.845,1.004-1.362,1.393c-0.541,0.387-1.135,0.66-1.763,0.843c-0.627,0.175-1.291,0.25-1.941,0.165
		c-0.65-0.078-1.275-0.312-1.82-0.655c-0.542-0.35-1.016-0.792-1.403-1.292c0.451,0.443,0.941,0.847,1.496,1.132
		c0.548,0.294,1.147,0.474,1.758,0.522c0.609,0.045,1.226-0.03,1.811-0.215c0.582-0.18,1.152-0.448,1.638-0.803
		c0.993-0.722,1.778-1.747,2.039-2.952c0.134-0.598,0.15-1.226,0.067-1.843C39.767,63.655,39.592,63.045,39.334,62.467z"/>
</g>
<path fill="#FFFFFF" d="M47.187,60.742c-0.063,2.835-2.414,5.083-5.251,5.02c-2.836-0.063-5.083-2.415-5.02-5.25
	s2.414-5.083,5.25-5.02S47.25,57.906,47.187,60.742z"/>
<g opacity="0.85">
	<path fill="#B7D3EF" d="M46.5,58.059c0.642,1.087,0.96,2.416,0.73,3.708c-0.109,0.644-0.373,1.262-0.739,1.804
		c-0.37,0.542-0.845,1.004-1.362,1.394c-0.541,0.386-1.134,0.659-1.762,0.843c-0.628,0.175-1.292,0.249-1.941,0.164
		c-0.65-0.078-1.275-0.311-1.82-0.655c-0.542-0.35-1.015-0.792-1.403-1.292c0.452,0.443,0.941,0.847,1.496,1.132
		c0.547,0.294,1.147,0.474,1.757,0.522c0.609,0.045,1.226-0.03,1.811-0.214c0.582-0.18,1.152-0.449,1.638-0.803
		c0.993-0.722,1.777-1.747,2.039-2.953c0.134-0.598,0.149-1.225,0.067-1.842C46.934,59.248,46.758,58.637,46.5,58.059z"/>
</g>
<path fill="#FFFFFF" d="M54.129,54.461c-0.063,2.837-2.414,5.084-5.251,5.021c-2.836-0.064-5.084-2.415-5.021-5.251
	c0.064-2.835,2.414-5.083,5.25-5.019C51.946,49.274,54.193,51.626,54.129,54.461z"/>
<g opacity="0.85">
	<path fill="#B7D3EF" d="M53.444,51.779c0.641,1.087,0.959,2.416,0.729,3.708c-0.11,0.644-0.373,1.262-0.74,1.804
		c-0.369,0.543-0.844,1.004-1.361,1.394c-0.542,0.387-1.135,0.659-1.763,0.843c-0.627,0.175-1.291,0.25-1.941,0.165
		c-0.65-0.078-1.275-0.311-1.82-0.655c-0.542-0.35-1.015-0.792-1.403-1.292c0.451,0.443,0.941,0.847,1.496,1.132
		c0.547,0.293,1.147,0.474,1.757,0.521c0.61,0.045,1.227-0.03,1.811-0.215c0.582-0.18,1.153-0.448,1.638-0.803
		c0.993-0.722,1.778-1.747,2.04-2.952c0.133-0.598,0.149-1.225,0.066-1.843C53.876,52.967,53.701,52.357,53.444,51.779z"/>
</g>
<path fill="#C8A788" d="M65.58,15.415c-0.641,28.556,8.821,36.585-43.826,35.405c-42.425-0.951-42.903-5.779-42.196-37.333
	c0.61-27.213,10.789-31.933,42.016-31.234C60.284-16.879,66.102-7.888,65.58,15.415z"/>
<path fill="#C8A788" d="M54.034,0.199C46.763-5.455,42.64-12.32,49.505-21.146c6.866-8.829,18.326-11.402,25.597-5.748
	c7.272,5.654,7.601,17.396,0.735,26.224C68.973,8.157,61.305,5.853,54.034,0.199z"/>
<path fill="#F5C4D3" d="M54.027,0.207c-4.87-3.788-7.931-7.999-3.161-14.133c4.771-6.135,12.587-8.037,17.458-4.249
	c4.87,3.787,4.95,11.831,0.181,17.966C63.734,5.926,58.897,3.995,54.027,0.207z"/>
<path fill="#C8A788" d="M-9.878-2.901c7.518-5.323,11.943-11.996,5.48-21.122c-6.462-9.127-17.796-12.21-25.312-6.888
	c-7.518,5.324-8.373,17.037-1.91,26.165C-25.158,4.381-17.394,2.422-9.878-2.901z"/>
<path fill="#F5C4D3" d="M-9.871-2.892c5.035-3.566,8.281-7.635,3.79-13.978c-4.49-6.343-12.213-8.594-17.248-5.028
	c-5.036,3.565-5.477,11.597-0.986,17.94C-19.824,2.385-14.907,0.674-9.871-2.892z"/>
<path fill="none" stroke="#765739" stroke-miterlimit="10" stroke-dasharray="12" d="M24.889,23.339
	c0.442-19.767,0.441-19.727,0.801-35.73"/>
<g>
	<path fill="#D5B9A3" d="M48.588,43.012c-0.11,4.931-4.086,8.827-22.803,8.407C7.1,51.001,1.943,48.291,2.059,43.138
		c0.162-7.238,8.597-21.38,20.444-21.115C37.732,22.365,48.887,29.692,48.588,43.012z"/>
</g>
<g>
	<path fill="#F497B2" d="M31.003,31.78c-0.049,2.171-3.136,3.863-6.896,3.778c-3.759-0.084-6.768-1.913-6.719-4.083
		c0.049-2.17,3.136-3.861,6.896-3.777C28.043,27.782,31.051,29.61,31.003,31.78z"/>
</g>
<g>
	<path fill="#E54174" d="M30.624,30.424c0.381,0.448,0.545,1.081,0.446,1.682c-0.104,0.606-0.455,1.141-0.874,1.568
		c-0.421,0.434-0.918,0.775-1.429,1.077c-0.128,0.076-0.259,0.146-0.391,0.215l-0.198,0.101l-0.05,0.024
		c-0.036,0.017-0.043,0.019-0.063,0.027l-0.106,0.041c-0.282,0.104-0.565,0.19-0.853,0.267c-1.149,0.295-2.345,0.419-3.528,0.322
		c-1.181-0.091-2.346-0.423-3.368-0.994c1.086,0.437,2.235,0.658,3.386,0.698c1.15,0.035,2.304-0.102,3.415-0.393
		c0.277-0.071,0.554-0.153,0.821-0.249l0.099-0.037c0.013-0.005,0.04-0.015,0.037-0.015l0.049-0.023l0.193-0.096l0.381-0.201
		c0.504-0.274,0.981-0.594,1.398-0.977c0.41-0.383,0.763-0.848,0.899-1.395C31.038,31.527,30.933,30.919,30.624,30.424z"/>
</g>
<g>
	<path fill="#8D1840" d="M23.958,42.859c-0.485-1.086-1.166-2.076-1.978-2.928c-0.812-0.853-1.771-1.56-2.839-2.036
		c-1.062-0.487-2.223-0.732-3.389-0.779c-1.168-0.044-2.341,0.108-3.482,0.386l0.013-0.003c-0.384,0.136-0.772,0.342-1.13,0.567
		c-0.36,0.229-0.698,0.492-1.005,0.789c-0.613,0.592-1.104,1.313-1.414,2.113c-0.315,0.799-0.45,1.665-0.457,2.533
		c-0.008,0.869,0.125,1.739,0.322,2.593c-0.267-0.835-0.438-1.706-0.481-2.59c-0.044-0.883,0.064-1.784,0.365-2.629
		c0.299-0.844,0.791-1.625,1.431-2.258c0.318-0.318,0.67-0.603,1.046-0.85c0.378-0.248,0.769-0.457,1.21-0.618l0.004-0.001
		l0.009-0.002c1.165-0.295,2.375-0.455,3.586-0.398c1.21,0.05,2.415,0.335,3.509,0.857c1.094,0.525,2.065,1.284,2.854,2.188
		c0.398,0.451,0.746,0.942,1.055,1.454C23.493,41.76,23.764,42.296,23.958,42.859z"/>
</g>
<g>
	<path fill="#8D1840" d="M23.958,42.859c0.327-0.498,0.723-0.95,1.147-1.37c0.427-0.419,0.886-0.808,1.383-1.146
		c0.99-0.681,2.119-1.175,3.31-1.411c1.189-0.234,2.428-0.211,3.611,0.042c1.188,0.246,2.32,0.701,3.375,1.277l0.008,0.004
		l0.004,0.002c0.387,0.265,0.714,0.565,1.019,0.899c0.302,0.333,0.571,0.696,0.801,1.083c0.463,0.772,0.745,1.651,0.825,2.543
		c0.08,0.893-0.039,1.793-0.3,2.637c-0.263,0.846-0.645,1.646-1.111,2.389c0.403-0.778,0.749-1.587,0.957-2.431
		c0.209-0.842,0.294-1.715,0.187-2.566c-0.1-0.853-0.396-1.673-0.844-2.399c-0.224-0.363-0.485-0.703-0.777-1.014
		c-0.291-0.307-0.615-0.604-0.953-0.83l0.011,0.006c-1.036-0.552-2.134-0.992-3.276-1.24c-1.141-0.244-2.326-0.295-3.477-0.088
		c-1.151,0.197-2.258,0.644-3.256,1.267C25.602,41.138,24.697,41.927,23.958,42.859z"/>
</g>
<g>
	<path fill="#945F2B" d="M-35.725,19.959c-0.071,1.841-0.022,3.679,0.094,5.509c0.111,1.831,0.307,3.653,0.562,5.465
		c0.269,1.811,0.584,3.612,0.997,5.392c0.403,1.782,0.874,3.548,1.438,5.285c0.547,1.741,1.182,3.455,1.894,5.136
		c0.7,1.686,1.503,3.328,2.36,4.942c1.731,3.22,3.782,6.272,6.091,9.146c-2.604-2.611-4.857-5.586-6.734-8.783
		c-0.948-1.594-1.779-3.256-2.54-4.949c-0.749-1.698-1.401-3.438-1.972-5.204c-0.555-1.771-1.031-3.566-1.41-5.382
		c-0.368-1.817-0.669-3.648-0.854-5.491c-0.195-1.842-0.29-3.693-0.293-5.542C-36.082,23.635-36.004,21.783-35.725,19.959z"/>
</g>
<path fill="#5D3B18" d="M24.258-13.276c0,0-46.192,20.303-37.539,61.49c0,0,0.625,22.335,28.006,27.741
	c0,0-36.488,6.397-49.811-40.572c0,0-10.08-42.983,42.233-62.31c0,0,36.003-16.775,65.75,31.812c0,0,37.962,68.936-38.668,71.91
	C34.23,76.796,104.68,12.81,24.258-13.276z"/>
<path fill="#945F2B" d="M-9.747-9.221c0,0-13.565,7.233-15.679,18.773c0,0,2.788-5.663,5.035-4.817c0,0-2.356,2.541-2.347,6.237
	c0.011,3.697,0.077,1.691,0.077,1.691S-15.733-4.021-7.677-4.226c0,0-4.09-2.091-5.548,0.235C-13.225-3.99-11.052-7.428-9.747-9.221
	z"/>
<path fill="#945F2B" d="M53.973,64.883c0,0,15.514-22.555,14.229-42.593c0,0,4.369,5.101,2.476,9.032c0,0,2.269-6.791,2.884-9.475
	c0,0,7.389,17.399-13.513,45.117c0,0,1.954-6.624,0.168-7.496C60.215,59.468,57.706,65.244,53.973,64.883z"/>
<g>
	<path fill="#5D3B18" d="M32.583,16.397c0.229,1.35,0.66,2.652,1.248,3.862c0.3,0.603,0.633,1.186,1.022,1.727
		s0.825,1.044,1.302,1.499c0.479,0.454,1.005,0.854,1.566,1.19c0.559,0.342,1.153,0.623,1.771,0.84
		c1.238,0.432,2.556,0.628,3.881,0.647h0.009l0.026,0.001c0.361,0.025,0.773,0.019,1.163-0.005c0.394-0.026,0.787-0.065,1.179-0.125
		c0.78-0.121,1.547-0.32,2.274-0.612c0.726-0.294,1.417-0.669,2.035-1.143c0.62-0.471,1.158-1.045,1.611-1.684
		c0.454-0.639,0.811-1.351,1.078-2.101c0.271-0.749,0.462-1.534,0.579-2.333c0.246-1.602,0.225-3.249,0.11-4.892
		c0.34,1.612,0.502,3.276,0.382,4.947c-0.067,0.834-0.202,1.67-0.445,2.484c-0.246,0.812-0.593,1.603-1.057,2.33
		c-0.93,1.456-2.354,2.595-3.949,3.24c-0.796,0.328-1.629,0.554-2.472,0.692c-0.422,0.07-0.847,0.118-1.273,0.139
		c-0.432,0.02-0.844,0.025-1.303-0.01l0.035,0.002c-1.406-0.031-2.831-0.252-4.162-0.772c-0.664-0.257-1.305-0.581-1.9-0.973
		c-0.593-0.396-1.141-0.857-1.63-1.37c-0.492-0.51-0.922-1.075-1.29-1.673s-0.686-1.224-0.935-1.874
		c-0.251-0.649-0.456-1.312-0.599-1.989C32.696,17.768,32.601,17.083,32.583,16.397z"/>
</g>
<g>
	<path fill="#5D3B18" d="M-2.423,12.258c-0.211,1.353-0.216,2.725-0.043,4.06c0.094,0.667,0.225,1.325,0.422,1.962
		c0.198,0.637,0.451,1.252,0.759,1.835c0.31,0.582,0.681,1.128,1.106,1.626c0.422,0.501,0.896,0.957,1.413,1.359
		c1.037,0.802,2.225,1.407,3.476,1.845l0.008,0.002l0.024,0.01c0.335,0.138,0.728,0.264,1.104,0.365
		c0.382,0.101,0.768,0.188,1.157,0.255c0.778,0.134,1.569,0.188,2.352,0.142c0.781-0.048,1.556-0.184,2.292-0.437
		c0.738-0.25,1.431-0.624,2.062-1.085c0.633-0.462,1.198-1.023,1.689-1.649c0.495-0.624,0.925-1.308,1.29-2.029
		c0.741-1.44,1.245-3.01,1.657-4.603c-0.188,1.636-0.562,3.266-1.208,4.812c-0.328,0.77-0.723,1.519-1.211,2.214
		c-0.49,0.692-1.071,1.332-1.742,1.874c-1.343,1.085-3.055,1.713-4.772,1.818c-0.859,0.059-1.721,0.008-2.563-0.128
		c-0.423-0.067-0.841-0.157-1.252-0.273c-0.416-0.118-0.809-0.244-1.231-0.423l0.032,0.013c-1.324-0.477-2.604-1.139-3.701-2.054
		c-0.549-0.455-1.054-0.965-1.493-1.526c-0.437-0.564-0.81-1.175-1.111-1.816c-0.305-0.64-0.533-1.312-0.692-1.996
		c-0.158-0.684-0.261-1.378-0.291-2.073c-0.032-0.695-0.016-1.39,0.064-2.076C-2.75,13.594-2.623,12.914-2.423,12.258z"/>
</g>
<g>
	<path fill="#C9A887" d="M235.968,203.271c-0.475,12.817,7.968,23.534-9.475,22.889c-7.073-0.262-12.425-10.864-11.951-23.681
		c0.475-12.817,6.594-22.996,13.668-22.734C235.285,180.006,236.441,190.454,235.968,203.271z"/>
	<path fill="#C9A887" d="M248.329,202.687c-0.474,12.817-9.686,22.881,7.759,23.526c7.073,0.262,13.192-9.917,13.667-22.734
		c0.474-12.817-4.877-23.419-11.951-23.681C250.728,179.536,248.804,189.869,248.329,202.687z"/>
	<path fill="none" stroke="#5D3B17" stroke-miterlimit="10" stroke-dasharray="12" d="M225.56,190.741
		c0,0-4.971,24.314,0.638,33.222"/>
	<path fill="none" stroke="#5D3B17" stroke-miterlimit="10" stroke-dasharray="12" d="M261.255,190.4c0,0,3.162,24.616-3.09,33.085"
		/>
	<g>
		<path fill="#FFF8CB" d="M201.06,44.502c0,0-37.984,45.222-24.557,81.392c0,0,11.016,5.005,11.319-19.977
			c0,0,0.626-16.879,8.937-22.796c0,0,2.041,89.425,12.193,118.109l60.736,3.287c0,0,23.291-68.161,11.36-122.074
			c0,0,13.238,27.283,12.585,40.598c0,0-1.947,8.408,5.047,8.666c0,0,15.549,0.333,1.441-38.991c0,0-7.8-20.51-15.854-29.269
			l-14.204-16.395c0,0-22.31,3.556-28.879,4.101l-6.15,12.407l-4.504-13.586C230.53,49.975,212.456,48.33,201.06,44.502z"/>
		<path fill="#FFF8CB" d="M187.696,108.557c-0.486,13.135,3.657,20.531-1.063,24.011c-6.652,4.903-14.246,1.052-13.3-24.542
			c0.485-13.134,11.188-23.165,15.059-23.021C192.261,85.148,188.182,95.423,187.696,108.557z"/>
		<path fill="#FFF8CB" d="M290.835,114.516c1.76,13.026-1.647,20.79,3.392,23.795c7.096,4.234,14.28-0.336,10.854-25.718
			c-1.76-13.025-13.386-21.967-17.224-21.449C284.021,91.661,289.077,101.492,290.835,114.516z"/>
	</g>
	<g>
		
			<rect x="198.914" y="47.388" transform="matrix(0.9993 0.037 -0.037 0.9993 2.5622 -8.5652)" fill="#C9A887" width="68.095" height="35.269"/>
		<path fill="#E0CD20" d="M187.793,108.206c-0.485,13.133,3.657,20.53-1.063,24.012c-6.652,4.903-14.246,1.052-13.3-24.543
			c0.485-13.133,11.188-23.164,15.059-23.021C192.358,84.796,188.279,95.072,187.793,108.206z"/>
		<path fill="#E0CD20" d="M290.933,114.164c1.759,13.026-1.648,20.79,3.391,23.795c7.096,4.234,14.281-0.335,10.854-25.718
			c-1.759-13.025-13.386-21.968-17.223-21.451C284.117,91.309,289.174,101.14,290.933,114.164z"/>
		<g>
			<path fill="#E0CD20" d="M300.171,91.948c0,0-7.8-20.51-15.855-29.268l-14.203-16.396c0,0-22.31,3.557-28.879,4.102l-6.15,12.406
				l-4.505-13.585c0,0-18.073-1.644-29.471-5.474c0,0-37.984,45.222-24.556,81.392c0,0,11.016,5.006,11.319-19.976
				c0,0,0.626-16.879,8.938-22.796c0,0-11.767,39.719-1.615,68.403l36.998,1.24l7.322-61.355l1.566,61.812l45.487-0.28
				c0,0,6.463-16.583-5.47-70.498c0,0,13.238,27.283,12.585,40.6c0,0-1.947,8.408,5.046,8.667
				C298.729,130.941,314.278,131.273,300.171,91.948z"/>
			<path fill="#E0CD20" d="M195.049,150.487c0,0,10.343,12.064,20.31-0.756"/>
			<path fill="#E0CD20" d="M212.035,149.794c0,0,10.887,15.876,20.57,2.217"/>
			<path fill="#E0CD20" d="M241.566,152.282c0,0,10.751,12.089,21.058-0.711"/>
			<path fill="#E0CD20" d="M259.052,148.874c0,0,14.945,22.051,28.266,3.06"/>
		</g>
		<g>
			<path fill="#E44175" d="M222.634,140.88c0,0,5.253-6.586,11.076-0.008C233.71,140.872,226.88,147.065,222.634,140.88z"/>
			<path fill="#E44175" d="M219.776,139.683c0,0-4.329-7.228,3.872-10.378C223.648,129.305,227.057,137.87,219.776,139.683z"/>
			<path fill="#E44175" d="M217.487,140.564c0,0-8.15,2.13-8.875-6.625C208.612,133.939,217.79,133.068,217.487,140.564z"/>
			<path fill="#E44175" d="M217.587,143.34c0,0-1.895,8.211-9.986,4.789C207.601,148.128,211.087,139.594,217.587,143.34z"/>
			<path fill="#E44175" d="M220.528,143.221c0,0,8.188,1.983,4.679,10.037C225.207,153.258,216.712,149.678,220.528,143.221z"/>
		</g>
		<g>
			<path fill="#E44175" d="M208.263,117.266c0,0,5.252-6.588,11.077-0.009C219.34,117.257,212.509,123.45,208.263,117.266z"/>
			<path fill="#E44175" d="M205.406,116.067c0,0-4.33-7.227,3.872-10.377C209.278,105.69,212.686,114.255,205.406,116.067z"/>
			<path fill="#E44175" d="M203.117,116.949c0,0-8.151,2.13-8.876-6.626C194.241,110.323,203.419,109.453,203.117,116.949z"/>
			<path fill="#E44175" d="M203.217,119.723c0,0-1.896,8.212-9.988,4.79C193.229,124.513,196.715,115.979,203.217,119.723z"/>
			<path fill="#E44175" d="M206.158,119.606c0,0,8.188,1.984,4.679,10.037C210.837,129.643,202.341,126.063,206.158,119.606z"/>
		</g>
		<g>
			<path fill="#E44175" d="M223.531,88.395c0,0,5.253-6.588,11.077-0.009C234.608,88.386,227.778,94.578,223.531,88.395z"/>
			<path fill="#E44175" d="M220.676,87.195c0,0-4.331-7.226,3.871-10.376C224.547,76.819,227.954,85.384,220.676,87.195z"/>
			<path fill="#E44175" d="M218.386,88.077c0,0-8.15,2.13-8.875-6.625C209.511,81.452,218.687,80.58,218.386,88.077z"/>
			<path fill="#E44175" d="M218.485,90.852c0,0-1.896,8.211-9.987,4.789C208.498,95.641,211.984,87.108,218.485,90.852z"/>
			<path fill="#E44175" d="M221.427,90.734c0,0,8.188,1.985,4.679,10.039C226.105,100.772,217.61,97.192,221.427,90.734z"/>
		</g>
		<g>
			<path fill="#E44175" d="M187.788,76.839c0,0,5.253-6.588,11.076-0.009C198.864,76.83,192.035,83.023,187.788,76.839z"/>
			<path fill="#E44175" d="M184.932,75.64c0,0-4.329-7.227,3.871-10.377C188.803,65.263,192.212,73.828,184.932,75.64z"/>
			<path fill="#E44175" d="M185.683,79.179c0,0,8.189,1.983,4.679,10.037C190.361,89.216,181.866,85.636,185.683,79.179z"/>
		</g>
		<g>
			<path fill="#E44175" d="M175.121,101.019c0,0,5.253-6.588,11.077-0.008C186.198,101.011,179.367,107.203,175.121,101.019z"/>
			<path fill="#E44175" d="M173.016,103.359c0,0,8.188,1.984,4.679,10.038C177.694,113.397,169.2,109.817,173.016,103.359z"/>
		</g>
		<g>
			<path fill="#E44175" d="M216.576,60.72c0,0,5.624-7.055,11.862-0.01C228.438,60.71,221.123,67.342,216.576,60.72z"/>
			<path fill="#E44175" d="M213.517,59.436c0,0-4.637-7.741,4.146-11.114C217.663,48.323,221.312,57.496,213.517,59.436z"/>
			<path fill="#E44175" d="M211.064,60.38c0,0-8.729,2.282-9.505-7.095C201.56,53.285,211.39,52.352,211.064,60.38z"/>
			<path fill="#E44175" d="M211.172,63.352c0,0-2.03,8.794-10.695,5.129C200.477,68.481,204.21,59.342,211.172,63.352z"/>
			<path fill="#E44175" d="M214.321,63.225c0,0,8.77,2.126,5.011,10.75C219.332,73.975,210.235,70.141,214.321,63.225z"/>
		</g>
		<g>
			<path fill="#E44175" d="M281.931,152.108c0,0-4.33-7.227,3.871-10.376C285.802,141.732,289.21,150.297,281.931,152.108z"/>
			<path fill="#E44175" d="M279.641,152.989c0,0-8.15,2.13-8.876-6.624C270.765,146.365,279.942,145.493,279.641,152.989z"/>
		</g>
		<g>
			<path fill="#E44175" d="M254.881,142.223c0,0,5.253-6.587,11.077-0.008C265.958,142.215,259.127,148.408,254.881,142.223z"/>
			<path fill="#E44175" d="M252.025,141.025c0,0-4.331-7.227,3.87-10.377C255.896,130.647,259.304,139.213,252.025,141.025z"/>
			<path fill="#E44175" d="M249.734,141.906c0,0-8.15,2.129-8.876-6.625C240.858,135.281,250.037,134.41,249.734,141.906z"/>
			<path fill="#E44175" d="M249.834,144.681c0,0-1.895,8.211-9.987,4.79C239.847,149.471,243.333,140.936,249.834,144.681z"/>
			<path fill="#E44175" d="M252.775,144.564c0,0,8.188,1.983,4.679,10.037C257.454,154.6,248.959,151.021,252.775,144.564z"/>
		</g>
		<g>
			<path fill="#E44175" d="M256.317,115.45c0,0,5.253-6.588,11.076-0.009C267.394,115.442,260.564,121.635,256.317,115.45z"/>
			<path fill="#E44175" d="M253.461,114.252c0,0-4.33-7.227,3.872-10.377C257.333,103.875,260.741,112.44,253.461,114.252z"/>
			<path fill="#E44175" d="M251.171,115.134c0,0-8.15,2.13-8.875-6.626C242.296,108.508,251.475,107.637,251.171,115.134z"/>
			<path fill="#E44175" d="M251.272,117.908c0,0-1.896,8.212-9.988,4.79C241.284,122.698,244.771,114.164,251.272,117.908z"/>
			<path fill="#E44175" d="M254.213,117.79c0,0,8.188,1.984,4.679,10.038C258.892,127.828,250.396,124.248,254.213,117.79z"/>
		</g>
		<g>
			<path fill="#E44175" d="M273.207,95.799c0,0,5.625-7.055,11.862-0.01C285.069,95.789,277.755,102.422,273.207,95.799z"/>
			<path fill="#E44175" d="M270.147,94.515c0,0-4.637-7.74,4.146-11.113C274.294,83.402,277.944,92.575,270.147,94.515z"/>
			<path fill="#E44175" d="M267.696,95.459c0,0-8.729,2.282-9.506-7.094C258.19,88.365,268.021,87.432,267.696,95.459z"/>
			<path fill="#E44175" d="M267.803,98.431c0,0-2.03,8.794-10.696,5.129C257.106,103.56,260.841,94.421,267.803,98.431z"/>
			<path fill="#E44175" d="M270.952,98.305c0,0,8.769,2.125,5.011,10.749C275.963,109.054,266.866,105.22,270.952,98.305z"/>
		</g>
		<g>
			<path fill="#E44175" d="M301.589,100.37c0,0-8.729,2.28-9.506-7.095C292.083,93.275,301.912,92.343,301.589,100.37z"/>
			<path fill="#E44175" d="M301.696,103.342c0,0-2.03,8.794-10.696,5.129C291,108.471,294.733,99.331,301.696,103.342z"/>
		</g>
		<g>
			<path fill="#E44175" d="M261.064,71.189c0,0,5.253-6.587,11.077-0.008C272.142,71.181,265.312,77.374,261.064,71.189z"/>
			<path fill="#E44175" d="M258.209,69.991c0,0-4.331-7.227,3.871-10.377C262.08,59.614,265.488,68.178,258.209,69.991z"/>
			<path fill="#E44175" d="M255.919,70.872c0,0-8.15,2.13-8.877-6.625C247.042,64.247,256.221,63.376,255.919,70.872z"/>
			<path fill="#E44175" d="M256.019,73.648c0,0-1.895,8.211-9.987,4.79C246.031,78.437,249.518,69.903,256.019,73.648z"/>
			<path fill="#E44175" d="M258.96,73.53c0,0,8.188,1.984,4.679,10.038C263.639,83.568,255.144,79.987,258.96,73.53z"/>
		</g>
		<g>
			<path fill="#E44175" d="M287.524,70.753c0,0-8.151,2.129-8.876-6.625C278.648,64.128,287.826,63.258,287.524,70.753z"/>
			<path fill="#E44175" d="M287.624,73.528c0,0-1.896,8.212-9.988,4.79C277.636,78.318,281.123,69.783,287.624,73.528z"/>
			<path fill="#E44175" d="M288.493,73.334c0,0,8.188,1.984,4.679,10.038C293.172,83.371,284.676,79.791,288.493,73.334z"/>
		</g>
		<g>
			<path fill="#AB8661" d="M290.806,118.655c0,0,10.141-4.744,16.483,3.6c0,0,0.981,22.076-9.978,18.3
				C297.312,140.554,287.142,140.967,290.806,118.655z"/>
			<path fill="none" stroke="#765739" stroke-miterlimit="10" stroke-dasharray="12" d="M299.975,118.162
				c0,0,3.897,15.424-1.2,22.758"/>
		</g>
		<g>
			<path fill="#AB8661" d="M188.171,113.573c0,0-10.131-4.168-15.525,4.507c0,0,0.896,22.075,11.102,17.699
				C183.747,135.779,193.546,135.623,188.171,113.573z"/>
			<path fill="none" stroke="#765739" stroke-miterlimit="10" stroke-dasharray="12" d="M179.529,113.532
				c0,0-1.436,17.658,2.562,22.857"/>
		</g>
	</g>
	<g>
		<g>
			<circle fill="#FFFFFF" cx="208.837" cy="51.627" r="5.113"/>
			<g opacity="0.85">
				<path fill="#B6D2EE" d="M213.305,49.135c0.932,0.946,1.449,2.357,1.289,3.834c-0.148,1.496-1.116,2.863-2.28,3.676
					c-1.26,0.868-2.76,1.223-4.249,0.922c-1.489-0.31-2.622-1.398-3.106-2.615c1.138,0.688,2.244,1.099,3.287,1.064
					c1.022-0.023,2.088-0.445,2.896-0.992c0.878-0.639,1.569-1.388,1.933-2.385C213.433,51.645,213.488,50.436,213.305,49.135z"/>
			</g>
		</g>
		<g>
			<circle fill="#FFFFFF" cx="213.518" cy="59.436" r="5.114"/>
			<g opacity="0.85">
				<path fill="#B6D2EE" d="M217.983,56.944c0.932,0.946,1.45,2.357,1.29,3.834c-0.147,1.496-1.115,2.864-2.28,3.677
					c-1.26,0.868-2.76,1.222-4.25,0.921c-1.488-0.31-2.622-1.398-3.106-2.615c1.138,0.688,2.244,1.1,3.288,1.064
					c1.022-0.022,2.088-0.444,2.897-0.991c0.878-0.639,1.569-1.388,1.932-2.385C218.112,59.454,218.167,58.245,217.983,56.944z"/>
			</g>
		</g>
		<g>
			<circle fill="#FFFFFF" cx="220.634" cy="63.896" r="5.113"/>
			<g opacity="0.85">
				<path fill="#B6D2EE" d="M225.101,61.405c0.932,0.946,1.449,2.357,1.29,3.834c-0.148,1.497-1.116,2.864-2.28,3.677
					c-0.66,0.458-1.307,0.723-2.035,0.896c-0.72,0.145-1.484,0.202-2.215,0.025c-1.488-0.31-2.623-1.397-3.107-2.614
					c1.138,0.688,2.244,1.099,3.289,1.064c1.021-0.022,2.088-0.445,2.896-0.991c0.878-0.64,1.569-1.389,1.932-2.385
					C225.229,63.915,225.284,62.705,225.101,61.405z"/>
			</g>
		</g>
		<g>
			<circle fill="#FFFFFF" cx="228.653" cy="66.59" r="5.113"/>
			<g opacity="0.85">
				<path fill="#B6D2EE" d="M233.119,64.1c0.932,0.946,1.45,2.356,1.29,3.834c-0.148,1.496-1.117,2.864-2.281,3.676
					c-1.26,0.868-2.76,1.222-4.25,0.921c-1.488-0.31-2.621-1.397-3.106-2.614c1.138,0.688,2.244,1.099,3.288,1.064
					c1.022-0.023,2.088-0.445,2.897-0.991c0.878-0.639,1.569-1.388,1.933-2.384C233.247,66.61,233.303,65.401,233.119,64.1z"/>
			</g>
		</g>
		<g>
			<circle fill="#FFFFFF" cx="237.729" cy="66.052" r="5.113"/>
			<g opacity="0.85">
				<path fill="#B6D2EE" d="M242.194,63.561c0.932,0.946,1.45,2.356,1.29,3.834c-0.148,1.496-1.116,2.864-2.28,3.677
					c-1.261,0.868-2.761,1.222-4.25,0.92c-1.488-0.311-2.622-1.398-3.106-2.615c1.138,0.688,2.243,1.1,3.288,1.065
					c1.021-0.022,2.088-0.444,2.896-0.991c0.878-0.639,1.569-1.388,1.933-2.385C242.323,66.071,242.378,64.862,242.194,63.561z"/>
			</g>
		</g>
		<g>
			<circle fill="#FFFFFF" cx="245.833" cy="65.062" r="5.113"/>
			<g opacity="0.85">
				<path fill="#B6D2EE" d="M250.301,62.571c0.932,0.946,1.45,2.357,1.29,3.834c-0.148,1.497-1.116,2.864-2.281,3.677
					c-1.26,0.868-2.76,1.222-4.25,0.921c-1.488-0.31-2.621-1.397-3.106-2.614c1.138,0.688,2.244,1.099,3.288,1.064
					c1.022-0.022,2.088-0.445,2.897-0.992c0.878-0.639,1.569-1.388,1.933-2.384C250.429,65.081,250.484,63.871,250.301,62.571z"/>
			</g>
		</g>
		<g>
			<circle fill="#FFFFFF" cx="253.032" cy="60.778" r="5.113"/>
			<g opacity="0.85">
				<path fill="#B6D2EE" d="M257.497,58.287c0.932,0.946,1.451,2.356,1.291,3.834c-0.148,1.496-1.116,2.864-2.281,3.676
					c-1.26,0.868-2.759,1.222-4.249,0.921c-1.488-0.31-2.622-1.397-3.106-2.614c1.138,0.688,2.244,1.099,3.288,1.063
					c1.022-0.022,2.087-0.444,2.897-0.991c0.877-0.639,1.568-1.388,1.932-2.384C257.626,60.797,257.681,59.588,257.497,58.287z"/>
			</g>
		</g>
		<g>
			<circle fill="#FFFFFF" cx="260.033" cy="54.627" r="5.114"/>
			<g opacity="0.85">
				<path fill="#B6D2EE" d="M264.499,52.136c0.932,0.946,1.451,2.356,1.291,3.834c-0.148,1.497-1.116,2.864-2.281,3.677
					c-1.26,0.868-2.76,1.222-4.249,0.921c-1.489-0.31-2.623-1.397-3.107-2.614c1.138,0.688,2.244,1.099,3.288,1.064
					c1.022-0.023,2.088-0.445,2.897-0.992c0.878-0.639,1.569-1.388,1.933-2.385C264.628,54.646,264.683,53.437,264.499,52.136z"/>
			</g>
		</g>
	</g>
	<path fill="#C9A887" d="M277.105,16.116c-1.05,28.415,8.251,36.544-44.136,34.606c-42.216-1.561-42.623-6.374-41.462-37.772
		c1.002-27.079,11.202-31.63,42.274-30.48C272.302-16.105,277.964-7.072,277.105,16.116z"/>
	<g>
		<g>
			<path fill="#C9A887" d="M265.834,0.803c-7.156-5.733-11.16-12.625-4.198-21.312c6.961-8.689,18.406-11.084,25.561-5.35
				c7.157,5.733,7.314,17.425,0.353,26.112C280.588,8.942,272.989,6.536,265.834,0.803z"/>
			<path fill="#F4C3D2" d="M265.826,0.811c-4.792-3.84-7.778-8.077-2.942-14.114c4.839-6.037,12.646-7.818,17.439-3.977
				c4.793,3.839,4.757,11.847-0.08,17.886C275.405,6.643,270.619,4.652,265.826,0.811z"/>
		</g>
		<g>
			<path fill="#C9A887" d="M202.261-3.208c7.561-5.189,12.062-11.767,5.761-20.945c-6.3-9.179-17.536-12.412-25.096-7.223
				c-7.56,5.19-8.58,16.837-2.279,26.017C186.947,3.819,194.702,1.982,202.261-3.208z"/>
			<path fill="#F4C3D2" d="M202.269-3.199c5.063-3.477,8.354-7.479,3.976-13.858c-4.379-6.378-12.033-8.73-17.097-5.254
				c-5.064,3.477-5.619,11.464-1.241,17.843C192.284,1.909,197.204,0.277,202.269-3.199z"/>
		</g>
		<path fill="none" stroke="#765739" stroke-miterlimit="10" stroke-dasharray="12" d="M236.488,23.415
			c0.727-19.669,0.726-19.63,1.314-35.555"/>
		<g>
			<g>
				<path fill="#9A6226" d="M264.708,12.556c0.681,0.169,1.324,0.318,1.949,0.389c0.621,0.062,1.221,0.044,1.711-0.172
					c0.498-0.193,0.897-0.597,1.234-1.112c0.333-0.52,0.59-1.131,0.885-1.771c0.116,0.694,0.071,1.415-0.184,2.113
					c-0.24,0.694-0.787,1.375-1.553,1.693c-0.768,0.306-1.584,0.244-2.267,0.007C265.796,13.466,265.182,13.083,264.708,12.556z"/>
			</g>
			<g>
				<path fill="#9A6226" d="M264.97,16.692c0.681,0.169,1.324,0.318,1.949,0.389c0.622,0.061,1.221,0.043,1.711-0.172
					c0.498-0.193,0.898-0.597,1.234-1.112c0.334-0.52,0.592-1.132,0.886-1.771c0.116,0.695,0.071,1.416-0.185,2.113
					c-0.239,0.695-0.787,1.376-1.553,1.693c-0.767,0.306-1.583,0.245-2.267,0.007C266.058,17.602,265.443,17.219,264.97,16.692z"/>
			</g>
			<g>
				
					<ellipse transform="matrix(0.9993 0.037 -0.037 0.9993 0.7848 -9.4137)" fill="#FFFFFF" cx="254.985" cy="16.517" rx="10.548" ry="10.265"/>
			</g>
			<g>
				
					<ellipse transform="matrix(0.9993 0.037 -0.037 0.9993 0.8706 -9.4014)" fill="#231F20" cx="254.578" cy="18.835" rx="7.394" ry="7.195"/>
			</g>
		</g>
		<g>
			<path fill="#D4B8A2" d="M259.793,43.34c-0.181,4.906-4.193,8.727-22.818,8.038c-18.595-0.688-23.688-3.458-23.497-8.586
				c0.266-7.203,8.866-21.158,20.655-20.722C249.286,22.631,260.284,30.085,259.793,43.34z"/>
		</g>
		<g>
			<g>
				
					<ellipse transform="matrix(0.9993 0.0369 -0.0369 0.9993 1.3293 -8.6796)" fill="#F395B0" cx="235.679" cy="31.654" rx="6.778" ry="3.914"/>
			</g>
			<g>
				<path fill="#E44175" d="M242.094,30.55c0.521,0.35,0.836,1.04,0.806,1.768c-0.046,0.73-0.4,1.408-0.842,1.921
					c-0.441,0.524-0.967,0.927-1.507,1.264c-0.135,0.085-0.272,0.167-0.411,0.239l-0.209,0.111l-0.052,0.028l-0.121,0.052
					l-0.122,0.048c-0.312,0.116-0.615,0.203-0.922,0.284c-1.228,0.301-2.514,0.355-3.756,0.118c-1.234-0.24-2.432-0.781-3.293-1.674
					c1.227,0.133,2.322,0.187,3.406,0.105c1.078-0.069,2.134-0.242,3.164-0.491c0.258-0.058,0.515-0.13,0.751-0.205l0.084-0.025
					l0.014-0.004l0.011-0.003l0.003-0.001c-0.11,0.048-0.029,0.013-0.053,0.023l0.005-0.002l0.047-0.02l0.183-0.08l0.362-0.164
					c0.479-0.22,0.935-0.46,1.336-0.738c0.396-0.281,0.759-0.586,0.969-1C242.178,31.699,242.244,31.15,242.094,30.55z"/>
			</g>
		</g>
		<g>
			<g>
				<path fill="#8C1840" d="M235.257,42.829c-1.649-1.738-3.62-3.007-5.725-3.425c-2.097-0.46-4.262-0.022-6.311,0.807l0.062-0.03
					c-0.547,0.299-1.208,0.828-1.664,1.396c-0.464,0.586-0.847,1.248-1.056,1.994c-0.46,1.492-0.271,3.223,0.14,4.945
					c-0.53-0.715-0.959-1.52-1.239-2.4c-0.284-0.877-0.404-1.843-0.293-2.815c0.12-0.967,0.454-1.942,1.022-2.763
					c0.577-0.835,1.219-1.525,2.186-2.095l0.01-0.006l0.053-0.024c1.145-0.521,2.384-0.9,3.676-1.038
					c1.291-0.148,2.628,0,3.867,0.399c1.233,0.429,2.352,1.119,3.248,2C234.124,40.653,234.853,41.681,235.257,42.829z"/>
			</g>
			<g>
				<path fill="#8C1840" d="M235.257,42.829c0.312-1.176,0.957-2.259,1.777-3.206c0.823-0.949,1.885-1.724,3.08-2.249
					c1.204-0.496,2.525-0.748,3.823-0.702c1.3,0.036,2.563,0.316,3.746,0.746l0.055,0.02l0.01,0.005
					c1.009,0.493,1.703,1.13,2.345,1.917c0.63,0.774,1.039,1.72,1.236,2.675c0.187,0.961,0.143,1.933-0.071,2.83
					c-0.21,0.9-0.574,1.736-1.047,2.49c0.273-1.75,0.326-3.49-0.249-4.941c-0.268-0.728-0.701-1.357-1.21-1.905
					c-0.499-0.53-1.199-1.005-1.768-1.261l0.064,0.025c-2.108-0.666-4.301-0.931-6.355-0.308
					C238.629,39.547,236.764,40.967,235.257,42.829z"/>
			</g>
		</g>
		<g>
			<path fill="#935F2A" d="M176.203,19.173c0.662,3.732,1.323,7.268,2.077,10.761c0.75,3.486,1.61,6.895,2.626,10.247
				c1.021,3.352,2.188,6.647,3.553,9.917c1.347,3.286,2.913,6.507,4.524,9.956c-3.192-2.087-5.83-4.921-7.979-8.078
				c-2.145-3.166-3.778-6.685-4.883-10.347c-1.105-3.664-1.691-7.471-1.736-11.271C174.371,26.568,174.798,22.735,176.203,19.173z"
				/>
		</g>
		<g>
			<g>
				<path fill="#9A6226" d="M208.847,10.124c-0.511,0.49-1.151,0.828-1.855,1.013c-0.699,0.187-1.518,0.188-2.26-0.174
					c-0.74-0.373-1.236-1.093-1.424-1.804c-0.203-0.715-0.195-1.437-0.027-2.121c0.246,0.66,0.458,1.289,0.752,1.832
					c0.298,0.539,0.666,0.97,1.148,1.2c0.473,0.251,1.069,0.313,1.693,0.298C207.503,10.344,208.155,10.242,208.847,10.124z"/>
			</g>
			<g>
				<path fill="#9A6226" d="M208.28,14.23c-0.511,0.49-1.151,0.827-1.855,1.013c-0.699,0.186-1.519,0.188-2.26-0.174
					c-0.741-0.373-1.236-1.093-1.424-1.803c-0.203-0.715-0.195-1.437-0.027-2.121c0.246,0.659,0.458,1.289,0.752,1.832
					c0.297,0.539,0.666,0.97,1.148,1.2c0.473,0.251,1.068,0.313,1.693,0.298C206.937,14.449,207.589,14.348,208.28,14.23z"/>
			</g>
			<g>
				
					<ellipse transform="matrix(-0.9993 -0.0369 0.0369 -0.9993 435.8066 37.6365)" fill="#FFFFFF" cx="218.251" cy="14.792" rx="10.548" ry="10.265"/>
			</g>
			<g>
				
					<ellipse transform="matrix(-0.9993 -0.0369 0.0369 -0.9993 438.2796 43.6209)" fill="#231F20" cx="219.542" cy="17.764" rx="7.394" ry="7.195"/>
			</g>
		</g>
		<path fill="#5D3B17" d="M236.391-13.041c0,0-46.273,19.54-38.257,60.664c0,0,0.299,22.24,27.476,28.018
			c0,0-36.413,5.84-48.993-41.105c0,0-9.411-42.931,42.939-61.411c0,0,36.081-16.176,64.988,32.617c0,0,36.787,69.168-39.531,71.019
			C245.013,76.76,316.063,14.089,236.391-13.041z"/>
		<path fill="#935F2A" d="M202.483-9.497c0,0-13.607,7.004-15.877,18.46c0,0,2.857-5.596,5.081-4.723c0,0-2.382,2.495-2.426,6.174
			c-0.043,3.68,0.052,1.684,0.052,1.684s7.137-16.506,15.158-16.593c0,0-4.041-2.141-5.525,0.154
			C198.946-4.341,201.158-7.731,202.483-9.497z"/>
		<path fill="#935F2A" d="M264.837,65.188c0,0,15.77-22.227,14.779-42.191c0,0,4.274,5.141,2.333,9.026c0,0,2.356-6.726,3.008-9.39
			c0,0,7.103,17.426-14.104,44.712c0,0,2.04-6.564,0.275-7.459C271.129,59.887,268.548,65.601,264.837,65.188z"/>
	</g>
</g>
</svg>
