<?xml version="1.0" encoding="utf-8"?>
<!-- Generator: Adobe Illustrator 15.1.0, SVG Export Plug-In . SVG Version: 6.00 Build 0)  -->
<!DOCTYPE svg PUBLIC "-//W3C//DTD SVG 1.1//EN" "http://www.w3.org/Graphics/SVG/1.1/DTD/svg11.dtd">
<svg version="1.1" id="Layer_1" xmlns="http://www.w3.org/2000/svg" xmlns:xlink="http://www.w3.org/1999/xlink" x="0px" y="0px"
	 width="114px" height="76px" viewBox="16.5 7.5 114 76" enable-background="new 16.5 7.5 114 76" xml:space="preserve">
<polygon fill="#198A45" points="34.178,20.605 21.228,73.598 125.156,73.598 113.176,22.579 112.854,20.605 "/>
<path fill="#C8312D" d="M42.455,24.59c0,0,6.036-7.492,18.525-0.833c0,0,1.249,1.042,0,2.083c0,0,5.827,0.208,6.868,1.873
	c0,0,2.498,10.198-5.412,11.031c0,0-7.284,7.077-10.406,2.914c0,0-8.534,1.249-9.574-3.122c0,0-2.914-3.539-4.37-3.122
	c0,0-5.827-2.498,0.833-6.244C38.917,29.169,36.837,24.799,42.455,24.59z"/>
<path fill="#FFFFFF" d="M111.785,33.032c0.521,3.676-4.622,8.009-9.788,8.742c-5.166,0.732-8.667-1.514-9.188-5.189
	s2.135-7.388,7.301-8.12C105.275,27.733,111.264,29.358,111.785,33.032z"/>
<path fill="#F5F2E5" d="M93.35,38.373c0,0,9.064,7.121,18.179-3.261c0,0-2.089,6.191-10.399,6.759
	C101.129,41.871,95.005,42.451,93.35,38.373z"/>
<path fill="#FBE445" d="M106.125,32.238c0.719,1.958-0.802,4.318-3.398,5.271s-5.282,0.138-6.002-1.82
	c-0.718-1.959,0.803-4.318,3.399-5.271C102.719,29.464,105.407,30.28,106.125,32.238z"/>
<path fill="#F4CD15" d="M96.725,35.688c0,0,5.509,4.778,9.577-2.404c0,0,0.353,3.125-4.622,4.512
	C101.681,37.797,98.083,38.769,96.725,35.688z"/>
<path fill="#FFFFFF" d="M90.968,41.583c2.213,7.244-8.347,13.715-18.641,13.715c-10.295,0-18.64-6.14-18.64-13.715
	c0-7.574,9.405-15.959,19.7-15.959C83.682,25.623,88.656,34.018,90.968,41.583z"/>
<ellipse fill="#FFFFFF" cx="63.83" cy="27.425" rx="0.785" ry="1.241"/>
<path fill="#FFFFFF" d="M68.276,26.085c0,0.74-0.293,1.34-0.653,1.34c-0.363,0-0.655-0.6-0.655-1.34s0.292-1.34,0.655-1.34
	C67.983,24.744,68.276,25.344,68.276,26.085z"/>
<ellipse fill="#FFFFFF" cx="72.27" cy="26.085" rx="1.118" ry="1.34"/>
<ellipse fill="#FFFFFF" cx="84.65" cy="29.725" rx="1.428" ry="0.923"/>
<path fill="#FFFFFF" d="M88.021,32.59c0,0.51-0.64,0.923-1.429,0.923c-0.787,0-1.427-0.413-1.427-0.923
	c0-0.51,0.64-0.923,1.427-0.923C87.381,31.667,88.021,32.08,88.021,32.59z"/>
<path fill="#FFFFFF" d="M90.312,49.352c0,0.51-0.64,0.924-1.427,0.924c-0.789,0-1.428-0.414-1.428-0.924
	c0-0.51,0.639-0.922,1.428-0.922C89.672,48.43,90.312,48.843,90.312,49.352z"/>
<path fill="#FFFFFF" d="M88.511,34.042c0,0.511-0.639,0.924-1.427,0.924c-0.789,0-1.428-0.413-1.428-0.924
	c0-0.509,0.64-0.921,1.428-0.921C87.872,33.121,88.511,33.533,88.511,34.042z"/>
<path fill="#FFFFFF" d="M92.204,39.532c0,0.512-1.024,0.928-2.288,0.928c-1.264,0-2.288-0.416-2.288-0.928
	c0-0.513,1.024-0.928,2.288-0.928C91.18,38.605,92.204,39.02,92.204,39.532z"/>
<path fill="#FFFFFF" d="M92.857,45.143c0,0.505-0.789,0.915-1.765,0.915c-0.975,0-1.765-0.41-1.765-0.915
	c0-0.506,0.791-0.916,1.765-0.916C92.068,44.227,92.857,44.637,92.857,45.143z"/>
<path fill="#FFFFFF" d="M57.685,34.355c0,0.541-0.683,0.98-1.524,0.98c-0.842,0-1.524-0.439-1.524-0.98
	c0-0.542,0.682-0.981,1.524-0.981C57.002,33.374,57.685,33.813,57.685,34.355z"/>
<ellipse fill="#FFFFFF" cx="56.16" cy="48.372" rx="1.524" ry="0.981"/>
<ellipse fill="#FFFFFF" cx="58.861" cy="51.174" rx="1.524" ry="0.981"/>
<ellipse fill="#FFFFFF" cx="59.45" cy="31.275" rx="1.765" ry="0.922"/>
<path fill="#FFFFFF" d="M57.008,36.849c0,0.509-0.79,0.923-1.765,0.923c-0.976,0-1.766-0.414-1.766-0.923
	c0-0.51,0.79-0.922,1.766-0.922C56.218,35.927,57.008,36.34,57.008,36.849z"/>
<path fill="#FFFFFF" d="M60.114,33.121c0,0.509-0.79,0.921-1.764,0.921c-0.975,0-1.766-0.413-1.766-0.921
	c0-0.509,0.79-0.924,1.766-0.924C59.324,32.197,60.114,32.612,60.114,33.121z"/>
<ellipse fill="#FFFFFF" cx="81.177" cy="27.145" rx="1.002" ry="1.521"/>
<path fill="#FFFFFF" d="M56.16,45.143c0,0.505-0.684,0.915-1.526,0.915c-0.844,0-1.526-0.41-1.526-0.915
	c0-0.506,0.682-0.916,1.526-0.916C55.477,44.227,56.16,44.637,56.16,45.143z"/>
<ellipse fill="#FFFFFF" cx="53.108" cy="40.46" rx="1.526" ry="0.916"/>
<path fill="#FFFFFF" d="M62.157,29.183c0,0.507-0.683,0.916-1.526,0.916c-0.843,0-1.526-0.409-1.526-0.916
	c0-0.505,0.683-0.914,1.526-0.914C61.474,28.269,62.157,28.678,62.157,29.183z"/>
<ellipse fill="#FFFFFF" cx="83.002" cy="52.565" rx="1.526" ry="0.916"/>
<path fill="#FFFFFF" d="M68.221,53.529c0.289,0.416-0.038,1.142-0.73,1.624c-0.693,0.481-1.488,0.533-1.776,0.118
	c-0.288-0.415,0.039-1.142,0.731-1.623C67.138,53.167,67.934,53.114,68.221,53.529z"/>
<polygon fill="#FFDF95" points="26.634,50.956 28.628,52.846 36.524,53.847 31.579,50.956 "/>
<g>
	
		<image overflow="visible" enable-background="new    " width="400" height="325" xlink:href="5F27C5B1.png"  transform="matrix(0.0379 0 0 0.0379 23.1265 46.2229)">
	</image>
</g>
<polygon fill="#FFDF95" points="34.961,56.087 36.955,57.978 44.853,58.978 39.907,56.087 "/>
<g>
	
		<image overflow="visible" enable-background="new    " width="400" height="325" xlink:href="5F27C5B3.png"  transform="matrix(0.0379 0 0 0.0379 31.4536 51.3547)">
	</image>
</g>
<polygon fill="#FFDF95" points="40.744,50.069 42.737,51.959 50.635,52.961 45.689,50.069 "/>
<g>
	
		<image overflow="visible" enable-background="new    " width="400" height="325" xlink:href="5F27C5B6.png"  transform="matrix(0.0379 0 0 0.0379 37.2363 45.3372)">
	</image>
</g>
<polygon fill="#FFDF95" points="31.139,44.522 33.133,46.413 41.031,47.414 36.085,44.522 "/>
<g>
	
		<image overflow="visible" enable-background="new    " width="400" height="325" xlink:href="5F27C5B7.png"  transform="matrix(0.0379 0 0 0.0379 27.6318 39.7903)">
	</image>
</g>
<polygon fill="#FFDF95" points="45.323,53.729 47.316,55.62 55.214,56.621 50.268,53.729 "/>
<g>
	
		<image overflow="visible" enable-background="new    " width="400" height="325" xlink:href="5F27C5B2.png"  transform="matrix(0.0379 0 0 0.0379 41.8149 48.9968)">
	</image>
</g>
<polygon fill="#FFDF95" points="31.238,58.2 33.231,60.092 41.13,61.093 36.185,58.2 "/>
<g>
	
		<image overflow="visible" enable-background="new    " width="400" height="325" xlink:href="5F27C5BD.png"  transform="matrix(0.0379 0 0 0.0379 27.7314 53.469)">
	</image>
</g>
<polygon fill="#FFDF95" points="41.408,45.067 43.401,46.957 51.299,47.959 46.354,45.067 "/>
<g>
	
		<image overflow="visible" enable-background="new    " width="400" height="325" xlink:href="5F27C5BE.png"  transform="matrix(0.0379 0 0 0.0379 37.8999 40.3352)">
	</image>
</g>
<path fill="#FFDF95" d="M30.812,46.634c0,0,9.876-3.321,18.334,4.881c0,0-11.917-6.396-15.396-3.636c0,0-1.294,2.146-2.927,1.454
	C30.824,49.332,28.401,48.692,30.812,46.634z"/>
<path fill="#FFDF95" d="M35.677,50.179c0,0,9.876-3.322,18.334,4.882c0,0-11.918-6.397-15.396-3.637c0,0-1.294,2.146-2.926,1.455
	C35.688,52.878,33.265,52.237,35.677,50.179z"/>
<path fill="#FFDF95" d="M39.799,54.509c0,0,9.876,3.322,18.333-4.881c0,0-11.917,6.397-15.396,3.636c0,0-1.294-2.145-2.926-1.454
	C39.81,51.81,37.387,52.451,39.799,54.509z"/>
<path fill="#FFDF95" d="M42.683,59.64c0,0,9.877,3.322,18.335-4.881c0,0-11.918,6.396-15.397,3.637c0,0-1.295-2.146-2.927-1.455
	C42.694,56.941,40.271,57.582,42.683,59.64z"/>
<polygon fill="#FFDF95" points="24.826,62.319 26.819,64.208 34.717,65.21 29.772,62.319 "/>
<g>
	
		<image overflow="visible" enable-background="new    " width="400" height="325" xlink:href="5F27C5BF.png"  transform="matrix(0.0379 0 0 0.0379 21.3179 57.5862)">
	</image>
</g>
<polygon fill="#FFDF95" points="33.153,67.449 35.147,69.34 43.045,70.341 38.099,67.449 "/>
<g>
	
		<image overflow="visible" enable-background="new    " width="400" height="325" xlink:href="5F27C5B4.png"  transform="matrix(0.0379 0 0 0.0379 29.6465 62.718)">
	</image>
</g>
<polygon fill="#FFDF95" points="38.936,61.432 40.93,63.323 48.828,64.323 43.882,61.432 "/>
<g>
	
		<image overflow="visible" enable-background="new    " width="400" height="325" xlink:href="C0BF92AA.png"  transform="matrix(0.0379 0 0 0.0379 35.4287 56.7004)">
	</image>
</g>
<polygon fill="#FFDF95" points="29.332,55.885 31.325,57.776 39.224,58.777 34.278,55.885 "/>
<g>
	
		<image overflow="visible" enable-background="new    " width="400" height="325" xlink:href="C0BF92AD.png"  transform="matrix(0.0379 0 0 0.0379 25.8242 51.1536)">
	</image>
</g>
<polygon fill="#FFDF95" points="43.514,65.092 45.507,66.982 53.406,67.983 48.46,65.092 "/>
<g>
	
		<image overflow="visible" enable-background="new    " width="400" height="325" xlink:href="C0BF92AE.png"  transform="matrix(0.0379 0 0 0.0379 40.0068 60.3601)">
	</image>
</g>
<polygon fill="#FFDF95" points="29.432,69.564 31.424,71.454 39.322,72.455 34.377,69.564 "/>
<g>
	
		<image overflow="visible" enable-background="new    " width="400" height="325" xlink:href="C0BF92AC.png"  transform="matrix(0.0379 0 0 0.0379 25.9238 64.8323)">
	</image>
</g>
<polygon fill="#FFDF95" points="39.6,56.43 41.594,58.321 49.491,59.322 44.546,56.43 "/>
<g>
	
		<image overflow="visible" enable-background="new    " width="400" height="325" xlink:href="C0BF92AB.png"  transform="matrix(0.0379 0 0 0.0379 36.0928 51.6985)">
	</image>
</g>
<path fill="#FFDF95" d="M29.005,57.997c0,0,9.876-3.322,18.334,4.88c0,0-11.917-6.396-15.397-3.636c0,0-1.294,2.147-2.926,1.455
	C29.017,60.696,26.594,60.055,29.005,57.997z"/>
<path fill="#FFDF95" d="M33.869,61.542c0,0,9.876-3.322,18.333,4.881c0,0-11.917-6.397-15.396-3.636c0,0-1.295,2.146-2.927,1.454
	C33.88,64.24,31.458,63.599,33.869,61.542z"/>
<path fill="#FFDF95" d="M37.99,65.872c0,0,9.876,3.322,18.335-4.881c0,0-11.917,6.396-15.397,3.636c0,0-1.294-2.146-2.926-1.455
	C38.002,63.173,35.579,63.814,37.99,65.872z"/>
<path fill="#FFDF95" d="M40.875,71.004c0,0,9.876,3.322,18.335-4.881c0,0-11.917,6.396-15.397,3.636c0,0-1.294-2.146-2.927-1.455
	C40.886,68.304,38.464,68.946,40.875,71.004z"/>
<path fill="#E8A323" d="M31.139,53.349c0,0.598-0.821,1.083-1.833,1.083c-1.014,0-1.834-0.485-1.834-1.083
	c0-0.6,0.82-1.084,1.834-1.084C30.318,52.265,31.139,52.75,31.139,53.349z"/>
<path fill="#B16244" d="M27.472,53.349c0,0,1.831,1.42,3.667,0c0,0,0.222,1.333-2.243,1.155
	C28.896,54.505,27.591,54.271,27.472,53.349z"/>
<path fill="#E8A323" d="M39.748,55.219c0,0.599-0.822,1.084-1.835,1.084c-1.013,0-1.834-0.485-1.834-1.084
	c0-0.598,0.822-1.084,1.834-1.084C38.926,54.135,39.748,54.621,39.748,55.219z"/>
<path fill="#B16244" d="M36.078,55.219c0,0,1.832,1.421,3.67,0c0,0,0.222,1.332-2.244,1.156
	C37.504,56.375,36.198,56.141,36.078,55.219z"/>
<ellipse fill="#E8A323" cx="50.794" cy="55.087" rx="1.834" ry="1.084"/>
<path fill="#B16244" d="M48.959,55.087c0,0,1.832,1.421,3.668,0c0,0,0.222,1.332-2.243,1.155
	C50.385,56.242,49.08,56.009,48.959,55.087z"/>
<ellipse fill="#E8A323" cx="37.992" cy="46.838" rx="1.835" ry="1.084"/>
<path fill="#B16244" d="M36.158,46.838c0,0,1.833,1.42,3.669,0c0,0,0.221,1.333-2.244,1.155
	C37.583,47.993,36.278,47.759,36.158,46.838z"/>
<path fill="#E8A323" d="M42.69,57.716c0,0.6-0.821,1.085-1.835,1.085c-1.012,0-1.833-0.485-1.833-1.085
	c0-0.598,0.821-1.083,1.833-1.083C41.869,56.633,42.69,57.118,42.69,57.716z"/>
<path fill="#B16244" d="M39.022,57.716c0,0,1.83,1.422,3.668,0c0,0,0.222,1.333-2.244,1.156
	C40.447,58.872,39.141,58.638,39.022,57.716z"/>
<path fill="#E8A323" d="M34.882,54.706c-0.283,0.528-1.235,0.568-2.129,0.09c-0.894-0.477-1.389-1.293-1.106-1.821
	s1.236-0.568,2.129-0.091C34.668,53.364,35.165,54.178,34.882,54.706z"/>
<path fill="#B16244" d="M31.646,52.976c0,0,0.945,2.116,3.235,1.73c0,0-0.433,1.279-2.524-0.04
	C32.358,54.667,31.318,53.844,31.646,52.976z"/>
<path fill="#E8A323" d="M37.916,53.35c-0.282,0.528-1.236,0.569-2.129,0.091c-0.894-0.478-1.389-1.293-1.107-1.821
	c0.283-0.527,1.236-0.568,2.129-0.091C37.703,52.006,38.198,52.823,37.916,53.35z"/>
<path fill="#B16244" d="M34.68,51.619c0,0,0.946,2.116,3.236,1.73c0,0-0.434,1.28-2.523-0.039
	C35.393,53.311,34.351,52.489,34.68,51.619z"/>
<path fill="#E8A323" d="M50.341,52.354c-0.284,0.528-1.237,0.569-2.129,0.09c-0.894-0.477-1.389-1.293-1.107-1.821
	s1.236-0.568,2.128-0.09C50.127,51.01,50.623,51.825,50.341,52.354z"/>
<path fill="#B16244" d="M47.105,50.623c0,0,0.946,2.116,3.236,1.731c0,0-0.434,1.278-2.524-0.04
	C47.817,52.314,46.776,51.493,47.105,50.623z"/>
<path fill="#E8A323" d="M34.569,50.71c0.088,0.593-0.652,1.194-1.655,1.343c-1.001,0.148-1.886-0.209-1.974-0.803
	c-0.088-0.591,0.653-1.192,1.654-1.342C33.597,49.76,34.481,50.118,34.569,50.71z"/>
<path fill="#B16244" d="M30.941,51.25c0,0,2.02,1.137,3.628-0.54c0,0,0.416,1.286-2.049,1.473
	C32.521,52.183,31.194,52.145,30.941,51.25z"/>
<path fill="#E8A323" d="M33.372,47.69c0.089,0.593-0.653,1.194-1.655,1.343c-1.001,0.148-1.885-0.21-1.974-0.803
	c-0.088-0.591,0.653-1.192,1.654-1.342C32.4,46.74,33.284,47.099,33.372,47.69z"/>
<path fill="#B16244" d="M29.743,48.231c0,0,2.021,1.136,3.629-0.541c0,0,0.416,1.286-2.049,1.473
	C31.323,49.163,29.998,49.125,29.743,48.231z"/>
<path fill="#E8A323" d="M31.937,55.966c0.089,0.592-0.652,1.194-1.655,1.342c-1.002,0.149-1.885-0.209-1.974-0.802
	c-0.087-0.591,0.652-1.193,1.654-1.342C30.965,55.015,31.849,55.375,31.937,55.966z"/>
<path fill="#B16244" d="M28.309,56.507c0,0,2.021,1.136,3.628-0.541c0,0,0.416,1.286-2.049,1.473
	C29.888,57.439,28.563,57.401,28.309,56.507z"/>
<path fill="#E8A323" d="M44.38,54.945c0.088,0.593-0.653,1.193-1.655,1.344c-1.001,0.149-1.886-0.21-1.974-0.803
	c-0.088-0.592,0.653-1.193,1.655-1.343C43.407,53.993,44.292,54.353,44.38,54.945z"/>
<path fill="#B16244" d="M40.75,55.485c0,0,2.02,1.136,3.629-0.541c0,0,0.416,1.286-2.05,1.473
	C42.33,56.418,41.005,56.379,40.75,55.485z"/>
<path fill="#E8A323" d="M46.19,49.426c0.089,0.593-0.652,1.194-1.653,1.343c-1.003,0.149-1.887-0.209-1.975-0.802
	c-0.088-0.591,0.653-1.193,1.654-1.343C45.219,48.475,46.104,48.835,46.19,49.426z"/>
<path fill="#B16244" d="M42.562,49.967c0,0,2.021,1.135,3.628-0.541c0,0,0.417,1.286-2.048,1.474
	C44.142,50.899,42.816,50.861,42.562,49.967z"/>
<path fill="#E8A323" d="M50.496,46.742c0.088,0.593-0.653,1.194-1.656,1.344c-1.001,0.149-1.885-0.21-1.974-0.802
	c-0.087-0.592,0.654-1.193,1.656-1.343C49.523,45.792,50.407,46.151,50.496,46.742z"/>
<path fill="#B16244" d="M46.866,47.283c0,0,2.021,1.135,3.63-0.542c0,0,0.415,1.286-2.049,1.474
	C48.446,48.216,47.121,48.177,46.866,47.283z"/>
<path fill="#E8A323" d="M48.697,57.121c0.087,0.593-0.654,1.194-1.656,1.344c-1.001,0.148-1.886-0.211-1.974-0.803
	c-0.088-0.591,0.653-1.192,1.654-1.343C47.725,56.17,48.608,56.53,48.697,57.121z"/>
<path fill="#B16244" d="M45.067,57.661c0,0,2.021,1.136,3.629-0.541c0,0,0.416,1.286-2.049,1.474
	C46.647,58.594,45.321,58.556,45.067,57.661z"/>
<path fill="#E8A323" d="M39.476,61.098c0.089,0.593-0.652,1.194-1.654,1.343c-1.002,0.149-1.886-0.209-1.974-0.802
	c-0.088-0.592,0.652-1.193,1.654-1.343C38.504,60.148,39.389,60.507,39.476,61.098z"/>
<path fill="#B16244" d="M35.848,61.639c0,0,2.021,1.135,3.628-0.542c0,0,0.416,1.286-2.049,1.474
	C37.427,62.572,36.101,62.533,35.848,61.639z"/>
<path fill="#E8A323" d="M36.687,56.385c0.088,0.592-0.652,1.194-1.655,1.342c-1.002,0.15-1.885-0.209-1.974-0.801
	c-0.088-0.592,0.652-1.193,1.655-1.343C35.715,55.433,36.599,55.792,36.687,56.385z"/>
<path fill="#B16244" d="M33.057,56.925c0,0,2.021,1.135,3.629-0.541c0,0,0.416,1.285-2.049,1.473
	C34.638,57.857,33.312,57.819,33.057,56.925z"/>
<path fill="#E8A323" d="M39.947,49.744c0.088,0.592-0.652,1.194-1.655,1.343c-1.001,0.149-1.886-0.21-1.974-0.803
	c-0.088-0.591,0.653-1.193,1.654-1.342C38.976,48.794,39.86,49.153,39.947,49.744z"/>
<path fill="#B16244" d="M36.319,50.284c0,0,2.02,1.136,3.628-0.54c0,0,0.416,1.286-2.049,1.473
	C37.898,51.217,36.573,51.179,36.319,50.284z"/>
<path fill="#E8A323" d="M42.574,53.045c-0.211,0.56-1.151,0.725-2.1,0.366c-0.947-0.358-1.544-1.103-1.332-1.663
	c0.211-0.56,1.151-0.724,2.099-0.366C42.189,51.741,42.787,52.485,42.574,53.045z"/>
<path fill="#B16244" d="M39.143,51.749c0,0,1.211,1.977,3.432,1.296c0,0-0.263,1.326-2.506,0.288
	C40.068,53.333,38.929,52.654,39.143,51.749z"/>
<path fill="#E8A323" d="M55.303,50.599c-0.211,0.561-1.151,0.724-2.1,0.366c-0.947-0.358-1.545-1.103-1.333-1.663
	s1.151-0.724,2.1-0.366C54.917,49.295,55.514,50.039,55.303,50.599z"/>
<path fill="#B16244" d="M51.87,49.302c0,0,1.211,1.976,3.432,1.296c0,0-0.263,1.325-2.506,0.288
	C52.796,50.886,51.657,50.207,51.87,49.302z"/>
<path fill="#E8A323" d="M44.412,46.739c-0.212,0.56-1.152,0.725-2.1,0.366c-0.947-0.358-1.544-1.102-1.333-1.663
	c0.212-0.559,1.151-0.724,2.099-0.366C44.026,45.435,44.623,46.18,44.412,46.739z"/>
<path fill="#B16244" d="M40.979,45.443c0,0,1.211,1.977,3.433,1.296c0,0-0.263,1.326-2.507,0.288
	C41.905,47.027,40.765,46.347,40.979,45.443z"/>
<path fill="#E8A323" d="M47.914,53.656c-0.211,0.561-1.151,0.725-2.099,0.367c-0.947-0.358-1.543-1.103-1.333-1.663
	c0.213-0.559,1.152-0.725,2.1-0.367C47.529,52.352,48.125,53.097,47.914,53.656z"/>
<path fill="#B16244" d="M44.482,52.361c0,0,1.212,1.977,3.432,1.296c0,0-0.263,1.325-2.507,0.288
	C45.407,53.945,44.269,53.265,44.482,52.361z"/>
<path fill="#E8A323" d="M49.556,61.682c-0.211,0.561-1.151,0.725-2.099,0.366c-0.948-0.357-1.544-1.102-1.333-1.663
	c0.212-0.559,1.151-0.724,2.1-0.366C49.171,60.378,49.768,61.122,49.556,61.682z"/>
<path fill="#B16244" d="M46.124,60.385c0,0,1.211,1.978,3.432,1.296c0,0-0.263,1.325-2.506,0.288
	C47.05,61.97,45.91,61.291,46.124,60.385z"/>
<path fill="#E8A323" d="M29.178,61.858c0,0.599-0.822,1.083-1.834,1.083c-1.014,0-1.835-0.485-1.835-1.083s0.822-1.084,1.835-1.084
	C28.356,60.774,29.178,61.26,29.178,61.858z"/>
<path fill="#B16244" d="M25.508,61.858c0,0,1.832,1.42,3.67,0c0,0,0.222,1.333-2.244,1.155
	C26.934,63.013,25.628,62.78,25.508,61.858z"/>
<path fill="#E8A323" d="M37.785,63.729c0,0.599-0.821,1.083-1.834,1.083c-1.012,0-1.834-0.485-1.834-1.083s0.822-1.084,1.834-1.084
	C36.964,62.644,37.785,63.13,37.785,63.729z"/>
<path fill="#B16244" d="M34.116,63.729c0,0,1.831,1.421,3.669,0c0,0,0.222,1.333-2.244,1.155
	C35.542,64.884,34.236,64.65,34.116,63.729z"/>
<ellipse fill="#E8A323" cx="48.831" cy="63.596" rx="1.834" ry="1.084"/>
<path fill="#B16244" d="M46.996,63.595c0,0,1.833,1.421,3.67,0c0,0,0.222,1.333-2.244,1.156
	C48.422,64.751,47.117,64.517,46.996,63.595z"/>
<path fill="#E8A323" d="M37.864,55.346c0,0.599-0.821,1.084-1.834,1.084s-1.834-0.486-1.834-1.084c0-0.599,0.821-1.083,1.834-1.083
	S37.864,54.747,37.864,55.346z"/>
<path fill="#B16244" d="M34.196,55.346c0,0,1.832,1.421,3.668,0c0,0,0.222,1.332-2.243,1.155
	C35.621,56.502,34.315,56.268,34.196,55.346z"/>
<path fill="#E8A323" d="M40.728,66.226c0,0.599-0.821,1.085-1.834,1.085s-1.834-0.486-1.834-1.085c0-0.598,0.821-1.084,1.834-1.084
	S40.728,65.628,40.728,66.226z"/>
<path fill="#B16244" d="M37.059,66.226c0,0,1.832,1.421,3.669,0c0,0,0.222,1.333-2.244,1.156
	C38.484,67.382,37.179,67.148,37.059,66.226z"/>
<path fill="#E8A323" d="M32.92,63.215c-0.283,0.528-1.236,0.569-2.129,0.091c-0.894-0.478-1.389-1.293-1.106-1.821
	c0.282-0.527,1.235-0.569,2.128-0.091C32.707,61.872,33.202,62.688,32.92,63.215z"/>
<path fill="#B16244" d="M29.685,61.485c0,0,0.945,2.116,3.235,1.73c0,0-0.434,1.279-2.524-0.039
	C30.396,63.176,29.355,62.354,29.685,61.485z"/>
<path fill="#E8A323" d="M35.953,61.859c-0.282,0.528-1.235,0.568-2.129,0.09c-0.893-0.477-1.389-1.293-1.106-1.821
	c0.283-0.528,1.236-0.569,2.129-0.091C35.741,60.515,36.236,61.331,35.953,61.859z"/>
<path fill="#B16244" d="M32.718,60.129c0,0,0.945,2.116,3.235,1.73c0,0-0.433,1.279-2.522-0.04
	C33.431,61.82,32.389,60.998,32.718,60.129z"/>
<path fill="#E8A323" d="M48.378,60.863c-0.282,0.528-1.235,0.569-2.129,0.091c-0.893-0.478-1.389-1.292-1.106-1.822
	c0.283-0.527,1.235-0.568,2.129-0.09C48.165,59.52,48.661,60.334,48.378,60.863z"/>
<path fill="#B16244" d="M45.143,59.132c0,0,0.945,2.117,3.235,1.731c0,0-0.432,1.28-2.523-0.039
	C45.854,60.823,44.814,60.001,45.143,59.132z"/>
<path fill="#E8A323" d="M32.607,59.219c0.088,0.593-0.653,1.194-1.655,1.343c-1.001,0.149-1.886-0.21-1.973-0.802
	c-0.088-0.591,0.652-1.193,1.655-1.342C31.635,58.268,32.519,58.628,32.607,59.219z"/>
<path fill="#B16244" d="M28.979,59.76c0,0,2.02,1.135,3.629-0.541c0,0,0.416,1.286-2.05,1.473
	C30.558,60.692,29.232,60.654,28.979,59.76z"/>
<path fill="#E8A323" d="M31.409,56.199c0.089,0.592-0.653,1.194-1.654,1.343c-1.002,0.149-1.886-0.21-1.974-0.803
	c-0.088-0.591,0.652-1.192,1.655-1.342C30.438,55.249,31.321,55.608,31.409,56.199z"/>
<path fill="#B16244" d="M27.781,56.74c0,0,2.02,1.136,3.628-0.54c0,0,0.415,1.286-2.049,1.474
	C29.36,57.673,28.035,57.635,27.781,56.74z"/>
<path fill="#E8A323" d="M29.975,64.475c0.088,0.592-0.652,1.193-1.655,1.343c-1.001,0.149-1.885-0.21-1.974-0.803
	c-0.087-0.591,0.653-1.192,1.655-1.342C29.003,63.525,29.887,63.884,29.975,64.475z"/>
<path fill="#B16244" d="M26.346,65.015c0,0,2.021,1.135,3.629-0.54c0,0,0.416,1.285-2.049,1.473
	C27.926,65.948,26.6,65.91,26.346,65.015z"/>
<path fill="#E8A323" d="M42.417,63.454c0.088,0.593-0.653,1.194-1.654,1.343c-1.002,0.149-1.886-0.21-1.975-0.802
	c-0.088-0.592,0.654-1.193,1.654-1.343C41.445,62.503,42.329,62.863,42.417,63.454z"/>
<path fill="#B16244" d="M38.788,63.995c0,0,2.021,1.135,3.629-0.541c0,0,0.416,1.286-2.049,1.474
	C40.368,64.927,39.042,64.889,38.788,63.995z"/>
<path fill="#E8A323" d="M44.229,57.934c0.088,0.593-0.653,1.194-1.655,1.343s-1.886-0.21-1.975-0.802
	c-0.088-0.591,0.653-1.192,1.655-1.342C43.257,56.983,44.142,57.343,44.229,57.934z"/>
<path fill="#B16244" d="M40.6,58.475c0,0,2.021,1.136,3.629-0.541c0,0,0.416,1.286-2.049,1.474
	C42.18,59.408,40.854,59.369,40.6,58.475z"/>
<path fill="#E8A323" d="M48.533,55.252c0.088,0.592-0.652,1.193-1.655,1.343c-1.002,0.148-1.886-0.21-1.974-0.803
	c-0.088-0.592,0.653-1.194,1.654-1.343C47.561,54.301,48.445,54.659,48.533,55.252z"/>
<path fill="#B16244" d="M44.904,55.792c0,0,2.021,1.136,3.629-0.541c0,0,0.416,1.286-2.049,1.473
	C46.484,56.724,45.158,56.686,44.904,55.792z"/>
<path fill="#E8A323" d="M46.734,65.63c0.087,0.592-0.653,1.194-1.655,1.343c-1.001,0.148-1.885-0.21-1.973-0.802
	c-0.088-0.592,0.652-1.193,1.654-1.343C45.762,64.678,46.646,65.038,46.734,65.63z"/>
<path fill="#B16244" d="M43.105,66.171c0,0,2.02,1.135,3.629-0.541c0,0,0.416,1.286-2.049,1.473
	C44.685,67.103,43.359,67.065,43.105,66.171z"/>
<path fill="#E8A323" d="M37.513,69.607c0.089,0.593-0.653,1.194-1.655,1.343c-1.001,0.149-1.885-0.21-1.973-0.802
	c-0.088-0.592,0.653-1.193,1.654-1.343C36.542,68.656,37.426,69.016,37.513,69.607z"/>
<path fill="#B16244" d="M33.885,70.148c0,0,2.02,1.136,3.628-0.541c0,0,0.416,1.285-2.049,1.474
	C35.464,71.081,34.14,71.042,33.885,70.148z"/>
<path fill="#E8A323" d="M34.725,64.893c0.088,0.593-0.653,1.193-1.655,1.343c-1.002,0.148-1.885-0.21-1.974-0.803
	c-0.087-0.591,0.653-1.193,1.654-1.343C33.752,63.942,34.636,64.302,34.725,64.893z"/>
<path fill="#B16244" d="M31.095,65.434c0,0,2.021,1.135,3.629-0.541c0,0,0.416,1.286-2.049,1.473
	C32.675,66.366,31.35,66.328,31.095,65.434z"/>
<path fill="#E8A323" d="M37.985,58.253c0.088,0.593-0.654,1.194-1.655,1.343c-1.002,0.149-1.886-0.21-1.974-0.803
	c-0.088-0.591,0.653-1.192,1.655-1.342C37.013,57.303,37.896,57.661,37.985,58.253z"/>
<path fill="#B16244" d="M34.356,58.794c0,0,2.021,1.136,3.629-0.541c0,0,0.416,1.286-2.05,1.473
	C35.936,59.726,34.61,59.688,34.356,58.794z"/>
<path fill="#E8A323" d="M40.612,61.554c-0.211,0.56-1.151,0.725-2.1,0.366c-0.947-0.358-1.544-1.102-1.333-1.662
	c0.212-0.56,1.152-0.724,2.1-0.366C40.227,60.25,40.824,60.994,40.612,61.554z"/>
<path fill="#B16244" d="M37.18,60.258c0,0,1.212,1.976,3.433,1.296c0,0-0.263,1.326-2.506,0.288
	C38.106,61.842,36.967,61.163,37.18,60.258z"/>
<path fill="#E8A323" d="M53.34,59.108c-0.212,0.561-1.152,0.724-2.101,0.366c-0.947-0.358-1.543-1.103-1.333-1.663
	c0.212-0.56,1.151-0.724,2.1-0.366C52.955,57.804,53.552,58.548,53.34,59.108z"/>
<path fill="#B16244" d="M49.907,57.812c0,0,1.211,1.976,3.433,1.296c0,0-0.263,1.325-2.507,0.287
	C50.833,59.395,49.694,58.717,49.907,57.812z"/>
<path fill="#E8A323" d="M42.449,55.248c-0.212,0.56-1.151,0.724-2.1,0.367c-0.947-0.358-1.543-1.102-1.332-1.663
	c0.211-0.56,1.151-0.724,2.099-0.366C42.063,53.943,42.662,54.688,42.449,55.248z"/>
<path fill="#B16244" d="M39.017,53.951c0,0,1.211,1.977,3.432,1.296c0,0-0.264,1.326-2.506,0.288
	C39.943,55.535,38.803,54.857,39.017,53.951z"/>
<path fill="#E8A323" d="M45.952,62.166c-0.212,0.56-1.151,0.725-2.099,0.366c-0.948-0.358-1.544-1.103-1.333-1.663
	c0.212-0.56,1.152-0.724,2.099-0.366C45.566,60.861,46.163,61.606,45.952,62.166z"/>
<path fill="#B16244" d="M42.52,60.87c0,0,1.211,1.976,3.432,1.295c0,0-0.263,1.326-2.507,0.288
	C43.445,62.453,42.307,61.774,42.52,60.87z"/>
<path fill="#E8A323" d="M47.594,70.191c-0.212,0.561-1.152,0.726-2.101,0.367c-0.947-0.359-1.543-1.103-1.332-1.663
	s1.151-0.724,2.099-0.367C47.209,68.886,47.806,69.632,47.594,70.191z"/>
<path fill="#B16244" d="M44.162,68.894c0,0,1.211,1.977,3.433,1.296c0,0-0.263,1.325-2.507,0.288
	C45.087,70.479,43.948,69.8,44.162,68.894z"/>
<path fill="#FFFFFF" d="M108.844,56.126l0.563,2.405c0,0,2.819-2.575,4.183-0.869c0,0,2.725,2.241,3.495-1.917
	c0,0-0.046-1.93-2.521-1.39c0,0,1.729-3.562-2.072-3.067c0,0-1.649,0.232-1.54,2.472L108.844,56.126z"/>
<path fill="#FFFFFF" d="M103.98,46.512l0.655,1.812c0,0,2.829-1.633,4.083,0.115c0,0,1.065,2.337,2.805,0.515
	c0,0,1.27-2.741-1.584-2.802c0,0,1.531-2.954-1.588-3.677c0,0-2.707,0.37-1.738,2.408L103.98,46.512z"/>
<path fill="#F4CE5D" d="M97.354,45.463l6.372,3.404l1.475,0.478c0,0,2.166-2.845-1.566-4.34
	C103.636,45.005,100.096,44.395,97.354,45.463z"/>
<path fill="#F4CE5D" d="M67.65,55.381c0,0,6.628-18.551,28.377-10.414c2.386,0.892,4.954,2.106,7.715,3.702l4.348,2.556
	l-1.599,1.975c0,0,6.592,2.134,3.755,7.348c0,0-2.419,6.882-8.837,4.804c0,0-14.941,12.411-30.434,1.071
	C70.975,66.422,66.221,63.351,67.65,55.381z"/>
<path fill="#B1862D" d="M68.125,62.512c0,0,19.548,9.604,33.283,2.838c0,0-10.432,9.089-23.572,4.687
	C77.836,70.037,68.867,66.61,68.125,62.512z"/>
<path fill="#B1862D" d="M93.68,67.55c0,0,5.229-7.747,11.364-4.206c0,0,4.179-0.382,5.781-6.268c0,0-0.434,10.767-9.417,8.274
	l-8.024,4.436L93.68,67.55z"/>
<polygon fill="#198A45" points="34.178,20.605 21.228,73.598 125.156,73.598 113.176,22.579 112.854,20.605 "/>
<path fill="#C8312D" d="M42.455,24.59c0,0,6.036-7.492,18.525-0.833c0,0,1.249,1.042,0,2.083c0,0,5.827,0.208,6.868,1.873
	c0,0,2.498,10.198-5.412,11.031c0,0-7.284,7.077-10.406,2.914c0,0-8.534,1.249-9.574-3.122c0,0-2.914-3.539-4.37-3.122
	c0,0-5.827-2.498,0.833-6.244C38.917,29.169,36.837,24.799,42.455,24.59z"/>
<path fill="#FFFFFF" d="M111.785,33.032c0.521,3.676-4.622,8.009-9.788,8.742c-5.166,0.732-8.667-1.514-9.188-5.189
	s2.135-7.388,7.301-8.12C105.275,27.733,111.264,29.358,111.785,33.032z"/>
<path fill="#F5F2E5" d="M93.35,38.373c0,0,9.064,7.121,18.179-3.261c0,0-2.089,6.191-10.399,6.759
	C101.129,41.871,95.005,42.451,93.35,38.373z"/>
<path fill="#FBE445" d="M106.125,32.238c0.719,1.958-0.802,4.318-3.398,5.271s-5.282,0.138-6.002-1.82
	c-0.718-1.959,0.803-4.318,3.399-5.271C102.719,29.464,105.407,30.28,106.125,32.238z"/>
<path fill="#F4CD15" d="M96.725,35.688c0,0,5.509,4.778,9.577-2.404c0,0,0.353,3.125-4.622,4.512
	C101.681,37.797,98.083,38.769,96.725,35.688z"/>
<path fill="#FFFFFF" d="M90.968,41.583c2.213,7.244-8.347,13.715-18.641,13.715c-10.295,0-18.64-6.14-18.64-13.715
	c0-7.574,9.405-15.959,19.7-15.959C83.682,25.623,88.656,34.018,90.968,41.583z"/>
<ellipse fill="#FFFFFF" cx="63.83" cy="27.425" rx="0.785" ry="1.241"/>
<path fill="#FFFFFF" d="M68.276,26.085c0,0.74-0.293,1.34-0.653,1.34c-0.363,0-0.655-0.6-0.655-1.34s0.292-1.34,0.655-1.34
	C67.983,24.744,68.276,25.344,68.276,26.085z"/>
<ellipse fill="#FFFFFF" cx="72.27" cy="26.085" rx="1.118" ry="1.34"/>
<ellipse fill="#FFFFFF" cx="84.65" cy="29.725" rx="1.428" ry="0.923"/>
<path fill="#FFFFFF" d="M88.021,32.59c0,0.51-0.64,0.923-1.429,0.923c-0.787,0-1.427-0.413-1.427-0.923
	c0-0.51,0.64-0.923,1.427-0.923C87.381,31.667,88.021,32.08,88.021,32.59z"/>
<path fill="#FFFFFF" d="M90.312,49.352c0,0.51-0.64,0.924-1.427,0.924c-0.789,0-1.428-0.414-1.428-0.924
	c0-0.51,0.639-0.922,1.428-0.922C89.672,48.43,90.312,48.843,90.312,49.352z"/>
<path fill="#FFFFFF" d="M88.511,34.042c0,0.511-0.639,0.924-1.427,0.924c-0.789,0-1.428-0.413-1.428-0.924
	c0-0.509,0.64-0.921,1.428-0.921C87.872,33.121,88.511,33.533,88.511,34.042z"/>
<path fill="#FFFFFF" d="M92.204,39.532c0,0.512-1.024,0.928-2.288,0.928c-1.264,0-2.288-0.416-2.288-0.928
	c0-0.513,1.024-0.928,2.288-0.928C91.18,38.605,92.204,39.02,92.204,39.532z"/>
<path fill="#FFFFFF" d="M92.857,45.143c0,0.505-0.789,0.915-1.765,0.915c-0.975,0-1.765-0.41-1.765-0.915
	c0-0.506,0.791-0.916,1.765-0.916C92.068,44.227,92.857,44.637,92.857,45.143z"/>
<path fill="#FFFFFF" d="M57.685,34.355c0,0.541-0.683,0.98-1.524,0.98c-0.842,0-1.524-0.439-1.524-0.98
	c0-0.542,0.682-0.981,1.524-0.981C57.002,33.374,57.685,33.813,57.685,34.355z"/>
<ellipse fill="#FFFFFF" cx="56.16" cy="48.372" rx="1.524" ry="0.981"/>
<ellipse fill="#FFFFFF" cx="58.861" cy="51.174" rx="1.524" ry="0.981"/>
<ellipse fill="#FFFFFF" cx="59.45" cy="31.275" rx="1.765" ry="0.922"/>
<path fill="#FFFFFF" d="M57.008,36.849c0,0.509-0.79,0.923-1.765,0.923c-0.976,0-1.766-0.414-1.766-0.923
	c0-0.51,0.79-0.922,1.766-0.922C56.218,35.927,57.008,36.34,57.008,36.849z"/>
<path fill="#FFFFFF" d="M60.114,33.121c0,0.509-0.79,0.921-1.764,0.921c-0.975,0-1.766-0.413-1.766-0.921
	c0-0.509,0.79-0.924,1.766-0.924C59.324,32.197,60.114,32.612,60.114,33.121z"/>
<ellipse fill="#FFFFFF" cx="81.177" cy="27.145" rx="1.002" ry="1.521"/>
<path fill="#FFFFFF" d="M56.16,45.143c0,0.505-0.684,0.915-1.526,0.915c-0.844,0-1.526-0.41-1.526-0.915
	c0-0.506,0.682-0.916,1.526-0.916C55.477,44.227,56.16,44.637,56.16,45.143z"/>
<ellipse fill="#FFFFFF" cx="53.108" cy="40.46" rx="1.526" ry="0.916"/>
<path fill="#FFFFFF" d="M62.157,29.183c0,0.507-0.683,0.916-1.526,0.916c-0.843,0-1.526-0.409-1.526-0.916
	c0-0.505,0.683-0.914,1.526-0.914C61.474,28.269,62.157,28.678,62.157,29.183z"/>
<ellipse fill="#FFFFFF" cx="83.002" cy="52.565" rx="1.526" ry="0.916"/>
<path fill="#FFFFFF" d="M68.221,53.529c0.289,0.416-0.038,1.142-0.73,1.624c-0.693,0.481-1.488,0.533-1.776,0.118
	c-0.288-0.415,0.039-1.142,0.731-1.623C67.138,53.167,67.934,53.114,68.221,53.529z"/>
<polygon fill="#FFDF95" points="26.634,50.956 28.628,52.846 36.524,53.847 31.579,50.956 "/>
<g>
	
		<image overflow="visible" enable-background="new    " width="400" height="325" xlink:href="C0BF92B5.png"  transform="matrix(0.0379 0 0 0.0379 23.1265 46.2229)">
	</image>
</g>
<polygon fill="#FFDF95" points="34.961,56.087 36.955,57.978 44.853,58.978 39.907,56.087 "/>
<g>
	
		<image overflow="visible" enable-background="new    " width="400" height="325" xlink:href="C0BF92B6.png"  transform="matrix(0.0379 0 0 0.0379 31.4536 51.3547)">
	</image>
</g>
<polygon fill="#FFDF95" points="40.744,50.069 42.737,51.959 50.635,52.961 45.689,50.069 "/>
<g>
	
		<image overflow="visible" enable-background="new    " width="400" height="325" xlink:href="C0BF92B4.png"  transform="matrix(0.0379 0 0 0.0379 37.2363 45.3372)">
	</image>
</g>
<polygon fill="#FFDF95" points="31.139,44.522 33.133,46.413 41.031,47.414 36.085,44.522 "/>
<g>
	
		<image overflow="visible" enable-background="new    " width="400" height="325" xlink:href="C0BF92BA.png"  transform="matrix(0.0379 0 0 0.0379 27.6318 39.7903)">
	</image>
</g>
<polygon fill="#FFDF95" points="45.323,53.729 47.316,55.62 55.214,56.621 50.268,53.729 "/>
<g>
	
		<image overflow="visible" enable-background="new    " width="400" height="325" xlink:href="C0BF92BD.png"  transform="matrix(0.0379 0 0 0.0379 41.8149 48.9968)">
	</image>
</g>
<polygon fill="#FFDF95" points="31.238,58.2 33.231,60.092 41.13,61.093 36.185,58.2 "/>
<g>
	
		<image overflow="visible" enable-background="new    " width="400" height="325" xlink:href="C0BF92D1.png"  transform="matrix(0.0379 0 0 0.0379 27.7314 53.469)">
	</image>
</g>
<polygon fill="#FFDF95" points="41.408,45.067 43.401,46.957 51.299,47.959 46.354,45.067 "/>
<g>
	
		<image overflow="visible" enable-background="new    " width="400" height="325" xlink:href="C0BF92D3.png"  transform="matrix(0.0379 0 0 0.0379 37.8999 40.3352)">
	</image>
</g>
<path fill="#FFDF95" d="M30.812,46.634c0,0,9.876-3.321,18.334,4.881c0,0-11.917-6.396-15.396-3.636c0,0-1.294,2.146-2.927,1.454
	C30.824,49.332,28.401,48.692,30.812,46.634z"/>
<path fill="#FFDF95" d="M35.677,50.179c0,0,9.876-3.322,18.334,4.882c0,0-11.918-6.397-15.396-3.637c0,0-1.294,2.146-2.926,1.455
	C35.688,52.878,33.265,52.237,35.677,50.179z"/>
<path fill="#FFDF95" d="M39.799,54.509c0,0,9.876,3.322,18.333-4.881c0,0-11.917,6.397-15.396,3.636c0,0-1.294-2.145-2.926-1.454
	C39.81,51.81,37.387,52.451,39.799,54.509z"/>
<path fill="#FFDF95" d="M42.683,59.64c0,0,9.877,3.322,18.335-4.881c0,0-11.918,6.396-15.397,3.637c0,0-1.295-2.146-2.927-1.455
	C42.694,56.941,40.271,57.582,42.683,59.64z"/>
<polygon fill="#FFDF95" points="24.826,62.319 26.819,64.208 34.717,65.21 29.772,62.319 "/>
<g>
	
		<image overflow="visible" enable-background="new    " width="400" height="325" xlink:href="C0BF92D0.png"  transform="matrix(0.0379 0 0 0.0379 21.3179 57.5862)">
	</image>
</g>
<polygon fill="#FFDF95" points="33.153,67.449 35.147,69.34 43.045,70.341 38.099,67.449 "/>
<g>
	
		<image overflow="visible" enable-background="new    " width="400" height="325" xlink:href="C0BF92DF.png"  transform="matrix(0.0379 0 0 0.0379 29.6465 62.718)">
	</image>
</g>
<polygon fill="#FFDF95" points="38.936,61.432 40.93,63.323 48.828,64.323 43.882,61.432 "/>
<g>
	
		<image overflow="visible" enable-background="new    " width="400" height="325" xlink:href="C0BF92D2.png"  transform="matrix(0.0379 0 0 0.0379 35.4287 56.7004)">
	</image>
</g>
<polygon fill="#FFDF95" points="29.332,55.885 31.325,57.776 39.224,58.777 34.278,55.885 "/>
<g>
	
		<image overflow="visible" enable-background="new    " width="400" height="325" xlink:href="C0BF92D6.png"  transform="matrix(0.0379 0 0 0.0379 25.8242 51.1536)">
	</image>
</g>
<polygon fill="#FFDF95" points="43.514,65.092 45.507,66.982 53.406,67.983 48.46,65.092 "/>
<g>
	
		<image overflow="visible" enable-background="new    " width="400" height="325" xlink:href="C0BF92D7.png"  transform="matrix(0.0379 0 0 0.0379 40.0068 60.3601)">
	</image>
</g>
<polygon fill="#FFDF95" points="29.432,69.564 31.424,71.454 39.322,72.455 34.377,69.564 "/>
<g>
	
		<image overflow="visible" enable-background="new    " width="400" height="325" xlink:href="C0BF92EC.png"  transform="matrix(0.0379 0 0 0.0379 25.9238 64.8323)">
	</image>
</g>
<polygon fill="#FFDF95" points="39.6,56.43 41.594,58.321 49.491,59.322 44.546,56.43 "/>
<g>
	
		<image overflow="visible" enable-background="new    " width="400" height="325" xlink:href="C0BF92ED.png"  transform="matrix(0.0379 0 0 0.0379 36.0928 51.6985)">
	</image>
</g>
<path fill="#FFDF95" d="M29.005,57.997c0,0,9.876-3.322,18.334,4.88c0,0-11.917-6.396-15.397-3.636c0,0-1.294,2.147-2.926,1.455
	C29.017,60.696,26.594,60.055,29.005,57.997z"/>
<path fill="#FFDF95" d="M33.869,61.542c0,0,9.876-3.322,18.333,4.881c0,0-11.917-6.397-15.396-3.636c0,0-1.295,2.146-2.927,1.454
	C33.88,64.24,31.458,63.599,33.869,61.542z"/>
<path fill="#FFDF95" d="M37.99,65.872c0,0,9.876,3.322,18.335-4.881c0,0-11.917,6.396-15.397,3.636c0,0-1.294-2.146-2.926-1.455
	C38.002,63.173,35.579,63.814,37.99,65.872z"/>
<path fill="#FFDF95" d="M40.875,71.004c0,0,9.876,3.322,18.335-4.881c0,0-11.917,6.396-15.397,3.636c0,0-1.294-2.146-2.927-1.455
	C40.886,68.304,38.464,68.946,40.875,71.004z"/>
<path fill="#E8A323" d="M31.139,53.349c0,0.598-0.821,1.083-1.833,1.083c-1.014,0-1.834-0.485-1.834-1.083
	c0-0.6,0.82-1.084,1.834-1.084C30.318,52.265,31.139,52.75,31.139,53.349z"/>
<path fill="#B16244" d="M27.472,53.349c0,0,1.831,1.42,3.667,0c0,0,0.222,1.333-2.243,1.155
	C28.896,54.505,27.591,54.271,27.472,53.349z"/>
<path fill="#E8A323" d="M39.748,55.219c0,0.599-0.822,1.084-1.835,1.084c-1.013,0-1.834-0.485-1.834-1.084
	c0-0.598,0.822-1.084,1.834-1.084C38.926,54.135,39.748,54.621,39.748,55.219z"/>
<path fill="#B16244" d="M36.078,55.219c0,0,1.832,1.421,3.67,0c0,0,0.222,1.332-2.244,1.156
	C37.504,56.375,36.198,56.141,36.078,55.219z"/>
<ellipse fill="#E8A323" cx="50.794" cy="55.087" rx="1.834" ry="1.084"/>
<path fill="#B16244" d="M48.959,55.087c0,0,1.832,1.421,3.668,0c0,0,0.222,1.332-2.243,1.155
	C50.385,56.242,49.08,56.009,48.959,55.087z"/>
<ellipse fill="#E8A323" cx="37.992" cy="46.838" rx="1.835" ry="1.084"/>
<path fill="#B16244" d="M36.158,46.838c0,0,1.833,1.42,3.669,0c0,0,0.221,1.333-2.244,1.155
	C37.583,47.993,36.278,47.759,36.158,46.838z"/>
<path fill="#E8A323" d="M42.69,57.716c0,0.6-0.821,1.085-1.835,1.085c-1.012,0-1.833-0.485-1.833-1.085
	c0-0.598,0.821-1.083,1.833-1.083C41.869,56.633,42.69,57.118,42.69,57.716z"/>
<path fill="#B16244" d="M39.022,57.716c0,0,1.83,1.422,3.668,0c0,0,0.222,1.333-2.244,1.156
	C40.447,58.872,39.141,58.638,39.022,57.716z"/>
<path fill="#E8A323" d="M34.882,54.706c-0.283,0.528-1.235,0.568-2.129,0.09c-0.894-0.477-1.389-1.293-1.106-1.821
	s1.236-0.568,2.129-0.091C34.668,53.364,35.165,54.178,34.882,54.706z"/>
<path fill="#B16244" d="M31.646,52.976c0,0,0.945,2.116,3.235,1.73c0,0-0.433,1.279-2.524-0.04
	C32.358,54.667,31.318,53.844,31.646,52.976z"/>
<path fill="#E8A323" d="M37.916,53.35c-0.282,0.528-1.236,0.569-2.129,0.091c-0.894-0.478-1.389-1.293-1.107-1.821
	c0.283-0.527,1.236-0.568,2.129-0.091C37.703,52.006,38.198,52.823,37.916,53.35z"/>
<path fill="#B16244" d="M34.68,51.619c0,0,0.946,2.116,3.236,1.73c0,0-0.434,1.28-2.523-0.039
	C35.393,53.311,34.351,52.489,34.68,51.619z"/>
<path fill="#E8A323" d="M50.341,52.354c-0.284,0.528-1.237,0.569-2.129,0.09c-0.894-0.477-1.389-1.293-1.107-1.821
	s1.236-0.568,2.128-0.09C50.127,51.01,50.623,51.825,50.341,52.354z"/>
<path fill="#B16244" d="M47.105,50.623c0,0,0.946,2.116,3.236,1.731c0,0-0.434,1.278-2.524-0.04
	C47.817,52.314,46.776,51.493,47.105,50.623z"/>
<path fill="#E8A323" d="M34.569,50.71c0.088,0.593-0.652,1.194-1.655,1.343c-1.001,0.148-1.886-0.209-1.974-0.803
	c-0.088-0.591,0.653-1.192,1.654-1.342C33.597,49.76,34.481,50.118,34.569,50.71z"/>
<path fill="#B16244" d="M30.941,51.25c0,0,2.02,1.137,3.628-0.54c0,0,0.416,1.286-2.049,1.473
	C32.521,52.183,31.194,52.145,30.941,51.25z"/>
<path fill="#E8A323" d="M33.372,47.69c0.089,0.593-0.653,1.194-1.655,1.343c-1.001,0.148-1.885-0.21-1.974-0.803
	c-0.088-0.591,0.653-1.192,1.654-1.342C32.4,46.74,33.284,47.099,33.372,47.69z"/>
<path fill="#B16244" d="M29.743,48.231c0,0,2.021,1.136,3.629-0.541c0,0,0.416,1.286-2.049,1.473
	C31.323,49.163,29.998,49.125,29.743,48.231z"/>
<path fill="#E8A323" d="M31.937,55.966c0.089,0.592-0.652,1.194-1.655,1.342c-1.002,0.149-1.885-0.209-1.974-0.802
	c-0.087-0.591,0.652-1.193,1.654-1.342C30.965,55.015,31.849,55.375,31.937,55.966z"/>
<path fill="#B16244" d="M28.309,56.507c0,0,2.021,1.136,3.628-0.541c0,0,0.416,1.286-2.049,1.473
	C29.888,57.439,28.563,57.401,28.309,56.507z"/>
<path fill="#E8A323" d="M44.38,54.945c0.088,0.593-0.653,1.193-1.655,1.344c-1.001,0.149-1.886-0.21-1.974-0.803
	c-0.088-0.592,0.653-1.193,1.655-1.343C43.407,53.993,44.292,54.353,44.38,54.945z"/>
<path fill="#B16244" d="M40.75,55.485c0,0,2.02,1.136,3.629-0.541c0,0,0.416,1.286-2.05,1.473
	C42.33,56.418,41.005,56.379,40.75,55.485z"/>
<path fill="#E8A323" d="M46.19,49.426c0.089,0.593-0.652,1.194-1.653,1.343c-1.003,0.149-1.887-0.209-1.975-0.802
	c-0.088-0.591,0.653-1.193,1.654-1.343C45.219,48.475,46.104,48.835,46.19,49.426z"/>
<path fill="#B16244" d="M42.562,49.967c0,0,2.021,1.135,3.628-0.541c0,0,0.417,1.286-2.048,1.474
	C44.142,50.899,42.816,50.861,42.562,49.967z"/>
<path fill="#E8A323" d="M50.496,46.742c0.088,0.593-0.653,1.194-1.656,1.344c-1.001,0.149-1.885-0.21-1.974-0.802
	c-0.087-0.592,0.654-1.193,1.656-1.343C49.523,45.792,50.407,46.151,50.496,46.742z"/>
<path fill="#B16244" d="M46.866,47.283c0,0,2.021,1.135,3.63-0.542c0,0,0.415,1.286-2.049,1.474
	C48.446,48.216,47.121,48.177,46.866,47.283z"/>
<path fill="#E8A323" d="M48.697,57.121c0.087,0.593-0.654,1.194-1.656,1.344c-1.001,0.148-1.886-0.211-1.974-0.803
	c-0.088-0.591,0.653-1.192,1.654-1.343C47.725,56.17,48.608,56.53,48.697,57.121z"/>
<path fill="#B16244" d="M45.067,57.661c0,0,2.021,1.136,3.629-0.541c0,0,0.416,1.286-2.049,1.474
	C46.647,58.594,45.321,58.556,45.067,57.661z"/>
<path fill="#E8A323" d="M39.476,61.098c0.089,0.593-0.652,1.194-1.654,1.343c-1.002,0.149-1.886-0.209-1.974-0.802
	c-0.088-0.592,0.652-1.193,1.654-1.343C38.504,60.148,39.389,60.507,39.476,61.098z"/>
<path fill="#B16244" d="M35.848,61.639c0,0,2.021,1.135,3.628-0.542c0,0,0.416,1.286-2.049,1.474
	C37.427,62.572,36.101,62.533,35.848,61.639z"/>
<path fill="#E8A323" d="M36.687,56.385c0.088,0.592-0.652,1.194-1.655,1.342c-1.002,0.15-1.885-0.209-1.974-0.801
	c-0.088-0.592,0.652-1.193,1.655-1.343C35.715,55.433,36.599,55.792,36.687,56.385z"/>
<path fill="#B16244" d="M33.057,56.925c0,0,2.021,1.135,3.629-0.541c0,0,0.416,1.285-2.049,1.473
	C34.638,57.857,33.312,57.819,33.057,56.925z"/>
<path fill="#E8A323" d="M39.947,49.744c0.088,0.592-0.652,1.194-1.655,1.343c-1.001,0.149-1.886-0.21-1.974-0.803
	c-0.088-0.591,0.653-1.193,1.654-1.342C38.976,48.794,39.86,49.153,39.947,49.744z"/>
<path fill="#B16244" d="M36.319,50.284c0,0,2.02,1.136,3.628-0.54c0,0,0.416,1.286-2.049,1.473
	C37.898,51.217,36.573,51.179,36.319,50.284z"/>
<path fill="#E8A323" d="M42.574,53.045c-0.211,0.56-1.151,0.725-2.1,0.366c-0.947-0.358-1.544-1.103-1.332-1.663
	c0.211-0.56,1.151-0.724,2.099-0.366C42.189,51.741,42.787,52.485,42.574,53.045z"/>
<path fill="#B16244" d="M39.143,51.749c0,0,1.211,1.977,3.432,1.296c0,0-0.263,1.326-2.506,0.288
	C40.068,53.333,38.929,52.654,39.143,51.749z"/>
<path fill="#E8A323" d="M55.303,50.599c-0.211,0.561-1.151,0.724-2.1,0.366c-0.947-0.358-1.545-1.103-1.333-1.663
	s1.151-0.724,2.1-0.366C54.917,49.295,55.514,50.039,55.303,50.599z"/>
<path fill="#B16244" d="M51.87,49.302c0,0,1.211,1.976,3.432,1.296c0,0-0.263,1.325-2.506,0.288
	C52.796,50.886,51.657,50.207,51.87,49.302z"/>
<path fill="#E8A323" d="M44.412,46.739c-0.212,0.56-1.152,0.725-2.1,0.366c-0.947-0.358-1.544-1.102-1.333-1.663
	c0.212-0.559,1.151-0.724,2.099-0.366C44.026,45.435,44.623,46.18,44.412,46.739z"/>
<path fill="#B16244" d="M40.979,45.443c0,0,1.211,1.977,3.433,1.296c0,0-0.263,1.326-2.507,0.288
	C41.905,47.027,40.765,46.347,40.979,45.443z"/>
<path fill="#E8A323" d="M47.914,53.656c-0.211,0.561-1.151,0.725-2.099,0.367c-0.947-0.358-1.543-1.103-1.333-1.663
	c0.213-0.559,1.152-0.725,2.1-0.367C47.529,52.352,48.125,53.097,47.914,53.656z"/>
<path fill="#B16244" d="M44.482,52.361c0,0,1.212,1.977,3.432,1.296c0,0-0.263,1.325-2.507,0.288
	C45.407,53.945,44.269,53.265,44.482,52.361z"/>
<path fill="#E8A323" d="M49.556,61.682c-0.211,0.561-1.151,0.725-2.099,0.366c-0.948-0.357-1.544-1.102-1.333-1.663
	c0.212-0.559,1.151-0.724,2.1-0.366C49.171,60.378,49.768,61.122,49.556,61.682z"/>
<path fill="#B16244" d="M46.124,60.385c0,0,1.211,1.978,3.432,1.296c0,0-0.263,1.325-2.506,0.288
	C47.05,61.97,45.91,61.291,46.124,60.385z"/>
<path fill="#E8A323" d="M29.178,61.858c0,0.599-0.822,1.083-1.834,1.083c-1.014,0-1.835-0.485-1.835-1.083s0.822-1.084,1.835-1.084
	C28.356,60.774,29.178,61.26,29.178,61.858z"/>
<path fill="#B16244" d="M25.508,61.858c0,0,1.832,1.42,3.67,0c0,0,0.222,1.333-2.244,1.155
	C26.934,63.013,25.628,62.78,25.508,61.858z"/>
<path fill="#E8A323" d="M37.785,63.729c0,0.599-0.821,1.083-1.834,1.083c-1.012,0-1.834-0.485-1.834-1.083s0.822-1.084,1.834-1.084
	C36.964,62.644,37.785,63.13,37.785,63.729z"/>
<path fill="#B16244" d="M34.116,63.729c0,0,1.831,1.421,3.669,0c0,0,0.222,1.333-2.244,1.155
	C35.542,64.884,34.236,64.65,34.116,63.729z"/>
<ellipse fill="#E8A323" cx="48.831" cy="63.596" rx="1.834" ry="1.084"/>
<path fill="#B16244" d="M46.996,63.595c0,0,1.833,1.421,3.67,0c0,0,0.222,1.333-2.244,1.156
	C48.422,64.751,47.117,64.517,46.996,63.595z"/>
<path fill="#E8A323" d="M37.864,55.346c0,0.599-0.821,1.084-1.834,1.084s-1.834-0.486-1.834-1.084c0-0.599,0.821-1.083,1.834-1.083
	S37.864,54.747,37.864,55.346z"/>
<path fill="#B16244" d="M34.196,55.346c0,0,1.832,1.421,3.668,0c0,0,0.222,1.332-2.243,1.155
	C35.621,56.502,34.315,56.268,34.196,55.346z"/>
<path fill="#E8A323" d="M40.728,66.226c0,0.599-0.821,1.085-1.834,1.085s-1.834-0.486-1.834-1.085c0-0.598,0.821-1.084,1.834-1.084
	S40.728,65.628,40.728,66.226z"/>
<path fill="#B16244" d="M37.059,66.226c0,0,1.832,1.421,3.669,0c0,0,0.222,1.333-2.244,1.156
	C38.484,67.382,37.179,67.148,37.059,66.226z"/>
<path fill="#E8A323" d="M32.92,63.215c-0.283,0.528-1.236,0.569-2.129,0.091c-0.894-0.478-1.389-1.293-1.106-1.821
	c0.282-0.527,1.235-0.569,2.128-0.091C32.707,61.872,33.202,62.688,32.92,63.215z"/>
<path fill="#B16244" d="M29.685,61.485c0,0,0.945,2.116,3.235,1.73c0,0-0.434,1.279-2.524-0.039
	C30.396,63.176,29.355,62.354,29.685,61.485z"/>
<path fill="#E8A323" d="M35.953,61.859c-0.282,0.528-1.235,0.568-2.129,0.09c-0.893-0.477-1.389-1.293-1.106-1.821
	c0.283-0.528,1.236-0.569,2.129-0.091C35.741,60.515,36.236,61.331,35.953,61.859z"/>
<path fill="#B16244" d="M32.718,60.129c0,0,0.945,2.116,3.235,1.73c0,0-0.433,1.279-2.522-0.04
	C33.431,61.82,32.389,60.998,32.718,60.129z"/>
<path fill="#E8A323" d="M48.378,60.863c-0.282,0.528-1.235,0.569-2.129,0.091c-0.893-0.478-1.389-1.292-1.106-1.822
	c0.283-0.527,1.235-0.568,2.129-0.09C48.165,59.52,48.661,60.334,48.378,60.863z"/>
<path fill="#B16244" d="M45.143,59.132c0,0,0.945,2.117,3.235,1.731c0,0-0.432,1.28-2.523-0.039
	C45.854,60.823,44.814,60.001,45.143,59.132z"/>
<path fill="#E8A323" d="M32.607,59.219c0.088,0.593-0.653,1.194-1.655,1.343c-1.001,0.149-1.886-0.21-1.973-0.802
	c-0.088-0.591,0.652-1.193,1.655-1.342C31.635,58.268,32.519,58.628,32.607,59.219z"/>
<path fill="#B16244" d="M28.979,59.76c0,0,2.02,1.135,3.629-0.541c0,0,0.416,1.286-2.05,1.473
	C30.558,60.692,29.232,60.654,28.979,59.76z"/>
<path fill="#E8A323" d="M31.409,56.199c0.089,0.592-0.653,1.194-1.654,1.343c-1.002,0.149-1.886-0.21-1.974-0.803
	c-0.088-0.591,0.652-1.192,1.655-1.342C30.438,55.249,31.321,55.608,31.409,56.199z"/>
<path fill="#B16244" d="M27.781,56.74c0,0,2.02,1.136,3.628-0.54c0,0,0.415,1.286-2.049,1.474
	C29.36,57.673,28.035,57.635,27.781,56.74z"/>
<path fill="#E8A323" d="M29.975,64.475c0.088,0.592-0.652,1.193-1.655,1.343c-1.001,0.149-1.885-0.21-1.974-0.803
	c-0.087-0.591,0.653-1.192,1.655-1.342C29.003,63.525,29.887,63.884,29.975,64.475z"/>
<path fill="#B16244" d="M26.346,65.015c0,0,2.021,1.135,3.629-0.54c0,0,0.416,1.285-2.049,1.473
	C27.926,65.948,26.6,65.91,26.346,65.015z"/>
<path fill="#E8A323" d="M42.417,63.454c0.088,0.593-0.653,1.194-1.654,1.343c-1.002,0.149-1.886-0.21-1.975-0.802
	c-0.088-0.592,0.654-1.193,1.654-1.343C41.445,62.503,42.329,62.863,42.417,63.454z"/>
<path fill="#B16244" d="M38.788,63.995c0,0,2.021,1.135,3.629-0.541c0,0,0.416,1.286-2.049,1.474
	C40.368,64.927,39.042,64.889,38.788,63.995z"/>
<path fill="#E8A323" d="M44.229,57.934c0.088,0.593-0.653,1.194-1.655,1.343s-1.886-0.21-1.975-0.802
	c-0.088-0.591,0.653-1.192,1.655-1.342C43.257,56.983,44.142,57.343,44.229,57.934z"/>
<path fill="#B16244" d="M40.6,58.475c0,0,2.021,1.136,3.629-0.541c0,0,0.416,1.286-2.049,1.474
	C42.18,59.408,40.854,59.369,40.6,58.475z"/>
<path fill="#E8A323" d="M48.533,55.252c0.088,0.592-0.652,1.193-1.655,1.343c-1.002,0.148-1.886-0.21-1.974-0.803
	c-0.088-0.592,0.653-1.194,1.654-1.343C47.561,54.301,48.445,54.659,48.533,55.252z"/>
<path fill="#B16244" d="M44.904,55.792c0,0,2.021,1.136,3.629-0.541c0,0,0.416,1.286-2.049,1.473
	C46.484,56.724,45.158,56.686,44.904,55.792z"/>
<path fill="#E8A323" d="M46.734,65.63c0.087,0.592-0.653,1.194-1.655,1.343c-1.001,0.148-1.885-0.21-1.973-0.802
	c-0.088-0.592,0.652-1.193,1.654-1.343C45.762,64.678,46.646,65.038,46.734,65.63z"/>
<path fill="#B16244" d="M43.105,66.171c0,0,2.02,1.135,3.629-0.541c0,0,0.416,1.286-2.049,1.473
	C44.685,67.103,43.359,67.065,43.105,66.171z"/>
<path fill="#E8A323" d="M37.513,69.607c0.089,0.593-0.653,1.194-1.655,1.343c-1.001,0.149-1.885-0.21-1.973-0.802
	c-0.088-0.592,0.653-1.193,1.654-1.343C36.542,68.656,37.426,69.016,37.513,69.607z"/>
<path fill="#B16244" d="M33.885,70.148c0,0,2.02,1.136,3.628-0.541c0,0,0.416,1.285-2.049,1.474
	C35.464,71.081,34.14,71.042,33.885,70.148z"/>
<path fill="#E8A323" d="M34.725,64.893c0.088,0.593-0.653,1.193-1.655,1.343c-1.002,0.148-1.885-0.21-1.974-0.803
	c-0.087-0.591,0.653-1.193,1.654-1.343C33.752,63.942,34.636,64.302,34.725,64.893z"/>
<path fill="#B16244" d="M31.095,65.434c0,0,2.021,1.135,3.629-0.541c0,0,0.416,1.286-2.049,1.473
	C32.675,66.366,31.35,66.328,31.095,65.434z"/>
<path fill="#E8A323" d="M37.985,58.253c0.088,0.593-0.654,1.194-1.655,1.343c-1.002,0.149-1.886-0.21-1.974-0.803
	c-0.088-0.591,0.653-1.192,1.655-1.342C37.013,57.303,37.896,57.661,37.985,58.253z"/>
<path fill="#B16244" d="M34.356,58.794c0,0,2.021,1.136,3.629-0.541c0,0,0.416,1.286-2.05,1.473
	C35.936,59.726,34.61,59.688,34.356,58.794z"/>
<path fill="#E8A323" d="M40.612,61.554c-0.211,0.56-1.151,0.725-2.1,0.366c-0.947-0.358-1.544-1.102-1.333-1.662
	c0.212-0.56,1.152-0.724,2.1-0.366C40.227,60.25,40.824,60.994,40.612,61.554z"/>
<path fill="#B16244" d="M37.18,60.258c0,0,1.212,1.976,3.433,1.296c0,0-0.263,1.326-2.506,0.288
	C38.106,61.842,36.967,61.163,37.18,60.258z"/>
<path fill="#E8A323" d="M53.34,59.108c-0.212,0.561-1.152,0.724-2.101,0.366c-0.947-0.358-1.543-1.103-1.333-1.663
	c0.212-0.56,1.151-0.724,2.1-0.366C52.955,57.804,53.552,58.548,53.34,59.108z"/>
<path fill="#B16244" d="M49.907,57.812c0,0,1.211,1.976,3.433,1.296c0,0-0.263,1.325-2.507,0.287
	C50.833,59.395,49.694,58.717,49.907,57.812z"/>
<path fill="#E8A323" d="M42.449,55.248c-0.212,0.56-1.151,0.724-2.1,0.367c-0.947-0.358-1.543-1.102-1.332-1.663
	c0.211-0.56,1.151-0.724,2.099-0.366C42.063,53.943,42.662,54.688,42.449,55.248z"/>
<path fill="#B16244" d="M39.017,53.951c0,0,1.211,1.977,3.432,1.296c0,0-0.264,1.326-2.506,0.288
	C39.943,55.535,38.803,54.857,39.017,53.951z"/>
<path fill="#E8A323" d="M45.952,62.166c-0.212,0.56-1.151,0.725-2.099,0.366c-0.948-0.358-1.544-1.103-1.333-1.663
	c0.212-0.56,1.152-0.724,2.099-0.366C45.566,60.861,46.163,61.606,45.952,62.166z"/>
<path fill="#B16244" d="M42.52,60.87c0,0,1.211,1.976,3.432,1.295c0,0-0.263,1.326-2.507,0.288
	C43.445,62.453,42.307,61.774,42.52,60.87z"/>
<path fill="#E8A323" d="M47.594,70.191c-0.212,0.561-1.152,0.726-2.101,0.367c-0.947-0.359-1.543-1.103-1.332-1.663
	s1.151-0.724,2.099-0.367C47.209,68.886,47.806,69.632,47.594,70.191z"/>
<path fill="#B16244" d="M44.162,68.894c0,0,1.211,1.977,3.433,1.296c0,0-0.263,1.325-2.507,0.288
	C45.087,70.479,43.948,69.8,44.162,68.894z"/>
<path fill="#FFFFFF" d="M108.844,56.126l0.563,2.405c0,0,2.819-2.575,4.183-0.869c0,0,2.725,2.241,3.495-1.917
	c0,0-0.046-1.93-2.521-1.39c0,0,1.729-3.562-2.072-3.067c0,0-1.649,0.232-1.54,2.472L108.844,56.126z"/>
<path fill="#FFFFFF" d="M103.98,46.512l0.655,1.812c0,0,2.829-1.633,4.083,0.115c0,0,1.065,2.337,2.805,0.515
	c0,0,1.27-2.741-1.584-2.802c0,0,1.531-2.954-1.588-3.677c0,0-2.707,0.37-1.738,2.408L103.98,46.512z"/>
<path fill="#F4CE5D" d="M97.354,45.463l6.372,3.404l1.475,0.478c0,0,2.166-2.845-1.566-4.34
	C103.636,45.005,100.096,44.395,97.354,45.463z"/>
<path fill="#F4CE5D" d="M67.65,55.381c0,0,6.628-18.551,28.377-10.414c2.386,0.892,4.954,2.106,7.715,3.702l4.348,2.556
	l-1.599,1.975c0,0,6.592,2.134,3.755,7.348c0,0-2.419,6.882-8.837,4.804c0,0-14.941,12.411-30.434,1.071
	C70.975,66.422,66.221,63.351,67.65,55.381z"/>
<path fill="#B1862D" d="M68.125,62.512c0,0,19.548,9.604,33.283,2.838c0,0-10.432,9.089-23.572,4.687
	C77.836,70.037,68.867,66.61,68.125,62.512z"/>
<path fill="#B1862D" d="M93.68,67.55c0,0,5.229-7.747,11.364-4.206c0,0,4.179-0.382,5.781-6.268c0,0-0.434,10.767-9.417,8.274
	l-8.024,4.436L93.68,67.55z"/>
</svg>
