<?xml version="1.0" encoding="utf-8"?>
<!-- Generator: Adobe Illustrator 15.1.0, SVG Export Plug-In . SVG Version: 6.00 Build 0)  -->
<!DOCTYPE svg PUBLIC "-//W3C//DTD SVG 1.1//EN" "http://www.w3.org/Graphics/SVG/1.1/DTD/svg11.dtd">
<svg version="1.1" id="Layer_1" xmlns="http://www.w3.org/2000/svg" xmlns:xlink="http://www.w3.org/1999/xlink" x="0px" y="0px"
	 width="449.91px" height="749.85px" viewBox="-27.038 -34.965 449.91 749.85"
	 enable-background="new -27.038 -34.965 449.91 749.85" xml:space="preserve">
<rect x="114.525" y="247.696" transform="matrix(-0.9999 0.0126 -0.0126 -0.9999 388.5194 602.0475)" fill="#AC8762" width="155.676" height="109.102"/>
<path fill="#AC8762" d="M190.437,632.043c0.361,28.697,20.416,51.712-18.637,52.204c-15.839,0.2-28.973-22.903-29.334-51.6
	s12.187-52.122,28.025-52.321C186.332,580.126,190.075,603.346,190.437,632.043z"/>
<path fill="#AC8762" d="M226.35,629.26c0.361,28.698-19.108,52.21,19.944,51.718c15.839-0.2,28.387-23.624,28.024-52.322
	c-0.361-28.696-13.494-51.797-29.332-51.598C229.146,577.257,225.99,600.563,226.35,629.26z"/>
<path fill="#449FD8" d="M92.806,246.196l82.558-2.101l13.932,37.601l16.237-36.92l69.865-8.96l-5.679,18.293
	c0,0,89.008-3.78,111.586,130.964c0,0,25.838,62.314,0.807,64.022c0,0-25.17,14.237-43.352-59.312c0,0-9.456-29.11-19.455-56.828
	l-2.514,131.809l-234.206-5.056l-6.811-125.075c0,0-22.688,74.061-22.531,86.588c0,0-3.774,84.957-45.076,39.542
	c0,0-24.998-187.238,94.653-192.41L92.806,246.196z"/>
<path fill="#AC8762" d="M341.075,398.555c0,0,19.656-21.398,43.358-5.199c0,0,24.629,56.876-5.59,56.713
	C378.843,450.069,354.745,460.158,341.075,398.555z"/>
<path fill="#1C7CAF" d="M77.925,374.12l4.66,85.586l159.809,3.448c0,0-148.891,4.813-149.195-19.314
	C93.199,443.841,92.382,440.758,77.925,374.12z"/>
<path fill="#1C7CAF" d="M319.305,332.954c0,0,1.983,137.635-46.958,129.937l44.444,1.872L319.305,332.954z"/>
<path fill="#AC8762" d="M5.745,403.719c0,0,28.53-8.978,49.187,7.372c0,0-1.056,68.393-30.305,63.058
	C24.626,474.148-14.323,464.288,5.745,403.719z"/>
<path fill="#AC8762" d="M248.25,111.96c-22.643-16.367-35.866-36.736-15.992-64.226c19.875-27.488,54.339-36.505,76.98-20.137
	c22.642,16.37,24.886,51.923,5.011,79.413C294.375,134.499,270.891,128.328,248.25,111.96z"/>
<path fill="#F5C4D3" d="M248.229,111.986c-15.166-10.967-24.893-23.404-11.083-42.507c13.809-19.103,37.299-25.699,52.465-14.734
	c15.167,10.963,16.267,35.338,2.456,54.44C278.258,128.285,263.396,122.953,248.229,111.986z"/>
<path fill="#AC8762" d="M97.118,113.864c22.224-16.934,34.927-37.628,14.369-64.609c-20.559-26.98-55.239-35.125-77.464-18.192
	C11.8,47.996,10.455,83.596,31.014,110.575C51.572,137.557,74.895,130.795,97.118,113.864z"/>
<path fill="#F5C4D3" d="M97.137,113.889c14.885-11.345,24.295-24.023,10.009-42.774C92.86,52.367,69.211,46.364,54.327,57.707
	c-14.885,11.341-15.371,35.735-1.085,54.483S82.252,125.232,97.137,113.889z"/>
<path fill="#231F20" d="M113.335,71.535l-11.661-41.614c0,0,53.857-29.657,74.763-29.921c0,0,43.401,17.549,64.497,34.558
	l-5.122,35.435C235.812,69.992,153.416,48.76,113.335,71.535z"/>
<path fill="#AC8762" d="M293.426,147.518c0.983,77.961,27.56,98.957-116.169,100.768c-115.818,1.458-117.585-11.666-118.67-97.812
	c-0.936-74.29,26.38-88.14,111.63-89.215C275.894,59.929,292.625,83.899,293.426,147.518z"/>
<path fill="#5D3B18" d="M196.736,123.639l-0.905-25.037c0,0,57.483-4.866,75.381-22.227l6.99,27.603
	C278.202,103.978,255.359,127.09,196.736,123.639z"/>
<path fill="#5D3B18" d="M157.201,122.118l2.651-24.914c0,0-57.002-8.868-73.646-27.435l-8.899,27.046
	C77.307,96.816,98.479,121.466,157.201,122.118z"/>
<path fill="#D5B9A3" d="M277.042,218.864c0.193,15.356-15.094,27.96-89.465,28.897c-74.254,0.934-95.077-6.881-95.279-22.932
	c-0.284-22.548,31.398-67.569,78.479-68.163C231.283,155.906,276.519,177.369,277.042,218.864z"/>
<path fill="#5D3B18" d="M274.862,210.324c0,0-19-27.745-67.434-1.746c0,0-18.983,13.864-31.232-3.692
	c0,0-9.937-46.768,63.146-36.322C239.341,168.564,267.539,178.461,274.862,210.324z"/>
<path fill="#5D3B18" d="M88.525,231.31c0,0,12.354-31.276,65.357-16.7c0,0,21.591,9.292,29.629-10.549
	c0,0-0.716-47.806-69.644-21.367C113.868,182.694,88.579,198.616,88.525,231.31z"/>
<g>
	<path fill="#E54174" d="M196.272,164.123c0.637,0.601,1.116,1.382,1.365,2.244c0.253,0.861,0.248,1.805-0.002,2.682
		c-0.252,0.879-0.723,1.677-1.279,2.383c-0.559,0.71-1.218,1.326-1.91,1.891c-1.387,1.129-2.939,2.012-4.518,2.803l-0.597,0.289
		l-0.301,0.139l-0.15,0.068l-0.097,0.043l-0.082,0.031c-0.423,0.156-0.843,0.294-1.267,0.425c-0.846,0.262-1.7,0.491-2.56,0.694
		c-3.444,0.786-6.989,1.153-10.518,0.987c-3.525-0.153-7.035-0.876-10.264-2.239c3.349,1.03,6.821,1.499,10.283,1.535
		c3.463,0.021,6.926-0.377,10.294-1.162c0.843-0.192,1.681-0.41,2.507-0.658c0.413-0.124,0.825-0.257,1.223-0.399l0.072-0.026
		c-0.018,0.008,0.038-0.017,0.053-0.023l0.148-0.066l0.295-0.133l0.589-0.271c1.565-0.73,3.08-1.572,4.457-2.589
		c0.687-0.511,1.327-1.079,1.889-1.713c0.56-0.634,1.03-1.349,1.312-2.14c0.291-0.786,0.367-1.655,0.19-2.491
		C197.226,165.593,196.838,164.789,196.272,164.123z"/>
</g>
<g>
	<path fill="#8E5E2C" d="M274.862,210.324c-1.337-4.098-3.082-8.04-5.088-11.825c-2.004-3.786-4.319-7.398-6.936-10.761
		c-5.231-6.708-11.835-12.389-19.547-15.895c-7.678-3.58-16.295-4.868-24.79-4.41c-8.524,0.451-16.936,2.525-25.085,5.312
		c7.876-3.485,16.295-5.989,24.99-6.718c4.34-0.378,8.738-0.248,13.07,0.409c4.328,0.678,8.575,1.942,12.57,3.768
		c3.983,1.849,7.707,4.246,11.043,7.081c3.327,2.848,6.307,6.083,8.868,9.607c2.579,3.513,4.766,7.291,6.606,11.214
		C272.37,202.042,273.906,206.114,274.862,210.324z"/>
</g>
<g>
	<path fill="#8E5E2C" d="M92.21,205.407c1.864-3.231,4.156-6.206,6.602-9.034c2.473-2.809,5.156-5.445,8.053-7.838
		c2.883-2.41,5.994-4.551,9.259-6.436c3.274-1.869,6.729-3.428,10.302-4.657c3.582-1.199,7.282-2.057,11.031-2.518
		c3.75-0.438,7.541-0.537,11.292-0.21c7.511,0.608,14.828,2.698,21.578,5.835c-7.031-2.44-14.313-4.095-21.668-4.429
		c-3.673-0.153-7.353-0.024-10.981,0.499c-3.63,0.499-7.209,1.342-10.673,2.531c-3.475,1.159-6.832,2.667-10.047,4.436
		c-3.228,1.752-6.287,3.811-9.215,6.045c-2.916,2.253-5.688,4.705-8.284,7.342C96.858,199.607,94.404,202.399,92.21,205.407z"/>
</g>
<path fill="#492512" d="M81.703,447.372c0,0-26.801,135.307-13.82,162.983l278.779-3.509c0,0-4.828-111.143-28.755-162.448
	L81.703,447.372z"/>
<g>
	<g>
		<defs>
			<path id="SVGID_1_" d="M81.703,447.372c0,0-26.801,135.307-13.82,162.983l278.779-3.509c0,0-4.828-111.143-28.755-162.448
				L81.703,447.372z"/>
		</defs>
		<clipPath id="SVGID_2_">
			<use xlink:href="#SVGID_1_"  overflow="visible"/>
		</clipPath>
		<g clip-path="url(#SVGID_2_)">
			<g>
				<path fill="#BC6A45" d="M89.639,452.379c5.219,4.926,7.121,11.387,4.249,14.431c-2.874,3.045-9.434,1.52-14.652-3.406
					s-7.12-11.387-4.248-14.43C77.861,445.928,84.419,447.455,89.639,452.379z"/>
				<path fill="#BC6A45" d="M112.278,473.202c5.219,4.925,7.12,11.386,4.248,14.43c-2.874,3.045-9.432,1.519-14.652-3.406
					c-5.219-4.926-7.121-11.386-4.249-14.429C100.499,466.752,107.059,468.277,112.278,473.202z"/>
				<path fill="#BC6A45" d="M80.292,473.605c-5.093,5.057-6.833,11.562-3.883,14.532c2.948,2.973,9.467,1.282,14.561-3.773
					c5.092-5.056,6.832-11.562,3.883-14.532C91.904,466.86,85.385,468.55,80.292,473.605z"/>
				
					<ellipse transform="matrix(-0.7097 0.7045 -0.7045 -0.7097 504.9587 707.1252)" fill="#BC6A45" cx="106.791" cy="457.599" rx="12.994" ry="7.578"/>
			</g>
			<g>
				<path fill="#BC6A45" d="M133.458,451.827c5.22,4.927,7.122,11.387,4.249,14.431c-2.874,3.045-9.432,1.519-14.651-3.408
					c-5.22-4.924-7.121-11.385-4.248-14.429C121.681,445.377,128.241,446.903,133.458,451.827z"/>
				<path fill="#BC6A45" d="M156.098,472.65c5.218,4.926,7.12,11.385,4.247,14.43s-9.433,1.519-14.651-3.407
					c-5.218-4.926-7.121-11.385-4.248-14.428C144.319,466.199,150.877,467.725,156.098,472.65z"/>
				<path fill="#BC6A45" d="M124.112,473.053c-5.093,5.056-6.833,11.562-3.884,14.533c2.95,2.971,9.468,1.282,14.561-3.774
					c5.094-5.056,6.832-11.562,3.884-14.532C135.722,466.308,129.203,467.998,124.112,473.053z"/>
				<path fill="#BC6A45" d="M145.291,451.678c-5.092,5.056-6.832,11.562-3.883,14.534c2.95,2.972,9.467,1.28,14.561-3.776
					c5.092-5.054,6.832-11.562,3.882-14.53C156.903,444.933,150.383,446.624,145.291,451.678z"/>
			</g>
			<g>
				<path fill="#BC6A45" d="M133.561,496.826c5.22,4.926,7.12,11.386,4.249,14.431c-2.875,3.044-9.432,1.519-14.652-3.407
					c-5.219-4.927-7.121-11.386-4.249-14.431C121.782,490.375,128.341,491.902,133.561,496.826z"/>
				<path fill="#BC6A45" d="M156.199,517.65c5.219,4.925,7.122,11.386,4.25,14.429c-2.874,3.044-9.433,1.521-14.652-3.405
					c-5.22-4.927-7.121-11.386-4.248-14.43C144.422,511.199,150.981,512.724,156.199,517.65z"/>
				<path fill="#BC6A45" d="M124.214,518.052c-5.094,5.055-6.833,11.562-3.883,14.532c2.949,2.971,9.468,1.283,14.56-3.772
					c5.093-5.058,6.832-11.562,3.883-14.534C135.826,511.307,129.307,512.997,124.214,518.052z"/>
				<path fill="#BC6A45" d="M145.393,496.677c-5.094,5.055-6.832,11.562-3.882,14.534c2.948,2.97,9.467,1.28,14.56-3.775
					c5.093-5.058,6.833-11.562,3.885-14.533C157.005,489.931,150.486,491.623,145.393,496.677z"/>
			</g>
			<g>
				<path fill="#BC6A45" d="M179.646,496.246c5.219,4.926,7.121,11.385,4.25,14.431c-2.875,3.043-9.434,1.519-14.653-3.406
					c-5.219-4.928-7.12-11.388-4.249-14.432C167.867,489.794,174.427,491.322,179.646,496.246z"/>
				<path fill="#BC6A45" d="M202.286,517.07c5.219,4.925,7.121,11.386,4.248,14.429c-2.874,3.044-9.433,1.521-14.651-3.405
					c-5.22-4.927-7.123-11.387-4.249-14.43C190.508,510.618,197.067,512.144,202.286,517.07z"/>
				<path fill="#BC6A45" d="M170.3,517.472c-5.094,5.055-6.833,11.562-3.884,14.531c2.949,2.972,9.469,1.283,14.561-3.772
					c5.093-5.058,6.833-11.562,3.885-14.532C181.912,510.727,175.393,512.417,170.3,517.472z"/>
				<path fill="#BC6A45" d="M191.479,496.098c-5.095,5.055-6.832,11.561-3.884,14.532c2.949,2.97,9.468,1.28,14.562-3.774
					c5.093-5.058,6.832-11.562,3.883-14.534C203.092,489.351,196.572,491.043,191.479,496.098z"/>
			</g>
			<g>
				<path fill="#BC6A45" d="M179.286,541.25c5.219,4.925,7.122,11.385,4.248,14.431c-2.873,3.043-9.433,1.52-14.652-3.408
					c-5.219-4.926-7.121-11.387-4.248-14.43C167.507,534.799,174.067,536.323,179.286,541.25z"/>
				<path fill="#BC6A45" d="M201.924,562.073c5.219,4.925,7.12,11.385,4.248,14.43c-2.871,3.045-9.432,1.519-14.65-3.408
					c-5.219-4.925-7.122-11.385-4.249-14.43C190.146,555.621,196.706,557.147,201.924,562.073z"/>
				<path fill="#BC6A45" d="M169.938,562.476c-5.092,5.056-6.832,11.562-3.883,14.532c2.95,2.973,9.468,1.282,14.562-3.775
					c5.093-5.055,6.832-11.562,3.884-14.532C181.55,555.73,175.032,557.42,169.938,562.476z"/>
				<path fill="#BC6A45" d="M191.119,541.102c-5.093,5.055-6.833,11.561-3.884,14.532c2.95,2.97,9.468,1.281,14.562-3.775
					c5.093-5.056,6.83-11.562,3.884-14.533C202.731,534.355,196.212,536.044,191.119,541.102z"/>
			</g>
			<g>
				<path fill="#BC6A45" d="M226.764,540.653c5.218,4.926,7.12,11.385,4.249,14.43c-2.874,3.043-9.434,1.52-14.652-3.408
					c-5.219-4.926-7.121-11.387-4.249-14.43C214.985,534.2,221.545,535.726,226.764,540.653z"/>
				<path fill="#BC6A45" d="M249.402,561.475c5.22,4.926,7.121,11.385,4.248,14.429c-2.874,3.046-9.432,1.521-14.652-3.406
					c-5.219-4.925-7.121-11.386-4.247-14.431C237.624,555.023,244.183,556.549,249.402,561.475z"/>
				<path fill="#BC6A45" d="M217.415,561.88c-5.091,5.054-6.831,11.56-3.882,14.53c2.95,2.973,9.468,1.282,14.562-3.775
					c5.093-5.054,6.831-11.561,3.883-14.532C229.029,555.132,222.51,556.822,217.415,561.88z"/>
				<path fill="#BC6A45" d="M238.596,540.504c-5.093,5.055-6.832,11.561-3.883,14.533c2.948,2.97,9.467,1.28,14.561-3.776
					c5.094-5.056,6.832-11.562,3.884-14.532C250.207,533.757,243.69,535.447,238.596,540.504z"/>
			</g>
			<g>
				<path fill="#BC6A45" d="M229.019,584.697c5.219,4.924,7.121,11.385,4.248,14.429c-2.873,3.045-9.434,1.52-14.652-3.407
					c-5.22-4.925-7.12-11.385-4.249-14.43C217.241,578.243,223.8,579.77,229.019,584.697z"/>
				<path fill="#BC6A45" d="M251.658,605.517c5.218,4.927,7.121,11.386,4.248,14.431c-2.874,3.045-9.433,1.518-14.651-3.406
					c-5.22-4.927-7.12-11.386-4.248-14.431C239.879,599.066,246.438,600.593,251.658,605.517z"/>
				<path fill="#BC6A45" d="M219.672,605.919c-5.094,5.058-6.833,11.562-3.884,14.535c2.949,2.972,9.469,1.278,14.562-3.774
					c5.093-5.057,6.831-11.562,3.883-14.533C231.284,599.175,224.765,600.865,219.672,605.919z"/>
				<path fill="#BC6A45" d="M240.852,584.548c-5.094,5.053-6.832,11.561-3.884,14.531c2.947,2.971,9.468,1.28,14.562-3.775
					c5.092-5.055,6.832-11.561,3.884-14.532C252.463,577.8,245.945,579.491,240.852,584.548z"/>
			</g>
			<g>
				<path fill="#BC6A45" d="M276.327,582.96c5.22,4.925,7.122,11.386,4.249,14.43c-2.874,3.045-9.433,1.519-14.651-3.406
					c-5.219-4.925-7.121-11.386-4.249-14.432C264.551,576.507,271.108,578.034,276.327,582.96z"/>
				<path fill="#BC6A45" d="M298.967,603.783c5.219,4.924,7.122,11.385,4.249,14.43c-2.874,3.045-9.434,1.519-14.652-3.407
					c-5.219-4.925-7.12-11.386-4.246-14.43C287.188,597.33,293.75,598.856,298.967,603.783z"/>
				<path fill="#BC6A45" d="M266.981,604.185c-5.092,5.056-6.832,11.561-3.884,14.533c2.95,2.972,9.469,1.281,14.562-3.775
					c5.093-5.054,6.833-11.561,3.883-14.532C278.592,597.439,272.076,599.13,266.981,604.185z"/>
				
					<ellipse transform="matrix(-0.7097 0.7045 -0.7045 -0.7097 916.1649 798.8485)" fill="#BC6A45" cx="293.49" cy="588.188" rx="12.993" ry="7.58"/>
			</g>
			<g>
				<path fill="#BC6A45" d="M323.637,581.224c5.22,4.924,7.121,11.386,4.249,14.429c-2.873,3.045-9.433,1.521-14.653-3.405
					c-5.218-4.927-7.119-11.386-4.246-14.431C311.86,574.773,318.418,576.298,323.637,581.224z"/>
				<path fill="#BC6A45" d="M346.276,602.046c5.218,4.926,7.122,11.385,4.25,14.432c-2.875,3.043-9.435,1.518-14.653-3.406
					c-5.218-4.929-7.121-11.387-4.247-14.431C334.498,595.594,341.059,597.122,346.276,602.046z"/>
				<path fill="#BC6A45" d="M314.291,602.448c-5.092,5.057-6.831,11.562-3.884,14.535c2.95,2.971,9.468,1.28,14.561-3.773
					c5.093-5.059,6.833-11.563,3.884-14.533C325.902,595.703,319.385,597.395,314.291,602.448z"/>
				<path fill="#BC6A45" d="M335.471,581.075c-5.094,5.055-6.832,11.562-3.883,14.531c2.949,2.971,9.467,1.283,14.561-3.772
					c5.091-5.057,6.832-11.561,3.885-14.534C347.081,574.328,340.562,576.02,335.471,581.075z"/>
			</g>
			<g>
				<path fill="#BC6A45" d="M274.242,540.055c5.22,4.925,7.121,11.385,4.247,14.43c-2.872,3.043-9.432,1.519-14.651-3.407
					c-5.22-4.926-7.12-11.386-4.248-14.43C262.464,533.603,269.022,535.128,274.242,540.055z"/>
				<path fill="#BC6A45" d="M296.88,560.878c5.219,4.925,7.121,11.385,4.247,14.429c-2.872,3.046-9.432,1.52-14.65-3.407
					c-5.219-4.925-7.121-11.385-4.249-14.431C285.103,554.426,291.663,555.951,296.88,560.878z"/>
				<path fill="#BC6A45" d="M264.894,561.281c-5.092,5.055-6.833,11.561-3.882,14.531c2.948,2.973,9.467,1.282,14.561-3.775
					c5.093-5.054,6.831-11.561,3.884-14.532C276.507,554.533,269.989,556.224,264.894,561.281z"/>
				<path fill="#BC6A45" d="M286.074,539.906c-5.093,5.055-6.833,11.561-3.883,14.533c2.948,2.97,9.468,1.281,14.56-3.775
					c5.093-5.056,6.833-11.562,3.884-14.533C297.686,533.159,291.167,534.849,286.074,539.906z"/>
			</g>
			<g>
				<path fill="#BC6A45" d="M321.721,539.457c5.219,4.925,7.12,11.384,4.248,14.43c-2.874,3.043-9.434,1.519-14.653-3.407
					c-5.22-4.926-7.123-11.388-4.248-14.431C309.941,533.005,316.501,534.531,321.721,539.457z"/>
				<path fill="#BC6A45" d="M344.358,560.28c5.217,4.926,7.119,11.386,4.247,14.428c-2.873,3.046-9.433,1.521-14.65-3.407
					c-5.22-4.924-7.121-11.385-4.248-14.43C332.581,553.828,339.14,555.353,344.358,560.28z"/>
				<path fill="#BC6A45" d="M312.373,560.683c-5.094,5.055-6.833,11.561-3.885,14.532c2.951,2.972,9.469,1.282,14.562-3.775
					c5.093-5.055,6.833-11.561,3.884-14.533C323.984,553.936,317.467,555.626,312.373,560.683z"/>
				<path fill="#BC6A45" d="M333.553,539.308c-5.095,5.055-6.833,11.561-3.885,14.533c2.949,2.971,9.469,1.281,14.561-3.774
					c5.092-5.056,6.83-11.562,3.883-14.533C345.164,532.562,338.646,534.251,333.553,539.308z"/>
			</g>
			<g>
				<path fill="#BC6A45" d="M178.913,585.324c5.219,4.927,7.121,11.388,4.248,14.432c-2.874,3.044-9.432,1.52-14.652-3.407
					c-5.219-4.926-7.12-11.386-4.247-14.429C167.134,578.875,173.692,580.399,178.913,585.324z"/>
				<path fill="#BC6A45" d="M201.553,606.146c5.219,4.929,7.12,11.387,4.249,14.433c-2.875,3.045-9.434,1.518-14.654-3.407
					c-5.218-4.926-7.12-11.386-4.247-14.431C189.774,599.696,196.333,601.222,201.553,606.146z"/>
				<path fill="#BC6A45" d="M169.567,606.549c-5.096,5.059-6.833,11.563-3.885,14.535c2.948,2.971,9.468,1.28,14.562-3.775
					c5.093-5.055,6.832-11.562,3.883-14.533C181.178,599.805,174.658,601.495,169.567,606.549z"/>
				<path fill="#BC6A45" d="M190.745,585.175c-5.093,5.058-6.83,11.563-3.884,14.534c2.95,2.971,9.47,1.282,14.563-3.774
					c5.093-5.056,6.831-11.562,3.884-14.533C202.358,578.431,195.839,580.12,190.745,585.175z"/>
			</g>
			<g>
				<path fill="#BC6A45" d="M225.731,495.665c5.221,4.927,7.122,11.386,4.249,14.431c-2.873,3.043-9.434,1.519-14.652-3.406
					c-5.218-4.928-7.12-11.386-4.248-14.432C213.954,489.215,220.514,490.741,225.731,495.665z"/>
				<path fill="#BC6A45" d="M248.371,516.489c5.22,4.926,7.121,11.387,4.248,14.429c-2.873,3.045-9.432,1.521-14.651-3.404
					c-5.219-4.927-7.121-11.387-4.248-14.431C236.594,510.038,243.152,511.563,248.371,516.489z"/>
				<path fill="#BC6A45" d="M216.385,516.892c-5.092,5.055-6.832,11.562-3.882,14.532c2.949,2.971,9.467,1.283,14.56-3.773
					c5.094-5.057,6.832-11.562,3.884-14.532C227.999,510.146,221.479,511.837,216.385,516.892z"/>
				<path fill="#BC6A45" d="M237.565,495.517c-5.094,5.056-6.832,11.562-3.884,14.533c2.949,2.971,9.467,1.281,14.561-3.774
					c5.094-5.057,6.832-11.562,3.884-14.533C249.178,488.771,242.657,490.462,237.565,495.517z"/>
			</g>
			<g>
				<path fill="#BC6A45" d="M271.818,495.086c5.219,4.926,7.121,11.385,4.248,14.431c-2.874,3.043-9.432,1.518-14.651-3.407
					c-5.219-4.928-7.12-11.386-4.248-14.431C260.041,488.634,266.6,490.161,271.818,495.086z"/>
				<path fill="#BC6A45" d="M294.457,515.909c5.218,4.925,7.122,11.385,4.248,14.429c-2.873,3.044-9.432,1.521-14.651-3.405
					c-5.22-4.927-7.121-11.386-4.249-14.43C282.68,509.458,289.238,510.982,294.457,515.909z"/>
				<path fill="#BC6A45" d="M262.471,516.312c-5.092,5.055-6.831,11.562-3.883,14.532c2.949,2.972,9.469,1.282,14.562-3.773
					c5.093-5.057,6.832-11.562,3.883-14.532C274.083,509.566,267.564,511.257,262.471,516.312z"/>
				<path fill="#BC6A45" d="M283.651,494.937c-5.094,5.055-6.831,11.561-3.883,14.532c2.949,2.971,9.467,1.281,14.561-3.773
					c5.092-5.058,6.833-11.562,3.884-14.534C295.263,488.19,288.744,489.882,283.651,494.937z"/>
			</g>
			<g>
				<path fill="#BC6A45" d="M317.905,494.505c5.219,4.926,7.12,11.386,4.248,14.431c-2.873,3.044-9.433,1.519-14.651-3.406
					c-5.22-4.928-7.124-11.386-4.248-14.432C306.128,488.054,312.686,489.58,317.905,494.505z"/>
				<path fill="#BC6A45" d="M340.544,515.328c5.219,4.926,7.12,11.386,4.247,14.429c-2.873,3.045-9.433,1.521-14.651-3.405
					c-5.218-4.928-7.12-11.386-4.249-14.43C328.765,508.877,335.325,510.403,340.544,515.328z"/>
				<path fill="#BC6A45" d="M308.557,515.731c-5.093,5.056-6.832,11.562-3.884,14.532c2.951,2.972,9.47,1.282,14.562-3.773
					c5.092-5.057,6.831-11.562,3.884-14.533C320.17,508.986,313.651,510.675,308.557,515.731z"/>
				<path fill="#BC6A45" d="M329.738,494.357c-5.093,5.055-6.833,11.561-3.885,14.533c2.949,2.97,9.469,1.28,14.561-3.775
					c5.094-5.057,6.833-11.562,3.884-14.533C341.349,487.611,334.831,489.301,329.738,494.357z"/>
			</g>
			<g>
				<path fill="#BC6A45" d="M130.392,540.01c5.218,4.926,7.121,11.386,4.249,14.429c-2.875,3.046-9.433,1.521-14.651-3.405
					c-5.22-4.927-7.121-11.386-4.248-14.432C118.614,533.558,125.174,535.083,130.392,540.01z"/>
				<path fill="#BC6A45" d="M153.03,560.833c5.22,4.924,7.121,11.386,4.25,14.429c-2.874,3.046-9.433,1.52-14.651-3.404
					c-5.22-4.928-7.121-11.387-4.25-14.433C141.253,554.38,147.812,555.906,153.03,560.833z"/>
				<path fill="#BC6A45" d="M121.046,561.235c-5.094,5.055-6.834,11.563-3.884,14.533c2.95,2.971,9.467,1.28,14.562-3.772
					c5.093-5.058,6.832-11.563,3.883-14.535C132.658,554.489,126.138,556.179,121.046,561.235z"/>
				<path fill="#BC6A45" d="M142.225,539.861c-5.093,5.055-6.832,11.562-3.884,14.532c2.95,2.973,9.468,1.283,14.561-3.773
					c5.094-5.057,6.832-11.562,3.884-14.534C153.836,533.114,147.318,534.805,142.225,539.861z"/>
			</g>
			<g>
				<path fill="#BC6A45" d="M130.492,584.795c5.219,4.927,7.121,11.386,4.248,14.429c-2.873,3.046-9.432,1.521-14.65-3.404
					c-5.221-4.928-7.121-11.388-4.248-14.433C118.714,578.343,125.272,579.868,130.492,584.795z"/>
				<path fill="#BC6A45" d="M153.13,605.619c5.22,4.923,7.123,11.384,4.25,14.428c-2.875,3.046-9.432,1.52-14.651-3.405
					c-5.219-4.927-7.121-11.386-4.249-14.432C141.353,599.166,147.911,600.691,153.13,605.619z"/>
				<path fill="#BC6A45" d="M121.146,606.022c-5.095,5.052-6.833,11.561-3.884,14.531c2.95,2.972,9.468,1.281,14.561-3.772
					c5.093-5.057,6.833-11.562,3.885-14.535C132.757,599.276,126.238,600.965,121.146,606.022z"/>
				<path fill="#BC6A45" d="M142.325,584.646c-5.094,5.056-6.832,11.562-3.885,14.532c2.95,2.972,9.468,1.282,14.561-3.772
					c5.095-5.057,6.834-11.562,3.885-14.535C153.937,577.9,147.419,579.59,142.325,584.646z"/>
			</g>
			<g>
				
					<ellipse transform="matrix(-0.7272 -0.6864 0.6864 -0.7272 -14.0408 907.9825)" fill="#BC6A45" cx="173.402" cy="456.781" rx="12.993" ry="7.578"/>
				<path fill="#BC6A45" d="M201.254,472.083c5.219,4.927,7.121,11.385,4.249,14.429c-2.874,3.046-9.433,1.521-14.653-3.405
					c-5.218-4.925-7.12-11.385-4.248-14.431C189.476,465.633,196.038,467.157,201.254,472.083z"/>
				<path fill="#BC6A45" d="M169.269,472.487c-5.093,5.056-6.831,11.56-3.884,14.53c2.949,2.973,9.467,1.282,14.561-3.773
					c5.093-5.055,6.832-11.561,3.884-14.533C180.881,465.741,174.362,467.431,169.269,472.487z"/>
				<path fill="#BC6A45" d="M190.448,451.112c-5.094,5.056-6.832,11.56-3.884,14.532c2.949,2.971,9.469,1.281,14.561-3.775
					c5.094-5.055,6.832-11.561,3.885-14.531C202.061,444.366,195.542,446.055,190.448,451.112z"/>
			</g>
			<g>
				<path fill="#BC6A45" d="M226.858,449.894c5.217,4.924,7.12,11.384,4.247,14.43c-2.874,3.043-9.433,1.517-14.651-3.407
					c-5.22-4.927-7.12-11.385-4.248-14.43C215.079,443.443,221.64,444.968,226.858,449.894z"/>
				<path fill="#BC6A45" d="M249.497,470.716c5.219,4.923,7.121,11.385,4.248,14.429s-9.432,1.52-14.65-3.405
					c-5.22-4.926-7.121-11.384-4.249-14.429C237.718,464.263,244.277,465.789,249.497,470.716z"/>
				<path fill="#BC6A45" d="M217.51,471.119c-5.092,5.054-6.831,11.56-3.883,14.532c2.951,2.971,9.469,1.281,14.562-3.774
					c5.094-5.057,6.831-11.56,3.884-14.532C229.124,464.371,222.604,466.063,217.51,471.119z"/>
				<path fill="#BC6A45" d="M238.69,449.744c-5.093,5.055-6.832,11.561-3.883,14.534c2.949,2.97,9.467,1.279,14.562-3.775
					c5.092-5.057,6.832-11.561,3.883-14.533C250.302,443,243.783,444.689,238.69,449.744z"/>
			</g>
			<g>
				<path fill="#BC6A45" d="M275.099,448.526c5.22,4.926,7.122,11.384,4.249,14.431c-2.874,3.043-9.431,1.52-14.651-3.408
					c-5.218-4.926-7.121-11.385-4.248-14.429C263.32,442.074,269.881,443.601,275.099,448.526z"/>
				<path fill="#BC6A45" d="M297.74,469.349c5.217,4.926,7.12,11.385,4.247,14.432c-2.874,3.042-9.435,1.52-14.652-3.407
					c-5.218-4.926-7.121-11.385-4.249-14.431C285.96,462.898,292.52,464.423,297.74,469.349z"/>
				<path fill="#BC6A45" d="M265.752,469.751c-5.093,5.056-6.832,11.562-3.884,14.534c2.95,2.969,9.469,1.281,14.562-3.776
					c5.094-5.054,6.832-11.56,3.884-14.532C277.364,463.006,270.847,464.696,265.752,469.751z"/>
				<path fill="#BC6A45" d="M286.933,448.377c-5.093,5.056-6.832,11.56-3.884,14.533c2.949,2.97,9.468,1.282,14.561-3.775
					c5.093-5.055,6.832-11.561,3.883-14.531C298.545,441.631,292.025,443.323,286.933,448.377z"/>
			</g>
			<g>
				<path fill="#BC6A45" d="M323.341,447.159c5.219,4.925,7.122,11.387,4.25,14.43c-2.874,3.045-9.435,1.52-14.652-3.405
					c-5.219-4.926-7.121-11.387-4.248-14.432C311.563,440.707,318.122,442.233,323.341,447.159z"/>
				<path fill="#BC6A45" d="M313.994,468.384c-5.092,5.056-6.831,11.562-3.883,14.534c2.949,2.971,9.467,1.28,14.561-3.775
					c5.095-5.057,6.833-11.562,3.884-14.533C325.605,461.639,319.087,463.329,313.994,468.384z"/>
			</g>
			<g>
				<path fill="#BC6A45" d="M83.299,497.459c5.218,4.926,7.12,11.386,4.248,14.431c-2.874,3.044-9.434,1.519-14.651-3.406
					c-5.219-4.928-7.121-11.387-4.249-14.431C71.521,491.008,78.08,492.534,83.299,497.459z"/>
				<path fill="#BC6A45" d="M105.938,518.282c5.22,4.926,7.121,11.386,4.249,14.43c-2.874,3.045-9.434,1.521-14.652-3.405
					c-5.22-4.928-7.121-11.386-4.249-14.43C94.16,511.831,100.718,513.357,105.938,518.282z"/>
				<path fill="#BC6A45" d="M73.952,518.684c-5.093,5.056-6.832,11.562-3.884,14.533c2.95,2.972,9.468,1.282,14.561-3.773
					c5.093-5.057,6.834-11.561,3.884-14.532C85.562,511.94,79.046,513.63,73.952,518.684z"/>
				<path fill="#BC6A45" d="M95.132,497.31c-5.095,5.056-6.832,11.562-3.885,14.533c2.951,2.971,9.468,1.281,14.562-3.773
					c5.092-5.058,6.831-11.563,3.883-14.534C106.742,490.565,100.224,492.256,95.132,497.31z"/>
			</g>
			<g>
				<path fill="#BC6A45" d="M81.78,540.622c5.219,4.926,7.12,11.386,4.247,14.429c-2.873,3.046-9.432,1.521-14.651-3.406
					c-5.219-4.926-7.121-11.386-4.247-14.432C70.001,534.17,76.561,535.697,81.78,540.622z"/>
				<path fill="#BC6A45" d="M104.418,561.445c5.221,4.925,7.121,11.387,4.249,14.43c-2.873,3.045-9.433,1.52-14.651-3.405
					c-5.22-4.928-7.121-11.387-4.249-14.433C92.64,554.992,99.2,556.518,104.418,561.445z"/>
				<path fill="#BC6A45" d="M72.432,561.847c-5.093,5.054-6.831,11.562-3.883,14.533c2.949,2.972,9.469,1.281,14.562-3.772
					c5.093-5.057,6.831-11.563,3.884-14.536C84.046,555.1,77.525,556.791,72.432,561.847z"/>
				<path fill="#BC6A45" d="M93.612,540.473c-5.092,5.055-6.833,11.561-3.883,14.531c2.949,2.973,9.468,1.283,14.562-3.772
					c5.094-5.057,6.833-11.562,3.883-14.535C105.224,533.726,98.706,535.417,93.612,540.473z"/>
			</g>
			<g>
				<path fill="#BC6A45" d="M80.115,584.499c5.217,4.925,7.12,11.387,4.246,14.432c-2.874,3.044-9.432,1.518-14.65-3.405
					c-5.218-4.928-7.121-11.388-4.248-14.431C68.336,578.049,74.894,579.574,80.115,584.499z"/>
				<path fill="#BC6A45" d="M102.753,605.323c5.22,4.925,7.121,11.385,4.248,14.43c-2.874,3.045-9.432,1.52-14.652-3.407
					c-5.219-4.925-7.12-11.384-4.249-14.429C90.975,598.871,97.533,600.398,102.753,605.323z"/>
				<path fill="#BC6A45" d="M70.767,605.726c-5.094,5.055-6.832,11.561-3.883,14.532c2.949,2.972,9.468,1.283,14.561-3.775
					c5.093-5.055,6.833-11.56,3.883-14.531C82.379,598.981,75.859,600.671,70.767,605.726z"/>
				<path fill="#BC6A45" d="M91.946,584.351c-5.093,5.055-6.83,11.562-3.884,14.533c2.951,2.971,9.469,1.282,14.563-3.773
					c5.092-5.057,6.831-11.563,3.883-14.533C103.559,577.605,97.041,579.296,91.946,584.351z"/>
			</g>
		</g>
	</g>
</g>
<g>
	<g>
		<line fill="none" stroke="#5D3B18" stroke-miterlimit="10" x1="176.364" y1="65.695" x2="176.399" y2="68.404"/>
		
			<line fill="none" stroke="#5D3B18" stroke-miterlimit="10" stroke-dasharray="12.3473,12.3473" x1="176.469" y1="73.978" x2="177.417" y2="149.23"/>
		<line fill="none" stroke="#5D3B18" stroke-miterlimit="10" x1="177.452" y1="152.017" x2="177.485" y2="154.726"/>
	</g>
</g>
<path fill="none" stroke="#5D3B18" stroke-miterlimit="10" stroke-dasharray="12" d="M27.206,402.52c0,0-15.76,60.327-2.579,71.628"
	/>
<path fill="none" stroke="#5D3B18" stroke-miterlimit="10" stroke-dasharray="12" d="M360.626,387.821
	c0,0,35.156,39.653,24.931,57.581"/>
<polygon fill="#1C7CAF" points="236.129,312.475 248.548,357.456 278.294,355.732 281.919,309.819 "/>
<path fill="none" stroke="#A2DEF9" stroke-miterlimit="10" d="M240.66,325.479c0,0,29.967,1.778,40.286-3.359"/>
<path fill="none" stroke="#5D3B18" stroke-miterlimit="10" stroke-dasharray="12" d="M166.69,610.07c0,0-8.415,54.893,5.109,74.176"
	/>
<path fill="none" stroke="#5D3B18" stroke-miterlimit="10" stroke-dasharray="12" d="M248.284,605.33c0,0,9.795,54.664-3.24,74.282"
	/>
<path fill="#F497B2" d="M197.604,167.66c0.071,5.726-9.425,10.486-21.211,10.634c-11.789,0.148-21.402-4.372-21.474-10.098
	c-0.073-5.725,9.424-10.486,21.211-10.634C187.918,157.415,197.531,161.934,197.604,167.66z"/>
<g>
	<path fill="#5D3B18" d="M96.832,143.21c0.546,3.218,1.574,6.323,2.975,9.209c0.715,1.436,1.511,2.826,2.439,4.116
		c0.929,1.289,1.965,2.489,3.104,3.574c1.141,1.082,2.395,2.035,3.733,2.838c1.332,0.815,2.75,1.485,4.223,2.003
		c2.952,1.029,6.094,1.498,9.253,1.542h0.02l0.064,0.004c0.863,0.059,1.845,0.045,2.773-0.011c0.939-0.062,1.878-0.156,2.809-0.3
		c1.86-0.288,3.689-0.765,5.424-1.46c1.73-0.701,3.377-1.594,4.852-2.724c1.479-1.125,2.762-2.492,3.841-4.015
		c1.082-1.523,1.934-3.222,2.571-5.008c0.646-1.786,1.101-3.657,1.38-5.564c0.586-3.817,0.536-7.746,0.263-11.661
		c0.811,3.843,1.198,7.809,0.91,11.793c-0.159,1.988-0.482,3.98-1.061,5.922c-0.585,1.936-1.414,3.821-2.52,5.553
		c-2.216,3.471-5.61,6.187-9.414,7.723c-1.898,0.784-3.884,1.321-5.893,1.651c-1.005,0.167-2.018,0.281-3.036,0.33
		c-1.029,0.048-2.012,0.062-3.104-0.024l0.083,0.005c-3.354-0.073-6.751-0.601-9.923-1.841c-1.585-0.613-3.112-1.384-4.532-2.32
		c-1.413-0.945-2.719-2.043-3.886-3.264c-1.173-1.217-2.199-2.563-3.076-3.989s-1.633-2.918-2.228-4.467
		c-0.599-1.547-1.088-3.13-1.426-4.742C97.104,146.478,96.875,144.845,96.832,143.21z"/>
</g>
<g>
	<path fill="#5D3B18" d="M208.999,134.224c0.546,3.217,1.574,6.323,2.975,9.209c0.715,1.436,1.51,2.827,2.439,4.117
		c0.929,1.288,1.966,2.489,3.104,3.574c1.141,1.082,2.395,2.035,3.733,2.838c1.332,0.814,2.75,1.485,4.224,2.003
		c2.951,1.029,6.093,1.498,9.253,1.541h0.019l0.064,0.005c0.863,0.059,1.846,0.045,2.772-0.012c0.939-0.062,1.878-0.155,2.81-0.299
		c1.86-0.288,3.689-0.765,5.423-1.461c1.729-0.7,3.378-1.593,4.853-2.723c1.478-1.125,2.761-2.492,3.84-4.015
		c1.082-1.523,1.934-3.221,2.572-5.008c0.646-1.785,1.1-3.656,1.38-5.563c0.586-3.818,0.536-7.746,0.263-11.661
		c0.811,3.843,1.199,7.809,0.91,11.793c-0.159,1.988-0.482,3.981-1.061,5.922c-0.585,1.936-1.414,3.821-2.52,5.554
		c-2.215,3.471-5.61,6.187-9.414,7.724c-1.898,0.783-3.884,1.319-5.893,1.65c-1.005,0.167-2.019,0.281-3.037,0.331
		c-1.029,0.049-2.011,0.061-3.104-0.023l0.084,0.004c-3.354-0.073-6.75-0.601-9.923-1.841c-1.585-0.612-3.112-1.384-4.532-2.319
		c-1.413-0.945-2.718-2.044-3.886-3.265c-1.173-1.216-2.198-2.563-3.076-3.989c-0.875-1.425-1.632-2.918-2.228-4.467
		c-0.598-1.547-1.087-3.13-1.425-4.742C209.27,137.492,209.042,135.859,208.999,134.224z"/>
</g>
</svg>
