<?xml version="1.0" encoding="utf-8"?>
<!-- Generator: Adobe Illustrator 15.1.0, SVG Export Plug-In . SVG Version: 6.00 Build 0)  -->
<!DOCTYPE svg PUBLIC "-//W3C//DTD SVG 1.1//EN" "http://www.w3.org/Graphics/SVG/1.1/DTD/svg11.dtd">
<svg version="1.1" id="Layer_1" xmlns="http://www.w3.org/2000/svg" xmlns:xlink="http://www.w3.org/1999/xlink" x="0px" y="0px"
	 width="303.987px" height="328.492px" viewBox="0 0 303.987 328.492" enable-background="new 0 0 303.987 328.492"
	 xml:space="preserve">
<rect x="1.156" y="0" fill="#E9F6F8" width="298.038" height="328.492"/>
<rect x="1.156" y="201.33" fill="#AE4A29" width="300.988" height="13.065"/>
<rect x="59.028" y="213.039" fill="#AE4A29" width="8.145" height="116.16"/>
<rect x="78.783" y="213.039" fill="#AE4A29" width="8.144" height="116.16"/>
<rect x="98.537" y="213.039" fill="#AE4A29" width="8.144" height="116.16"/>
<rect x="118.29" y="213.039" fill="#AE4A29" width="8.145" height="116.16"/>
<rect x="138.044" y="213.039" fill="#AE4A29" width="8.145" height="116.16"/>
<rect x="157.799" y="213.039" fill="#AE4A29" width="8.144" height="116.16"/>
<rect x="177.553" y="213.039" fill="#AE4A29" width="8.144" height="116.16"/>
<rect x="197.307" y="213.039" fill="#AE4A29" width="8.145" height="116.16"/>
<rect x="217.061" y="213.039" fill="#AE4A29" width="8.144" height="116.16"/>
<rect x="236.815" y="213.039" fill="#AE4A29" width="8.143" height="116.16"/>
<path fill="#61B5BC" d="M118.055,0.543c0,0,1.935,254.788-118.055,229.799V0.543H118.055z"/>
<path fill="#61B5BC" d="M0,178.518c0,0,67.736,28.153,104.507,150.516H0V178.518z"/>
<path fill="#61B5BC" d="M185.932,0c0,0-1.933,256.943,118.055,231.743V0H185.932z"/>
<path fill="#61B5BC" d="M303.987,177.976c0,0-67.736,28.152-104.506,150.516h104.506V177.976z"/>
</svg>
