<?xml version="1.0" encoding="utf-8"?>
<!-- Generator: Adobe Illustrator 15.1.0, SVG Export Plug-In . SVG Version: 6.00 Build 0)  -->
<!DOCTYPE svg PUBLIC "-//W3C//DTD SVG 1.1//EN" "http://www.w3.org/Graphics/SVG/1.1/DTD/svg11.dtd">
<svg version="1.1" id="Layer_1" xmlns="http://www.w3.org/2000/svg" xmlns:xlink="http://www.w3.org/1999/xlink" x="0px" y="0px"
	 width="456px" height="520px" viewBox="136.5 106.058 456 520" enable-background="new 136.5 106.058 456 520"
	 xml:space="preserve">
<g opacity="0.7">
</g>
<g opacity="0.7">
</g>
<g>
	<path fill="#2D2E2D" d="M263.885,236.045c0,0,24.92-107.237,168.715-96.746c0,0,124.913,39.021,100.611,150.767
		c-0.191,1.957,5.247,264.417-311.38,260.249c0,0-80.761-3.537-58.108-76.514c0,0,4.269-11.702,25.282-20.896
		c0,0,33.27-4.597,19.262,25.49c0,0,0.438-20.475-19.698-8.356c0,0-10.946,21.312,20.135,25.49c0,0,41.152,8.775,58.66-39.28
		c0,0,2.505-52.596-2.312-79.761C265.051,376.488,255.999,246.383,263.885,236.045z"/>
	<path fill="#F8E0CA" d="M507.772,260.661c0,73.12,24.675,93.124-110.126,93.124c-108.626,0-110.13-12.328-110.13-93.124
		c0-69.676,25.78-82.341,105.735-82.341C492.369,178.32,507.772,200.995,507.772,260.661z"/>
	<path fill="none" stroke="#F8B77F" stroke-miterlimit="10" d="M397.772,279.48c0,0-0.927,3.158-11.1,9.903c0,0,0,9.518,11.1,8.595"
		/>
	<path fill="#2D2E2D" d="M425.903,153.67c0,0-147.779-35.27-143.078,109.837c0,0,9.911-5.082,26.802-10.59l13.197-48.101
		l12.873,40.984c12.799-2.84,27.45-5.155,43.407-6.085l17.294-45.384l24.075,46.342c9.581,1.03,19.415,2.666,29.419,5.049
		l-5.316-51.392l29.263,58.492c13.121,4.681,26.407,10.763,39.679,18.544C513.52,271.366,529.028,153.546,425.903,153.67z"/>
	<line fill="none" x1="309.628" y1="252.917" x2="309.393" y2="253.769"/>
	<polygon opacity="0.67" fill="#F6D0B0" enable-background="new    " points="287.414,273.349 317.301,252.917 322.824,205.026 
		309.628,252.917 287.518,260.661 	"/>
	<polygon opacity="0.67" fill="#F6D0B0" enable-background="new    " points="396.397,194.329 386.673,239.188 379.104,239.713 	"/>
	<polygon fill="#F6D0B0" points="406.285,213.365 415.766,239.713 420.473,240.672 	"/>
	<polyline fill="#F6D0B0" points="444.854,197.024 466.519,252.917 473.838,252.821 444.576,194.329 	"/>
	<path fill="#F6D0B0" d="M507.943,271.366c0,0,1.114,68.166-57.97,80.819c0,0,60.637,4.406,59.572-40.41L507.943,271.366z"/>
	<g>
		<path fill="#9B6127" d="M467.432,268.068c0.568,0.274,1.151,0.517,1.75,0.71c0.593,0.201,1.2,0.362,1.814,0.463
			c1.22,0.199,2.507,0.181,3.616-0.333c1.119-0.497,1.941-1.495,2.46-2.614c0.267-0.561,0.466-1.157,0.619-1.765
			c0.164-0.606,0.273-1.227,0.374-1.853c-0.046,1.262-0.248,2.536-0.739,3.729c-0.241,0.595-0.577,1.16-1.003,1.655
			c-0.429,0.493-0.966,0.898-1.562,1.174c-1.205,0.549-2.572,0.547-3.815,0.277C469.692,269.237,468.501,268.744,467.432,268.068z"
			/>
	</g>
	<g>
		<path fill="#9B6127" d="M468.207,275.79c0.569,0.275,1.153,0.517,1.75,0.71c0.595,0.201,1.201,0.363,1.815,0.463
			c1.221,0.2,2.508,0.182,3.616-0.332c1.119-0.496,1.94-1.495,2.462-2.615c0.267-0.559,0.463-1.156,0.617-1.764
			c0.166-0.605,0.273-1.228,0.374-1.853c-0.045,1.261-0.247,2.537-0.738,3.729c-0.242,0.596-0.577,1.16-1.005,1.654
			c-0.428,0.493-0.964,0.899-1.56,1.174c-1.208,0.549-2.575,0.547-3.818,0.276C470.47,276.96,469.278,276.468,468.207,275.79z"/>
	</g>
	<g>
		<path fill="#FFFFFF" d="M469.265,276.152c0,10.619-8.847,19.228-19.76,19.228c-10.911,0-19.758-8.609-19.758-19.228
			s8.847-19.227,19.758-19.227C460.418,256.927,469.265,265.533,469.265,276.152z"/>
	</g>
	<g>
		<path d="M457.445,276.152c0,7.443-6.199,13.477-13.849,13.477c-7.65,0-13.85-6.034-13.85-13.477s6.199-13.476,13.85-13.476
			C451.246,262.676,457.445,268.709,457.445,276.152z"/>
	</g>
	<g>
		<path fill="#9B6127" d="M328.665,265.736c-1.07,0.678-2.263,1.17-3.514,1.444c-1.245,0.27-2.61,0.272-3.818-0.277
			c-0.596-0.275-1.131-0.682-1.561-1.175c-0.427-0.494-0.762-1.058-1.002-1.654c-0.491-1.192-0.693-2.467-0.739-3.729
			c0.1,0.625,0.207,1.247,0.374,1.854c0.154,0.607,0.351,1.204,0.618,1.765c0.52,1.119,1.341,2.117,2.459,2.614
			c1.109,0.516,2.396,0.532,3.616,0.333c0.615-0.1,1.222-0.26,1.815-0.462C327.513,266.253,328.096,266.012,328.665,265.736z"/>
	</g>
	<g>
		<path fill="#9B6127" d="M327.888,273.46c-1.07,0.677-2.262,1.169-3.514,1.444c-1.244,0.27-2.611,0.272-3.818-0.278
			c-0.596-0.275-1.131-0.681-1.56-1.173c-0.427-0.496-0.763-1.059-1.004-1.656c-0.49-1.191-0.691-2.466-0.738-3.727
			c0.1,0.623,0.208,1.246,0.374,1.85c0.156,0.609,0.352,1.204,0.618,1.765c0.519,1.12,1.342,2.118,2.461,2.615
			c1.108,0.515,2.395,0.532,3.615,0.333c0.615-0.1,1.222-0.261,1.815-0.463C326.736,273.976,327.318,273.735,327.888,273.46z"/>
	</g>
	<g>
		<ellipse fill="#FFFFFF" cx="346.591" cy="273.821" rx="19.759" ry="19.229"/>
	</g>
	<g>
		<ellipse cx="352.501" cy="273.822" rx="13.849" ry="13.478"/>
	</g>
	<g>
		<path fill="#ED1F24" d="M452.327,335.468c-3.624-2.604-7.554-4.736-11.595-6.574c-4.04-1.853-8.214-3.392-12.464-4.66
			c-4.253-1.25-8.581-2.249-12.96-2.935c-4.375-0.701-8.793-1.132-13.222-1.276c-4.429-0.171-8.866-0.059-13.288,0.289
			c-4.424,0.33-8.825,0.941-13.197,1.726c-4.368,0.802-8.704,1.803-12.99,2.998c-2.148,0.584-4.283,1.22-6.405,1.903
			c-1.062,0.34-2.118,0.695-3.171,1.056c-1.058,0.357-2.111,0.723-3.162,1.102c1.023-0.446,2.051-0.88,3.085-1.304
			c1.035-0.418,2.076-0.82,3.121-1.213c2.091-0.787,4.2-1.529,6.327-2.22c4.261-1.361,8.592-2.52,12.979-3.424
			c4.385-0.925,8.831-1.566,13.298-1.98c4.471-0.393,8.966-0.518,13.454-0.369c4.487,0.174,8.966,0.617,13.394,1.375
			c4.422,0.771,8.803,1.813,13.067,3.206c4.273,1.375,8.438,3.076,12.436,5.096c1.995,1.021,3.947,2.12,5.845,3.306
			C448.774,332.755,450.624,334.021,452.327,335.468z"/>
	</g>
	<path fill="#F8E0CA" d="M509.605,426.508c31.252-46.924,49.407-89.742,32.56-100.964c-8.737-5.819-28.997,35.599-60.249,82.524
		c-31.252,46.921-61.662,81.582-52.922,87.402C437.732,501.288,478.353,473.433,509.605,426.508z"/>
	<path fill="#F6D0B0" d="M542.165,325.544c0,0-86.703,136.39-113.17,169.927c0,0-11.21-7.962,50.846-84.305l29.936-47.117
		C509.776,364.049,538.082,321.16,542.165,325.544z"/>
	<path fill="#F8E0CA" d="M309.94,426.242c-31.251-46.924-49.407-89.742-32.56-100.963c8.738-5.82,28.997,35.599,60.249,82.521
		c31.253,46.924,61.661,81.584,52.922,87.403C381.814,501.023,341.193,473.167,309.94,426.242z"/>
	<path fill="#F6D0B0" d="M277.382,325.279c0,0,86.704,136.389,113.17,169.927c0,0,11.211-7.964-50.844-84.305l-29.937-47.116
		C309.771,363.785,281.463,320.894,277.382,325.279z"/>
	<g>
		<g>
			<g>
				<defs>
					<path id="SVGID_1_" d="M331.054,385.489l-10.879,192.365c0,0,96.104,59.336,186.409,1.395l-35.275-200.553l-1.6-26.671
						l-137.042,4.965L331.054,385.489z"/>
				</defs>
				<clipPath id="SVGID_2_">
					<use xlink:href="#SVGID_1_"  overflow="visible"/>
				</clipPath>
				<g clip-path="url(#SVGID_2_)">
					<path fill="#95281E" d="M331.573,384.109l-10.88,192.364c0,0,96.106,59.334,186.414,1.395l-33.726-200.552l-1.602-26.672
						l-138.596,4.965L331.573,384.109z"/>
					<path fill="#40AA48" d="M353.242,566.639c0,0,12.044-10.398,21.232,0.723C374.475,567.362,366.994,575.95,353.242,566.639z"/>
					<path fill="#40AA48" d="M336.439,536.456c0,0,14.913-4.469,19.235,9.629C355.675,546.085,345.622,550.815,336.439,536.456z"/>
					<g>
						<path fill="#E46996" d="M366.408,533.243c1.492,1.152-9.722-8.197-15.351,2.723c0,0-1.593,4.496,2.312,13.916
							c0,0-2.959-15.66,5.177-14.395c0,0,1.919-2.414,5.094-0.303C363.641,535.184,367.578,533.378,366.408,533.243z"/>
						<path fill="#E46996" stroke="#FAD0DF" stroke-miterlimit="10" d="M350.838,536.938c0,0-0.188,10.361,1.885,12.607
							c0,0-4.184-5.525-4.429-9.791C348.294,539.755,349.252,537.096,350.838,536.938z"/>
						<path fill="#FAD0DF" d="M348.141,540.552c0,0-1.484,11.924,13.759,14.67c4.27,0.416,4.271,0.357,7.003-0.359
							c0,0-3.661,4.676-4.829,4.541c0,0,6.625-2.102,9.092-10.488l-0.496-4.197c0,0,0.332-4.775-0.453-7.502
							c0,0,0.166,15.736-8.303,8.881c0,0,4.819,0.43,5.125-4.227c0.146-1.584,0.308-4.141-3.544-3.93c0,0-0.792-2.65-0.841-2.402
							c-0.047,0.242,1.871-1.602,2.816-2.158c0,0-2.827,0.369-3.545,1.611c0,0-3.381-3.002-5.164,0.021
							c1.051,0.127-6.095-1.232-5.382,4.406c0,0-1.137,5.232-0.238,7.988c0.728,2.238-2.512-7.863-1.911-9.232
							c0,0-0.782,8.734,1.433,11.68C352.664,549.852,348.963,544.309,348.141,540.552z"/>
						<path fill="#E46996" d="M360.536,543.19c0,0-4.337-6.578,0.47-7.936c0,0,2.489-0.512,3.012,2.943
							C364.018,538.198,360.229,541.083,360.536,543.19z"/>
						<path fill="#E46996" d="M364.819,538.378c0,0,0.253-1.906-0.346-2.518c0,0,3.923-6.037,7.743,0.137
							c0,0,0.805,14.719-5.814,11.59c0,0-2.149-0.764-2.303-1.816c0,0,5.26,0.621,4.995-4.779
							C369.094,540.989,369.163,538.171,364.819,538.378z"/>
						<path fill="#E46996" d="M357.715,536.8c0,0-0.424,7.092,4.677,9.748c0,0-9.188-3.762-7.329-9.002
							C355.062,537.546,356.598,536.286,357.715,536.8z"/>
						<path fill="#E46996" d="M364.743,541.8c0,0,0.153,2.236-0.577,2.963c0,0,2.236,0.834,2.479-1.641
							C366.646,543.122,366.578,541.544,364.743,541.8z"/>
						<path fill="#E46996" d="M363.405,541.341c0,0,0.841,5.027-2.013,2.82c0,0,1.427-6.596,5.954-4.564
							c0,0,1.381,0.727,0.561,3.174C367.908,542.77,365.42,538.518,363.405,541.341z"/>
						<path fill="#E46996" d="M353.935,540.872c0,0-0.015,0.346-0.024,0.916c-0.044,2.482,0.029,9.252,2.061,10.221
							c0,0,10.299,4.07,13.733,0.877c0,0,3.499-3.533,1.914-6.453c0,0-2.891,5.361-10.794,0.652
							C360.824,547.085,355.236,544.01,353.935,540.872z"/>
						<path fill="#E46996" d="M372.31,537.198l0.07,4.268c0,0,5.181,5.76,3.402,14.301
							C375.782,555.764,384.769,546.397,372.31,537.198z"/>
						<path fill="#E46996" d="M373.467,537.907c0,0,9.666,6.357,1.618,18.232C375.085,556.139,386.02,547.587,373.467,537.907z"/>
						<path fill="#FAD0DF" d="M375.365,556.714c0,0,8.527-10.924-2.316-18.947l0,0c0,0,7.641,4.102,2.733,18L375.365,556.714z"/>
						<path fill="#E46996" d="M348.16,540.444c0,0-5.375,10.424,2.735,16.053c0,0,8.091,6.01,13.259,2.945
							c0,0,4.3-2.877,4.519-5.254c0,0-8.301,3.352-17.657-4.453C351.015,549.735,347.208,545.341,348.16,540.444z"/>
						<path fill="#E46996" d="M372.38,541.466l-0.035,2.082c0,0,1.986,7.289-1.958,10.447c0,0-4.768,5.629-6.866,5.266
							c0,0,8.485,6.07,12.262-3.494C375.782,555.764,378.256,544.61,372.38,541.466z"/>
					</g>
					<g>
						<path fill="#D16FAC" d="M337.761,549.294c1.94,0.029-13.03-0.795-11.701,12.264c0,0,1.174,4.908,9.875,10.512
							c0,0-11.421-11.6-3.687-15.762c0,0,0.291-3.32,4.224-3.553C336.472,552.755,338.844,548.651,337.761,549.294z"/>
						<path fill="#D16FAC" d="M326.422,562.536c0,0,5.707,9.059,8.768,9.662c0,0-6.738-2.062-9.367-5.586
							C325.823,566.612,325.144,563.698,326.422,562.536z"/>
						<path fill="#FAD0DF" d="M326.143,567.397c0,0,5.472,11.246,20.178,3.766c3.918-2.4,3.888-2.449,5.838-4.834
							c0,0-0.509,6.4-1.594,7.039c0,0,4.524-6.094,1.903-14.922l-2.809-3.301c0,0-2.417-4.334-4.639-6.18
							c0,0,9.06,13.469-2.13,13.023c0,0,4.398-2.74,2.027-6.955c-0.774-1.459-2.08-3.771-5.282-1.098c0,0-2.187-1.777-2.089-1.533
							c0.098,0.24,0.707-2.588,1.208-3.678c0,0-2.229,2.141-2.146,3.68c0,0-4.617-0.408-4.444,3.35
							c0.982-0.57-5.955,2.877-2.145,7.277c0,0,1.984,5.25,4.316,7.049c1.901,1.457-6.617-5.162-6.873-6.734
							c0,0,4.273,8.043,7.849,9.152C335.313,572.499,328.981,570.106,326.143,567.397z"/>
						<path fill="#D16FAC" d="M338.331,561.665c0,0-7.469-2.869-4.092-7.146c0,0,1.857-2.053,4.265,0.592
							C338.504,555.11,336.87,560.046,338.331,561.665z"/>
						<path fill="#D16FAC" d="M339.297,554.747c0,0-0.861-1.807-1.721-1.945c0,0-0.037-7.746,6.752-4.891
							c0,0,9.033,12.182,1.547,13.758c0,0-2.282,0.732-3.013-0.08c0,0,4.887-2.857,1.601-7.35
							C344.463,554.239,342.926,551.76,339.297,554.747z"/>
						<path fill="#D16FAC" d="M332.277,557.975c0,0,3.651,6.389,9.555,5.389c0,0-10.055,2.691-11.426-3.029
							C330.406,560.333,331.02,558.255,332.277,557.975z"/>
						<path fill="#D16FAC" d="M341.171,557.749c0,0,1.398,1.828,1.18,2.928c0,0,2.403-0.727,1.209-3.018
							C343.561,557.659,342.609,556.343,341.171,557.749z"/>
						<path fill="#D16FAC" d="M339.757,558.216c0,0,3.572,3.795-0.14,3.734c0,0-2.503-6.613,2.555-7.785
							c0,0,1.603-0.266,2.282,2.375C344.454,556.54,339.896,554.479,339.757,558.216z"/>
						<path fill="#D16FAC" d="M331.321,563.93c0,0,0.183,0.307,0.498,0.805c1.368,2.172,5.267,7.963,7.568,7.484
							c0,0,11.188-3.137,12.342-8.113c0,0,1.02-5.309-2.002-6.805c0,0,0.543,6.492-8.941,7.537
							C340.785,564.841,334.221,565.798,331.321,563.93z"/>
						<path fill="#D16FAC" d="M345.093,548.889l2.476,3.637c0,0,7.734,1.623,11.033,10.141
							C358.603,562.667,361.051,548.78,345.093,548.889z"/>
						<path fill="#D16FAC" d="M346.492,548.757c0,0,11.94-0.76,11.723,14.68C358.215,563.434,362.806,548.995,346.492,548.757z"/>
						<path fill="#FAD0DF" d="M358.784,563.753c0,0,1.168-14.936-12.734-14.85l0,0c0,0,8.917-1.398,12.553,13.764L358.784,563.753z"
							/>
						<path fill="#D16FAC" d="M326.099,567.292c0,0,1.268,12.465,11.449,12.084c0,0,10.383-0.043,13.107-6.029
							c0,0,2.079-5.258,0.926-7.451c0,0-5.265,8.252-17.758,7.568C333.823,573.464,328.049,572.132,326.099,567.292z"/>
						<path fill="#D16FAC" d="M347.569,552.524l1.151,1.822c0,0,5.843,5.002,4.226,10.277c0,0-0.922,7.934-2.936,8.977
							c0,0,10.757-0.244,8.594-10.934C358.603,562.667,354.42,551.442,347.569,552.524z"/>
					</g>
					<g>
						<path fill="#40AA48" d="M351.407,424.316c0,0,12.043-10.401,21.234,0.721C372.641,425.037,365.158,433.627,351.407,424.316z"
							/>
						<path fill="#40AA48" d="M334.604,394.133c0,0,14.911-4.467,19.235,9.629C353.84,403.761,343.787,408.491,334.604,394.133z"/>
						<g>
							<path fill="#E46996" d="M364.574,390.921c1.492,1.155-9.722-8.2-15.353,2.721c0,0-1.593,4.497,2.312,13.915
								c0,0-2.958-15.658,5.176-14.395c0,0,1.919-2.412,5.095-0.303C361.805,392.859,365.742,391.052,364.574,390.921z"/>
							<path fill="#E46996" stroke="#FAD0DF" stroke-miterlimit="10" d="M349.003,394.615c0,0-0.186,10.362,1.887,12.609
								c0,0-4.185-5.525-4.429-9.793C346.461,397.431,347.418,394.773,349.003,394.615z"/>
							<path fill="#FAD0DF" d="M346.306,398.227c0,0-1.484,11.924,13.758,14.671c4.271,0.413,4.272,0.355,7.004-0.361
								c0,0-3.66,4.678-4.83,4.544c0,0,6.625-2.104,9.094-10.489l-0.496-4.198c0,0,0.332-4.774-0.453-7.5
								c0,0,0.164,15.734-8.304,8.879c0,0,4.817,0.431,5.125-4.224c0.143-1.588,0.309-4.143-3.546-3.93c0,0-0.791-2.651-0.838-2.404
								c-0.048,0.242,1.871-1.602,2.812-2.158c0,0-2.823,0.367-3.544,1.61c0,0-3.379-3.001-5.164,0.022
								c1.055,0.127-6.094-1.232-5.378,4.403c0,0-1.14,5.235-0.241,7.989c0.731,2.238-2.51-7.862-1.908-9.232
								c0,0-0.782,8.736,1.431,11.68C350.829,407.529,347.127,401.983,346.306,398.227z"/>
							<path fill="#E46996" d="M358.7,400.869c0,0-4.337-6.58,0.47-7.939c0,0,2.491-0.512,3.013,2.946
								C362.183,395.875,358.393,398.757,358.7,400.869z"/>
							<path fill="#E46996" d="M362.984,396.053c0,0,0.25-1.907-0.347-2.517c0,0,3.925-6.037,7.745,0.133
								c0,0,0.802,14.721-5.819,11.592c0,0-2.146-0.762-2.301-1.818c0,0,5.257,0.625,4.993-4.777
								C367.256,398.666,367.328,395.845,362.984,396.053z"/>
							<path fill="#E46996" d="M355.881,394.474c0,0-0.423,7.092,4.679,9.752c0,0-9.19-3.764-7.335-9.004
								C353.225,395.222,354.762,393.961,355.881,394.474z"/>
							<path fill="#E46996" d="M362.909,399.477c0,0,0.153,2.231-0.579,2.96c0,0,2.237,0.836,2.48-1.641
								C364.811,400.797,364.742,399.22,362.909,399.477z"/>
							<path fill="#E46996" d="M361.571,399.015c0,0,0.839,5.028-2.014,2.821c0,0,1.427-6.598,5.954-4.563
								c0,0,1.381,0.725,0.562,3.174C366.074,400.447,363.584,396.193,361.571,399.015z"/>
							<path fill="#E46996" d="M352.1,398.548c0,0-0.016,0.345-0.026,0.914c-0.043,2.485,0.028,9.253,2.062,10.223
								c0,0,10.296,4.073,13.73,0.877c0,0,3.499-3.532,1.918-6.451c0,0-2.892,5.358-10.796,0.652
								C358.988,404.761,353.402,401.684,352.1,398.548z"/>
							<path fill="#E46996" d="M370.476,394.877l0.07,4.264c0,0,5.181,5.762,3.397,14.301
								C373.943,413.441,382.932,404.077,370.476,394.877z"/>
							<path fill="#E46996" d="M371.631,395.585c0,0,9.668,6.357,1.619,18.228C373.25,413.812,384.187,405.263,371.631,395.585z"/>
							<path fill="#FAD0DF" d="M373.531,414.39c0,0,8.526-10.926-2.317-18.949l0,0c0,0,7.641,4.105,2.729,18L373.531,414.39z"/>
							<path fill="#E46996" d="M346.326,398.12c0,0-5.375,10.425,2.732,16.052c0,0,8.089,6.011,13.261,2.945
								c0,0,4.297-2.875,4.519-5.254c0,0-8.3,3.352-17.658-4.45C349.18,407.413,345.372,403.015,346.326,398.12z"/>
							<path fill="#E46996" d="M370.546,399.14l-0.036,2.085c0,0,1.986,7.289-1.96,10.444c0,0-4.765,5.63-6.863,5.267
								c0,0,8.485,6.071,12.257-3.495C373.943,413.441,376.422,402.286,370.546,399.14z"/>
						</g>
						<g>
							<path fill="#D16FAC" d="M335.925,406.969c1.941,0.031-13.031-0.795-11.702,12.264c0,0,1.175,4.91,9.877,10.513
								c0,0-11.421-11.599-3.688-15.761c0,0,0.289-3.322,4.225-3.553C334.637,410.429,337.009,406.328,335.925,406.969z"/>
							<path fill="#D16FAC" d="M324.586,420.215c0,0,5.709,9.057,8.768,9.66c0,0-6.737-2.064-9.366-5.588
								C323.989,424.287,323.309,421.373,324.586,420.215z"/>
							<path fill="#FAD0DF" d="M324.306,425.074c0,0,5.475,11.246,20.178,3.766c3.919-2.4,3.889-2.449,5.839-4.834
								c0,0-0.509,6.398-1.592,7.041c0,0,4.524-6.098,1.903-14.927l-2.807-3.3c0,0-2.418-4.334-4.641-6.178
								c0,0,9.059,13.469-2.132,13.023c0,0,4.398-2.74,2.027-6.955c-0.773-1.461-2.081-3.771-5.283-1.098
								c0,0-2.186-1.775-2.087-1.534c0.098,0.241,0.705-2.587,1.208-3.679c0,0-2.23,2.142-2.147,3.68c0,0-4.615-0.406-4.441,3.355
								c0.979-0.574-5.954,2.872-2.147,7.273c0,0,1.986,5.252,4.319,7.047c1.9,1.459-6.62-5.16-6.874-6.73
								c0,0,4.272,8.041,7.851,9.149C333.479,430.175,327.144,427.782,324.306,425.074z"/>
							<path fill="#D16FAC" d="M336.495,419.343c0,0-7.47-2.873-4.093-7.151c0,0,1.858-2.049,4.268,0.596
								C336.67,412.788,335.033,417.72,336.495,419.343z"/>
							<path fill="#D16FAC" d="M337.462,412.424c0,0-0.861-1.809-1.724-1.947c0,0-0.035-7.744,6.757-4.889
								c0,0,9.03,12.179,1.546,13.758c0,0-2.285,0.73-3.015-0.081c0,0,4.888-2.858,1.6-7.35
								C342.627,411.915,341.093,409.436,337.462,412.424z"/>
							<path fill="#D16FAC" d="M330.441,415.65c0,0,3.65,6.392,9.556,5.388c0,0-10.059,2.694-11.425-3.028
								C328.573,418.01,329.186,415.93,330.441,415.65z"/>
							<path fill="#D16FAC" d="M339.337,415.426c0,0,1.397,1.825,1.179,2.928c0,0,2.401-0.726,1.209-3.018
								C341.726,415.336,340.772,414.018,339.337,415.426z"/>
							<path fill="#D16FAC" d="M337.923,415.89c0,0,3.571,3.795-0.14,3.736c0,0-2.505-6.614,2.555-7.783c0,0,1.599-0.267,2.28,2.373
								C342.617,414.217,338.061,412.156,337.923,415.89z"/>
							<path fill="#D16FAC" d="M329.485,421.607c0,0,0.184,0.308,0.497,0.803c1.371,2.174,5.266,7.963,7.568,7.484
								c0,0,11.19-3.137,12.343-8.111c0,0,1.018-5.309-2.001-6.805c0,0,0.545,6.49-8.944,7.537
								C338.947,422.515,332.386,423.471,329.485,421.607z"/>
							<path fill="#D16FAC" d="M343.26,406.567l2.475,3.635c0,0,7.732,1.62,11.036,10.141
								C356.771,420.343,359.215,406.457,343.26,406.567z"/>
							<path fill="#D16FAC" d="M344.657,406.43c0,0,11.941-0.759,11.724,14.681C356.381,421.11,360.971,406.671,344.657,406.43z"/>
							<path fill="#FAD0DF" d="M356.947,421.427c0,0,1.169-14.933-12.732-14.85l0,0c0,0,8.918-1.396,12.555,13.766L356.947,421.427z
								"/>
							<path fill="#D16FAC" d="M324.263,424.969c0,0,1.268,12.464,11.449,12.081c0,0,10.383-0.041,13.109-6.027
								c0,0,2.078-5.258,0.924-7.449c0,0-5.265,8.251-17.757,7.567C331.988,431.141,326.212,429.806,324.263,424.969z"/>
							<path fill="#D16FAC" d="M345.735,410.201l1.15,1.821c0,0,5.844,5.004,4.227,10.276c0,0-0.922,7.938-2.939,8.979
								c0,0,10.759-0.244,8.597-10.935C356.771,420.343,352.584,409.118,345.735,410.201z"/>
						</g>
					</g>
					<g>
						<path fill="#40AA48" d="M455.222,418.211c0,0,12.045-10.402,21.232,0.721C476.454,418.931,468.974,427.522,455.222,418.211z"
							/>
						<path fill="#40AA48" d="M438.421,388.027c0,0,14.911-4.469,19.234,9.628C457.655,397.655,447.603,402.385,438.421,388.027z"/>
						<g>
							<path fill="#E46996" d="M468.388,384.814c1.492,1.154-9.719-8.2-15.35,2.721c0,0-1.592,4.496,2.312,13.916
								c0,0-2.956-15.66,5.18-14.397c0,0,1.915-2.41,5.091-0.301C465.62,386.754,469.559,384.948,468.388,384.814z"/>
							<path fill="#E46996" stroke="#FAD0DF" stroke-miterlimit="10" d="M452.818,388.508c0,0-0.187,10.363,1.886,12.609
								c0,0-4.184-5.524-4.428-9.791C450.276,391.326,451.235,388.665,452.818,388.508z"/>
							<path fill="#FAD0DF" d="M450.121,392.121c0,0-1.485,11.925,13.76,14.67c4.271,0.416,4.271,0.357,7.002-0.36
								c0,0-3.658,4.677-4.828,4.544c0,0,6.625-2.103,9.093-10.49l-0.499-4.197c0,0,0.335-4.775-0.452-7.502
								c0,0,0.166,15.738-8.301,8.88c0,0,4.816,0.429,5.124-4.225c0.144-1.586,0.31-4.143-3.545-3.929c0,0-0.791-2.65-0.839-2.405
								c-0.049,0.243,1.869-1.597,2.814-2.157c0,0-2.826,0.369-3.546,1.611c0,0-3.38-3.002-5.163,0.021
								c1.052,0.127-6.095-1.231-5.38,4.404c0,0-1.138,5.235-0.24,7.99c0.731,2.236-2.51-7.862-1.907-9.233
								c0,0-0.781,8.737,1.432,11.679C454.647,401.422,450.944,395.879,450.121,392.121z"/>
							<path fill="#E46996" d="M462.52,394.761c0,0-4.341-6.578,0.467-7.937c0,0,2.49-0.511,3.013,2.944
								C465.999,389.769,462.211,392.651,462.52,394.761z"/>
							<path fill="#E46996" d="M466.802,389.946c0,0,0.249-1.905-0.346-2.515c0,0,3.924-6.037,7.741,0.133
								c0,0,0.805,14.721-5.814,11.592c0,0-2.149-0.762-2.305-1.817c0,0,5.259,0.624,4.995-4.78
								C471.073,392.558,471.144,389.738,466.802,389.946z"/>
							<path fill="#E46996" d="M459.696,388.369c0,0-0.424,7.093,4.676,9.75c0,0-9.187-3.762-7.332-9.002
								C457.04,389.116,458.578,387.858,459.696,388.369z"/>
							<path fill="#E46996" d="M466.724,393.371c0,0,0.155,2.231-0.577,2.962c0,0,2.236,0.837,2.479-1.64
								C468.626,394.693,468.558,393.113,466.724,393.371z"/>
							<path fill="#E46996" d="M465.388,392.911c0,0,0.839,5.026-2.016,2.821c0,0,1.429-6.596,5.956-4.564
								c0,0,1.379,0.726,0.56,3.172C469.888,394.34,467.4,390.088,465.388,392.911z"/>
							<path fill="#E46996" d="M455.915,392.442c0,0-0.016,0.345-0.024,0.915c-0.044,2.483,0.029,9.251,2.061,10.22
								c0,0,10.298,4.073,13.732,0.877c0,0,3.499-3.532,1.915-6.452c0,0-2.891,5.359-10.796,0.652
								C462.803,398.655,457.219,395.58,455.915,392.442z"/>
							<path fill="#E46996" d="M474.292,388.771l0.07,4.262c0,0,5.18,5.762,3.398,14.301
								C477.761,407.334,486.745,397.969,474.292,388.771z"/>
							<path fill="#E46996" d="M475.45,389.476c0,0,9.662,6.359,1.617,18.23C477.067,407.707,488.001,399.158,475.45,389.476z"/>
							<path fill="#FAD0DF" d="M477.347,408.285c0,0,8.528-10.924-2.316-18.949l0,0c0,0,7.641,4.104,2.731,17.998L477.347,408.285z"
								/>
							<path fill="#E46996" d="M450.142,392.015c0,0-5.375,10.422,2.735,16.053c0,0,8.089,6.009,13.259,2.943
								c0,0,4.295-2.876,4.521-5.254c0,0-8.303,3.35-17.663-4.451C452.994,401.306,449.188,396.91,450.142,392.015z"/>
							<path fill="#E46996" d="M474.362,393.033l-0.036,2.085c0,0,1.985,7.289-1.958,10.446c0,0-4.768,5.628-6.865,5.268
								c0,0,8.483,6.069,12.256-3.498C477.761,407.334,480.237,396.179,474.362,393.033z"/>
						</g>
						<g>
							<path fill="#D16FAC" d="M439.743,400.863c1.939,0.03-13.032-0.795-11.701,12.266c0,0,1.171,4.908,9.875,10.51
								c0,0-11.422-11.596-3.688-15.762c0,0,0.291-3.32,4.224-3.551C438.453,404.325,440.824,400.222,439.743,400.863z"/>
							<path fill="#D16FAC" d="M428.4,414.107c0,0,5.711,9.059,8.773,9.66c0,0-6.741-2.062-9.369-5.588
								C427.805,418.179,427.126,415.267,428.4,414.107z"/>
							<path fill="#FAD0DF" d="M428.122,418.969c0,0,5.474,11.245,20.182,3.766c3.918-2.4,3.886-2.451,5.836-4.834
								c0,0-0.508,6.398-1.592,7.038c0,0,4.525-6.094,1.902-14.923l-2.808-3.298c0,0-2.417-4.337-4.641-6.181
								c0,0,9.059,13.468-2.129,13.022c0,0,4.397-2.739,2.026-6.955c-0.774-1.46-2.082-3.77-5.286-1.099
								c0,0-2.182-1.775-2.086-1.533c0.1,0.24,0.707-2.587,1.21-3.676c0,0-2.23,2.141-2.148,3.677c0,0-4.615-0.405-4.443,3.354
								c0.98-0.574-5.951,2.875-2.145,7.277c0,0,1.984,5.248,4.319,7.045c1.9,1.456-6.618-5.159-6.877-6.732
								c0,0,4.276,8.041,7.851,9.15C437.294,424.07,430.959,421.677,428.122,418.969z"/>
							<path fill="#D16FAC" d="M440.312,413.237c0,0-7.469-2.874-4.093-7.151c0,0,1.86-2.049,4.268,0.594
								C440.486,406.679,438.853,411.615,440.312,413.237z"/>
							<path fill="#D16FAC" d="M441.28,406.315c0,0-0.863-1.805-1.725-1.944c0,0-0.036-7.744,6.755-4.888
								c0,0,9.033,12.179,1.546,13.756c0,0-2.282,0.732-3.014-0.079c0,0,4.89-2.861,1.6-7.351
								C446.442,405.809,444.909,403.332,441.28,406.315z"/>
							<path fill="#D16FAC" d="M434.258,409.546c0,0,3.648,6.39,9.555,5.388c0,0-10.058,2.689-11.425-3.031
								C432.389,411.904,432.999,409.824,434.258,409.546z"/>
							<path fill="#D16FAC" d="M443.152,409.318c0,0,1.397,1.826,1.182,2.928c0,0,2.401-0.725,1.209-3.016
								C445.543,409.231,444.59,407.913,443.152,409.318z"/>
							<path fill="#D16FAC" d="M441.74,409.785c0,0,3.57,3.797-0.14,3.738c0,0-2.506-6.615,2.553-7.787c0,0,1.6-0.266,2.279,2.375
								C446.433,408.111,441.878,406.05,441.74,409.785z"/>
							<path fill="#D16FAC" d="M433.303,415.501c0,0,0.183,0.308,0.496,0.805c1.367,2.173,5.266,7.963,7.569,7.483
								c0,0,11.189-3.135,12.343-8.111c0,0,1.017-5.312-2.004-6.805c0,0,0.545,6.49-8.941,7.537
								C442.766,416.412,436.203,417.367,433.303,415.501z"/>
							<path fill="#D16FAC" d="M447.073,400.463l2.477,3.633c0,0,7.734,1.625,11.036,10.14
								C460.586,414.234,463.03,400.352,447.073,400.463z"/>
							<path fill="#D16FAC" d="M448.473,400.326c0,0,11.938-0.761,11.725,14.68C460.197,415.006,464.786,400.568,448.473,400.326z"
								/>
							<path fill="#FAD0DF" d="M460.764,415.322c0,0,1.168-14.934-12.731-14.849l0,0c0,0,8.914-1.399,12.554,13.761L460.764,415.322
								z"/>
							<path fill="#D16FAC" d="M428.079,418.862c0,0,1.27,12.464,11.449,12.081c0,0,10.384-0.041,13.109-6.027
								c0,0,2.077-5.257,0.924-7.451c0,0-5.265,8.253-17.757,7.57C435.804,425.035,430.03,423.701,428.079,418.862z"/>
							<path fill="#D16FAC" d="M449.55,404.094l1.15,1.822c0,0,5.843,5.006,4.228,10.278c0,0-0.923,7.936-2.938,8.976
								c0,0,10.759-0.242,8.597-10.935C460.586,414.234,456.4,403.011,449.55,404.094z"/>
						</g>
					</g>
					<g>
						<path fill="#40AA48" d="M402.457,454.969c0,0,12.042-10.4,21.234,0.721C423.691,455.689,416.209,464.28,402.457,454.969z"/>
						<path fill="#40AA48" d="M385.654,424.784c0,0,14.914-4.466,19.234,9.63C404.889,434.414,394.836,439.146,385.654,424.784z"/>
						<g>
							<path fill="#E46996" d="M415.623,421.572c1.492,1.154-9.721-8.198-15.352,2.721c0,0-1.591,4.498,2.311,13.915
								c0,0-2.956-15.656,5.18-14.391c0,0,1.917-2.413,5.092-0.306C412.854,423.511,416.791,421.705,415.623,421.572z"/>
							<path fill="#E46996" stroke="#FAD0DF" stroke-miterlimit="10" d="M400.053,425.267c0,0-0.188,10.362,1.888,12.607
								c0,0-4.185-5.524-4.431-9.79C397.51,428.085,398.467,425.424,400.053,425.267z"/>
							<path fill="#FAD0DF" d="M397.355,428.879c0,0-1.485,11.924,13.758,14.67c4.271,0.417,4.271,0.359,7.004-0.359
								c0,0-3.66,4.677-4.827,4.545c0,0,6.624-2.104,9.091-10.49l-0.498-4.197c0,0,0.336-4.775-0.451-7.504
								c0,0,0.166,15.738-8.301,8.879c0,0,4.814,0.433,5.123-4.221c0.144-1.586,0.311-4.143-3.546-3.93c0,0-0.792-2.65-0.841-2.405
								c-0.045,0.243,1.873-1.601,2.816-2.157c0,0-2.826,0.368-3.545,1.611c0,0-3.381-3.002-5.165,0.021
								c1.057,0.123-6.093-1.233-5.379,4.402c0,0-1.138,5.236-0.239,7.989c0.732,2.239-2.513-7.86-1.908-9.229
								c0,0-0.783,8.736,1.432,11.678C401.879,438.181,398.178,432.636,397.355,428.879z"/>
							<path fill="#E46996" d="M409.75,431.52c0,0-4.339-6.578,0.47-7.938c0,0,2.49-0.513,3.012,2.944
								C413.231,426.527,409.443,429.409,409.75,431.52z"/>
							<path fill="#E46996" d="M414.034,426.705c0,0,0.251-1.905-0.348-2.516c0,0,3.925-6.036,7.745,0.135
								c0,0,0.803,14.721-5.818,11.593c0,0-2.147-0.763-2.3-1.817c0,0,5.259,0.623,4.993-4.783
								C418.307,429.316,418.377,426.499,414.034,426.705z"/>
							<path fill="#E46996" d="M406.93,425.128c0,0-0.424,7.091,4.678,9.747c0,0-9.189-3.762-7.335-9
								C404.273,425.875,405.812,424.615,406.93,425.128z"/>
							<path fill="#E46996" d="M413.958,430.131c0,0,0.154,2.232-0.579,2.96c0,0,2.237,0.835,2.481-1.642
								C415.86,431.449,415.793,429.875,413.958,430.131z"/>
							<path fill="#E46996" d="M412.62,429.67c0,0,0.839,5.027-2.014,2.82c0,0,1.427-6.596,5.955-4.564c0,0,1.379,0.726,0.563,3.175
								C417.123,431.101,414.635,426.846,412.62,429.67z"/>
							<path fill="#E46996" d="M403.147,429.2c0,0-0.015,0.346-0.021,0.916c-0.045,2.482,0.027,9.25,2.059,10.218
								c0,0,10.297,4.074,13.732,0.879c0,0,3.498-3.533,1.915-6.451c0,0-2.893,5.356-10.795,0.652
								C410.037,435.414,404.45,432.338,403.147,429.2z"/>
							<path fill="#E46996" d="M421.526,425.527l0.069,4.268c0,0,5.179,5.761,3.399,14.299
								C424.995,444.094,433.981,434.73,421.526,425.527z"/>
							<path fill="#E46996" d="M422.682,426.234c0,0,9.665,6.359,1.617,18.231C424.299,444.467,435.232,435.917,422.682,426.234z"/>
							<path fill="#FAD0DF" d="M424.58,445.043c0,0,8.526-10.924-2.314-18.948l0,0c0,0,7.639,4.102,2.729,17.999L424.58,445.043z"/>
							<path fill="#E46996" d="M397.375,428.775c0,0-5.375,10.424,2.733,16.051c0,0,8.091,6.008,13.263,2.944
								c0,0,4.296-2.875,4.518-5.254c0,0-8.299,3.351-17.658-4.45C400.23,438.066,396.422,433.669,397.375,428.775z"/>
							<path fill="#E46996" d="M421.596,429.795l-0.035,2.085c0,0,1.985,7.284-1.959,10.443c0,0-4.768,5.628-6.866,5.267
								c0,0,8.484,6.07,12.258-3.496C424.995,444.094,427.471,432.936,421.596,429.795z"/>
						</g>
						<g>
							<path fill="#D16FAC" d="M386.976,437.621c1.94,0.03-13.032-0.793-11.702,12.264c0,0,1.175,4.908,9.877,10.514
								c0,0-11.422-11.598-3.687-15.764c0,0,0.288-3.32,4.223-3.552C385.687,441.082,388.059,436.981,386.976,437.621z"/>
							<path fill="#D16FAC" d="M375.635,450.864c0,0,5.713,9.062,8.77,9.662c0,0-6.735-2.063-9.366-5.587
								C375.038,454.939,374.36,452.026,375.635,450.864z"/>
							<path fill="#FAD0DF" d="M375.357,455.726c0,0,5.474,11.246,20.179,3.764c3.919-2.398,3.888-2.451,5.839-4.834
								c0,0-0.51,6.399-1.596,7.041c0,0,4.525-6.097,1.902-14.926l-2.805-3.299c0,0-2.418-4.332-4.641-6.18
								c0,0,9.057,13.471-2.133,13.023c0,0,4.4-2.739,2.027-6.954c-0.773-1.46-2.08-3.771-5.282-1.097c0,0-2.187-1.778-2.086-1.535
								c0.097,0.241,0.705-2.588,1.205-3.677c0,0-2.229,2.14-2.147,3.679c0,0-4.612-0.406-4.439,3.352
								c0.979-0.572-5.955,2.874-2.146,7.278c0,0,1.985,5.251,4.317,7.045c1.899,1.459-6.617-5.161-6.874-6.73
								c0,0,4.272,8.042,7.85,9.149C384.527,460.826,378.193,458.433,375.357,455.726z"/>
							<path fill="#D16FAC" d="M387.543,449.995c0,0-7.468-2.871-4.09-7.151c0,0,1.855-2.05,4.267,0.594
								C387.72,443.439,386.083,448.373,387.543,449.995z"/>
							<path fill="#D16FAC" d="M388.513,443.074c0,0-0.864-1.806-1.724-1.945c0,0-0.038-7.744,6.755-4.888
								c0,0,9.033,12.179,1.546,13.759c0,0-2.283,0.729-3.014-0.082c0,0,4.888-2.858,1.6-7.351
								C393.678,442.568,392.143,440.09,388.513,443.074z"/>
							<path fill="#D16FAC" d="M381.49,446.303c0,0,3.651,6.391,9.556,5.388c0,0-10.058,2.691-11.424-3.028
								C379.62,448.663,380.234,446.584,381.49,446.303z"/>
							<path fill="#D16FAC" d="M390.387,446.078c0,0,1.398,1.824,1.178,2.93c0,0,2.405-0.727,1.212-3.02
								C392.776,445.988,391.823,444.672,390.387,446.078z"/>
							<path fill="#D16FAC" d="M388.971,446.543c0,0,3.574,3.797-0.136,3.736c0,0-2.507-6.613,2.55-7.783
								c0,0,1.603-0.269,2.283,2.374C393.666,444.87,389.11,442.807,388.971,446.543z"/>
							<path fill="#D16FAC" d="M380.535,452.26c0,0,0.182,0.309,0.495,0.805c1.368,2.169,5.269,7.961,7.569,7.484
								c0,0,11.189-3.137,12.344-8.113c0,0,1.016-5.309-2.001-6.805c0,0,0.542,6.491-8.945,7.537
								C389.997,453.169,383.437,454.125,380.535,452.26z"/>
							<path fill="#D16FAC" d="M394.309,437.22l2.477,3.633c0,0,7.73,1.623,11.033,10.143
								C407.816,450.996,410.266,437.109,394.309,437.22z"/>
							<path fill="#D16FAC" d="M395.706,437.082c0,0,11.94-0.758,11.722,14.682C407.428,451.763,412.02,437.324,395.706,437.082z"/>
							<path fill="#FAD0DF" d="M407.997,452.081c0,0,1.168-14.933-12.733-14.849l0,0c0,0,8.916-1.398,12.553,13.764L407.997,452.081
								z"/>
							<path fill="#D16FAC" d="M375.312,455.62c0,0,1.266,12.464,11.45,12.083c0,0,10.383-0.043,13.106-6.027
								c0,0,2.08-5.258,0.924-7.453c0,0-5.263,8.254-17.756,7.572C383.037,461.795,377.264,460.459,375.312,455.62z"/>
							<path fill="#D16FAC" d="M396.785,440.851l1.147,1.824c0,0,5.843,5.002,4.229,10.275c0,0-0.925,7.937-2.939,8.979
								c0,0,10.758-0.244,8.594-10.935C407.816,450.996,403.633,439.77,396.785,440.851z"/>
						</g>
					</g>
					<path fill="#40AA48" d="M474.995,577.54c0,0,12.044-10.4,21.234,0.719C496.229,578.259,488.747,586.85,474.995,577.54z"/>
					<path fill="#40AA48" d="M458.193,547.356c0,0,14.914-4.467,19.235,9.629C477.429,556.985,467.377,561.718,458.193,547.356z"/>
					<g>
						<path fill="#E46996" d="M488.161,544.145c1.493,1.154-9.72-8.201-15.351,2.719c0,0-1.592,4.5,2.312,13.916
							c0,0-2.957-15.656,5.179-14.393c0,0,1.919-2.412,5.094-0.305C485.395,546.083,489.332,544.278,488.161,544.145z"/>
						<path fill="#E46996" stroke="#FAD0DF" stroke-miterlimit="10" d="M472.593,547.839c0,0-0.186,10.361,1.886,12.609
							c0,0-4.184-5.525-4.429-9.795C470.05,550.655,471.007,547.997,472.593,547.839z"/>
						<path fill="#FAD0DF" d="M469.895,551.452c0,0-1.484,11.924,13.761,14.67c4.271,0.414,4.271,0.355,7.003-0.361
							c0,0-3.661,4.678-4.83,4.545c0,0,6.626-2.104,9.093-10.49l-0.496-4.197c0,0,0.332-4.777-0.455-7.502
							c0,0,0.166,15.736-8.301,8.883c0,0,4.819,0.428,5.124-4.225c0.146-1.59,0.311-4.145-3.544-3.932c0,0-0.792-2.65-0.84-2.404
							c-0.048,0.244,1.869-1.6,2.813-2.158c0,0-2.823,0.369-3.545,1.611c0,0-3.377-3-5.163,0.021
							c1.054,0.125-6.095-1.232-5.381,4.402c0,0-1.137,5.236-0.24,7.99c0.733,2.238-2.51-7.861-1.907-9.23
							c0,0-0.782,8.736,1.434,11.68C474.421,560.753,470.716,555.208,469.895,551.452z"/>
						<path fill="#E46996" d="M482.291,554.093c0,0-4.339-6.58,0.469-7.938c0,0,2.49-0.512,3.014,2.943
							C485.773,549.098,481.983,551.981,482.291,554.093z"/>
						<path fill="#E46996" d="M486.573,549.276c0,0,0.253-1.904-0.347-2.514c0,0,3.925-6.039,7.743,0.133
							c0,0,0.805,14.721-5.817,11.592c0,0-2.146-0.762-2.299-1.816c0,0,5.259,0.621,4.994-4.779
							C490.848,551.889,490.919,549.071,486.573,549.276z"/>
						<path fill="#E46996" d="M479.471,547.702c0,0-0.424,7.086,4.676,9.748c0,0-9.188-3.764-7.332-9.004
							C476.814,548.446,478.351,547.186,479.471,547.702z"/>
						<path fill="#E46996" d="M486.497,552.7c0,0,0.156,2.232-0.577,2.963c0,0,2.238,0.834,2.479-1.641
							C488.399,554.02,488.333,552.446,486.497,552.7z"/>
						<path fill="#E46996" d="M485.16,552.239c0,0,0.84,5.029-2.015,2.826c0,0,1.43-6.6,5.956-4.568c0,0,1.38,0.727,0.562,3.174
							C489.663,553.671,487.175,549.417,485.16,552.239z"/>
						<path fill="#E46996" d="M475.69,551.772c0,0-0.016,0.346-0.024,0.914c-0.045,2.484,0.028,9.252,2.061,10.221
							c0,0,10.296,4.072,13.729,0.877c0,0,3.501-3.533,1.918-6.451c0,0-2.892,5.357-10.796,0.652
							C482.577,557.985,476.991,554.907,475.69,551.772z"/>
						<path fill="#E46996" d="M494.065,548.1l0.07,4.266c0,0,5.181,5.76,3.399,14.301C497.536,566.667,506.521,557.3,494.065,548.1z
							"/>
						<path fill="#E46996" d="M495.223,548.807c0,0,9.664,6.357,1.616,18.23C496.839,567.038,507.775,558.487,495.223,548.807z"/>
						<path fill="#FAD0DF" d="M497.119,567.614c0,0,8.526-10.926-2.315-18.947l0,0c0,0,7.64,4.104,2.731,18L497.119,567.614z"/>
						<path fill="#E46996" d="M469.916,551.343c0,0-5.377,10.426,2.731,16.055c0,0,8.089,6.01,13.262,2.947
							c0,0,4.297-2.879,4.521-5.256c0,0-8.302,3.35-17.661-4.453C472.769,560.635,468.962,556.239,469.916,551.343z"/>
						<path fill="#E46996" d="M494.137,552.366l-0.038,2.084c0,0,1.987,7.289-1.958,10.445c0,0-4.768,5.627-6.865,5.264
							c0,0,8.485,6.074,12.26-3.492C497.536,566.667,500.011,555.51,494.137,552.366z"/>
					</g>
					<g>
						<path fill="#D16FAC" d="M459.516,560.192c1.94,0.031-13.031-0.795-11.703,12.264c0,0,1.173,4.912,9.878,10.514
							c0,0-11.422-11.6-3.688-15.762c0,0,0.29-3.32,4.225-3.553C458.227,563.655,460.601,559.552,459.516,560.192z"/>
						<path fill="#D16FAC" d="M448.178,573.438c0,0,5.707,9.059,8.768,9.66c0,0-6.737-2.064-9.37-5.586
							C447.575,577.512,446.899,574.598,448.178,573.438z"/>
						<path fill="#FAD0DF" d="M447.895,578.298c0,0,5.478,11.248,20.179,3.768c3.922-2.402,3.89-2.453,5.839-4.838
							c0,0-0.508,6.4-1.59,7.041c0,0,4.523-6.094,1.902-14.924l-2.808-3.301c0,0-2.419-4.334-4.642-6.18
							c0,0,9.058,13.471-2.129,13.025c0,0,4.398-2.74,2.024-6.953c-0.772-1.463-2.081-3.773-5.282-1.102
							c0,0-2.188-1.773-2.087-1.531c0.098,0.24,0.707-2.588,1.206-3.678c0,0-2.229,2.141-2.145,3.678c0,0-4.615-0.404-4.444,3.354
							c0.98-0.572-5.955,2.875-2.146,7.275c0,0,1.985,5.252,4.318,7.049c1.901,1.457-6.618-5.162-6.876-6.732
							c0,0,4.274,8.041,7.851,9.148C457.066,583.397,450.733,581.007,447.895,578.298z"/>
						<path fill="#D16FAC" d="M460.084,572.565c0,0-7.471-2.871-4.09-7.15c0,0,1.854-2.049,4.264,0.596
							C460.258,566.012,458.623,570.946,460.084,572.565z"/>
						<path fill="#D16FAC" d="M461.054,565.647c0,0-0.862-1.807-1.725-1.947c0,0-0.035-7.744,6.754-4.887
							c0,0,9.032,12.178,1.546,13.758c0,0-2.281,0.729-3.012-0.082c0,0,4.889-2.859,1.602-7.352
							C466.219,565.139,464.683,562.663,461.054,565.647z"/>
						<path fill="#D16FAC" d="M454.031,568.876c0,0,3.649,6.387,9.556,5.385c0,0-10.058,2.693-11.426-3.027
							C452.161,571.233,452.774,569.155,454.031,568.876z"/>
						<path fill="#D16FAC" d="M462.927,568.651c0,0,1.396,1.824,1.18,2.926c0,0,2.4-0.725,1.21-3.018
							C465.316,568.559,464.363,567.243,462.927,568.651z"/>
						<path fill="#D16FAC" d="M461.511,569.114c0,0,3.573,3.795-0.138,3.736c0,0-2.505-6.613,2.554-7.785
							c0,0,1.601-0.266,2.28,2.375C466.207,567.44,461.65,565.38,461.511,569.114z"/>
						<path fill="#D16FAC" d="M453.076,574.831c0,0,0.18,0.307,0.497,0.807c1.367,2.17,5.264,7.961,7.567,7.484
							c0,0,11.191-3.141,12.344-8.113c0,0,1.018-5.311-2.003-6.807c0,0,0.544,6.492-8.944,7.539
							C462.536,575.741,455.976,576.696,453.076,574.831z"/>
						<path fill="#D16FAC" d="M466.849,559.792l2.474,3.633c0,0,7.737,1.625,11.038,10.143
							C480.359,573.567,482.806,559.682,466.849,559.792z"/>
						<path fill="#D16FAC" d="M468.246,559.655c0,0,11.94-0.76,11.723,14.684C479.969,574.339,484.562,559.895,468.246,559.655z"/>
						<path fill="#FAD0DF" d="M480.537,574.651c0,0,1.171-14.932-12.731-14.848l0,0c0,0,8.917-1.396,12.554,13.764L480.537,574.651z
							"/>
						<path fill="#D16FAC" d="M447.854,578.192c0,0,1.267,12.465,11.448,12.084c0,0,10.385-0.045,13.108-6.029
							c0,0,2.078-5.258,0.923-7.449c0,0-5.264,8.252-17.757,7.566C455.577,584.364,449.803,583.03,447.854,578.192z"/>
						<path fill="#D16FAC" d="M469.322,563.425l1.15,1.822c0,0,5.844,5.002,4.229,10.275c0,0-0.921,7.938-2.939,8.977
							c0,0,10.761-0.244,8.598-10.934C480.359,573.567,476.175,562.341,469.322,563.425z"/>
					</g>
					<g>
						<path fill="#40AA48" d="M331.088,505.766c0,0,12.042-10.403,21.234,0.719C352.322,506.485,344.84,515.077,331.088,505.766z"/>
						<path fill="#40AA48" d="M314.284,475.58c0,0,14.915-4.468,19.238,9.629C333.522,485.209,323.466,489.941,314.284,475.58z"/>
						<g>
							<path fill="#E46996" d="M344.254,472.368c1.493,1.154-9.719-8.2-15.351,2.72c0,0-1.591,4.498,2.31,13.916
								c0,0-2.957-15.658,5.18-14.394c0,0,1.917-2.411,5.093-0.302C341.486,474.308,345.423,472.502,344.254,472.368z"/>
							<path fill="#E46996" stroke="#FAD0DF" stroke-miterlimit="10" d="M328.683,476.062c0,0-0.185,10.361,1.885,12.609
								c0,0-4.18-5.525-4.425-9.792C326.141,478.88,327.099,476.22,328.683,476.062z"/>
							<path fill="#FAD0DF" d="M325.986,479.677c0,0-1.486,11.924,13.757,14.669c4.272,0.416,4.274,0.357,7.004-0.36
								c0,0-3.659,4.675-4.83,4.545c0,0,6.626-2.104,9.095-10.489l-0.498-4.197c0,0,0.331-4.775-0.454-7.503
								c0,0,0.165,15.736-8.302,8.879c0,0,4.816,0.431,5.125-4.223c0.143-1.585,0.309-4.142-3.547-3.929
								c0,0-0.788-2.651-0.837-2.406c-0.046,0.244,1.87-1.6,2.815-2.155c0,0-2.827,0.368-3.546,1.61c0,0-3.378-3.002-5.162,0.021
								c1.053,0.125-6.092-1.234-5.383,4.403c0,0-1.136,5.236-0.239,7.989c0.733,2.238-2.51-7.861-1.909-9.231
								c0,0-0.779,8.737,1.433,11.679C330.511,488.978,326.811,483.432,325.986,479.677z"/>
							<path fill="#E46996" d="M338.381,482.316c0,0-4.336-6.578,0.471-7.938c0,0,2.489-0.513,3.012,2.944
								C341.863,477.322,338.077,480.205,338.381,482.316z"/>
							<path fill="#E46996" d="M342.666,477.501c0,0,0.25-1.905-0.347-2.517c0,0,3.924-6.035,7.744,0.134
								c0,0,0.804,14.72-5.819,11.594c0,0-2.146-0.763-2.298-1.817c0,0,5.255,0.622,4.992-4.779
								C346.937,480.113,347.008,477.294,342.666,477.501z"/>
							<path fill="#E46996" d="M335.562,475.926c0,0-0.425,7.09,4.676,9.745c0,0-9.188-3.759-7.333-9
								C332.905,476.671,334.442,475.41,335.562,475.926z"/>
							<path fill="#E46996" d="M342.589,480.927c0,0,0.154,2.23-0.577,2.96c0,0,2.236,0.834,2.48-1.639
								C344.492,482.248,344.423,480.668,342.589,480.927z"/>
							<path fill="#E46996" d="M341.252,480.463c0,0,0.838,5.03-2.015,2.823c0,0,1.429-6.597,5.956-4.563
								c0,0,1.379,0.725,0.562,3.174C345.755,481.896,343.267,477.644,341.252,480.463z"/>
							<path fill="#E46996" d="M331.78,479.996c0,0-0.016,0.346-0.023,0.914c-0.044,2.484,0.028,9.251,2.062,10.223
								c0,0,10.295,4.071,13.729,0.875c0,0,3.5-3.531,1.917-6.451c0,0-2.892,5.359-10.796,0.652
								C338.668,486.209,333.083,483.134,331.78,479.996z"/>
							<path fill="#E46996" d="M350.156,476.324l0.071,4.264c0,0,5.18,5.764,3.398,14.301
								C353.625,494.888,362.612,485.524,350.156,476.324z"/>
							<path fill="#E46996" d="M351.312,477.031c0,0,9.666,6.358,1.617,18.231C352.93,495.262,363.865,486.712,351.312,477.031z"/>
							<path fill="#FAD0DF" d="M353.209,495.84c0,0,8.527-10.925-2.315-18.951l0,0c0,0,7.643,4.104,2.731,18L353.209,495.84z"/>
							<path fill="#E46996" d="M326.007,479.568c0,0-5.374,10.426,2.731,16.052c0,0,8.092,6.011,13.261,2.945
								c0,0,4.297-2.875,4.521-5.254c0,0-8.302,3.35-17.662-4.451C328.859,488.861,325.054,484.465,326.007,479.568z"/>
							<path fill="#E46996" d="M350.227,480.588l-0.036,2.086c0,0,1.988,7.287-1.961,10.444c0,0-4.765,5.629-6.862,5.268
								c0,0,8.483,6.068,12.257-3.498C353.625,494.888,356.102,483.734,350.227,480.588z"/>
						</g>
						<g>
							<path fill="#D16FAC" d="M315.605,488.418c1.942,0.029-13.03-0.796-11.702,12.264c0,0,1.176,4.907,9.878,10.513
								c0,0-11.42-11.6-3.686-15.765c0,0,0.288-3.32,4.222-3.553C314.317,491.877,316.691,487.774,315.605,488.418z"/>
							<path fill="#D16FAC" d="M304.266,501.662c0,0,5.711,9.062,8.771,9.661c0,0-6.74-2.064-9.369-5.588
								C303.668,505.735,302.989,502.823,304.266,501.662z"/>
							<path fill="#FAD0DF" d="M303.986,506.522c0,0,5.476,11.248,20.182,3.764c3.916-2.398,3.887-2.449,5.835-4.832
								c0,0-0.509,6.398-1.592,7.039c0,0,4.525-6.096,1.904-14.926l-2.809-3.3c0,0-2.416-4.334-4.639-6.178
								c0,0,9.059,13.469-2.13,13.024c0,0,4.396-2.742,2.024-6.957c-0.773-1.46-2.079-3.771-5.283-1.098
								c0,0-2.184-1.774-2.086-1.534c0.096,0.242,0.708-2.588,1.209-3.678c0,0-2.231,2.142-2.146,3.681c0,0-4.617-0.405-4.445,3.352
								c0.98-0.571-5.953,2.873-2.146,7.277c0,0,1.985,5.252,4.318,7.047c1.9,1.457-6.617-5.16-6.876-6.732
								c0,0,4.277,8.041,7.854,9.15C313.161,511.622,306.824,509.229,303.986,506.522z"/>
							<path fill="#D16FAC" d="M316.177,500.792c0,0-7.469-2.873-4.092-7.152c0,0,1.856-2.05,4.265,0.593
								C316.35,494.232,314.717,499.169,316.177,500.792z"/>
							<path fill="#D16FAC" d="M317.145,493.872c0,0-0.864-1.808-1.726-1.947c0,0-0.035-7.744,6.755-4.89
								c0,0,9.035,12.182,1.548,13.76c0,0-2.282,0.73-3.015-0.081c0,0,4.89-2.859,1.602-7.349
								C322.309,493.365,320.774,490.885,317.145,493.872z"/>
							<path fill="#D16FAC" d="M310.122,497.098c0,0,3.65,6.393,9.556,5.389c0,0-10.055,2.691-11.425-3.029
								C308.253,499.458,308.866,497.379,310.122,497.098z"/>
							<path fill="#D16FAC" d="M319.018,496.874c0,0,1.399,1.825,1.179,2.929c0,0,2.403-0.726,1.211-3.02
								C321.408,496.783,320.453,495.466,319.018,496.874z"/>
							<path fill="#D16FAC" d="M317.604,497.34c0,0,3.571,3.795-0.138,3.736c0,0-2.505-6.614,2.552-7.783
								c0,0,1.601-0.267,2.281,2.372C322.296,495.665,317.74,493.603,317.604,497.34z"/>
							<path fill="#D16FAC" d="M309.167,503.053c0,0,0.183,0.309,0.496,0.807c1.37,2.17,5.266,7.961,7.567,7.484
								c0,0,11.192-3.139,12.344-8.111c0,0,1.017-5.311-2.002-6.807c0,0,0.542,6.492-8.943,7.539
								C318.63,503.968,312.067,504.921,309.167,503.053z"/>
							<path fill="#D16FAC" d="M322.939,488.016l2.476,3.632c0,0,7.733,1.625,11.035,10.144
								C336.45,501.792,338.896,487.903,322.939,488.016z"/>
							<path fill="#D16FAC" d="M324.338,487.88c0,0,11.939-0.76,11.721,14.682C336.059,502.561,340.652,488.119,324.338,487.88z"/>
							<path fill="#FAD0DF" d="M336.628,502.876c0,0,1.169-14.932-12.73-14.851l0,0c0,0,8.915-1.396,12.553,13.767L336.628,502.876z
								"/>
							<path fill="#D16FAC" d="M303.946,506.417c0,0,1.265,12.463,11.447,12.082c0,0,10.385-0.041,13.109-6.027
								c0,0,2.078-5.258,0.924-7.453c0,0-5.264,8.252-17.756,7.57C311.67,512.589,305.896,511.255,303.946,506.417z"/>
							<path fill="#D16FAC" d="M325.414,491.648l1.15,1.823c0,0,5.843,5.004,4.228,10.275c0,0-0.923,7.936-2.938,8.98
								c0,0,10.757-0.244,8.596-10.936C336.45,501.792,332.266,490.566,325.414,491.648z"/>
						</g>
					</g>
					<g>
						<path fill="#40AA48" d="M398.73,614.907c0,0,12.043-10.4,21.232,0.719C419.964,615.626,412.482,624.218,398.73,614.907z"/>
						<path fill="#40AA48" d="M381.926,584.723c0,0,14.916-4.469,19.238,9.629C401.164,594.352,391.11,599.083,381.926,584.723z"/>
						<g>
							<path fill="#E46996" d="M411.896,581.51c1.492,1.152-9.723-8.201-15.35,2.721c0,0-1.594,4.498,2.309,13.916
								c0,0-2.957-15.66,5.179-14.395c0,0,1.917-2.41,5.093-0.305C409.127,583.448,413.065,581.643,411.896,581.51z"/>
							<path fill="#E46996" stroke="#FAD0DF" stroke-miterlimit="10" d="M396.326,585.204c0,0-0.188,10.363,1.885,12.609
								c0,0-4.182-5.523-4.427-9.793C393.783,588.02,394.741,585.364,396.326,585.204z"/>
							<path fill="#FAD0DF" d="M393.628,588.817c0,0-1.483,11.926,13.759,14.67c4.271,0.414,4.273,0.357,7.004-0.359
								c0,0-3.658,4.676-4.827,4.545c0,0,6.624-2.105,9.093-10.492l-0.497-4.197c0,0,0.329-4.775-0.455-7.502
								c0,0,0.165,15.736-8.302,8.879c0,0,4.816,0.43,5.125-4.223c0.143-1.586,0.307-4.141-3.546-3.932c0,0-0.792-2.65-0.839-2.404
								s1.868-1.6,2.814-2.154c0,0-2.825,0.365-3.545,1.607c0,0-3.38-3-5.162,0.021c1.053,0.127-6.096-1.232-5.383,4.406
								c0,0-1.137,5.234-0.24,7.988c0.733,2.238-2.508-7.861-1.906-9.23c0,0-0.781,8.734,1.432,11.678
								C398.154,598.118,394.453,592.573,393.628,588.817z"/>
							<path fill="#E46996" d="M406.024,591.456c0,0-4.338-6.576,0.47-7.936c0,0,2.488-0.512,3.011,2.943
								C409.505,586.462,405.717,589.348,406.024,591.456z"/>
							<path fill="#E46996" d="M410.308,586.643c0,0,0.253-1.906-0.349-2.516c0,0,3.924-6.039,7.745,0.131
								c0,0,0.804,14.723-5.817,11.594c0,0-2.146-0.762-2.299-1.818c0,0,5.254,0.625,4.991-4.779
								C414.579,589.255,414.65,586.436,410.308,586.643z"/>
							<path fill="#E46996" d="M403.204,585.065c0,0-0.425,7.092,4.677,9.748c0,0-9.19-3.762-7.332-9.002
								C400.549,585.811,402.084,584.552,403.204,585.065z"/>
							<path fill="#E46996" d="M410.232,590.067c0,0,0.153,2.23-0.578,2.961c0,0,2.236,0.834,2.48-1.641
								C412.135,591.389,412.065,589.809,410.232,590.067z"/>
							<path fill="#E46996" d="M408.896,589.606c0,0,0.84,5.027-2.015,2.822c0,0,1.427-6.596,5.955-4.564
								c0,0,1.38,0.727,0.561,3.172C413.398,591.036,410.908,586.784,408.896,589.606z"/>
							<path fill="#E46996" d="M399.423,589.139c0,0-0.017,0.346-0.024,0.912c-0.046,2.484,0.028,9.254,2.061,10.223
								c0,0,10.297,4.072,13.73,0.879c0,0,3.5-3.535,1.916-6.455c0,0-2.89,5.359-10.795,0.652
								C406.312,595.35,400.725,592.276,399.423,589.139z"/>
							<path fill="#E46996" d="M417.799,585.466l0.07,4.266c0,0,5.179,5.762,3.398,14.301
								C421.268,604.032,430.256,594.665,417.799,585.466z"/>
							<path fill="#E46996" d="M418.955,586.175c0,0,9.667,6.357,1.619,18.227C420.574,604.403,431.508,595.852,418.955,586.175z"/>
							<path fill="#FAD0DF" d="M420.854,604.979c0,0,8.528-10.926-2.314-18.947l0,0c0,0,7.641,4.104,2.729,18L420.854,604.979z"/>
							<path fill="#E46996" d="M393.65,588.71c0,0-5.376,10.424,2.73,16.053c0,0,8.09,6.01,13.261,2.943c0,0,4.298-2.877,4.52-5.252
								c0,0-8.301,3.35-17.661-4.451C396.501,598.003,392.695,593.606,393.65,588.71z"/>
							<path fill="#E46996" d="M417.868,589.729l-0.034,2.084c0,0,1.986,7.291-1.961,10.447c0,0-4.768,5.629-6.865,5.266
								c0,0,8.484,6.07,12.259-3.494C421.268,604.032,423.745,592.874,417.868,589.729z"/>
						</g>
						<g>
							<path fill="#D16FAC" d="M383.248,597.559c1.941,0.029-13.029-0.795-11.7,12.264c0,0,1.175,4.908,9.875,10.512
								c0,0-11.421-11.598-3.687-15.764c0,0,0.288-3.318,4.226-3.551C381.961,601.02,384.332,596.917,383.248,597.559z"/>
							<path fill="#D16FAC" d="M371.909,610.802c0,0,5.711,9.059,8.77,9.66c0,0-6.737-2.062-9.366-5.586
								C371.312,614.876,370.632,611.964,371.909,610.802z"/>
							<path fill="#FAD0DF" d="M371.629,615.663c0,0,5.477,11.246,20.181,3.766c3.919-2.4,3.888-2.451,5.836-4.834
								c0,0-0.507,6.398-1.591,7.039c0,0,4.524-6.096,1.903-14.924l-2.807-3.301c0,0-2.419-4.334-4.641-6.178
								c0,0,9.06,13.469-2.133,13.021c0,0,4.399-2.74,2.03-6.953c-0.775-1.461-2.082-3.771-5.288-1.1c0,0-2.181-1.775-2.084-1.533
								c0.097,0.244,0.706-2.588,1.206-3.678c0,0-2.229,2.143-2.146,3.682c0,0-4.616-0.408-4.442,3.352
								c0.981-0.572-5.955,2.873-2.146,7.275c0,0,1.984,5.25,4.316,7.045c1.902,1.459-6.615-5.158-6.873-6.73
								c0,0,4.274,8.041,7.852,9.152C380.803,620.764,374.467,618.372,371.629,615.663z"/>
							<path fill="#D16FAC" d="M383.817,609.93c0,0-7.469-2.871-4.092-7.148c0,0,1.858-2.051,4.267,0.594
								C383.993,603.376,382.357,608.309,383.817,609.93z"/>
							<path fill="#D16FAC" d="M384.787,603.012c0,0-0.864-1.809-1.727-1.945c0,0-0.034-7.746,6.757-4.889
								c0,0,9.033,12.18,1.548,13.756c0,0-2.283,0.73-3.014-0.08c0,0,4.889-2.859,1.599-7.35
								C389.95,602.505,388.414,600.028,384.787,603.012z"/>
							<path fill="#D16FAC" d="M377.766,606.241c0,0,3.646,6.391,9.554,5.389c0,0-10.056,2.691-11.424-3.031
								C375.896,608.598,376.508,606.52,377.766,606.241z"/>
							<path fill="#D16FAC" d="M386.66,606.016c0,0,1.397,1.826,1.18,2.928c0,0,2.404-0.725,1.211-3.018
								C389.051,605.927,388.095,604.61,386.66,606.016z"/>
							<path fill="#D16FAC" d="M385.246,606.481c0,0,3.572,3.795-0.138,3.738c0,0-2.507-6.617,2.551-7.787
								c0,0,1.601-0.268,2.282,2.377C389.94,604.807,385.383,602.745,385.246,606.481z"/>
							<path fill="#D16FAC" d="M376.81,612.196c0,0,0.181,0.309,0.495,0.805c1.37,2.172,5.267,7.961,7.57,7.484
								c0,0,11.189-3.137,12.342-8.113c0,0,1.02-5.311-2-6.805c0,0,0.543,6.492-8.944,7.539
								C386.271,613.106,379.709,614.061,376.81,612.196z"/>
							<path fill="#D16FAC" d="M390.582,597.155l2.477,3.637c0,0,7.731,1.623,11.033,10.141
								C404.094,610.932,406.538,597.046,390.582,597.155z"/>
							<path fill="#D16FAC" d="M391.981,597.02c0,0,11.94-0.76,11.72,14.682C403.702,611.7,408.294,597.26,391.981,597.02z"/>
							<path fill="#FAD0DF" d="M404.271,612.018c0,0,1.167-14.934-12.731-14.85l0,0c0,0,8.914-1.398,12.554,13.764L404.271,612.018z
								"/>
							<path fill="#D16FAC" d="M371.586,615.555c0,0,1.267,12.467,11.451,12.086c0,0,10.382-0.043,13.106-6.029
								c0,0,2.081-5.258,0.926-7.449c0,0-5.267,8.248-17.758,7.568C379.312,621.731,373.537,620.397,371.586,615.555z"/>
							<path fill="#D16FAC" d="M393.059,600.792l1.15,1.82c0,0,5.84,5.004,4.227,10.275c0,0-0.924,7.936-2.938,8.977
								c0,0,10.757-0.242,8.594-10.934C404.094,610.932,399.908,599.706,393.059,600.792z"/>
						</g>
					</g>
					<g>
						<path fill="#40AA48" d="M501.925,500.314c0,0,12.043-10.4,21.233,0.722C523.158,501.036,515.677,509.626,501.925,500.314z"/>
						<path fill="#40AA48" d="M485.121,470.13c0,0,14.914-4.466,19.235,9.629C504.356,479.759,494.304,484.492,485.121,470.13z"/>
						<g>
							<path fill="#E46996" d="M515.09,466.918c1.494,1.152-9.72-8.198-15.351,2.721c0,0-1.592,4.498,2.309,13.918
								c0,0-2.955-15.659,5.181-14.396c0,0,1.918-2.412,5.093-0.303C512.322,468.857,516.26,467.052,515.09,466.918z"/>
							<path fill="#E46996" stroke="#FAD0DF" stroke-miterlimit="10" d="M499.52,470.613c0,0-0.186,10.363,1.887,12.608
								c0,0-4.184-5.525-4.429-9.789C496.976,473.432,497.938,470.772,499.52,470.613z"/>
							<path fill="#FAD0DF" d="M496.824,474.226c0,0-1.487,11.924,13.759,14.668c4.269,0.419,4.269,0.359,7.004-0.359
								c0,0-3.661,4.677-4.831,4.545c0,0,6.626-2.104,9.094-10.49l-0.497-4.197c0,0,0.33-4.776-0.455-7.502
								c0,0,0.166,15.736-8.301,8.881c0,0,4.817,0.429,5.127-4.227c0.141-1.584,0.307-4.142-3.548-3.928c0,0-0.79-2.652-0.839-2.405
								c-0.047,0.242,1.871-1.599,2.816-2.157c0,0-2.827,0.368-3.547,1.611c0,0-3.38-3.002-5.162,0.021
								c1.052,0.125-6.096-1.232-5.383,4.404c0,0-1.135,5.233-0.24,7.987c0.732,2.24-2.508-7.86-1.906-9.231
								c0,0-0.782,8.736,1.432,11.68C501.348,483.527,497.646,477.983,496.824,474.226z"/>
							<path fill="#E46996" d="M509.218,476.866c0,0-4.339-6.579,0.468-7.937c0,0,2.492-0.512,3.016,2.943
								C512.701,471.873,508.913,474.756,509.218,476.866z"/>
							<path fill="#E46996" d="M513.5,472.053c0,0,0.253-1.907-0.345-2.519c0,0,3.925-6.036,7.745,0.136
								c0,0,0.802,14.72-5.817,11.591c0,0-2.148-0.764-2.302-1.814c0,0,5.258,0.621,4.993-4.783
								C517.773,474.664,517.845,471.845,513.5,472.053z"/>
							<path fill="#E46996" d="M506.397,470.474c0,0-0.425,7.091,4.676,9.748c0,0-9.187-3.761-7.332-9.002
								C503.742,471.22,505.278,469.961,506.397,470.474z"/>
							<path fill="#E46996" d="M513.426,475.474c0,0,0.155,2.232-0.578,2.962c0,0,2.236,0.836,2.48-1.64
								C515.328,476.797,515.26,475.219,513.426,475.474z"/>
							<path fill="#E46996" d="M512.09,475.013c0,0,0.838,5.029-2.016,2.825c0,0,1.428-6.597,5.954-4.565
								c0,0,1.383,0.725,0.562,3.172C516.592,476.445,514.104,472.192,512.09,475.013z"/>
							<path fill="#E46996" d="M502.615,474.547c0,0-0.014,0.345-0.021,0.914c-0.046,2.484,0.027,9.253,2.06,10.22
								c0,0,10.299,4.075,13.73,0.879c0,0,3.5-3.531,1.915-6.452c0,0-2.888,5.359-10.794,0.652
								C509.505,480.76,503.92,477.685,502.615,474.547z"/>
							<path fill="#E46996" d="M520.992,470.875l0.07,4.266c0,0,5.181,5.76,3.4,14.3
								C524.463,489.44,533.449,480.074,520.992,470.875z"/>
							<path fill="#E46996" d="M522.149,471.582c0,0,9.667,6.357,1.618,18.231C523.768,489.813,534.703,481.262,522.149,471.582z"/>
							<path fill="#FAD0DF" d="M524.048,490.388c0,0,8.529-10.924-2.315-18.949l0,0c0,0,7.64,4.104,2.73,18.002L524.048,490.388z"/>
							<path fill="#E46996" d="M496.843,474.119c0,0-5.375,10.424,2.73,16.053c0,0,8.092,6.009,13.265,2.946
								c0,0,4.296-2.878,4.518-5.256c0,0-8.299,3.352-17.658-4.448C499.697,483.412,495.891,479.014,496.843,474.119z"/>
							<path fill="#E46996" d="M521.062,475.14l-0.034,2.085c0,0,1.985,7.286-1.959,10.443c0,0-4.767,5.628-6.868,5.267
								c0,0,8.485,6.07,12.262-3.495C524.463,489.44,526.938,478.284,521.062,475.14z"/>
						</g>
						<g>
							<path fill="#D16FAC" d="M486.443,482.969c1.941,0.029-13.032-0.794-11.703,12.263c0,0,1.175,4.91,9.878,10.514
								c0,0-11.422-11.599-3.688-15.762c0,0,0.289-3.321,4.225-3.554C485.155,486.429,487.527,482.326,486.443,482.969z"/>
							<path fill="#D16FAC" d="M475.104,496.212c0,0,5.709,9.061,8.768,9.66c0,0-6.737-2.062-9.366-5.585
								C474.505,500.287,473.826,497.374,475.104,496.212z"/>
							<path fill="#FAD0DF" d="M474.822,501.072c0,0,5.478,11.247,20.183,3.767c3.918-2.4,3.885-2.451,5.837-4.834
								c0,0-0.509,6.398-1.591,7.037c0,0,4.522-6.094,1.901-14.923l-2.806-3.301c0,0-2.42-4.336-4.643-6.177
								c0,0,9.059,13.469-2.13,13.022c0,0,4.396-2.741,2.027-6.956c-0.776-1.46-2.083-3.772-5.286-1.099
								c0,0-2.184-1.775-2.088-1.531c0.101,0.238,0.708-2.589,1.21-3.679c0,0-2.229,2.14-2.147,3.679c0,0-4.616-0.407-4.441,3.354
								c0.979-0.572-5.954,2.873-2.146,7.274c0,0,1.986,5.251,4.318,7.049c1.902,1.457-6.618-5.162-6.877-6.734
								c0,0,4.275,8.043,7.852,9.15C483.994,506.173,477.661,503.782,474.822,501.072z"/>
							<path fill="#D16FAC" d="M487.014,495.341c0,0-7.469-2.871-4.092-7.148c0,0,1.854-2.05,4.267,0.593
								C487.188,488.785,485.554,493.719,487.014,495.341z"/>
							<path fill="#D16FAC" d="M487.98,488.422c0,0-0.863-1.807-1.726-1.946c0,0-0.033-7.743,6.758-4.888
								c0,0,9.03,12.178,1.545,13.759c0,0-2.284,0.729-3.014-0.081c0,0,4.89-2.86,1.602-7.352
								C493.146,487.916,491.61,485.436,487.98,488.422z"/>
							<path fill="#D16FAC" d="M480.958,491.65c0,0,3.649,6.391,9.557,5.388c0,0-10.058,2.691-11.426-3.028
								C479.089,494.01,479.703,491.929,480.958,491.65z"/>
							<path fill="#D16FAC" d="M489.854,491.424c0,0,1.398,1.824,1.18,2.93c0,0,2.401-0.727,1.209-3.018
								C492.243,491.336,491.29,490.019,489.854,491.424z"/>
							<path fill="#D16FAC" d="M488.439,491.89c0,0,3.571,3.797-0.137,3.735c0,0-2.507-6.614,2.55-7.784
								c0,0,1.603-0.268,2.282,2.375C493.134,490.216,488.578,488.156,488.439,491.89z"/>
							<path fill="#D16FAC" d="M480.003,497.605c0,0,0.184,0.307,0.495,0.804c1.369,2.174,5.268,7.965,7.57,7.488
								c0,0,11.19-3.139,12.345-8.115c0,0,1.016-5.309-2.004-6.804c0,0,0.543,6.49-8.941,7.536
								C489.466,498.514,482.902,499.469,480.003,497.605z"/>
							<path fill="#D16FAC" d="M493.776,482.564l2.477,3.635c0,0,7.734,1.622,11.034,10.142
								C507.286,496.341,509.734,482.456,493.776,482.564z"/>
							<path fill="#D16FAC" d="M495.175,482.43c0,0,11.939-0.759,11.724,14.68C506.898,497.11,511.487,482.672,495.175,482.43z"/>
							<path fill="#FAD0DF" d="M507.464,497.427c0,0,1.17-14.934-12.731-14.85l0,0c0,0,8.918-1.396,12.554,13.763L507.464,497.427z"
								/>
							<path fill="#D16FAC" d="M474.782,500.967c0,0,1.266,12.466,11.449,12.083c0,0,10.381-0.043,13.107-6.027
								c0,0,2.079-5.258,0.923-7.452c0,0-5.264,8.253-17.755,7.567C482.507,507.137,476.73,505.807,474.782,500.967z"/>
							<path fill="#D16FAC" d="M496.251,486.199l1.15,1.822c0,0,5.842,5.004,4.228,10.277c0,0-0.923,7.935-2.936,8.978
								c0,0,10.754-0.244,8.594-10.936C507.286,496.341,503.104,485.116,496.251,486.199z"/>
						</g>
					</g>
					<g>
						<path fill="#40AA48" d="M424.361,518.921c0,0,12.044-10.4,21.233,0.719C445.595,519.639,438.113,528.233,424.361,518.921z"/>
						<path fill="#40AA48" d="M407.559,488.734c0,0,14.914-4.466,19.237,9.63C426.796,498.364,416.74,503.096,407.559,488.734z"/>
						<g>
							<path fill="#E46996" d="M437.527,485.526c1.493,1.151-9.72-8.202-15.35,2.718c0,0-1.596,4.498,2.311,13.917
								c0,0-2.956-15.659,5.179-14.395c0,0,1.915-2.413,5.093-0.302C434.76,487.465,438.696,485.656,437.527,485.526z"/>
							<path fill="#E46996" stroke="#FAD0DF" stroke-miterlimit="10" d="M421.957,489.218c0,0-0.186,10.362,1.886,12.61
								c0,0-4.184-5.527-4.43-9.793C419.413,492.035,420.373,489.376,421.957,489.218z"/>
							<path fill="#FAD0DF" d="M419.261,492.832c0,0-1.484,11.925,13.758,14.669c4.271,0.416,4.271,0.359,7.003-0.359
								c0,0-3.658,4.678-4.829,4.545c0,0,6.626-2.104,9.095-10.491l-0.498-4.197c0,0,0.333-4.776-0.452-7.501
								c0,0,0.165,15.734-8.304,8.879c0,0,4.817,0.43,5.126-4.224c0.143-1.586,0.309-4.143-3.547-3.929c0,0-0.792-2.651-0.838-2.407
								c-0.048,0.244,1.87-1.6,2.814-2.154c0,0-2.825,0.367-3.545,1.609c0,0-3.379-3.001-5.164,0.021
								c1.055,0.124-6.093-1.233-5.383,4.405c0,0-1.136,5.235-0.236,7.988c0.73,2.236-2.511-7.86-1.909-9.232
								c0,0-0.783,8.738,1.432,11.681C423.783,502.133,420.082,496.589,419.261,492.832z"/>
							<path fill="#E46996" d="M431.655,495.473c0,0-4.336-6.581,0.468-7.939c0,0,2.491-0.513,3.014,2.946
								C435.137,490.48,431.348,493.361,431.655,495.473z"/>
							<path fill="#E46996" d="M435.938,490.657c0,0,0.251-1.905-0.344-2.517c0,0,3.921-6.035,7.742,0.134
								c0,0,0.806,14.723-5.819,11.593c0,0-2.146-0.761-2.301-1.818c0,0,5.259,0.625,4.995-4.779
								C440.212,493.269,440.283,490.449,435.938,490.657z"/>
							<path fill="#E46996" d="M428.835,489.079c0,0-0.423,7.089,4.677,9.749c0,0-9.188-3.763-7.332-9.001
								C426.18,489.827,427.715,488.565,428.835,489.079z"/>
							<path fill="#E46996" d="M435.862,494.082c0,0,0.156,2.231-0.578,2.96c0,0,2.236,0.836,2.479-1.641
								C437.765,495.401,437.698,493.825,435.862,494.082z"/>
							<path fill="#E46996" d="M434.526,493.621c0,0,0.836,5.026-2.017,2.819c0,0,1.429-6.596,5.957-4.563
								c0,0,1.378,0.727,0.56,3.175C439.027,495.052,436.54,490.799,434.526,493.621z"/>
							<path fill="#E46996" d="M425.053,493.152c0,0-0.015,0.346-0.024,0.914c-0.044,2.483,0.031,9.253,2.062,10.22
								c0,0,10.295,4.074,13.73,0.881c0,0,3.499-3.535,1.917-6.453c0,0-2.894,5.359-10.796,0.652
								C431.942,499.366,426.356,496.288,425.053,493.152z"/>
							<path fill="#E46996" d="M443.431,489.48l0.07,4.265c0,0,5.179,5.761,3.398,14.303
								C446.899,508.048,455.887,498.678,443.431,489.48z"/>
							<path fill="#E46996" d="M444.587,490.187c0,0,9.664,6.356,1.618,18.229C446.205,508.417,457.138,499.867,444.587,490.187z"/>
							<path fill="#FAD0DF" d="M446.483,508.995c0,0,8.528-10.926-2.316-18.95l0,0c0,0,7.642,4.103,2.732,18.003L446.483,508.995z"
								/>
							<path fill="#E46996" d="M419.281,492.724c0,0-5.375,10.425,2.73,16.054c0,0,8.092,6.008,13.261,2.943
								c0,0,4.299-2.877,4.521-5.254c0,0-8.303,3.35-17.66-4.449C422.134,502.018,418.328,497.621,419.281,492.724z"/>
							<path fill="#E46996" d="M443.502,493.745l-0.038,2.085c0,0,1.987,7.286-1.959,10.444c0,0-4.764,5.629-6.862,5.268
								c0,0,8.484,6.068,12.257-3.494C446.899,508.048,449.374,496.891,443.502,493.745z"/>
						</g>
						<g>
							<path fill="#D16FAC" d="M408.88,501.574c1.938,0.028-13.031-0.796-11.702,12.263c0,0,1.176,4.908,9.877,10.512
								c0,0-11.421-11.598-3.688-15.762c0,0,0.289-3.32,4.223-3.553C407.59,505.034,409.963,500.931,408.88,501.574z"/>
							<path fill="#D16FAC" d="M397.54,514.817c0,0,5.709,9.061,8.771,9.66c0,0-6.738-2.062-9.367-5.588
								C396.943,518.889,396.263,515.977,397.54,514.817z"/>
							<path fill="#FAD0DF" d="M397.262,519.678c0,0,5.473,11.246,20.178,3.766c3.919-2.4,3.889-2.449,5.839-4.836
								c0,0-0.511,6.398-1.592,7.041c0,0,4.522-6.096,1.9-14.926l-2.806-3.297c0,0-2.42-4.334-4.642-6.181
								c0,0,9.057,13.47-2.131,13.022c0,0,4.399-2.74,2.028-6.953c-0.773-1.461-2.08-3.771-5.284-1.1c0,0-2.187-1.775-2.089-1.533
								c0.102,0.24,0.709-2.588,1.208-3.677c0,0-2.229,2.142-2.146,3.679c0,0-4.614-0.406-4.44,3.354
								c0.981-0.572-5.956,2.871-2.147,7.277c0,0,1.985,5.25,4.317,7.045c1.899,1.459-6.617-5.16-6.874-6.732
								c0,0,4.274,8.041,7.849,9.15C406.432,524.778,400.098,522.387,397.262,519.678z"/>
							<path fill="#D16FAC" d="M409.448,513.948c0,0-7.468-2.873-4.092-7.15c0,0,1.858-2.053,4.266,0.592
								C409.623,507.391,407.99,512.323,409.448,513.948z"/>
							<path fill="#D16FAC" d="M410.418,507.028c0,0-0.865-1.809-1.725-1.947c0,0-0.035-7.743,6.755-4.888
								c0,0,9.032,12.179,1.55,13.759c0,0-2.285,0.73-3.016-0.082c0,0,4.887-2.859,1.6-7.35
								C415.582,506.52,414.047,504.042,410.418,507.028z"/>
							<path fill="#D16FAC" d="M403.396,510.255c0,0,3.649,6.391,9.555,5.387c0,0-10.057,2.693-11.426-3.025
								C401.527,512.616,402.14,510.536,403.396,510.255z"/>
							<path fill="#D16FAC" d="M412.289,510.03c0,0,1.398,1.824,1.183,2.93c0,0,2.401-0.727,1.212-3.021
								C414.684,509.938,413.727,508.624,412.289,510.03z"/>
							<path fill="#D16FAC" d="M410.877,510.493c0,0,3.573,3.797-0.139,3.738c0,0-2.505-6.615,2.553-7.785
								c0,0,1.602-0.268,2.279,2.377C415.57,508.823,411.016,506.759,410.877,510.493z"/>
							<path fill="#D16FAC" d="M402.441,516.212c0,0,0.18,0.307,0.496,0.805c1.367,2.17,5.266,7.961,7.567,7.482
								c0,0,11.191-3.137,12.345-8.111c0,0,1.018-5.309-2.002-6.803c0,0,0.541,6.488-8.942,7.535
								C411.904,517.12,405.341,518.077,402.441,516.212z"/>
							<path fill="#D16FAC" d="M416.211,501.172l2.479,3.636c0,0,7.731,1.621,11.033,10.139
								C429.723,514.946,432.171,501.061,416.211,501.172z"/>
							<path fill="#D16FAC" d="M417.611,501.036c0,0,11.939-0.76,11.723,14.68C429.334,515.716,433.924,501.275,417.611,501.036z"/>
							<path fill="#FAD0DF" d="M429.902,516.032c0,0,1.169-14.932-12.733-14.85l0,0c0,0,8.917-1.396,12.554,13.764L429.902,516.032z
								"/>
							<path fill="#D16FAC" d="M397.217,519.573c0,0,1.27,12.465,11.45,12.082c0,0,10.385-0.043,13.108-6.027
								c0,0,2.079-5.258,0.924-7.451c0,0-5.264,8.254-17.756,7.57C404.943,525.747,399.168,524.411,397.217,519.573z"/>
							<path fill="#D16FAC" d="M418.689,504.807l1.15,1.818c0,0,5.843,5.006,4.227,10.277c0,0-0.923,7.936-2.938,8.977
								c0,0,10.757-0.244,8.595-10.934C429.723,514.946,425.541,503.721,418.689,504.807z"/>
						</g>
					</g>
				</g>
			</g>
		</g>
	</g>
	<path fill="#FFFCFA" d="M456.777,367.799c0,3.223-9.639,5.361-12.371,5.361l-37.525,1.943c-2.732,0-4.948-2.611-4.948-5.832
		l6.597-11.968c0-3.221,22.424-7.649,25.155-7.649h20.205c2.733,0,4.196,7.648,4.196,10.869L456.777,367.799z"/>
	<path fill="#FFFCFA" d="M340.425,370.413c0.231,3.214,9.999,4.653,12.726,4.456l37.566-0.766c2.726-0.198,4.749-2.961,4.517-6.174
		l-7.444-11.461c-0.232-3.211-22.914-6.012-25.641-5.814l-20.152,1.455c-2.726,0.197-3.635,7.931-3.403,11.143L340.425,370.413z"/>
	<path fill="none" stroke="#FDE9F1" stroke-width="4" stroke-miterlimit="10" d="M399.518,362.38c0,0,2.291,37.581-73.279,38.919"/>
	<path fill="#F6A9C1" d="M408.233,365.02c0,3.643-1.984,6.822-4.931,8.517c-0.987,0.568-2.084,0.969-3.25,1.166
		c-0.531,0.088-1.08,0.136-1.639,0.136c-5.424,0-9.818-4.396-9.818-9.818c0-5.423,4.395-9.819,9.818-9.819
		C403.836,355.201,408.233,359.597,408.233,365.02z"/>
	<path fill="#D0D2D5" d="M557.116,278.92c0,17.523-9.299,31.729-20.77,31.729c-11.469,0-20.768-14.205-20.768-31.729
		s9.299-31.727,20.768-31.727C547.817,247.193,557.116,261.397,557.116,278.92z"/>
	<path fill="#D4D8DE" d="M533.244,310.649h7.053c0,0,0.883,90.726,2.646,91.607c0,0,5.03,19.689-6.596,22.042
		c0,0-10.154,1.175-5.749-27.918l2.939-57.599L533.244,310.649z"/>
	<path fill="#D0D2D5" d="M270.496,224.583c0,0-13.05,64.223,1.717,71.436c0,0,3.091,7.899,3.091,10.989
		c0,0,0.345,74.871-1.716,74.871c0,0-8.932,45.007,4.806,43.967c0,0,13.411,2.739,5.152-44.312l-1.373-78.646
		c0,0,0.344-5.999,5.494-9.868c0,0,5.839-5.244,3.778-23.104c0,0-1.717-40.18-5.838-45.333l2.06,47.05c0,0-2.404,8.928-3.09-2.405
		c0,0-1.373-44.302-3.778-44.646l-0.343,36.06c0,0-0.345,21.637-3.778,11.677l-0.687-47.737l-3.435,43.616
		c0,0-0.113,14.526-3.435,2.06L270.496,224.583z"/>
</g>
</svg>
