<?xml version="1.0" encoding="utf-8"?>
<!-- Generator: Adobe Illustrator 15.1.0, SVG Export Plug-In . SVG Version: 6.00 Build 0)  -->
<!DOCTYPE svg PUBLIC "-//W3C//DTD SVG 1.1//EN" "http://www.w3.org/Graphics/SVG/1.1/DTD/svg11.dtd">
<svg version="1.1" id="Layer_1" xmlns="http://www.w3.org/2000/svg" xmlns:xlink="http://www.w3.org/1999/xlink" x="0px" y="0px"
	 width="1246.242px" height="1106.955px" viewBox="0 181.477 1246.242 1106.955"
	 enable-background="new 0 181.477 1246.242 1106.955" xml:space="preserve">
<path fill="#2D2E2D" d="M370.357,441.408c0,0,53.901-231.954,364.932-209.258c0,0,270.184,84.399,217.619,326.109
	c-0.412,4.232,11.352,571.931-673.513,562.915c0,0-174.688-7.646-125.69-165.498c0,0,9.235-25.312,54.685-45.197
	c0,0,71.963-9.943,41.663,55.137c0,0,0.949-44.289-42.608-18.078c0,0-23.675,46.098,43.553,55.137c0,0,89.011,18.982,126.883-84.965
	c0,0,5.414-113.766-5.002-172.52C372.878,745.189,353.297,463.77,370.357,441.408z"/>
<path fill="#F8E0CA" d="M897.887,494.653c0,158.159,53.372,201.428-238.204,201.428c-234.958,0-238.21-26.667-238.21-201.428
	c0-150.709,55.761-178.104,228.708-178.104C864.566,316.549,897.887,365.594,897.887,494.653z"/>
<path fill="none" stroke="#F8B77F" stroke-miterlimit="10" d="M659.956,535.36c0,0-2.007,6.833-24.01,21.422
	c0,0,0,20.588,24.01,18.588"/>
<path fill="#2D2E2D" d="M720.803,263.231c0,0-319.645-76.288-309.479,237.579c0,0,21.438-10.992,57.975-22.907l28.544-104.04
	l27.843,88.646c27.686-6.146,59.372-11.151,93.89-13.163l37.405-98.166l52.073,100.24c20.724,2.225,41.997,5.765,63.634,10.919
	l-11.499-111.159l63.297,126.518c28.381,10.122,57.12,23.281,85.829,40.11C910.315,517.808,943.861,262.963,720.803,263.231z"/>
<line fill="none" x1="469.299" y1="477.904" x2="468.789" y2="479.747"/>
<polygon opacity="0.67" fill="#F6D0B0" enable-background="new    " points="421.25,522.099 485.897,477.904 497.843,374.318 
	469.299,477.904 421.472,494.653 "/>
<polygon opacity="0.67" fill="#F6D0B0" enable-background="new    " points="656.981,351.181 635.946,448.209 619.576,449.347 "/>
<polygon fill="#F6D0B0" points="678.369,392.353 698.874,449.347 709.055,451.421 "/>
<polyline fill="#F6D0B0" points="761.793,357.01 808.654,477.904 824.486,477.698 761.189,351.181 "/>
<path fill="#F6D0B0" d="M898.251,517.808c0,0,2.413,147.444-125.385,174.811c0,0,131.158,9.531,128.854-87.405L898.251,517.808z"/>
<g>
	<path fill="#9B6127" d="M810.627,510.674c1.231,0.595,2.491,1.117,3.785,1.535c1.285,0.437,2.597,0.787,3.927,1.002
		c2.641,0.432,5.424,0.393,7.822-0.722c2.419-1.073,4.198-3.232,5.322-5.654c0.577-1.213,1.003-2.502,1.338-3.816
		c0.358-1.311,0.593-2.656,0.809-4.006c-0.101,2.73-0.537,5.487-1.6,8.065c-0.521,1.289-1.247,2.511-2.169,3.58
		c-0.926,1.066-2.086,1.943-3.376,2.54c-2.611,1.187-5.567,1.184-8.257,0.6C815.521,513.205,812.941,512.138,810.627,510.674z"/>
</g>
<g>
	<path fill="#9B6127" d="M812.307,527.378c1.231,0.595,2.492,1.117,3.784,1.535c1.285,0.437,2.598,0.787,3.928,1.003
		c2.641,0.431,5.423,0.392,7.822-0.722c2.42-1.073,4.199-3.232,5.323-5.653c0.578-1.212,1.004-2.503,1.338-3.817
		c0.358-1.311,0.593-2.656,0.809-4.005c-0.101,2.73-0.537,5.486-1.6,8.065c-0.522,1.288-1.248,2.509-2.17,3.58
		c-0.927,1.065-2.087,1.942-3.376,2.538c-2.61,1.188-5.567,1.184-8.257,0.6C817.2,529.91,814.621,528.842,812.307,527.378z"/>
</g>
<g>
	<path fill="#FFFFFF" d="M814.592,528.163c0,22.969-19.134,41.59-42.74,41.59c-23.602,0-42.734-18.621-42.734-41.59
		c0-22.97,19.133-41.587,42.734-41.587C795.458,486.575,814.592,505.193,814.592,528.163z"/>
</g>
<g>
	<path d="M789.029,528.163c0,16.1-13.41,29.152-29.957,29.152c-16.548,0-29.955-13.052-29.955-29.152
		c0-16.1,13.407-29.15,29.955-29.15C775.619,499.012,789.029,512.063,789.029,528.163z"/>
</g>
<g opacity="0.7">
	
		<image overflow="visible" enable-background="new    " width="638" height="613" xlink:href="CC1004E2.png"  transform="matrix(0.1847 0 0 0.1855 701.1387 470.5159)">
	</image>
</g>
<g>
	<path fill="#9B6127" d="M510.475,505.634c-2.314,1.463-4.893,2.53-7.601,3.122c-2.689,0.584-5.646,0.588-8.257-0.6
		c-1.289-0.596-2.448-1.473-3.375-2.539c-0.922-1.07-1.647-2.291-2.169-3.581c-1.061-2.579-1.497-5.335-1.597-8.065
		c0.216,1.351,0.449,2.695,0.807,4.007c0.335,1.313,0.759,2.604,1.337,3.816c1.123,2.422,2.901,4.581,5.321,5.655
		c2.399,1.114,5.182,1.151,7.823,0.722c1.329-0.216,2.642-0.565,3.927-1.003C507.984,506.75,509.245,506.228,510.475,505.634z"/>
</g>
<g>
	<path fill="#9B6127" d="M508.794,522.338c-2.315,1.464-4.892,2.531-7.601,3.123c-2.689,0.584-5.646,0.587-8.256-0.6
		c-1.29-0.596-2.449-1.473-3.376-2.539c-0.922-1.07-1.647-2.291-2.169-3.58c-1.061-2.579-1.497-5.334-1.597-8.065
		c0.215,1.351,0.449,2.695,0.807,4.006c0.335,1.313,0.76,2.604,1.337,3.816c1.123,2.421,2.902,4.58,5.322,5.654
		c2.398,1.114,5.181,1.153,7.821,0.721c1.33-0.216,2.642-0.566,3.927-1.003C506.304,523.454,507.564,522.932,508.794,522.338z"/>
</g>
<g>
	<ellipse fill="#FFFFFF" cx="549.251" cy="523.121" rx="42.738" ry="41.591"/>
</g>
<g>
	<ellipse cx="562.031" cy="523.122" rx="29.958" ry="29.152"/>
</g>
<g opacity="0.7">
	
		<image overflow="visible" enable-background="new    " width="638" height="613" xlink:href="CC1004E6.png"  transform="matrix(0.1847 0 0 0.1855 502.2441 465.4758)">
	</image>
</g>
<path fill="#F8E0CA" d="M901.852,853.381c67.596-101.497,106.867-194.114,70.425-218.385
	c-18.9-12.588-62.722,77.001-130.317,178.498c-67.6,101.494-133.375,176.463-114.469,189.053
	C746.389,1015.135,834.252,954.881,901.852,853.381z"/>
<path fill="#F6D0B0" d="M972.276,634.995c0,0-187.54,295.011-244.786,367.552c0,0-24.25-17.221,109.977-182.35l64.752-101.915
	C902.219,718.284,963.447,625.512,972.276,634.995z"/>
<path fill="#F8E0CA" d="M469.974,852.807C402.378,751.31,363.108,658.693,399.55,634.421c18.9-12.588,62.722,77.002,130.317,178.499
	c67.599,101.494,133.373,176.463,114.469,189.053C625.438,1014.559,537.574,954.305,469.974,852.807z"/>
<path fill="#F6D0B0" d="M399.55,634.421c0,0,187.54,295.011,244.787,367.552c0,0,24.25-17.221-109.976-182.35L469.606,717.71
	C469.606,717.71,408.378,624.938,399.55,634.421z"/>
<g>
	<g>
		<defs>
			<path id="SVGID_1_" d="M515.641,764.658L492.11,1180.74c0,0,207.874,128.344,403.203,3.02l-76.302-433.797l-3.46-57.69
				L519.13,703.011L515.641,764.658z"/>
		</defs>
		<clipPath id="SVGID_2_">
			<use xlink:href="#SVGID_1_"  overflow="visible"/>
		</clipPath>
		<g clip-path="url(#SVGID_2_)">
			<path fill="#95281E" d="M516.766,761.672l-23.533,416.084c0,0,207.876,128.34,403.21,3.016l-72.948-433.797l-3.462-57.689
				l-299.782,10.739L516.766,761.672z"/>
			<path fill="#40AA48" d="M563.637,1156.487c0,0,26.048-22.494,45.925,1.561C609.562,1158.047,593.381,1176.623,563.637,1156.487z"
				/>
			<path fill="#40AA48" d="M527.292,1091.199c0,0,32.257-9.664,41.607,20.826C568.898,1112.026,547.153,1122.26,527.292,1091.199z"
				/>
			<g>
				<path fill="#E46996" d="M592.113,1084.25c3.23,2.494-21.026-17.732-33.202,5.887c0,0-3.446,9.727,4.999,30.104
					c0,0-6.4-33.875,11.201-31.137c0,0,4.148-5.221,11.015-0.656C586.126,1088.448,594.645,1084.541,592.113,1084.25z"/>
				<path fill="#E46996" stroke="#FAD0DF" stroke-miterlimit="10" d="M558.437,1092.24c0,0-0.405,22.412,4.079,27.273
					c0,0-9.047-11.951-9.58-21.182C552.936,1098.332,555.006,1092.582,558.437,1092.24z"/>
				<path fill="#FAD0DF" d="M552.604,1100.057c0,0-3.213,25.795,29.759,31.734c9.234,0.896,9.237,0.77,15.149-0.779
					c0,0-7.92,10.113-10.446,9.824c0,0,14.332-4.549,19.667-22.688l-1.076-9.08c0,0,0.719-10.328-0.981-16.229
					c0,0,0.361,34.041-17.958,19.211c0,0,10.423,0.93,11.086-9.139c0.314-3.43,0.665-8.957-7.667-8.502c0,0-1.712-5.73-1.818-5.199
					c-0.102,0.527,4.047-3.461,6.091-4.664c0,0-6.112,0.793-7.666,3.484c0,0-7.313-6.494-11.17,0.045
					c2.274,0.273-13.182-2.668-11.64,9.529c0,0-2.458,11.322-0.515,17.279c1.574,4.844-5.434-17.006-4.133-19.971
					c0,0-1.69,18.898,3.097,25.262C562.387,1120.176,554.383,1108.182,552.604,1100.057z"/>
				<path fill="#E46996" d="M579.414,1105.766c0,0-9.384-14.23,1.015-17.166c0,0,5.384-1.107,6.513,6.369
					C586.941,1094.969,578.75,1101.205,579.414,1105.766z"/>
				<path fill="#E46996" d="M588.677,1095.354c0,0,0.546-4.119-0.748-5.443c0,0,8.487-13.057,16.747,0.291
					c0,0,1.743,31.84-12.578,25.072c0,0-4.648-1.648-4.98-3.928c0,0,11.375,1.344,10.804-10.34
					C597.922,1101.004,598.074,1094.905,588.677,1095.354z"/>
				<path fill="#E46996" d="M573.312,1091.944c0,0-0.918,15.336,10.115,21.086c0,0-19.875-8.139-15.854-19.471
					C567.573,1093.559,570.894,1090.828,573.312,1091.944z"/>
				<path fill="#E46996" d="M588.514,1102.758c0,0,0.331,4.832-1.248,6.406c0,0,4.838,1.805,5.362-3.549
					C592.628,1105.615,592.48,1102.205,588.514,1102.758z"/>
				<path fill="#E46996" d="M585.619,1101.762c0,0,1.818,10.877-4.356,6.104c0,0,3.088-14.268,12.882-9.871
					c0,0,2.986,1.568,1.213,6.863C595.359,1104.858,589.978,1095.658,585.619,1101.762z"/>
				<path fill="#E46996" d="M565.134,1100.75c0,0-0.033,0.748-0.053,1.977c-0.094,5.373,0.063,20.014,4.458,22.111
					c0,0,22.273,8.803,29.703,1.895c0,0,7.569-7.643,4.143-13.955c0,0-6.252,11.594-23.347,1.41
					C580.037,1114.19,567.95,1107.535,565.134,1100.75z"/>
				<path fill="#E46996" d="M604.881,1092.805l0.149,9.227c0,0,11.208,12.461,7.359,30.934
					C612.389,1132.965,631.827,1112.703,604.881,1092.805z"/>
				<path fill="#E46996" d="M607.383,1094.336c0,0,20.906,13.754,3.499,39.438C610.882,1133.774,634.534,1115.276,607.383,1094.336z
					"/>
				<path fill="#FAD0DF" d="M611.489,1135.016c0,0,18.444-23.629-5.012-40.984l0,0c0,0,16.528,8.875,5.911,38.932L611.489,1135.016z
					"/>
				<path fill="#E46996" d="M552.643,1099.826c0,0-11.624,22.543,5.915,34.721c0,0,17.501,12.998,28.68,6.369
					c0,0,9.3-6.223,9.775-11.361c0,0-17.954,7.244-38.197-9.629C558.817,1119.926,550.586,1110.416,552.643,1099.826z"/>
				<path fill="#E46996" d="M605.03,1102.031l-0.075,4.512c0,0,4.296,15.764-4.236,22.594c0,0-10.311,12.174-14.85,11.391
					c0,0,18.354,13.131,26.52-7.562C612.389,1132.965,617.742,1108.834,605.03,1102.031z"/>
			</g>
			<g>
				<path fill="#D16FAC" d="M530.149,1118.965c4.198,0.062-28.183-1.719-25.309,26.527c0,0,2.541,10.619,21.361,22.736
					c0,0-24.706-25.088-7.974-34.092c0,0,0.627-7.184,9.136-7.686C527.363,1126.451,532.493,1117.576,530.149,1118.965z"/>
				<path fill="#D16FAC" d="M505.624,1147.612c0,0,12.346,19.594,18.966,20.896c0,0-14.575-4.459-20.259-12.084
					C504.331,1156.424,502.858,1150.123,505.624,1147.612z"/>
				<path fill="#FAD0DF" d="M505.021,1158.125c0,0,11.838,24.326,43.646,8.146c8.477-5.193,8.411-5.301,12.629-10.461
					c0,0-1.101,13.844-3.447,15.232c0,0,9.786-13.184,4.116-32.281l-6.076-7.139c0,0-5.227-9.375-10.035-13.365
					c0,0,19.596,29.131-4.608,28.17c0,0,9.512-5.93,4.385-15.045c-1.677-3.156-4.5-8.156-11.428-2.377c0,0-4.73-3.84-4.516-3.312
					c0.211,0.521,1.529-5.602,2.612-7.959c0,0-4.822,4.631-4.645,7.961c0,0-9.984-0.883-9.609,7.248
					c2.123-1.234-12.882,6.221-4.641,15.74c0,0,4.293,11.357,9.336,15.244c4.111,3.152-14.315-11.166-14.866-14.562
					c0,0,9.241,17.396,16.977,19.795C524.853,1169.16,511.158,1163.985,505.021,1158.125z"/>
				<path fill="#D16FAC" d="M531.383,1145.729c0,0-16.155-6.213-8.851-15.463c0,0,4.017-4.438,9.225,1.279
					C531.757,1131.545,528.222,1142.221,531.383,1145.729z"/>
				<path fill="#D16FAC" d="M533.475,1130.762c0,0-1.865-3.91-3.725-4.209c0,0-0.08-16.754,14.606-10.578
					c0,0,19.536,26.35,3.346,29.764c0,0-4.935,1.58-6.517-0.176c0,0,10.57-6.182,3.462-15.9
					C544.649,1129.662,541.323,1124.303,533.475,1130.762z"/>
				<path fill="#D16FAC" d="M518.289,1137.744c0,0,7.897,13.816,20.667,11.652c0,0-21.75,5.824-24.714-6.553
					C514.242,1142.844,515.568,1138.35,518.289,1137.744z"/>
				<path fill="#D16FAC" d="M537.526,1137.256c0,0,3.026,3.951,2.554,6.334c0,0,5.197-1.572,2.615-6.531
					C542.695,1137.059,540.638,1134.211,537.526,1137.256z"/>
				<path fill="#D16FAC" d="M534.468,1138.266c0,0,7.726,8.207-0.302,8.078c0,0-5.416-14.305,5.524-16.84
					c0,0,3.465-0.576,4.936,5.139C544.626,1134.643,534.768,1130.184,534.468,1138.266z"/>
				<path fill="#D16FAC" d="M516.219,1150.625c0,0,0.397,0.668,1.076,1.74c2.96,4.699,11.395,17.227,16.373,16.191
					c0,0,24.201-6.787,26.695-17.549c0,0,2.206-11.484-4.332-14.717c0,0,1.174,14.041-19.339,16.303
					C536.69,1152.594,522.493,1154.662,516.219,1150.625z"/>
				<path fill="#D16FAC" d="M546.01,1118.096l5.356,7.861c0,0,16.728,3.51,23.865,21.936
					C575.231,1147.891,580.529,1117.856,546.01,1118.096z"/>
				<path fill="#D16FAC" d="M549.036,1117.801c0,0,25.829-1.643,25.356,31.754C574.393,1149.555,584.323,1118.321,549.036,1117.801z
					"/>
				<path fill="#FAD0DF" d="M575.622,1150.24c0,0,2.528-32.303-27.54-32.119l0,0c0,0,19.286-3.023,27.149,29.771L575.622,1150.24z"
					/>
				<path fill="#D16FAC" d="M504.925,1157.897c0,0,2.74,26.963,24.765,26.137c0,0,22.46-0.09,28.352-13.039
					c0,0,4.496-11.371,2.002-16.117c0,0-11.388,17.85-38.41,16.371C521.634,1171.248,509.146,1168.364,504.925,1157.897z"/>
				<path fill="#D16FAC" d="M551.366,1125.957l2.488,3.939c0,0,12.639,10.824,9.143,22.229c0,0-1.999,17.162-6.354,19.416
					c0,0,23.269-0.527,18.588-23.65C575.231,1147.891,566.184,1123.612,551.366,1125.957z"/>
			</g>
			<g>
				<path fill="#40AA48" d="M559.666,848.641c0,0,26.052-22.498,45.929,1.559C605.595,850.199,589.413,868.781,559.666,848.641z"/>
				<path fill="#40AA48" d="M523.324,783.352c0,0,32.252-9.66,41.604,20.828C564.927,804.18,543.185,814.412,523.324,783.352z"/>
				<g>
					<path fill="#E46996" d="M588.146,776.406c3.229,2.496-21.026-17.736-33.206,5.885c0,0-3.446,9.727,5.001,30.1
						c0,0-6.4-33.871,11.194-31.137c0,0,4.152-5.215,11.02-0.654C582.156,780.6,590.673,776.692,588.146,776.406z"/>
					<path fill="#E46996" stroke="#FAD0DF" stroke-miterlimit="10" d="M554.468,784.395c0,0-0.402,22.416,4.08,27.275
						c0,0-9.051-11.951-9.581-21.18C548.968,790.489,551.038,784.739,554.468,784.395z"/>
					<path fill="#FAD0DF" d="M548.634,792.211c0,0-3.21,25.791,29.759,31.73c9.238,0.896,9.24,0.771,15.149-0.779
						c0,0-7.917,10.115-10.447,9.828c0,0,14.33-4.551,19.67-22.689l-1.076-9.08c0,0,0.719-10.328-0.981-16.223
						c0,0,0.357,34.033-17.958,19.205c0,0,10.42,0.932,11.086-9.135c0.309-3.436,0.666-8.963-7.669-8.502
						c0,0-1.714-5.732-1.815-5.201c-0.102,0.525,4.047-3.463,6.083-4.666c0,0-6.106,0.795-7.666,3.484c0,0-7.31-6.49-11.168,0.045
						c2.281,0.275-13.183-2.664-11.633,9.527c0,0-2.465,11.324-0.523,17.279c1.582,4.844-5.429-17.006-4.126-19.967
						c0,0-1.69,18.896,3.097,25.262C558.416,812.33,550.411,800.336,548.634,792.211z"/>
					<path fill="#E46996" d="M575.443,797.924c0,0-9.381-14.23,1.014-17.172c0,0,5.388-1.107,6.518,6.371
						C582.974,787.123,574.778,793.356,575.443,797.924z"/>
					<path fill="#E46996" d="M584.709,787.51c0,0,0.542-4.127-0.751-5.443c0,0,8.489-13.061,16.75,0.287
						c0,0,1.738,31.84-12.587,25.072c0,0-4.643-1.646-4.975-3.932c0,0,11.371,1.35,10.8-10.336
						C593.948,793.158,594.103,787.057,584.709,787.51z"/>
					<path fill="#E46996" d="M569.345,784.096c0,0-0.916,15.334,10.118,21.09c0,0-19.878-8.139-15.865-19.475
						C563.597,785.709,566.923,782.985,569.345,784.096z"/>
					<path fill="#E46996" d="M584.543,794.916c0,0,0.332,4.826-1.251,6.402c0,0,4.84,1.807,5.365-3.547
						C588.657,797.772,588.511,794.36,584.543,794.916z"/>
					<path fill="#E46996" d="M581.651,793.916c0,0,1.814,10.877-4.355,6.104c0,0,3.087-14.27,12.881-9.873
						c0,0,2.986,1.568,1.215,6.865C591.392,797.012,586.006,787.811,581.651,793.916z"/>
					<path fill="#E46996" d="M561.167,792.905c0,0-0.036,0.748-0.056,1.979c-0.096,5.371,0.061,20.01,4.458,22.109
						c0,0,22.27,8.809,29.698,1.896c0,0,7.571-7.639,4.148-13.955c0,0-6.251,11.59-23.351,1.41
						C576.066,806.344,563.981,799.69,561.167,792.905z"/>
					<path fill="#E46996" d="M600.913,784.963l0.149,9.225c0,0,11.207,12.463,7.351,30.93
						C608.415,825.117,627.854,804.864,600.913,784.963z"/>
					<path fill="#E46996" d="M603.41,786.494c0,0,20.911,13.752,3.505,39.428C606.915,825.922,630.567,807.432,603.41,786.494z"/>
					<path fill="#FAD0DF" d="M607.522,827.172c0,0,18.444-23.633-5.011-40.988l0,0c0,0,16.527,8.879,5.904,38.934L607.522,827.172z"
						/>
					<path fill="#E46996" d="M548.676,791.979c0,0-11.625,22.549,5.911,34.721c0,0,17.499,13,28.683,6.371
						c0,0,9.294-6.223,9.775-11.365c0,0-17.954,7.246-38.196-9.625C554.849,812.078,546.611,802.569,548.676,791.979z"/>
					<path fill="#E46996" d="M601.063,794.186l-0.079,4.51c0,0,4.299,15.766-4.237,22.592c0,0-10.307,12.176-14.847,11.393
						c0,0,18.356,13.131,26.515-7.562C608.415,825.117,613.774,800.989,601.063,794.186z"/>
				</g>
				<g>
					<path fill="#D16FAC" d="M526.178,811.117c4.2,0.064-28.185-1.719-25.309,26.527c0,0,2.541,10.619,21.362,22.736
						c0,0-24.703-25.086-7.976-34.092c0,0,0.624-7.182,9.137-7.684C523.392,818.606,528.525,809.733,526.178,811.117z"/>
					<path fill="#D16FAC" d="M501.653,839.768c0,0,12.35,19.594,18.965,20.895c0,0-14.574-4.465-20.257-12.082
						C500.361,848.578,498.891,842.278,501.653,839.768z"/>
					<path fill="#FAD0DF" d="M501.046,850.28c0,0,11.845,24.326,43.648,8.146c8.479-5.191,8.412-5.301,12.629-10.459
						c0,0-1.101,13.842-3.442,15.23c0,0,9.786-13.186,4.116-32.283l-6.073-7.139c0,0-5.23-9.375-10.038-13.365
						c0,0,19.592,29.137-4.611,28.172c0,0,9.514-5.93,4.385-15.043c-1.673-3.16-4.5-8.158-11.428-2.379c0,0-4.727-3.838-4.514-3.314
						c0.211,0.52,1.526-5.598,2.611-7.957c0,0-4.824,4.631-4.645,7.959c0,0-9.983-0.879-9.606,7.254
						c2.116-1.238-12.882,6.217-4.647,15.738c0,0,4.296,11.359,9.344,15.24c4.107,3.156-14.319-11.16-14.871-14.557
						c0,0,9.242,17.391,16.983,19.789C520.888,861.313,507.186,856.139,501.046,850.28z"/>
					<path fill="#D16FAC" d="M527.413,837.881c0,0-16.157-6.211-8.852-15.465c0,0,4.017-4.434,9.229,1.289
						C527.791,823.705,524.252,834.375,527.413,837.881z"/>
					<path fill="#D16FAC" d="M529.503,822.916c0,0-1.864-3.912-3.729-4.211c0,0-0.072-16.75,14.616-10.574
						c0,0,19.535,26.342,3.345,29.758c0,0-4.942,1.578-6.518-0.176c0,0,10.57-6.184,3.459-15.896
						C540.677,821.817,537.356,816.457,529.503,822.916z"/>
					<path fill="#D16FAC" d="M514.318,829.897c0,0,7.896,13.824,20.669,11.652c0,0-21.756,5.828-24.712-6.547
						C510.275,835.002,511.601,830.502,514.318,829.897z"/>
					<path fill="#D16FAC" d="M533.56,829.41c0,0,3.024,3.949,2.549,6.332c0,0,5.196-1.568,2.619-6.525
						C538.727,829.217,536.664,826.367,533.56,829.41z"/>
					<path fill="#D16FAC" d="M530.497,830.414c0,0,7.726,8.211-0.299,8.086c0,0-5.417-14.309,5.524-16.838
						c0,0,3.458-0.576,4.932,5.133C540.654,826.795,530.8,822.338,530.497,830.414z"/>
					<path fill="#D16FAC" d="M512.251,842.781c0,0,0.393,0.664,1.073,1.74c2.964,4.699,11.391,17.217,16.37,16.188
						c0,0,24.206-6.787,26.698-17.547c0,0,2.202-11.482-4.329-14.717c0,0,1.175,14.037-19.348,16.303
						C532.715,844.748,518.524,846.815,512.251,842.781z"/>
					<path fill="#D16FAC" d="M542.043,810.25l5.355,7.861c0,0,16.724,3.508,23.869,21.934
						C571.268,840.045,576.558,810.012,542.043,810.25z"/>
					<path fill="#D16FAC" d="M545.066,809.955c0,0,25.827-1.645,25.358,31.752C570.424,841.707,580.352,810.475,545.066,809.955z"/>
					<path fill="#FAD0DF" d="M571.651,842.393c0,0,2.526-32.299-27.541-32.119l0,0c0,0,19.289-3.021,27.157,29.771L571.651,842.393z
						"/>
					<path fill="#D16FAC" d="M500.954,850.053c0,0,2.742,26.959,24.768,26.131c0,0,22.458-0.09,28.353-13.035
						c0,0,4.493-11.373,1.998-16.115c0,0-11.388,17.848-38.41,16.369C517.663,863.403,505.171,860.52,500.954,850.053z"/>
					<path fill="#D16FAC" d="M547.398,818.112l2.488,3.938c0,0,12.638,10.824,9.139,22.229c0,0-1.994,17.166-6.355,19.418
						c0,0,23.273-0.529,18.597-23.65C571.268,840.045,562.212,815.766,547.398,818.112z"/>
				</g>
			</g>
			<g>
				<path fill="#40AA48" d="M784.218,835.436c0,0,26.055-22.5,45.929,1.555C830.146,836.99,813.965,855.576,784.218,835.436z"/>
				<path fill="#40AA48" d="M747.877,770.145c0,0,32.256-9.662,41.605,20.828C789.482,790.973,767.736,801.205,747.877,770.145z"/>
				<g>
					<path fill="#E46996" d="M812.697,763.198c3.229,2.498-21.023-17.735-33.201,5.887c0,0-3.444,9.725,4.998,30.102
						c0,0-6.397-33.873,11.203-31.141c0,0,4.145-5.215,11.013-0.652C806.711,767.393,815.229,763.487,812.697,763.198z"/>
					<path fill="#E46996" stroke="#FAD0DF" stroke-miterlimit="10" d="M779.02,771.184c0,0-0.4,22.42,4.08,27.277
						c0,0-9.048-11.949-9.578-21.18C773.523,777.281,775.594,771.528,779.02,771.184z"/>
					<path fill="#FAD0DF" d="M773.186,779c0,0-3.211,25.797,29.762,31.734c9.238,0.898,9.238,0.773,15.146-0.779
						c0,0-7.912,10.115-10.442,9.828c0,0,14.328-4.549,19.667-22.689l-1.079-9.078c0,0,0.722-10.33-0.979-16.229
						c0,0,0.357,34.041-17.954,19.211c0,0,10.416,0.928,11.083-9.141c0.311-3.43,0.668-8.959-7.667-8.496
						c0,0-1.713-5.73-1.815-5.205c-0.105,0.529,4.043-3.455,6.088-4.664c0,0-6.111,0.797-7.67,3.486c0,0-7.31-6.496-11.165,0.045
						c2.273,0.271-13.186-2.664-11.638,9.529c0,0-2.461,11.322-0.521,17.277c1.583,4.842-5.429-17.004-4.125-19.967
						c0,0-1.691,18.895,3.098,25.258C782.975,799.121,774.967,787.129,773.186,779z"/>
					<path fill="#E46996" d="M800.001,784.713c0,0-9.386-14.227,1.014-17.166c0,0,5.386-1.105,6.514,6.371
						C807.528,773.916,799.336,780.149,800.001,784.713z"/>
					<path fill="#E46996" d="M809.266,774.299c0,0,0.54-4.123-0.75-5.439c0,0,8.488-13.061,16.745,0.287
						c0,0,1.742,31.84-12.578,25.074c0,0-4.649-1.646-4.983-3.932c0,0,11.375,1.348,10.805-10.34
						C818.503,779.949,818.658,773.85,809.266,774.299z"/>
					<path fill="#E46996" d="M793.896,770.889c0,0-0.915,15.336,10.115,21.086c0,0-19.872-8.137-15.859-19.471
						C788.152,772.502,791.478,769.78,793.896,770.889z"/>
					<path fill="#E46996" d="M809.098,781.707c0,0,0.334,4.826-1.248,6.406c0,0,4.838,1.809,5.363-3.549
						C813.213,784.565,813.062,781.149,809.098,781.707z"/>
					<path fill="#E46996" d="M806.207,780.709c0,0,1.813,10.875-4.359,6.104c0,0,3.092-14.266,12.885-9.871
						c0,0,2.983,1.568,1.212,6.863C815.943,783.805,810.562,774.606,806.207,780.709z"/>
					<path fill="#E46996" d="M785.718,779.698c0,0-0.032,0.746-0.052,1.979c-0.096,5.373,0.062,20.01,4.457,22.107
						c0,0,22.273,8.809,29.704,1.896c0,0,7.568-7.645,4.141-13.955c0,0-6.251,11.592-23.351,1.41
						C800.617,793.137,788.537,786.481,785.718,779.698z"/>
					<path fill="#E46996" d="M825.467,771.758l0.151,9.219c0,0,11.203,12.463,7.352,30.934
						C832.97,811.91,852.404,791.653,825.467,771.758z"/>
					<path fill="#E46996" d="M827.972,773.281c0,0,20.901,13.758,3.497,39.434C831.469,812.715,855.117,794.223,827.972,773.281z"/>
					<path fill="#FAD0DF" d="M832.073,813.967c0,0,18.447-23.633-5.011-40.99l0,0c0,0,16.529,8.877,5.908,38.934L832.073,813.967z"
						/>
					<path fill="#E46996" d="M773.23,778.772c0,0-11.627,22.547,5.915,34.723c0,0,17.497,13,28.68,6.365
						c0,0,9.29-6.217,9.779-11.361c0,0-17.96,7.246-38.204-9.625C779.4,798.873,771.17,789.364,773.23,778.772z"/>
					<path fill="#E46996" d="M825.618,780.977l-0.079,4.508c0,0,4.296,15.768-4.232,22.596c0,0-10.312,12.176-14.852,11.393
						c0,0,18.353,13.133,26.515-7.562C832.97,811.91,838.326,787.783,825.618,780.977z"/>
				</g>
				<g>
					<path fill="#D16FAC" d="M750.738,797.91c4.196,0.066-28.189-1.717-25.311,26.529c0,0,2.533,10.617,21.361,22.736
						c0,0-24.705-25.084-7.979-34.096c0,0,0.63-7.18,9.137-7.68C747.947,805.401,753.076,796.528,750.738,797.91z"/>
					<path fill="#D16FAC" d="M726.205,826.559c0,0,12.353,19.594,18.974,20.896c0,0-14.579-4.463-20.264-12.086
						C724.915,835.367,723.445,829.071,726.205,826.559z"/>
					<path fill="#FAD0DF" d="M725.602,837.074c0,0,11.838,24.322,43.652,8.141c8.477-5.189,8.404-5.299,12.625-10.453
						c0,0-1.1,13.84-3.443,15.225c0,0,9.786-13.18,4.115-32.281l-6.075-7.133c0,0-5.229-9.379-10.037-13.369
						c0,0,19.592,29.133-4.604,28.17c0,0,9.51-5.926,4.384-15.047c-1.676-3.152-4.503-8.152-11.435-2.375
						c0,0-4.721-3.84-4.511-3.314c0.21,0.521,1.528-5.598,2.612-7.953c0,0-4.822,4.631-4.644,7.957c0,0-9.985-0.881-9.61,7.254
						c2.119-1.242-12.875,6.217-4.641,15.738c0,0,4.289,11.354,9.34,15.24c4.112,3.15-14.314-11.16-14.874-14.561
						c0,0,9.249,17.395,16.984,19.793C745.44,848.106,731.736,842.934,725.602,837.074z"/>
					<path fill="#D16FAC" d="M751.968,824.674c0,0-16.155-6.213-8.852-15.465c0,0,4.021-4.434,9.229,1.283
						C752.345,810.494,748.811,821.166,751.968,824.674z"/>
					<path fill="#D16FAC" d="M754.061,809.707c0,0-1.865-3.906-3.73-4.209c0,0-0.075-16.75,14.613-10.57
						c0,0,19.537,26.342,3.344,29.756c0,0-4.938,1.58-6.517-0.176c0,0,10.574-6.186,3.458-15.898
						C765.229,808.612,761.911,803.25,754.061,809.707z"/>
					<path fill="#D16FAC" d="M738.873,816.69c0,0,7.893,13.824,20.668,11.654c0,0-21.756,5.822-24.711-6.551
						C734.83,821.793,736.152,817.295,738.873,816.69z"/>
					<path fill="#D16FAC" d="M758.111,816.201c0,0,3.025,3.951,2.557,6.332c0,0,5.195-1.566,2.615-6.523
						C763.283,816.01,761.22,813.158,758.111,816.201z"/>
					<path fill="#D16FAC" d="M755.057,817.207c0,0,7.725,8.213-0.302,8.088c0,0-5.421-14.309,5.521-16.844
						c0,0,3.46-0.576,4.932,5.139C765.207,813.59,755.354,809.129,755.057,817.207z"/>
					<path fill="#D16FAC" d="M736.807,829.571c0,0,0.396,0.666,1.072,1.742c2.96,4.697,11.391,17.225,16.374,16.191
						c0,0,24.203-6.783,26.696-17.547c0,0,2.199-11.488-4.335-14.719c0,0,1.179,14.039-19.34,16.303
						C757.274,831.541,743.08,833.608,736.807,829.571z"/>
					<path fill="#D16FAC" d="M766.594,797.043l5.355,7.859c0,0,16.729,3.512,23.871,21.932
						C795.82,826.834,801.11,796.807,766.594,797.043z"/>
					<path fill="#D16FAC" d="M769.62,796.746c0,0,25.824-1.641,25.359,31.756C794.979,828.502,804.906,797.272,769.62,796.746z"/>
					<path fill="#FAD0DF" d="M796.205,829.188c0,0,2.528-32.303-27.537-32.119l0,0c0,0,19.283-3.025,27.152,29.766L796.205,829.188z
						"/>
					<path fill="#D16FAC" d="M725.51,836.842c0,0,2.743,26.963,24.765,26.135c0,0,22.461-0.09,28.354-13.035
						c0,0,4.492-11.373,1.999-16.117c0,0-11.389,17.848-38.407,16.373C742.221,850.198,729.73,847.309,725.51,836.842z"/>
					<path fill="#D16FAC" d="M771.949,804.903l2.488,3.939c0,0,12.639,10.824,9.144,22.23c0,0-1.995,17.164-6.354,19.416
						c0,0,23.271-0.527,18.593-23.654C795.82,826.834,786.768,802.559,771.949,804.903z"/>
				</g>
			</g>
			<g>
				<path fill="#40AA48" d="M670.087,914.946c0,0,26.048-22.498,45.932,1.557C716.019,916.502,699.832,935.084,670.087,914.946z"/>
				<path fill="#40AA48" d="M633.744,849.653c0,0,32.256-9.66,41.604,20.83C675.348,870.483,653.605,880.715,633.744,849.653z"/>
				<g>
					<path fill="#E46996" d="M698.563,842.705c3.232,2.496-21.023-17.734-33.204,5.885c0,0-3.441,9.73,5,30.1
						c0,0-6.395-33.867,11.201-31.131c0,0,4.147-5.217,11.017-0.66C692.576,846.901,701.092,842.994,698.563,842.705z"/>
					<path fill="#E46996" stroke="#FAD0DF" stroke-miterlimit="10" d="M664.887,850.698c0,0-0.402,22.412,4.084,27.271
						c0,0-9.051-11.949-9.584-21.176C659.387,856.793,661.459,851.039,664.887,850.698z"/>
					<path fill="#FAD0DF" d="M659.053,858.51c0,0-3.213,25.793,29.76,31.73c9.238,0.9,9.238,0.777,15.149-0.775
						c0,0-7.917,10.113-10.442,9.828c0,0,14.328-4.549,19.664-22.688l-1.075-9.08c0,0,0.722-10.328-0.979-16.229
						c0,0,0.359,34.039-17.955,19.205c0,0,10.415,0.932,11.082-9.135c0.311-3.426,0.669-8.957-7.67-8.5c0,0-1.712-5.729-1.814-5.199
						c-0.102,0.525,4.047-3.461,6.088-4.664c0,0-6.111,0.793-7.668,3.484c0,0-7.311-6.494-11.171,0.045
						c2.285,0.268-13.18-2.668-11.633,9.525c0,0-2.461,11.326-0.519,17.279c1.582,4.842-5.435-17.006-4.129-19.967
						c0,0-1.693,18.896,3.098,25.26C668.839,878.629,660.831,866.635,659.053,858.51z"/>
					<path fill="#E46996" d="M685.862,864.225c0,0-9.384-14.23,1.017-17.17c0,0,5.387-1.107,6.516,6.369
						C693.395,853.424,685.198,859.658,685.862,864.225z"/>
					<path fill="#E46996" d="M695.13,853.807c0,0,0.541-4.119-0.751-5.439c0,0,8.486-13.057,16.75,0.287
						c0,0,1.738,31.844-12.582,25.076c0,0-4.648-1.648-4.979-3.932c0,0,11.375,1.35,10.803-10.344
						C704.371,859.453,704.522,853.36,695.13,853.807z"/>
					<path fill="#E46996" d="M679.766,850.397c0,0-0.922,15.336,10.113,21.084c0,0-19.876-8.135-15.863-19.469
						C674.017,852.012,677.342,849.287,679.766,850.397z"/>
					<path fill="#E46996" d="M694.966,861.217c0,0,0.332,4.826-1.253,6.404c0,0,4.84,1.805,5.368-3.551
						C699.081,864.071,698.931,860.66,694.966,861.217z"/>
					<path fill="#E46996" d="M692.072,860.219c0,0,1.814,10.877-4.355,6.102c0,0,3.088-14.268,12.88-9.871
						c0,0,2.983,1.566,1.216,6.867C701.811,863.317,696.43,854.114,692.072,860.219z"/>
					<path fill="#E46996" d="M671.582,859.207c0,0-0.029,0.744-0.048,1.979c-0.095,5.369,0.062,20.008,4.456,22.105
						c0,0,22.271,8.809,29.701,1.896c0,0,7.57-7.643,4.145-13.955c0,0-6.256,11.592-23.35,1.412
						C686.485,872.649,674.398,865.99,671.582,859.207z"/>
					<path fill="#E46996" d="M711.336,851.262l0.146,9.227c0,0,11.205,12.461,7.355,30.93
						C718.838,891.418,738.275,871.164,711.336,851.262z"/>
					<path fill="#E46996" d="M713.833,852.791c0,0,20.908,13.754,3.498,39.434C717.331,892.225,740.982,873.731,713.833,852.791z"/>
					<path fill="#FAD0DF" d="M717.941,893.471c0,0,18.44-23.627-5.008-40.984l0,0c0,0,16.523,8.875,5.904,38.932L717.941,893.471z"
						/>
					<path fill="#E46996" d="M659.096,858.283c0,0-11.625,22.549,5.91,34.719c0,0,17.502,12.996,28.687,6.369
						c0,0,9.294-6.219,9.772-11.363c0,0-17.95,7.246-38.192-9.625C665.271,878.383,657.034,868.867,659.096,858.283z"/>
					<path fill="#E46996" d="M711.482,860.49l-0.074,4.51c0,0,4.295,15.758-4.236,22.59c0,0-10.312,12.174-14.852,11.393
						c0,0,18.353,13.129,26.518-7.564C718.838,891.418,724.193,867.287,711.482,860.49z"/>
				</g>
				<g>
					<path fill="#D16FAC" d="M636.602,877.418c4.198,0.066-28.187-1.717-25.313,26.527c0,0,2.542,10.619,21.366,22.74
						c0,0-24.706-25.088-7.975-34.098c0,0,0.624-7.182,9.132-7.682C633.812,884.906,638.946,876.035,636.602,877.418z"/>
					<path fill="#D16FAC" d="M612.073,906.067c0,0,12.354,19.598,18.966,20.898c0,0-14.568-4.465-20.257-12.086
						C610.781,914.879,609.314,908.576,612.073,906.067z"/>
					<path fill="#FAD0DF" d="M611.469,916.58c0,0,11.841,24.328,43.649,8.145c8.478-5.189,8.408-5.301,12.628-10.455
						c0,0-1.102,13.84-3.45,15.225c0,0,9.788-13.184,4.116-32.281l-6.067-7.135c0,0-5.231-9.373-10.039-13.365
						c0,0,19.591,29.133-4.612,28.168c0,0,9.519-5.928,4.386-15.043c-1.672-3.16-4.5-8.158-11.425-2.375c0,0-4.73-3.844-4.516-3.316
						c0.211,0.52,1.529-5.596,2.609-7.957c0,0-4.82,4.631-4.645,7.959c0,0-9.979-0.877-9.605,7.254
						c2.12-1.242-12.882,6.213-4.643,15.738c0,0,4.295,11.359,9.34,15.244c4.108,3.152-14.315-11.166-14.87-14.562
						c0,0,9.243,17.395,16.981,19.791C631.306,927.614,617.606,922.438,611.469,916.58z"/>
					<path fill="#D16FAC" d="M637.832,904.186c0,0-16.156-6.213-8.848-15.467c0,0,4.013-4.436,9.226,1.283
						C638.21,890.002,634.673,900.674,637.832,904.186z"/>
					<path fill="#D16FAC" d="M639.926,889.215c0,0-1.868-3.906-3.728-4.209c0,0-0.08-16.748,14.611-10.572
						c0,0,19.538,26.344,3.347,29.76c0,0-4.94,1.578-6.521-0.176c0,0,10.575-6.184,3.461-15.898
						C651.097,888.119,647.779,882.76,639.926,889.215z"/>
					<path fill="#D16FAC" d="M624.738,896.201c0,0,7.896,13.82,20.669,11.652c0,0-21.754,5.822-24.712-6.551
						C620.694,901.303,622.021,896.805,624.738,896.201z"/>
					<path fill="#D16FAC" d="M643.979,895.711c0,0,3.023,3.947,2.548,6.336c0,0,5.201-1.568,2.62-6.529
						C649.148,895.518,647.087,892.668,643.979,895.711z"/>
					<path fill="#D16FAC" d="M640.917,896.717c0,0,7.731,8.213-0.295,8.084c0,0-5.422-14.305,5.517-16.838
						c0,0,3.466-0.58,4.937,5.135C651.074,893.098,641.22,888.639,640.917,896.717z"/>
					<path fill="#D16FAC" d="M622.67,909.08c0,0,0.396,0.668,1.073,1.742c2.961,4.693,11.395,17.221,16.37,16.189
						c0,0,24.206-6.785,26.703-17.549c0,0,2.196-11.482-4.329-14.717c0,0,1.171,14.041-19.347,16.303
						C643.139,911.049,628.944,913.115,622.67,909.08z"/>
					<path fill="#D16FAC" d="M652.463,876.553l5.356,7.855c0,0,16.724,3.512,23.865,21.939
						C681.684,906.348,686.979,876.311,652.463,876.553z"/>
					<path fill="#D16FAC" d="M655.486,876.252c0,0,25.826-1.637,25.354,31.758C680.841,908.01,690.771,876.778,655.486,876.252z"/>
					<path fill="#FAD0DF" d="M682.072,908.696c0,0,2.525-32.301-27.543-32.117l0,0c0,0,19.288-3.021,27.154,29.771L682.072,908.696z
						"/>
					<path fill="#D16FAC" d="M611.374,916.352c0,0,2.741,26.959,24.769,26.135c0,0,22.458-0.092,28.348-13.037
						c0,0,4.5-11.371,2.002-16.121c0,0-11.388,17.854-38.41,16.379C628.082,929.707,615.595,926.819,611.374,916.352z"/>
					<path fill="#D16FAC" d="M657.819,884.408l2.483,3.943c0,0,12.638,10.824,9.147,22.227c0,0-2.002,17.168-6.358,19.422
						c0,0,23.269-0.529,18.592-23.652C681.684,906.348,672.633,882.069,657.819,884.408z"/>
				</g>
			</g>
			<path fill="#40AA48" d="M826.989,1180.065c0,0,26.05-22.498,45.929,1.559C872.918,1181.623,856.736,1200.201,826.989,1180.065z"
				/>
			<path fill="#40AA48" d="M790.646,1114.774c0,0,32.258-9.66,41.607,20.828C832.254,1135.602,810.509,1145.838,790.646,1114.774z"
				/>
			<g>
				<path fill="#E46996" d="M855.466,1107.83c3.229,2.494-21.024-17.738-33.201,5.881c0,0-3.444,9.732,4.999,30.102
					c0,0-6.398-33.867,11.199-31.135c0,0,4.151-5.211,11.018-0.656C849.48,1112.022,858,1108.117,855.466,1107.83z"/>
				<path fill="#E46996" stroke="#FAD0DF" stroke-miterlimit="10" d="M821.792,1115.819c0,0-0.403,22.412,4.079,27.271
					c0,0-9.051-11.949-9.579-21.18C816.292,1121.91,818.362,1116.162,821.792,1115.819z"/>
				<path fill="#FAD0DF" d="M815.956,1123.635c0,0-3.212,25.791,29.764,31.729c9.238,0.896,9.238,0.771,15.146-0.777
					c0,0-7.917,10.113-10.446,9.828c0,0,14.334-4.549,19.67-22.691l-1.076-9.078c0,0,0.718-10.332-0.982-16.227
					c0,0,0.358,34.037-17.957,19.209c0,0,10.424,0.928,11.082-9.137c0.315-3.434,0.673-8.961-7.666-8.5c0,0-1.711-5.734-1.815-5.201
					c-0.103,0.527,4.043-3.459,6.088-4.668c0,0-6.107,0.795-7.667,3.484c0,0-7.308-6.49-11.168,0.049
					c2.277,0.271-13.183-2.666-11.641,9.523c0,0-2.456,11.324-0.52,17.279c1.586,4.842-5.428-17.002-4.125-19.965
					c0,0-1.693,18.895,3.102,25.26C825.747,1143.752,817.731,1131.758,815.956,1123.635z"/>
				<path fill="#E46996" d="M842.769,1129.346c0,0-9.386-14.232,1.015-17.172c0,0,5.387-1.105,6.519,6.371
					C850.302,1118.543,842.103,1124.78,842.769,1129.346z"/>
				<path fill="#E46996" d="M852.033,1118.928c0,0,0.542-4.121-0.751-5.438c0,0,8.489-13.059,16.749,0.287
					c0,0,1.739,31.84-12.586,25.07c0,0-4.643-1.645-4.972-3.93c0,0,11.371,1.348,10.8-10.336
					C861.275,1124.58,861.43,1118.483,852.033,1118.928z"/>
				<path fill="#E46996" d="M836.668,1115.522c0,0-0.915,15.33,10.115,21.084c0,0-19.875-8.137-15.862-19.475
					C830.921,1117.131,834.246,1114.406,836.668,1115.522z"/>
				<path fill="#E46996" d="M851.865,1126.336c0,0,0.34,4.828-1.246,6.41c0,0,4.841,1.803,5.362-3.553
					C855.981,1129.194,855.837,1125.785,851.865,1126.336z"/>
				<path fill="#E46996" d="M848.975,1125.34c0,0,1.818,10.875-4.355,6.107c0,0,3.093-14.273,12.885-9.877
					c0,0,2.983,1.568,1.212,6.865C858.715,1128.436,853.334,1119.233,848.975,1125.34z"/>
				<path fill="#E46996" d="M828.49,1124.326c0,0-0.034,0.748-0.053,1.979c-0.096,5.373,0.062,20.012,4.459,22.109
					c0,0,22.271,8.807,29.694,1.896c0,0,7.574-7.643,4.148-13.957c0,0-6.252,11.59-23.351,1.412
					C843.39,1137.768,831.306,1131.11,828.49,1124.326z"/>
				<path fill="#E46996" d="M868.237,1116.385l0.152,9.223c0,0,11.204,12.463,7.352,30.938
					C875.742,1156.545,895.176,1136.283,868.237,1116.385z"/>
				<path fill="#E46996" d="M870.74,1117.916c0,0,20.904,13.752,3.496,39.432C874.236,1157.348,897.891,1138.854,870.74,1117.916z"
					/>
				<path fill="#FAD0DF" d="M874.842,1158.594c0,0,18.444-23.633-5.008-40.984l0,0c0,0,16.526,8.877,5.908,38.936L874.842,1158.594z
					"/>
				<path fill="#E46996" d="M816.003,1123.399c0,0-11.631,22.549,5.907,34.725c0,0,17.498,13,28.686,6.371
					c0,0,9.294-6.225,9.777-11.363c0,0-17.959,7.246-38.2-9.631C822.173,1143.5,813.938,1133.992,816.003,1123.399z"/>
				<path fill="#E46996" d="M868.391,1125.608l-0.081,4.514c0,0,4.298,15.762-4.234,22.588c0,0-10.314,12.176-14.851,11.393
					c0,0,18.354,13.131,26.518-7.557C875.742,1156.545,881.097,1132.412,868.391,1125.608z"/>
			</g>
			<g>
				<path fill="#D16FAC" d="M793.506,1142.539c4.197,0.066-28.188-1.719-25.312,26.527c0,0,2.536,10.621,21.363,22.742
					c0,0-24.704-25.092-7.978-34.098c0,0,0.628-7.182,9.138-7.684C790.717,1150.028,795.852,1141.155,793.506,1142.539z"/>
				<path fill="#D16FAC" d="M768.98,1171.192c0,0,12.347,19.594,18.966,20.895c0,0-14.574-4.467-20.266-12.082
					C767.681,1180.002,766.217,1173.699,768.98,1171.192z"/>
				<path fill="#FAD0DF" d="M768.37,1181.703c0,0,11.849,24.326,43.649,8.146c8.481-5.197,8.411-5.303,12.628-10.459
					c0,0-1.1,13.842-3.441,15.23c0,0,9.786-13.188,4.117-32.285l-6.074-7.137c0,0-5.231-9.375-10.04-13.369
					c0,0,19.594,29.139-4.606,28.174c0,0,9.515-5.928,4.382-15.041c-1.672-3.162-4.501-8.162-11.428-2.381
					c0,0-4.729-3.838-4.514-3.312c0.211,0.518,1.531-5.598,2.609-7.957c0,0-4.821,4.631-4.641,7.957c0,0-9.982-0.877-9.613,7.254
					c2.124-1.238-12.878,6.217-4.641,15.74c0,0,4.294,11.357,9.341,15.242c4.112,3.152-14.314-11.166-14.874-14.562
					c0,0,9.249,17.395,16.984,19.791C788.209,1192.735,774.51,1187.563,768.37,1181.703z"/>
				<path fill="#D16FAC" d="M794.734,1169.303c0,0-16.159-6.211-8.846-15.465c0,0,4.014-4.434,9.223,1.289
					C795.111,1155.127,791.576,1165.803,794.734,1169.303z"/>
				<path fill="#D16FAC" d="M796.834,1154.336c0,0-1.867-3.904-3.731-4.211c0,0-0.076-16.748,14.61-10.57
					c0,0,19.537,26.344,3.345,29.758c0,0-4.937,1.578-6.516-0.178c0,0,10.575-6.18,3.464-15.896
					C808.006,1153.24,804.684,1147.883,796.834,1154.336z"/>
				<path fill="#D16FAC" d="M781.643,1161.323c0,0,7.896,13.818,20.671,11.648c0,0-21.756,5.83-24.716-6.547
					C777.599,1166.424,778.925,1161.926,781.643,1161.323z"/>
				<path fill="#D16FAC" d="M800.883,1160.834c0,0,3.022,3.949,2.555,6.334c0,0,5.191-1.572,2.613-6.529
					C806.051,1160.639,803.99,1157.789,800.883,1160.834z"/>
				<path fill="#D16FAC" d="M797.82,1161.84c0,0,7.729,8.209-0.299,8.082c0,0-5.418-14.303,5.525-16.842
					c0,0,3.462-0.574,4.932,5.139C807.979,1158.219,798.124,1153.762,797.82,1161.84z"/>
				<path fill="#D16FAC" d="M779.577,1174.203c0,0,0.392,0.666,1.074,1.742c2.96,4.697,11.389,17.223,16.369,16.191
					c0,0,24.208-6.791,26.698-17.551c0,0,2.201-11.484-4.332-14.719c0,0,1.175,14.037-19.348,16.305
					C800.039,1176.172,785.849,1178.237,779.577,1174.203z"/>
				<path fill="#D16FAC" d="M809.367,1141.672l5.352,7.859c0,0,16.731,3.512,23.873,21.936
					C838.592,1171.467,843.883,1141.434,809.367,1141.672z"/>
				<path fill="#D16FAC" d="M812.389,1141.377c0,0,25.828-1.645,25.359,31.758C837.748,1173.135,847.679,1141.899,812.389,1141.377z
					"/>
				<path fill="#FAD0DF" d="M838.975,1173.817c0,0,2.531-32.301-27.538-32.119l0,0c0,0,19.287-3.023,27.154,29.771L838.975,1173.817
					z"/>
				<path fill="#D16FAC" d="M768.281,1181.475c0,0,2.74,26.957,24.764,26.133c0,0,22.462-0.092,28.354-13.037
					c0,0,4.495-11.373,1.998-16.115c0,0-11.385,17.85-38.408,16.367C784.988,1194.824,772.499,1191.94,768.281,1181.475z"/>
				<path fill="#D16FAC" d="M814.719,1149.531l2.488,3.939c0,0,12.639,10.826,9.146,22.229c0,0-1.995,17.166-6.357,19.418
					c0,0,23.273-0.529,18.596-23.65C838.592,1171.467,829.54,1147.19,814.719,1149.531z"/>
			</g>
			<g>
				<path fill="#40AA48" d="M515.717,1024.815c0,0,26.05-22.498,45.932,1.559C561.649,1026.373,545.461,1044.955,515.717,1024.815z"
					/>
				<path fill="#40AA48" d="M479.37,959.526c0,0,32.26-9.664,41.61,20.828C520.98,980.354,499.232,990.586,479.37,959.526z"/>
				<g>
					<path fill="#E46996" d="M544.196,952.58c3.229,2.492-21.024-17.738-33.206,5.879c0,0-3.443,9.73,4.998,30.105
						c0,0-6.396-33.871,11.203-31.137c0,0,4.147-5.215,11.016-0.654C538.207,956.774,546.723,952.865,544.196,952.58z"/>
					<path fill="#E46996" stroke="#FAD0DF" stroke-miterlimit="10" d="M510.515,960.571c0,0-0.401,22.412,4.078,27.271
						c0,0-9.044-11.949-9.574-21.178C505.019,966.664,507.088,960.908,510.515,960.571z"/>
					<path fill="#FAD0DF" d="M504.682,968.385c0,0-3.213,25.793,29.758,31.73c9.239,0.9,9.242,0.771,15.15-0.779
						c0,0-7.914,10.111-10.447,9.828c0,0,14.333-4.553,19.672-22.688l-1.076-9.08c0,0,0.715-10.332-0.981-16.229
						c0,0,0.354,34.039-17.956,19.207c0,0,10.416,0.93,11.083-9.133c0.308-3.43,0.665-8.961-7.673-8.502
						c0,0-1.706-5.734-1.811-5.203c-0.103,0.529,4.045-3.459,6.088-4.66c0,0-6.112,0.795-7.67,3.48c0,0-7.308-6.494-11.164,0.049
						c2.276,0.27-13.18-2.67-11.643,9.525c0,0-2.458,11.324-0.517,17.279c1.583,4.842-5.429-17.004-4.129-19.967
						c0,0-1.688,18.898,3.101,25.262C514.469,988.502,506.465,976.508,504.682,968.385z"/>
					<path fill="#E46996" d="M531.491,974.094c0,0-9.379-14.227,1.019-17.166c0,0,5.386-1.111,6.515,6.367
						C539.023,963.295,530.832,969.53,531.491,974.094z"/>
					<path fill="#E46996" d="M540.76,963.68c0,0,0.541-4.121-0.751-5.443c0,0,8.49-13.057,16.75,0.289
						c0,0,1.739,31.84-12.586,25.076c0,0-4.644-1.648-4.972-3.934c0,0,11.367,1.348,10.796-10.338
						C549.998,969.33,550.151,963.233,540.76,963.68z"/>
					<path fill="#E46996" d="M525.394,960.27c0,0-0.919,15.334,10.115,21.08c0,0-19.875-8.131-15.861-19.467
						C519.647,961.883,522.972,959.158,525.394,960.27z"/>
					<path fill="#E46996" d="M540.592,971.09c0,0,0.336,4.822-1.246,6.404c0,0,4.837,1.803,5.365-3.549
						C544.711,973.948,544.56,970.531,540.592,971.09z"/>
					<path fill="#E46996" d="M537.704,970.088c0,0,1.812,10.877-4.358,6.104c0,0,3.089-14.268,12.882-9.869
						c0,0,2.982,1.568,1.214,6.863C547.442,973.188,542.059,963.987,537.704,970.088z"/>
					<path fill="#E46996" d="M517.213,969.076c0,0-0.033,0.75-0.052,1.977c-0.095,5.373,0.063,20.012,4.459,22.111
						c0,0,22.271,8.809,29.7,1.896c0,0,7.572-7.641,4.145-13.957c0,0-6.255,11.592-23.352,1.412
						C532.113,982.516,520.031,975.862,517.213,969.076z"/>
					<path fill="#E46996" d="M556.961,961.133l0.152,9.225c0,0,11.203,12.461,7.35,30.93
						C564.464,1001.289,583.906,981.033,556.961,961.133z"/>
					<path fill="#E46996" d="M559.463,962.662c0,0,20.905,13.752,3.498,39.434C562.96,1002.096,586.613,983.602,559.463,962.662z"/>
					<path fill="#FAD0DF" d="M563.565,1003.346c0,0,18.446-23.631-5.009-40.992l0,0c0,0,16.53,8.877,5.907,38.934L563.565,1003.346z
						"/>
					<path fill="#E46996" d="M504.725,968.153c0,0-11.625,22.549,5.911,34.719c0,0,17.502,13,28.683,6.369
						c0,0,9.295-6.217,9.78-11.361c0,0-17.958,7.244-38.205-9.627C510.895,988.252,502.665,978.742,504.725,968.153z"/>
					<path fill="#E46996" d="M557.113,970.358l-0.076,4.51c0,0,4.299,15.762-4.241,22.594c0,0-10.307,12.174-14.842,11.395
						c0,0,18.349,13.125,26.51-7.566C564.464,1001.289,569.824,977.16,557.113,970.358z"/>
				</g>
				<g>
					<path fill="#D16FAC" d="M482.229,987.293c4.201,0.062-28.185-1.723-25.312,26.525c0,0,2.543,10.617,21.364,22.738
						c0,0-24.701-25.09-7.971-34.096c0,0,0.623-7.18,9.133-7.686C479.442,994.776,484.575,985.901,482.229,987.293z"/>
					<path fill="#D16FAC" d="M457.703,1015.94c0,0,12.35,19.598,18.969,20.896c0,0-14.578-4.465-20.262-12.086
						C456.41,1024.75,454.939,1018.449,457.703,1015.94z"/>
					<path fill="#FAD0DF" d="M457.096,1026.453c0,0,11.845,24.326,43.652,8.145c8.474-5.191,8.409-5.301,12.625-10.455
						c0,0-1.102,13.84-3.442,15.227c0,0,9.787-13.188,4.116-32.285l-6.075-7.137c0,0-5.228-9.373-10.035-13.361
						c0,0,19.593,29.131-4.608,28.168c0,0,9.512-5.928,4.38-15.045c-1.672-3.16-4.497-8.154-11.429-2.377
						c0,0-4.723-3.838-4.513-3.316c0.209,0.521,1.532-5.598,2.616-7.955c0,0-4.825,4.629-4.645,7.961c0,0-9.986-0.881-9.613,7.25
						c2.12-1.236-12.875,6.215-4.641,15.74c0,0,4.29,11.359,9.339,15.24c4.109,3.154-14.315-11.16-14.872-14.561
						c0,0,9.25,17.393,16.987,19.791C476.938,1037.485,463.233,1032.309,457.096,1026.453z"/>
					<path fill="#D16FAC" d="M483.466,1014.057c0,0-16.157-6.215-8.852-15.467c0,0,4.017-4.436,9.225,1.283
						C483.839,999.873,480.306,1010.547,483.466,1014.057z"/>
					<path fill="#D16FAC" d="M485.557,999.09c0,0-1.869-3.91-3.732-4.211c0,0-0.075-16.75,14.609-10.576
						c0,0,19.542,26.348,3.349,29.76c0,0-4.936,1.582-6.519-0.174c0,0,10.576-6.186,3.463-15.896
						C496.728,997.992,493.406,992.633,485.557,999.09z"/>
					<path fill="#D16FAC" d="M470.368,1006.071c0,0,7.895,13.82,20.669,11.654c0,0-21.751,5.822-24.712-6.553
						C466.326,1011.172,467.651,1006.676,470.368,1006.071z"/>
					<path fill="#D16FAC" d="M489.609,1005.582c0,0,3.027,3.951,2.548,6.336c0,0,5.199-1.568,2.621-6.529
						C494.779,1005.389,492.714,1002.539,489.609,1005.582z"/>
					<path fill="#D16FAC" d="M486.551,1006.59c0,0,7.725,8.211-0.303,8.086c0,0-5.417-14.309,5.52-16.842
						c0,0,3.464-0.576,4.934,5.133C496.702,1002.967,486.846,998.51,486.551,1006.59z"/>
					<path fill="#D16FAC" d="M468.301,1018.953c0,0,0.395,0.664,1.073,1.74c2.964,4.697,11.392,17.221,16.369,16.189
						c0,0,24.207-6.787,26.702-17.545c0,0,2.199-11.486-4.332-14.721c0,0,1.175,14.041-19.342,16.305
						C488.77,1020.922,474.577,1022.989,468.301,1018.953z"/>
					<path fill="#D16FAC" d="M498.092,986.424l5.354,7.855c0,0,16.728,3.516,23.87,21.939
						C527.313,1016.219,532.607,986.182,498.092,986.424z"/>
					<path fill="#D16FAC" d="M501.115,986.129c0,0,25.825-1.645,25.356,31.752C526.47,1017.881,536.4,986.647,501.115,986.129z"/>
					<path fill="#FAD0DF" d="M527.701,1018.565c0,0,2.527-32.297-27.537-32.119l0,0c0,0,19.284-3.02,27.151,29.775L527.701,1018.565
						z"/>
					<path fill="#D16FAC" d="M457.007,1026.223c0,0,2.737,26.961,24.761,26.137c0,0,22.462-0.09,28.355-13.037
						c0,0,4.492-11.373,1.997-16.119c0,0-11.384,17.848-38.405,16.373C473.716,1039.576,461.225,1036.69,457.007,1026.223z"/>
					<path fill="#D16FAC" d="M503.445,994.28l2.488,3.945c0,0,12.638,10.822,9.143,22.225c0,0-1.996,17.168-6.353,19.42
						c0,0,23.267-0.527,18.591-23.65C527.313,1016.219,518.263,991.942,503.445,994.28z"/>
				</g>
			</g>
			<g>
				<path fill="#40AA48" d="M662.027,1260.887c0,0,26.05-22.496,45.928,1.555C707.955,1262.442,691.772,1281.028,662.027,1260.887z"
					/>
				<path fill="#40AA48" d="M625.68,1195.598c0,0,32.261-9.666,41.611,20.828C667.29,1216.426,645.545,1226.658,625.68,1195.598z"/>
				<g>
					<path fill="#E46996" d="M690.507,1188.653c3.228,2.494-21.028-17.736-33.204,5.883c0,0-3.444,9.729,4.996,30.102
						c0,0-6.396-33.871,11.201-31.135c0,0,4.147-5.215,11.016-0.656C684.516,1192.846,693.035,1188.938,690.507,1188.653z"/>
					<path fill="#E46996" stroke="#FAD0DF" stroke-miterlimit="10" d="M656.827,1196.641c0,0-0.403,22.418,4.076,27.275
						c0,0-9.044-11.949-9.576-21.184C651.327,1202.733,653.398,1196.983,656.827,1196.641z"/>
					<path fill="#FAD0DF" d="M650.993,1204.455c0,0-3.21,25.795,29.759,31.732c9.238,0.898,9.241,0.771,15.148-0.779
						c0,0-7.912,10.115-10.442,9.832c0,0,14.329-4.555,19.669-22.695l-1.077-9.078c0,0,0.715-10.328-0.981-16.227
						c0,0,0.357,34.037-17.955,19.207c0,0,10.417,0.928,11.083-9.135c0.309-3.432,0.665-8.957-7.67-8.504
						c0,0-1.713-5.732-1.815-5.199c-0.101,0.529,4.043-3.459,6.09-4.664c0,0-6.113,0.793-7.67,3.482c0,0-7.309-6.494-11.166,0.047
						c2.277,0.271-13.184-2.668-11.641,9.529c0,0-2.457,11.322-0.519,17.279c1.585,4.842-5.429-17.006-4.126-19.969
						c0,0-1.69,18.896,3.102,25.262C660.781,1224.574,652.774,1212.58,650.993,1204.455z"/>
					<path fill="#E46996" d="M677.805,1210.166c0,0-9.383-14.229,1.014-17.168c0,0,5.386-1.107,6.516,6.363
						C685.334,1199.362,677.139,1205.602,677.805,1210.166z"/>
					<path fill="#E46996" d="M687.069,1199.75c0,0,0.545-4.117-0.754-5.438c0,0,8.489-13.061,16.753,0.285
						c0,0,1.738,31.842-12.585,25.072c0,0-4.642-1.643-4.974-3.93c0,0,11.367,1.348,10.797-10.338
						C696.308,1205.403,696.461,1199.305,687.069,1199.75z"/>
					<path fill="#E46996" d="M671.704,1196.34c0,0-0.92,15.336,10.114,21.088c0,0-19.875-8.139-15.858-19.471
						C665.96,1197.957,669.281,1195.229,671.704,1196.34z"/>
					<path fill="#E46996" d="M686.906,1207.158c0,0,0.331,4.826-1.251,6.404c0,0,4.838,1.803,5.366-3.547
						C691.021,1210.016,690.87,1206.604,686.906,1207.158z"/>
					<path fill="#E46996" d="M684.014,1206.16c0,0,1.816,10.875-4.355,6.105c0,0,3.087-14.268,12.882-9.873
						c0,0,2.983,1.572,1.212,6.865C693.752,1209.258,688.368,1200.057,684.014,1206.16z"/>
					<path fill="#E46996" d="M663.525,1205.153c0,0-0.036,0.746-0.055,1.973c-0.096,5.373,0.064,20.014,4.459,22.111
						c0,0,22.271,8.811,29.7,1.896c0,0,7.571-7.643,4.144-13.957c0,0-6.25,11.592-23.35,1.412
						C678.424,1218.588,666.341,1211.936,663.525,1205.153z"/>
					<path fill="#E46996" d="M703.271,1197.207l0.15,9.223c0,0,11.205,12.463,7.353,30.938
						C710.775,1237.367,730.216,1217.106,703.271,1197.207z"/>
					<path fill="#E46996" d="M705.773,1198.739c0,0,20.908,13.752,3.501,39.43C709.274,1238.168,732.926,1219.672,705.773,1198.739z
						"/>
					<path fill="#FAD0DF" d="M709.881,1239.414c0,0,18.445-23.631-5.01-40.986l0,0c0,0,16.527,8.879,5.904,38.939L709.881,1239.414z
						"/>
					<path fill="#E46996" d="M651.039,1204.225c0,0-11.628,22.547,5.906,34.721c0,0,17.498,12.996,28.684,6.369
						c0,0,9.293-6.223,9.775-11.363c0,0-17.954,7.244-38.2-9.627C657.205,1224.324,648.973,1214.815,651.039,1204.225z"/>
					<path fill="#E46996" d="M703.424,1206.43l-0.076,4.508c0,0,4.3,15.768-4.24,22.594c0,0-10.309,12.178-14.847,11.391
						c0,0,18.351,13.133,26.515-7.555C710.775,1237.367,716.133,1213.233,703.424,1206.43z"/>
				</g>
				<g>
					<path fill="#D16FAC" d="M628.538,1223.365c4.201,0.061-28.182-1.721-25.306,26.525c0,0,2.537,10.617,21.357,22.736
						c0,0-24.705-25.086-7.975-34.096c0,0,0.624-7.18,9.141-7.68C625.756,1230.85,630.885,1221.977,628.538,1223.365z"/>
					<path fill="#D16FAC" d="M604.013,1252.01c0,0,12.354,19.596,18.969,20.896c0,0-14.573-4.463-20.262-12.084
						C602.72,1260.821,601.25,1254.52,604.013,1252.01z"/>
					<path fill="#FAD0DF" d="M603.407,1262.526c0,0,11.844,24.326,43.651,8.143c8.477-5.193,8.409-5.299,12.622-10.453
						c0,0-1.096,13.838-3.439,15.223c0,0,9.788-13.182,4.116-32.279l-6.071-7.139c0,0-5.232-9.375-10.039-13.363
						c0,0,19.596,29.133-4.61,28.166c0,0,9.516-5.924,4.391-15.039c-1.676-3.158-4.503-8.158-11.437-2.381
						c0,0-4.721-3.838-4.509-3.314c0.209,0.525,1.529-5.6,2.608-7.955c0,0-4.819,4.631-4.641,7.959c0,0-9.986-0.879-9.608,7.254
						c2.12-1.24-12.883,6.213-4.645,15.74c0,0,4.292,11.355,9.339,15.236c4.11,3.154-14.312-11.158-14.868-14.559
						c0,0,9.245,17.395,16.982,19.795C623.25,1273.559,609.544,1268.381,603.407,1262.526z"/>
					<path fill="#D16FAC" d="M629.772,1250.125c0,0-16.157-6.211-8.851-15.465c0,0,4.019-4.434,9.227,1.287
						C630.149,1235.948,626.613,1246.619,629.772,1250.125z"/>
					<path fill="#D16FAC" d="M631.87,1235.16c0,0-1.871-3.91-3.735-4.207c0,0-0.075-16.756,14.614-10.576
						c0,0,19.537,26.344,3.348,29.758c0,0-4.939,1.58-6.519-0.174c0,0,10.572-6.186,3.459-15.898
						C643.037,1234.063,639.717,1228.705,631.87,1235.16z"/>
					<path fill="#D16FAC" d="M616.681,1242.143c0,0,7.89,13.822,20.666,11.652c0,0-21.751,5.826-24.712-6.551
						C612.635,1247.244,613.961,1242.75,616.681,1242.143z"/>
					<path fill="#D16FAC" d="M635.92,1241.656c0,0,3.021,3.947,2.551,6.332c0,0,5.197-1.566,2.617-6.527
						C641.089,1241.461,639.023,1238.614,635.92,1241.656z"/>
					<path fill="#D16FAC" d="M632.861,1242.662c0,0,7.726,8.209-0.299,8.084c0,0-5.422-14.311,5.517-16.842
						c0,0,3.462-0.576,4.935,5.139C643.014,1239.043,633.159,1234.58,632.861,1242.662z"/>
					<path fill="#D16FAC" d="M614.614,1255.024c0,0,0.391,0.67,1.07,1.74c2.964,4.697,11.391,17.223,16.372,16.193
						c0,0,24.204-6.791,26.694-17.551c0,0,2.205-11.484-4.324-14.719c0,0,1.172,14.041-19.347,16.307
						C635.079,1256.994,620.885,1259.059,614.614,1255.024z"/>
					<path fill="#D16FAC" d="M644.403,1222.494l5.356,7.861c0,0,16.725,3.512,23.868,21.936
						C673.627,1252.289,678.914,1222.254,644.403,1222.494z"/>
					<path fill="#D16FAC" d="M647.43,1222.198c0,0,25.827-1.643,25.35,31.756C672.779,1253.953,682.711,1222.717,647.43,1222.198z"
						/>
					<path fill="#FAD0DF" d="M674.012,1254.639c0,0,2.527-32.301-27.538-32.117l0,0c0,0,19.283-3.025,27.153,29.77L674.012,1254.639
						z"/>
					<path fill="#D16FAC" d="M603.314,1262.295c0,0,2.741,26.963,24.768,26.137c0,0,22.458-0.09,28.349-13.039
						c0,0,4.503-11.373,2.005-16.113c0,0-11.392,17.844-38.41,16.369C620.025,1275.649,607.534,1272.764,603.314,1262.295z"/>
					<path fill="#D16FAC" d="M649.759,1230.356l2.487,3.939c0,0,12.635,10.822,9.145,22.229c0,0-2,17.164-6.357,19.416
						c0,0,23.27-0.527,18.594-23.65C673.627,1252.289,664.576,1228.012,649.759,1230.356z"/>
				</g>
			</g>
			<g>
				<path fill="#40AA48" d="M885.235,1013.028c0,0,26.051-22.498,45.929,1.559C931.164,1014.586,914.982,1033.168,885.235,1013.028z
					"/>
				<path fill="#40AA48" d="M848.891,947.737c0,0,32.26-9.658,41.606,20.826C890.497,968.563,868.752,978.801,848.891,947.737z"/>
				<g>
					<path fill="#E46996" d="M913.712,940.791c3.232,2.492-21.022-17.732-33.202,5.883c0,0-3.442,9.73,4.994,30.104
						c0,0-6.393-33.869,11.205-31.137c0,0,4.147-5.217,11.019-0.654C907.728,944.985,916.242,941.078,913.712,940.791z"/>
					<path fill="#E46996" stroke="#FAD0DF" stroke-miterlimit="10" d="M880.034,948.781c0,0-0.4,22.414,4.083,27.273
						c0,0-9.048-11.951-9.583-21.176C874.533,954.879,876.611,949.125,880.034,948.781z"/>
					<path fill="#FAD0DF" d="M874.205,956.598c0,0-3.216,25.791,29.761,31.727c9.231,0.906,9.231,0.775,15.147-0.779
						c0,0-7.92,10.117-10.448,9.834c0,0,14.333-4.551,19.667-22.693l-1.074-9.078c0,0,0.717-10.33-0.981-16.225
						c0,0,0.358,34.035-17.957,19.209c0,0,10.42,0.928,11.088-9.141c0.306-3.432,0.664-8.959-7.671-8.498
						c0,0-1.709-5.736-1.816-5.201c-0.101,0.523,4.048-3.459,6.093-4.666c0,0-6.114,0.795-7.67,3.484c0,0-7.312-6.492-11.169,0.045
						c2.277,0.273-13.183-2.664-11.641,9.525c0,0-2.457,11.324-0.519,17.279c1.582,4.844-5.427-17.004-4.125-19.967
						c0,0-1.69,18.898,3.097,25.262C883.988,976.715,875.98,964.721,874.205,956.598z"/>
					<path fill="#E46996" d="M901.012,962.309c0,0-9.384-14.232,1.015-17.168c0,0,5.389-1.109,6.521,6.365
						C908.548,951.506,900.352,957.742,901.012,962.309z"/>
					<path fill="#E46996" d="M910.275,951.897c0,0,0.546-4.125-0.748-5.445c0,0,8.491-13.059,16.75,0.289
						c0,0,1.738,31.84-12.582,25.072c0,0-4.646-1.65-4.977-3.928c0,0,11.374,1.346,10.799-10.342
						C919.519,957.543,919.672,951.446,910.275,951.897z"/>
					<path fill="#E46996" d="M894.91,948.481c0,0-0.916,15.334,10.115,21.086c0,0-19.871-8.135-15.858-19.473
						C889.167,950.094,892.492,947.371,894.91,948.481z"/>
					<path fill="#E46996" d="M910.111,959.299c0,0,0.335,4.828-1.248,6.404c0,0,4.839,1.807,5.365-3.547
						C914.228,962.156,914.08,958.744,910.111,959.299z"/>
					<path fill="#E46996" d="M907.224,958.303c0,0,1.813,10.877-4.36,6.105c0,0,3.091-14.268,12.883-9.873
						c0,0,2.987,1.566,1.214,6.861C916.96,961.397,911.579,952.198,907.224,958.303z"/>
					<path fill="#E46996" d="M886.732,957.289c0,0-0.03,0.748-0.05,1.977c-0.099,5.375,0.06,20.014,4.458,22.107
						c0,0,22.273,8.814,29.699,1.9c0,0,7.57-7.641,4.144-13.955c0,0-6.249,11.59-23.348,1.41
						C901.635,970.731,889.553,964.078,886.732,957.289z"/>
					<path fill="#E46996" d="M926.481,949.346l0.151,9.229c0,0,11.205,12.457,7.354,30.93
						C933.987,989.504,953.426,969.246,926.481,949.346z"/>
					<path fill="#E46996" d="M928.983,950.877c0,0,20.908,13.752,3.498,39.434C932.481,990.311,956.137,971.817,928.983,950.877z"/>
					<path fill="#FAD0DF" d="M933.092,991.559c0,0,18.444-23.633-5.013-40.99l0,0c0,0,16.527,8.877,5.908,38.936L933.092,991.559z"
						/>
					<path fill="#E46996" d="M874.244,956.365c0,0-11.624,22.547,5.907,34.725c0,0,17.503,12.994,28.688,6.367
						c0,0,9.294-6.225,9.774-11.365c0,0-17.953,7.248-38.196-9.625C880.418,976.467,872.184,966.953,874.244,956.365z"/>
					<path fill="#E46996" d="M926.633,958.574l-0.076,4.508c0,0,4.297,15.762-4.236,22.59c0,0-10.312,12.176-14.854,11.395
						c0,0,18.355,13.129,26.52-7.562C933.987,989.504,939.342,965.373,926.633,958.574z"/>
				</g>
				<g>
					<path fill="#D16FAC" d="M851.752,975.504c4.197,0.064-28.188-1.715-25.314,26.525c0,0,2.539,10.621,21.365,22.738
						c0,0-24.705-25.086-7.974-34.09c0,0,0.624-7.186,9.136-7.686C848.965,982.992,854.095,974.117,851.752,975.504z"/>
					<path fill="#D16FAC" d="M827.222,1004.153c0,0,12.351,19.596,18.966,20.895c0,0-14.574-4.463-20.26-12.08
						C825.928,1012.967,824.461,1006.662,827.222,1004.153z"/>
					<path fill="#FAD0DF" d="M826.616,1014.664c0,0,11.844,24.33,43.651,8.148c8.477-5.193,8.404-5.305,12.626-10.457
						c0,0-1.101,13.838-3.439,15.223c0,0,9.783-13.182,4.111-32.279l-6.07-7.137c0,0-5.231-9.377-10.041-13.361
						c0,0,19.594,29.131-4.606,28.166c0,0,9.512-5.928,4.385-15.043c-1.677-3.16-4.502-8.16-11.435-2.379
						c0,0-4.722-3.84-4.512-3.314c0.213,0.518,1.528-5.596,2.612-7.955c0,0-4.821,4.631-4.645,7.957c0,0-9.983-0.879-9.605,7.256
						c2.117-1.24-12.883,6.215-4.644,15.736c0,0,4.295,11.357,9.34,15.244c4.112,3.152-14.315-11.168-14.873-14.562
						c0,0,9.245,17.395,16.982,19.787C846.454,1025.696,832.756,1020.524,826.616,1014.664z"/>
					<path fill="#D16FAC" d="M852.984,1002.266c0,0-16.155-6.209-8.85-15.461c0,0,4.013-4.434,9.228,1.283
						C853.362,988.088,849.824,998.758,852.984,1002.266z"/>
					<path fill="#D16FAC" d="M855.075,987.301c0,0-1.867-3.908-3.73-4.211c0,0-0.073-16.748,14.613-10.57
						c0,0,19.535,26.342,3.346,29.76c0,0-4.941,1.576-6.519-0.176c0,0,10.577-6.186,3.465-15.9
						C866.251,986.205,862.926,980.844,855.075,987.301z"/>
					<path fill="#D16FAC" d="M839.889,994.285c0,0,7.895,13.822,20.669,11.652c0,0-21.752,5.822-24.714-6.551
						C835.844,999.387,837.171,994.891,839.889,994.285z"/>
					<path fill="#D16FAC" d="M859.129,993.795c0,0,3.025,3.945,2.549,6.336c0,0,5.196-1.57,2.616-6.527
						C864.295,993.604,862.233,990.754,859.129,993.795z"/>
					<path fill="#D16FAC" d="M856.069,994.805c0,0,7.724,8.213-0.298,8.08c0,0-5.421-14.307,5.517-16.838
						c0,0,3.466-0.578,4.933,5.135C866.221,991.182,856.368,986.725,856.069,994.805z"/>
					<path fill="#D16FAC" d="M837.821,1007.164c0,0,0.396,0.666,1.071,1.74c2.962,4.701,11.393,17.229,16.374,16.197
						c0,0,24.203-6.793,26.698-17.555c0,0,2.199-11.482-4.333-14.717c0,0,1.174,14.037-19.342,16.301
						C858.288,1009.133,844.092,1011.199,837.821,1007.164z"/>
					<path fill="#D16FAC" d="M867.613,974.635l5.352,7.863c0,0,16.732,3.506,23.869,21.932
						C896.834,1004.43,902.127,974.397,867.613,974.635z"/>
					<path fill="#D16FAC" d="M870.637,974.342c0,0,25.825-1.643,25.358,31.752C895.995,1006.094,905.922,974.862,870.637,974.342z"
						/>
					<path fill="#FAD0DF" d="M897.22,1006.78c0,0,2.528-32.301-27.537-32.119l0,0c0,0,19.288-3.02,27.152,29.77L897.22,1006.78z"/>
					<path fill="#D16FAC" d="M826.527,1014.438c0,0,2.737,26.963,24.765,26.133c0,0,22.456-0.094,28.351-13.037
						c0,0,4.498-11.369,2-16.115c0,0-11.388,17.848-38.408,16.369C843.234,1027.787,830.742,1024.905,826.527,1014.438z"/>
					<path fill="#D16FAC" d="M872.965,982.498l2.487,3.938c0,0,12.638,10.824,9.146,22.23c0,0-1.997,17.164-6.354,19.414
						c0,0,23.266-0.525,18.59-23.65C896.834,1004.43,887.786,980.151,872.965,982.498z"/>
				</g>
			</g>
			<g>
				<path fill="#40AA48" d="M717.467,1053.27c0,0,26.049-22.496,45.928,1.557C763.395,1054.826,747.213,1073.41,717.467,1053.27z"/>
				<path fill="#40AA48" d="M681.123,987.979c0,0,32.258-9.662,41.612,20.828C722.734,1008.807,700.98,1019.041,681.123,987.979z"/>
				<g>
					<path fill="#E46996" d="M745.945,981.037c3.229,2.49-21.023-17.74-33.203,5.879c0,0-3.45,9.73,5,30.102
						c0,0-6.396-33.871,11.2-31.133c0,0,4.145-5.219,11.017-0.656C739.959,985.229,748.473,981.319,745.945,981.037z"/>
					<path fill="#E46996" stroke="#FAD0DF" stroke-miterlimit="10" d="M712.268,989.024c0,0-0.4,22.412,4.078,27.273
						c0,0-9.05-11.953-9.582-21.18C706.764,995.117,708.842,989.367,712.268,989.024z"/>
					<path fill="#FAD0DF" d="M706.434,996.838c0,0-3.211,25.793,29.758,31.732c9.238,0.9,9.238,0.773,15.15-0.779
						c0,0-7.916,10.115-10.444,9.828c0,0,14.329-4.549,19.669-22.688l-1.077-9.08c0,0,0.719-10.33-0.981-16.225
						c0,0,0.36,34.035-17.958,19.205c0,0,10.421,0.928,11.086-9.137c0.312-3.43,0.667-8.959-7.668-8.498
						c0,0-1.715-5.734-1.816-5.203c-0.103,0.525,4.047-3.461,6.089-4.666c0,0-6.109,0.795-7.667,3.484c0,0-7.312-6.49-11.169,0.047
						c2.281,0.268-13.181-2.668-11.642,9.527c0,0-2.458,11.324-0.514,17.279c1.581,4.838-5.433-17.004-4.129-19.969
						c0,0-1.695,18.896,3.097,25.262C716.219,1016.959,708.212,1004.965,706.434,996.838z"/>
					<path fill="#E46996" d="M733.244,1002.553c0,0-9.383-14.232,1.012-17.17c0,0,5.389-1.109,6.518,6.371
						C740.773,991.752,732.58,997.987,733.244,1002.553z"/>
					<path fill="#E46996" d="M742.51,992.137c0,0,0.541-4.123-0.748-5.443c0,0,8.482-13.057,16.746,0.289
						c0,0,1.743,31.842-12.586,25.072c0,0-4.641-1.645-4.977-3.93c0,0,11.375,1.35,10.806-10.34
						C751.752,997.785,751.905,991.686,742.51,992.137z"/>
					<path fill="#E46996" d="M727.145,988.725c0,0-0.916,15.33,10.114,21.084c0,0-19.874-8.135-15.858-19.469
						C721.4,990.34,724.721,987.615,727.145,988.725z"/>
					<path fill="#E46996" d="M742.346,999.543c0,0,0.335,4.826-1.251,6.404c0,0,4.837,1.807,5.362-3.549
						C746.457,1002.399,746.313,998.987,742.346,999.543z"/>
					<path fill="#E46996" d="M739.453,998.545c0,0,1.812,10.877-4.36,6.102c0,0,3.091-14.268,12.887-9.871
						c0,0,2.979,1.57,1.212,6.865C749.191,1001.641,743.81,992.442,739.453,998.545z"/>
					<path fill="#E46996" d="M718.962,997.531c0,0-0.032,0.75-0.052,1.979c-0.096,5.371,0.065,20.012,4.459,22.107
						c0,0,22.271,8.812,29.7,1.898c0,0,7.572-7.643,4.146-13.955c0,0-6.255,11.594-23.351,1.412
						C733.865,1010.973,721.781,1004.317,718.962,997.531z"/>
					<path fill="#E46996" d="M758.714,989.59l0.151,9.225c0,0,11.205,12.463,7.352,30.934
						C766.217,1029.748,785.655,1009.489,758.714,989.59z"/>
					<path fill="#E46996" d="M761.215,991.123c0,0,20.902,13.748,3.499,39.426C764.714,1030.549,788.363,1012.057,761.215,991.123z"
						/>
					<path fill="#FAD0DF" d="M765.318,1031.801c0,0,18.447-23.631-5.009-40.99l0,0c0,0,16.528,8.877,5.907,38.938L765.318,1031.801z
						"/>
					<path fill="#E46996" d="M706.479,996.608c0,0-11.627,22.547,5.908,34.721c0,0,17.501,12.996,28.682,6.367
						c0,0,9.297-6.219,9.779-11.361c0,0-17.959,7.246-38.199-9.625C712.648,1016.709,704.418,1007.199,706.479,996.608z"/>
					<path fill="#E46996" d="M758.865,998.815l-0.08,4.512c0,0,4.298,15.76-4.238,22.59c0,0-10.304,12.178-14.842,11.396
						c0,0,18.352,13.125,26.513-7.564C766.217,1029.748,771.573,1005.617,758.865,998.815z"/>
				</g>
				<g>
					<path fill="#D16FAC" d="M683.98,1015.75c4.195,0.061-28.187-1.723-25.312,26.521c0,0,2.543,10.619,21.364,22.74
						c0,0-24.705-25.088-7.976-34.092c0,0,0.625-7.186,9.134-7.686C681.191,1023.235,686.324,1014.36,683.98,1015.75z"/>
					<path fill="#D16FAC" d="M659.453,1044.395c0,0,12.35,19.598,18.969,20.896c0,0-14.573-4.465-20.262-12.088
						C658.16,1053.203,656.689,1046.903,659.453,1044.395z"/>
					<path fill="#FAD0DF" d="M658.85,1054.91c0,0,11.838,24.324,43.646,8.145c8.479-5.193,8.41-5.301,12.63-10.459
						c0,0-1.104,13.84-3.443,15.227c0,0,9.783-13.182,4.112-32.281l-6.072-7.133c0,0-5.232-9.377-10.038-13.367
						c0,0,19.589,29.131-4.61,28.168c0,0,9.517-5.928,4.388-15.041c-1.674-3.162-4.496-8.158-11.428-2.379
						c0,0-4.732-3.842-4.52-3.316c0.217,0.521,1.533-5.596,2.611-7.953c0,0-4.82,4.631-4.644,7.955c0,0-9.979-0.879-9.605,7.256
						c2.124-1.238-12.882,6.213-4.645,15.738c0,0,4.294,11.357,9.338,15.24c4.111,3.156-14.312-11.162-14.867-14.559
						c0,0,9.246,17.393,16.979,19.791C678.685,1065.942,664.986,1060.77,658.85,1054.91z"/>
					<path fill="#D16FAC" d="M685.212,1042.514c0,0-16.154-6.215-8.852-15.467c0,0,4.021-4.438,9.228,1.281
						C685.589,1028.33,682.055,1039.002,685.212,1042.514z"/>
					<path fill="#D16FAC" d="M687.307,1027.545c0,0-1.868-3.91-3.729-4.211c0,0-0.075-16.748,14.609-10.572
						c0,0,19.537,26.344,3.352,29.758c0,0-4.939,1.578-6.521-0.176c0,0,10.572-6.184,3.46-15.896
						C698.478,1026.448,695.155,1021.088,687.307,1027.545z"/>
					<path fill="#D16FAC" d="M672.12,1034.528c0,0,7.894,13.822,20.669,11.652c0,0-21.755,5.826-24.715-6.547
						C668.076,1039.633,669.403,1035.129,672.12,1034.528z"/>
					<path fill="#D16FAC" d="M691.354,1034.039c0,0,3.026,3.947,2.558,6.334c0,0,5.195-1.568,2.619-6.531
						C696.531,1033.842,694.467,1030.994,691.354,1034.039z"/>
					<path fill="#D16FAC" d="M688.301,1035.043c0,0,7.729,8.213-0.3,8.084c0,0-5.421-14.305,5.521-16.838
						c0,0,3.463-0.58,4.933,5.139C698.454,1031.426,688.6,1026.965,688.301,1035.043z"/>
					<path fill="#D16FAC" d="M670.057,1047.408c0,0,0.387,0.664,1.07,1.74c2.957,4.695,11.391,17.221,16.369,16.189
						c0,0,24.206-6.787,26.698-17.545c0,0,2.2-11.486-4.329-14.719c0,0,1.172,14.039-19.344,16.303
						C690.521,1049.377,676.326,1051.444,670.057,1047.408z"/>
					<path fill="#D16FAC" d="M699.839,1014.879l5.359,7.863c0,0,16.724,3.504,23.866,21.932
						C729.064,1044.674,734.357,1014.639,699.839,1014.879z"/>
					<path fill="#D16FAC" d="M702.865,1014.584c0,0,25.828-1.643,25.357,31.752C728.223,1046.334,738.15,1015.104,702.865,1014.584z
						"/>
					<path fill="#FAD0DF" d="M729.451,1047.022c0,0,2.53-32.297-27.539-32.119l0,0c0,0,19.284-3.021,27.152,29.771L729.451,1047.022
						z"/>
					<path fill="#D16FAC" d="M658.754,1054.678c0,0,2.743,26.961,24.768,26.135c0,0,22.461-0.09,28.353-13.035
						c0,0,4.495-11.373,1.998-16.115c0,0-11.386,17.848-38.406,16.371C675.466,1068.033,662.975,1065.149,658.754,1054.678z"/>
					<path fill="#D16FAC" d="M705.198,1022.74l2.488,3.938c0,0,12.638,10.826,9.144,22.229c0,0-2,17.164-6.354,19.42
						c0,0,23.267-0.529,18.589-23.652C729.064,1044.674,720.018,1020.397,705.198,1022.74z"/>
				</g>
			</g>
		</g>
	</g>
</g>
<path fill="#FFFCFA" d="M787.584,726.396c0,6.967-20.849,11.595-26.758,11.595l-81.168,4.202c-5.91,0-10.705-5.648-10.705-12.612
	l14.273-25.887c0-6.968,48.498-16.544,54.411-16.544h43.703c5.911,0,9.076,16.542,9.076,23.508L787.584,726.396z"/>
<path fill="#FFFCFA" d="M535.912,732.051c0.502,6.947,21.627,10.061,27.524,9.637l81.258-1.658
	c5.895-0.428,10.27-6.404,9.768-13.354l-16.101-24.791c-0.502-6.948-49.562-13.003-55.459-12.578l-43.59,3.151
	c-5.898,0.425-7.862,17.153-7.359,24.098L535.912,732.051z"/>
<path fill="none" stroke="#FDE9F1" stroke-width="4" stroke-miterlimit="10" d="M663.729,714.672c0,0,4.957,81.288-158.502,84.184"
	/>
<path fill="#F6A9C1" d="M682.58,720.382c0,7.88-4.29,14.755-10.662,18.42c-2.137,1.231-4.51,2.1-7.029,2.524
	c-1.152,0.189-2.336,0.293-3.546,0.293c-11.729,0-21.235-9.508-21.235-21.237c0-11.728,9.506-21.237,21.235-21.237
	C673.073,699.144,682.58,708.654,682.58,720.382z"/>
<path fill="#D0D2D5" d="M1004.615,534.15c0,37.902-20.112,68.628-44.922,68.628c-24.808,0-44.917-30.727-44.917-68.628
	c0-37.903,20.109-68.628,44.917-68.628C984.503,465.521,1004.615,496.247,1004.615,534.15z"/>
<path fill="#D4D8DE" d="M952.979,602.778h15.258c0,0,1.905,196.238,5.72,198.146c0,0,10.884,42.588-14.264,47.674
	c0,0-21.967,2.541-12.435-60.385l6.358-124.585L952.979,602.778z"/>
<path fill="#D0D2D5" d="M384.655,416.617c0,0-28.226,138.916,3.715,154.516c0,0,6.687,17.085,6.687,23.77
	c0,0,0.744,161.945-3.712,161.945c0,0-19.318,97.348,10.396,95.102c0,0,29.007,5.922,11.145-95.844l-2.971-170.116
	c0,0,0.743-12.972,11.885-21.342c0,0,12.628-11.345,8.17-49.975c0,0-3.714-86.912-12.628-98.056l4.458,101.77
	c0,0-5.2,19.314-6.686-5.2c0,0-2.972-95.826-8.172-96.57l-0.741,77.999c0,0-0.746,46.8-8.172,25.257
	c0,0-1.486-103.252-1.486-103.256l-7.427,94.342c0,0-0.246,31.418-7.429,4.456L384.655,416.617z"/>
<g>
	<path fill="#ED1F24" d="M725.657,646.084c-5.033-3.617-10.492-6.578-16.106-9.132c-5.611-2.574-11.409-4.712-17.312-6.472
		c-5.909-1.736-11.92-3.124-18.002-4.077c-6.077-0.974-12.214-1.573-18.366-1.774c-6.151-0.237-12.316-0.081-18.457,0.402
		c-6.145,0.459-12.259,1.306-18.331,2.395c-6.068,1.115-12.091,2.506-18.046,4.166c-2.984,0.812-5.949,1.695-8.896,2.644
		c-1.474,0.473-2.941,0.966-4.405,1.468c-1.468,0.494-2.932,1.004-4.391,1.527c1.422-0.617,2.85-1.221,4.285-1.811
		c1.438-0.578,2.884-1.138,4.337-1.685c2.904-1.092,5.833-2.123,8.788-3.083c5.918-1.893,11.934-3.5,18.028-4.757
		c6.091-1.283,12.267-2.174,18.471-2.75c6.209-0.547,12.454-0.72,18.688-0.512c6.232,0.243,12.454,0.857,18.603,1.909
		c6.144,1.072,12.228,2.519,18.153,4.453c5.935,1.911,11.719,4.272,17.273,7.079c2.771,1.418,5.483,2.944,8.117,4.593
		C720.722,642.315,723.292,644.076,725.657,646.084z"/>
</g>
<path fill="#ED1F24" d="M640.107,623.676c0,0,18.755-0.281,28.846,0.034c0,0,32.717,49.327-9.255,52.101
	C659.698,675.811,625.934,679.21,640.107,623.676z"/>
<g>
	<path fill="#C11F54" d="M659.262,667.191c-2.264-2.567-3.999-5.687-5.412-9.025c-1.421-3.343-2.461-6.985-3.02-10.867
		c-0.547-3.877-0.613-8.027,0.141-12.235c0.712-4.183,2.281-8.453,4.765-11.951c-1.373,4.019-2.116,7.928-2.358,11.75
		c-0.214,3.818,0.021,7.537,0.536,11.166C654.951,653.316,657.031,660.178,659.262,667.191z"/>
</g>
</svg>
