<?xml version="1.0" encoding="utf-8"?>
<!-- Generator: Adobe Illustrator 15.1.0, SVG Export Plug-In . SVG Version: 6.00 Build 0)  -->
<!DOCTYPE svg PUBLIC "-//W3C//DTD SVG 1.1//EN" "http://www.w3.org/Graphics/SVG/1.1/DTD/svg11.dtd">
<svg version="1.1" id="Layer_1" xmlns="http://www.w3.org/2000/svg" xmlns:xlink="http://www.w3.org/1999/xlink" x="0px" y="0px"
	 width="474.831px" height="535.324px" viewBox="0 0 474.831 535.324" enable-background="new 0 0 474.831 535.324"
	 xml:space="preserve">
<g>
	<path fill="#2D2E2D" d="M141.795,138.406c0,0,25.004-107.604,169.291-97.075c0,0,125.336,39.153,100.952,151.282
		c-0.19,1.963,5.267,265.318-312.44,261.135c0,0-81.038-3.549-58.307-76.774c0,0,4.284-11.743,25.368-20.967
		c0,0,33.383-4.613,19.327,25.578c0,0,0.44-20.546-19.765-8.387c0,0-10.984,21.386,20.203,25.578c0,0,41.293,8.807,58.862-39.415
		c0,0,2.51-52.775-2.321-80.032C142.964,279.329,133.88,148.78,141.795,138.406z"/>
	<path fill="#F8E0CA" d="M386.514,163.106c0,73.371,24.76,93.442-110.501,93.442c-108.997,0-110.506-12.372-110.506-93.442
		c0-69.913,25.868-82.622,106.097-82.622C371.057,80.484,386.514,103.237,386.514,163.106z"/>
	<path fill="none" stroke="#F8B77F" stroke-miterlimit="10" d="M276.139,181.99c0,0-0.931,3.17-11.139,9.938
		c0,0,0,9.551,11.139,8.623"/>
	<path fill="#2D2E2D" d="M304.365,55.75c0,0-148.283-35.39-143.567,110.212c0,0,9.944-5.099,26.895-10.626l13.24-48.264
		l12.917,41.122c12.843-2.852,27.542-5.173,43.555-6.105l17.352-45.54l24.157,46.502c9.615,1.032,19.481,2.674,29.52,5.065
		L323.1,96.549l29.363,58.691c13.165,4.695,26.498,10.801,39.815,18.607C392.279,173.848,407.842,55.625,304.365,55.75z"/>
	<line fill="none" x1="187.693" y1="155.336" x2="187.457" y2="156.19"/>
	<polygon opacity="0.67" fill="#F6D0B0" enable-background="new    " points="165.403,175.838 195.393,155.336 200.935,107.283 
		187.693,155.336 165.506,163.106 	"/>
	<polygon opacity="0.67" fill="#F6D0B0" enable-background="new    " points="274.759,96.55 265.001,141.562 257.406,142.089 	"/>
	<polygon fill="#F6D0B0" points="284.68,115.649 294.192,142.089 298.915,143.052 	"/>
	<polyline fill="#F6D0B0" points="323.381,99.255 345.12,155.336 352.463,155.241 323.101,96.55 	"/>
	<path fill="#F6D0B0" d="M386.683,173.848c0,0,1.119,68.399-58.165,81.094c0,0,60.843,4.421,59.774-40.546L386.683,173.848z"/>
	<g>
		<path fill="#9B6127" d="M346.034,170.539c0.571,0.275,1.155,0.518,1.756,0.712c0.597,0.203,1.204,0.364,1.822,0.465
			c1.227,0.2,2.516,0.182,3.628-0.335c1.123-0.497,1.948-1.499,2.469-2.622c0.268-0.563,0.465-1.162,0.621-1.771
			c0.166-0.609,0.275-1.232,0.375-1.857c-0.047,1.266-0.249,2.545-0.741,3.741c-0.242,0.598-0.58,1.166-1.007,1.661
			c-0.43,0.494-0.969,0.901-1.566,1.178c-1.211,0.551-2.581,0.55-3.83,0.279C348.306,171.713,347.107,171.218,346.034,170.539z"/>
	</g>
	<g>
		<path fill="#9B6127" d="M346.813,178.287c0.57,0.276,1.157,0.518,1.755,0.712c0.596,0.203,1.206,0.364,1.823,0.464
			c1.226,0.2,2.515,0.182,3.628-0.334c1.122-0.498,1.947-1.499,2.469-2.623c0.269-0.562,0.466-1.161,0.621-1.771
			c0.166-0.608,0.275-1.232,0.375-1.857c-0.046,1.265-0.249,2.544-0.742,3.742c-0.243,0.597-0.579,1.163-1.008,1.66
			c-0.429,0.495-0.968,0.901-1.564,1.177c-1.211,0.552-2.584,0.55-3.831,0.279C349.082,179.462,347.888,178.967,346.813,178.287z"/>
	</g>
	<g>
		<path fill="#FFFFFF" d="M347.874,178.652c0,10.655-8.877,19.293-19.827,19.293c-10.949,0-19.824-8.638-19.824-19.293
			c0-10.656,8.875-19.292,19.824-19.292C338.997,159.359,347.874,167.995,347.874,178.652z"/>
	</g>
	<g>
		<path d="M336.016,178.652c0,7.469-6.222,13.524-13.898,13.524c-7.676,0-13.895-6.055-13.895-13.524
			c0-7.469,6.219-13.523,13.895-13.523C329.794,165.128,336.016,171.183,336.016,178.652z"/>
	</g>
	<g>
		<path fill="#9B6127" d="M206.795,168.2c-1.074,0.679-2.27,1.174-3.525,1.448c-1.247,0.271-2.619,0.272-3.831-0.278
			c-0.599-0.277-1.136-0.684-1.565-1.178c-0.429-0.496-0.766-1.062-1.007-1.661c-0.492-1.196-0.695-2.475-0.741-3.741
			c0.101,0.626,0.208,1.25,0.375,1.858c0.156,0.609,0.353,1.208,0.621,1.771c0.52,1.124,1.347,2.125,2.469,2.624
			c1.112,0.517,2.403,0.534,3.628,0.335c0.616-0.101,1.226-0.263,1.821-0.465C205.639,168.718,206.224,168.476,206.795,168.2z"/>
	</g>
	<g>
		<path fill="#9B6127" d="M206.015,175.95c-1.074,0.679-2.27,1.173-3.525,1.449c-1.249,0.271-2.621,0.272-3.831-0.279
			c-0.599-0.276-1.135-0.684-1.566-1.178c-0.428-0.497-0.764-1.062-1.006-1.662c-0.493-1.195-0.694-2.474-0.741-3.74
			c0.1,0.626,0.208,1.25,0.374,1.859c0.156,0.609,0.353,1.207,0.62,1.769c0.521,1.123,1.347,2.126,2.469,2.623
			c1.113,0.518,2.403,0.534,3.628,0.334c0.617-0.101,1.226-0.263,1.822-0.465C204.859,176.467,205.445,176.225,206.015,175.95z"/>
	</g>
	<g>
		<ellipse fill="#FFFFFF" cx="224.782" cy="176.312" rx="19.827" ry="19.294"/>
	</g>
	<g>
		<ellipse cx="230.711" cy="176.313" rx="13.898" ry="13.523"/>
	</g>
	<path fill="#8C173D" d="M316.418,246.175c0,4.905-5.083,8.882-11.354,8.882h-59.943c-6.266,0-11.35-3.977-11.35-8.882v-24.026
		c0-4.907,5.083-8.882,11.35-8.882h59.943c6.27,0,11.354,3.976,11.354,8.882V246.175L316.418,246.175z"/>
	<path fill="#C11E55" d="M234.403,238.878c0,0,23.138-23.084,41.325-4.107c0,0,22.396-17.089,41.323,1.396v10.615
		c0,0-0.276,9.476-17.353,8.883l-56.096,0.025C243.602,255.69,231.915,254.237,234.403,238.878z"/>
	<path fill="#F8E0CA" d="M388.354,329.519c31.357-47.083,49.575-90.05,32.67-101.31c-8.768-5.839-29.097,35.721-60.454,82.805
		c-31.358,47.083-61.872,81.861-53.102,87.702C316.235,404.556,356.994,376.605,388.354,329.519z"/>
	<path fill="#F6D0B0" d="M421.023,228.211c0,0-86.999,136.856-113.556,170.507c0,0-11.25-7.99,51.018-84.592l30.038-47.279
		C388.523,266.848,416.928,223.811,421.023,228.211z"/>
	<path fill="#F8E0CA" d="M188.006,329.253c-31.357-47.084-49.574-90.05-32.668-101.31c8.768-5.84,29.096,35.722,60.454,82.805
		c31.359,47.083,61.872,81.862,53.103,87.701C260.125,404.291,219.366,376.338,188.006,329.253z"/>
	<path fill="#F6D0B0" d="M155.336,227.944c0,0,86.999,136.855,113.557,170.506c0,0,11.25-7.989-51.018-84.591l-30.04-47.278
		C187.835,266.582,159.432,223.546,155.336,227.944z"/>
	<g>
		<g>
			<g>
				<g>
					<defs>
						<path id="SVGID_1_" d="M209.19,288.361l-10.916,193.02c0,0,96.432,59.538,187.045,1.399l-35.396-201.235l-1.605-26.765
							l-137.508,4.983L209.19,288.361z"/>
					</defs>
					<clipPath id="SVGID_2_">
						<use xlink:href="#SVGID_1_"  overflow="visible"/>
					</clipPath>
					<g clip-path="url(#SVGID_2_)">
						<path fill="#95281E" d="M209.713,286.976l-10.916,193.02c0,0,96.433,59.538,187.047,1.4l-33.84-201.238l-1.605-26.762
							l-139.069,4.981L209.713,286.976z"/>
						<path fill="#40AA48" d="M231.457,470.131c0,0,12.083-10.437,21.305,0.725C252.761,470.852,245.255,479.471,231.457,470.131z"
							/>
						<path fill="#40AA48" d="M214.596,439.843c0,0,14.964-4.482,19.301,9.662C233.897,449.505,223.81,454.252,214.596,439.843z"/>
						<g>
							<path fill="#E46996" d="M244.667,436.619c1.498,1.156-9.754-8.226-15.403,2.729c0,0-1.599,4.514,2.319,13.966
								c0,0-2.969-15.714,5.196-14.443c0,0,1.924-2.422,5.11-0.305C241.889,438.567,245.841,436.755,244.667,436.619z"/>
							<path fill="#E46996" stroke="#FAD0DF" stroke-miterlimit="10" d="M229.045,440.326c0,0-0.188,10.396,1.892,12.651
								c0,0-4.196-5.545-4.443-9.826C226.492,443.151,227.452,440.483,229.045,440.326z"/>
							<path fill="#FAD0DF" d="M226.338,443.952c0,0-1.49,11.965,13.806,14.722c4.283,0.415,4.285,0.356,7.028-0.362
								c0,0-3.674,4.693-4.846,4.558c0,0,6.649-2.11,9.123-10.525l-0.499-4.21c0,0,0.333-4.794-0.455-7.529
								c0,0,0.167,15.792-8.332,8.911c0,0,4.835,0.431,5.143-4.24c0.146-1.59,0.309-4.154-3.556-3.943c0,0-0.794-2.658-0.844-2.411
								c-0.047,0.244,1.877-1.606,2.826-2.164c0,0-2.835,0.367-3.556,1.616c0,0-3.392-3.013-5.181,0.021
								c1.054,0.126-6.115-1.237-5.399,4.42c0,0-1.141,5.252-0.239,8.016c0.729,2.246-2.522-7.889-1.917-9.264
								c0,0-0.784,8.766,1.437,11.718C230.877,453.285,227.162,447.721,226.338,443.952z"/>
							<path fill="#E46996" d="M238.775,446.6c0,0-4.352-6.601,0.471-7.964c0,0,2.497-0.514,3.021,2.955
								C242.268,441.592,238.468,444.484,238.775,446.6z"/>
							<path fill="#E46996" d="M243.072,441.77c0,0,0.253-1.912-0.348-2.524c0,0,3.938-6.058,7.769,0.134
								c0,0,0.81,14.77-5.834,11.632c0,0-2.155-0.764-2.309-1.823c0,0,5.276,0.623,5.011-4.797
								C247.361,444.391,247.431,441.562,243.072,441.77z"/>
							<path fill="#E46996" d="M235.945,440.187c0,0-0.427,7.115,4.691,9.782c0,0-9.22-3.775-7.355-9.031
								C233.283,440.938,234.823,439.671,235.945,440.187z"/>
							<path fill="#E46996" d="M242.997,445.204c0,0,0.154,2.242-0.58,2.973c0,0,2.245,0.838,2.488-1.646
								C244.905,446.53,244.837,444.948,242.997,445.204z"/>
							<path fill="#E46996" d="M241.655,444.744c0,0,0.843,5.044-2.021,2.831c0,0,1.433-6.618,5.976-4.58
								c0,0,1.386,0.728,0.563,3.185C246.172,446.178,243.676,441.911,241.655,444.744z"/>
							<path fill="#E46996" d="M232.15,444.274c0,0-0.014,0.346-0.023,0.916c-0.044,2.492,0.029,9.285,2.067,10.258
								c0,0,10.333,4.083,13.78,0.878c0,0,3.51-3.545,1.921-6.472c0,0-2.899,5.377-10.831,0.653
								C239.064,450.509,233.457,447.421,232.15,444.274z"/>
							<path fill="#E46996" d="M250.589,440.589l0.07,4.279c0,0,5.199,5.781,3.413,14.352
								C254.072,459.218,263.089,449.818,250.589,440.589z"/>
							<path fill="#E46996" d="M251.75,441.299c0,0,9.698,6.38,1.622,18.295C253.373,459.594,264.345,451.012,251.75,441.299z"/>
							<path fill="#FAD0DF" d="M253.655,460.17c0,0,8.556-10.961-2.325-19.012l0,0c0,0,7.667,4.116,2.742,18.061L253.655,460.17z"/>
							<path fill="#E46996" d="M226.356,443.844c0,0-5.392,10.457,2.744,16.106c0,0,8.119,6.031,13.305,2.956
								c0,0,4.314-2.889,4.534-5.271c0,0-8.33,3.36-17.719-4.467C229.221,453.169,225.402,448.759,226.356,443.844z"/>
							<path fill="#E46996" d="M250.659,444.868l-0.035,2.094c0,0,1.993,7.312-1.965,10.48c0,0-4.784,5.648-6.889,5.284
								c0,0,8.516,6.091,12.302-3.507C254.072,459.218,256.556,448.023,250.659,444.868z"/>
						</g>
						<g>
							<path fill="#D16FAC" d="M215.922,452.723c1.947,0.028-13.075-0.798-11.741,12.306c0,0,1.179,4.926,9.91,10.547
								c0,0-11.462-11.638-3.701-15.815c0,0,0.292-3.333,4.239-3.564C214.63,456.196,217.01,452.079,215.922,452.723z"/>
							<path fill="#D16FAC" d="M204.545,466.012c0,0,5.726,9.089,8.797,9.694c0,0-6.761-2.068-9.397-5.605
								C203.944,470.101,203.261,467.177,204.545,466.012z"/>
							<path fill="#FAD0DF" d="M204.265,470.889c0,0,5.492,11.284,20.248,3.779c3.933-2.409,3.901-2.458,5.858-4.854
								c0,0-0.51,6.422-1.599,7.066c0,0,4.539-6.116,1.909-14.976l-2.82-3.311c0,0-2.424-4.351-4.654-6.199
								c0,0,9.09,13.512-2.138,13.065c0,0,4.413-2.751,2.034-6.979c-0.778-1.464-2.088-3.783-5.303-1.103
								c0,0-2.193-1.782-2.094-1.536c0.098,0.241,0.71-2.599,1.211-3.693c0,0-2.237,2.148-2.155,3.694c0,0-4.632-0.411-4.458,3.362
								c0.984-0.573-5.975,2.886-2.153,7.302c0,0,1.991,5.269,4.331,7.071c1.907,1.462-6.642-5.18-6.897-6.756
								c0,0,4.288,8.07,7.876,9.184C213.466,476.008,207.111,473.608,204.265,470.889z"/>
							<path fill="#D16FAC" d="M216.493,465.138c0,0-7.493-2.881-4.104-7.173c0,0,1.862-2.06,4.278,0.593
								C216.667,458.558,215.027,463.511,216.493,465.138z"/>
							<path fill="#D16FAC" d="M217.464,458.196c0,0-0.865-1.814-1.728-1.953c0,0-0.038-7.772,6.774-4.907
								c0,0,9.063,12.225,1.553,13.808c0,0-2.289,0.732-3.022-0.082c0,0,4.903-2.868,1.605-7.376
								C222.647,457.685,221.105,455.199,217.464,458.196z"/>
							<path fill="#D16FAC" d="M210.419,461.434c0,0,3.664,6.409,9.588,5.406c0,0-10.09,2.701-11.465-3.041
								C208.542,463.801,209.158,461.717,210.419,461.434z"/>
							<path fill="#D16FAC" d="M219.344,461.209c0,0,1.404,1.832,1.186,2.938c0,0,2.41-0.729,1.212-3.029
								C221.741,461.117,220.787,459.796,219.344,461.209z"/>
							<path fill="#D16FAC" d="M217.926,461.677c0,0,3.584,3.806-0.142,3.746c0,0-2.511-6.636,2.562-7.811
								c0,0,1.608-0.269,2.29,2.383C222.637,459.996,218.064,457.927,217.926,461.677z"/>
							<path fill="#D16FAC" d="M209.459,467.411c0,0,0.183,0.311,0.499,0.807c1.374,2.18,5.286,7.991,7.595,7.511
								c0,0,11.227-3.149,12.384-8.141c0,0,1.024-5.328-2.009-6.828c0,0,0.545,6.515-8.971,7.563
								C218.957,468.323,212.37,469.283,209.459,467.411z"/>
							<path fill="#D16FAC" d="M223.279,452.319l2.484,3.646c0,0,7.761,1.63,11.071,10.177
								C236.834,466.142,239.293,452.209,223.279,452.319z"/>
							<path fill="#D16FAC" d="M224.684,452.183c0,0,11.982-0.763,11.762,14.729C236.446,466.914,241.054,452.425,224.684,452.183z"
								/>
							<path fill="#FAD0DF" d="M237.016,467.231c0,0,1.172-14.985-12.775-14.9l0,0c0,0,8.947-1.402,12.594,13.811L237.016,467.231z"
								/>
							<path fill="#D16FAC" d="M204.22,470.785c0,0,1.271,12.507,11.488,12.124c0,0,10.42-0.042,13.151-6.05
								c0,0,2.087-5.274,0.93-7.475c0,0-5.283,8.279-17.818,7.594C211.972,476.976,206.179,475.639,204.22,470.785z"/>
							<path fill="#D16FAC" d="M225.764,455.968l1.155,1.827c0,0,5.862,5.021,4.24,10.312c0,0-0.927,7.961-2.947,9.008
								c0,0,10.794-0.246,8.623-10.972C236.834,466.142,232.638,454.879,225.764,455.968z"/>
						</g>
						<g>
							<path fill="#40AA48" d="M229.614,327.32c0,0,12.086-10.437,21.307,0.723C250.921,328.043,243.413,336.663,229.614,327.32z"/>
							<path fill="#40AA48" d="M212.755,297.033c0,0,14.961-4.482,19.3,9.662C232.055,306.696,221.969,311.442,212.755,297.033z"/>
							<g>
								<path fill="#E46996" d="M242.827,293.811c1.496,1.158-9.754-8.228-15.405,2.73c0,0-1.599,4.512,2.32,13.963
									c0,0-2.968-15.711,5.192-14.444c0,0,1.926-2.419,5.112-0.303C240.047,295.757,243.999,293.943,242.827,293.811z"/>
								<path fill="#E46996" stroke="#FAD0DF" stroke-miterlimit="10" d="M227.203,297.517c0,0-0.187,10.398,1.893,12.652
									c0,0-4.198-5.544-4.445-9.825C224.651,300.344,225.611,297.677,227.203,297.517z"/>
								<path fill="#FAD0DF" d="M224.496,301.143c0,0-1.488,11.964,13.805,14.719c4.286,0.416,4.288,0.357,7.028-0.361
									c0,0-3.672,4.691-4.846,4.56c0,0,6.647-2.11,9.125-10.525l-0.499-4.212c0,0,0.334-4.792-0.457-7.526
									c0,0,0.166,15.789-8.33,8.908c0,0,4.833,0.433,5.143-4.236c0.143-1.594,0.31-4.158-3.558-3.944c0,0-0.794-2.659-0.842-2.413
									c-0.046,0.245,1.877-1.605,2.821-2.165c0,0-2.832,0.368-3.555,1.616c0,0-3.391-3.012-5.182,0.021
									c1.059,0.127-6.116-1.235-5.396,4.42c0,0-1.144,5.254-0.242,8.016c0.732,2.245-2.519-7.89-1.916-9.263
									c0,0-0.784,8.766,1.437,11.719C229.033,310.476,225.321,304.912,224.496,301.143z"/>
								<path fill="#E46996" d="M236.934,303.792c0,0-4.353-6.601,0.47-7.964c0,0,2.499-0.515,3.024,2.954
									C240.427,298.782,236.625,301.674,236.934,303.792z"/>
								<path fill="#E46996" d="M241.232,298.962c0,0,0.252-1.916-0.349-2.525c0,0,3.938-6.06,7.771,0.132
									c0,0,0.807,14.771-5.838,11.632c0,0-2.155-0.764-2.308-1.825c0,0,5.275,0.626,5.009-4.794
									C245.518,301.582,245.59,298.753,241.232,298.962z"/>
								<path fill="#E46996" d="M234.104,297.378c0,0-0.425,7.114,4.694,9.785c0,0-9.222-3.776-7.36-9.035
									C231.438,298.127,232.98,296.862,234.104,297.378z"/>
								<path fill="#E46996" d="M241.154,302.398c0,0,0.154,2.239-0.58,2.968c0,0,2.245,0.841,2.489-1.645
									C243.063,303.722,242.995,302.139,241.154,302.398z"/>
								<path fill="#E46996" d="M239.813,301.934c0,0,0.841,5.045-2.021,2.831c0,0,1.432-6.62,5.976-4.582
									c0,0,1.385,0.729,0.563,3.186C244.332,303.369,241.833,299.103,239.813,301.934z"/>
								<path fill="#E46996" d="M230.311,301.464c0,0-0.017,0.348-0.027,0.919c-0.043,2.49,0.028,9.283,2.068,10.255
									c0,0,10.331,4.086,13.777,0.881c0,0,3.512-3.544,1.923-6.475c0,0-2.898,5.377-10.831,0.655
									C237.222,307.699,231.615,304.612,230.311,301.464z"/>
								<path fill="#E46996" d="M248.749,297.781l0.069,4.279c0,0,5.2,5.781,3.41,14.348
									C252.229,316.408,261.246,307.013,248.749,297.781z"/>
								<path fill="#E46996" d="M249.907,298.49c0,0,9.701,6.379,1.625,18.292C251.533,316.781,262.505,308.205,249.907,298.49z"/>
								<path fill="#FAD0DF" d="M251.814,317.361c0,0,8.557-10.964-2.325-19.014l0,0c0,0,7.667,4.119,2.739,18.061L251.814,317.361z
									"/>
								<path fill="#E46996" d="M224.516,301.035c0,0-5.393,10.46,2.742,16.106c0,0,8.118,6.03,13.307,2.956
									c0,0,4.312-2.886,4.534-5.273c0,0-8.329,3.363-17.718-4.465C227.379,310.359,223.558,305.947,224.516,301.035z"/>
								<path fill="#E46996" d="M248.818,302.059l-0.036,2.093c0,0,1.994,7.314-1.965,10.479c0,0-4.782,5.649-6.888,5.286
									c0,0,8.517,6.092,12.3-3.509C252.229,316.408,254.714,305.215,248.818,302.059z"/>
							</g>
							<g>
								<path fill="#D16FAC" d="M214.08,309.913c1.947,0.029-13.076-0.797-11.741,12.306c0,0,1.179,4.925,9.909,10.548
									c0,0-11.459-11.637-3.7-15.816c0,0,0.29-3.331,4.239-3.564C212.787,313.386,215.168,309.272,214.08,309.913z"/>
								<path fill="#D16FAC" d="M202.702,323.204c0,0,5.728,9.089,8.797,9.694c0,0-6.761-2.072-9.396-5.604
									C202.104,327.291,201.421,324.369,202.702,323.204z"/>
								<path fill="#FAD0DF" d="M202.42,328.081c0,0,5.495,11.285,20.249,3.779c3.933-2.409,3.903-2.459,5.858-4.852
									c0,0-0.511,6.421-1.597,7.064c0,0,4.54-6.117,1.909-14.976l-2.817-3.312c0,0-2.426-4.35-4.656-6.2
									c0,0,9.089,13.518-2.139,13.069c0,0,4.413-2.751,2.034-6.979c-0.776-1.465-2.086-3.784-5.301-1.103
									c0,0-2.193-1.781-2.094-1.538c0.097,0.241,0.708-2.598,1.212-3.691c0,0-2.238,2.148-2.155,3.692
									c0,0-4.632-0.407-4.456,3.365c0.981-0.575-5.978,2.884-2.156,7.301c0,0,1.993,5.269,4.335,7.068
									c1.904,1.465-6.643-5.176-6.898-6.752c0,0,4.287,8.068,7.878,9.18C211.625,333.199,205.269,330.799,202.42,328.081z"/>
								<path fill="#D16FAC" d="M214.652,322.329c0,0-7.496-2.881-4.107-7.175c0,0,1.863-2.058,4.281,0.598
									C214.828,315.753,213.185,320.701,214.652,322.329z"/>
								<path fill="#D16FAC" d="M215.622,315.387c0,0-0.865-1.814-1.73-1.954c0,0-0.032-7.771,6.781-4.905
									c0,0,9.062,12.22,1.553,13.805c0,0-2.293,0.731-3.025-0.082c0,0,4.904-2.868,1.604-7.375
									C220.805,314.876,219.264,312.391,215.622,315.387z"/>
								<path fill="#D16FAC" d="M208.577,318.625c0,0,3.663,6.413,9.588,5.405c0,0-10.092,2.704-11.463-3.036
									C206.702,320.994,207.317,318.906,208.577,318.625z"/>
								<path fill="#D16FAC" d="M217.504,318.399c0,0,1.403,1.833,1.183,2.938c0,0,2.409-0.728,1.214-3.026
									C219.901,318.311,218.944,316.988,217.504,318.399z"/>
								<path fill="#D16FAC" d="M216.083,318.865c0,0,3.584,3.81-0.138,3.751c0,0-2.514-6.639,2.562-7.811
									c0,0,1.604-0.268,2.288,2.381C220.795,317.186,216.223,315.119,216.083,318.865z"/>
								<path fill="#D16FAC" d="M207.619,324.602c0,0,0.183,0.308,0.498,0.807c1.375,2.181,5.284,7.986,7.594,7.509
									c0,0,11.229-3.148,12.385-8.14c0,0,1.021-5.327-2.008-6.828c0,0,0.546,6.513-8.975,7.563
									C217.112,325.514,210.529,326.473,207.619,324.602z"/>
								<path fill="#D16FAC" d="M221.438,309.512l2.485,3.645c0,0,7.758,1.628,11.073,10.176
									C234.997,323.333,237.45,309.401,221.438,309.512z"/>
								<path fill="#D16FAC" d="M222.841,309.373c0,0,11.98-0.762,11.764,14.73C234.605,324.104,239.21,309.615,222.841,309.373z"/>
								<path fill="#FAD0DF" d="M235.175,324.422c0,0,1.172-14.983-12.776-14.9l0,0c0,0,8.948-1.4,12.597,13.81L235.175,324.422z"/>
								<path fill="#D16FAC" d="M202.378,327.974c0,0,1.272,12.508,11.489,12.123c0,0,10.418-0.042,13.153-6.047
									c0,0,2.083-5.275,0.927-7.475c0,0-5.283,8.28-17.819,7.593C210.13,334.168,204.334,332.83,202.378,327.974z"/>
								<path fill="#D16FAC" d="M223.923,313.159l1.154,1.826c0,0,5.862,5.021,4.24,10.312c0,0-0.924,7.963-2.948,9.009
									c0,0,10.796-0.246,8.626-10.972C234.997,323.333,230.795,312.069,223.923,313.159z"/>
							</g>
						</g>
						<g>
							<path fill="#40AA48" d="M333.783,321.195c0,0,12.087-10.438,21.306,0.721C355.089,321.916,347.583,330.538,333.783,321.195z"
								/>
							<path fill="#40AA48" d="M316.925,290.907c0,0,14.964-4.482,19.301,9.661C336.226,300.568,326.138,305.314,316.925,290.907z"
								/>
							<g>
								<path fill="#E46996" d="M346.995,287.684c1.499,1.158-9.753-8.227-15.402,2.731c0,0-1.599,4.511,2.319,13.964
									c0,0-2.968-15.713,5.197-14.446c0,0,1.923-2.419,5.108-0.302C344.218,289.63,348.17,287.818,346.995,287.684z"/>
								<path fill="#E46996" stroke="#FAD0DF" stroke-miterlimit="10" d="M331.372,291.388c0,0-0.187,10.401,1.892,12.652
									c0,0-4.196-5.542-4.442-9.824C328.823,294.217,329.782,291.549,331.372,291.388z"/>
								<path fill="#FAD0DF" d="M328.666,295.014c0,0-1.491,11.967,13.806,14.721c4.285,0.417,4.285,0.358,7.026-0.363
									c0,0-3.671,4.694-4.843,4.561c0,0,6.646-2.109,9.122-10.525l-0.499-4.211c0,0,0.335-4.792-0.456-7.529
									c0,0,0.166,15.793-8.328,8.912c0,0,4.831,0.431,5.141-4.238c0.145-1.592,0.311-4.157-3.557-3.943
									c0,0-0.793-2.658-0.842-2.414c-0.05,0.246,1.876-1.603,2.824-2.164c0,0-2.834,0.37-3.558,1.618c0,0-3.392-3.014-5.18,0.02
									c1.055,0.125-6.117-1.235-5.398,4.421c0,0-1.143,5.251-0.242,8.014c0.735,2.246-2.518-7.888-1.914-9.261
									c0,0-0.784,8.764,1.438,11.715C333.207,304.348,329.491,298.785,328.666,295.014z"/>
								<path fill="#E46996" d="M341.105,297.663c0,0-4.354-6.6,0.471-7.962c0,0,2.497-0.512,3.021,2.957
									C344.597,292.656,340.796,295.547,341.105,297.663z"/>
								<path fill="#E46996" d="M345.402,292.834c0,0,0.251-1.913-0.348-2.524c0,0,3.938-6.059,7.768,0.133
									c0,0,0.809,14.771-5.834,11.633c0,0-2.156-0.764-2.312-1.826c0,0,5.277,0.626,5.012-4.796
									C349.688,295.453,349.761,292.625,345.402,292.834z"/>
								<path fill="#E46996" d="M338.273,291.251c0,0-0.426,7.116,4.691,9.783c0,0-9.219-3.776-7.356-9.032
									C335.608,292,337.152,290.737,338.273,291.251z"/>
								<path fill="#E46996" d="M345.324,296.27c0,0,0.156,2.239-0.578,2.973c0,0,2.244,0.838,2.487-1.648
									C347.234,297.596,347.164,296.012,345.324,296.27z"/>
								<path fill="#E46996" d="M343.984,295.807c0,0,0.84,5.045-2.022,2.831c0,0,1.435-6.616,5.977-4.578
									c0,0,1.384,0.728,0.563,3.184C348.501,297.243,346.005,292.975,343.984,295.807z"/>
								<path fill="#E46996" d="M334.479,295.338c0,0-0.015,0.346-0.024,0.919c-0.044,2.492,0.028,9.282,2.068,10.254
									c0,0,10.332,4.087,13.78,0.878c0,0,3.509-3.545,1.919-6.471c0,0-2.898,5.377-10.832,0.654
									C341.391,301.573,335.787,298.485,334.479,295.338z"/>
								<path fill="#E46996" d="M352.919,291.655l0.07,4.276c0,0,5.196,5.78,3.409,14.35
									C356.398,310.281,365.414,300.883,352.919,291.655z"/>
								<path fill="#E46996" d="M354.081,292.362c0,0,9.696,6.381,1.621,18.294C355.702,310.655,366.673,302.076,354.081,292.362z"
									/>
								<path fill="#FAD0DF" d="M355.983,311.236c0,0,8.557-10.963-2.323-19.016l0,0c0,0,7.666,4.118,2.738,18.062L355.983,311.236z
									"/>
								<path fill="#E46996" d="M328.688,294.908c0,0-5.395,10.46,2.743,16.109c0,0,8.117,6.03,13.305,2.953
									c0,0,4.31-2.883,4.536-5.271c0,0-8.332,3.361-17.723-4.464C331.547,304.233,327.73,299.822,328.688,294.908z"/>
								<path fill="#E46996" d="M352.989,295.931l-0.037,2.091c0,0,1.993,7.314-1.964,10.482c0,0-4.783,5.648-6.89,5.284
									c0,0,8.516,6.093,12.3-3.508C356.398,310.281,358.885,299.089,352.989,295.931z"/>
							</g>
							<g>
								<path fill="#D16FAC" d="M318.252,303.786c1.946,0.031-13.077-0.797-11.742,12.307c0,0,1.175,4.926,9.911,10.547
									c0,0-11.461-11.636-3.702-15.817c0,0,0.292-3.331,4.238-3.563C316.958,307.261,319.337,303.145,318.252,303.786z"/>
								<path fill="#D16FAC" d="M306.872,317.076c0,0,5.73,9.09,8.801,9.693c0,0-6.762-2.069-9.401-5.605
									C306.272,321.164,305.591,318.241,306.872,317.076z"/>
								<path fill="#FAD0DF" d="M306.591,321.954c0,0,5.492,11.283,20.25,3.777c3.933-2.408,3.898-2.458,5.856-4.85
									c0,0-0.51,6.42-1.597,7.062c0,0,4.539-6.113,1.908-14.975l-2.817-3.31c0,0-2.425-4.351-4.655-6.202
									c0,0,9.088,13.514-2.137,13.069c0,0,4.412-2.75,2.034-6.98c-0.777-1.463-2.089-3.783-5.305-1.102
									c0,0-2.19-1.782-2.092-1.538c0.096,0.241,0.709-2.597,1.211-3.689c0,0-2.238,2.148-2.156,3.691c0,0-4.631-0.408-4.458,3.366
									c0.983-0.577-5.973,2.884-2.152,7.301c0,0,1.99,5.267,4.332,7.069c1.908,1.461-6.64-5.179-6.899-6.754
									c0,0,4.291,8.069,7.879,9.182C315.793,327.073,309.437,324.673,306.591,321.954z"/>
								<path fill="#D16FAC" d="M318.822,316.203c0,0-7.494-2.883-4.106-7.174c0,0,1.867-2.058,4.282,0.593
									C318.998,309.625,317.358,314.575,318.822,316.203z"/>
								<path fill="#D16FAC" d="M319.793,309.258c0,0-0.864-1.811-1.729-1.951c0,0-0.035-7.771,6.779-4.904
									c0,0,9.062,12.22,1.55,13.804c0,0-2.29,0.733-3.022-0.08c0,0,4.904-2.871,1.604-7.376
									C324.975,308.752,323.436,306.264,319.793,309.258z"/>
								<path fill="#D16FAC" d="M312.748,312.498c0,0,3.661,6.413,9.588,5.406c0,0-10.093,2.702-11.464-3.038
									C310.873,314.866,311.484,312.779,312.748,312.498z"/>
								<path fill="#D16FAC" d="M321.673,312.272c0,0,1.402,1.832,1.186,2.937c0,0,2.409-0.727,1.213-3.024
									C324.071,312.184,323.115,310.86,321.673,312.272z"/>
								<path fill="#D16FAC" d="M320.256,312.739c0,0,3.583,3.811-0.141,3.752c0,0-2.516-6.639,2.561-7.814
									c0,0,1.605-0.267,2.288,2.385C324.964,311.061,320.393,308.991,320.256,312.739z"/>
								<path fill="#D16FAC" d="M311.79,318.474c0,0,0.183,0.309,0.497,0.807c1.373,2.181,5.284,7.992,7.596,7.511
									c0,0,11.228-3.146,12.385-8.14c0,0,1.02-5.328-2.011-6.827c0,0,0.547,6.514-8.973,7.562
									C321.284,319.387,314.699,320.347,311.79,318.474z"/>
								<path fill="#D16FAC" d="M325.607,303.385l2.483,3.646c0,0,7.761,1.629,11.075,10.175
									C339.167,317.205,341.62,303.274,325.607,303.385z"/>
								<path fill="#D16FAC" d="M327.012,303.246c0,0,11.979-0.761,11.764,14.732C338.775,317.979,343.381,303.491,327.012,303.246z
									"/>
								<path fill="#FAD0DF" d="M339.344,318.296c0,0,1.173-14.985-12.773-14.899l0,0c0,0,8.945-1.404,12.597,13.807
									L339.344,318.296z"/>
								<path fill="#D16FAC" d="M306.549,321.847c0,0,1.272,12.508,11.489,12.124c0,0,10.419-0.042,13.152-6.048
									c0,0,2.084-5.275,0.928-7.476c0,0-5.283,8.279-17.817,7.595C314.301,328.043,308.506,326.702,306.549,321.847z"/>
								<path fill="#D16FAC" d="M328.092,307.031l1.154,1.828c0,0,5.863,5.021,4.242,10.312c0,0-0.926,7.962-2.949,9.007
									c0,0,10.798-0.247,8.628-10.973C339.167,317.205,334.966,305.944,328.092,307.031z"/>
							</g>
						</g>
						<g>
							<path fill="#40AA48" d="M280.839,358.079c0,0,12.083-10.438,21.308,0.722C302.146,358.802,294.637,367.421,280.839,358.079z"
								/>
							<path fill="#40AA48" d="M263.979,327.79c0,0,14.964-4.482,19.3,9.664C283.278,337.453,273.192,342.201,263.979,327.79z"/>
							<g>
								<path fill="#E46996" d="M294.048,324.567c1.5,1.157-9.753-8.228-15.403,2.729c0,0-1.597,4.514,2.32,13.964
									c0,0-2.967-15.712,5.196-14.443c0,0,1.923-2.42,5.111-0.307C291.271,326.513,295.221,324.7,294.048,324.567z"/>
								<path fill="#E46996" stroke="#FAD0DF" stroke-miterlimit="10" d="M278.426,328.275c0,0-0.187,10.396,1.895,12.651
									c0,0-4.199-5.544-4.446-9.825C275.875,331.102,276.836,328.432,278.426,328.275z"/>
								<path fill="#FAD0DF" d="M275.72,331.899c0,0-1.49,11.964,13.806,14.719c4.286,0.417,4.286,0.36,7.028-0.36
									c0,0-3.673,4.69-4.844,4.56c0,0,6.646-2.111,9.122-10.525l-0.499-4.21c0,0,0.336-4.793-0.455-7.53
									c0,0,0.167,15.791-8.329,8.91c0,0,4.831,0.432,5.141-4.238c0.145-1.589,0.31-4.154-3.558-3.943c0,0-0.795-2.658-0.841-2.412
									c-0.048,0.244,1.877-1.606,2.824-2.163c0,0-2.835,0.367-3.558,1.615c0,0-3.392-3.013-5.183,0.022
									c1.061,0.124-6.114-1.238-5.396,4.418c0,0-1.142,5.254-0.241,8.015c0.734,2.247-2.522-7.889-1.915-9.262
									c0,0-0.786,8.766,1.437,11.718C280.26,341.232,276.545,335.668,275.72,331.899z"/>
								<path fill="#E46996" d="M288.156,334.55c0,0-4.354-6.601,0.471-7.965c0,0,2.5-0.513,3.023,2.956
									C291.65,329.54,287.849,332.431,288.156,334.55z"/>
								<path fill="#E46996" d="M292.456,329.718c0,0,0.25-1.912-0.348-2.524c0,0,3.937-6.057,7.771,0.133
									c0,0,0.806,14.772-5.838,11.634c0,0-2.155-0.765-2.309-1.825c0,0,5.275,0.625,5.011-4.799
									C296.742,332.336,296.812,329.51,292.456,329.718z"/>
								<path fill="#E46996" d="M285.328,328.135c0,0-0.428,7.114,4.692,9.78c0,0-9.221-3.773-7.357-9.031
									C282.662,328.885,284.204,327.62,285.328,328.135z"/>
								<path fill="#E46996" d="M292.379,333.155c0,0,0.154,2.238-0.581,2.97c0,0,2.245,0.839,2.49-1.646
									C294.289,334.479,294.218,332.896,292.379,333.155z"/>
								<path fill="#E46996" d="M291.037,332.692c0,0,0.842,5.045-2.021,2.831c0,0,1.433-6.618,5.974-4.579
									c0,0,1.385,0.727,0.566,3.185C295.554,334.129,293.058,329.859,291.037,332.692z"/>
								<path fill="#E46996" d="M281.531,332.222c0,0-0.014,0.344-0.021,0.917c-0.045,2.491,0.028,9.282,2.066,10.255
									c0,0,10.331,4.086,13.777,0.879c0,0,3.511-3.546,1.923-6.475c0,0-2.902,5.377-10.832,0.656
									C288.445,338.458,282.838,335.369,281.531,332.222z"/>
								<path fill="#E46996" d="M299.974,328.536l0.068,4.28c0,0,5.198,5.781,3.411,14.349
									C303.454,347.165,312.471,337.768,299.974,328.536z"/>
								<path fill="#E46996" d="M301.132,329.245c0,0,9.699,6.38,1.622,18.293C302.754,347.538,313.726,338.961,301.132,329.245z"/>
								<path fill="#FAD0DF" d="M303.038,348.118c0,0,8.554-10.961-2.323-19.014l0,0c0,0,7.665,4.117,2.738,18.061L303.038,348.118z
									"/>
								<path fill="#E46996" d="M275.739,331.793c0,0-5.393,10.461,2.742,16.107c0,0,8.12,6.028,13.308,2.955
									c0,0,4.312-2.885,4.532-5.271c0,0-8.327,3.361-17.717-4.465C278.604,341.117,274.783,336.703,275.739,331.793z"/>
								<path fill="#E46996" d="M300.042,332.817l-0.035,2.093c0,0,1.992,7.31-1.965,10.479c0,0-4.784,5.647-6.89,5.285
									c0,0,8.514,6.09,12.301-3.509C303.454,347.165,305.938,335.97,300.042,332.817z"/>
							</g>
							<g>
								<path fill="#D16FAC" d="M265.304,340.67c1.948,0.031-13.076-0.796-11.742,12.306c0,0,1.178,4.926,9.912,10.55
									c0,0-11.461-11.638-3.701-15.818c0,0,0.291-3.333,4.237-3.564C264.011,344.143,266.392,340.028,265.304,340.67z"/>
								<path fill="#D16FAC" d="M253.926,353.96c0,0,5.73,9.092,8.798,9.695c0,0-6.758-2.07-9.397-5.606
									C253.327,358.049,252.646,355.124,253.926,353.96z"/>
								<path fill="#FAD0DF" d="M253.646,358.837c0,0,5.493,11.285,20.249,3.779c3.932-2.408,3.899-2.459,5.858-4.851
									c0,0-0.512,6.42-1.601,7.062c0,0,4.541-6.115,1.909-14.975l-2.814-3.31c0,0-2.427-4.35-4.657-6.199
									c0,0,9.088,13.515-2.139,13.067c0,0,4.416-2.751,2.034-6.978c-0.775-1.466-2.088-3.785-5.3-1.102
									c0,0-2.194-1.784-2.095-1.539c0.098,0.241,0.709-2.596,1.21-3.691c0,0-2.235,2.147-2.154,3.692c0,0-4.63-0.406-4.456,3.365
									c0.983-0.576-5.976,2.882-2.155,7.301c0,0,1.993,5.269,4.334,7.071c1.905,1.462-6.641-5.18-6.899-6.755
									c0,0,4.289,8.069,7.877,9.181C262.848,363.956,256.492,361.555,253.646,358.837z"/>
								<path fill="#D16FAC" d="M265.875,353.087c0,0-7.495-2.881-4.104-7.174c0,0,1.861-2.06,4.28,0.594
									C266.051,346.507,264.411,351.458,265.875,353.087z"/>
								<path fill="#D16FAC" d="M266.847,346.142c0,0-0.867-1.812-1.729-1.952c0,0-0.038-7.769,6.778-4.905
									c0,0,9.063,12.221,1.553,13.806c0,0-2.292,0.732-3.026-0.081c0,0,4.907-2.868,1.605-7.376
									C272.028,345.634,270.489,343.147,266.847,346.142z"/>
								<path fill="#D16FAC" d="M259.802,349.384c0,0,3.662,6.412,9.587,5.406c0,0-10.092,2.7-11.463-3.039
									C257.926,351.75,258.54,349.664,259.802,349.384z"/>
								<path fill="#D16FAC" d="M268.727,349.157c0,0,1.403,1.829,1.183,2.938c0,0,2.413-0.728,1.215-3.029
									C271.125,349.067,270.169,347.745,268.727,349.157z"/>
								<path fill="#D16FAC" d="M267.307,349.622c0,0,3.586,3.81-0.137,3.75c0,0-2.515-6.636,2.559-7.81
									c0,0,1.609-0.269,2.291,2.381C272.019,347.943,267.447,345.876,267.307,349.622z"/>
								<path fill="#D16FAC" d="M258.842,355.357c0,0,0.184,0.311,0.498,0.809c1.374,2.177,5.287,7.99,7.594,7.511
									c0,0,11.23-3.148,12.388-8.141c0,0,1.018-5.327-2.008-6.828c0,0,0.542,6.515-8.976,7.564
									C268.337,356.272,261.752,357.23,258.842,355.357z"/>
								<path fill="#D16FAC" d="M272.662,340.269l2.485,3.644c0,0,7.759,1.629,11.071,10.178
									C286.218,354.092,288.674,340.156,272.662,340.269z"/>
								<path fill="#D16FAC" d="M274.064,340.129c0,0,11.981-0.76,11.762,14.732C285.827,354.862,290.434,340.374,274.064,340.129z"
									/>
								<path fill="#FAD0DF" d="M286.398,355.179c0,0,1.171-14.984-12.777-14.898l0,0c0,0,8.948-1.401,12.597,13.81L286.398,355.179
									z"/>
								<path fill="#D16FAC" d="M253.601,358.732c0,0,1.272,12.505,11.49,12.124c0,0,10.418-0.044,13.151-6.048
									c0,0,2.088-5.275,0.929-7.479c0,0-5.282,8.282-17.818,7.599C261.353,364.926,255.56,363.586,253.601,358.732z"/>
								<path fill="#D16FAC" d="M275.147,343.913l1.152,1.828c0,0,5.862,5.023,4.243,10.311c0,0-0.929,7.964-2.95,9.01
									c0,0,10.794-0.246,8.625-10.972C286.218,354.092,282.02,342.827,275.147,343.913z"/>
							</g>
						</g>
						<path fill="#40AA48" d="M353.624,481.069c0,0,12.085-10.438,21.308,0.721C374.932,481.79,367.424,490.409,353.624,481.069z"/>
						<path fill="#40AA48" d="M336.766,450.78c0,0,14.964-4.481,19.302,9.662C356.067,460.442,345.979,465.19,336.766,450.78z"/>
						<g>
							<path fill="#E46996" d="M366.836,447.557c1.497,1.157-9.753-8.229-15.402,2.729c0,0-1.598,4.514,2.319,13.964
								c0,0-2.968-15.711,5.194-14.443c0,0,1.927-2.418,5.111-0.305C364.058,449.503,368.011,447.691,366.836,447.557z"/>
							<path fill="#E46996" stroke="#FAD0DF" stroke-miterlimit="10" d="M351.214,451.263c0,0-0.187,10.396,1.893,12.651
								c0,0-4.199-5.543-4.443-9.826C348.663,454.089,349.623,451.422,351.214,451.263z"/>
							<path fill="#FAD0DF" d="M348.506,454.889c0,0-1.489,11.964,13.809,14.719c4.285,0.417,4.285,0.357,7.025-0.36
								c0,0-3.672,4.691-4.846,4.559c0,0,6.649-2.11,9.125-10.526l-0.5-4.21c0,0,0.335-4.794-0.454-7.527
								c0,0,0.166,15.788-8.331,8.909c0,0,4.836,0.432,5.141-4.238c0.147-1.592,0.312-4.156-3.556-3.941c0,0-0.794-2.66-0.844-2.414
								c-0.046,0.245,1.877-1.604,2.826-2.164c0,0-2.834,0.368-3.557,1.616c0,0-3.392-3.012-5.182,0.022
								c1.056,0.125-6.115-1.237-5.399,4.418c0,0-1.141,5.251-0.242,8.015c0.735,2.246-2.518-7.888-1.914-9.261
								c0,0-0.785,8.766,1.44,11.718C353.049,464.221,349.33,458.658,348.506,454.889z"/>
							<path fill="#E46996" d="M360.944,457.539c0,0-4.354-6.603,0.471-7.965c0,0,2.499-0.514,3.024,2.955
								C364.439,452.527,360.637,455.421,360.944,457.539z"/>
							<path fill="#E46996" d="M365.243,452.706c0,0,0.252-1.912-0.349-2.522c0,0,3.938-6.058,7.771,0.133
								c0,0,0.807,14.771-5.84,11.631c0,0-2.154-0.763-2.306-1.823c0,0,5.274,0.626,5.01-4.795
								C369.529,455.329,369.602,452.501,365.243,452.706z"/>
							<path fill="#E46996" d="M358.114,451.126c0,0-0.423,7.112,4.692,9.781c0,0-9.22-3.774-7.358-9.034
								C355.448,451.873,356.991,450.608,358.114,451.126z"/>
							<path fill="#E46996" d="M365.163,456.142c0,0,0.159,2.239-0.577,2.974c0,0,2.246,0.836,2.486-1.648
								C367.073,457.468,367.007,455.887,365.163,456.142z"/>
							<path fill="#E46996" d="M363.824,455.681c0,0,0.844,5.043-2.021,2.833c0,0,1.437-6.622,5.979-4.582
								c0,0,1.383,0.727,0.562,3.184C368.343,457.116,365.847,452.848,363.824,455.681z"/>
							<path fill="#E46996" d="M354.321,455.212c0,0-0.015,0.346-0.025,0.918c-0.044,2.49,0.029,9.282,2.069,10.256
								c0,0,10.33,4.085,13.775,0.878c0,0,3.513-3.545,1.924-6.475c0,0-2.9,5.377-10.834,0.656
								C361.232,461.446,355.628,458.358,354.321,455.212z"/>
							<path fill="#E46996" d="M372.761,451.526l0.07,4.279c0,0,5.196,5.781,3.41,14.352
								C376.241,470.157,385.256,460.757,372.761,451.526z"/>
							<path fill="#E46996" d="M373.921,452.237c0,0,9.697,6.379,1.621,18.293C375.542,470.529,386.516,461.949,373.921,452.237z"/>
							<path fill="#FAD0DF" d="M375.823,471.106c0,0,8.558-10.961-2.323-19.01l0,0c0,0,7.667,4.116,2.741,18.061L375.823,471.106z"
								/>
							<path fill="#E46996" d="M348.529,454.78c0,0-5.396,10.46,2.739,16.108c0,0,8.117,6.03,13.308,2.956
								c0,0,4.312-2.889,4.535-5.271c0,0-8.331,3.36-17.72-4.47C351.391,464.104,347.569,459.694,348.529,454.78z"/>
							<path fill="#E46996" d="M372.831,455.805l-0.037,2.094c0,0,1.994,7.312-1.965,10.479c0,0-4.785,5.647-6.89,5.283
								c0,0,8.516,6.093,12.303-3.505C376.241,470.157,378.726,458.961,372.831,455.805z"/>
						</g>
						<g>
							<path fill="#D16FAC" d="M338.093,463.658c1.946,0.032-13.077-0.797-11.743,12.307c0,0,1.177,4.927,9.911,10.55
								c0,0-11.459-11.64-3.702-15.817c0,0,0.292-3.332,4.24-3.566C336.799,467.133,339.18,463.016,338.093,463.658z"/>
							<path fill="#D16FAC" d="M326.715,476.95c0,0,5.729,9.091,8.798,9.694c0,0-6.762-2.072-9.402-5.604
								C326.112,481.039,325.432,478.113,326.715,476.95z"/>
							<path fill="#FAD0DF" d="M326.432,481.827c0,0,5.496,11.285,20.249,3.779c3.934-2.411,3.901-2.461,5.856-4.853
								c0,0-0.51,6.422-1.595,7.064c0,0,4.54-6.117,1.909-14.977l-2.817-3.31c0,0-2.428-4.351-4.657-6.202
								c0,0,9.089,13.517-2.137,13.069c0,0,4.413-2.75,2.033-6.977c-0.777-1.468-2.09-3.787-5.303-1.105c0,0-2.193-1.78-2.094-1.536
								c0.098,0.24,0.71-2.597,1.21-3.691c0,0-2.236,2.148-2.153,3.691c0,0-4.63-0.406-4.459,3.365
								c0.985-0.574-5.974,2.884-2.153,7.302c0,0,1.991,5.268,4.333,7.071c1.907,1.461-6.641-5.183-6.898-6.757
								c0,0,4.289,8.069,7.878,9.181C335.635,486.945,329.279,484.547,326.432,481.827z"/>
							<path fill="#D16FAC" d="M338.662,476.075c0,0-7.496-2.881-4.103-7.176c0,0,1.861-2.056,4.278,0.601
								C338.837,469.499,337.197,474.452,338.662,476.075z"/>
							<path fill="#D16FAC" d="M339.637,469.132c0,0-0.867-1.812-1.732-1.953c0,0-0.035-7.77,6.778-4.903
								c0,0,9.062,12.222,1.552,13.806c0,0-2.29,0.73-3.023-0.083c0,0,4.906-2.867,1.607-7.375
								C344.818,468.623,343.276,466.137,339.637,469.132z"/>
							<path fill="#D16FAC" d="M332.588,472.372c0,0,3.664,6.411,9.59,5.404c0,0-10.092,2.705-11.467-3.037
								C330.713,474.74,331.327,472.654,332.588,472.372z"/>
							<path fill="#D16FAC" d="M341.515,472.147c0,0,1.402,1.831,1.185,2.938c0,0,2.409-0.729,1.211-3.029
								C343.91,472.055,342.956,470.733,341.515,472.147z"/>
							<path fill="#D16FAC" d="M340.094,472.613c0,0,3.585,3.808-0.139,3.749c0,0-2.513-6.636,2.562-7.814
								c0,0,1.606-0.266,2.289,2.386C344.806,470.933,340.234,468.866,340.094,472.613z"/>
							<path fill="#D16FAC" d="M331.631,478.347c0,0,0.183,0.309,0.498,0.808c1.373,2.181,5.282,7.991,7.594,7.512
								c0,0,11.231-3.149,12.385-8.142c0,0,1.022-5.328-2.01-6.829c0,0,0.546,6.514-8.975,7.565
								C341.123,479.26,334.54,480.219,331.631,478.347z"/>
							<path fill="#D16FAC" d="M345.449,463.257l2.483,3.646c0,0,7.761,1.629,11.073,10.176
								C359.007,477.079,361.462,463.147,345.449,463.257z"/>
							<path fill="#D16FAC" d="M346.853,463.12c0,0,11.981-0.762,11.764,14.731C358.616,477.852,363.223,463.362,346.853,463.12z"/>
							<path fill="#FAD0DF" d="M359.185,478.169c0,0,1.175-14.984-12.773-14.9l0,0c0,0,8.946-1.401,12.595,13.811L359.185,478.169z"
								/>
							<path fill="#D16FAC" d="M326.391,481.722c0,0,1.271,12.504,11.487,12.121c0,0,10.42-0.042,13.152-6.048
								c0,0,2.087-5.276,0.927-7.475c0,0-5.28,8.28-17.816,7.593C334.141,487.914,328.348,486.576,326.391,481.722z"/>
							<path fill="#D16FAC" d="M347.934,466.903l1.153,1.827c0,0,5.863,5.021,4.243,10.312c0,0-0.926,7.962-2.949,9.009
								c0,0,10.797-0.247,8.626-10.973C359.007,477.079,354.808,465.816,347.934,466.903z"/>
						</g>
						<g>
							<path fill="#40AA48" d="M209.227,409.048c0,0,12.084-10.438,21.307,0.723C230.534,409.769,223.025,418.389,209.227,409.048z"
								/>
							<path fill="#40AA48" d="M192.365,378.76c0,0,14.965-4.483,19.303,9.662C211.668,388.422,201.579,393.169,192.365,378.76z"/>
							<g>
								<path fill="#E46996" d="M222.438,375.537c1.498,1.157-9.754-8.228-15.405,2.729c0,0-1.596,4.513,2.319,13.965
									c0,0-2.966-15.712,5.197-14.445c0,0,1.924-2.42,5.112-0.304C219.66,377.484,223.61,375.671,222.438,375.537z"/>
								<path fill="#E46996" stroke="#FAD0DF" stroke-miterlimit="10" d="M206.813,379.244c0,0-0.186,10.396,1.892,12.651
									c0,0-4.195-5.543-4.441-9.825C204.264,382.071,205.225,379.4,206.813,379.244z"/>
								<path fill="#FAD0DF" d="M204.107,382.869c0,0-1.49,11.965,13.805,14.719c4.286,0.417,4.288,0.358,7.028-0.362
									c0,0-3.672,4.69-4.846,4.56c0,0,6.65-2.112,9.126-10.525l-0.499-4.212c0,0,0.332-4.793-0.456-7.528
									c0,0,0.164,15.791-8.329,8.909c0,0,4.832,0.432,5.141-4.236c0.143-1.59,0.309-4.157-3.56-3.943c0,0-0.791-2.66-0.838-2.415
									c-0.048,0.247,1.875-1.603,2.824-2.161c0,0-2.836,0.37-3.558,1.616c0,0-3.391-3.014-5.179,0.021
									c1.055,0.125-6.115-1.238-5.402,4.417c0,0-1.141,5.254-0.239,8.018c0.734,2.246-2.518-7.89-1.916-9.265
									c0,0-0.783,8.768,1.438,11.721C208.647,392.201,204.935,386.638,204.107,382.869z"/>
								<path fill="#E46996" d="M216.544,385.518c0,0-4.351-6.6,0.473-7.964c0,0,2.499-0.516,3.022,2.954
									C220.038,380.508,216.238,383.401,216.544,385.518z"/>
								<path fill="#E46996" d="M220.844,380.686c0,0,0.25-1.911-0.349-2.525c0,0,3.939-6.056,7.772,0.135
									c0,0,0.806,14.771-5.84,11.633c0,0-2.153-0.765-2.305-1.825c0,0,5.273,0.625,5.008-4.797
									C225.129,383.308,225.199,380.479,220.844,380.686z"/>
								<path fill="#E46996" d="M213.716,379.104c0,0-0.427,7.114,4.692,9.78c0,0-9.221-3.772-7.357-9.031
									C211.05,379.853,212.592,378.589,213.716,379.104z"/>
								<path fill="#E46996" d="M220.766,384.124c0,0,0.155,2.237-0.578,2.971c0,0,2.245,0.836,2.489-1.647
									C222.676,385.451,222.607,383.865,220.766,384.124z"/>
								<path fill="#E46996" d="M219.426,383.659c0,0,0.841,5.046-2.022,2.833c0,0,1.434-6.619,5.977-4.579
									c0,0,1.383,0.728,0.563,3.184C223.944,385.097,221.446,380.829,219.426,383.659z"/>
								<path fill="#E46996" d="M209.921,383.189c0,0-0.015,0.349-0.025,0.918c-0.042,2.493,0.029,9.284,2.069,10.256
									c0,0,10.331,4.087,13.778,0.881c0,0,3.512-3.545,1.922-6.474c0,0-2.901,5.377-10.833,0.654
									C216.832,389.425,211.228,386.339,209.921,383.189z"/>
								<path fill="#E46996" d="M228.359,379.507l0.071,4.279c0,0,5.197,5.78,3.409,14.348
									C231.84,398.133,240.859,388.737,228.359,379.507z"/>
								<path fill="#E46996" d="M229.521,380.214c0,0,9.697,6.38,1.622,18.294C231.143,398.508,242.115,389.929,229.521,380.214z"/>
								<path fill="#FAD0DF" d="M231.423,399.087c0,0,8.557-10.961-2.324-19.014l0,0c0,0,7.668,4.118,2.74,18.061L231.423,399.087z"
									/>
								<path fill="#E46996" d="M204.127,382.761c0,0-5.393,10.461,2.742,16.106c0,0,8.119,6.031,13.306,2.956
									c0,0,4.313-2.885,4.537-5.271c0,0-8.331,3.36-17.722-4.466C206.99,392.086,203.172,387.674,204.127,382.761z"/>
								<path fill="#E46996" d="M228.43,383.785l-0.035,2.092c0,0,1.993,7.312-1.968,10.481c0,0-4.782,5.648-6.885,5.285
									c0,0,8.512,6.089,12.298-3.509C231.84,398.133,234.326,386.94,228.43,383.785z"/>
							</g>
							<g>
								<path fill="#D16FAC" d="M193.691,391.641c1.95,0.028-13.074-0.8-11.741,12.304c0,0,1.179,4.925,9.911,10.549
									c0,0-11.459-11.64-3.699-15.817c0,0,0.29-3.331,4.237-3.566C192.399,395.113,194.779,390.995,193.691,391.641z"/>
								<path fill="#D16FAC" d="M182.314,404.929c0,0,5.729,9.091,8.799,9.694c0,0-6.763-2.071-9.4-5.605
									C181.715,409.018,181.032,406.094,182.314,404.929z"/>
								<path fill="#FAD0DF" d="M182.032,409.806c0,0,5.495,11.285,20.25,3.778c3.931-2.407,3.902-2.458,5.856-4.85
									c0,0-0.51,6.42-1.596,7.063c0,0,4.54-6.117,1.909-14.977l-2.819-3.311c0,0-2.425-4.348-4.654-6.197
									c0,0,9.088,13.513-2.138,13.067c0,0,4.413-2.751,2.033-6.979c-0.775-1.467-2.086-3.784-5.303-1.103
									c0,0-2.19-1.781-2.093-1.538c0.097,0.242,0.71-2.598,1.213-3.69c0,0-2.238,2.147-2.155,3.693c0,0-4.634-0.409-4.46,3.363
									c0.984-0.572-5.973,2.883-2.152,7.302c0,0,1.99,5.27,4.332,7.069c1.906,1.465-6.641-5.177-6.898-6.755
									c0,0,4.291,8.069,7.879,9.182C191.237,414.925,184.88,412.523,182.032,409.806z"/>
								<path fill="#D16FAC" d="M194.266,404.057c0,0-7.496-2.884-4.106-7.176c0,0,1.863-2.058,4.279,0.596
									C194.438,397.475,192.799,402.428,194.266,404.057z"/>
								<path fill="#D16FAC" d="M195.236,397.114c0,0-0.868-1.814-1.732-1.954c0,0-0.035-7.77,6.777-4.906
									c0,0,9.065,12.222,1.554,13.806c0,0-2.29,0.733-3.024-0.079c0,0,4.905-2.87,1.606-7.375
									C200.418,396.604,198.877,394.118,195.236,397.114z"/>
								<path fill="#D16FAC" d="M188.189,400.352c0,0,3.663,6.411,9.588,5.405c0,0-10.09,2.701-11.464-3.039
									C186.313,402.719,186.929,400.633,188.189,400.352z"/>
								<path fill="#D16FAC" d="M197.114,400.124c0,0,1.404,1.833,1.183,2.94c0,0,2.411-0.728,1.215-3.029
									C199.514,400.035,198.556,398.713,197.114,400.124z"/>
								<path fill="#D16FAC" d="M195.696,400.593c0,0,3.583,3.81-0.141,3.752c0,0-2.513-6.639,2.56-7.814
									c0,0,1.608-0.266,2.29,2.383C200.405,398.913,195.832,396.844,195.696,400.593z"/>
								<path fill="#D16FAC" d="M187.23,406.328c0,0,0.182,0.309,0.498,0.807c1.375,2.18,5.285,7.989,7.593,7.511
									c0,0,11.23-3.148,12.387-8.14c0,0,1.021-5.328-2.009-6.83c0,0,0.545,6.515-8.974,7.566
									C196.726,407.242,190.142,408.2,187.23,406.328z"/>
								<path fill="#D16FAC" d="M201.05,391.238l2.484,3.644c0,0,7.759,1.632,11.072,10.178
									C214.605,405.059,217.062,391.126,201.05,391.238z"/>
								<path fill="#D16FAC" d="M202.453,391.1c0,0,11.979-0.763,11.762,14.729C214.214,405.831,218.822,391.341,202.453,391.1z"/>
								<path fill="#FAD0DF" d="M214.785,406.147c0,0,1.173-14.982-12.773-14.899l0,0c0,0,8.946-1.401,12.595,13.812
									L214.785,406.147z"/>
								<path fill="#D16FAC" d="M181.991,409.7c0,0,1.269,12.507,11.486,12.126c0,0,10.421-0.042,13.154-6.049
									c0,0,2.083-5.275,0.927-7.478c0,0-5.282,8.28-17.817,7.596C189.743,415.893,183.948,414.555,181.991,409.7z"/>
								<path fill="#D16FAC" d="M203.533,394.881l1.155,1.832c0,0,5.863,5.019,4.241,10.309c0,0-0.926,7.964-2.948,9.01
									c0,0,10.794-0.245,8.625-10.973C214.605,405.059,210.407,393.798,203.533,394.881z"/>
							</g>
						</g>
						<g>
							<path fill="#40AA48" d="M277.1,518.561c0,0,12.084-10.437,21.306,0.721C298.406,519.282,290.897,527.904,277.1,518.561z"/>
							<path fill="#40AA48" d="M260.239,488.273c0,0,14.965-4.484,19.304,9.662C279.541,497.935,269.454,502.681,260.239,488.273z"
								/>
							<g>
								<path fill="#E46996" d="M290.311,485.052c1.498,1.156-9.755-8.228-15.403,2.729c0,0-1.597,4.513,2.318,13.964
									c0,0-2.967-15.713,5.196-14.444c0,0,1.923-2.419,5.11-0.304C287.532,486.997,291.484,485.183,290.311,485.052z"/>
								<path fill="#E46996" stroke="#FAD0DF" stroke-miterlimit="10" d="M274.688,488.758c0,0-0.188,10.398,1.892,12.652
									c0,0-4.196-5.544-4.442-9.828C272.136,491.582,273.096,488.917,274.688,488.758z"/>
								<path fill="#FAD0DF" d="M271.981,492.381c0,0-1.489,11.967,13.806,14.722c4.285,0.416,4.287,0.357,7.027-0.361
									c0,0-3.671,4.691-4.843,4.562c0,0,6.646-2.113,9.123-10.527l-0.499-4.212c0,0,0.332-4.791-0.455-7.528
									c0,0,0.167,15.789-8.329,8.91c0,0,4.832,0.432,5.142-4.237c0.144-1.592,0.308-4.156-3.558-3.945
									c0,0-0.794-2.659-0.842-2.411c-0.047,0.244,1.875-1.604,2.824-2.164c0,0-2.835,0.368-3.557,1.616c0,0-3.39-3.014-5.18,0.021
									c1.056,0.126-6.116-1.236-5.4,4.421c0,0-1.139,5.252-0.24,8.016c0.735,2.246-2.519-7.891-1.915-9.263
									c0,0-0.785,8.764,1.438,11.718C276.521,501.715,272.807,496.151,271.981,492.381z"/>
								<path fill="#E46996" d="M284.418,495.032c0,0-4.353-6.602,0.472-7.966c0,0,2.498-0.513,3.022,2.953
									C287.912,490.019,284.11,492.914,284.418,495.032z"/>
								<path fill="#E46996" d="M288.716,490.199c0,0,0.253-1.91-0.349-2.522c0,0,3.938-6.06,7.771,0.132
									c0,0,0.806,14.772-5.838,11.632c0,0-2.153-0.762-2.307-1.824c0,0,5.274,0.627,5.009-4.797
									C293.002,492.821,293.074,489.992,288.716,490.199z"/>
								<path fill="#E46996" d="M281.589,488.618c0,0-0.427,7.115,4.691,9.783c0,0-9.22-3.777-7.355-9.032
									C278.924,489.368,280.465,488.101,281.589,488.618z"/>
								<path fill="#E46996" d="M288.641,493.635c0,0,0.153,2.239-0.58,2.971c0,0,2.244,0.837,2.49-1.646
									C290.55,494.962,290.479,493.379,288.641,493.635z"/>
								<path fill="#E46996" d="M287.299,493.172c0,0,0.843,5.045-2.02,2.833c0,0,1.432-6.619,5.976-4.58
									c0,0,1.383,0.729,0.562,3.186C291.816,494.61,289.319,490.343,287.299,493.172z"/>
								<path fill="#E46996" d="M277.794,492.706c0,0-0.017,0.347-0.025,0.914c-0.044,2.494,0.029,9.285,2.068,10.259
									c0,0,10.332,4.087,13.777,0.879c0,0,3.512-3.547,1.922-6.475c0,0-2.899,5.377-10.833,0.655
									C284.705,498.938,279.101,495.852,277.794,492.706z"/>
								<path fill="#E46996" d="M296.232,489.019l0.07,4.279c0,0,5.198,5.781,3.41,14.352
									C299.713,507.649,308.732,498.251,296.232,489.019z"/>
								<path fill="#E46996" d="M297.392,489.729c0,0,9.7,6.381,1.624,18.293C299.016,508.022,309.988,499.441,297.392,489.729z"/>
								<path fill="#FAD0DF" d="M299.299,508.598c0,0,8.556-10.962-2.324-19.012l0,0c0,0,7.667,4.119,2.738,18.062L299.299,508.598z
									"/>
								<path fill="#E46996" d="M272.002,492.276c0,0-5.394,10.459,2.74,16.106c0,0,8.116,6.028,13.307,2.955
									c0,0,4.311-2.888,4.534-5.272c0,0-8.329,3.362-17.721-4.466C274.862,501.599,271.044,497.187,272.002,492.276z"/>
								<path fill="#E46996" d="M296.303,493.299l-0.035,2.09c0,0,1.996,7.315-1.966,10.481c0,0-4.783,5.65-6.888,5.285
									c0,0,8.513,6.091,12.301-3.505C299.713,507.649,302.199,496.453,296.303,493.299z"/>
							</g>
							<g>
								<path fill="#D16FAC" d="M261.563,501.153c1.949,0.029-13.074-0.796-11.739,12.306c0,0,1.178,4.926,9.908,10.547
									c0,0-11.46-11.637-3.7-15.817c0,0,0.29-3.33,4.241-3.562C260.273,504.626,262.653,500.51,261.563,501.153z"/>
								<path fill="#D16FAC" d="M250.187,514.443c0,0,5.731,9.09,8.8,9.693c0,0-6.761-2.07-9.4-5.605
									C249.587,518.53,248.905,515.607,250.187,514.443z"/>
								<path fill="#FAD0DF" d="M249.906,519.322c0,0,5.494,11.282,20.249,3.776c3.934-2.409,3.901-2.457,5.855-4.849
									c0,0-0.508,6.42-1.596,7.062c0,0,4.542-6.114,1.91-14.975l-2.816-3.312c0,0-2.427-4.349-4.658-6.198
									c0,0,9.091,13.515-2.139,13.066c0,0,4.415-2.749,2.037-6.977c-0.777-1.465-2.088-3.784-5.306-1.104
									c0,0-2.19-1.781-2.092-1.537c0.096,0.244,0.709-2.599,1.209-3.691c0,0-2.235,2.149-2.153,3.694c0,0-4.632-0.408-4.457,3.364
									c0.983-0.576-5.976,2.882-2.155,7.301c0,0,1.991,5.269,4.332,7.068c1.906,1.463-6.639-5.176-6.898-6.753
									c0,0,4.289,8.069,7.878,9.181C259.111,524.438,252.752,522.036,249.906,519.322z"/>
								<path fill="#D16FAC" d="M262.136,513.568c0,0-7.495-2.882-4.106-7.174c0,0,1.864-2.057,4.28,0.596
									C262.311,506.991,260.671,511.942,262.136,513.568z"/>
								<path fill="#D16FAC" d="M263.109,506.626c0,0-0.868-1.814-1.732-1.952c0,0-0.034-7.772,6.778-4.905
									c0,0,9.064,12.222,1.555,13.805c0,0-2.292,0.733-3.025-0.079c0,0,4.905-2.87,1.604-7.376
									C268.29,506.117,266.75,503.631,263.109,506.626z"/>
								<path fill="#D16FAC" d="M256.063,509.865c0,0,3.66,6.413,9.586,5.405c0,0-10.089,2.703-11.463-3.039
									C254.187,512.231,254.802,510.146,256.063,509.865z"/>
								<path fill="#D16FAC" d="M264.988,509.638c0,0,1.402,1.831,1.184,2.938c0,0,2.411-0.728,1.213-3.028
									C267.386,509.549,266.429,508.228,264.988,509.638z"/>
								<path fill="#D16FAC" d="M263.57,510.106c0,0,3.584,3.808-0.138,3.75c0,0-2.517-6.639,2.559-7.813
									c0,0,1.606-0.266,2.288,2.386C268.279,508.428,263.707,506.356,263.57,510.106z"/>
								<path fill="#D16FAC" d="M255.104,515.841c0,0,0.182,0.311,0.496,0.809c1.376,2.179,5.284,7.988,7.595,7.51
									c0,0,11.229-3.149,12.383-8.14c0,0,1.023-5.328-2.006-6.828c0,0,0.544,6.513-8.975,7.563
									C264.598,516.755,258.013,517.714,255.104,515.841z"/>
								<path fill="#D16FAC" d="M268.924,500.75l2.484,3.647c0,0,7.759,1.628,11.072,10.176
									C282.48,514.571,284.933,500.638,268.924,500.75z"/>
								<path fill="#D16FAC" d="M270.328,500.613c0,0,11.981-0.762,11.761,14.731C282.088,515.344,286.694,500.853,270.328,500.613z
									"/>
								<path fill="#FAD0DF" d="M282.659,515.663c0,0,1.172-14.985-12.775-14.899l0,0c0,0,8.945-1.404,12.597,13.81L282.659,515.663
									z"/>
								<path fill="#D16FAC" d="M249.863,519.214c0,0,1.271,12.508,11.489,12.124c0,0,10.417-0.041,13.15-6.048
									c0,0,2.089-5.276,0.93-7.476c0,0-5.284,8.277-17.817,7.594C257.615,525.408,251.82,524.07,249.863,519.214z"/>
								<path fill="#D16FAC" d="M271.408,504.397l1.154,1.827c0,0,5.861,5.02,4.242,10.312c0,0-0.928,7.961-2.948,9.007
									c0,0,10.794-0.244,8.625-10.973C282.48,514.571,278.282,503.309,271.408,504.397z"/>
							</g>
						</g>
						<g>
							<path fill="#40AA48" d="M380.646,403.58c0,0,12.085-10.437,21.306,0.724C401.951,404.302,394.444,412.922,380.646,403.58z"/>
							<path fill="#40AA48" d="M363.786,373.29c0,0,14.965-4.479,19.301,9.662C383.087,382.952,372.998,387.7,363.786,373.29z"/>
							<g>
								<path fill="#E46996" d="M393.856,370.069c1.498,1.156-9.753-8.227-15.403,2.729c0,0-1.597,4.513,2.316,13.964
									c0,0-2.966-15.71,5.197-14.443c0,0,1.924-2.421,5.113-0.304C391.08,372.014,395.029,370.203,393.856,370.069z"/>
								<path fill="#E46996" stroke="#FAD0DF" stroke-miterlimit="10" d="M378.232,373.775c0,0-0.187,10.397,1.894,12.652
									c0,0-4.196-5.544-4.445-9.824C375.681,376.605,376.645,373.934,378.232,373.775z"/>
								<path fill="#FAD0DF" d="M375.529,377.401c0,0-1.492,11.965,13.806,14.718c4.282,0.42,4.282,0.36,7.027-0.361
									c0,0-3.674,4.694-4.847,4.562c0,0,6.648-2.111,9.123-10.526l-0.498-4.211c0,0,0.332-4.792-0.456-7.527
									c0,0,0.166,15.79-8.329,8.91c0,0,4.832,0.432,5.143-4.24c0.143-1.592,0.309-4.156-3.558-3.942c0,0-0.792-2.661-0.843-2.412
									c-0.048,0.243,1.878-1.605,2.826-2.165c0,0-2.836,0.369-3.558,1.616c0,0-3.392-3.012-5.182,0.02
									c1.057,0.127-6.115-1.235-5.4,4.419c0,0-1.14,5.252-0.241,8.015c0.734,2.247-2.517-7.889-1.913-9.263
									c0,0-0.785,8.767,1.437,11.721C380.066,386.734,376.352,381.17,375.529,377.401z"/>
								<path fill="#E46996" d="M387.965,380.051c0,0-4.355-6.602,0.471-7.964c0,0,2.499-0.514,3.023,2.953
									C391.46,375.04,387.657,377.933,387.965,380.051z"/>
								<path fill="#E46996" d="M392.262,375.22c0,0,0.252-1.914-0.347-2.525c0,0,3.938-6.059,7.77,0.133
									c0,0,0.807,14.771-5.837,11.632c0,0-2.155-0.766-2.309-1.823c0,0,5.275,0.625,5.011-4.797
									C396.55,377.84,396.62,375.011,392.262,375.22z"/>
								<path fill="#E46996" d="M385.133,373.636c0,0-0.424,7.112,4.692,9.781c0,0-9.218-3.773-7.355-9.033
									C382.47,374.384,384.012,373.121,385.133,373.636z"/>
								<path fill="#E46996" d="M392.186,378.654c0,0,0.155,2.24-0.58,2.971c0,0,2.245,0.838,2.489-1.646
									C394.096,379.98,394.025,378.397,392.186,378.654z"/>
								<path fill="#E46996" d="M390.846,378.193c0,0,0.841,5.045-2.023,2.832c0,0,1.436-6.619,5.979-4.58
									c0,0,1.384,0.727,0.562,3.184C395.362,379.628,392.865,375.36,390.846,378.193z"/>
								<path fill="#E46996" d="M381.34,377.722c0,0-0.015,0.347-0.023,0.917c-0.046,2.494,0.027,9.285,2.068,10.256
									c0,0,10.331,4.087,13.776,0.881c0,0,3.511-3.545,1.922-6.475c0,0-2.898,5.376-10.832,0.655
									C388.253,383.957,382.647,380.872,381.34,377.722z"/>
								<path fill="#E46996" d="M399.778,374.038l0.071,4.281c0,0,5.197,5.78,3.412,14.348
									C403.262,392.666,412.279,383.269,399.778,374.038z"/>
								<path fill="#E46996" d="M400.939,374.748c0,0,9.699,6.379,1.623,18.293C402.562,393.041,413.537,384.461,400.939,374.748z"
									/>
								<path fill="#FAD0DF" d="M402.846,393.621c0,0,8.556-10.963-2.326-19.016l0,0c0,0,7.667,4.116,2.742,18.063L402.846,393.621z
									"/>
								<path fill="#E46996" d="M375.547,377.293c0,0-5.393,10.459,2.739,16.109c0,0,8.12,6.028,13.309,2.954
									c0,0,4.312-2.888,4.534-5.272c0,0-8.328,3.363-17.72-4.465C378.41,386.618,374.591,382.206,375.547,377.293z"/>
								<path fill="#E46996" d="M399.85,378.318l-0.036,2.091c0,0,1.993,7.312-1.965,10.481c0,0-4.783,5.648-6.892,5.286
									c0,0,8.516,6.088,12.304-3.509C403.262,392.666,405.744,381.472,399.85,378.318z"/>
							</g>
							<g>
								<path fill="#D16FAC" d="M365.112,386.171c1.946,0.029-13.076-0.795-11.743,12.306c0,0,1.178,4.927,9.911,10.548
									c0,0-11.46-11.638-3.699-15.813c0,0,0.29-3.335,4.238-3.567C363.82,389.645,366.198,385.528,365.112,386.171z"/>
								<path fill="#D16FAC" d="M353.732,399.462c0,0,5.729,9.09,8.798,9.693c0,0-6.761-2.07-9.398-5.603
									C353.132,403.552,352.452,400.626,353.732,399.462z"/>
								<path fill="#FAD0DF" d="M353.452,404.339c0,0,5.494,11.285,20.249,3.779c3.933-2.409,3.899-2.461,5.857-4.852
									c0,0-0.511,6.42-1.596,7.062c0,0,4.539-6.114,1.907-14.974l-2.815-3.311c0,0-2.427-4.35-4.658-6.198
									c0,0,9.09,13.514-2.137,13.067c0,0,4.412-2.751,2.033-6.979c-0.777-1.467-2.088-3.785-5.303-1.103
									c0,0-2.192-1.783-2.094-1.539c0.1,0.24,0.708-2.595,1.211-3.69c0,0-2.236,2.149-2.154,3.691c0,0-4.631-0.408-4.454,3.366
									c0.981-0.575-5.978,2.883-2.155,7.3c0,0,1.992,5.268,4.333,7.072c1.907,1.462-6.642-5.183-6.9-6.755
									c0,0,4.289,8.069,7.878,9.178C362.654,409.455,356.3,407.057,353.452,404.339z"/>
								<path fill="#D16FAC" d="M365.685,398.587c0,0-7.495-2.88-4.106-7.173c0,0,1.86-2.057,4.28,0.596
									C365.859,392.01,364.217,396.96,365.685,398.587z"/>
								<path fill="#D16FAC" d="M366.654,391.645c0,0-0.866-1.813-1.732-1.954c0,0-0.033-7.77,6.78-4.903
									c0,0,9.062,12.22,1.552,13.806c0,0-2.291,0.73-3.024-0.082c0,0,4.906-2.867,1.608-7.376
									C371.838,391.135,370.296,388.649,366.654,391.645z"/>
								<path fill="#D16FAC" d="M359.608,394.885c0,0,3.663,6.41,9.588,5.405c0,0-10.091,2.701-11.464-3.038
									C357.732,397.251,358.349,395.166,359.608,394.885z"/>
								<path fill="#D16FAC" d="M368.535,394.658c0,0,1.403,1.829,1.182,2.938c0,0,2.41-0.727,1.213-3.028
									C370.93,394.567,369.975,393.247,368.535,394.658z"/>
								<path fill="#D16FAC" d="M367.114,395.126c0,0,3.584,3.81-0.137,3.748c0,0-2.516-6.636,2.56-7.81
									c0,0,1.607-0.268,2.289,2.381C371.825,393.445,367.254,391.378,367.114,395.126z"/>
								<path fill="#D16FAC" d="M358.649,400.859c0,0,0.185,0.309,0.496,0.807c1.375,2.182,5.287,7.992,7.597,7.514
									c0,0,11.227-3.151,12.385-8.144c0,0,1.021-5.326-2.01-6.827c0,0,0.545,6.511-8.972,7.562
									C368.145,401.772,361.559,402.731,358.649,400.859z"/>
								<path fill="#D16FAC" d="M372.471,385.768l2.482,3.648c0,0,7.762,1.626,11.072,10.175
									C386.025,399.591,388.481,385.659,372.471,385.768z"/>
								<path fill="#D16FAC" d="M373.872,385.633c0,0,11.981-0.762,11.764,14.728C385.636,400.362,390.241,385.874,373.872,385.633z
									"/>
								<path fill="#FAD0DF" d="M386.206,400.681c0,0,1.172-14.985-12.774-14.9l0,0c0,0,8.947-1.401,12.594,13.809L386.206,400.681z
									"/>
								<path fill="#D16FAC" d="M353.411,404.234c0,0,1.269,12.508,11.487,12.122c0,0,10.418-0.045,13.152-6.049
									c0,0,2.086-5.273,0.928-7.475c0,0-5.283,8.278-17.817,7.593C361.16,410.426,355.366,409.089,353.411,404.234z"/>
								<path fill="#D16FAC" d="M374.953,389.416l1.153,1.827c0,0,5.862,5.021,4.241,10.312c0,0-0.926,7.961-2.946,9.006
									c0,0,10.793-0.244,8.624-10.971C386.025,399.591,381.828,388.327,374.953,389.416z"/>
							</g>
						</g>
						<g>
							<path fill="#40AA48" d="M302.817,422.249c0,0,12.085-10.437,21.306,0.721C324.123,422.969,316.617,431.591,302.817,422.249z"
								/>
							<path fill="#40AA48" d="M285.958,391.96c0,0,14.964-4.483,19.304,9.663C305.261,401.623,295.17,406.368,285.958,391.96z"/>
							<g>
								<path fill="#E46996" d="M316.029,388.737c1.498,1.157-9.752-8.228-15.402,2.729c0,0-1.601,4.514,2.319,13.965
									c0,0-2.968-15.713,5.195-14.443c0,0,1.923-2.421,5.111-0.304C313.252,390.684,317.202,388.869,316.029,388.737z"/>
								<path fill="#E46996" stroke="#FAD0DF" stroke-miterlimit="10" d="M300.406,392.444c0,0-0.186,10.397,1.892,12.653
									c0,0-4.199-5.546-4.446-9.827C297.852,395.27,298.816,392.603,300.406,392.444z"/>
								<path fill="#FAD0DF" d="M297.699,396.069c0,0-1.489,11.964,13.806,14.72c4.284,0.418,4.284,0.359,7.028-0.361
									c0,0-3.671,4.692-4.844,4.56c0,0,6.646-2.11,9.123-10.525l-0.499-4.212c0,0,0.333-4.792-0.456-7.527
									c0,0,0.167,15.789-8.331,8.909c0,0,4.835,0.431,5.143-4.239c0.145-1.589,0.311-4.155-3.556-3.941
									c0,0-0.795-2.66-0.843-2.414c-0.047,0.243,1.877-1.606,2.824-2.165c0,0-2.833,0.368-3.556,1.616
									c0,0-3.393-3.011-5.182,0.021c1.059,0.125-6.115-1.236-5.399,4.42c0,0-1.143,5.252-0.239,8.015
									c0.732,2.245-2.521-7.888-1.916-9.262c0,0-0.787,8.764,1.436,11.718C302.239,405.402,298.524,399.839,297.699,396.069z"/>
								<path fill="#E46996" d="M310.137,398.72c0,0-4.352-6.602,0.469-7.965c0,0,2.501-0.514,3.025,2.956
									C313.63,393.71,309.829,396.6,310.137,398.72z"/>
								<path fill="#E46996" d="M314.436,393.889c0,0,0.251-1.914-0.348-2.525c0,0,3.935-6.058,7.77,0.133
									c0,0,0.809,14.771-5.839,11.63c0,0-2.152-0.763-2.309-1.822c0,0,5.277,0.626,5.013-4.797
									C318.722,396.509,318.795,393.679,314.436,393.889z"/>
								<path fill="#E46996" d="M307.308,392.304c0,0-0.425,7.112,4.69,9.782c0,0-9.218-3.774-7.356-9.033
									C304.643,393.054,306.184,391.79,307.308,392.304z"/>
								<path fill="#E46996" d="M314.359,397.324c0,0,0.156,2.239-0.58,2.97c0,0,2.244,0.839,2.486-1.646
									C316.266,398.649,316.2,397.065,314.359,397.324z"/>
								<path fill="#E46996" d="M313.017,396.861c0,0,0.842,5.045-2.021,2.831c0,0,1.434-6.619,5.979-4.58
									c0,0,1.382,0.728,0.561,3.186C317.535,398.297,315.038,394.029,313.017,396.861z"/>
								<path fill="#E46996" d="M303.512,396.391c0,0-0.015,0.347-0.024,0.917c-0.045,2.492,0.03,9.284,2.067,10.255
									c0,0,10.332,4.087,13.779,0.88c0,0,3.512-3.546,1.923-6.474c0,0-2.901,5.378-10.833,0.655
									C310.426,402.627,304.819,399.538,303.512,396.391z"/>
								<path fill="#E46996" d="M321.952,392.707l0.07,4.279c0,0,5.198,5.781,3.409,14.35
									C325.432,411.337,334.45,401.937,321.952,392.707z"/>
								<path fill="#E46996" d="M323.112,393.418c0,0,9.696,6.377,1.622,18.29C324.735,411.708,335.706,403.128,323.112,393.418z"/>
								<path fill="#FAD0DF" d="M325.016,412.288c0,0,8.558-10.962-2.323-19.015l0,0c0,0,7.668,4.118,2.74,18.063L325.016,412.288z"
									/>
								<path fill="#E46996" d="M297.721,395.963c0,0-5.394,10.458,2.741,16.105c0,0,8.118,6.028,13.306,2.955
									c0,0,4.312-2.886,4.536-5.271c0,0-8.332,3.361-17.72-4.466C300.583,405.286,296.764,400.876,297.721,395.963z"/>
								<path fill="#E46996" d="M322.022,396.986l-0.037,2.093c0,0,1.994,7.311-1.966,10.479c0,0-4.78,5.65-6.885,5.287
									c0,0,8.514,6.09,12.299-3.509C325.432,411.337,327.918,400.14,322.022,396.986z"/>
							</g>
							<g>
								<path fill="#D16FAC" d="M287.284,404.843c1.946,0.027-13.077-0.8-11.743,12.303c0,0,1.18,4.925,9.912,10.549
									c0,0-11.461-11.639-3.7-15.815c0,0,0.291-3.333,4.237-3.566C285.989,408.314,288.371,404.197,287.284,404.843z"/>
								<path fill="#D16FAC" d="M275.905,418.131c0,0,5.73,9.091,8.8,9.693c0,0-6.761-2.07-9.399-5.606
									C275.306,422.218,274.623,419.295,275.905,418.131z"/>
								<path fill="#FAD0DF" d="M275.625,423.008c0,0,5.492,11.284,20.248,3.779c3.934-2.408,3.901-2.458,5.858-4.853
									c0,0-0.512,6.421-1.597,7.063c0,0,4.537-6.115,1.908-14.974l-2.818-3.311c0,0-2.427-4.351-4.657-6.199
									c0,0,9.088,13.512-2.137,13.065c0,0,4.414-2.749,2.036-6.977c-0.777-1.468-2.086-3.784-5.302-1.104
									c0,0-2.196-1.781-2.098-1.538c0.101,0.241,0.712-2.596,1.212-3.688c0,0-2.236,2.147-2.154,3.689c0,0-4.63-0.407-4.457,3.365
									c0.986-0.573-5.976,2.884-2.154,7.302c0,0,1.992,5.269,4.333,7.07c1.907,1.464-6.641-5.178-6.897-6.755
									c0,0,4.289,8.069,7.877,9.182C284.827,428.126,278.473,425.726,275.625,423.008z"/>
								<path fill="#D16FAC" d="M287.855,417.258c0,0-7.494-2.883-4.107-7.176c0,0,1.866-2.059,4.281,0.594
									C288.029,410.677,286.39,415.629,287.855,417.258z"/>
								<path fill="#D16FAC" d="M288.826,410.314c0,0-0.866-1.814-1.73-1.955c0,0-0.034-7.769,6.778-4.902
									c0,0,9.062,12.221,1.555,13.804c0,0-2.292,0.732-3.025-0.081c0,0,4.905-2.868,1.605-7.374
									C294.009,409.804,292.467,407.318,288.826,410.314z"/>
								<path fill="#D16FAC" d="M281.781,413.552c0,0,3.662,6.413,9.589,5.406c0,0-10.092,2.702-11.466-3.037
									C279.906,415.922,280.521,413.834,281.781,413.552z"/>
								<path fill="#D16FAC" d="M290.704,413.325c0,0,1.405,1.833,1.187,2.939c0,0,2.41-0.729,1.215-3.029
									C293.105,413.235,292.148,411.913,290.704,413.325z"/>
								<path fill="#D16FAC" d="M289.288,413.792c0,0,3.586,3.811-0.139,3.75c0,0-2.514-6.637,2.561-7.811
									c0,0,1.606-0.269,2.289,2.385C293.997,412.114,289.426,410.046,289.288,413.792z"/>
								<path fill="#D16FAC" d="M280.824,419.528c0,0,0.181,0.309,0.496,0.807c1.373,2.18,5.283,7.988,7.594,7.511
									c0,0,11.229-3.148,12.386-8.14c0,0,1.02-5.328-2.008-6.828c0,0,0.544,6.513-8.974,7.564
									C290.318,420.441,283.732,421.4,280.824,419.528z"/>
								<path fill="#D16FAC" d="M294.641,404.437l2.485,3.648c0,0,7.759,1.625,11.071,10.175
									C308.198,418.26,310.653,404.327,294.641,404.437z"/>
								<path fill="#D16FAC" d="M296.044,404.302c0,0,11.981-0.764,11.763,14.729C307.807,419.03,312.413,404.543,296.044,404.302z"
									/>
								<path fill="#FAD0DF" d="M308.377,419.348c0,0,1.173-14.981-12.775-14.899l0,0c0,0,8.945-1.401,12.596,13.81L308.377,419.348
									z"/>
								<path fill="#D16FAC" d="M275.581,422.9c0,0,1.272,12.508,11.489,12.125c0,0,10.42-0.043,13.152-6.048
									c0,0,2.085-5.275,0.927-7.475c0,0-5.281,8.278-17.816,7.594C283.333,429.094,277.54,427.759,275.581,422.9z"/>
								<path fill="#D16FAC" d="M297.127,408.084l1.154,1.828c0,0,5.863,5.022,4.242,10.312c0,0-0.927,7.962-2.947,9.009
									c0,0,10.794-0.247,8.623-10.972C308.198,418.26,304.001,406.998,297.127,408.084z"/>
							</g>
						</g>
					</g>
				</g>
			</g>
		</g>
	</g>
	<path fill="#FFFCFA" d="M335.345,270.612c0,3.231-9.672,5.378-12.412,5.378l-37.654,1.949c-2.741,0-4.965-2.619-4.965-5.849
		l6.621-12.009c0-3.233,22.499-7.676,25.241-7.676h20.274c2.742,0,4.21,7.674,4.21,10.905L335.345,270.612z"/>
	<path fill="#FFFCFA" d="M218.595,273.234c0.234,3.223,10.033,4.667,12.768,4.47l37.696-0.769c2.734-0.198,4.763-2.97,4.53-6.195
		l-7.468-11.5c-0.234-3.223-22.991-6.033-25.727-5.835l-20.222,1.461c-2.736,0.197-3.648,7.958-3.413,11.18L218.595,273.234z"/>
	<path fill="none" stroke="#FDE9F1" stroke-width="4" stroke-miterlimit="10" d="M277.89,265.173c0,0,2.299,37.709-73.529,39.054"/>
	<path fill="#F6A9C1" d="M286.635,267.822c0,3.655-1.991,6.844-4.947,8.544c-0.991,0.572-2.091,0.974-3.26,1.172
		c-0.534,0.087-1.083,0.136-1.645,0.136c-5.442,0-9.852-4.412-9.852-9.852c0-5.441,4.41-9.852,9.852-9.852
		C282.223,257.97,286.635,262.381,286.635,267.822z"/>
	<path fill="#D0D2D5" d="M436.025,181.428c0,17.583-9.33,31.837-20.84,31.837c-11.509,0-20.837-14.254-20.837-31.837
		c0-17.583,9.328-31.836,20.837-31.836C426.695,149.592,436.025,163.845,436.025,181.428z"/>
	<path fill="#D4D8DE" d="M412.071,213.265h7.078c0,0,0.883,91.034,2.653,91.919c0,0,5.05,19.756-6.616,22.116
		c0,0-10.189,1.179-5.77-28.012l2.95-57.795L412.071,213.265z"/>
	<path fill="#D0D2D5" d="M148.427,126.905c0,0-13.094,64.442,1.724,71.681c0,0,3.102,7.924,3.102,11.026
		c0,0,0.345,75.125-1.722,75.125c0,0-8.961,45.16,4.822,44.118c0,0,13.456,2.748,5.17-44.461l-1.378-78.917
		c0,0,0.343-6.018,5.513-9.9c0,0,5.858-5.263,3.79-23.183c0,0-1.723-40.318-5.858-45.489l2.068,47.211c0,0-2.412,8.961-3.102-2.411
		c0,0-1.378-44.454-3.791-44.799l-0.344,36.184c0,0-0.346,21.71-3.791,11.717c0,0-0.688-47.898-0.688-47.9l-3.447,43.766
		c0,0-0.113,14.575-3.446,2.067L148.427,126.905z"/>
</g>
</svg>
