<?xml version="1.0" encoding="utf-8"?>
<!-- Generator: Adobe Illustrator 15.1.0, SVG Export Plug-In . SVG Version: 6.00 Build 0)  -->
<!DOCTYPE svg PUBLIC "-//W3C//DTD SVG 1.1//EN" "http://www.w3.org/Graphics/SVG/1.1/DTD/svg11.dtd">
<svg version="1.1" id="Layer_1" xmlns="http://www.w3.org/2000/svg" xmlns:xlink="http://www.w3.org/1999/xlink" x="0px" y="0px"
	 width="440px" height="472.742px" viewBox="0 0 440 472.742" enable-background="new 0 0 440 472.742" xml:space="preserve">
<g>
	<path fill="#2D2E2D" d="M122.563,96.207c0,0,24.904-107.173,168.613-96.688c0,0,124.84,38.998,100.551,150.676
		c-0.191,1.956,5.244,264.255-311.191,260.091c0,0-80.713-3.532-58.072-76.469c0,0,4.268-11.694,25.267-20.885
		c0,0,33.25-4.592,19.249,25.476c0,0,0.437-20.463-19.686-8.353c0,0-10.939,21.299,20.123,25.478c0,0,41.126,8.771,58.624-39.259
		c0,0,2.502-52.565-2.309-79.711C123.727,236.565,114.682,106.54,122.563,96.207z"/>
	<path fill="#F8E0CA" d="M366.303,120.809c0,73.073,24.66,93.066-110.059,93.066c-108.561,0-110.063-12.322-110.063-93.066
		c0-69.635,25.765-82.292,105.672-82.292C350.908,38.517,366.303,61.177,366.303,120.809z"/>
	<path fill="none" stroke="#F8B77F" stroke-miterlimit="10" d="M256.371,139.616c0,0-0.928,3.156-11.096,9.898
		c0,0,0,9.51,11.096,8.587"/>
	<path fill="#2D2E2D" d="M284.484,13.882c0,0-147.688-35.248-142.993,109.77c0,0,9.905-5.078,26.787-10.584l13.188-48.07
		l12.865,40.957c12.791-2.838,27.432-5.151,43.381-6.08l17.281-45.357l24.059,46.314c9.574,1.027,19.406,2.664,29.402,5.046
		l-5.312-51.36l29.246,58.457c13.111,4.676,26.391,10.756,39.656,18.531C372.045,131.505,387.545,13.757,284.484,13.882z"/>
	<line fill="none" x1="168.278" y1="113.069" x2="168.044" y2="113.92"/>
	<polygon opacity="0.67" fill="#F6D0B0" enable-background="new    " points="146.078,133.488 175.949,113.069 181.469,65.208 
		168.278,113.069 146.181,120.809 	"/>
	<polygon opacity="0.67" fill="#F6D0B0" enable-background="new    " points="254.996,54.518 245.275,99.348 237.713,99.874 	"/>
	<polygon fill="#F6D0B0" points="264.879,73.54 274.352,99.874 279.057,100.833 	"/>
	<polyline fill="#F6D0B0" points="303.422,57.211 325.074,113.069 332.389,112.973 303.145,54.518 	"/>
	<path fill="#F6D0B0" d="M366.471,131.505c0,0,1.115,68.127-57.934,80.771c0,0,60.602,4.402,59.535-40.385L366.471,131.505z"/>
	<g>
		<path fill="#9B6127" d="M325.984,128.208c0.57,0.277,1.152,0.518,1.75,0.711c0.594,0.201,1.199,0.362,1.814,0.462
			c1.221,0.198,2.508,0.184,3.613-0.333c1.119-0.496,1.941-1.493,2.459-2.613c0.268-0.559,0.465-1.156,0.619-1.762
			c0.166-0.606,0.273-1.228,0.371-1.851c-0.043,1.261-0.246,2.534-0.736,3.724c-0.242,0.598-0.576,1.16-1.004,1.656
			c-0.428,0.492-0.963,0.896-1.559,1.172c-1.207,0.549-2.572,0.549-3.814,0.277C328.246,129.38,327.055,128.885,325.984,128.208z"/>
	</g>
	<g>
		<path fill="#9B6127" d="M326.762,135.927c0.57,0.275,1.152,0.518,1.75,0.71c0.592,0.202,1.199,0.364,1.812,0.463
			c1.223,0.198,2.506,0.183,3.613-0.332c1.119-0.497,1.943-1.495,2.463-2.612c0.264-0.561,0.463-1.157,0.615-1.765
			c0.166-0.604,0.275-1.227,0.375-1.851c-0.049,1.263-0.25,2.535-0.74,3.728c-0.24,0.595-0.576,1.16-1,1.653
			c-0.43,0.492-0.969,0.898-1.561,1.174c-1.205,0.549-2.574,0.545-3.814,0.277C329.023,137.097,327.832,136.603,326.762,135.927z"/>
	</g>
	<g>
		<path fill="#FFFFFF" d="M327.818,136.289c0,10.614-8.842,19.217-19.748,19.217c-10.904,0-19.744-8.604-19.744-19.217
			s8.84-19.214,19.744-19.214C318.977,117.075,327.818,125.677,327.818,136.289z"/>
	</g>
	<g>
		<path d="M316.006,136.289c0,7.438-6.195,13.47-13.84,13.47s-13.84-6.031-13.84-13.47s6.195-13.467,13.84-13.467
			S316.006,128.85,316.006,136.289z"/>
	</g>
	<g opacity="0.7">
		
			<image overflow="visible" enable-background="new    " width="655" height="629" xlink:href="EF002ED5.png"  transform="matrix(0.0832 0 0 0.0835 275.3906 109.6599)">
		</image>
	</g>
	<g>
		<path fill="#9B6127" d="M187.305,125.879c-1.072,0.679-2.261,1.169-3.514,1.444c-1.242,0.27-2.607,0.271-3.813-0.278
			c-0.596-0.274-1.132-0.681-1.56-1.172c-0.426-0.496-0.762-1.06-1.005-1.654c-0.487-1.192-0.688-2.466-0.735-3.729
			c0.098,0.625,0.209,1.247,0.372,1.853c0.155,0.606,0.352,1.203,0.616,1.762c0.521,1.121,1.343,2.119,2.461,2.614
			c1.109,0.515,2.394,0.532,3.613,0.333c0.614-0.1,1.221-0.262,1.814-0.463C186.153,126.398,186.735,126.155,187.305,125.879z"/>
	</g>
	<g>
		<path fill="#9B6127" d="M186.528,133.598c-1.071,0.676-2.261,1.169-3.513,1.443c-1.242,0.271-2.607,0.271-3.815-0.275
			c-0.596-0.275-1.13-0.683-1.559-1.176s-0.762-1.057-1.004-1.652c-0.489-1.19-0.69-2.465-0.737-3.727
			c0.099,0.625,0.209,1.244,0.374,1.854c0.155,0.604,0.352,1.2,0.619,1.761c0.518,1.118,1.341,2.116,2.458,2.614
			c1.108,0.514,2.396,0.531,3.612,0.332c0.617-0.1,1.223-0.262,1.817-0.464C185.376,134.116,185.958,133.873,186.528,133.598z"/>
	</g>
	<g>
		<ellipse fill="#FFFFFF" cx="205.22" cy="133.959" rx="19.747" ry="19.217"/>
	</g>
	<g>
		<ellipse cx="211.125" cy="133.959" rx="13.842" ry="13.469"/>
	</g>
	<g opacity="0.7">
		
			<image overflow="visible" enable-background="new    " width="650" height="624" xlink:href="EF002EDB.png"  transform="matrix(0.0841 0 0 0.0838 183.3862 107.4431)">
		</image>
	</g>
	<g>
		<path fill="#ED1F24" d="M211.426,178.173c3.775,2.372,7.828,4.254,11.976,5.838c4.143,1.598,8.4,2.871,12.721,3.873
			c4.318,0.983,8.697,1.711,13.107,2.124c4.406,0.427,8.84,0.585,13.27,0.454c4.426-0.105,8.848-0.491,13.234-1.115
			c4.391-0.603,8.742-1.482,13.057-2.536c4.309-1.073,8.57-2.339,12.771-3.796c2.105-0.718,4.199-1.484,6.271-2.298
			c1.037-0.405,2.068-0.823,3.1-1.25c1.031-0.42,2.057-0.853,3.08-1.293c-0.99,0.507-1.99,1.004-2.994,1.49
			c-1.008,0.479-2.02,0.947-3.039,1.405c-2.037,0.912-4.096,1.783-6.172,2.605c-4.166,1.623-8.414,3.047-12.736,4.222
			c-4.316,1.192-8.713,2.108-13.141,2.799c-4.432,0.671-8.91,1.075-13.396,1.202c-4.486,0.104-8.98-0.058-13.443-0.538
			c-4.459-0.495-8.893-1.265-13.238-2.388c-4.342-1.106-8.604-2.544-12.719-4.312c-2.053-0.895-4.066-1.869-6.033-2.936
			C215.139,180.657,213.213,179.507,211.426,178.173z"/>
	</g>
	<path fill="#ED1F24" d="M302.066,183.219c0,0-10.455,2.216-15.283,4.673c0,0-26.115-11.139-7.086-23.273
		C279.697,164.618,294.406,153.438,302.066,183.219z"/>
	<g>
		<path fill="#C11F54" d="M284.502,173.042c1.193,0.334,2.314,0.884,3.367,1.531c1.061,0.648,2.049,1.425,2.922,2.329
			c0.867,0.903,1.631,1.944,2.137,3.114c0.514,1.156,0.764,2.455,0.58,3.684c-0.27-1.207-0.725-2.299-1.326-3.297
			c-0.611-0.998-1.352-1.905-2.168-2.751C288.379,175.952,286.479,174.503,284.502,173.042z"/>
	</g>
	<path fill="#F8E0CA" d="M368.133,286.552c31.236-46.896,49.379-89.687,32.543-100.9c-8.736-5.815-28.984,35.578-60.215,82.472
		c-31.232,46.896-61.623,81.533-52.889,87.349C296.305,361.291,336.9,333.451,368.133,286.552z"/>
	<path fill="#F6D0B0" d="M400.676,185.652c0,0-86.65,136.304-113.102,169.82c0,0-11.205-7.952,50.812-84.252l29.92-47.088
		C368.305,224.133,396.594,181.27,400.676,185.652z"/>
	<path fill="#F8E0CA" d="M168.591,286.288c-31.233-46.894-49.376-89.688-32.539-100.902c8.732-5.816,28.981,35.577,60.211,82.473
		c31.232,46.896,61.623,81.532,52.891,87.349C240.422,361.024,199.824,333.184,168.591,286.288z"/>
	<path fill="#F6D0B0" d="M136.053,185.385c0,0,86.648,136.307,113.102,169.821c0,0,11.201-7.957-50.816-84.25l-29.918-47.09
		C168.42,223.867,140.131,181.005,136.053,185.385z"/>
	<g>
		<g>
			<g>
				<defs>
					<path id="SVGID_1_" d="M189.691,245.559L178.82,437.806c0,0,96.045,59.303,186.295,1.395l-35.254-200.432l-1.598-26.655
						l-136.961,4.962L189.691,245.559z"/>
				</defs>
				<clipPath id="SVGID_2_">
					<use xlink:href="#SVGID_1_"  overflow="visible"/>
				</clipPath>
				<g clip-path="url(#SVGID_2_)">
					<path fill="#95281E" d="M190.21,244.182l-10.874,192.245c0,0,96.048,59.299,186.3,1.395l-33.705-200.433l-1.6-26.655
						l-138.511,4.962L190.21,244.182z"/>
					<path fill="#40AA48" d="M211.867,426.602c0,0,12.036-10.394,21.219,0.718C233.086,427.322,225.609,435.905,211.867,426.602z"/>
					<path fill="#40AA48" d="M195.075,396.436c0,0,14.905-4.464,19.224,9.622C214.298,406.056,204.25,410.789,195.075,396.436z"/>
					<g>
						<path fill="#E46996" d="M225.023,393.226c1.492,1.152-9.714-8.195-15.339,2.721c0,0-1.593,4.493,2.308,13.905
							c0,0-2.956-15.649,5.175-14.387c0,0,1.919-2.41,5.091-0.303C222.258,395.165,226.195,393.358,225.023,393.226z"/>
						<path fill="#E46996" stroke="#FAD0DF" stroke-miterlimit="10" d="M209.463,396.918c0,0-0.187,10.354,1.886,12.602
							c0,0-4.18-5.521-4.428-9.789C206.921,399.73,207.878,397.073,209.463,396.918z"/>
						<path fill="#FAD0DF" d="M206.771,400.528c0,0-1.486,11.919,13.749,14.661c4.268,0.416,4.268,0.357,6.998-0.358
							c0,0-3.658,4.673-4.824,4.54c0,0,6.621-2.1,9.086-10.48l-0.498-4.198c0,0,0.332-4.771-0.455-7.494
							c0,0,0.17,15.727-8.295,8.872c0,0,4.816,0.431,5.121-4.223c0.145-1.586,0.309-4.135-3.541-3.925c0,0-0.793-2.649-0.84-2.402
							c-0.049,0.243,1.869-1.604,2.811-2.156c0,0-2.822,0.365-3.541,1.609c0,0-3.377-2.999-5.16,0.022
							c1.049,0.124-6.091-1.232-5.377,4.4c0,0-1.138,5.233-0.239,7.987c0.728,2.237-2.511-7.857-1.908-9.228
							c0,0-0.783,8.729,1.433,11.671C211.29,409.823,207.591,404.281,206.771,400.528z"/>
						<path fill="#E46996" d="M219.155,403.167c0,0-4.335-6.575,0.469-7.933c0,0,2.488-0.513,3.011,2.946
							C222.635,398.179,218.851,401.057,219.155,403.167z"/>
						<path fill="#E46996" d="M223.436,398.356c0,0,0.25-1.903-0.346-2.515c0,0,3.922-6.034,7.736,0.133
							c0,0,0.805,14.712-5.811,11.583c0,0-2.148-0.761-2.299-1.815c0,0,5.254,0.621,4.99-4.776
							C227.707,400.965,227.777,398.147,223.436,398.356z"/>
						<path fill="#E46996" d="M216.335,396.779c0,0-0.424,7.086,4.676,9.744c0,0-9.186-3.761-7.33-8.997
							C213.685,397.524,215.218,396.264,216.335,396.779z"/>
						<path fill="#E46996" d="M223.359,401.778c0,0,0.154,2.229-0.576,2.957c0,0,2.236,0.834,2.479-1.639
							C225.262,403.096,225.191,401.52,223.359,401.778z"/>
						<path fill="#E46996" d="M222.023,401.312c0,0,0.838,5.029-2.01,2.823c0,0,1.424-6.593,5.95-4.562c0,0,1.381,0.725,0.561,3.173
							C226.523,402.746,224.037,398.497,222.023,401.312z"/>
						<path fill="#E46996" d="M212.558,400.848c0,0-0.015,0.346-0.024,0.914c-0.044,2.483,0.028,9.247,2.059,10.216
							c0,0,10.292,4.067,13.724,0.876c0,0,3.496-3.531,1.916-6.448c0,0-2.891,5.356-10.788,0.652
							C219.445,407.058,213.859,403.983,212.558,400.848z"/>
						<path fill="#E46996" d="M230.922,397.177l0.07,4.264c0,0,5.178,5.758,3.4,14.291
							C234.393,415.732,243.373,406.374,230.922,397.177z"/>
						<path fill="#E46996" d="M232.08,397.884c0,0,9.656,6.357,1.613,18.222C233.693,416.105,244.625,407.559,232.08,397.884z"/>
						<path fill="#FAD0DF" d="M233.977,416.682c0,0,8.521-10.92-2.314-18.938l0,0c0,0,7.635,4.102,2.73,17.988L233.977,416.682z"/>
						<path fill="#E46996" d="M206.788,400.422c0,0-5.372,10.415,2.732,16.042c0,0,8.087,6.007,13.253,2.944
							c0,0,4.297-2.876,4.514-5.25c0,0-8.294,3.349-17.646-4.45C209.64,409.707,205.836,405.312,206.788,400.422z"/>
						<path fill="#E46996" d="M230.992,401.441l-0.035,2.083c0,0,1.986,7.285-1.957,10.439c0,0-4.764,5.625-6.861,5.264
							c0,0,8.479,6.067,12.254-3.495C234.393,415.732,236.867,404.585,230.992,401.441z"/>
					</g>
					<g>
						<path fill="#D16FAC" d="M196.393,409.263c1.941,0.031-13.02-0.794-11.692,12.259c0,0,1.172,4.906,9.87,10.506
							c0,0-11.417-11.593-3.685-15.752c0,0,0.289-3.319,4.221-3.553C195.107,412.723,197.478,408.623,196.393,409.263z"/>
						<path fill="#D16FAC" d="M185.062,422.499c0,0,5.705,9.056,8.764,9.657c0,0-6.734-2.063-9.361-5.585
							C184.465,426.573,183.784,423.662,185.062,422.499z"/>
						<path fill="#FAD0DF" d="M184.783,427.361c0,0,5.471,11.235,20.167,3.763c3.917-2.398,3.886-2.45,5.835-4.833
							c0,0-0.508,6.395-1.593,7.037c0,0,4.52-6.092,1.9-14.912l-2.808-3.301c0,0-2.413-4.332-4.636-6.177
							c0,0,9.054,13.459-2.127,13.016c0,0,4.393-2.739,2.025-6.95c-0.775-1.462-2.079-3.77-5.282-1.1c0,0-2.186-1.773-2.085-1.529
							c0.1,0.24,0.707-2.589,1.207-3.678c0,0-2.229,2.138-2.146,3.678c0,0-4.614-0.407-4.442,3.351
							c0.983-0.571-5.952,2.872-2.143,7.271c0,0,1.984,5.247,4.313,7.043c1.901,1.457-6.613-5.157-6.868-6.727
							c0,0,4.27,8.037,7.845,9.145C193.947,432.455,187.619,430.066,184.783,427.361z"/>
						<path fill="#D16FAC" d="M196.964,421.63c0,0-7.464-2.869-4.09-7.145c0,0,1.857-2.051,4.263,0.594
							C197.137,415.079,195.505,420.009,196.964,421.63z"/>
						<path fill="#D16FAC" d="M197.932,414.716c0,0-0.864-1.806-1.722-1.944c0,0-0.038-7.74,6.748-4.888
							c0,0,9.027,12.176,1.546,13.754c0,0-2.279,0.729-3.011-0.081c0,0,4.885-2.857,1.6-7.348
							C203.092,414.209,201.555,411.733,197.932,414.716z"/>
						<path fill="#D16FAC" d="M190.915,417.942c0,0,3.649,6.38,9.548,5.384c0,0-10.051,2.689-11.42-3.028
							C189.043,420.298,189.658,418.22,190.915,417.942z"/>
						<path fill="#D16FAC" d="M199.802,417.717c0,0,1.398,1.823,1.181,2.926c0,0,2.4-0.727,1.208-3.019
							C202.19,417.624,201.24,416.307,199.802,417.717z"/>
						<path fill="#D16FAC" d="M198.39,418.184c0,0,3.569,3.791-0.141,3.729c0,0-2.502-6.608,2.553-7.778
							c0,0,1.601-0.268,2.281,2.372C203.083,416.508,198.528,414.449,198.39,418.184z"/>
						<path fill="#D16FAC" d="M189.958,423.892c0,0,0.183,0.309,0.498,0.803c1.366,2.17,5.266,7.963,7.564,7.482
							c0,0,11.183-3.136,12.333-8.107c0,0,1.021-5.306-2.001-6.799c0,0,0.543,6.486-8.937,7.531
							C199.416,424.802,192.857,425.758,189.958,423.892z"/>
						<path fill="#D16FAC" d="M203.722,408.863l2.475,3.631c0,0,7.73,1.623,11.026,10.135
							C217.223,422.629,219.671,408.752,203.722,408.863z"/>
						<path fill="#D16FAC" d="M205.119,408.729c0,0,11.937-0.76,11.718,14.668C216.836,423.397,221.424,408.969,205.119,408.729z"/>
						<path fill="#FAD0DF" d="M217.404,423.717c0,0,1.168-14.927-12.725-14.841l0,0c0,0,8.912-1.396,12.546,13.754L217.404,423.717z
							"/>
						<path fill="#D16FAC" d="M184.738,427.251c0,0,1.267,12.458,11.445,12.078c0,0,10.377-0.042,13.099-6.026
							c0,0,2.076-5.253,0.924-7.444c0,0-5.261,8.244-17.748,7.562C192.458,433.422,186.689,432.089,184.738,427.251z"/>
						<path fill="#D16FAC" d="M206.197,412.494l1.15,1.82c0,0,5.839,5,4.223,10.271c0,0-0.923,7.931-2.936,8.971
							c0,0,10.75-0.245,8.589-10.928C217.223,422.629,213.042,411.412,206.197,412.494z"/>
					</g>
					<g>
						<path fill="#40AA48" d="M210.031,284.365c0,0,12.038-10.396,21.223,0.72C231.254,285.085,223.777,293.67,210.031,284.365z"/>
						<path fill="#40AA48" d="M193.241,254.198c0,0,14.902-4.464,19.222,9.623C212.463,263.821,202.417,268.548,193.241,254.198z"/>
						<g>
							<path fill="#E46996" d="M223.191,250.99c1.492,1.151-9.715-8.196-15.343,2.718c0,0-1.592,4.493,2.312,13.906
								c0,0-2.958-15.649,5.171-14.385c0,0,1.916-2.413,5.093-0.303C220.423,252.927,224.359,251.12,223.191,250.99z"/>
							<path fill="#E46996" stroke="#FAD0DF" stroke-miterlimit="10" d="M207.631,254.678c0,0-0.187,10.357,1.884,12.604
								c0,0-4.181-5.521-4.428-9.786C205.087,257.496,206.045,254.839,207.631,254.678z"/>
							<path fill="#FAD0DF" d="M204.934,258.29c0,0-1.482,11.92,13.75,14.661c4.27,0.414,4.27,0.356,7-0.359
								c0,0-3.656,4.675-4.828,4.542c0,0,6.621-2.104,9.09-10.482l-0.498-4.195c0,0,0.334-4.774-0.451-7.497
								c0,0,0.164,15.726-8.299,8.874c0,0,4.812,0.43,5.123-4.221c0.143-1.588,0.305-4.141-3.545-3.928c0,0-0.791-2.649-0.838-2.404
								c-0.045,0.244,1.871-1.6,2.812-2.156c0,0-2.824,0.368-3.543,1.608c0,0-3.377-2.995-5.163,0.023
								c1.055,0.128-6.09-1.23-5.375,4.404c0,0-1.137,5.23-0.239,7.981c0.73,2.238-2.509-7.855-1.907-9.226
								c0,0-0.781,8.732,1.431,11.672C209.455,267.586,205.756,262.047,204.934,258.29z"/>
							<path fill="#E46996" d="M217.322,260.928c0,0-4.333-6.576,0.468-7.933c0,0,2.49-0.512,3.011,2.942
								C220.801,255.938,217.014,258.821,217.322,260.928z"/>
							<path fill="#E46996" d="M221.604,256.119c0,0,0.25-1.906-0.346-2.514c0,0,3.922-6.033,7.738,0.131
								c0,0,0.805,14.714-5.818,11.583c0,0-2.143-0.76-2.299-1.813c0,0,5.256,0.621,4.992-4.776
								C225.871,258.729,225.943,255.909,221.604,256.119z"/>
							<path fill="#E46996" d="M214.504,254.54c0,0-0.424,7.088,4.674,9.745c0,0-9.186-3.761-7.329-8.997
								C211.849,255.288,213.384,254.028,214.504,254.54z"/>
							<path fill="#E46996" d="M221.527,259.541c0,0,0.152,2.229-0.58,2.956c0,0,2.236,0.838,2.477-1.637
								C223.426,260.86,223.359,259.281,221.527,259.541z"/>
							<path fill="#E46996" d="M220.193,259.078c0,0,0.836,5.025-2.013,2.821c0,0,1.425-6.594,5.951-4.561
								c0,0,1.379,0.725,0.561,3.169C224.691,260.508,222.201,256.26,220.193,259.078z"/>
							<path fill="#E46996" d="M210.724,258.611c0,0-0.014,0.346-0.025,0.913c-0.046,2.482,0.026,9.247,2.061,10.215
								c0,0,10.288,4.071,13.719,0.879c0,0,3.5-3.531,1.918-6.449c0,0-2.889,5.356-10.79,0.651
								C217.608,264.82,212.026,261.746,210.724,258.611z"/>
							<path fill="#E46996" d="M229.09,254.942l0.07,4.262c0,0,5.176,5.76,3.393,14.291
								C232.555,273.495,241.537,264.137,229.09,254.942z"/>
							<path fill="#E46996" d="M230.242,255.649c0,0,9.662,6.354,1.621,18.218C231.863,273.867,242.791,265.324,230.242,255.649z"/>
							<path fill="#FAD0DF" d="M232.143,274.443c0,0,8.523-10.918-2.314-18.937l0,0c0,0,7.637,4.102,2.729,17.988L232.143,274.443z"
								/>
							<path fill="#E46996" d="M204.954,258.181c0,0-5.371,10.421,2.732,16.044c0,0,8.082,6.006,13.251,2.946
								c0,0,4.295-2.877,4.518-5.255c0,0-8.297,3.351-17.649-4.445C207.806,267.469,204,263.076,204.954,258.181z"/>
							<path fill="#E46996" d="M229.16,259.202l-0.035,2.082c0,0,1.982,7.287-1.961,10.44c0,0-4.762,5.627-6.858,5.263
								c0,0,8.483,6.067,12.25-3.492C232.555,273.495,235.029,262.344,229.16,259.202z"/>
						</g>
						<g>
							<path fill="#D16FAC" d="M194.56,267.027c1.939,0.028-13.022-0.794-11.692,12.257c0,0,1.171,4.906,9.869,10.505
								c0,0-11.414-11.589-3.684-15.751c0,0,0.288-3.319,4.221-3.549C193.271,270.486,195.644,266.386,194.56,267.027z"/>
							<path fill="#D16FAC" d="M183.229,280.263c0,0,5.704,9.055,8.762,9.655c0,0-6.735-2.063-9.359-5.583
								C182.632,284.336,181.952,281.423,183.229,280.263z"/>
							<path fill="#FAD0DF" d="M182.947,285.12c0,0,5.47,11.239,20.167,3.765c3.917-2.399,3.887-2.449,5.835-4.832
								c0,0-0.51,6.396-1.589,7.036c0,0,4.518-6.092,1.9-14.917l-2.806-3.298c0,0-2.419-4.329-4.639-6.174
								c0,0,9.052,13.462-2.129,13.017c0,0,4.393-2.738,2.026-6.951c-0.772-1.46-2.08-3.769-5.28-1.099c0,0-2.185-1.773-2.084-1.531
								c0.096,0.24,0.704-2.586,1.205-3.677c0,0-2.23,2.14-2.146,3.677c0,0-4.613-0.407-4.439,3.354
								c0.979-0.572-5.95,2.871-2.147,7.271c0,0,1.986,5.249,4.316,7.042c1.897,1.459-6.617-5.157-6.871-6.724
								c0,0,4.27,8.034,7.85,9.143C192.114,290.217,185.785,287.828,182.947,285.12z"/>
							<path fill="#D16FAC" d="M195.129,279.393c0,0-7.465-2.871-4.089-7.147c0,0,1.855-2.049,4.265,0.595
								C195.303,272.841,193.667,277.771,195.129,279.393z"/>
							<path fill="#D16FAC" d="M196.095,272.475c0,0-0.862-1.805-1.722-1.943c0,0-0.034-7.738,6.753-4.885
								c0,0,9.024,12.17,1.546,13.751c0,0-2.284,0.727-3.012-0.085c0,0,4.885-2.854,1.598-7.346
								C201.257,271.969,199.725,269.493,196.095,272.475z"/>
							<path fill="#D16FAC" d="M189.079,275.703c0,0,3.649,6.388,9.551,5.384c0,0-10.052,2.693-11.417-3.023
								C187.212,278.063,187.824,275.984,189.079,275.703z"/>
							<path fill="#D16FAC" d="M197.969,275.48c0,0,1.397,1.822,1.178,2.924c0,0,2.401-0.724,1.21-3.015
								C200.358,275.389,199.404,274.072,197.969,275.48z"/>
							<path fill="#D16FAC" d="M196.555,275.941c0,0,3.568,3.794-0.139,3.734c0,0-2.503-6.609,2.552-7.778
								c0,0,1.598-0.264,2.277,2.372C201.247,274.269,196.694,272.21,196.555,275.941z"/>
							<path fill="#D16FAC" d="M188.124,281.653c0,0,0.183,0.307,0.496,0.806c1.37,2.172,5.264,7.955,7.563,7.48
								c0,0,11.184-3.137,12.336-8.108c0,0,1.016-5.306-1.999-6.8c0,0,0.542,6.485-8.942,7.531
								C197.578,282.562,191.023,283.519,188.124,281.653z"/>
							<path fill="#D16FAC" d="M201.89,266.627l2.474,3.63c0,0,7.726,1.621,11.027,10.136
								C215.391,280.392,217.837,266.516,201.89,266.627z"/>
							<path fill="#D16FAC" d="M203.287,266.489c0,0,11.935-0.758,11.716,14.672C215.002,281.161,219.59,266.727,203.287,266.489z"
								/>
							<path fill="#FAD0DF" d="M215.57,281.477c0,0,1.165-14.924-12.726-14.842l0,0c0,0,8.913-1.394,12.547,13.757L215.57,281.477z"
								/>
							<path fill="#D16FAC" d="M182.905,285.015c0,0,1.266,12.457,11.444,12.073c0,0,10.374-0.039,13.099-6.021
								c0,0,2.076-5.255,0.923-7.447c0,0-5.262,8.248-17.747,7.563C190.624,291.184,184.854,289.852,182.905,285.015z"/>
							<path fill="#D16FAC" d="M204.364,270.257l1.15,1.82c0,0,5.839,5,4.222,10.271c0,0-0.922,7.93-2.937,8.972
								c0,0,10.754-0.245,8.592-10.928C215.391,280.392,211.21,269.176,204.364,270.257z"/>
						</g>
					</g>
					<g>
						<path fill="#40AA48" d="M313.783,278.263c0,0,12.039-10.396,21.221,0.718C335.004,278.981,327.527,287.569,313.783,278.263z"
							/>
						<path fill="#40AA48" d="M296.992,248.095c0,0,14.904-4.465,19.225,9.623C316.217,257.719,306.17,262.444,296.992,248.095z"/>
						<g>
							<path fill="#E46996" d="M326.941,244.885c1.492,1.153-9.713-8.194-15.34,2.722c0,0-1.592,4.492,2.311,13.905
								c0,0-2.955-15.651,5.176-14.389c0,0,1.916-2.408,5.088-0.3C324.174,246.824,328.111,245.018,326.941,244.885z"/>
							<path fill="#E46996" stroke="#FAD0DF" stroke-miterlimit="10" d="M311.383,248.577c0,0-0.186,10.357,1.885,12.602
								c0,0-4.182-5.522-4.426-9.787C308.842,251.391,309.799,248.734,311.383,248.577z"/>
							<path fill="#FAD0DF" d="M308.688,252.186c0,0-1.484,11.922,13.75,14.663c4.268,0.417,4.268,0.36,6.998-0.36
								c0,0-3.656,4.676-4.826,4.542c0,0,6.621-2.102,9.088-10.483l-0.498-4.193c0,0,0.332-4.771-0.451-7.498
								c0,0,0.162,15.728-8.297,8.874c0,0,4.811,0.431,5.121-4.221c0.145-1.586,0.307-4.141-3.543-3.927c0,0-0.793-2.648-0.84-2.405
								c-0.049,0.245,1.869-1.596,2.812-2.155c0,0-2.824,0.369-3.545,1.61c0,0-3.379-3-5.158,0.021
								c1.049,0.128-6.09-1.23-5.379,4.404c0,0-1.135,5.23-0.238,7.982c0.73,2.238-2.508-7.855-1.906-9.227
								c0,0-0.781,8.732,1.434,11.673C313.211,261.484,309.508,255.945,308.688,252.186z"/>
							<path fill="#E46996" d="M321.076,254.827c0,0-4.338-6.576,0.469-7.933c0,0,2.488-0.511,3.012,2.944
								C324.557,249.836,320.768,252.718,321.076,254.827z"/>
							<path fill="#E46996" d="M325.357,250.013c0,0,0.25-1.902-0.346-2.513c0,0,3.92-6.034,7.736,0.133
								c0,0,0.805,14.711-5.811,11.584c0,0-2.146-0.761-2.305-1.815c0,0,5.256,0.623,4.992-4.775
								C329.625,252.627,329.697,249.806,325.357,250.013z"/>
							<path fill="#E46996" d="M318.256,248.438c0,0-0.422,7.088,4.674,9.743c0,0-9.182-3.759-7.328-8.996
								C315.602,249.185,317.139,247.927,318.256,248.438z"/>
							<path fill="#E46996" d="M325.279,253.438c0,0,0.154,2.229-0.576,2.957c0,0,2.236,0.837,2.479-1.639
								C327.18,254.759,327.111,253.179,325.279,253.438z"/>
							<path fill="#E46996" d="M323.941,252.976c0,0,0.84,5.024-2.01,2.82c0,0,1.426-6.592,5.951-4.561c0,0,1.379,0.726,0.559,3.17
								C328.441,254.408,325.955,250.155,323.941,252.976z"/>
							<path fill="#E46996" d="M314.477,252.51c0,0-0.016,0.346-0.025,0.912c-0.043,2.483,0.029,9.248,2.059,10.216
								c0,0,10.293,4.069,13.727,0.876c0,0,3.496-3.53,1.914-6.446c0,0-2.889,5.354-10.789,0.65
								C321.361,258.718,315.777,255.644,314.477,252.51z"/>
							<path fill="#E46996" d="M332.842,248.841l0.068,4.259c0,0,5.178,5.758,3.398,14.292
								C336.309,267.391,345.289,258.034,332.842,248.841z"/>
							<path fill="#E46996" d="M333.998,249.545c0,0,9.658,6.356,1.619,18.218C335.615,267.762,346.541,259.218,333.998,249.545z"/>
							<path fill="#FAD0DF" d="M335.896,268.344c0,0,8.521-10.921-2.316-18.939l0,0c0,0,7.637,4.101,2.729,17.987L335.896,268.344z"
								/>
							<path fill="#E46996" d="M308.707,252.08c0,0-5.371,10.417,2.732,16.044c0,0,8.084,6.007,13.252,2.941
								c0,0,4.291-2.872,4.52-5.247c0,0-8.297,3.348-17.652-4.45C311.557,261.368,307.754,256.976,308.707,252.08z"/>
							<path fill="#E46996" d="M332.912,253.099l-0.035,2.083c0,0,1.984,7.282-1.953,10.438c0,0-4.77,5.626-6.865,5.267
								c0,0,8.479,6.065,12.25-3.496C336.309,267.391,338.783,256.247,332.912,253.099z"/>
						</g>
						<g>
							<path fill="#D16FAC" d="M298.316,260.925c1.938,0.028-13.027-0.795-11.695,12.256c0,0,1.17,4.906,9.869,10.506
								c0,0-11.414-11.591-3.686-15.751c0,0,0.291-3.32,4.223-3.55C297.027,264.385,299.395,260.286,298.316,260.925z"/>
							<path fill="#D16FAC" d="M286.98,274.16c0,0,5.707,9.057,8.766,9.656c0,0-6.736-2.062-9.363-5.587
								C286.383,278.228,285.705,275.321,286.98,274.16z"/>
							<path fill="#FAD0DF" d="M286.701,279.018c0,0,5.467,11.239,20.168,3.764c3.918-2.398,3.883-2.449,5.836-4.83
								c0,0-0.508,6.395-1.592,7.035c0,0,4.521-6.094,1.9-14.915l-2.809-3.296c0,0-2.416-4.335-4.635-6.178
								c0,0,9.051,13.459-2.129,13.016c0,0,4.395-2.74,2.027-6.954c-0.777-1.456-2.08-3.765-5.283-1.095
								c0,0-2.182-1.774-2.086-1.531c0.1,0.24,0.705-2.587,1.209-3.677c0,0-2.229,2.14-2.146,3.678c0,0-4.613-0.407-4.441,3.35
								c0.982-0.57-5.945,2.873-2.145,7.273c0,0,1.982,5.246,4.316,7.042c1.898,1.458-6.615-5.157-6.873-6.729
								c0,0,4.275,8.039,7.848,9.147C295.867,284.115,289.535,281.726,286.701,279.018z"/>
							<path fill="#D16FAC" d="M298.883,273.29c0,0-7.463-2.869-4.09-7.145c0,0,1.859-2.047,4.268,0.593
								C299.057,266.739,297.424,271.671,298.883,273.29z"/>
							<path fill="#D16FAC" d="M299.85,266.375c0,0-0.863-1.805-1.727-1.944c0,0-0.031-7.738,6.754-4.883
								c0,0,9.027,12.17,1.545,13.748c0,0-2.283,0.729-3.01-0.081c0,0,4.885-2.858,1.598-7.345
								C305.01,265.867,303.477,263.39,299.85,266.375z"/>
							<path fill="#D16FAC" d="M292.832,269.599c0,0,3.645,6.388,9.551,5.385c0,0-10.055,2.692-11.418-3.026
								C290.965,271.96,291.576,269.88,292.832,269.599z"/>
							<path fill="#D16FAC" d="M301.721,269.373c0,0,1.4,1.827,1.182,2.929c0,0,2.402-0.725,1.211-3.015
								C304.111,269.287,303.158,267.97,301.721,269.373z"/>
							<path fill="#D16FAC" d="M300.311,269.841c0,0,3.568,3.794-0.139,3.734c0,0-2.506-6.608,2.551-7.78
								c0,0,1.598-0.269,2.279,2.372C305.002,268.168,300.449,266.107,300.311,269.841z"/>
							<path fill="#D16FAC" d="M291.879,275.553c0,0,0.184,0.305,0.496,0.802c1.367,2.173,5.264,7.96,7.562,7.483
								c0,0,11.186-3.133,12.338-8.108c0,0,1.016-5.308-2.004-6.801c0,0,0.545,6.487-8.936,7.531
								C301.336,276.461,294.777,277.418,291.879,275.553z"/>
							<path fill="#D16FAC" d="M305.641,260.522l2.475,3.629c0,0,7.729,1.627,11.029,10.135
								C319.145,274.286,321.588,260.416,305.641,260.522z"/>
							<path fill="#D16FAC" d="M307.041,260.385c0,0,11.93-0.755,11.715,14.674C318.756,275.058,323.342,260.63,307.041,260.385z"/>
							<path fill="#FAD0DF" d="M319.322,275.376c0,0,1.168-14.927-12.723-14.841l0,0c0,0,8.906-1.397,12.545,13.751L319.322,275.376
								z"/>
							<path fill="#D16FAC" d="M286.658,278.912c0,0,1.27,12.457,11.441,12.075c0,0,10.379-0.043,13.104-6.022
								c0,0,2.074-5.256,0.922-7.447c0,0-5.262,8.245-17.742,7.563C294.379,285.085,288.607,283.75,286.658,278.912z"/>
							<path fill="#D16FAC" d="M308.115,264.153l1.15,1.822c0,0,5.838,5.001,4.223,10.27c0,0-0.92,7.932-2.934,8.972
								c0,0,10.75-0.243,8.59-10.931C319.145,274.286,314.961,263.074,308.115,264.153z"/>
						</g>
					</g>
					<g>
						<path fill="#40AA48" d="M261.051,314.999c0,0,12.033-10.396,21.221,0.721C282.271,315.716,274.795,324.303,261.051,314.999z"
							/>
						<path fill="#40AA48" d="M244.26,284.831c0,0,14.902-4.463,19.221,9.623C263.48,294.454,253.436,299.18,244.26,284.831z"/>
						<g>
							<path fill="#E46996" d="M274.209,281.621c1.492,1.153-9.715-8.195-15.342,2.72c0,0-1.592,4.496,2.309,13.906
								c0,0-2.953-15.648,5.176-14.382c0,0,1.918-2.413,5.092-0.307C271.439,283.559,275.377,281.755,274.209,281.621z"/>
							<path fill="#E46996" stroke="#FAD0DF" stroke-miterlimit="10" d="M258.65,285.313c0,0-0.188,10.354,1.883,12.6
								c0,0-4.18-5.52-4.428-9.784C256.105,288.13,257.064,285.47,258.65,285.313z"/>
							<path fill="#FAD0DF" d="M255.953,288.924c0,0-1.484,11.918,13.75,14.661c4.266,0.415,4.266,0.358,7-0.36
								c0,0-3.658,4.675-4.824,4.542c0,0,6.619-2.1,9.084-10.481l-0.494-4.193c0,0,0.332-4.774-0.453-7.498
								c0,0,0.164,15.726-8.297,8.871c0,0,4.812,0.432,5.121-4.219c0.143-1.586,0.309-4.139-3.545-3.928
								c0,0-0.791-2.646-0.838-2.401c-0.047,0.242,1.867-1.6,2.812-2.158c0,0-2.826,0.37-3.543,1.61c0,0-3.379-3-5.164,0.021
								c1.059,0.125-6.088-1.232-5.371,4.403c0,0-1.139,5.231-0.242,7.983c0.73,2.238-2.51-7.856-1.908-9.225
								c0,0-0.779,8.732,1.434,11.672C260.475,298.219,256.773,292.677,255.953,288.924z"/>
							<path fill="#E46996" d="M268.338,291.563c0,0-4.334-6.575,0.473-7.934c0,0,2.486-0.513,3.01,2.943
								C271.818,286.573,268.031,289.454,268.338,291.563z"/>
							<path fill="#E46996" d="M272.623,286.751c0,0,0.248-1.903-0.35-2.516c0,0,3.92-6.031,7.74,0.136
								c0,0,0.803,14.713-5.814,11.586c0,0-2.146-0.763-2.299-1.816c0,0,5.256,0.621,4.99-4.779
								C276.891,289.36,276.963,286.543,272.623,286.751z"/>
							<path fill="#E46996" d="M265.521,285.174c0,0-0.424,7.087,4.674,9.742c0,0-9.182-3.759-7.326-8.993
								C262.867,285.923,264.404,284.662,265.521,285.174z"/>
							<path fill="#E46996" d="M272.545,290.175c0,0,0.156,2.229-0.578,2.958c0,0,2.236,0.837,2.48-1.639
								C274.447,291.494,274.379,289.916,272.545,290.175z"/>
							<path fill="#E46996" d="M271.209,289.712c0,0,0.838,5.026-2.012,2.82c0,0,1.428-6.595,5.951-4.561
								c0,0,1.381,0.724,0.562,3.173C275.707,291.144,273.221,286.892,271.209,289.712z"/>
							<path fill="#E46996" d="M261.742,289.246c0,0-0.014,0.342-0.023,0.913c-0.043,2.482,0.029,9.246,2.059,10.213
								c0,0,10.293,4.072,13.723,0.879c0,0,3.498-3.533,1.914-6.449c0,0-2.889,5.357-10.787,0.652
								C268.627,295.456,263.041,292.381,261.742,289.246z"/>
							<path fill="#E46996" d="M280.109,285.575l0.068,4.264c0,0,5.178,5.757,3.398,14.29
								C283.576,304.128,292.557,294.77,280.109,285.575z"/>
							<path fill="#E46996" d="M281.264,286.283c0,0,9.66,6.354,1.615,18.218C282.879,304.501,293.809,295.957,281.264,286.283z"/>
							<path fill="#FAD0DF" d="M283.162,305.076c0,0,8.518-10.917-2.316-18.935l0,0c0,0,7.635,4.1,2.73,17.986L283.162,305.076z"/>
							<path fill="#E46996" d="M255.973,288.817c0,0-5.371,10.417,2.73,16.043c0,0,8.088,6.004,13.254,2.944
								c0,0,4.293-2.875,4.516-5.252c0,0-8.293,3.35-17.646-4.448C258.826,298.104,255.02,293.71,255.973,288.817z"/>
							<path fill="#E46996" d="M280.178,289.839l-0.035,2.082c0,0,1.986,7.284-1.957,10.438c0,0-4.764,5.623-6.861,5.265
								c0,0,8.48,6.067,12.252-3.495C283.576,304.128,286.049,292.977,280.178,289.839z"/>
						</g>
						<g>
							<path fill="#D16FAC" d="M245.578,297.66c1.939,0.03-13.023-0.794-11.697,12.259c0,0,1.18,4.905,9.875,10.505
								c0,0-11.414-11.591-3.686-15.753c0,0,0.289-3.318,4.221-3.549C244.291,301.12,246.662,297.02,245.578,297.66z"/>
							<path fill="#D16FAC" d="M234.244,310.895c0,0,5.709,9.056,8.764,9.657c0,0-6.73-2.063-9.359-5.586
								C233.648,314.969,232.971,312.056,234.244,310.895z"/>
							<path fill="#FAD0DF" d="M233.969,315.754c0,0,5.467,11.24,20.166,3.764c3.916-2.398,3.883-2.449,5.834-4.831
								c0,0-0.51,6.395-1.596,7.035c0,0,4.525-6.092,1.902-14.916l-2.803-3.295c0,0-2.418-4.333-4.639-6.177
								c0,0,9.053,13.459-2.129,13.015c0,0,4.396-2.738,2.023-6.95c-0.771-1.459-2.076-3.769-5.277-1.098
								c0,0-2.184-1.775-2.084-1.531c0.096,0.239,0.707-2.586,1.203-3.676c0,0-2.227,2.138-2.145,3.676c0,0-4.613-0.405-4.438,3.353
								c0.979-0.573-5.951,2.869-2.146,7.272c0,0,1.984,5.249,4.314,7.043c1.9,1.457-6.613-5.159-6.871-6.728
								c0,0,4.271,8.037,7.846,9.143C243.135,320.852,236.803,318.461,233.969,315.754z"/>
							<path fill="#D16FAC" d="M246.148,310.029c0,0-7.465-2.872-4.09-7.146c0,0,1.854-2.053,4.264,0.593
								C246.322,303.475,244.688,308.405,246.148,310.029z"/>
							<path fill="#D16FAC" d="M247.113,303.107c0,0-0.861-1.803-1.723-1.941c0,0-0.033-7.739,6.754-4.886
								c0,0,9.027,12.172,1.543,13.751c0,0-2.279,0.728-3.012-0.081c0,0,4.887-2.855,1.598-7.348
								C252.275,302.602,250.744,300.128,247.113,303.107z"/>
							<path fill="#D16FAC" d="M240.098,306.339c0,0,3.648,6.386,9.551,5.382c0,0-10.051,2.694-11.42-3.025
								C238.229,308.695,238.844,306.617,240.098,306.339z"/>
							<path fill="#D16FAC" d="M248.986,306.112c0,0,1.398,1.824,1.18,2.928c0,0,2.4-0.725,1.211-3.019
								C251.377,306.021,250.426,304.706,248.986,306.112z"/>
							<path fill="#D16FAC" d="M247.572,306.577c0,0,3.57,3.795-0.137,3.734c0,0-2.504-6.61,2.549-7.78c0,0,1.6-0.267,2.283,2.372
								C252.268,304.904,247.711,302.843,247.572,306.577z"/>
							<path fill="#D16FAC" d="M239.143,312.289c0,0,0.184,0.308,0.494,0.803c1.369,2.17,5.268,7.959,7.564,7.482
								c0,0,11.184-3.136,12.338-8.109c0,0,1.016-5.304-2-6.799c0,0,0.541,6.488-8.939,7.531
								C248.598,313.197,242.039,314.153,239.143,312.289z"/>
							<path fill="#D16FAC" d="M252.908,297.26l2.475,3.628c0,0,7.727,1.623,11.029,10.138
								C266.412,311.026,268.855,297.147,252.908,297.26z"/>
							<path fill="#D16FAC" d="M254.303,297.121c0,0,11.934-0.754,11.717,14.675C266.02,311.794,270.607,297.364,254.303,297.121z"
								/>
							<path fill="#FAD0DF" d="M266.588,312.109c0,0,1.168-14.92-12.727-14.836l0,0c0,0,8.912-1.398,12.549,13.753L266.588,312.109z
								"/>
							<path fill="#D16FAC" d="M233.922,315.648c0,0,1.268,12.458,11.445,12.075c0,0,10.377-0.043,13.1-6.021
								c0,0,2.076-5.254,0.924-7.45c0,0-5.262,8.247-17.748,7.564C241.643,321.818,235.875,320.485,233.922,315.648z"/>
							<path fill="#D16FAC" d="M255.383,300.888l1.145,1.821c0,0,5.842,5.002,4.229,10.271c0,0-0.924,7.932-2.936,8.971
								c0,0,10.75-0.244,8.592-10.926C266.412,311.026,262.227,299.81,255.383,300.888z"/>
						</g>
					</g>
					<path fill="#40AA48" d="M333.545,437.496c0,0,12.039-10.397,21.223,0.719C354.768,438.215,347.291,446.799,333.545,437.496z"/>
					<path fill="#40AA48" d="M316.754,407.328c0,0,14.904-4.462,19.225,9.625C335.979,416.953,325.934,421.682,316.754,407.328z"/>
					<g>
						<path fill="#E46996" d="M346.703,404.12c1.49,1.153-9.715-8.195-15.342,2.717c0,0-1.59,4.498,2.309,13.907
							c0,0-2.955-15.647,5.176-14.385c0,0,1.918-2.408,5.094-0.304C343.939,406.055,347.873,404.252,346.703,404.12z"/>
						<path fill="#E46996" stroke="#FAD0DF" stroke-miterlimit="10" d="M331.145,407.811c0,0-0.188,10.354,1.883,12.601
							c0,0-4.182-5.521-4.426-9.788C328.604,410.624,329.561,407.969,331.145,407.811z"/>
						<path fill="#FAD0DF" d="M328.447,411.422c0,0-1.482,11.918,13.752,14.66c4.268,0.416,4.268,0.356,6.998-0.358
							c0,0-3.658,4.672-4.826,4.543c0,0,6.621-2.104,9.088-10.485l-0.496-4.195c0,0,0.332-4.774-0.455-7.498
							c0,0,0.168,15.728-8.297,8.876c0,0,4.816,0.43,5.123-4.222c0.143-1.587,0.307-4.138-3.545-3.926c0,0-0.791-2.65-0.838-2.403
							c-0.047,0.244,1.867-1.599,2.812-2.157c0,0-2.82,0.366-3.541,1.611c0,0-3.379-3-5.162,0.019
							c1.051,0.127-6.092-1.229-5.379,4.404c0,0-1.131,5.231-0.24,7.984c0.732,2.236-2.506-7.857-1.904-9.224
							c0,0-0.785,8.727,1.432,11.669C332.971,420.718,329.27,415.176,328.447,411.422z"/>
						<path fill="#E46996" d="M340.838,414.059c0,0-4.336-6.572,0.467-7.932c0,0,2.49-0.513,3.012,2.943
							C344.316,409.067,340.529,411.95,340.838,414.059z"/>
						<path fill="#E46996" d="M345.117,409.248c0,0,0.252-1.902-0.346-2.512c0,0,3.92-6.034,7.736,0.132
							c0,0,0.803,14.712-5.814,11.583c0,0-2.146-0.758-2.297-1.815c0,0,5.254,0.623,4.99-4.776
							C349.387,411.859,349.459,409.041,345.117,409.248z"/>
						<path fill="#E46996" d="M338.018,407.674c0,0-0.426,7.083,4.676,9.74c0,0-9.186-3.758-7.328-8.996
							C335.363,408.418,336.898,407.159,338.018,407.674z"/>
						<path fill="#E46996" d="M345.039,412.671c0,0,0.158,2.229-0.574,2.961c0,0,2.234,0.835,2.477-1.641
							C346.941,413.991,346.873,412.417,345.039,412.671z"/>
						<path fill="#E46996" d="M343.703,412.212c0,0,0.84,5.021-2.01,2.821c0,0,1.428-6.597,5.951-4.562c0,0,1.377,0.723,0.561,3.169
							C348.205,413.639,345.719,409.386,343.703,412.212z"/>
						<path fill="#E46996" d="M334.24,411.742c0,0-0.016,0.345-0.023,0.914c-0.045,2.482,0.025,9.247,2.059,10.216
							c0,0,10.289,4.069,13.721,0.874c0,0,3.498-3.53,1.916-6.446c0,0-2.887,5.355-10.789,0.652
							C341.121,417.952,335.541,414.874,334.24,411.742z"/>
						<path fill="#E46996" d="M352.605,408.072l0.07,4.263c0,0,5.176,5.759,3.395,14.294
							C356.07,426.629,365.051,417.266,352.605,408.072z"/>
						<path fill="#E46996" d="M353.758,408.779c0,0,9.662,6.355,1.619,18.219C355.377,426.998,366.303,418.455,353.758,408.779z"/>
						<path fill="#FAD0DF" d="M355.656,427.575c0,0,8.52-10.921-2.314-18.935l0,0c0,0,7.635,4.1,2.729,17.988L355.656,427.575z"/>
						<path fill="#E46996" d="M328.471,411.314c0,0-5.377,10.418,2.727,16.043c0,0,8.086,6.005,13.256,2.944
							c0,0,4.295-2.877,4.518-5.248c0,0-8.297,3.346-17.648-4.453C331.322,420.6,327.514,416.209,328.471,411.314z"/>
						<path fill="#E46996" d="M352.676,412.335l-0.039,2.085c0,0,1.984,7.28-1.957,10.436c0,0-4.766,5.625-6.861,5.264
							c0,0,8.48,6.067,12.252-3.492C356.07,426.629,358.547,415.478,352.676,412.335z"/>
					</g>
					<g>
						<path fill="#D16FAC" d="M318.076,420.159c1.938,0.03-13.025-0.796-11.697,12.257c0,0,1.172,4.906,9.873,10.509
							c0,0-11.416-11.596-3.686-15.756c0,0,0.287-3.316,4.219-3.55C316.785,423.617,319.158,419.517,318.076,420.159z"/>
						<path fill="#D16FAC" d="M306.742,433.396c0,0,5.705,9.053,8.764,9.654c0,0-6.734-2.063-9.365-5.582
							C306.141,437.468,305.467,434.552,306.742,433.396z"/>
						<path fill="#FAD0DF" d="M306.461,438.254c0,0,5.473,11.239,20.166,3.763c3.92-2.402,3.889-2.451,5.836-4.834
							c0,0-0.508,6.396-1.59,7.037c0,0,4.521-6.093,1.902-14.915l-2.807-3.298c0,0-2.418-4.334-4.639-6.178
							c0,0,9.053,13.464-2.129,13.018c0,0,4.395-2.738,2.025-6.951c-0.773-1.457-2.078-3.77-5.279-1.098
							c0,0-2.186-1.773-2.086-1.531c0.098,0.24,0.707-2.586,1.203-3.674c0,0-2.227,2.139-2.145,3.676c0,0-4.609-0.406-4.439,3.352
							c0.982-0.572-5.949,2.872-2.146,7.271c0,0,1.988,5.249,4.32,7.044c1.898,1.455-6.617-5.161-6.875-6.728
							c0,0,4.275,8.035,7.848,9.143C315.627,443.348,309.299,440.96,306.461,438.254z"/>
						<path fill="#D16FAC" d="M318.645,432.523c0,0-7.469-2.874-4.088-7.146c0,0,1.854-2.047,4.262,0.597
							C318.818,425.972,317.186,430.907,318.645,432.523z"/>
						<path fill="#D16FAC" d="M319.613,425.606c0,0-0.865-1.803-1.723-1.943c0,0-0.037-7.74,6.748-4.884
							c0,0,9.027,12.17,1.547,13.749c0,0-2.281,0.729-3.012-0.082c0,0,4.885-2.856,1.6-7.346
							C324.775,425.098,323.24,422.628,319.613,425.606z"/>
						<path fill="#D16FAC" d="M312.596,428.836c0,0,3.646,6.386,9.551,5.38c0,0-10.055,2.696-11.422-3.024
							C310.725,431.191,311.338,429.114,312.596,428.836z"/>
						<path fill="#D16FAC" d="M321.482,428.61c0,0,1.396,1.824,1.182,2.926c0,0,2.398-0.725,1.209-3.018
							C323.871,428.518,322.92,427.203,321.482,428.61z"/>
						<path fill="#D16FAC" d="M320.068,429.074c0,0,3.572,3.793-0.137,3.732c0,0-2.508-6.605,2.553-7.779
							c0,0,1.598-0.266,2.277,2.374C324.762,427.401,320.209,425.343,320.068,429.074z"/>
						<path fill="#D16FAC" d="M311.639,434.789c0,0,0.182,0.305,0.496,0.802c1.367,2.172,5.262,7.959,7.562,7.482
							c0,0,11.186-3.14,12.338-8.109c0,0,1.016-5.306-2.004-6.801c0,0,0.543,6.486-8.938,7.533
							C321.094,435.696,314.537,436.65,311.639,434.789z"/>
						<path fill="#D16FAC" d="M325.406,419.757l2.471,3.629c0,0,7.73,1.623,11.029,10.137
							C338.906,433.522,341.348,419.646,325.406,419.757z"/>
						<path fill="#D16FAC" d="M326.801,419.62c0,0,11.932-0.76,11.715,14.674C338.516,434.295,343.104,419.861,326.801,419.62z"/>
						<path fill="#FAD0DF" d="M339.084,434.608c0,0,1.166-14.922-12.725-14.839l0,0c0,0,8.914-1.397,12.547,13.753L339.084,434.608z
							"/>
						<path fill="#D16FAC" d="M306.42,438.147c0,0,1.266,12.457,11.441,12.076c0,0,10.379-0.042,13.102-6.027
							c0,0,2.076-5.252,0.922-7.443c0,0-5.26,8.246-17.744,7.56C314.141,444.312,308.369,442.982,306.42,438.147z"/>
						<path fill="#D16FAC" d="M327.877,423.386l1.148,1.82c0,0,5.84,5.002,4.225,10.271c0,0-0.922,7.933-2.938,8.971
							c0,0,10.754-0.245,8.594-10.927C338.906,433.522,334.725,422.305,327.877,423.386z"/>
					</g>
					<g>
						<path fill="#40AA48" d="M189.725,365.763c0,0,12.036-10.396,21.225,0.719C210.95,366.482,203.468,375.069,189.725,365.763z"/>
						<path fill="#40AA48" d="M172.932,335.597c0,0,14.905-4.466,19.225,9.623C192.157,345.22,182.109,349.947,172.932,335.597z"/>
						<g>
							<path fill="#E46996" d="M202.882,332.386c1.495,1.153-9.713-8.195-15.34,2.718c0,0-1.592,4.495,2.309,13.908
								c0,0-2.954-15.649,5.177-14.386c0,0,1.917-2.41,5.088-0.302C200.116,334.325,204.052,332.518,202.882,332.386z"/>
							<path fill="#E46996" stroke="#FAD0DF" stroke-miterlimit="10" d="M187.323,336.079c0,0-0.187,10.354,1.884,12.602
								c0,0-4.18-5.522-4.424-9.787C184.783,338.895,185.738,336.236,187.323,336.079z"/>
							<path fill="#FAD0DF" d="M184.626,339.69c0,0-1.484,11.919,13.751,14.661c4.269,0.415,4.27,0.356,7-0.36
								c0,0-3.655,4.672-4.829,4.541c0,0,6.623-2.104,9.092-10.482l-0.497-4.194c0,0,0.329-4.773-0.454-7.499
								c0,0,0.163,15.729-8.295,8.876c0,0,4.812,0.427,5.12-4.221c0.142-1.586,0.307-4.141-3.546-3.927c0,0-0.788-2.65-0.838-2.406
								c-0.045,0.245,1.871-1.599,2.815-2.151c0,0-2.825,0.366-3.544,1.605c0,0-3.377-3.001-5.159,0.025
								c1.053,0.123-6.09-1.231-5.378,4.401c0,0-1.137,5.234-0.238,7.982c0.73,2.237-2.51-7.856-1.908-9.226
								c0,0-0.78,8.731,1.431,11.673C189.148,348.985,185.45,343.444,184.626,339.69z"/>
							<path fill="#E46996" d="M197.013,342.327c0,0-4.333-6.575,0.473-7.93c0,0,2.486-0.515,3.009,2.941
								C200.493,337.339,196.708,340.219,197.013,342.327z"/>
							<path fill="#E46996" d="M201.295,337.515c0,0,0.25-1.904-0.348-2.513c0,0,3.926-6.031,7.742,0.133
								c0,0,0.801,14.711-5.818,11.585c0,0-2.146-0.759-2.297-1.817c0,0,5.252,0.619,4.988-4.775
								C205.564,340.128,205.636,337.309,201.295,337.515z"/>
							<path fill="#E46996" d="M194.198,335.94c0,0-0.427,7.085,4.673,9.74c0,0-9.183-3.756-7.329-8.994
								C191.542,336.686,193.077,335.427,194.198,335.94z"/>
							<path fill="#E46996" d="M201.219,340.941c0,0,0.155,2.226-0.575,2.958c0,0,2.234,0.832,2.479-1.641
								C203.123,342.259,203.052,340.681,201.219,340.941z"/>
							<path fill="#E46996" d="M199.886,340.477c0,0,0.836,5.025-2.014,2.819c0,0,1.426-6.592,5.95-4.56c0,0,1.378,0.727,0.562,3.17
								C204.384,341.907,201.897,337.657,199.886,340.477z"/>
							<path fill="#E46996" d="M190.416,340.01c0,0-0.014,0.346-0.022,0.914c-0.043,2.481,0.031,9.242,2.062,10.212
								c0,0,10.288,4.07,13.721,0.879c0,0,3.499-3.531,1.915-6.448c0,0-2.891,5.354-10.789,0.652
								C197.3,346.219,191.72,343.142,190.416,340.01z"/>
							<path fill="#E46996" d="M208.781,336.34l0.072,4.263c0,0,5.174,5.759,3.395,14.291
								C212.25,354.893,221.23,345.535,208.781,336.34z"/>
							<path fill="#E46996" d="M209.939,337.046c0,0,9.657,6.355,1.615,18.22C211.554,355.265,222.48,346.72,209.939,337.046z"/>
							<path fill="#FAD0DF" d="M211.835,355.843c0,0,8.521-10.918-2.315-18.938l0,0c0,0,7.638,4.101,2.729,17.988L211.835,355.843z"
								/>
							<path fill="#E46996" d="M184.648,339.583c0,0-5.372,10.419,2.73,16.042c0,0,8.087,6.005,13.252,2.941
								c0,0,4.294-2.873,4.52-5.249c0,0-8.298,3.348-17.652-4.449C187.498,348.868,183.695,344.473,184.648,339.583z"/>
							<path fill="#E46996" d="M208.853,340.602l-0.036,2.082c0,0,1.987,7.281-1.96,10.439c0,0-4.761,5.625-6.855,5.265
								c0,0,8.477,6.063,12.249-3.495C212.25,354.893,214.725,343.745,208.853,340.602z"/>
						</g>
						<g>
							<path fill="#D16FAC" d="M174.251,348.427c1.943,0.03-13.021-0.794-11.694,12.257c0,0,1.176,4.907,9.87,10.508
								c0,0-11.413-11.594-3.682-15.757c0,0,0.287-3.316,4.22-3.549C172.965,351.885,175.337,347.786,174.251,348.427z"/>
							<path fill="#D16FAC" d="M162.921,361.664c0,0,5.706,9.054,8.765,9.654c0,0-6.738-2.064-9.364-5.584
								C162.322,365.734,161.643,362.82,162.921,361.664z"/>
							<path fill="#FAD0DF" d="M162.641,366.518c0,0,5.472,11.242,20.169,3.765c3.916-2.398,3.884-2.449,5.833-4.83
								c0,0-0.509,6.396-1.591,7.035c0,0,4.522-6.093,1.903-14.916l-2.807-3.299c0,0-2.417-4.332-4.636-6.174
								c0,0,9.053,13.462-2.127,13.017c0,0,4.394-2.739,2.023-6.954c-0.773-1.458-2.078-3.768-5.28-1.1c0,0-2.183-1.771-2.085-1.528
								c0.099,0.24,0.708-2.587,1.211-3.678c0,0-2.231,2.138-2.148,3.678c0,0-4.614-0.405-4.441,3.351
								c0.98-0.569-5.949,2.873-2.145,7.273c0,0,1.982,5.25,4.314,7.043c1.899,1.458-6.614-5.157-6.869-6.729
								c0,0,4.272,8.035,7.847,9.145C171.809,371.618,165.477,369.224,162.641,366.518z"/>
							<path fill="#D16FAC" d="M174.825,360.794c0,0-7.465-2.874-4.091-7.148c0,0,1.855-2.049,4.262,0.593
								C174.996,354.237,173.365,359.168,174.825,360.794z"/>
							<path fill="#D16FAC" d="M175.792,353.875c0,0-0.865-1.806-1.725-1.943c0,0-0.035-7.738,6.75-4.886
								c0,0,9.028,12.172,1.547,13.749c0,0-2.281,0.729-3.012-0.079c0,0,4.887-2.856,1.599-7.345
								C180.952,353.371,179.417,350.892,175.792,353.875z"/>
							<path fill="#D16FAC" d="M168.772,357.101c0,0,3.65,6.388,9.551,5.387c0,0-10.049,2.689-11.417-3.028
								C166.905,359.46,167.517,357.382,168.772,357.101z"/>
							<path fill="#D16FAC" d="M177.663,356.876c0,0,1.398,1.826,1.178,2.93c0,0,2.4-0.728,1.21-3.018
								C180.051,356.788,179.096,355.469,177.663,356.876z"/>
							<path fill="#D16FAC" d="M176.25,357.342c0,0,3.57,3.794-0.14,3.737c0,0-2.503-6.611,2.551-7.783c0,0,1.6-0.264,2.279,2.374
								C180.94,355.67,176.388,353.607,176.25,357.342z"/>
							<path fill="#D16FAC" d="M167.818,363.054c0,0,0.181,0.308,0.496,0.805c1.369,2.169,5.265,7.956,7.563,7.479
								c0,0,11.184-3.135,12.334-8.106c0,0,1.018-5.309-1.999-6.801c0,0,0.542,6.484-8.938,7.532
								C177.275,363.964,170.717,364.919,167.818,363.054z"/>
							<path fill="#D16FAC" d="M181.581,348.026l2.475,3.63c0,0,7.73,1.621,11.029,10.137
								C195.084,361.793,197.529,347.914,181.581,348.026z"/>
							<path fill="#D16FAC" d="M182.979,347.888c0,0,11.934-0.759,11.716,14.671C194.694,362.558,199.283,348.128,182.979,347.888z"
								/>
							<path fill="#FAD0DF" d="M195.263,362.875c0,0,1.167-14.923-12.723-14.841l0,0c0,0,8.908-1.395,12.544,13.759L195.263,362.875
								z"/>
							<path fill="#D16FAC" d="M162.6,366.413c0,0,1.264,12.457,11.44,12.074c0,0,10.379-0.038,13.101-6.021
								c0,0,2.078-5.255,0.925-7.45c0,0-5.26,8.25-17.746,7.567C170.319,372.584,164.547,371.251,162.6,366.413z"/>
							<path fill="#D16FAC" d="M184.056,351.656l1.149,1.82c0,0,5.839,5.002,4.223,10.27c0,0-0.919,7.933-2.932,8.973
								c0,0,10.749-0.243,8.589-10.928C195.084,361.793,190.902,350.574,184.056,351.656z"/>
						</g>
					</g>
					<g>
						<path fill="#40AA48" d="M257.328,474.838c0,0,12.037-10.395,21.221,0.72C278.549,475.557,271.07,484.142,257.328,474.838z"/>
						<path fill="#40AA48" d="M240.533,444.673c0,0,14.906-4.466,19.225,9.623C259.758,454.296,249.711,459.024,240.533,444.673z"/>
						<g>
							<path fill="#E46996" d="M270.486,441.463c1.49,1.152-9.717-8.194-15.342,2.72c0,0-1.594,4.494,2.309,13.903
								c0,0-2.957-15.646,5.176-14.383c0,0,1.916-2.411,5.088-0.304C267.717,443.399,271.654,441.594,270.486,441.463z"/>
							<path fill="#E46996" stroke="#FAD0DF" stroke-miterlimit="10" d="M254.924,445.152c0,0-0.184,10.356,1.885,12.604
								c0,0-4.178-5.521-4.426-9.789C252.383,447.967,253.34,445.312,254.924,445.152z"/>
							<path fill="#FAD0DF" d="M252.227,448.766c0,0-1.482,11.917,13.75,14.66c4.27,0.415,4.27,0.355,7.002-0.361
								c0,0-3.654,4.675-4.826,4.541c0,0,6.621-2.103,9.088-10.486l-0.496-4.193c0,0,0.326-4.771-0.455-7.496
								c0,0,0.164,15.729-8.297,8.875c0,0,4.814,0.429,5.121-4.22c0.143-1.586,0.309-4.139-3.545-3.93c0,0-0.791-2.649-0.838-2.401
								c-0.047,0.243,1.869-1.601,2.812-2.154c0,0-2.824,0.364-3.541,1.607c0,0-3.377-3-5.16,0.022
								c1.053,0.125-6.09-1.231-5.379,4.403c0,0-1.133,5.229-0.238,7.985c0.734,2.235-2.506-7.858-1.906-9.229
								c0,0-0.779,8.73,1.434,11.671C256.752,458.06,253.051,452.519,252.227,448.766z"/>
							<path fill="#E46996" d="M264.615,451.403c0,0-4.334-6.575,0.469-7.931c0,0,2.488-0.513,3.01,2.938
								C268.094,446.411,264.309,449.293,264.615,451.403z"/>
							<path fill="#E46996" d="M268.898,446.589c0,0,0.252-1.897-0.348-2.509c0,0,3.92-6.036,7.738,0.13
								c0,0,0.805,14.713-5.812,11.587c0,0-2.146-0.763-2.299-1.819c0,0,5.254,0.625,4.988-4.775
								C273.164,449.2,273.24,446.384,268.898,446.589z"/>
							<path fill="#E46996" d="M261.797,445.016c0,0-0.424,7.084,4.676,9.742c0,0-9.184-3.761-7.328-8.997
								C259.145,445.761,260.678,444.502,261.797,445.016z"/>
							<path fill="#E46996" d="M268.822,450.011c0,0,0.152,2.232-0.576,2.962c0,0,2.232,0.833,2.479-1.64
								C270.725,451.334,270.654,449.759,268.822,450.011z"/>
							<path fill="#E46996" d="M267.486,449.552c0,0,0.836,5.023-2.012,2.821c0,0,1.424-6.594,5.949-4.562
								c0,0,1.381,0.726,0.561,3.174C271.984,450.983,269.498,446.733,267.486,449.552z"/>
							<path fill="#E46996" d="M258.018,449.089c0,0-0.016,0.344-0.021,0.91c-0.045,2.481,0.027,9.245,2.057,10.217
								c0,0,10.293,4.069,13.725,0.875c0,0,3.5-3.532,1.914-6.451c0,0-2.885,5.358-10.787,0.656
								C264.902,455.297,259.32,452.219,258.018,449.089z"/>
							<path fill="#E46996" d="M276.383,445.415l0.07,4.265c0,0,5.176,5.756,3.396,14.292
								C279.85,463.971,288.834,454.608,276.383,445.415z"/>
							<path fill="#E46996" d="M277.539,446.123c0,0,9.658,6.355,1.617,18.217C279.156,464.34,290.082,455.797,277.539,446.123z"/>
							<path fill="#FAD0DF" d="M279.436,464.916c0,0,8.523-10.92-2.314-18.935l0,0c0,0,7.641,4.101,2.73,17.99L279.436,464.916z"/>
							<path fill="#E46996" d="M252.25,448.656c0,0-5.371,10.419,2.729,16.044c0,0,8.084,6.004,13.252,2.941
								c0,0,4.295-2.873,4.518-5.249c0,0-8.295,3.348-17.65-4.447C255.098,457.945,251.295,453.551,252.25,448.656z"/>
							<path fill="#E46996" d="M276.453,449.679l-0.035,2.079c0,0,1.986,7.285-1.957,10.439c0,0-4.766,5.626-6.861,5.264
								c0,0,8.479,6.066,12.25-3.49C279.85,463.971,282.326,452.82,276.453,449.679z"/>
						</g>
						<g>
							<path fill="#D16FAC" d="M241.854,457.502c1.941,0.027-13.02-0.795-11.693,12.258c0,0,1.172,4.903,9.869,10.507
								c0,0-11.414-11.594-3.684-15.755c0,0,0.287-3.319,4.223-3.549C240.568,460.962,242.938,456.86,241.854,457.502z"/>
							<path fill="#D16FAC" d="M230.523,470.735c0,0,5.705,9.055,8.764,9.657c0,0-6.736-2.064-9.363-5.584
								C229.924,474.809,229.244,471.895,230.523,470.735z"/>
							<path fill="#FAD0DF" d="M230.242,475.594c0,0,5.471,11.24,20.17,3.764c3.916-2.399,3.883-2.448,5.828-4.831
								c0,0-0.504,6.394-1.588,7.034c0,0,4.521-6.09,1.9-14.914l-2.805-3.3c0,0-2.418-4.33-4.639-6.173
								c0,0,9.053,13.458-2.129,13.013c0,0,4.396-2.736,2.029-6.948c-0.775-1.459-2.082-3.77-5.283-1.097
								c0,0-2.184-1.774-2.084-1.534c0.098,0.243,0.707-2.588,1.203-3.676c0,0-2.225,2.14-2.143,3.676c0,0-4.613-0.405-4.441,3.354
								c0.982-0.571-5.951,2.871-2.146,7.272c0,0,1.986,5.247,4.314,7.041c1.902,1.458-6.611-5.156-6.869-6.729
								c0,0,4.273,8.038,7.85,9.146C239.412,480.693,233.076,478.302,230.242,475.594z"/>
							<path fill="#D16FAC" d="M242.426,469.865c0,0-7.467-2.87-4.092-7.144c0,0,1.855-2.048,4.264,0.597
								C242.598,463.314,240.965,468.248,242.426,469.865z"/>
							<path fill="#D16FAC" d="M243.393,462.951c0,0-0.865-1.807-1.727-1.943c0,0-0.035-7.741,6.752-4.887
								c0,0,9.027,12.172,1.549,13.752c0,0-2.283,0.728-3.014-0.081c0,0,4.887-2.856,1.598-7.348
								C248.551,462.444,247.02,459.97,243.393,462.951z"/>
							<path fill="#D16FAC" d="M236.375,466.179c0,0,3.645,6.383,9.549,5.383c0,0-10.049,2.691-11.418-3.028
								C234.506,468.534,235.119,466.457,236.375,466.179z"/>
							<path fill="#D16FAC" d="M245.262,465.951c0,0,1.396,1.824,1.182,2.928c0,0,2.4-0.722,1.207-3.017
								C247.652,465.862,246.699,464.547,245.262,465.951z"/>
							<path fill="#D16FAC" d="M243.852,466.418c0,0,3.568,3.792-0.137,3.733c0,0-2.508-6.611,2.547-7.779
								c0,0,1.602-0.268,2.285,2.372C248.541,464.746,243.988,462.683,243.852,466.418z"/>
							<path fill="#D16FAC" d="M235.42,472.13c0,0,0.182,0.309,0.494,0.803c1.369,2.17,5.264,7.955,7.564,7.483
								c0,0,11.184-3.141,12.334-8.111c0,0,1.02-5.306-2-6.801c0,0,0.543,6.492-8.936,7.536
								C244.877,473.039,238.318,473.993,235.42,472.13z"/>
							<path fill="#D16FAC" d="M249.184,457.096l2.475,3.635c0,0,7.729,1.621,11.029,10.136
								C262.688,470.867,265.129,456.988,249.184,457.096z"/>
							<path fill="#D16FAC" d="M250.582,456.962c0,0,11.932-0.757,11.713,14.674C262.295,471.635,266.883,457.202,250.582,456.962z"
								/>
							<path fill="#FAD0DF" d="M262.863,471.952c0,0,1.168-14.924-12.725-14.838l0,0c0,0,8.912-1.399,12.549,13.753L262.863,471.952
								z"/>
							<path fill="#D16FAC" d="M230.199,475.488c0,0,1.264,12.458,11.443,12.077c0,0,10.379-0.043,13.1-6.024
								c0,0,2.078-5.256,0.926-7.446c0,0-5.266,8.244-17.748,7.562C237.92,481.657,232.148,480.326,230.199,475.488z"/>
							<path fill="#D16FAC" d="M251.658,460.732l1.15,1.821c0,0,5.838,4.999,4.225,10.267c0,0-0.924,7.931-2.938,8.973
								c0,0,10.752-0.246,8.592-10.929C262.688,470.867,258.504,459.648,251.658,460.732z"/>
						</g>
					</g>
					<g>
						<path fill="#40AA48" d="M360.457,360.314c0,0,12.037-10.392,21.223,0.723C381.68,361.038,374.201,369.623,360.457,360.314z"/>
						<path fill="#40AA48" d="M343.664,330.149c0,0,14.906-4.463,19.225,9.622C362.889,339.771,352.84,344.503,343.664,330.149z"/>
						<g>
							<path fill="#E46996" d="M373.615,326.94c1.494,1.151-9.715-8.192-15.342,2.717c0,0-1.592,4.496,2.307,13.91
								c0,0-2.951-15.649,5.18-14.387c0,0,1.916-2.411,5.092-0.304C370.852,328.877,374.783,327.073,373.615,326.94z"/>
							<path fill="#E46996" stroke="#FAD0DF" stroke-miterlimit="10" d="M358.055,330.632c0,0-0.184,10.357,1.889,12.603
								c0,0-4.182-5.521-4.43-9.784C355.514,333.45,356.475,330.792,358.055,330.632z"/>
							<path fill="#FAD0DF" d="M355.361,334.243c0,0-1.488,11.918,13.75,14.66c4.264,0.419,4.264,0.356,7-0.359
								c0,0-3.66,4.674-4.828,4.544c0,0,6.623-2.103,9.086-10.485l-0.498-4.194c0,0,0.334-4.772-0.451-7.498
								c0,0,0.166,15.729-8.297,8.876c0,0,4.814,0.429,5.121-4.223c0.143-1.587,0.307-4.141-3.547-3.928c0,0-0.787-2.65-0.836-2.402
								c-0.047,0.243,1.871-1.599,2.814-2.155c0,0-2.824,0.367-3.543,1.61c0,0-3.381-3.002-5.16,0.021
								c1.051,0.126-6.09-1.229-5.381,4.401c0,0-1.135,5.232-0.238,7.982c0.73,2.238-2.51-7.856-1.908-9.226
								c0,0-0.781,8.732,1.434,11.673C359.883,343.54,356.182,337.999,355.361,334.243z"/>
							<path fill="#E46996" d="M367.746,336.882c0,0-4.336-6.576,0.469-7.932c0,0,2.49-0.512,3.014,2.943
								C371.229,331.892,367.443,334.774,367.746,336.882z"/>
							<path fill="#E46996" d="M372.027,332.073c0,0,0.252-1.907-0.346-2.517c0,0,3.924-6.034,7.74,0.134
								c0,0,0.803,14.71-5.814,11.583c0,0-2.146-0.761-2.299-1.813c0,0,5.256,0.62,4.986-4.779
								C376.299,334.68,376.369,331.865,372.027,332.073z"/>
							<path fill="#E46996" d="M364.928,330.493c0,0-0.422,7.085,4.674,9.744c0,0-9.18-3.763-7.328-8.995
								C362.273,331.236,363.812,329.982,364.928,330.493z"/>
							<path fill="#E46996" d="M371.953,335.491c0,0,0.152,2.229-0.58,2.959c0,0,2.238,0.836,2.479-1.637
								C373.852,336.813,373.785,335.237,371.953,335.491z"/>
							<path fill="#E46996" d="M370.615,335.03c0,0,0.842,5.027-2.012,2.822c0,0,1.426-6.594,5.955-4.562
								c0,0,1.379,0.725,0.559,3.172C375.115,336.462,372.627,332.211,370.615,335.03z"/>
							<path fill="#E46996" d="M361.148,334.562c0,0-0.012,0.346-0.023,0.915c-0.043,2.483,0.027,9.245,2.061,10.213
								c0,0,10.291,4.073,13.723,0.878c0,0,3.498-3.531,1.914-6.447c0,0-2.885,5.355-10.787,0.651
								C368.035,340.772,362.451,337.7,361.148,334.562z"/>
							<path fill="#E46996" d="M379.516,330.895l0.07,4.262c0,0,5.178,5.757,3.395,14.289
								C382.982,349.446,391.963,340.086,379.516,330.895z"/>
							<path fill="#E46996" d="M380.67,331.599c0,0,9.66,6.354,1.615,18.219C382.285,349.818,393.215,341.276,380.67,331.599z"/>
							<path fill="#FAD0DF" d="M382.57,350.397c0,0,8.52-10.918-2.318-18.938l0,0c0,0,7.639,4.102,2.729,17.987L382.57,350.397z"/>
							<path fill="#E46996" d="M355.379,334.136c0,0-5.371,10.416,2.732,16.044c0,0,8.086,6.005,13.252,2.945
								c0,0,4.295-2.878,4.518-5.254c0,0-8.295,3.35-17.648-4.447C358.232,343.423,354.43,339.029,355.379,334.136z"/>
							<path fill="#E46996" d="M379.586,335.157l-0.037,2.084c0,0,1.984,7.28-1.957,10.435c0,0-4.766,5.626-6.861,5.267
								c0,0,8.482,6.063,12.25-3.496C382.982,349.446,385.457,338.299,379.586,335.157z"/>
						</g>
						<g>
							<path fill="#D16FAC" d="M344.986,342.979c1.941,0.027-13.021-0.792-11.697,12.256c0,0,1.176,4.906,9.871,10.507
								c0,0-11.41-11.591-3.682-15.752c0,0,0.289-3.32,4.223-3.549C343.699,346.436,346.068,342.34,344.986,342.979z"/>
							<path fill="#D16FAC" d="M333.654,356.217c0,0,5.705,9.053,8.764,9.655c0,0-6.734-2.063-9.363-5.583
								C333.055,360.289,332.379,357.376,333.654,356.217z"/>
							<path fill="#FAD0DF" d="M333.373,361.075c0,0,5.473,11.241,20.17,3.763c3.914-2.396,3.883-2.448,5.834-4.83
								c0,0-0.508,6.394-1.588,7.035c0,0,4.518-6.093,1.898-14.916l-2.809-3.297c0,0-2.412-4.334-4.637-6.173
								c0,0,9.055,13.458-2.129,13.013c0,0,4.396-2.741,2.027-6.953c-0.775-1.458-2.082-3.769-5.283-1.099
								c0,0-2.182-1.772-2.086-1.527c0.098,0.235,0.707-2.587,1.209-3.679c0,0-2.229,2.141-2.146,3.679c0,0-4.611-0.408-4.439,3.351
								c0.98-0.569-5.951,2.872-2.145,7.273c0,0,1.984,5.243,4.314,7.044c1.898,1.455-6.613-5.161-6.871-6.731
								c0,0,4.27,8.039,7.846,9.146C342.539,366.169,336.211,363.78,333.373,361.075z"/>
							<path fill="#D16FAC" d="M345.557,355.344c0,0-7.463-2.867-4.088-7.144c0,0,1.854-2.048,4.264,0.593
								C345.732,348.795,344.096,353.724,345.557,355.344z"/>
							<path fill="#D16FAC" d="M346.523,348.429c0,0-0.865-1.804-1.725-1.944c0,0-0.033-7.737,6.752-4.883
								c0,0,9.025,12.17,1.547,13.748c0,0-2.283,0.729-3.01-0.08c0,0,4.885-2.857,1.6-7.346
								C351.688,347.925,350.15,345.446,346.523,348.429z"/>
							<path fill="#D16FAC" d="M339.506,351.657c0,0,3.648,6.385,9.549,5.386c0,0-10.051,2.688-11.418-3.029
								C337.637,354.013,338.25,351.935,339.506,351.657z"/>
							<path fill="#D16FAC" d="M348.396,351.431c0,0,1.396,1.822,1.18,2.925c0,0,2.396-0.726,1.205-3.014
								C350.783,351.343,349.83,350.025,348.396,351.431z"/>
							<path fill="#D16FAC" d="M346.982,351.899c0,0,3.568,3.793-0.137,3.73c0,0-2.506-6.608,2.547-7.779c0,0,1.6-0.267,2.279,2.374
								C351.672,350.224,347.121,348.163,346.982,351.899z"/>
							<path fill="#D16FAC" d="M338.551,357.606c0,0,0.182,0.309,0.494,0.804c1.369,2.172,5.264,7.963,7.566,7.485
								c0,0,11.182-3.136,12.334-8.11c0,0,1.016-5.307-2.002-6.8c0,0,0.543,6.486-8.938,7.533
								C348.006,358.518,341.447,359.472,338.551,357.606z"/>
							<path fill="#D16FAC" d="M352.316,342.576l2.473,3.634c0,0,7.73,1.622,11.027,10.136
								C365.816,356.345,368.264,342.467,352.316,342.576z"/>
							<path fill="#D16FAC" d="M353.711,342.442c0,0,11.936-0.757,11.717,14.67C365.428,357.112,370.016,342.681,353.711,342.442z"
								/>
							<path fill="#FAD0DF" d="M365.994,357.43c0,0,1.17-14.924-12.723-14.84l0,0c0,0,8.912-1.394,12.545,13.755L365.994,357.43z"/>
							<path fill="#D16FAC" d="M333.332,360.969c0,0,1.266,12.457,11.441,12.075c0,0,10.377-0.043,13.102-6.024
								c0,0,2.076-5.253,0.924-7.447c0,0-5.264,8.249-17.748,7.565C341.051,367.137,335.279,365.804,333.332,360.969z"/>
							<path fill="#D16FAC" d="M354.789,346.21l1.146,1.819c0,0,5.842,5.003,4.227,10.273c0,0-0.92,7.931-2.934,8.97
								c0,0,10.748-0.244,8.586-10.927C365.816,356.345,361.639,345.127,354.789,346.21z"/>
						</g>
					</g>
					<g>
						<path fill="#40AA48" d="M282.943,378.911c0,0,12.031-10.393,21.221,0.718C304.164,379.629,296.686,388.218,282.943,378.911z"
							/>
						<path fill="#40AA48" d="M266.15,348.742c0,0,14.904-4.461,19.225,9.625C285.375,358.367,275.326,363.095,266.15,348.742z"/>
						<g>
							<path fill="#E46996" d="M296.1,345.536c1.492,1.149-9.713-8.197-15.34,2.715c0,0-1.596,4.498,2.311,13.907
								c0,0-2.957-15.648,5.176-14.385c0,0,1.914-2.409,5.088-0.301C293.334,347.472,297.27,345.667,296.1,345.536z"/>
							<path fill="#E46996" stroke="#FAD0DF" stroke-miterlimit="10" d="M280.539,349.224c0,0-0.184,10.355,1.885,12.604
								c0,0-4.182-5.524-4.426-9.788C277.998,352.042,278.955,349.385,280.539,349.224z"/>
							<path fill="#FAD0DF" d="M277.844,352.838c0,0-1.482,11.916,13.752,14.661c4.266,0.416,4.266,0.357,7-0.36
								c0,0-3.658,4.675-4.826,4.543c0,0,6.619-2.104,9.088-10.483l-0.5-4.196c0,0,0.334-4.772-0.453-7.497
								c0,0,0.166,15.728-8.295,8.876c0,0,4.812,0.428,5.123-4.224c0.143-1.584,0.307-4.137-3.545-3.927c0,0-0.793-2.651-0.84-2.402
								c-0.047,0.244,1.873-1.6,2.812-2.155c0,0-2.82,0.367-3.543,1.609c0,0-3.377-2.999-5.16,0.022
								c1.055,0.123-6.09-1.232-5.377,4.4c0,0-1.139,5.232-0.238,7.986c0.73,2.233-2.51-7.857-1.908-9.227
								c0,0-0.783,8.729,1.432,11.67C282.365,362.134,278.666,356.593,277.844,352.838z"/>
							<path fill="#E46996" d="M290.23,355.476c0,0-4.334-6.576,0.467-7.933c0,0,2.49-0.513,3.014,2.944
								C293.711,350.488,289.922,353.369,290.23,355.476z"/>
							<path fill="#E46996" d="M294.512,350.667c0,0,0.252-1.907-0.344-2.518c0,0,3.92-6.032,7.736,0.133
								c0,0,0.807,14.713-5.814,11.585c0,0-2.143-0.76-2.299-1.815c0,0,5.256,0.62,4.992-4.777
								C298.785,353.274,298.854,350.455,294.512,350.667z"/>
							<path fill="#E46996" d="M287.412,349.088c0,0-0.422,7.083,4.674,9.741c0,0-9.18-3.758-7.324-8.994
								C284.762,349.837,286.295,348.575,287.412,349.088z"/>
							<path fill="#E46996" d="M294.438,354.086c0,0,0.154,2.231-0.578,2.96c0,0,2.232,0.836,2.477-1.641
								C296.336,355.405,296.27,353.829,294.438,354.086z"/>
							<path fill="#E46996" d="M293.102,353.627c0,0,0.836,5.022-2.014,2.82c0,0,1.426-6.597,5.951-4.564
								c0,0,1.379,0.728,0.561,3.173C297.598,355.055,295.113,350.806,293.102,353.627z"/>
							<path fill="#E46996" d="M283.631,353.159c0,0-0.012,0.343-0.023,0.913c-0.043,2.481,0.029,9.245,2.061,10.214
								c0,0,10.291,4.072,13.723,0.878c0,0,3.498-3.534,1.916-6.451c0,0-2.889,5.359-10.789,0.654
								C290.52,359.367,284.936,356.291,283.631,353.159z"/>
							<path fill="#E46996" d="M302.002,349.486l0.068,4.266c0,0,5.178,5.757,3.395,14.293
								C305.467,368.044,314.447,358.683,302.002,349.486z"/>
							<path fill="#E46996" d="M303.156,350.198c0,0,9.656,6.349,1.615,18.215C304.771,368.413,315.701,359.867,303.156,350.198z"/>
							<path fill="#FAD0DF" d="M305.051,368.991c0,0,8.523-10.92-2.314-18.939l0,0c0,0,7.637,4.102,2.73,17.992L305.051,368.991z"/>
							<path fill="#E46996" d="M277.865,352.73c0,0-5.371,10.419,2.73,16.043c0,0,8.086,6.004,13.252,2.944
								c0,0,4.293-2.875,4.518-5.251c0,0-8.297,3.349-17.65-4.448C280.715,362.016,276.914,357.623,277.865,352.73z"/>
							<path fill="#E46996" d="M302.07,353.75l-0.037,2.083c0,0,1.986,7.282-1.959,10.439c0,0-4.758,5.625-6.855,5.262
								c0,0,8.479,6.066,12.248-3.49C305.467,368.044,307.941,356.892,302.07,353.75z"/>
						</g>
						<g>
							<path fill="#D16FAC" d="M267.469,361.574c1.938,0.029-13.021-0.796-11.695,12.256c0,0,1.174,4.908,9.873,10.508
								c0,0-11.416-11.592-3.686-15.753c0,0,0.289-3.319,4.221-3.55C266.182,365.034,268.555,360.934,267.469,361.574z"/>
							<path fill="#D16FAC" d="M256.139,374.811c0,0,5.705,9.053,8.764,9.654c0,0-6.736-2.066-9.363-5.584
								C255.539,378.882,254.859,375.969,256.139,374.811z"/>
							<path fill="#FAD0DF" d="M255.857,379.667c0,0,5.469,11.241,20.168,3.765c3.916-2.396,3.885-2.448,5.834-4.831
								c0,0-0.508,6.393-1.588,7.034c0,0,4.518-6.09,1.898-14.916l-2.803-3.294c0,0-2.42-4.333-4.643-6.178
								c0,0,9.053,13.46-2.127,13.015c0,0,4.396-2.737,2.025-6.948c-0.773-1.461-2.076-3.771-5.279-1.099
								c0,0-2.184-1.776-2.088-1.533c0.1,0.241,0.709-2.586,1.207-3.675c0,0-2.227,2.138-2.145,3.675c0,0-4.611-0.405-4.438,3.354
								c0.98-0.574-5.953,2.869-2.146,7.272c0,0,1.982,5.247,4.314,7.04c1.9,1.458-6.613-5.157-6.869-6.728
								c0,0,4.27,8.038,7.846,9.145C265.023,384.765,258.695,382.378,255.857,379.667z"/>
							<path fill="#D16FAC" d="M268.037,373.938c0,0-7.461-2.868-4.088-7.145c0,0,1.855-2.051,4.264,0.593
								C268.213,367.385,266.58,372.318,268.037,373.938z"/>
							<path fill="#D16FAC" d="M269.008,367.024c0,0-0.863-1.807-1.725-1.947c0,0-0.033-7.738,6.752-4.881
								c0,0,9.027,12.168,1.551,13.746c0,0-2.283,0.729-3.014-0.077c0,0,4.883-2.858,1.598-7.348
								C274.17,366.517,272.633,364.041,269.008,367.024z"/>
							<path fill="#D16FAC" d="M261.988,370.253c0,0,3.65,6.384,9.551,5.381c0,0-10.053,2.693-11.418-3.022
								C260.121,372.608,260.736,370.53,261.988,370.253z"/>
							<path fill="#D16FAC" d="M270.877,370.027c0,0,1.398,1.821,1.182,2.925c0,0,2.402-0.726,1.211-3.019
								C273.27,369.933,272.314,368.617,270.877,370.027z"/>
							<path fill="#D16FAC" d="M269.467,370.489c0,0,3.572,3.795-0.139,3.736c0,0-2.504-6.61,2.551-7.781
								c0,0,1.604-0.269,2.277,2.373C274.156,368.816,269.604,366.756,269.467,370.489z"/>
							<path fill="#D16FAC" d="M261.039,376.204c0,0,0.176,0.304,0.49,0.801c1.369,2.171,5.264,7.958,7.564,7.484
								c0,0,11.184-3.14,12.336-8.111c0,0,1.018-5.305-1.998-6.8c0,0,0.539,6.488-8.941,7.532
								C270.492,377.114,263.934,378.066,261.039,376.204z"/>
							<path fill="#D16FAC" d="M274.799,361.171l2.475,3.635c0,0,7.727,1.62,11.025,10.134
								C288.299,374.939,290.748,361.061,274.799,361.171z"/>
							<path fill="#D16FAC" d="M276.193,361.036c0,0,11.936-0.757,11.719,14.671C287.912,375.707,292.498,361.276,276.193,361.036z"
								/>
							<path fill="#FAD0DF" d="M288.48,376.023c0,0,1.166-14.922-12.723-14.84l0,0c0,0,8.908-1.396,12.541,13.756L288.48,376.023z"
								/>
							<path fill="#D16FAC" d="M255.814,379.563c0,0,1.27,12.456,11.443,12.073c0,0,10.379-0.041,13.1-6.022
								c0,0,2.078-5.253,0.924-7.445c0,0-5.26,8.248-17.744,7.564C263.535,385.733,257.764,384.399,255.814,379.563z"/>
							<path fill="#D16FAC" d="M277.275,364.805l1.148,1.818c0,0,5.838,5,4.225,10.272c0,0-0.924,7.929-2.938,8.97
								c0,0,10.752-0.244,8.588-10.929C288.299,374.939,284.123,363.721,277.275,364.805z"/>
						</g>
					</g>
				</g>
			</g>
		</g>
	</g>
	<path fill="#FFFCFA" d="M315.338,227.882c0,3.22-9.631,5.357-12.363,5.357l-37.502,1.939c-2.732,0-4.945-2.607-4.945-5.824
		l6.594-11.963c0-3.219,22.408-7.644,25.141-7.644h20.193c2.729,0,4.193,7.644,4.193,10.86L315.338,227.882z"/>
	<path fill="#FFFCFA" d="M199.057,230.495c0.23,3.211,9.995,4.648,12.719,4.451l37.542-0.768c2.725-0.195,4.746-2.955,4.514-6.166
		l-7.439-11.458c-0.232-3.21-22.898-6.007-25.625-5.81l-20.139,1.455c-2.727,0.197-3.634,7.926-3.4,11.135L199.057,230.495z"/>
	<path fill="none" stroke="#FDE9F1" stroke-width="4" stroke-miterlimit="10" d="M258.113,222.464c0,0,2.289,37.558-73.234,38.898"
		/>
	<path fill="#F6A9C1" d="M266.822,225.102c0,3.64-1.98,6.818-4.928,8.512c-0.984,0.569-2.082,0.969-3.248,1.167
		c-0.529,0.089-1.076,0.132-1.637,0.132c-5.42,0-9.812-4.393-9.812-9.811c0-5.416,4.393-9.812,9.812-9.812
		C262.432,215.291,266.822,219.686,266.822,225.102z"/>
	<path fill="#D0D2D5" d="M415.617,139.056c0,17.511-9.295,31.708-20.756,31.708c-11.463,0-20.752-14.196-20.752-31.708
		c0-17.514,9.289-31.71,20.752-31.71C406.322,107.346,415.617,121.543,415.617,139.056z"/>
	<path fill="#D4D8DE" d="M390.857,167.518h7.709c0,0,1.121,93.917,2.883,94.799c0,0,5.027,19.677-6.59,22.027
		c0,0-10.15,1.175-5.744-27.9l2.936-57.564L390.857,167.518z"/>
	<path fill="#D0D2D5" d="M129.169,84.751c0,0-13.041,64.186,1.717,71.392c0,0,3.087,7.896,3.087,10.985
		c0,0,0.342,74.824-1.714,74.824c0,0-8.925,44.979,4.803,43.94c0,0,13.403,2.737,5.152-44.283l-1.375-78.6
		c0,0,0.345-5.996,5.495-9.861c0,0,5.833-5.243,3.772-23.091c0,0-1.715-40.156-5.834-45.307l2.062,47.023
		c0,0-2.404,8.924-3.091-2.402c0,0-1.374-44.276-3.777-44.621l-0.34,36.039c0,0-0.344,21.623-3.776,11.67
		c0,0-0.688-47.707-0.688-47.709l-3.429,43.59c0,0-0.115,14.517-3.434,2.06L129.169,84.751z"/>
</g>
</svg>
