<?xml version="1.0" encoding="utf-8"?>
<!-- Generator: Adobe Illustrator 15.1.0, SVG Export Plug-In . SVG Version: 6.00 Build 0)  -->
<!DOCTYPE svg PUBLIC "-//W3C//DTD SVG 1.1//EN" "http://www.w3.org/Graphics/SVG/1.1/DTD/svg11.dtd">
<svg version="1.1" id="Layer_1" xmlns="http://www.w3.org/2000/svg" xmlns:xlink="http://www.w3.org/1999/xlink" x="0px" y="0px"
	 width="150px" height="74.26px" viewBox="180.025 12.377 150 74.26" enable-background="new 180.025 12.377 150 74.26"
	 xml:space="preserve">
<polygon fill="#198A45" points="201.345,12.615 183.525,85.53 326.525,85.53 310.041,15.332 309.597,12.615 "/>
<path fill="#C8312D" d="M212.733,18.098c0,0,8.306-10.31,25.49-1.146c0,0,1.718,1.434,0,2.865c0,0,8.018,0.287,9.449,2.578
	c0,0,3.436,14.032-7.446,15.177c0,0-10.022,9.736-14.319,4.01c0,0-11.742,1.718-13.174-4.296c0,0-4.01-4.868-6.013-4.295
	c0,0-8.018-3.437,1.146-8.592C207.866,24.398,205.003,18.385,212.733,18.098z"/>
<path fill="#FFFFFF" d="M308.127,29.715c0.717,5.057-6.361,11.021-13.467,12.028c-7.108,1.008-11.927-2.083-12.645-7.14
	c-0.717-5.058,2.939-10.164,10.046-11.172C299.171,22.421,307.409,24.658,308.127,29.715z"/>
<path fill="#F5F2E5" d="M282.762,37.063c0,0,12.471,9.799,25.012-4.488c0,0-2.872,8.519-14.309,9.301
	C293.465,41.876,285.039,42.674,282.762,37.063z"/>
<path fill="#FBE445" d="M300.341,28.619c0.99,2.694-1.105,5.942-4.675,7.253c-3.574,1.312-7.27,0.19-8.261-2.504
	c-0.987-2.694,1.106-5.942,4.677-7.253C295.653,24.804,299.353,25.926,300.341,28.619z"/>
<path fill="#F4CD15" d="M287.405,33.368c0,0,7.579,6.574,13.178-3.309c0,0,0.485,4.299-6.359,6.209
	C294.226,36.269,289.273,37.606,287.405,33.368z"/>
<path fill="#FFFFFF" d="M286.782,36.623c2.911,9.521-10.968,18.026-24.499,18.026c-13.532,0-24.5-8.07-24.5-18.026
	c0-9.954,12.362-20.975,25.892-20.975C277.208,15.648,283.745,26.682,286.782,36.623z"/>
<path fill="#FFFFFF" d="M252.146,18.016c0,0.901-0.462,1.632-1.031,1.632c-0.57,0-1.031-0.731-1.031-1.632
	c0-0.901,0.461-1.633,1.031-1.633C251.684,16.383,252.146,17.115,252.146,18.016z"/>
<path fill="#FFFFFF" d="M256.959,16.255c0,0.972-0.386,1.761-0.858,1.761c-0.478,0-0.862-0.789-0.862-1.761
	c0-0.974,0.384-1.762,0.862-1.762C256.573,14.493,256.959,15.281,256.959,16.255z"/>
<path fill="#FFFFFF" d="M263.676,16.255c0,0.972-0.657,1.761-1.469,1.761s-1.469-0.789-1.469-1.761c0-0.974,0.657-1.762,1.469-1.762
	S263.676,15.281,263.676,16.255z"/>
<path fill="#FFFFFF" d="M280.355,21.038c0,0.669-0.842,1.212-1.877,1.212c-1.037,0-1.875-0.543-1.875-1.212
	c0-0.67,0.838-1.214,1.875-1.214C279.514,19.824,280.355,20.368,280.355,21.038z"/>
<path fill="#FFFFFF" d="M282.909,24.804c0,0.669-0.84,1.213-1.876,1.213s-1.877-0.545-1.877-1.213c0-0.67,0.841-1.213,1.877-1.213
	C282.069,23.591,282.909,24.134,282.909,24.804z"/>
<path fill="#FFFFFF" d="M285.92,46.836c0,0.669-0.84,1.213-1.877,1.213c-1.035,0-1.875-0.544-1.875-1.213
	c0-0.67,0.84-1.213,1.875-1.213C285.08,45.623,285.92,46.166,285.92,46.836z"/>
<path fill="#FFFFFF" d="M283.554,26.715c0,0.67-0.841,1.213-1.877,1.213s-1.876-0.543-1.876-1.213c0-0.67,0.84-1.212,1.876-1.212
	S283.554,26.045,283.554,26.715z"/>
<path fill="#FFFFFF" d="M288.407,33.929c0,0.673-1.346,1.219-3.008,1.219c-1.661,0-3.007-0.545-3.007-1.219s1.346-1.219,3.007-1.219
	C287.062,32.71,288.407,33.256,288.407,33.929z"/>
<path fill="#FFFFFF" d="M289.268,41.302c0,0.665-1.039,1.204-2.32,1.204c-1.283,0-2.321-0.539-2.321-1.204
	c0-0.665,1.04-1.203,2.321-1.203S289.268,40.638,289.268,41.302z"/>
<path fill="#FFFFFF" d="M243.037,27.124c0,0.711-0.897,1.288-2.004,1.288c-1.107,0-2.003-0.577-2.003-1.288
	c0-0.712,0.896-1.29,2.003-1.29C242.14,25.835,243.037,26.412,243.037,27.124z"/>
<path fill="#FFFFFF" d="M243.037,45.547c0,0.712-0.897,1.29-2.004,1.29c-1.107,0-2.003-0.577-2.003-1.29
	c0-0.712,0.896-1.288,2.003-1.288C242.14,44.259,243.037,44.835,243.037,45.547z"/>
<path fill="#FFFFFF" d="M246.587,49.229c0,0.712-0.896,1.29-2.003,1.29c-1.106,0-2.002-0.577-2.002-1.29
	c0-0.711,0.896-1.288,2.002-1.288C245.691,47.942,246.587,48.518,246.587,49.229z"/>
<path fill="#FFFFFF" d="M247.677,23.075c0,0.67-1.038,1.213-2.32,1.213s-2.32-0.543-2.32-1.213c0-0.669,1.038-1.212,2.32-1.212
	C246.639,21.864,247.677,22.406,247.677,23.075z"/>
<path fill="#FFFFFF" d="M242.149,30.403c0,0.67-1.039,1.213-2.321,1.213c-1.28,0-2.319-0.542-2.319-1.213s1.039-1.212,2.319-1.212
	C241.11,29.19,242.149,29.732,242.149,30.403z"/>
<path fill="#FFFFFF" d="M246.23,25.502c0,0.669-1.038,1.212-2.319,1.212c-1.282,0-2.321-0.543-2.321-1.212
	c0-0.67,1.04-1.213,2.321-1.213C245.192,24.288,246.23,24.832,246.23,25.502z"/>
<path fill="#FFFFFF" d="M275.232,17.649c0,1.105-0.59,1.999-1.317,1.999c-0.729,0-1.318-0.895-1.318-1.999c0-1.104,0.59-2,1.318-2
	C274.643,15.648,275.232,16.543,275.232,17.649z"/>
<path fill="#FFFFFF" d="M241.033,41.302c0,0.665-0.897,1.204-2.006,1.204c-1.108,0-2.005-0.539-2.005-1.204
	c0-0.665,0.897-1.203,2.005-1.203C240.136,40.1,241.033,40.638,241.033,41.302z"/>
<path fill="#FFFFFF" d="M239.027,35.148c0,0.665-0.897,1.204-2.005,1.204s-2.006-0.539-2.006-1.204c0-0.664,0.898-1.203,2.006-1.203
	C238.13,33.945,239.027,34.484,239.027,35.148z"/>
<path fill="#FFFFFF" d="M248.916,20.326c0,0.666-0.898,1.204-2.006,1.204c-1.108,0-2.006-0.538-2.006-1.204
	c0-0.663,0.897-1.202,2.006-1.202C248.018,19.125,248.916,19.663,248.916,20.326z"/>
<path fill="#FFFFFF" d="M278.318,51.058c0,0.665-0.897,1.202-2.006,1.202s-2.005-0.539-2.005-1.202c0-0.664,0.896-1.204,2.005-1.204
	C277.42,49.855,278.318,50.393,278.318,51.058z"/>
<path fill="#FFFFFF" d="M256.886,52.325c0.379,0.545-0.051,1.5-0.96,2.132c-0.91,0.633-1.955,0.702-2.334,0.156
	c-0.38-0.546,0.051-1.5,0.961-2.133C255.462,51.85,256.508,51.779,256.886,52.325z"/>
<polygon fill="#FFDF95" points="195.282,41.539 198.026,44.14 208.894,45.518 202.088,41.539 "/>
<g>
	
		<image overflow="visible" enable-background="new    " width="471" height="351" xlink:href="7A0162DD.png"  transform="matrix(0.0303 0 0 0.0299 193.7646 38.2327)">
	</image>
</g>
<polygon fill="#FFDF95" points="206.741,48.599 209.483,51.2 220.35,52.579 213.546,48.599 "/>
<g>
	
		<image overflow="visible" enable-background="new    " width="471" height="351" xlink:href="7A0162E7.png"  transform="matrix(0.0301 0 0 0.0301 205.252 45.2542)">
	</image>
</g>
<polygon fill="#FFDF95" points="214.697,40.32 217.44,42.921 228.306,44.299 221.501,40.32 "/>
<g>
	
		<image overflow="visible" enable-background="new    " width="482" height="351" xlink:href="7A0162E9.png"  transform="matrix(0.0297 0 0 0.0297 213.1499 37.0525)">
	</image>
</g>
<polygon fill="#FFDF95" points="201.482,32.688 204.225,35.29 215.093,36.667 208.287,32.688 "/>
<g>
	
		<image overflow="visible" enable-background="new    " width="482" height="351" xlink:href="7A0162EA.png"  transform="matrix(0.0297 0 0 0.0297 199.9346 29.4192)">
	</image>
</g>
<polygon fill="#FFDF95" points="220.997,45.356 223.74,47.957 234.607,49.335 227.8,45.356 "/>
<g>
	
		<image overflow="visible" enable-background="new    " width="482" height="351" xlink:href="7A0162EB.png"  transform="matrix(0.0297 0 0 0.0297 219.4487 42.0881)">
	</image>
</g>
<polygon fill="#FFDF95" points="201.619,51.509 204.361,54.111 215.229,55.488 208.424,51.509 "/>
<g>
	
		<image overflow="visible" enable-background="new    " width="471" height="351" xlink:href="7A0162EF.png"  transform="matrix(0.0301 0 0 0.0301 200.1289 48.1628)">
	</image>
</g>
<polygon fill="#FFDF95" points="215.611,33.438 218.354,36.039 229.221,37.415 222.417,33.438 "/>
<g>
	
		<image overflow="visible" enable-background="new    " width="482" height="351" xlink:href="7A0162E8.png"  transform="matrix(0.0297 0 0 0.0297 214.0635 30.1697)">
	</image>
</g>
<path fill="#FFDF95" d="M201.033,35.594c0,0,13.588-4.571,25.226,6.716c0,0-16.398-8.801-21.185-5.003c0,0-1.781,2.953-4.027,2.001
	C201.049,39.307,197.714,38.426,201.033,35.594z"/>
<path fill="#FFDF95" d="M207.725,40.471c0,0,13.589-4.57,25.228,6.716c0,0-16.398-8.801-21.186-5.004c0,0-1.782,2.954-4.026,2.002
	C207.74,44.185,204.406,43.302,207.725,40.471z"/>
<path fill="#FFDF95" d="M213.396,46.43c0,0,13.59,4.569,25.227-6.717c0,0-16.398,8.802-21.184,5.003c0,0-1.78-2.952-4.027-2.001
	C213.412,42.715,210.078,43.597,213.396,46.43z"/>
<path fill="#FFDF95" d="M217.365,53.49c0,0,13.59,4.571,25.226-6.717c0,0-16.396,8.802-21.184,5.004c0,0-1.782-2.953-4.027-2.001
	C217.38,49.776,214.047,50.658,217.365,53.49z"/>
<polygon fill="#FFDF95" points="192.795,57.174 195.538,59.775 206.404,61.153 199.601,57.174 "/>
<g>
	
		<image overflow="visible" enable-background="new    " width="482" height="340" xlink:href="7A0162F6.png"  transform="matrix(0.0301 0 0 0.0298 191.1406 54.054)">
	</image>
</g>
<polygon fill="#FFDF95" points="204.253,64.234 206.997,66.837 217.862,68.214 211.058,64.234 "/>
<g>
	
		<image overflow="visible" enable-background="new    " width="482" height="340" xlink:href="7A0162F7.png"  transform="matrix(0.0301 0 0 0.0298 202.5991 61.1145)">
	</image>
</g>
<polygon fill="#FFDF95" points="212.209,55.954 214.953,58.555 225.819,59.933 219.015,55.954 "/>
<g>
	
		<image overflow="visible" enable-background="new    " width="482" height="351" xlink:href="A2334A66.png"  transform="matrix(0.0297 0 0 0.0297 210.6631 52.6863)">
	</image>
</g>
<polygon fill="#FFDF95" points="198.996,48.322 201.738,50.925 212.604,52.302 205.801,48.322 "/>
<g>
	
		<image overflow="visible" enable-background="new    " width="471" height="351" xlink:href="A2334A62.png"  transform="matrix(0.0301 0 0 0.0301 197.5049 44.9763)">
	</image>
</g>
<polygon fill="#FFDF95" points="218.51,60.99 221.252,63.591 232.119,64.969 225.314,60.99 "/>
<g>
	
		<image overflow="visible" enable-background="new    " width="471" height="351" xlink:href="A2334A7D.png"  transform="matrix(0.0301 0 0 0.0301 217.0205 57.6438)">
	</image>
</g>
<polygon fill="#FFDF95" points="199.131,67.143 201.874,69.744 212.742,71.122 205.937,67.143 "/>
<g>
	
		<image overflow="visible" enable-background="new    " width="482" height="351" xlink:href="A2334A7E.png"  transform="matrix(0.0297 0 0 0.0297 197.5835 63.8767)">
	</image>
</g>
<polygon fill="#FFDF95" points="213.124,49.072 215.867,51.673 226.733,53.051 219.929,49.072 "/>
<g>
	
		<image overflow="visible" enable-background="new    " width="471" height="351" xlink:href="A2334A7C.png"  transform="matrix(0.0301 0 0 0.0301 211.6348 45.7268)">
	</image>
</g>
<path fill="#FFDF95" d="M198.547,51.228c0,0,13.589-4.571,25.225,6.716c0,0-16.397-8.801-21.184-5.004c0,0-1.781,2.954-4.027,2.001
	C198.561,54.941,195.228,54.061,198.547,51.228z"/>
<path fill="#FFDF95" d="M205.238,56.105c0,0,13.59-4.57,25.226,6.717c0,0-16.396-8.801-21.183-5.004c0,0-1.782,2.953-4.027,2.002
	C205.253,59.82,201.919,58.936,205.238,56.105z"/>
<path fill="#FFDF95" d="M210.908,62.065c0,0,13.59,4.57,25.229-6.716c0,0-16.399,8.801-21.187,5.002c0,0-1.781-2.953-4.026-2.001
	C210.925,58.35,207.59,59.231,210.908,62.065z"/>
<path fill="#FFDF95" d="M214.877,69.125c0,0,13.59,4.57,25.227-6.716c0,0-16.398,8.801-21.186,5.003c0,0-1.78-2.953-4.025-2.001
	C214.894,65.41,211.559,66.293,214.877,69.125z"/>
<path fill="#E8A323" d="M201.482,44.833c0,0.824-1.13,1.491-2.524,1.491s-2.523-0.667-2.523-1.491s1.129-1.492,2.523-1.492
	S201.482,44.009,201.482,44.833z"/>
<path fill="#B16244" d="M196.435,44.833c0,0,2.52,1.955,5.048,0c0,0,0.304,1.833-3.087,1.589
	C198.396,46.422,196.599,46.1,196.435,44.833z"/>
<path fill="#E8A323" d="M213.326,47.407c0,0.824-1.129,1.491-2.524,1.491c-1.393,0-2.524-0.667-2.524-1.491s1.131-1.492,2.524-1.492
	C212.196,45.915,213.326,46.583,213.326,47.407z"/>
<path fill="#B16244" d="M208.277,47.407c0,0,2.521,1.955,5.048,0c0,0,0.307,1.833-3.088,1.589
	C210.238,48.996,208.443,48.675,208.277,47.407z"/>
<path fill="#E8A323" d="M231.049,47.223c0,0.825-1.13,1.493-2.522,1.493c-1.396,0-2.525-0.667-2.525-1.493
	c0-0.823,1.129-1.491,2.525-1.491C229.919,45.733,231.049,46.401,231.049,47.223z"/>
<path fill="#B16244" d="M226.001,47.223c0,0,2.519,1.955,5.047,0c0,0,0.305,1.834-3.086,1.591
	C227.962,48.814,226.166,48.492,226.001,47.223z"/>
<ellipse fill="#E8A323" cx="210.911" cy="35.873" rx="2.525" ry="1.492"/>
<path fill="#B16244" d="M208.387,35.874c0,0,2.521,1.954,5.049,0c0,0,0.305,1.833-3.087,1.589
	C210.348,37.463,208.553,37.142,208.387,35.874z"/>
<path fill="#E8A323" d="M217.375,50.842c0,0.825-1.129,1.493-2.524,1.493c-1.395,0-2.524-0.668-2.524-1.493
	c0-0.822,1.129-1.491,2.524-1.491C216.246,49.351,217.375,50.02,217.375,50.842z"/>
<path fill="#B16244" d="M212.327,50.842c0,0,2.519,1.956,5.048,0c0,0,0.307,1.834-3.087,1.591
	C214.288,52.432,212.492,52.112,212.327,50.842z"/>
<path fill="#E8A323" d="M206.632,46.7c-0.389,0.727-1.7,0.783-2.931,0.125c-1.228-0.657-1.91-1.779-1.521-2.506
	c0.388-0.725,1.699-0.783,2.929-0.125C206.338,44.853,207.021,45.973,206.632,46.7z"/>
<path fill="#B16244" d="M202.18,44.32c0,0,1.3,2.912,4.452,2.38c0,0-0.596,1.761-3.472-0.054
	C203.159,46.646,201.727,45.516,202.18,44.32z"/>
<path fill="#E8A323" d="M210.807,44.834c-0.39,0.727-1.7,0.783-2.93,0.125c-1.229-0.657-1.912-1.779-1.522-2.505
	c0.388-0.726,1.7-0.782,2.929-0.126C210.513,42.986,211.194,44.108,210.807,44.834z"/>
<path fill="#B16244" d="M206.354,42.454c0,0,1.3,2.911,4.452,2.38c0,0-0.597,1.761-3.472-0.055
	C207.336,44.779,205.901,43.649,206.354,42.454z"/>
<path fill="#E8A323" d="M227.902,43.464c-0.389,0.727-1.7,0.782-2.929,0.124c-1.23-0.657-1.911-1.778-1.522-2.505
	c0.389-0.727,1.7-0.782,2.928-0.124C227.608,41.615,228.291,42.736,227.902,43.464z"/>
<path fill="#B16244" d="M223.45,41.082c0,0,1.3,2.913,4.452,2.382c0,0-0.595,1.76-3.473-0.056
	C224.429,43.408,222.997,42.278,223.45,41.082z"/>
<path fill="#E8A323" d="M206.202,41.201c0.122,0.816-0.899,1.644-2.277,1.849c-1.378,0.204-2.597-0.29-2.717-1.104
	c-0.122-0.815,0.898-1.641,2.278-1.846C204.864,39.894,206.081,40.388,206.202,41.201z"/>
<path fill="#B16244" d="M201.208,41.946c0,0,2.78,1.562,4.994-0.745c0,0,0.571,1.77-2.82,2.027
	C203.383,43.228,201.559,43.176,201.208,41.946z"/>
<path fill="#E8A323" d="M204.555,37.047c0.121,0.816-0.898,1.643-2.278,1.849c-1.377,0.205-2.595-0.29-2.715-1.104
	c-0.123-0.814,0.899-1.643,2.276-1.846C203.216,35.74,204.434,36.233,204.555,37.047z"/>
<path fill="#B16244" d="M199.561,37.791c0,0,2.78,1.563,4.994-0.744c0,0,0.569,1.77-2.821,2.027
	C201.734,39.074,199.91,39.021,199.561,37.791z"/>
<path fill="#E8A323" d="M202.58,48.434c0.122,0.815-0.897,1.643-2.277,1.847c-1.378,0.206-2.595-0.288-2.717-1.103
	c-0.12-0.814,0.899-1.642,2.279-1.848C201.243,47.125,202.458,47.62,202.58,48.434z"/>
<path fill="#B16244" d="M197.585,49.178c0,0,2.781,1.562,4.995-0.744c0,0,0.572,1.77-2.819,2.027
	C199.761,50.461,197.937,50.408,197.585,49.178z"/>
<path fill="#E8A323" d="M219.7,47.029c0.121,0.816-0.898,1.643-2.278,1.848c-1.378,0.205-2.595-0.289-2.716-1.104
	c-0.121-0.814,0.898-1.641,2.277-1.847C218.362,45.72,219.579,46.214,219.7,47.029z"/>
<path fill="#B16244" d="M214.706,47.773c0,0,2.779,1.562,4.994-0.744c0,0,0.572,1.769-2.82,2.026
	C216.88,49.055,215.056,49.002,214.706,47.773z"/>
<path fill="#E8A323" d="M222.192,39.435c0.121,0.815-0.898,1.643-2.276,1.847c-1.381,0.205-2.596-0.288-2.717-1.103
	c-0.121-0.813,0.898-1.642,2.277-1.849C220.854,38.127,222.071,38.621,222.192,39.435z"/>
<path fill="#B16244" d="M217.199,40.179c0,0,2.782,1.563,4.993-0.744c0,0,0.572,1.769-2.818,2.027
	C219.374,41.462,217.55,41.41,217.199,40.179z"/>
<path fill="#E8A323" d="M228.115,35.743c0.12,0.816-0.898,1.643-2.279,1.847c-1.377,0.205-2.594-0.289-2.715-1.103
	c-0.12-0.816,0.898-1.642,2.276-1.849C226.777,34.434,227.993,34.928,228.115,35.743z"/>
<path fill="#B16244" d="M223.121,36.487c0,0,2.781,1.562,4.994-0.744c0,0,0.57,1.768-2.821,2.026
	C225.294,37.769,223.472,37.717,223.121,36.487z"/>
<path fill="#E8A323" d="M225.639,50.023c0.121,0.816-0.897,1.643-2.277,1.848c-1.378,0.205-2.594-0.29-2.716-1.104
	c-0.121-0.814,0.898-1.643,2.276-1.848C224.301,48.714,225.519,49.209,225.639,50.023z"/>
<path fill="#B16244" d="M220.646,50.767c0,0,2.781,1.562,4.993-0.744c0,0,0.573,1.77-2.818,2.027
	C222.82,52.05,220.996,51.997,220.646,50.767z"/>
<path fill="#E8A323" d="M212.953,55.495c0.122,0.816-0.899,1.644-2.278,1.849c-1.377,0.205-2.595-0.29-2.715-1.104
	c-0.122-0.814,0.898-1.643,2.277-1.847C211.614,54.187,212.833,54.68,212.953,55.495z"/>
<path fill="#B16244" d="M207.959,56.24c0,0,2.78,1.562,4.994-0.745c0,0,0.57,1.77-2.82,2.028
	C210.133,57.523,208.309,57.47,207.959,56.24z"/>
<path fill="#E8A323" d="M209.114,49.009c0.121,0.815-0.897,1.643-2.277,1.848c-1.379,0.205-2.595-0.289-2.715-1.104
	c-0.12-0.813,0.897-1.641,2.277-1.847C207.777,47.7,208.993,48.196,209.114,49.009z"/>
<path fill="#B16244" d="M204.122,49.753c0,0,2.781,1.562,4.993-0.744c0,0,0.572,1.769-2.82,2.026
	C206.294,51.036,204.472,50.982,204.122,49.753z"/>
<path fill="#E8A323" d="M213.601,39.874c0.122,0.815-0.898,1.643-2.277,1.848c-1.379,0.205-2.596-0.291-2.716-1.105
	c-0.122-0.814,0.899-1.641,2.277-1.846C212.264,38.565,213.48,39.059,213.601,39.874z"/>
<path fill="#B16244" d="M208.608,40.616c0,0,2.78,1.563,4.993-0.743c0,0,0.572,1.769-2.82,2.027
	C210.781,41.901,208.958,41.848,208.608,40.616z"/>
<path fill="#E8A323" d="M217.216,44.415c-0.291,0.77-1.584,0.996-2.889,0.503c-1.302-0.492-2.124-1.515-1.833-2.287
	c0.292-0.77,1.584-0.996,2.889-0.503C216.687,42.62,217.506,43.645,217.216,44.415z"/>
<path fill="#B16244" d="M212.493,42.631c0,0,1.667,2.72,4.723,1.784c0,0-0.361,1.823-3.449,0.395
	C213.767,44.81,212.2,43.876,212.493,42.631z"/>
<path fill="#E8A323" d="M234.729,41.048c-0.29,0.771-1.583,0.998-2.888,0.504c-1.303-0.493-2.125-1.517-1.834-2.288
	c0.292-0.77,1.584-0.995,2.888-0.503C234.199,39.254,235.02,40.28,234.729,41.048z"/>
<path fill="#B16244" d="M230.006,39.264c0,0,1.667,2.719,4.722,1.784c0,0-0.361,1.824-3.448,0.396
	C231.28,41.445,229.713,40.511,230.006,39.264z"/>
<path fill="#E8A323" d="M219.744,35.738c-0.292,0.771-1.584,0.998-2.89,0.504c-1.303-0.493-2.125-1.517-1.833-2.289
	c0.29-0.77,1.584-0.996,2.888-0.502C219.214,33.943,220.034,34.969,219.744,35.738z"/>
<path fill="#B16244" d="M215.022,33.954c0,0,1.666,2.719,4.722,1.784c0,0-0.363,1.824-3.45,0.396
	C216.295,36.134,214.727,35.2,215.022,33.954z"/>
<path fill="#E8A323" d="M224.564,45.256c-0.292,0.771-1.584,0.998-2.889,0.504c-1.304-0.493-2.125-1.518-1.833-2.288
	c0.291-0.771,1.584-0.997,2.887-0.504C224.033,43.462,224.854,44.488,224.564,45.256z"/>
<path fill="#B16244" d="M219.841,43.473c0,0,1.667,2.72,4.723,1.783c0,0-0.363,1.824-3.45,0.396
	C221.113,45.652,219.546,44.718,219.841,43.473z"/>
<path fill="#E8A323" d="M226.822,56.299c-0.291,0.771-1.584,0.997-2.889,0.504c-1.304-0.494-2.125-1.518-1.833-2.289
	c0.291-0.77,1.584-0.995,2.889-0.503C226.292,54.504,227.114,55.528,226.822,56.299z"/>
<path fill="#B16244" d="M222.1,54.514c0,0,1.667,2.721,4.723,1.785c0,0-0.362,1.823-3.449,0.396
	C223.374,56.695,221.805,55.76,222.1,54.514z"/>
<path fill="#E8A323" d="M196.128,63.709c0,0.825-1.13,1.492-2.523,1.492c-1.396,0-2.525-0.667-2.525-1.492
	c0-0.824,1.129-1.491,2.525-1.491C194.998,62.219,196.128,62.885,196.128,63.709z"/>
<path fill="#B16244" d="M191.079,63.709c0,0,2.521,1.956,5.049,0c0,0,0.304,1.834-3.088,1.591
	C193.04,65.3,191.245,64.979,191.079,63.709z"/>
<path fill="#E8A323" d="M207.971,66.284c0,0.823-1.131,1.491-2.523,1.491c-1.394,0-2.524-0.667-2.524-1.491
	c0-0.823,1.13-1.492,2.524-1.492C206.84,64.792,207.971,65.461,207.971,66.284z"/>
<path fill="#B16244" d="M202.923,66.284c0,0,2.52,1.954,5.048,0c0,0,0.305,1.833-3.088,1.59
	C204.883,67.874,203.088,67.552,202.923,66.284z"/>
<path fill="#E8A323" d="M225.694,66.101c0,0.824-1.129,1.493-2.523,1.493c-1.396,0-2.525-0.668-2.525-1.493s1.129-1.492,2.525-1.492
	C224.564,64.61,225.694,65.277,225.694,66.101z"/>
<path fill="#B16244" d="M220.646,66.101c0,0,2.521,1.954,5.048,0c0,0,0.307,1.833-3.087,1.589
	C222.606,67.69,220.811,67.369,220.646,66.101z"/>
<path fill="#E8A323" d="M208.08,54.751c0,0.824-1.129,1.493-2.523,1.493c-1.396,0-2.525-0.669-2.525-1.493
	c0-0.825,1.129-1.491,2.525-1.491C206.951,53.26,208.08,53.926,208.08,54.751z"/>
<path fill="#B16244" d="M203.032,54.751c0,0,2.521,1.955,5.048,0c0,0,0.306,1.833-3.086,1.589
	C204.994,56.34,203.198,56.018,203.032,54.751z"/>
<path fill="#E8A323" d="M212.021,69.72c0,0.824-1.129,1.493-2.524,1.493c-1.394,0-2.524-0.668-2.524-1.493
	c0-0.823,1.13-1.491,2.524-1.491C210.891,68.229,212.021,68.897,212.021,69.72z"/>
<path fill="#B16244" d="M206.973,69.72c0,0,2.519,1.955,5.048,0c0,0,0.305,1.834-3.087,1.59
	C208.934,71.309,207.137,70.988,206.973,69.72z"/>
<path fill="#E8A323" d="M201.276,65.577c-0.389,0.726-1.7,0.783-2.929,0.125c-1.229-0.657-1.911-1.779-1.523-2.505
	c0.388-0.726,1.7-0.784,2.93-0.126C200.984,63.73,201.666,64.852,201.276,65.577z"/>
<path fill="#B16244" d="M196.825,63.198c0,0,1.301,2.911,4.452,2.38c0,0-0.596,1.76-3.472-0.054
	C197.805,65.524,196.372,64.392,196.825,63.198z"/>
<path fill="#E8A323" d="M205.45,63.712c-0.388,0.727-1.698,0.782-2.929,0.124c-1.229-0.657-1.911-1.779-1.522-2.505
	c0.39-0.726,1.701-0.782,2.929-0.125C205.158,61.863,205.84,62.986,205.45,63.712z"/>
<path fill="#B16244" d="M200.999,61.331c0,0,1.3,2.91,4.451,2.381c0,0-0.595,1.759-3.472-0.055
	C201.979,63.658,200.547,62.527,200.999,61.331z"/>
<path fill="#E8A323" d="M222.547,62.341c-0.389,0.727-1.7,0.782-2.93,0.125c-1.229-0.659-1.911-1.779-1.522-2.506
	c0.39-0.726,1.699-0.784,2.929-0.126C222.254,60.493,222.936,61.615,222.547,62.341z"/>
<path fill="#B16244" d="M218.095,59.96c0,0,1.3,2.912,4.452,2.381c0,0-0.596,1.76-3.474-0.054
	C219.073,62.287,217.643,61.156,218.095,59.96z"/>
<path fill="#E8A323" d="M200.847,60.08c0.123,0.814-0.897,1.642-2.277,1.847c-1.378,0.204-2.596-0.288-2.716-1.104
	c-0.121-0.814,0.898-1.641,2.277-1.847C199.509,58.771,200.727,59.265,200.847,60.08z"/>
<path fill="#B16244" d="M195.854,60.823c0,0,2.78,1.562,4.993-0.744c0,0,0.573,1.769-2.82,2.026
	C198.027,62.106,196.203,62.054,195.854,60.823z"/>
<path fill="#E8A323" d="M199.198,55.925c0.123,0.814-0.897,1.643-2.276,1.847c-1.378,0.205-2.595-0.288-2.715-1.103
	c-0.122-0.814,0.897-1.641,2.276-1.847C197.862,54.616,199.079,55.11,199.198,55.925z"/>
<path fill="#B16244" d="M194.206,56.669c0,0,2.781,1.562,4.993-0.744c0,0,0.571,1.769-2.819,2.026
	C196.379,57.951,194.556,57.899,194.206,56.669z"/>
<path fill="#E8A323" d="M197.226,67.31c0.121,0.816-0.898,1.643-2.278,1.849c-1.378,0.204-2.595-0.291-2.715-1.105
	c-0.122-0.814,0.897-1.641,2.275-1.846C195.889,66.004,197.104,66.497,197.226,67.31z"/>
<path fill="#B16244" d="M192.232,68.055c0,0,2.779,1.562,4.993-0.745c0,0,0.572,1.77-2.82,2.028
	C194.405,69.339,192.583,69.286,192.232,68.055z"/>
<path fill="#E8A323" d="M214.344,65.906c0.122,0.815-0.898,1.643-2.276,1.848c-1.38,0.205-2.596-0.29-2.717-1.104
	c-0.121-0.814,0.899-1.641,2.277-1.848C213.007,64.597,214.224,65.092,214.344,65.906z"/>
<path fill="#B16244" d="M209.351,66.65c0,0,2.78,1.563,4.994-0.744c0,0,0.572,1.769-2.819,2.027
	C211.525,67.933,209.701,67.881,209.351,66.65z"/>
<path fill="#E8A323" d="M216.837,58.312c0.123,0.815-0.896,1.642-2.276,1.847c-1.378,0.205-2.594-0.289-2.717-1.103
	c-0.122-0.815,0.899-1.642,2.277-1.848C215.5,57.003,216.716,57.497,216.837,58.312z"/>
<path fill="#B16244" d="M211.844,59.056c0,0,2.781,1.562,4.993-0.744c0,0,0.572,1.769-2.819,2.027
	C214.018,60.34,212.194,60.286,211.844,59.056z"/>
<path fill="#E8A323" d="M222.759,54.619c0.122,0.816-0.898,1.643-2.277,1.849c-1.379,0.205-2.595-0.29-2.715-1.104
	c-0.121-0.814,0.898-1.642,2.276-1.848C221.422,53.311,222.638,53.805,222.759,54.619z"/>
<path fill="#B16244" d="M217.767,55.364c0,0,2.78,1.563,4.993-0.744c0,0,0.572,1.769-2.819,2.026
	C219.94,56.647,218.117,56.594,217.767,55.364z"/>
<path fill="#E8A323" d="M220.284,68.9c0.122,0.815-0.897,1.643-2.277,1.848c-1.377,0.205-2.594-0.289-2.715-1.104
	c-0.122-0.814,0.897-1.642,2.276-1.848C218.947,67.591,220.163,68.086,220.284,68.9z"/>
<path fill="#B16244" d="M215.292,69.644c0,0,2.778,1.562,4.992-0.744c0,0,0.572,1.77-2.819,2.027
	C217.465,70.927,215.641,70.874,215.292,69.644z"/>
<path fill="#E8A323" d="M207.598,74.373c0.122,0.815-0.898,1.643-2.277,1.848c-1.379,0.204-2.595-0.289-2.716-1.104
	c-0.12-0.815,0.899-1.642,2.277-1.848C206.262,73.064,207.478,73.559,207.598,74.373z"/>
<path fill="#B16244" d="M202.604,75.117c0,0,2.78,1.562,4.993-0.744c0,0,0.571,1.77-2.82,2.026
	C204.778,76.4,202.954,76.347,202.604,75.117z"/>
<path fill="#E8A323" d="M203.759,67.886c0.123,0.815-0.896,1.643-2.276,1.847c-1.379,0.205-2.595-0.289-2.717-1.104
	c-0.12-0.813,0.899-1.642,2.277-1.848C202.421,66.578,203.639,67.073,203.759,67.886z"/>
<path fill="#B16244" d="M198.766,68.63c0,0,2.783,1.562,4.994-0.744c0,0,0.572,1.769-2.818,2.026
	C200.941,69.913,199.117,69.861,198.766,68.63z"/>
<path fill="#E8A323" d="M208.246,58.75c0.123,0.815-0.898,1.643-2.276,1.848c-1.379,0.205-2.595-0.29-2.715-1.103
	c-0.121-0.815,0.897-1.642,2.277-1.847C206.909,57.443,208.125,57.936,208.246,58.75z"/>
<path fill="#B16244" d="M203.254,59.495c0,0,2.779,1.562,4.992-0.745c0,0,0.573,1.77-2.819,2.028
	C205.427,60.778,203.603,60.724,203.254,59.495z"/>
<path fill="#E8A323" d="M211.861,63.293c-0.291,0.771-1.584,0.997-2.889,0.504c-1.303-0.494-2.124-1.518-1.834-2.288
	c0.292-0.771,1.585-0.997,2.89-0.504C211.331,61.498,212.152,62.522,211.861,63.293z"/>
<path fill="#B16244" d="M207.139,61.509c0,0,1.667,2.719,4.723,1.784c0,0-0.363,1.823-3.448,0.395
	C208.413,63.688,206.845,62.754,207.139,61.509z"/>
<path fill="#E8A323" d="M229.375,59.927c-0.292,0.77-1.584,0.996-2.889,0.502c-1.303-0.493-2.125-1.517-1.835-2.288
	c0.292-0.77,1.584-0.995,2.889-0.503C228.844,58.133,229.666,59.156,229.375,59.927z"/>
<path fill="#B16244" d="M224.65,58.142c0,0,1.668,2.72,4.724,1.785c0,0-0.362,1.822-3.45,0.396
	C225.925,60.323,224.358,59.386,224.65,58.142z"/>
<path fill="#E8A323" d="M214.389,54.615c-0.292,0.771-1.583,0.996-2.89,0.503c-1.302-0.492-2.124-1.517-1.833-2.288
	c0.291-0.77,1.583-0.996,2.889-0.503C213.859,52.82,214.68,53.845,214.389,54.615z"/>
<path fill="#B16244" d="M209.667,52.831c0,0,1.667,2.72,4.723,1.784c0,0-0.362,1.823-3.45,0.396
	C210.94,55.011,209.372,54.077,209.667,52.831z"/>
<path fill="#E8A323" d="M219.208,64.134c-0.29,0.771-1.584,0.998-2.887,0.504c-1.304-0.493-2.125-1.517-1.834-2.287
	c0.292-0.771,1.584-0.997,2.889-0.504C218.679,62.339,219.5,63.364,219.208,64.134z"/>
<path fill="#B16244" d="M214.486,62.351c0,0,1.667,2.718,4.722,1.783c0,0-0.361,1.824-3.448,0.396
	C215.759,64.53,214.193,63.594,214.486,62.351z"/>
<path fill="#E8A323" d="M221.468,75.176c-0.292,0.771-1.584,0.997-2.889,0.504c-1.303-0.493-2.125-1.518-1.833-2.287
	c0.291-0.771,1.583-0.996,2.889-0.504C220.938,73.381,221.76,74.406,221.468,75.176z"/>
<path fill="#B16244" d="M216.745,73.393c0,0,1.665,2.719,4.723,1.783c0,0-0.363,1.823-3.449,0.396
	C218.019,75.572,216.45,74.637,216.745,73.393z"/>
<path fill="#FAFBE9" d="M316.052,53.58c0.692,5.369-3.892,10.384-12.577,11.503c-8.682,1.12-16.281-2.325-16.975-7.693
	c-0.693-5.369,4.692-11.644,13.376-12.763C308.561,43.51,315.359,48.212,316.052,53.58z"/>
<path fill="#104823" d="M290.452,62.849c0,0,25.526-2.917,24.709-11.97c0,0,1.15,1.98,0.847,5.091c0,0-2.04,9.367-12.592,10.443
	C303.416,66.414,294.787,65.308,290.452,62.849z"/>
<path fill="#34B44A" d="M301,52.706c0,0-1.07-3.797,0.958-3.006C301.958,49.7,302.485,50.781,301,52.706z"/>
<path fill="#34B44A" d="M299.095,54.089c0,0-3.933-0.302-2.493-1.935C296.602,52.155,297.796,52.033,299.095,54.089z"/>
<path fill="#34B44A" d="M299.56,55.461c0,0-1.711,3.554-2.71,1.62C296.85,57.081,297.172,55.921,299.56,55.461z"/>
<path fill="#34B44A" d="M301.279,55.112c0,0,3.824,0.961,2.131,2.328C303.41,57.44,302.211,57.357,301.279,55.112z"/>
<path fill="#34B44A" d="M302.321,54.038c0,0,2.442-3.097,2.996-0.992C305.317,53.045,304.752,54.106,302.321,54.038z"/>
<path fill="#FAFBE9" d="M296.043,62.182c0,5.413-5.187,9.8-13.944,9.8c-8.753,0-15.851-4.387-15.851-9.8
	c0-5.414,6.143-10.948,14.898-10.948C289.902,51.235,296.043,56.769,296.043,62.182z"/>
<path fill="#104823" d="M269.469,68.103c0,0,25.69,0.37,26.036-8.712c0,0,0.892,2.109,0.188,5.155c0,0-3.219,9.031-13.821,8.749
	C281.872,73.296,273.455,71.095,269.469,68.103z"/>
<path fill="#34B44A" d="M281.227,59.391c0,0-0.571-3.903,1.337-2.859C282.563,56.532,282.945,57.672,281.227,59.391z"/>
<path fill="#34B44A" d="M279.16,60.52c0,0-3.861-0.803-2.224-2.238C276.937,58.281,278.138,58.313,279.16,60.52z"/>
<path fill="#34B44A" d="M279.445,61.938c0,0-2.148,3.306-2.893,1.26C276.553,63.199,277.02,62.091,279.445,61.938z"/>
<path fill="#34B44A" d="M281.198,61.812c0,0,3.671,1.443,1.813,2.581C283.012,64.393,281.835,64.158,281.198,61.812z"/>
<path fill="#34B44A" d="M282.365,60.881c0,0,2.82-2.76,3.1-0.601C285.465,60.281,284.769,61.258,282.365,60.881z"/>
<path fill="#FFFCF2" d="M298.727,75.568c1.289,0.366,2.037,1.71,1.669,2.999l0,0c-0.368,1.289-1.71,2.036-2.999,1.669l-19.721-5.624
	c-1.29-0.367,1.136-0.806,1.503-2.095l0,0c0.367-1.289-0.789-3.42,0.501-3.052L298.727,75.568z"/>
<path fill="#FFFCF2" d="M300.649,78.295c1.354,0.385,2.137,1.794,1.75,3.147l-0.326,1.148c-0.386,1.353-1.795,2.137-3.148,1.75l0,0
	c-1.353-0.386-2.139-1.794-1.751-3.148l0.325-1.146C297.887,78.693,299.295,77.908,300.649,78.295L300.649,78.295z"/>
<path fill="#FFFCF2" d="M302.141,73.065c1.353,0.385,2.137,1.795,1.75,3.149l-0.327,1.145c-0.385,1.353-1.795,2.136-3.147,1.751l0,0
	c-1.352-0.386-2.138-1.796-1.749-3.149l0.324-1.146C299.377,73.463,300.787,72.679,302.141,73.065L302.141,73.065z"/>
<path fill="#F4CE5D" d="M267.485,56.485c10.282,2.933,17.098,10.644,15.222,17.226c-1.879,6.581-11.734,9.538-22.017,6.605
	c-10.283-2.93-14.16-9.8-12.285-16.379C250.284,57.355,257.202,53.553,267.485,56.485z"/>
<g>
	<path fill="#B1862D" d="M248.315,69.91c0.324,0.666,0.712,1.298,1.116,1.917c0.408,0.616,0.848,1.21,1.315,1.781
		c0.938,1.139,1.975,2.197,3.116,3.128c1.14,0.933,2.381,1.736,3.694,2.394c1.312,0.662,2.698,1.17,4.125,1.515
		c1.425,0.346,2.89,0.529,4.358,0.567c1.468,0.042,2.94-0.05,4.396-0.263c2.916-0.425,5.75-1.31,8.485-2.42l-0.009,0.004
		c0.342-0.181,0.675-0.414,0.985-0.66c0.313-0.249,0.608-0.52,0.882-0.811c0.548-0.582,1.011-1.244,1.368-1.961
		c0.357-0.718,0.603-1.493,0.729-2.288c0.125-0.796,0.141-1.611,0.066-2.417c0.109,0.802,0.129,1.621,0.022,2.429
		c-0.104,0.808-0.327,1.604-0.669,2.348c-0.34,0.746-0.804,1.434-1.354,2.041c-0.275,0.304-0.572,0.588-0.89,0.85
		c-0.319,0.261-0.647,0.502-1.02,0.708l-0.003,0.002l-0.005,0.003c-2.726,1.184-5.588,2.081-8.537,2.531
		c-1.473,0.223-2.967,0.334-4.461,0.29c-1.492-0.048-2.982-0.244-4.433-0.605c-1.45-0.36-2.859-0.886-4.189-1.567
		c-1.327-0.685-2.568-1.531-3.704-2.495c-1.136-0.965-2.171-2.045-3.074-3.226c-0.453-0.589-0.877-1.2-1.268-1.831
		C248.971,71.24,248.613,70.589,248.315,69.91z"/>
</g>
<path fill="#48632E" d="M241.92,65.365l1.195,1.869c0,0,3.635-4.013,0.603-4.747C243.718,62.485,245.382,64.593,241.92,65.365z"/>
<path fill="#DA1F26" d="M243.185,67.287c0,0-1.344-7.153-8.54-0.521c0,0-6.509,6.557-16.614,8.852l-5.551,1.376
	c0,0-3.55,0.599-1.941,1.952c0,0,12.449,6.346,26.447-2.913C236.985,76.034,245.041,71.532,243.185,67.287z"/>
<path fill="#48632E" d="M225.289,59.964l1.197,1.869c0,0,3.635-4.013,0.603-4.748C227.089,57.085,228.752,59.193,225.289,59.964z"/>
<path fill="#DA1F26" d="M226.554,61.886c0,0-1.344-7.152-8.539-0.52c0,0-6.508,6.557-16.616,8.851l-5.55,1.377
	c0,0-3.549,0.599-1.939,1.952c0,0,12.448,6.346,26.446-2.913C220.355,70.634,228.412,66.131,226.554,61.886z"/>
</svg>
