<?xml version="1.0" encoding="utf-8"?>
<!-- Generator: Adobe Illustrator 15.1.0, SVG Export Plug-In  -->
<!DOCTYPE svg PUBLIC "-//W3C//DTD SVG 1.1//EN" "http://www.w3.org/Graphics/SVG/1.1/DTD/svg11.dtd" [
	<!ENTITY ns_flows "http://ns.adobe.com/Flows/1.0/">
]>
<svg version="1.1"
	 xmlns="http://www.w3.org/2000/svg" xmlns:xlink="http://www.w3.org/1999/xlink" xmlns:a="http://ns.adobe.com/AdobeSVGViewerExtensions/3.0/"
	 x="0px" y="0px" width="2706px" height="1317px" viewBox="0 -69.821 2706 1317"
	 overflow="visible" enable-background="new 0 -69.821 2706 1317" xml:space="preserve">
<defs>
</defs>
<path fill="none" d="M138.794,134.918l109.444,666.318h489.42l119.958-680.838C857.616,120.398,496.457-159.934,138.794,134.918z"/>
<polygon fill="#AE4A29" points="248.238,794.923 169.422,893.829 816.575,893.829 737.658,794.923 "/>
<rect x="169.422" y="893.829" fill="#D77031" width="647.153" height="66.293"/>
<polygon fill="#AE4A29" points="219.927,960.122 138.794,1468.381 194.673,1468.381 292.535,960.122 "/>
<polygon fill="#AE4A29" points="305.597,960.122 238.72,1379.092 284.779,1379.092 365.452,960.122 "/>
<polygon fill="#AE4A29" points="779.174,1468.381 698.042,960.122 753.919,960.122 851.784,1468.381 "/>
<polygon fill="#AE4A29" points="669.704,1379.092 602.827,960.122 648.887,960.122 729.56,1379.092 "/>
<path fill="#D77031" d="M157.052,250.27c0,0,311.375-281.514,676.938,8.445l23.626-134.107c0,0-392.596-281.375-718.822,14.52
	L157.052,250.27z"/>
<polygon fill="#D77031" points="292.535,164.479 357.679,801.236 416.61,801.236 370.345,138.41 "/>
<polyline fill="#D77031" points="465.171,124.064 488.221,801.236 534.474,801.236 534.474,115.112 465.171,115.112 "/>
<polygon fill="#D77031" points="631.287,138.41 591.3,801.236 646.022,801.236 713.373,163.521 "/>
<polygon fill="#D77031" points="236.796,731.586 248.238,801.236 737.658,801.236 751.246,724.104 235.568,724.104 "/>
<polygon fill="#D77031" points="157.052,246.061 240.275,752.756 315.589,752.756 235.568,192.306 "/>
<polygon fill="#D77031" points="774.91,180.357 679.696,801.236 737.658,801.236 833.99,254.506 "/>
<path fill="none" d="M993.173,309.296l95.129,579.182h425.418l104.273-591.801C1617.993,296.677,1304.062,53.003,993.173,309.296z"
	/>
<polygon fill="#AE4A29" points="1088.302,882.99 1019.793,968.965 1582.316,968.965 1513.72,882.99 "/>
<rect x="1019.793" y="968.965" fill="#D77031" width="562.523" height="57.624"/>
<polygon fill="#AE4A29" points="1063.698,1026.589 993.173,1468.381 1041.74,1468.381 1126.808,1026.589 "/>
<polygon fill="#AE4A29" points="1138.161,1026.589 1080.027,1390.769 1120.065,1390.769 1190.188,1026.589 "/>
<polygon fill="#AE4A29" points="1549.81,1468.381 1479.288,1026.589 1527.856,1026.589 1612.923,1468.381 "/>
<polygon fill="#AE4A29" points="1454.657,1390.769 1396.524,1026.589 1436.56,1026.589 1506.681,1390.769 "/>
<path fill="#D77031" d="M1009.042,409.563c0,0,270.66-244.702,588.414,7.341l20.537-116.569c0,0-341.256-244.58-624.82,12.621
	L1009.042,409.563z"/>
<polygon fill="#D77031" points="1126.808,334.991 1183.433,888.478 1234.658,888.478 1194.44,312.332 "/>
<polyline fill="#D77031" points="1276.872,299.861 1296.905,888.478 1337.106,888.478 1337.106,292.082 1276.872,292.082 "/>
<polygon fill="#D77031" points="1421.263,312.332 1386.502,888.478 1434.071,888.478 1492.61,334.16 "/>
<polygon fill="#D77031" points="1078.362,827.937 1088.302,888.478 1513.72,888.478 1525.532,821.434 1077.29,821.434 "/>
<polygon fill="#D77031" points="1009.042,405.904 1081.382,846.338 1146.847,846.338 1077.29,359.178 "/>
<polygon fill="#D77031" points="1546.103,348.795 1463.341,888.478 1513.72,888.478 1597.456,413.246 "/>
<path fill="none" d="M1738.058,309.296l95.132,579.182h425.416l104.275-591.801C2362.881,296.677,2048.948,53.003,1738.058,309.296z
	"/>
<polygon fill="#AE4A29" points="1833.189,882.99 1764.679,968.965 2327.204,968.965 2258.605,882.99 "/>
<rect x="1764.679" y="968.965" fill="#D77031" width="562.525" height="57.624"/>
<polygon fill="#AE4A29" points="1808.583,1026.589 1738.058,1468.381 1786.628,1468.381 1871.696,1026.589 "/>
<polygon fill="#AE4A29" points="1883.048,1026.589 1824.913,1390.769 1864.95,1390.769 1935.076,1026.589 "/>
<polygon fill="#AE4A29" points="2294.696,1468.381 2224.173,1026.589 2272.743,1026.589 2357.812,1468.381 "/>
<polygon fill="#AE4A29" points="2199.544,1390.769 2141.409,1026.589 2181.446,1026.589 2251.567,1390.769 "/>
<path fill="#D77031" d="M1753.93,409.563c0,0,270.658-244.702,588.411,7.341l20.54-116.569c0,0-341.257-244.58-624.823,12.621
	L1753.93,409.563z"/>
<polygon fill="#D77031" points="1871.696,334.991 1928.319,888.478 1979.546,888.478 1939.325,312.332 "/>
<polyline fill="#D77031" points="2021.759,299.861 2041.792,888.478 2081.993,888.478 2081.993,292.082 2021.759,292.082 "/>
<polygon fill="#D77031" points="2166.149,312.332 2131.389,888.478 2178.958,888.478 2237.498,334.16 "/>
<polygon fill="#D77031" points="1823.247,827.937 1833.189,888.478 2258.605,888.478 2270.421,821.434 1822.176,821.434 "/>
<polygon fill="#D77031" points="1753.93,405.904 1826.267,846.338 1891.731,846.338 1822.176,359.178 "/>
<polygon fill="#D77031" points="2290.987,348.795 2208.228,888.478 2258.605,888.478 2342.341,413.246 "/>
<polygon fill="#B3529F" points="194.542,651.878 0,1247.669 2705.874,1247.669 2458.28,651.878 "/>
</svg>
